<svg width="83" height="110" viewBox="0 0 83 110" fill="none" xmlns="http://www.w3.org/2000/svg">
<path d="M41.75 98.113C64.5317 98.113 83 80.0676 83 57.8074C83 35.5471 64.5317 17.5017 41.75 17.5017C18.9683 17.5017 0.5 35.5471 0.5 57.8074C0.5 80.0676 18.9683 98.113 41.75 98.113Z" fill="#7CC144"/>
<path d="M22.9284 70.8959C31.3315 70.8959 38.1435 64.2939 38.1435 56.1499C38.1435 48.0059 31.3315 41.4039 22.9284 41.4039C14.5253 41.4039 7.7132 48.0059 7.7132 56.1499C7.7132 64.2939 14.5253 70.8959 22.9284 70.8959Z" fill="white" stroke="white" stroke-width="2.01259"/>
<path d="M23.2665 71.9882C32.3543 71.9882 39.7214 64.8971 39.7214 56.1499C39.7214 47.4027 32.3543 40.3116 23.2665 40.3116C14.1787 40.3116 6.81158 47.4027 6.81158 56.1499C6.81158 64.8971 14.1787 71.9882 23.2665 71.9882Z" fill="#327130"/>
<path d="M23.1537 71.3328C31.8058 71.3328 38.8197 64.5352 38.8197 56.1499C38.8197 47.7647 31.8058 40.967 23.1537 40.967C14.5016 40.967 7.48773 47.7647 7.48773 56.1499C7.48773 64.5352 14.5016 71.3328 23.1537 71.3328Z" stroke="white" stroke-opacity="0.95" stroke-width="1.61007"/>
<path d="M18.9835 58.2253C21.8468 58.2253 24.1679 55.9268 24.1679 53.0915C24.1679 50.2562 21.8468 47.9577 18.9835 47.9577C16.1202 47.9577 13.7991 50.2562 13.7991 53.0915C13.7991 55.9268 16.1202 58.2253 18.9835 58.2253Z" fill="white"/>
<path d="M27.3239 58.8807C28.4443 58.8807 29.3525 58.0493 29.3525 57.0238C29.3525 55.9982 28.4443 55.1669 27.3239 55.1669C26.2034 55.1669 25.2952 55.9982 25.2952 57.0238C25.2952 58.0493 26.2034 58.8807 27.3239 58.8807Z" fill="#C8E1E5"/>
<path d="M60.5716 70.8959C68.9747 70.8959 75.7868 64.2939 75.7868 56.1499C75.7868 48.0059 68.9747 41.4039 60.5716 41.4039C52.1685 41.4039 45.3564 48.0059 45.3564 56.1499C45.3564 64.2939 52.1685 70.8959 60.5716 70.8959Z" fill="white" stroke="white" stroke-width="2.01259"/>
<path d="M60.2336 71.9882C69.3214 71.9882 76.6885 64.8971 76.6885 56.1499C76.6885 47.4027 69.3214 40.3116 60.2336 40.3116C51.1458 40.3116 43.7787 47.4027 43.7787 56.1499C43.7787 64.8971 51.1458 71.9882 60.2336 71.9882Z" fill="#327130"/>
<path d="M60.3463 71.3328C68.9984 71.3328 76.0123 64.5352 76.0123 56.1499C76.0123 47.7647 68.9984 40.967 60.3463 40.967C51.6942 40.967 44.6803 47.7647 44.6803 56.1499C44.6803 64.5352 51.6942 71.3328 60.3463 71.3328Z" stroke="white" stroke-opacity="0.95" stroke-width="1.61007"/>
<path d="M56.1762 58.2253C53.313 58.2253 50.9918 55.9268 50.9918 53.0915C50.9918 50.2562 53.313 47.9577 56.1762 47.9577C59.0395 47.9577 61.3607 50.2562 61.3607 53.0915C61.3607 55.9268 59.0395 58.2253 56.1762 58.2253Z" fill="white"/>
<path d="M64.5165 58.8807C63.3961 58.8807 62.4878 58.0493 62.4878 57.0238C62.4878 55.9982 63.3961 55.1669 64.5165 55.1669C65.6369 55.1669 66.5452 55.9982 66.5452 57.0238C66.5452 58.0493 65.6369 58.8807 64.5165 58.8807Z" fill="#C8E1E5"/>
<path d="M35.2131 73.9543C36.2187 81.4401 47.0298 82.1887 48.2868 73.9543" stroke="#327130" stroke-width="2.01259" stroke-linecap="round" stroke-linejoin="round"/>
<path d="M62.4877 106.614C62.4877 108.484 53.2534 110 41.8627 110C30.4719 110 21.2377 108.484 21.2377 106.614C21.2377 104.744 30.4719 103.228 41.8627 103.228C53.2534 103.228 62.4877 104.744 62.4877 106.614Z" fill="#48A145" fill-opacity="0.4"/>
<path d="M47.0991 26.422L48.4217 26.7648L55.0077 12.9326L56.3591 10.5652L51.9026 9.91729L47.0991 26.422Z" fill="#B78438"/>
<path d="M54.4405 14.0113C58.4274 14.0113 61.6593 10.8748 61.6593 7.00571C61.6593 3.1366 58.4274 6.86646e-05 54.4405 6.86646e-05C50.4537 6.86646e-05 47.2218 3.1366 47.2218 7.00571C47.2218 10.8748 50.4537 14.0113 54.4405 14.0113Z" fill="#D55F31"/>
<path d="M35.8851 26.422L34.5626 26.7648L27.9763 12.9326L26.6252 10.5652L31.0815 9.91729L35.8851 26.422Z" fill="#B78438"/>
<path d="M28.1436 14.0113C32.1304 14.0113 35.3624 10.8748 35.3624 7.00568C35.3624 3.13657 32.1304 3.8147e-05 28.1436 3.8147e-05C24.1568 3.8147e-05 20.9249 3.13657 20.9249 7.00568C20.9249 10.8748 24.1568 14.0113 28.1436 14.0113Z" fill="#D55F31"/>
</svg>
