<svg xmlns="http://www.w3.org/2000/svg" viewBox="0 0 69.12 112.26"><path d="M36.84 102.06a23.31 23.31 0 0 1 .47-2.45c.2-1.11.44-2.19.68-3.19 1.15-4.63 2.19-7.35 2.56-9.53h.15a8.64 8.64 0 0 0 6.64 2.51 8.32 8.32 0 0 0 7-3.79h.24a97.78 97.78 0 0 1-1.77 11c-.7 3.13-1.41 6.36-3.08 9.13-.17.28-.37.57-.59.86s-.58.93-.91 1.37a13.17 13.17 0 0 1-1.09 1.26 8.08 8.08 0 0 1-2.51 1.86 6.17 6.17 0 0 1-4 .29 4.86 4.86 0 0 1-2.56-1.62 6.1 6.1 0 0 1-1.1-2.36 14.3 14.3 0 0 1-.13-5.34z" fill="#e2a355"/><path d="M37.35 100.33c.2-1 .45-1.92.7-2.79a72.16 72.16 0 0 0 2-8.63v-.25l.8-4.86c1.47 1.2 14.1-2.34 14.1-2.34l-.28 3.23a105.12 105.12 0 0 1-1.85 13c-.13.48-.61 2.8-.74 3.28-2.78 1.89-7.87 2.61-15.06.71.13-.45.21-.92.33-1.35z" fill="#b02024"/><path d="M54.95 82.17c-.31 3.16-.73 6.3-1.22 9.44a56.56 56.56 0 0 1-2.2 9.64c-1.51 4.46-4.54 11.72-10.56 9.88a4.83 4.83 0 0 1-2.42-1.62 6.24 6.24 0 0 1-1.08-2.38 14.8 14.8 0 0 1-.12-5.39 24 24 0 0 1 .46-2.46c.19-1.12.43-2.2.67-3.21 1.17-4.86 2-9.89 2.36-12.13" fill="none" stroke="#371f0f" stroke-linecap="round" stroke-linejoin="round" stroke-width="1.681"/><path d="M62.37 55.55a88.06 88.06 0 0 0-9.6-10.84 23.65 23.65 0 0 1-6.92 4.52l.31.35a11.51 11.51 0 0 1 1.29 1.44c2.58 2.89 9.21 11.09 9.74 19.11.66 1.63 1.13 2.87 1.3 3.41a14.23 14.23 0 0 0 .85 2.1l.08.15a5.2 5.2 0 0 0 3 2.63 4.48 4.48 0 0 0 2.57 0 4.41 4.41 0 0 0 1.19-.54 5 5 0 0 0 2.1-3.09c1.56-6.24-1.87-13.42-5.91-19.24z" fill="#e2a355"/><path d="M53.35 45.35a.42.42 0 0 0-.44-.12l-.14-.35-1.64-1-2.46 1.93-3.58 2.83.49.59c1.7 1.75 2.76 2.93 3.59 3.93l4.94 7.46a17.35 17.35 0 0 0 4.32-1.2l.22-.1a6.62 6.62 0 0 0 .81-.47c.25-.17.51-.38.78-.59a6 6 0 0 0 2.07-2.41c0-.06.08-.13.1-.19a68.44 68.44 0 0 0-9.06-10.31z" fill="#e6e7e8"/><path d="M46.52 49.81a39.73 39.73 0 0 1 10.4 18c.62 2.56.72 5.25 1.71 7.73 1.18 3 4.45 4.57 7.24 2.58 2.49-1.78 2.66-5.56 2.37-8.33a22.87 22.87 0 0 0-2.12-6.8 49.73 49.73 0 0 0-8.13-12.59 40.58 40.58 0 0 0-6.6-6.06" fill="none" stroke="#371f0f" stroke-linecap="round" stroke-linejoin="round" stroke-width="1.56"/><path d="M58.38 72.85c0-.3.07-.61.1-.91.11-1.21.19-2.43.19-3.68 0-1.17-.07-2.33-.17-3.47 0-.33-.07-.66-.11-1q-.14-1.27-.36-2.5c-.06-.31-.11-.62-.17-.93a33.29 33.29 0 0 0-.79-3.13v-.14c-.3-1-.64-1.95-1-2.89-.11-.29-.24-.56-.36-.84q-.47-1.1-1-2.14c-.13-.25-.25-.5-.38-.75-.49-.9-1-1.77-1.57-2.6l-.15-.2c-.52-.75-1.07-1.47-1.64-2.16l-.55-.63q-.74-.84-1.53-1.6c-.12-.11-.22-.25-.34-.36l-.25-.22-.57-.5c-.18-.16-.36-.33-.55-.48a21.93 21.93 0 0 0-9-4.43 19.91 19.91 0 0 0-4.41-.49 21.13 21.13 0 0 0-13.29 4.89c-.12.09-.22.21-.33.31q-.94.78-1.82 1.67l-.56.56c-.13.14-.28.27-.41.41-.21.24-.39.52-.59.77-.54.64-1.06 1.3-1.55 2-.14.2-.3.36-.43.56-.26.4-.5.82-.75 1.23-.12.2-.25.4-.37.61q-.8 1.42-1.49 2.92c-.09.19-.16.39-.24.59q-.55 1.28-1 2.62c-.1.29-.2.58-.29.88s-.16.46-.23.69q-.37 1.29-.65 2.63v.23a39.36 39.36 0 0 0-.52 3.31c0 .3-.07.61-.1.91-.14 1.21-.22 2.43-.22 3.64 0 1.17.07 2.33.17 3.47 0 .33.07.66.11 1q.14 1.27.36 2.5c.06.31.11.62.17.93.22 1.08.47 2.15.78 3.19v.14c.3 1 .64 1.95 1 2.89.11.29.24.56.36.84q.47 1.1 1 2.14c.13.25.25.5.38.75.49.9 1 1.77 1.57 2.6l.15.2c.52.75 1.07 1.47 1.64 2.16l.55.63q.8.86 1.6 1.63c.12.11.22.25.34.36l.25.22.58.5c.18.16.36.32.55.48a21.93 21.93 0 0 0 9 4.43 19.92 19.92 0 0 0 4.26.46 21.13 21.13 0 0 0 13.29-4.89c.12-.09.22-.21.33-.31q.94-.78 1.82-1.67l.58-.57c.13-.14.28-.27.41-.41.21-.24.39-.52.59-.77.54-.64 1.06-1.3 1.55-2 .14-.2.3-.36.43-.56.27-.4.5-.82.75-1.23.12-.2.25-.4.37-.61q.81-1.41 1.49-2.92c.09-.19.16-.39.24-.58q.55-1.28 1-2.62c.1-.29.2-.58.29-.88s.16-.46.23-.69q.37-1.29.65-2.64v-.22c.31-1.09.48-2.2.61-3.33z" fill="#e6e7e8"/><path d="M9.09 71.69c1.2 14 9.61 25.22 20.44 27.59a19.91 19.91 0 0 0 4.26.46c6.29 0 12-3 16.42-7.84a29.5 29.5 0 0 0 2.56-3.33 34.2 34.2 0 0 0 4.4-9.54 38.38 38.38 0 0 0 1.31-7.1 68.15 68.15 0 0 1-49.39-.24z" fill="#b02024"/><path d="M58.5 64.8c0-.33-.07-.66-.11-1q-.14-1.27-.36-2.5c-.06-.31-.11-.62-.17-.93-.22-1.08-.48-2.14-.79-3.14v-.14c-.3-1-.64-1.95-1-2.89-.11-.29-.24-.56-.36-.84q-.47-1.1-1-2.14c-.13-.25-.25-.5-.38-.75-.49-.9-1-1.77-1.57-2.6l-.15-.2c-.52-.75-1.07-1.47-1.64-2.16l-.55-.63q-.74-.84-1.53-1.6c-.12-.11-.22-.25-.34-.36l-.25-.22-.57-.5a5.87 5.87 0 0 0-.59-.48 21.93 21.93 0 0 0-9-4.43 19.91 19.91 0 0 0-4.37-.49 21.26 21.26 0 0 0-13.32 4.89c-.12.09-.22.21-.33.31q-.94.78-1.82 1.67l-.53.56c-.13.14-.28.27-.41.42s-.39.52-.59.77c-.54.64-1.06 1.3-1.55 2-.14.2-.3.36-.43.56-.26.4-.5.82-.75 1.23-.12.2-.25.4-.37.61q-.8 1.41-1.49 2.91c-.09.19-.16.39-.24.59q-.55 1.28-1 2.62c-.1.29-.2.58-.29.88s-.16.46-.23.69q-.37 1.29-.65 2.63v.23a39.36 39.36 0 0 0-.52 3.31c0 .3-.07.61-.1.91-.14 1.21-.22 2.43-.22 3.64a39.9 39.9 0 0 0 .6 6.7v.26c.06.31.11.62.17.93 0 .09 0 .18.07.28.15.72.33 1.43.52 2.14.07.26.12.52.19.77v.14c.08.27.19.52.28.79.2.61.41 1.21.63 1.8 0 .1.07.2.11.3.11.29.24.56.36.84v.09c.27.63.57 1.25.87 1.86l.09.19.1.19.28.55.23.17q.58 1.06 1.24 2.05c.08.12.15.26.23.38l.15.2c.07.11.16.2.23.3q.61.87 1.27 1.67l.14.19.08.21a27.53 27.53 0 0 0 2.11 2.25l.21.21.25.22.59.51.38.33a1 1 0 0 0 .18.14 24.15 24.15 0 0 0 2.13 1.52 22.51 22.51 0 0 0 2 1.13l.35.18q.88.42 1.8.76l.49.19a20.34 20.34 0 0 0 2.27.65 21 21 0 0 0 4.26.46 19.73 19.73 0 0 0 2.11-.12l.69-.1c.46-.07.91-.14 1.36-.24l.82-.19c.39-.1.78-.22 1.17-.35s.57-.18.86-.28c.49-.18 1-.39 1.45-.61s.93-.46 1.39-.71l.59-.32c.4-.24.79-.49 1.18-.75l.45-.31 1.25-.91c.12-.09.22-.21.34-.31q.94-.78 1.81-1.67l.51-.6c.13-.14.28-.27.41-.42s.39-.52.59-.77c.54-.64 1.06-1.3 1.55-2 .14-.2.3-.36.43-.56.27-.4.5-.82.75-1.23l.27-.3a33.25 33.25 0 0 0 1.68-3.23c.09-.19.16-.39.24-.59q.55-1.28 1-2.62l.18-.55c.11-.34.23-.67.33-1q.37-1.29.65-2.64v-.22-.32c.09-.49.16-1 .23-1.51s.17-1 .23-1.49c0-.3.07-.61.1-.93.11-1.2.19-2.42.19-3.66s-.01-2.33-.1-3.47z" fill="none" stroke="#371f0f" stroke-miterlimit="10" stroke-width="1.659"/><path d="M48.3 47.14a22.33 22.33 0 0 1 2.23 3.3 29.12 29.12 0 0 1 3.12 8 22.06 22.06 0 0 1 .42 2.28c.15.75.15 1.51.22 2.23a20 20 0 0 1 0 2.09 14 14 0 0 1-.12 1.86 19.68 19.68 0 0 1-.4 2.73l-.2 1 .11-1a19.45 19.45 0 0 0 .17-2.75 13.64 13.64 0 0 0 0-1.83 19.33 19.33 0 0 0-.21-2c-.13-.7-.2-1.42-.4-2.14a21.14 21.14 0 0 0-.6-2.15 27.6 27.6 0 0 0-3.62-7.3 19.94 19.94 0 0 0-2.28-2.81z" fill="#fff"/><path d="M30.41 101.78a23.31 23.31 0 0 0-.47-2.45c-.2-1.11-.44-2.19-.69-3.19-1.16-4.62-2.2-7.35-2.57-9.52h-.16a8.64 8.64 0 0 1-6.64 2.52 8.32 8.32 0 0 1-7-3.78h-.24a97.78 97.78 0 0 0 1.78 11c.71 3.13 1.42 6.36 3.09 9.13.17.28.37.57.59.86s.59.93.91 1.37a13.17 13.17 0 0 0 1.06 1.27 8.08 8.08 0 0 0 2.52 1.85 6.17 6.17 0 0 0 4 .28 4.86 4.86 0 0 0 2.56-1.63 6.1 6.1 0 0 0 1.1-2.36 14.3 14.3 0 0 0 .16-5.35z" fill="#e2a355"/><path d="M29.89 100.06c-.21-1-.45-1.92-.71-2.79a72.16 72.16 0 0 1-2-8.62v-.25l-.8-4.86c-1.51 1.17-14.15-2.31-14.15-2.31l.32 3.25a105.12 105.12 0 0 0 1.88 13c.13.48.61 2.8.74 3.28 2.78 1.89 7.88 2.6 15.06.69-.14-.52-.22-.96-.34-1.39z" fill="#b02024"/><path d="M12.26 81.93c.31 3.16.74 6.3 1.24 9.43a56.55 56.55 0 0 0 2.21 9.64c1.52 4.46 4.56 11.71 10.58 9.86a4.83 4.83 0 0 0 2.41-1.63 6.24 6.24 0 0 0 1.07-2.36 14.8 14.8 0 0 0 .11-5.39 24 24 0 0 0-.46-2.46c-.19-1.12-.43-2.2-.67-3.21-1.18-4.85-2.06-9.89-2.38-12.13" fill="none" stroke="#371f0f" stroke-linecap="round" stroke-linejoin="round" stroke-width="1.681"/><path d="M17.69 43.92a85.73 85.73 0 0 0-10.37 10.7c-4.33 5.76-7.92 12.9-6 19.27a5.39 5.39 0 0 0 2.47 3.13 5.54 5.54 0 0 0 1.36.56 5.6 5.6 0 0 0 2.88 0A5.31 5.31 0 0 0 11.31 75l.08-.15a12.67 12.67 0 0 0 .88-2.09c.81-2.5.92-5 2.45-8.8-.43-.33-.28-1.1 1.17-2.72 0 0 4.52-8.37 9.37-12.28l.33-.35a28.8 28.8 0 0 1-7.9-4.69z" fill="#e2a355"/><path d="M25.25 48.31c-.85-.38-1.62-.72-2.39-1.09-.57-.29-1.09-.6-1.72-.99l-.58-.37-.37-.25-.88-.59-1.23-.91-.15-.12h-.05s0 .65-.05.64l-.13.6h-.15c-.1 0-.25-.48-.48-.28a65.73 65.73 0 0 0-9.77 10.1c0 .06.05 0 .08 0a6.44 6.44 0 0 0 2.39 2.37c.3.22.6.37.89.54 2.67 1.57 5.11 2.27 6.05 1.27a29.7 29.7 0 0 1 2.69-3.59 50.09 50.09 0 0 1 6.54-7.08c-.31-.09-.69-.25-.69-.25z" fill="#e6e7e8"/><path d="M17.71 43.9A85.73 85.73 0 0 0 7.35 54.6c-4.33 5.76-7.92 12.9-6 19.27A5.39 5.39 0 0 0 3.82 77a5.54 5.54 0 0 0 1.36.56 5.6 5.6 0 0 0 2.88 0c4.39-1.19 4.44-6.36 5.29-9.94a33 33 0 0 1 5.63-11.79 41.33 41.33 0 0 1 4.31-4.75" fill="none" stroke="#371f0f" stroke-linecap="round" stroke-linejoin="round" stroke-width="1.681"/><path fill="#e2a355" d="M19.91 11.15l-.26-2.54v-.5l.11-.98"/><path d="M48.41 9.23a2.65 2.65 0 0 0 .16-.39 6 6 0 0 0 .78-3c0-2.79-1.71-5.06-3.82-5.06s-3.82 2.26-3.82 5.06a2.36 2.36 0 0 0 .58 1.68c-1.15-.43-3-.34-4.68-.59a25.79 25.79 0 0 0-10 .27c-.51.11-6.6 1.83-6.47 2.28a7.1 7.1 0 0 0-.28-.83C19.62 6.11 16.77 4.9 14.54 6s-3 4.09-1.79 6.68a5.83 5.83 0 0 0 .78 1.21 5.64 5.64 0 0 0 1 .93l.24.14.11.07a.45.45 0 0 0 .09.07c-2.6 2.37-10.75 11.91 3 28.82a1.36 1.36 0 0 0 .34.2 46.14 46.14 0 0 0 18.22 2.45 45.65 45.65 0 0 0 11.42-2.28l1.1-.2a3 3 0 0 0 .62-.21c.18-.1.36-.19.53-.31a5.84 5.84 0 0 0 .57-.44l.1-.07a7.12 7.12 0 0 0 1.16-1.31 18.61 18.61 0 0 0 1.23-1.89 2.27 2.27 0 0 0 .22-.36 19.17 19.17 0 0 0 1.79-3.94 23.45 23.45 0 0 0 1.5-8.45 22.91 22.91 0 0 0-8.36-17.88z" fill="#e2a355"/><path d="M41.77 7.62l.25.06 1.42.55c.1-4.94 5.19-6.56 5.19-6.56-6.61-3.63-6.86 5.23-6.86 5.95z" fill="#bd782a"/><path d="M49.33 44a6.26 6.26 0 0 0 2.66-2.25 22.4 22.4 0 0 0 3.23-6.18 23.45 23.45 0 0 0 1.55-8.46c0-7.32-3.57-13.1-8.64-17.21M21.16 9.52a28.07 28.07 0 0 1 27.09.63" fill="none" stroke="#371f0f" stroke-linecap="round" stroke-linejoin="round" stroke-width="1.681"/><path d="M22.19 44.65c-11.79-13.51-5.11-29.59-5.11-29.59s-2.92-3.28-2.25-6.31c.63-2.81 3.68-2.52 3.68-2.52s-.38-.15-.48-.24a4.19 4.19 0 0 0-3.47.05c-2.24 1.1-3 4.09-1.79 6.68a5.83 5.83 0 0 0 .78 1.21 5.64 5.64 0 0 0 1 .93l.22.13.1.08s.07 0 0 .07v.09l-.11.1-.23.23-.51.54q-.29.32-.56.66t-.58.77q-.3.44-.58.89t-.55 1q-.28.55-.5 1.13t-.48 1.21q-.2.67-.34 1.36-.07.34-.12.68c0 .23-.08.47-.09.71a24.67 24.67 0 0 0 .9 7.65 36.38 36.38 0 0 0 6.65 11.54l.12.15.16.21h.45l.37.17c1 .16 2.07.31 3.09.44h.24z" fill="#bd782a"/><path d="M36.54 20.74c.36 2.75-1 5.2-3 5.47s-4-1.74-4.34-4.49 1-5.2 3-5.47 3.98 1.74 4.34 4.49z" fill="#c57a2a"/><path d="M36.84 20.64c.36 2.75-1 5.2-3 5.47s-4-1.74-4.34-4.49 1-5.2 3-5.47 3.98 1.74 4.34 4.49z" fill="#371f0f"/><path d="M51.58 20.52a28.7 28.7 0 0 0-4.72.36 5.89 5.89 0 0 1-1.44-3.24c-.35-2.64.91-5 2.82-5.24s3.72 1.69 4.07 4.33a5.76 5.76 0 0 1-.73 3.79z" fill="#c57a2a"/><path d="M51.85 20.52a28.7 28.7 0 0 0-4.72.36 5.89 5.89 0 0 1-1.44-3.24c-.35-2.64.91-5 2.82-5.24s3.72 1.69 4.07 4.33a5.76 5.76 0 0 1-.73 3.79z" fill="#371f0f"/><ellipse cx="34.81" cy="22.2" rx="1.62" ry="3.24" transform="rotate(-9.84 24.383 22.638)" fill="#fff"/><ellipse cx="50.78" cy="17.91" rx="1.43" ry="2.89" transform="rotate(-10.33 40.84 18.303)" fill="#fff"/><path d="M46.77 1.38s5.33 1.2 1 7.93c-.05 0 1.67-5.15-1-7.93z" fill="#efbc72"/><g opacity=".75"><path d="M29.58 13.93h-.33l-4.48 11.94a7.45 7.45 0 0 0 3.5 2.45l5.5-14.78z" fill="#fff"/><path d="M37.66 13.23l-1.5.14-2.39.17-5.47 14.78a7.25 7.25 0 0 0 2.13.36H31.37l.54-.07a6.45 6.45 0 0 0 5.21-5.38l.29-1.76c.13-1.57.84-2.42 2.12-2.53s2.12.53 2.51 2.13l.13.46a9.67 9.67 0 0 0 1 2.24l4.28-11.47zM23.18 21.61v.2a7.53 7.53 0 0 0 1.59 4.06l4.44-11.9a7.09 7.09 0 0 0-6.03 7.64zM56.11 19.02a7.45 7.45 0 0 0-4.47-6.22l-5.17 13.87a6.78 6.78 0 0 0 2 .45 8 8 0 0 0 .82 0c.22 0 .44 0 .66-.09a7.49 7.49 0 0 0 6.16-8.01z" fill="#69dcff"/><path d="M48.1 12.23l-.64.06-4.32 11.47a6.79 6.79 0 0 0 3.33 2.9l5.17-13.86a7.33 7.33 0 0 0-3.54-.57z" fill="#fff"/></g><path d="M58.11 15.66l-1.09.09a9.14 9.14 0 0 0-1.85-2.64q-.26-.26-.55-.5t-.55-.38a9 9 0 0 0-6-1.71h-.2l-10.1.9-.91.08-2.9.27-4 .37h-.51a8.73 8.73 0 0 0-5.95 3.13 8.85 8.85 0 0 0-1.73 3.21l-1.29.11a1.13 1.13 0 0 0-1 1.22l.35 4.16a1.13 1.13 0 0 0 1.21 1l1.17-.1a9.22 9.22 0 0 0 1.9 2.82q.25.25.51.48a9.12 9.12 0 0 0 3.06 1.76 9 9 0 0 0 3.54.45h.31a8.19 8.19 0 0 0 7.3-6.84l.29-1.76v-.14a1.63 1.63 0 0 1 .22-.82.47.47 0 0 1 .31-.1.58.58 0 0 1 .33 0 1.51 1.51 0 0 1 .34.77v.08l.13.42a10.84 10.84 0 0 0 1.9 3.71 8.74 8.74 0 0 0 1.13 1.17 8.05 8.05 0 0 0 2.32 1.39 8.46 8.46 0 0 0 2 .51 9.4 9.4 0 0 0 1.42.07h.18a9.11 9.11 0 0 0 6.25-3.25 9.24 9.24 0 0 0 1.82-3.45l1.12-.1a1.13 1.13 0 0 0 1-1.22l-.35-4.16a1.13 1.13 0 0 0-1.13-1zm-8.14 11.38c-.22 0-.43.07-.66.09a8 8 0 0 1-.82 0 6.57 6.57 0 0 1-5.36-3.35 9.67 9.67 0 0 1-1-2.24l-.13-.42c-.39-1.59-1.24-2.24-2.51-2.13s-2 1-2.12 2.53l-.25 1.71a6.45 6.45 0 0 1-5.2 5.31l-.54.07H30.44a7.25 7.25 0 0 1-2.13-.36 7.45 7.45 0 0 1-3.54-2.38 7.53 7.53 0 0 1-1.6-4.05v-.2a7.09 7.09 0 0 1 6.06-7.64h.33l4.21-.44 2.35-.22 1.5-.14 9.76-.9.67-.05a7.33 7.33 0 0 1 3.54.57 7.49 7.49 0 0 1-1.62 14.24z" fill="#020b3f"/><path d="M60.37 24.06c-1.82-3.53-6.46-4.94-11.62-4V20l-.46.12a20.61 20.61 0 0 0-4.27 1.43c-5 2-12.07 5.92-11.15 12.09a7.9 7.9 0 0 0 3.9 6.59 9.09 9.09 0 0 0 .79.48 5.86 5.86 0 0 0 1.1.53l.28.08.53.15c.23.07.46.11.69.17l.61.13.65.12c.27.05.53.11.82.15h.34c7.09.63 12.27-4 13.78-5.55 4.15-3.78 5.92-8.72 4.01-12.43z" fill="#f3cca5"/><path d="M42.44 35.69s3.86 4 13.37 1.35l3.65-5.46h-.39s-2.24-.1-4-3.65c.03-.03-4.83 7.81-12.63 7.76z" fill="#371f0f"/><path d="M43.88 22.17a2.18 2.18 0 0 1 0 1.77c-.44.84 2.74 0 2.74 0l4.49-.92a1.58 1.58 0 0 0 .6-.37 4.52 4.52 0 0 1 1.55-1.17 10.51 10.51 0 0 1 1.66-.33s.23-.2-.08-.3-4-.15-10.7 1.1a.31.31 0 0 0-.26.22z" fill="#f6e1cb"/><path d="M56.24 19.63c-.25-.05-.5-.1-.75-.13a17.33 17.33 0 0 0-2.26-.13 29.38 29.38 0 0 0-3.79.27c-1 .14-2.06.32-3.08.53a17.58 17.58 0 0 0-3 .77c-.41.17-.8.37-1.19.57a25.65 25.65 0 0 0-2.58 1.52c-.8.53-1.58 1.06-2.33 1.66l.16.37c.33-.23.66-.45 1-.66a28.4 28.4 0 0 1 4.64-2.27 22.31 22.31 0 0 1 5.39-1.18 41 41 0 0 1 4.65-.36 8 8 0 0 1 3.48.46l.19.08c1.85 1 5.91 4.39 2.21 10.91a26.2 26.2 0 0 1-4.37 5.49c-.5.5-1 1-1.62 1.53a14.59 14.59 0 0 1-12.94 2.34 13 13 0 0 1-2.88-1.37 8.87 8.87 0 0 1-3.89-10l-1.3.31a9.46 9.46 0 0 0-.05 2.25v.12a12.72 12.72 0 0 0 2.17 5.31c2.07 3.12 6 6.13 13.43 4.83a19.72 19.72 0 0 0 14.5-14.57s1.41-7.05-5.79-8.65z" fill="#371f0f"/><path d="M38.84 23.55v-.11l-2.16 1.27a6.45 6.45 0 0 1-4.78 3.86l-.54.07h-.99l-.16 1.71a9 9 0 0 0 1 0h.31a8.19 8.19 0 0 0 7.32-6.8z" fill="#020b3f"/><path d="M40.99 6.88s.25-7.16 5.9-5.85 1.65 8.44 1.65 8.44" fill="none" stroke="#371f0f" stroke-linecap="round" stroke-linejoin="round" stroke-width="1.726"/><path d="M14.95 15.13a5.66 5.66 0 0 1-2.52-6.3 4.26 4.26 0 0 1 2.42-2.85 4.09 4.09 0 0 1 3.48.12 7.19 7.19 0 0 1 2.85 3.46M14.86 15.18c-3.85 3.58-5 9-4.3 14.07.76 5.46 3.82 10.26 7.2 14.46l.31.39" fill="none" stroke="#371f0f" stroke-linecap="round" stroke-linejoin="round" stroke-width="1.681"/><path fill="none" stroke="#020b3f" stroke-linecap="round" stroke-linejoin="round" stroke-width="2.241" d="M20.32 21.67l-8.93 3.09"/><path d="M18.07 44.09a46.72 46.72 0 0 0 31.35-.11" fill="none" stroke="#371f0f" stroke-linecap="round" stroke-linejoin="round" stroke-width="1.681"/><path d="M53.96 36.58a2.57 2.57 0 0 0 .74-1.78 2.63 2.63 0 0 0-2.61-2.64 2.52 2.52 0 0 0-1.34.43c-3.86 3.38-7.51 3.19-7.51 3.19a11.92 11.92 0 0 0 6.36 1.76 11.29 11.29 0 0 0 3.36-.48 2.65 2.65 0 0 0 1-.48z" fill="#ed1c24"/><path d="M53.97 36.57a.85.85 0 0 0-.2-.86.84.84 0 0 0-.49-.19h-.15a2.06 2.06 0 0 0-.37.19l-.43.2a6.31 6.31 0 0 1-1 .3 10.74 10.74 0 0 1-2.15.25 19 19 0 0 1-2.2-.08c-.65-.06-1.29-.14-1.94-.25q-.68-.11-1.36-.26a3.1 3.1 0 0 1-.47-.1 11.92 11.92 0 0 0 6.36 1.76 11.29 11.29 0 0 0 3.36-.48 2.65 2.65 0 0 0 1.04-.48z" fill="#b71327"/><path d="M54.01 35.36s0-2-1.41-2.41" fill="none" stroke="#f74854" stroke-linecap="round" stroke-linejoin="round" stroke-width=".548"/><path d="M37.43 33.91a9 9 0 0 0 7 1.67c3.49-.56 6.43-2.86 8.77-5.4.66-.72 1.29-1.48 1.89-2.26 0 0 1.16 3.44 4.61 3.75" fill="none" stroke="#371f0f" stroke-linecap="round" stroke-linejoin="round" stroke-width=".996"/><path d="M58.1 24.84s-.85 2.6-2.29 3a1.73 1.73 0 0 1-.46.05 5.47 5.47 0 0 1-2.86-1.38s-3.34-3-.95-4.39a6.49 6.49 0 0 1 2.1-.74 8.75 8.75 0 0 1 3.15 0c2.23.6 1.31 3.46 1.31 3.46z" fill="#683113"/><path d="M55.35 27.87a5.47 5.47 0 0 1-2.86-1.38s-3.34-3-.95-4.39a6.49 6.49 0 0 1 2.1-.74 2.82 2.82 0 0 0-.78 3.19 8.59 8.59 0 0 0 2.49 3.32z" fill="#371f0f"/><path d="M57.5 21.97a3.57 3.57 0 0 0-3-.42c-.7.32 1.54.48 2 1a4.58 4.58 0 0 1 .9 1.68 1 1 0 0 0 .25.41.59.59 0 0 0 .22-.41s.5-1.64-.37-2.26z" fill="#995728"/></svg>