<svg xmlns="http://www.w3.org/2000/svg" viewBox="0 0 76 120"><path d="M31.1 98.2l1.1-.6c.9-.5 1.8-2 2.5-3.5.1-.2.2-.3.2-.5v-.2c.8-2 1.4-4.2 1.4-4.2h0l4.6-13.5s-9.7-4.6-12.1-2.8C27 74.2 27 85.8 27.4 91.6 22.5 91.2 15 94.8 8.5 98l2 5.7 17.3-4.5 3.3-1z" fill="#ffc19f"/><path d="M35.9 63.3s0-.1 0 0l-1.8-.4L31 62l-3.4-1.1c-.2.6-.8 5-.6 11.8h0l-2.6 11.4 4.1 1.6c3.1 1.1 7.3 2.3 9.7 2.4l2.4-9.7L43.7 65l-7.8-1.7z" fill="#383842"/><path d="M7.9 105.2c.3-.2 2.4-.8 2.7-1.1.2-.2-2.2-7.1-2.6-6.9l-6.9 2.4S2.8 111 5 112.2c2.7-.7 2.8-2.9 2.9-7z" fill="#09598c"/><path d="M1.8 99.4c-.2.1-.5.2-.7.2 0 0 1.5 11.5 3.8 12.7.1 0 .2 0 .3-.1-1.8-2.7-3-9.9-3.4-12.8z" fill="#b3b3b3"/><path d="M10.6 104.1c.2-.2-2.2-7.1-2.6-6.9l-2 .7 3 6.8c.7-.1 1.4-.4 1.6-.6z" opacity=".22" fill="#1c000b"/><path d="M10.9 104.4c.2-.2-2.4-7.7-2.7-7.5l-1.6.6 2.6 7.7c.6-.3 1.5-.6 1.7-.8z" fill="#e6e6e6"/><path d="M7.9 106.3c0 .1.1.2.2.1.1 0 .2-.1.1-.2a2.08 2.08 0 0 0-1.4-1.6c-.1 0-.2 0-.2.1v.1c0 .1.1.1.1.1.6.3 1.1.8 1.2 1.4zm-.1 1c0 .1.1.1.2.1s.1-.1.1-.2c-.2-.7-.7-1.3-1.4-1.6-.1 0-.2 0-.2.1v.1s0 .1.1.1c.8.4 1.1 1.1 1.2 1.4zm.2 1c-.1-.7-.7-1.4-1.4-1.7-.1 0-.2 0-.2.1v.1s0 .1.1.1c.6.3 1.1.9 1.2 1.5 0 .1.1.2.2.1.1 0 .1-.1.1-.2z" fill="#e9edf4"/><g fill="#ffc19f"><path d="M56.4 90a119.72 119.72 0 0 1 3.3 10.1c1.2 4 2.2 7.8 3 11.4-2 .7-3.9 1.5-5.9 2.2-4-7.4-8.5-15.8-7.6-21.2l7.2-2.5z"/><path d="M49.2 92.5s-4.1-2.7-5-9.7l4.9-5.3s2.9 1.6 4.8 4.8c1.4 2.2 1.9 5.7 2.4 7.8l-7.1 2.4z"/></g><path d="M64.1 112.8c-.2-.3-1-2.3-1.3-2.6-.2-.2-6.8 2.8-6.6 3.2l2.9 6.6s11.2-2.6 12.2-5c-1-2.6-3.1-2.5-7.2-2.2z" fill="#09598c"/><path d="M58.9 119.3c.1.2.2.5.3.7 0 0 11.3-2.5 12.3-4.8 0-.1 0-.2-.1-.3-2.6 1.9-9.7 3.8-12.5 4.4z" fill="#b3b3b3"/><path d="M62.8 110.1c-.2-.2-6.8 2.8-6.6 3.2.1.3.5 1.1.9 2l6.5-3.6c-.3-.7-.6-1.4-.8-1.6z" opacity=".22" fill="#1c000b"/><path d="M63 109.8c-.2-.2-7.5 3-7.3 3.4.1.3.4.8.7 1.5l7.5-3.2c-.3-.6-.7-1.5-.9-1.7z" fill="#e6e6e6"/><path d="M65.2 112.7c.1 0 .1-.1.1-.2s-.1-.1-.2-.1c-.7.2-1.3.8-1.5 1.6 0 .1 0 .2.1.2h.1l.1-.1c.2-.8.7-1.3 1.3-1.4zm1 0c.1 0 .1-.1.1-.2s-.1-.1-.2-.1c-.7.2-1.3.8-1.5 1.5 0 .1 0 .2.1.2h.1l.1-.1c.3-.9 1-1.2 1.3-1.3zm1-.3c-.7.2-1.3.8-1.6 1.6 0 .1 0 .2.1.2h.1l.1-.1a2.42 2.42 0 0 1 1.4-1.4c.1 0 .1-.1.1-.2s-.1-.2-.2-.1z" fill="#e9edf4"/><path d="M42.7 64.4L41 65l-3.1.8-3.6.8c.1.6 2 4.6 5.6 10.4h0l3.8 11.1s.9-.1 2.1-.4c.5-.1 2.2-.4 2.2-.4 3.2-.8 7.5-1.7 9.6-3l-3-9.5-4.3-13-7.6 2.6z" fill="#454551"/><path d="M52.3 40.4c3.1 4.3 6.5 10.1 7.2 12.6 1.4 4.7-5.5 6.1-6.9 2.3-1.1-2.9-2.4-7.6-3.8-12-.3-.8 3-3.6 3.5-2.9z" fill="#ffc19f"/><g fill="#f7931e"><path d="M49.5 51.4c-.6-4.4 1-16.1 1.1-16.4 2.1.4 3.1.6 3.6 1.4 1.2 1.8 2 4.7 4.9 12.5-.6.7-9.2 3.5-9.6 2.5z"/><path d="M25 67.5c7.8 5.4 19.7 5.1 29.8 1.1-1.7-5.4-4.8-20.8-1.6-32.7-6.7-2.4-12.1-3.8-20.5-2.1-5.5 8.9-6.9 20.5-7.7 33.7z"/></g><path d="M28.3 45.2c-1 3.1-1.7 6.5-2.3 10 13 3.2 19.5 2.9 26.4.8-.2-3.1-.7-6.5-.5-9.9-7.2 1.5-14.9.9-23.6-.9zm18.1-10.5c0-.4 0-.5-.1-.8-3.8-1.1-13.4-.2-13.4 0-.2 2.8 2.7 5.3 6.4 5.5 3.7.1 6.9-1.9 7.1-4.7z" fill="#ff6d00"/><path d="M45.2 26l-.5 8.2c-.1 1.8-2.4 3.1-5.2 2.9s-4.9-1.8-4.8-3.5l.5-8.2 10 .6zm7.7-4.6c0 1.8-1.4 3.3-2.6 3.4-1.3.1-1.8-1.2-2-3-.2-1.7.7-3.2 1.9-3.4 1.7 0 2.7 1.3 2.7 3z" fill="#f4b18c"/><path d="M50.1 6.8c.5-1.1.6-2.9-2-4.2.4 2.3-.8 2.1-2.2 1.6-2.1-.7-4.7-.9-7.4-.8-7.8.3-12.9 2.9-13.7 9.5.2 8.6 7.1 14.9 14.8 14.6 7.8-.3 13.2-4.3 13-13 0-3.5-1-6-2.5-7.7z" fill="#2b1407"/><path d="M28.8 12.3c-.7 1.7.4 14.7 2.2 16.6 1.8 2 8.9 4 11.2 3.9 1.6-.1 7-2.1 8.2-4.5 1.5-2.8 1-14.8.4-16.2-1.9-5-5.6-5.5-11.4-5.2-5.5.1-8.8 1.2-10.6 5.4z" fill="#ffc19f"/><path d="M41.6 24.9c.1 0 .1 0 .1-.1.1-.4.4-.7.8-.7.5 0 .8.3.9.7 0 .1.1.1.1.1.1 0 .1-.1.1-.1-.1-.6-.5-.9-1.1-.9s-1 .4-1.1.9c.1 0 .2.1.2.1h0z" fill="#f4b18c"/><path d="M30.2 20.4c-.3 4.3-.7 3.6-2.1 3.7s-3.3-5.3-3.2-11.7c.4-1.3 4-3.3 4.6-3.6.4 2.5.8 9.6.7 11.6z" fill="#2b1407"/><path d="M45.4 19.7c-.7 1.3-.6 2.8.1 3.3 1.1.8 3.5.9 4.4-.3s.4-3.3-1.1-4.1c-1.3-.8-2.7-.2-3.4 1.1z" fill="#f9feff"/><path d="M50 19.2c-1.2-2-3.9-1.2-4.6.6.7-1.3 2.2-1.8 3.4-1.1.7.4 1.3 1.2 1.5 2.1.1.7 0 1.5-.3 2 .3-.3.8-2.1 0-3.6zm-3.3 1.4c-.3.9.1 1.9.9 2.3.8.3 1.7-.1 2-1s-.1-1.9-.9-2.3-1.7.1-2 1z"/><path d="M46.8 20.4c-.1.3 0 .5.3.6.2.1.5 0 .6-.3s0-.5-.3-.6-.5.1-.6.3z" fill="#fefffe"/><path d="M39.1 19.9c.9 1.3.8 2.7.1 3.3-1.2.9-4 1.1-5.1 0-1-1.1-.6-3.3 1.1-4.2 1.4-.9 3-.4 3.9.9z" fill="#f9feff"/><path d="M33.8 19.6c1.3-2.1 4.4-1.4 5.3.3-.9-1.3-2.6-1.7-3.9-.9-.8.5-1.4 1.3-1.5 2.2-.1.7.1 1.5.5 2-.5-.3-1.3-2-.4-3.6z"/><circle cx="37.5" cy="21.5" r="1.8"/><circle cx="36.5" cy="20.9" r=".5" fill="#fefffe"/><path d="M49.8 16.9c-.1 0-.2-.1-.3-.2-.7-.8-2.2-1.1-3.4-.8-.3.1-.6-.1-.6-.4-.1-.3.1-.6.4-.6 1.6-.4 3.4 0 4.4 1.1.2.2.2.5 0 .7s-.4.2-.5.2zm-16 .2c-.1 0-.3 0-.4-.1-.2-.2-.2-.5 0-.7 1-1 2.8-1.5 4.4-1 .3.1.4.4.4.6-.1.3-.4.4-.6.4-1.2-.3-2.7 0-3.4.8-.2-.1-.3 0-.4 0zM48.3 2.6c.3 1.2-.3 2.2-1.3 3.1.7-1.5.7-3.4-1-5.8l-3.4 2.8c.1-.6.1-1.3-.1-2-1.8 2.5-3.8 2.4-10.1 4.1-4.4 1.1-5.2 4-4.6 5.7 3-.7 7.3.7 10.5.6 4-.1 7.1-.9 8.7-2.1 1.8-1.3 3.3-4.1 1.3-6.4z" fill="#2b1407"/><g fill="#ffc19f"><path d="M25.5 22c0 2.2 1.6 3.9 3.1 4.1 1.5.1 2.2-1.5 2.4-3.5s-.8-3.8-2.3-4c-2-.2-3.2 1.3-3.2 3.4zm42.6 26.1c-3.4 3.8-8.2 8.3-10.5 9.6-4.2 2.3-7.2-3.8-3.8-5.9 2.6-1.7 7.6-4.1 11.6-6.3.6-.5 3.2 2 2.7 2.6z"/><path d="M67.7 48.2s3.2-.5 3.5-1.7-1.2-4.3-2.7-4.3-3.7 2.9-3.4 3.7c.2 1.1 1 2.3 2.6 2.3z"/><path d="M67.6 47.2s1.8-2.2-.5-4.1c0 0 .9-2.2-.4-2.7s-.8 1.2-.9 2.1c-.2.9-1.2 2.7-.7 3.8.6 1.3 2.1 1.1 2.5.9zm3-1.2c.1-.1 1.7-2.2 2-2.6.4-.4 1.6-1.8.8-2.2s-1.5 1.1-2.2 1.9c-.5.6-1.9 1.6-1.9 1.6l1.3 1.3z"/><path d="M70.4 47.3c.2-.1.6-.4 1.3-1 .4-.3 2.2-1.9 1.8-2.6l-.1-.1c-.7-.4-1.6.9-2.3 1.7-.6.6-2 1.4-2 1.4l1.3.6zm-.7-2.4c0-.1.7-.5.7-.5l1.6-2.3c.6-.9 1.4-1.5.8-1.9-.8-.6-1.9 1-2.5 1.6l-1.7 1.7 1.1 1.4z"/><path d="M68.6 43.5l.6-.2 2.1-2.9c.5-.6.5-1.1-.2-1.1-.6 0-1.4 1-1.8 1.6-.5.6-1.9 1.7-1.9 1.7l1.2.9zm-39.3-4.1c-1.1 5.2-3.2 11.8-4.6 14.1-2.6 4.2-8.3 0-6.4-3.7 1.4-2.9 4-7 6.4-11.1.4-.7 4.8-.1 4.6.7z"/></g><path d="M32.7 34c.1 0 .2-.2.3-.2-3.5.2-7.7 1.7-8.5 2.2-1.5 1.5-3.3 6.8-5.8 11.4 2 1.2 5 2.5 8.1 3.4 1.6-6.3 2.9-12 5.9-16.8z" fill="#f7931e"/><g fill="#ffc19f"><path d="M30.4 58.9l-6.3-8.7-3.5-1.6c-2.1.4-4 2.6-2.3 5 1.4 2 6 6 9.9 8.8.6.5 2.7-2.9 2.2-3.5z"/><path d="M28.1 62s1.1 3.1 2.3 3.1c1.2.1 4-1.9 3.7-3.4s-3.5-3.1-4.3-2.7c-.9.5-2 1.5-1.7 3z"/><path d="M29.1 61.8s2.5 1.4 3.9-1.2c0 0 2.3.5 2.6-.9.2-1.4-1.3-.5-2.3-.5-.9 0-2.8-.7-3.9 0-1 .8-.6 2.3-.3 2.6zm1.7 2.7c.1.1 2.4 1.3 2.9 1.5.5.3 2.1 1.2 2.3.4s-1.3-1.3-2.3-1.8c-.7-.4-1.9-1.5-1.9-1.5l-1 1.4z"/><path d="M29.5 64.6l1.2 1.1c.4.3 2.3 1.8 2.8 1.3 0 0 .1-.1.1-.2.3-.8-1.2-1.4-2.1-2-.7-.5-1.8-1.7-1.8-1.7l-.2 1.5zm2.3-1.1c.1 0 .6.6.6.6l2.6 1.1c.9.4 1.7 1.1 2 .5.4-.9-1.3-1.7-2.1-2.2l-2-1.4-1.1 1.4z"/><path d="M32.9 62.2l.3.5 3.2 1.6c.7.4 1.2.3 1.1-.4-.1-.6-1.2-1.2-2-1.5-.7-.4-2-1.6-2-1.6l-.6 1.4z"/></g><path d="M46 27.4c.3 1.3-1.7 3.3-3.7 3.3-1.9 0-3.3-1.6-3.3-3 .1-.8 1.4-.6 3.3-.7 1.8-.1 3.4-.4 3.7.4z"/><path d="M42.5 29.4c-.9 0-1.6.3-2 .7.5.3 1.2.6 1.9.6.8 0 1.6-.2 2.1-.8-.2-.4-1.2-.5-2-.5z" fill="#b71521"/><path d="M45 26.9c-.7-.2-1.7 0-2.6.1-1.1.1-1.9 0-2.5.1.3.6 1.2.9 2.4.8 1.4-.1 2.5-.4 2.7-1z" fill="#fff"/></svg>