<svg width="36" height="48" viewBox="0 0 36 48" fill="none" xmlns="http://www.w3.org/2000/svg">
<path d="M18 42.813C27.9411 42.813 36 34.9386 36 25.225C36 15.5115 27.9411 7.63711 18 7.63711C8.05887 7.63711 0 15.5115 0 25.225C0 34.9386 8.05887 42.813 18 42.813Z" fill="#7CC144"/>
<path d="M9.78693 30.9364C13.4537 30.9364 16.4263 28.0555 16.4263 24.5018C16.4263 20.948 13.4537 18.0672 9.78693 18.0672C6.12012 18.0672 3.14758 20.948 3.14758 24.5018C3.14758 28.0555 6.12012 30.9364 9.78693 30.9364Z" fill="white" stroke="white" stroke-width="0.87822"/>
<path d="M9.93448 31.413C13.9001 31.413 17.1148 28.3188 17.1148 24.5018C17.1148 20.6848 13.9001 17.5905 9.93448 17.5905C5.96889 17.5905 2.75415 20.6848 2.75415 24.5018C2.75415 28.3188 5.96889 31.413 9.93448 31.413Z" fill="#327130"/>
<path d="M9.88526 31.127C13.6607 31.127 16.7213 28.1608 16.7213 24.5018C16.7213 20.8427 13.6607 17.8765 9.88526 17.8765C6.1098 17.8765 3.04919 20.8427 3.04919 24.5018C3.04919 28.1608 6.1098 31.127 9.88526 31.127Z" stroke="white" stroke-opacity="0.95" stroke-width="0.702576"/>
<path d="M8.06552 25.4074C9.31495 25.4074 10.3278 24.4044 10.3278 23.1672C10.3278 21.93 9.31495 20.927 8.06552 20.927C6.81609 20.927 5.80322 21.93 5.80322 23.1672C5.80322 24.4044 6.81609 25.4074 8.06552 25.4074Z" fill="white"/>
<path d="M11.7049 25.6934C12.1939 25.6934 12.5902 25.3306 12.5902 24.8831C12.5902 24.4356 12.1939 24.0728 11.7049 24.0728C11.216 24.0728 10.8197 24.4356 10.8197 24.8831C10.8197 25.3306 11.216 25.6934 11.7049 25.6934Z" fill="#C8E1E5"/>
<path d="M26.2131 30.9364C29.8799 30.9364 32.8524 28.0555 32.8524 24.5018C32.8524 20.948 29.8799 18.0672 26.2131 18.0672C22.5463 18.0672 19.5737 20.948 19.5737 24.5018C19.5737 28.0555 22.5463 30.9364 26.2131 30.9364Z" fill="white" stroke="white" stroke-width="0.87822"/>
<path d="M26.0656 31.413C30.0312 31.413 33.2459 28.3188 33.2459 24.5018C33.2459 20.6848 30.0312 17.5905 26.0656 17.5905C22.1 17.5905 18.8853 20.6848 18.8853 24.5018C18.8853 28.3188 22.1 31.413 26.0656 31.413Z" fill="#327130"/>
<path d="M26.1148 31.127C29.8902 31.127 32.9508 28.1608 32.9508 24.5018C32.9508 20.8427 29.8902 17.8765 26.1148 17.8765C22.3393 17.8765 19.2787 20.8427 19.2787 24.5018C19.2787 28.1608 22.3393 31.127 26.1148 31.127Z" stroke="white" stroke-opacity="0.95" stroke-width="0.702576"/>
<path d="M24.2951 25.4074C23.0456 25.4074 22.0328 24.4044 22.0328 23.1672C22.0328 21.93 23.0456 20.927 24.2951 20.927C25.5445 20.927 26.5574 21.93 26.5574 23.1672C26.5574 24.4044 25.5445 25.4074 24.2951 25.4074Z" fill="white"/>
<path d="M27.9345 25.6934C27.4455 25.6934 27.0492 25.3306 27.0492 24.8831C27.0492 24.4356 27.4455 24.0728 27.9345 24.0728C28.4234 24.0728 28.8197 24.4356 28.8197 24.8831C28.8197 25.3306 28.4234 25.6934 27.9345 25.6934Z" fill="#C8E1E5"/>
<path d="M15.1475 32.271C15.5864 35.5375 20.3039 35.8642 20.8524 32.271" stroke="#327130" stroke-width="0.87822" stroke-linecap="round" stroke-linejoin="round"/>
<path d="M27.0492 46.5224C27.0492 47.3385 23.0197 48 18.0492 48C13.0786 48 9.04919 47.3385 9.04919 46.5224C9.04919 45.7064 13.0786 45.0449 18.0492 45.0449C23.0197 45.0449 27.0492 45.7064 27.0492 46.5224Z" fill="#48A145" fill-opacity="0.4"/>
<path d="M20.3342 11.5296L20.9113 11.6792L23.7852 5.64331L24.3749 4.61024L22.4302 4.32753L20.3342 11.5296Z" fill="#B78438"/>
<path d="M23.5377 6.11403C25.2774 6.11403 26.6877 4.74537 26.6877 3.05703C26.6877 1.36869 25.2774 2.28882e-05 23.5377 2.28882e-05C21.798 2.28882e-05 20.3877 1.36869 20.3877 3.05703C20.3877 4.74537 21.798 6.11403 23.5377 6.11403Z" fill="#D55F31"/>
<path d="M15.4408 11.5296L14.8637 11.6792L11.9897 5.64331L11.4001 4.61024L13.3446 4.32753L15.4408 11.5296Z" fill="#B78438"/>
<path d="M12.0627 6.11402C13.8024 6.11402 15.2127 4.74535 15.2127 3.05702C15.2127 1.36868 13.8024 1.14441e-05 12.0627 1.14441e-05C10.323 1.14441e-05 8.91266 1.36868 8.91266 3.05702C8.91266 4.74535 10.323 6.11402 12.0627 6.11402Z" fill="#D55F31"/>
</svg>
