<svg width="83" height="110" viewBox="0 0 83 110" fill="none" xmlns="http://www.w3.org/2000/svg">
<path d="M41.25 98.113C64.0317 98.113 82.5 80.0675 82.5 57.8073C82.5 35.5471 64.0317 17.5017 41.25 17.5017C18.4683 17.5017 0 35.5471 0 57.8073C0 80.0675 18.4683 98.113 41.25 98.113Z" fill="#7CC144"/>
<path d="M27.7534 70.2069C33.8815 70.2069 38.8493 65.4133 38.8493 59.5C38.8493 53.5868 33.8815 48.7932 27.7534 48.7932C21.6253 48.7932 16.6575 53.5868 16.6575 59.5C16.6575 65.4133 21.6253 70.2069 27.7534 70.2069Z" fill="white" stroke="white" stroke-width="1.48125"/>
<path d="M28 71C34.6274 71 40 65.8513 40 59.5C40 53.1487 34.6274 48 28 48C21.3726 48 16 53.1487 16 59.5C16 65.8513 21.3726 71 28 71Z" fill="#327130"/>
<path d="M27.9177 70.5242C34.2274 70.5242 39.3424 65.5886 39.3424 59.5001C39.3424 53.4116 34.2274 48.476 27.9177 48.476C21.608 48.476 16.493 53.4116 16.493 59.5001C16.493 65.5886 21.608 70.5242 27.9177 70.5242Z" stroke="white" stroke-opacity="0.95" stroke-width="1.185"/>
<path d="M24.8766 61.0069C26.9647 61.0069 28.6574 59.338 28.6574 57.2793C28.6574 55.2207 26.9647 53.5518 24.8766 53.5518C22.7885 53.5518 21.0958 55.2207 21.0958 57.2793C21.0958 59.338 22.7885 61.0069 24.8766 61.0069Z" fill="white"/>
<path d="M30.9589 61.4827C31.776 61.4827 32.4384 60.8791 32.4384 60.1345C32.4384 59.3898 31.776 58.7862 30.9589 58.7862C30.1419 58.7862 29.4795 59.3898 29.4795 60.1345C29.4795 60.8791 30.1419 61.4827 30.9589 61.4827Z" fill="#C8E1E5"/>
<path d="M56.2465 70.2069C62.3746 70.2069 67.3424 65.4132 67.3424 59.5C67.3424 53.5867 62.3746 48.7931 56.2465 48.7931C50.1184 48.7931 45.1506 53.5867 45.1506 59.5C45.1506 65.4132 50.1184 70.2069 56.2465 70.2069Z" fill="white" stroke="white" stroke-width="1.46057"/>
<path d="M56 71C62.6274 71 68 65.8513 68 59.5C68 53.1487 62.6274 48 56 48C49.3726 48 44 53.1487 44 59.5C44 65.8513 49.3726 71 56 71Z" fill="#327130"/>
<path d="M56.0822 70.5242C62.3919 70.5242 67.5068 65.5885 67.5068 59.5C67.5068 53.4116 62.3919 48.4759 56.0822 48.4759C49.7725 48.4759 44.6575 53.4116 44.6575 59.5C44.6575 65.5885 49.7725 70.5242 56.0822 70.5242Z" stroke="white" stroke-opacity="0.95" stroke-width="1.16845"/>
<path d="M53.0411 61.0069C50.953 61.0069 49.2603 59.338 49.2603 57.2793C49.2603 55.2207 50.953 53.5518 53.0411 53.5518C55.1292 53.5518 56.8219 55.2207 56.8219 57.2793C56.8219 59.338 55.1292 61.0069 53.0411 61.0069Z" fill="white"/>
<path d="M59.1234 61.4828C58.3063 61.4828 57.6439 60.8792 57.6439 60.1345C57.6439 59.3899 58.3063 58.7863 59.1234 58.7863C59.9405 58.7863 60.6028 59.3899 60.6028 60.1345C60.6028 60.8792 59.9405 61.4828 59.1234 61.4828Z" fill="#C8E1E5"/>
<path d="M34.7131 73.9543C35.7187 81.44 46.5298 82.1887 47.7868 73.9543" stroke="#327130" stroke-width="2.01259" stroke-linecap="round" stroke-linejoin="round"/>
<path d="M61.9877 106.614C61.9877 108.484 52.7534 110 41.3627 110C29.9719 110 20.7377 108.484 20.7377 106.614C20.7377 104.744 29.9719 103.228 41.3627 103.228C52.7534 103.228 61.9877 104.744 61.9877 106.614Z" fill="#48A145" fill-opacity="0.4"/>
</svg>
