<?xml version="1.0" encoding="utf-8"?>
<!-- Generator: Adobe Illustrator 19.0.0, SVG Export Plug-In . SVG Version: 6.00 Build 0)  -->
<svg version="1.1" id="Layer_1" xmlns="http://www.w3.org/2000/svg" xmlns:xlink="http://www.w3.org/1999/xlink" x="0px" y="0px"
	 viewBox="0 0 50 50" enable-background="new 0 0 50 50" xml:space="preserve">
<g id="XMLID_104_">
	<polygon id="XMLID_958_" fill="#FF0000" points="45,14 45,8 40,8 40,2 34.1,2 34,2 28,2 28,8 23,8 23,2 17.4,2 17.3,2 11,2 11,8 
		6,8 6,14 0,14 0,19.3 0,25 0,31 6,31 6,36.4 6,41.2 6,41.2 6,48 6.2,48 9.3,48 11.6,48 11.9,48 17,48 17,42 11.9,42 12,42 12,36 
		17.3,36 17.4,36 22.8,36 23,36 28.4,36 28.5,36 34,36 34.1,36 40,36 40,42 39.5,42 34,42 34,48 39.5,48 39.6,48 45,48 45,42 45,42 
		45,36.4 45,31 50,31 50,25 50,19.3 50,14 	"/>
	<polygon id="XMLID_695_" fill="#FFFFFF" points="37.3,20.1 33.9,20.1 33.9,20.1 30.5,20.1 30.5,13.4 33.9,13.4 34,13.4 37.3,13.4 	
		"/>
	<polygon id="XMLID_542_" fill="#FFFFFF" points="14.1,20.1 14.1,13.4 17.4,13.4 17.5,13.4 20.8,13.4 20.8,20.1 17.5,20.1 
		17.4,20.1 	"/>
	<g id="XMLID_532_">
		<rect id="XMLID_937_" x="29.7" y="29.5" fill="#00FFFF" width="2.7" height="2.7"/>
		<rect id="XMLID_940_" x="27" y="26.8" fill="#00FFFF" width="2.7" height="2.7"/>
		<rect id="XMLID_941_" x="24.3" y="26.8" fill="#00FFFF" width="2.7" height="2.7"/>
		<rect id="XMLID_944_" x="21.6" y="26.8" fill="#00FFFF" width="2.7" height="2.7"/>
		<rect id="XMLID_952_" x="18.9" y="29.5" fill="#00FFFF" width="2.7" height="2.7"/>
	</g>
	<rect id="XMLID_929_" x="11.9" y="42" fill="#FF0000" width="5.4" height="5.7"/>
</g>
</svg>
