<svg xmlns="http://www.w3.org/2000/svg" xmlns:xlink="http://www.w3.org/1999/xlink" viewBox="0 0 68 122"><style><![CDATA[.X{fill:#ffc19f}.Y{fill:#ff3746}.Z{fill:#db2138}.a{fill:#f4b18c}]]></style><g class="X"><path d="M47.2 91.7c.8 3.3 1.6 6.8 2.2 10.4.8 4.1 1.3 8 1.7 11.7l-6.1 1.6c-3.2-7.8-6.9-17.5-5.1-22.3l7.3-1.4z"/><path d="M45.2 79.5L33.7 82c.7 1.7 5.3 10.3 6.4 11.2l7.2-1.6c-.1.1-1-6.6-2.1-12.1z"/></g><path d="M52.5 115.3c-.2-.3-.8-2.4-1-2.8-.2-.2-7.1 2-7 2.5l2.2 7s11.5-1.4 12.8-3.6c-.8-2.8-2.9-2.9-7-3.1z" fill="#754c24"/><path d="M46.5 121.3c.1.2.1.5.2.7 0 0 11.6-1.3 12.8-3.5 0-.1 0-.2-.1-.3-2.7 1.7-10 2.7-12.9 3.1z" fill="#b3b3b3"/><path d="M51.5 112.5c-.2-.2-7.1 2-7 2.5l.6 2 6.9-2.9c-.1-.6-.4-1.4-.5-1.6z" opacity=".22" fill="#1c000b"/><path d="M51.7 112.2c-.2-.2-7.8 2.2-7.6 2.6l.5 1.6 7.8-2.4c-.2-.6-.5-1.6-.7-1.8z" fill="#e6e6e6"/><path d="M53.6 115.3c.1 0 .2-.1.2-.2s-.1-.2-.2-.2a2.08 2.08 0 0 0-1.6 1.4c0 .1 0 .2.1.2h.1c.1 0 .1-.1.1-.1.1-.5.7-1 1.3-1.1zm1 .1c.1 0 .2-.1.1-.2 0-.1-.1-.2-.2-.1-.7.2-1.3.7-1.7 1.4 0 .1 0 .2.1.2h.1s.1 0 .1-.1c.4-.8 1.1-1.1 1.5-1.2zm1-.2c-.7.1-1.4.7-1.8 1.4 0 .1 0 .2.1.2h.1s.1 0 .1-.1c.3-.6.9-1.1 1.5-1.2.1 0 .2-.1.1-.2s0-.1-.1-.1z" fill="#e9edf4"/><path d="M32.7 88.7v-.2c-.2-2.3-.7-4.6-.7-4.6-.1 0-.1-1-.2-1H21.5c1.4 2 2 4.7 3.3 6.8-6.2 5.2-11.9 11.9-16.4 18l4.6 4.5c.6-.5 1.2-1.1 1.8-1.6l4.2-3.8c1.6-1.5 3.2-2.9 4.9-4.4l3.9-3.5c.8-.7 1.5-1.4 2.2-2.1.6-.7 1.4-1.3 1.9-2.1 1-1.4 1.1-3.1 1.1-4.8v-.6c-.2-.2-.2-.4-.3-.6z" class="X"/><path d="M11.7 114.3c.2-.3 1.8-1.9 1.9-2.2s-5.2-5.3-5.5-4.9c-.8.7-4.2 4.5-5 5.3 0 0 6.8 9.4 9.3 9.4 2-2 1.1-4-.7-7.6z" fill="#754c24"/><path d="M3.5 111.9l-.5.5s6.7 9.6 9.2 9.6c.1 0 .2-.1.2-.2-2.7-1.7-7.2-7.5-8.9-9.9z" fill="#b3b3b3"/><path d="M13.6 112c.1-.3-5.2-5.3-5.5-4.9-.3.2-.8.8-1.5 1.5l5.9 4.7c.5-.5 1-1.1 1.1-1.3z" opacity=".22" fill="#1c000b"/><path d="M14 112.1c.1-.2-5.7-5.8-5.9-5.4L7 107.9l5.9 5.7c.3-.5 1-1.2 1.1-1.5z" fill="#e6e6e6"/><path d="M12.2 115.2c.1.1.2.1.2 0 .1-.1.1-.2 0-.2-.4-.6-1.3-.9-2-.8-.1 0-.2.1-.1.2v.1s.1.1.2 0c.6 0 1.3.2 1.7.7zm.4 1c.1.1.2.1.2 0 .1-.1.1-.2 0-.2-.5-.6-1.2-.9-2-.8-.1 0-.2.1-.2.2 0 0 0 .1.1.1 0 0 .1.1.1 0 1-.1 1.5.4 1.8.7zm.6.8c-.4-.5-1.3-.9-2.1-.9-.1 0-.2.1-.2.2 0 0 0 .1.1.1 0 0 .1.1.1 0 .7 0 1.4.3 1.8.7.1.1.2.1.2 0 .2.1.2-.1.1-.1z" fill="#e9edf4"/><path d="M47.4 34.5c2.5-6.7 2.9-11.3-.7-25.1L19.1 11c-2.8 11.1-2.5 17.4-2.1 21.4.1-1.9-.5-5.9 2-15.6-2.2 12.2-2.2 16.1.3 18.1-1.6-2.6-.4-9.9-.1-10.8.1 2.6-.2 7.6 1.2 11.4.8.6 4.4 1.7 5.5 2 3.2.9 15.2-.8 18.9-1.7.2-.3.5-7.6.5-8.7.2.3.2 8.3.3 8.6 1.8-2.3 3.6-9 2-19 2.2 8 1.2 12.3-.2 17.8z"/><path d="M50.6 86.3c-3.8 1.1-9.1 2.3-15.6 2.4-7 .1-12.8-1.2-16.8-2.4.4-3.6.9-7.3 1.5-11.3.7-4.1 1.5-8 2.3-11.6h24.6c.9 3.7 1.7 7.6 2.4 11.8.8 3.9 1.3 7.6 1.6 11.1z" fill="#2e3192"/><defs><path id="A" d="M50.6 86.3c-3.8 1.1-9.1 2.3-15.6 2.4-7 .1-12.8-1.2-16.8-2.4l3.9-22.9h24.6l3.9 22.9z"/></defs><clipPath id="B"><use xlink:href="#A"/></clipPath><g clip-path="url(#B)" fill="#262d7f"><path d="M27.1 89.5l2.6-19.7-1.1 19.4zm10.6 0l-.2-19.8L39.2 89zm11-1.3l-2.9-19.6 4.3 19z"/></g><path d="M27.3 88.4c-.9 0-2.1 0-3.5-.3-1.3-.2-2.3-.6-3.2-.9 1.1-6.5 2.8-12.9 3.9-19.4l5.5 1-2.7 19.6zm10.4.5c-.9.2-2.1.3-3.5.3-1.3 0-2.4-.2-3.3-.4.1-6.6.8-13.2.9-19.8l5.6.1.3 19.8zm11.4-1.7c-.9.3-2 .7-3.4.9-1.3.2-2.4.2-3.3.2-1.1-6.5-1.7-13.1-2.8-19.6l5.5-.9 4 19.4z" fill="#2e3192"/><path d="M20.6 87.2s.1-1.2.5-3.1l.7-3.1.8-3.6 1.4-6.7.7-3s-.1 1.2-.5 3.1l-1.4 6.7-.8 3.6-.6 3.1-.8 3zM31 88.8s-.1-1.2 0-3.1c0-.9.1-2 .2-3.2l.2-3.6.3-6.8.2-3.1v3.1c0 1.9-.2 4.3-.4 6.8l-.2 3.6-.1 3.2-.2 3.1zm11.5-.5l-.6-3c-.2-.9-.3-2-.4-3.2s-.3-2.4-.5-3.6l-.9-6.7-.4-3.1.6 3 .9 6.8c.1 1.2.3 2.5.5 3.6l.5 3.1.3 3.1zm-24.2-2l.4-3.6.5-3.7.3-2.1.3-2.2 1.5-7.8.8-3.5-.6 3.6-1.6 7.8-.6 4.2c-.1 1.4-.3 2.6-.5 3.7l-.5 3.6zm28.5-22.9l.9 3.5c.3 1.1.5 2.3.7 3.7l.8 4.2.6 4.2.5 3.7.4 3.6-.6-3.6-.5-3.7-.3-2.1c-.1-.7-.1-1.4-.3-2.1l-.8-4.2-.8-3.6-.6-3.6z" fill="#3942a8"/><path d="M24.1 61.3h20.2v1.6H24.1z" fill="#3a4ca5"/><path d="M46.7 40.3c3.1 4.3 6.5 10.2 7.3 12.7 1.4 4.7-5.5 6.1-7 2.3-1.1-2.9-2.5-7.6-3.9-12.1-.2-.7 3.1-3.5 3.6-2.9z" class="X"/><path d="M43.6 51.4c-.6-4.4 1-16.2 1-16.4 2.1.4 3.1.6 3.7 1.4 1.2 1.9 2 4.7 5 12.6-.6.7-9.3 3.5-9.7 2.4z" class="Y"/><path d="M53.2 49c-.6.7-9.2 3.5-9.7 2.4 0-.2 0-.4-.1-.6 1.5.4 8.9-2 9.4-2.6l.4.8z" class="Z"/><path d="M62.7 48.1c-3.5 4-8.4 8.6-10.7 9.9-4.3 2.4-7.2-4-3.9-6.3 2.6-1.8 7.6-4.5 11.6-6.9.7-.3 3.6 2.7 3 3.3z" class="X"/><g class="Y"><path d="M20.3 67.7c7.4 5.4 18.7 5.1 28.4 1-1.6-5.4-4.5-20.9-1.4-32.9-6.4-2.3-11.6-3.8-19.5-2-5.3 8.9-6.7 20.6-7.5 33.9z"/><path d="M47 35.7c-1.1 4.7-1.3 9.8-1 14.6-.2-4.8.1-9.9 1.3-14.5-.1 0-.2-.1-.3-.1z"/></g><path d="M48.5 67.7c-9.6 4-20.7 4.3-28.1-1 0 .3 0 .6-.1 1 7.4 5.4 18.7 5.1 28.4 1-.1-.3-.1-.7-.2-1z" class="Z"/><path d="M60.8 40.9c-1.3 1.8-1.6 2.7-1.5 4 .1 1.7 1.4 2.9 2.9 3.1.8.1 2.1-.1 4.4-1.5-.9-1.1-1.5-4.7-3.2-6.3-.6 1-2 .7-2.6.7z" class="X"/><path d="M61.4 45.3c.8 2 3 2.2 4.5 1.2-.3-.3-.5-4-1.6-5-1.4-.7-2.1 1.1-2.5.7.6.9.6 2.2-.4 3.1z" fill="#e2a285"/><g class="X"><path d="M63.8 42.2c-.9.7-1.4 1.5-1.1 1.9s1.3.2 2.2-.4c.9-.7 1.4-1.5 1.1-1.9-.3-.5-1.3-.3-2.2.4z"/><path d="M62.7 40.8c-.8.8-1.2 1.7-.8 2 .4.4 1.4 0 2.2-.7.8-.8 1.2-1.7.8-2-.4-.4-1.4 0-2.2.7zm2.2 2.6c-1 .5-1.6 1.4-1.4 1.8.3.5 1.3.4 2.3-.1s1.6-1.4 1.4-1.8c-.2-.5-1.3-.4-2.3.1z"/><path d="M65.3 45c-1 .3-1.7.9-1.6 1.4s1 .7 2 .4 1.7-.9 1.6-1.4c0-.5-.9-.6-2-.4z"/></g><path d="M64.3 42.4c-.2.6-.9 1.3-1.9.8-.8-.4-1.7-1.4-1.4-2 .2-.6 1.2-.7 2.2-.4.9.4 1.3 1 1.1 1.6z" opacity=".2" fill="#541000"/><path d="M64.3 42.4c-.3.6-1.3.7-2.3.3s-1.6-1.1-1.4-1.7c.2-.5 1.2-.7 2.2-.3 1.1.4 1.7 1.2 1.5 1.7z" class="X"/><path d="M35 37.1h-.3c-1.8 0-3.2-1.4-3.2-3.2v-5h6.8v5c-.1 1.8-1.6 3.2-3.3 3.2z" fill="#fcb490"/><path d="M19 12c-.7 9.9 6.9 16.2 15.2 15.8S48.3 20.2 47 10.6c-.8-5.3-5.8-9.6-13.7-9.1C24.8 1.9 19.5 4.3 19 12z"/><path d="M47.8 20.8c0 1.9-1.5 3.5-3 3.7s-2.2-1.2-2.5-3 .7-3.4 2.2-3.6c2-.2 3.2 1.1 3.3 2.9z" class="X"/><path d="M45.1 20h.3c1 .1 1.5.9 1.3 1.8-.2 1-1.1 1.6-1.9 1.5-.1 0-.2 0-.2-.1l.5-3.2z" class="a"/><path d="M22.4 9.7c-.7 1.7 1.7 16.5 3.5 18.4 1.9 2.1 9.1 3.6 10.6 3.5 1.6-.1 6.5-2.3 7.8-4.8 1.5-2.9 2.1-15.6 1.5-17.2-2-5.2-6.6-5.1-12.6-4.9-5.7.4-9.1.6-10.8 5z" class="X"/><g fill="#eaa583"><path d="M23.2 10.4c-.6 1.2 0 3.4-.1 4.2.2-.1.4-.3.7-.4s.5-.2.7-.3c.1-.8 1.1-2.8 1.3-3.1-.1.4-.1 1.9-.1 2.7l2.8-.9c1.1-.3 2.6-.4 3.5-.5-.2-1-.1-2-.1-2 .2.2.4.5.6.8.2.4.4.7.5 1l3.7-.2c1.5 0 2.7.3 3.8.5l-.3-3.5H25.7c-.3 1.1-2 .7-2.5 1.7zm22.1-.3l-2-1.3h-2.8l.6 3.6c.3 0 .6 0 1 .1.3.1.6.1.8.2l.1-2.2c.2.1.7 1.7.9 2.5.3.1.7.2 1.1.4s.7.4.9.6l-.6-3.9z"/><path d="M40.2 8.7h.3c-.1-.8-.3-1.3-.4-1.5 0 .1.1.6.1 1.5z"/></g><path d="M21.5 12.2l3.7-2.6c-.6 1.3-1.2 3-1.6 5-.3 1.4-.4 2.8-.5 3.9l-2.7-5.6 1.1-.7zm25.2 4.4l-1 1.4c.1-1 .2-2.2 0-3.6-.1-1.1-.4-2.1-.6-2.9.5 0 1.1-.1 1.6-.1v5.2z"/><path d="M34.9 23.7c.1 0 .1-.1.1-.1.1-.5.4-.8.9-.8s.9.3 1 .7c0 .1.1.1.2.1s.1-.1.1-.2c-.1-.6-.6-1-1.3-1-.6 0-1.1.5-1.2 1.1.1.1.1.2.2.2h0z" class="a"/><path d="M26.7 16.2c.1 0 .2 0 .3-.1.9-1 2.7-1.2 4.2-.6.2.1.4 0 .5-.3.1-.2 0-.5-.2-.6-1.7-.7-3.8-.4-5 .8-.2.2-.2.4 0 .6 0 .1.1.2.2.2zm16.8-.8c-.1 0-.2 0-.3-.1-1.1-.8-2.9-.7-4.2.1-.2.1-.4 0-.5-.2s-.1-.5.1-.6c1.6-1 3.7-1 5-.1.2.1.2.4.1.6 0 .2-.1.2-.2.3z"/><path d="M20.1 22c.4 1.9 2.3 3.1 3.8 2.9s1.9-1.7 1.8-3.5-1.5-3.2-3-3c-2 .3-2.9 1.8-2.6 3.6z" class="X"/><path d="M38.8 18.5c-.8 1.3-.6 2.8.1 3.3 1.1.8 3.6 1 4.5-.3.9-1.2.4-3.3-1.1-4.2-1.4-.7-2.8-.1-3.5 1.2z" fill="#f9feff"/><path d="M43.4 18c-1.2-2-3.9-1.2-4.6.6.8-1.3 2.2-1.8 3.4-1.1.7.4 1.3 1.2 1.5 2.1.1.7 0 1.5-.3 2 .3-.3.9-2.1 0-3.6zm-4.3 1.4c-.3.9.1 2 .9 2.3s1.7-.1 2-1.1c.3-.9-.1-2-.9-2.3s-1.7.2-2 1.1z"/><path d="M39.3 19.2c-.1.3 0 .5.3.6.2.1.5 0 .6-.3s0-.5-.3-.6-.6.1-.6.3z" fill="#fefffe"/><path d="M32.5 18.7c.9 1.3.8 2.8.1 3.3-1.2.9-4 1.2-5.1 0-1-1.1-.6-3.3 1.1-4.2 1.4-.9 3-.4 3.9.9z" fill="#f9feff"/><path d="M27.2 18.4c1.3-2.1 4.4-1.4 5.3.3a3 3 0 0 0-4-.9c-.8.5-1.4 1.3-1.5 2.2-.1.7.1 1.5.5 2-.5-.2-1.2-2-.3-3.6z"/><circle cx="29.9" cy="20.3" r="1.8"/><circle cx="28.9" cy="19.7" r=".5" fill="#fefffe"/><path d="M23.1 20h-.3c-1 .1-1.5.9-1.3 1.8.2 1 1.1 1.6 1.9 1.5.1 0 .2 0 .2-.1-.2-.9-.3-2-.5-3.2z" class="a"/><path d="M22.2 5.7L30 3.2c.4 0 8.8.7 8.8.7s2 .7 2.3.6c.4-.1 2.8 1.3 2.8 1.3l1.6 1.8.8 2v2.3l-1.2.4-1.7-2.8-3.1-3.1-3.1.3c-1 .2-6.2.2-6.3.3-.2.1-5.6 1.4-5.6 1.4l-3.4 1.9.3-4.6z"/><path d="M42.9 6.5c-2.2-1.1-6.2-1.5-9.8-1.3-3.9.2-7.9.9-10 2.5-1.4 1-2.7 8.3-2 7.6s2-1.4 3.4-1.9c.1-.8 1.1-2.8 1.3-3.1-.1.4-.1 1.9-.1 2.7 1.8-.6 4-1.1 6-1.3h.3c-.1-.4-.1-.7-.1-.9 0-.5 0-.9.1-1 0 0 .9.5 1.1 1.9.3 0 .6 0 .9-.1 2.8-.1 4.9-.1 6.6.2l-.3-3.2c.3.5.8 2.1.9 3.3.6.1 1.2.3 1.7.4 0-.7.1-2 .1-2.2.2.1.7 1.8.9 2.5.9.4 1.7.8 2.5 1.3.9.5-1.7-6.6-3.5-7.4zm-3.4 19.4c.3 1.4-1.7 3.3-3.7 3.3-1.9 0-3.3-1.6-3.3-3 .1-.8 1.4-.6 3.3-.7s3.5-.4 3.7.4z"/><path d="M36 27.9c-.9 0-1.6.3-2 .7.5.3 1.2.6 2 .6s1.6-.2 2.1-.8c-.3-.4-1.3-.5-2.1-.5z" fill="#b71521"/><path d="M38.5 25.4c-.7-.2-1.7 0-2.6.1-1.1.1-1.9 0-2.5.1.3.6 1.2.9 2.4.8 1.4 0 2.6-.4 2.7-1z" fill="#fff"/><g class="X"><path d="M24.4 40.2c-1.1 5.3-3.3 11.9-4.6 14.2-2.6 4.3-8.3 0-6.5-3.7 1.4-2.9 4.1-7.1 6.5-11.2.4-.7 4.8-.1 4.6.7z"/><path d="M22.9 63.6c-3.7-3-8.1-7.4-9.4-9.4-2.3-3.8 3.4-6.7 5.6-3.7 1.7 2.3 4 6.1 6.3 9.7.3.5-1.9 3.8-2.5 3.4z"/></g><path d="M28.1 33.8c.1 0 .2 0 .3-.1-3.6.2-7.7 1.6-8.6 2-1.5 1.5-3.3 6.8-5.9 11.5 2 1.2 5 2.5 8.1 3.5 1.7-6.4 3.1-12 6.1-16.9z" class="Y"/><path d="M14.5 46.3c-.2.3-.3.7-.5 1 2 1.2 5 2.5 8.1 3.5l.3-1.1c-3-1-5.9-2.3-7.9-3.4z" class="Z"/><path d="M28.2 33.8c.1 0 .2 0 .3-.1-.1 0-.2.1-.3.1z" class="Y"/><path d="M30.3 65.8c.2 0 1.6-1.5.5-3.7-.6-1.2-2.7-2.1-5.6-1.7-.3 0 .1.5.3.8.2.4 3.2 4.8 3.1 4.1-.1-.6-.8-1.6.3-1.4 1.2.3.8 1.9 1.4 1.9z" class="X"/><path d="M30.2 64.6c-.5.3-2.9-2.3-2.4-2.6s1.1 0 1.7.6c.7.6 1.2 1.7.7 2z" fill="#e2a285"/><path d="M27.7 60.8c.8.9.7 3.1 3.3 2.4.5-.1.7 1.6.1 2.1-.4.2 0 .5-.7 1-.5.3-.8.3-1 .5-.4.9-1.1.4-1.3.8-.3.5-.9.5-1.2.4-.9-.2-2.2-1.8-3.7-3.5-1-1 .3-3.5.7-3.7 1.7-.8 3.3-.6 3.8 0z" class="X"/></svg>