<svg xmlns="http://www.w3.org/2000/svg" xmlns:xlink="http://www.w3.org/1999/xlink" viewBox="0 0 111.95 108.24"><defs><clipPath id="A" transform="translate(-.85 -.38)"><path d="M64.05 12.82l-1.1 14.15 8.87-.85 5.03-7.9-1.74-4.92-11.05-.5z" fill="none"/></clipPath><path id="B" d="M43.28.02l6.6.52.7 1.8-8.4-.66 1.1-1.67z"/></defs><path d="M0 60.86l61.76 3.38v44L0 103.8V60.86z" fill="#ffae32"/><path d="M5.13 66.14l-.1 32.26 51.2 3.97.1-33.7-51.2-2.54z" fill="#7c3c28"/><path d="M5.05 88.5v1.3l9.68.7q17.42 1.22 34.75 2.3l6.76.4v-1.45c-17.1-.8-34.15-1.8-51.2-3.23zm34.6 10.77c-11.5-.6-23.1-.65-34.63-1.55v.68l51.2 4v-2.1l-16.56-1.04zM33.43 81.3c-9.38-.15-19 .4-28.36-.4v.72q4.9.1 9.77.25 17.63.53 35.25 1.55l6.17.36v-1.93q-11.4-.34-22.83-.55zm-14.6-8.87q-3.67-.06-7.33-.24-3.2-.08-6.35-.1v1.3l1.22.07 9.53.44 34 1.34 6.43.3v-1.27l-37.5-1.85z" style="mix-blend-mode:multiply" opacity=".35" class="C" fill="#84412f"/><path d="M61.76 64.24L97.1 51.76v41.88l-35.33 14.6v-44z" fill="#d68323"/><path d="M65.73 67.5v34.07l28.22-11.1v-33L65.73 67.5z" class="C" fill="#84412f"/><path style="mix-blend-mode:multiply" d="M65.73 75.4v1.03l28.22-10.5v-.78L65.73 75.4zm0 13.63v1.03l28.22-10.52v-.77L65.73 89.03z" opacity=".3" fill="#633127"/><path d="M65.9 64.4c-.87.3-.5 1.67.38 1.38h0l2.5-.85c.86-.3.5-1.67-.38-1.38" fill="#ffae39" opacity=".2"/><path d="M97.08 51.76l9.92-35s7.18 12.44 4.24 26.13c-3.03 14.13-14.16 8.87-14.16 8.87z" fill="#d38d31"/><path d="M107 16.75l-56.6-2.22L38.34 48.8l58.75 2.96 9.9-35z" fill="#f9b23d"/><path d="M54.2 18.34L45 44.36l47.95 2.22 8.74-26.65-47.5-1.6z" class="C" fill="#84412f"/><path d="M84.68 23.7l-18.9-1c-4.3-.2-8.68-.14-13-.35l-.3.86 5.93.24q13.3.6 26.58 1.3 7.43.4 14.86.8l.4-1.18q-7.8-.28-15.57-.67zm-4.23 15.18c-10.93-.46-21.83-1.34-32.72-2.26l-.44 1.25c2.65.1 5.3.1 7.94.18 4.62.12 9.24.4 13.85.66l13.76.9q6 .44 12.07.92l.4-1.22-14.86-.44zm-.3-8.53C70.3 29.7 60.4 29.7 50.6 28.6l-.44 1.08 7.36.37 26.9 1.44q6.6.36 13.2.78l.24-.73-17.7-1.2zm-4.17 14.8l-18.32-1c-4.08-.2-8.36 0-12.5-.32l-.17.5 47.94 2.3.3-.9-17.26-.58z" style="mix-blend-mode:multiply" opacity=".3" fill="#633127"/><path d="M56.73 44.9s5-12.07-2.53-26.56l-9.2 26z" fill="#77382b"/><path d="M107.78 25.4l-6.9 23.4s6 1.28 8.1-7.9a28.68 28.68 0 0 0-1.21-15.51z" class="C" fill="#84412f"/><path d="M101.97 48.85l1.7-7.3c1.25-5 2.9-9.94 4.57-14.83-.26-.84-.46-1.33-.46-1.33l-6.9 23.4a4.66 4.66 0 0 0 1.08.05z" style="mix-blend-mode:multiply" fill="#6b382f" opacity=".18"/><path d="M61.76 64.24L97.1 51.76 38.34 48.8 0 60.86l61.76 3.38z" fill="#ffc23b"/><path d="M14.38 58.95l24.6-7.2 46.33 1.96-25.83 7.4-45.1-2.17z" fill="#77382b"/><path d="M39.14 60.14l-.17-8.38 46.33 1.96-25.83 7.4-20.33-.98z" class="C" fill="#84412f"/><path d="M24.8 59.46s-1.3.62-1.07 2.7V74.4c0 1.48 8.68 3.07 10.7 0V62.74a2.52 2.52 0 0 1 1.27-2.77z" fill="#ffda40"/><path d="M27.84 68.87L27 72.43s1.06 1.22 3 .1l-1-3.74a1.87 1.87 0 0 0 1.66-1.86c0-1.86-.7-2.66-1.93-2.7s-2.18 1.44-2.17 2.38.8 2.2 1.28 2.25z" fill="#3f2019"/><path d="M28.6 68.62c-1.16-.86-1-2.74-.62-4.2a2.69 2.69 0 0 0-1.43 2.19c0 .85.8 2.2 1.28 2.26L27 72.44a1.85 1.85 0 0 0 .66.43l.95-4.25z" fill="#7c3c28" opacity=".56"/><path d="M14.87 19.36l-1.68-1.3-.1-2.84.76-.03.08 2.5 1.4 1.07-.46.6z" class="B" fill="#206787"/><path d="M15.58 17.44h-.08s-2.73-1.1-1.86-4.58a.2.2 0 0 1 .38.1c-.8 3.14 1.52 4.08 1.62 4.12a.2.2 0 0 1-.06.36z" fill="#736357"/><path d="M3.42 16.08s-1.35.3 0 3.37S6 22.85 6.2 22.7s2.46-2.94 2.46-2.94l-1.9-3.13-2.62-.54h-.73z" fill="#754c24"/><path d="M3.54 19.74s-.7-2.06-.13-2.42 1.94 2.07 2.12 3.2-.22 1-.5.92a9.89 9.89 0 0 1-1.49-1.71z" fill="#603813"/><path d="M5.44 21.45a1 1 0 0 0 .1-.92 3.77 3.77 0 0 0-.19-.68l-.33.13s-.7-1.17-1.06-1 .3 1.7.7 2.17l.1.1a.63.63 0 0 0 .67.2z" fill="#543012"/><path d="M3.98 18.97l4.54-1.65.7.82L5 20a1.79 1.79 0 0 0-1.02-1.04z" fill="#825f43"/><path d="M13.6 14.4L9 15.9c-1.16.36-4.73 1.2-5.48 1.38.56 0 1.43 1.6 1.65 2.1.4.85.56 1.88.28 2.06 0 0 3.05-1.78 8.76-4.4z" fill="#966f4b"/><path d="M24.27 8.73l-10.34 4.32c-1.22.48-10.52 3-10.52 3 1.88 0 3.88 5.4 2.8 6.6 0 0 6.92-4.67 9.52-5.72s10.85-2.54 10.85-2.54c.5-1.78-.76-4.85-2.3-5.67z" fill="#edd698"/><path d="M15.66 17.4h0a.2.2 0 0 1-.14-.24c.8-3.12-1.52-4.08-1.62-4.12a.2.2 0 0 1 .14-.37s2.73 1.1 1.86 4.58a.2.2 0 0 1-.24.15z" fill="#736357"/><path d="M58.42 61.08a2.34 2.34 0 0 0 .26-1V38.85c0-1.28-1.25-1.85-2.52-1.85H34.9c-1.28 0-2.2.57-2.2 1.85v21z" fill="#59c5e2"/><g stroke="#59c5e2" class="B F"><path d="M47.15 31a.5.5 0 0 0-.5-.5h-5a.5.5 0 0 0-.5.5h0a.5.5 0 0 0 .5.5h5a.5.5 0 0 0 .5-.5h0z"/><path d="M47.15 32a.5.5 0 0 0-.5-.5h-5a.5.5 0 0 0-.5.5h0a.5.5 0 0 0 .5.5h5a.5.5 0 0 0 .5-.5h0z"/></g><g fill="#59c5e2"><rect x="32.2" y=".63" width="30.96" height="34.3" rx="3.73" transform="matrix(.078111 -.996945 .996945 .078111 25.38 63.54)"/><path d="M34.7 1.27l-1.22-.14-1.63.7 2.85.8V1.27z"/></g><rect x="26.2" y="10.68" width="3.69" height="9.68" rx="1.34" transform="matrix(-.996945 -.078111 .078111 -.996945 53.96 32.79)" class="D" fill="#084e66"/><rect x="26.2" y="11.67" width="3.69" height="9.68" rx="1.34" transform="matrix(-1 -.08 .08 -1 53.88 34.78)" class="B" fill="#206787"/><g clip-path="url(#A)"><rect x="62.34" y="13.46" width="3.69" height="9.68" rx="1.34" transform="matrix(-.996945 -.078111 .078111 -.996945 125.9 41.17)" class="D" fill="#084e66"/><rect x="62.34" y="14.45" width="3.69" height="9.68" rx="1.34" transform="matrix(-.996945 -.078111 .078111 -.996945 125.83 43.16)" class="B" fill="#206787"/></g><g class="B" fill="#206787"><path d="M42.44 32.76l.34-.07h4.75l-.33.07h-4.76z"/><path d="M47.15 34.88a1 1 0 0 1 1 1.05 1 1 0 0 1-1 1h-4.7a1 1 0 0 1-1-1 1 1 0 0 1 1-1.05h4.7zm0-2.12a1 1 0 0 1 1 1.05 1 1 0 0 1-1 1h-4.7a1 1 0 0 1-1-1 1 1 0 0 1 1-1.05h4.7z" stroke="#59c5e2" stroke-width=".35" class="F" style="stroke-miterlimit:10"/></g><rect x="30.27" y="1.37" width="30.96" height="34.3" rx="3.73" transform="matrix(.078111 -.996945 .996945 .078111 22.86 62.31)" class="E" fill="#79e0ff"/><path d="M38.04 20.52h-.43c-3-.116-5.356-2.65-5.24-5.66s2.65-5.356 5.66-5.24h.43a5.45 5.45 0 0 1-.42 10.88h0z" fill="#fff"/><path d="M38.03 9.82h.42a5.25 5.25 0 0 1-.4 10.49h-.42a5.25 5.25 0 0 1-4.83-5.69 5.28 5.28 0 0 1 5.23-4.84m0-.4a5.64 5.64 0 0 0-.43 11.27h.45a5.64 5.64 0 0 0 .43-11.27h-.45z" fill="#72b6ce"/><path d="M52.43 21.62H52a5.45 5.45 0 0 1 .42-10.88h.43a5.45 5.45 0 0 1-.42 10.88h0z" fill="#fff"/><path d="M52.4 10.95h.42a5.25 5.25 0 0 1-.4 10.49H52a5.25 5.25 0 0 1-4.86-5.65 5.28 5.28 0 0 1 5.23-4.84m0-.4a5.64 5.64 0 0 0-.43 11.27h.45a5.64 5.64 0 0 0 .46-11.21h-.45z" fill="#72b6ce"/><path d="M50.76 24.62a107 107 0 0 1-13.18-1c0 0-1.74 6.64 5.8 7.23 7.77.56 7.38-6.23 7.38-6.23z" fill="#5e1515"/><path d="M43.4 30.8a8.8 8.8 0 0 1-2.92-.68 4.29 4.29 0 0 1 6.82.2 8.54 8.54 0 0 1-3.9.48z" fill="#fc2727"/><path d="M49.98 24.62l-.4 2a46.2 46.2 0 0 1-11.13-.86l-.13-2a109.49 109.49 0 0 0 11.65.86z" fill="#fff"/><circle cx="38.77" cy="16.4" r="2.91" transform="matrix(.08 -1 1 .08 18.54 53.38)"/><circle cx="53.15" cy="17.53" r="2.91" transform="matrix(.078111 -.996945 .996945 .078111 30.68 68.77)"/><g fill="#fff"><circle cx="37.97" cy="16.1" r="1" transform="matrix(.078111 -.996945 .996945 .078111 18.1 52.32)"/><circle cx="52.36" cy="17.23" r="1" transform="matrix(.078111 -.996945 .996945 .078111 30.24 67.7)"/></g><g class="B" fill="#206787"><path d="M67.9 19.97v.13l-4.75 14.65-11 7.66c-.77.536-1.195 1.442-1.116 2.377s.65 1.756 1.5 2.155 1.846.314 2.616-.222l11.76-8.17a2.62 2.62 0 0 0 1-1.34l5-15.36zm3.4-1.77l-.63-2.12 1.68-2.45.65.45-1.45 2.14.5 1.76-.76.22z"/><path d="M72.06 18.48l-.47-.64 1.47-1.1.14-2.6.8.04-.16 2.97-1.78 1.3z"/></g><path d="M72.72 22.88l-2.7-1.1-2.7-1.15.7-1.67.48.2a2.53 2.53 0 0 1 4.663-1.087A2.53 2.53 0 0 1 72.97 21l.44.18z" class="E" fill="#79e0ff"/><path d="M34.42 44.56L22.66 36.4l-5.03-15.5" fill="none" stroke="#206787" stroke-linecap="round" stroke-linejoin="round" stroke-width="5.244"/><path d="M16.73 17.74l-.76-.24.56-1.75-1.42-2.17.67-.44 1.62 2.5-.67 2.1z" class="B" fill="#206787"/><path d="M15.2 22.4l2.72-1.05 2.7-1-.63-1.72-.48.2A2.53 2.53 0 1 0 15 20.56l-.45.17zm41.42 38.62c0-.07.07-.13.07-.2V39.55c0-1.28-.65-2.55-1.92-2.55H33.5a3 3 0 0 0-2.8 2.55v20.22z" class="E" fill="#79e0ff"/><path d="M50.7 58.5a.5.5 0 0 0-.5-.5H37.15a.5.5 0 0 0-.5.5h0a.5.5 0 0 0 .5.5h13a.5.5 0 0 0 .5-.5h0zm-6.9-14.55a5.15 5.15 0 1 1-5.16 5.15 5.15 5.15 0 0 1 5.15-5.15zm-2.64 5.15a2.65 2.65 0 1 0 2.64-2.65 2.65 2.65 0 0 0-2.65 2.65z" class="B" fill="#206787"/><g class="D" fill="#084e66"><path d="M43.3 0l6.6.52.7 1.8-8.4-.66L43.3 0z"/><path d="M43.3.01l6.6.52.7 1.8-8.4-.65L43.3.01z"/><use xlink:href="#B"/><path d="M43.27.03l6.6.52.7 1.8-8.4-.65 1.1-1.67z"/><path d="M43.26.04l6.6.52.7 1.8-8.4-.65 1.1-1.67z"/><path d="M43.25.05l6.6.5.7 1.8-8.4-.65 1.1-1.67z"/><path d="M43.24.06l6.6.5.7 1.8-8.4-.66 1.1-1.66z"/><path d="M43.23.07l6.6.5.7 1.8-8.4-.66 1.1-1.66z"/><use xlink:href="#B" x="-0.06" y="0.05"/><path d="M43.2.1l6.6.5.7 1.8-8.4-.66L43.2.1z"/><path d="M43.2.1l6.6.52.7 1.8-8.4-.66L43.2.1z"/><path d="M43.18.1l6.6.52.7 1.8-8.4-.66L43.18.1z"/><use xlink:href="#B" x="-0.11" y="0.1"/><use xlink:href="#B" x="-0.12" y="0.11"/><use xlink:href="#B" x="-0.13" y="0.12"/><use xlink:href="#B" x="-0.14" y="0.13"/><use xlink:href="#B" x="-0.15" y="0.14"/><use xlink:href="#B" x="-0.15" y="0.15"/><path d="M43.12.18l6.6.52.7 1.8-8.4-.65 1.1-1.67z"/><path d="M43.1.2l6.6.52.7 1.8-8.4-.65L43.1.2z"/><path d="M43.1.2l6.6.52.7 1.8-8.4-.66L43.1.2z"/><path d="M43.1.2l6.6.5.7 1.8-8.4-.65L43.1.2z"/><path d="M43.08.22l6.6.5.7 1.8-8.4-.66 1.1-1.66z"/><path d="M43.07.23l6.6.5.7 1.8-8.4-.66 1.1-1.66z"/><path d="M43.06.24l6.6.5.7 1.8-8.4-.66 1.1-1.66z"/><use xlink:href="#B" x="-0.23" y="0.22"/><path d="M43.04.26l6.6.5.7 1.8-8.4-.66 1.1-1.66z"/><use xlink:href="#B" x="-0.25" y="0.24"/><use xlink:href="#B" x="-0.26" y="0.25"/><path d="M43 .28l6.6.52.7 1.8-8.4-.66L43 .28z"/><path d="M43 .3l6.6.52.7 1.8-8.4-.66L43 .3z"/><path d="M42.98.3l6.6.52.7 1.8-8.4-.66L42.98.3z"/></g><use xlink:href="#B" x="-0.3" y="0.3" class="B" fill="#206787"/></svg>