<svg xmlns="http://www.w3.org/2000/svg" xmlns:xlink="http://www.w3.org/1999/xlink" viewBox="0 0 76 120"><g fill="#ffc19f"><path d="M58.1 69.3s.9 2.3.3 2.9c-.7.7-3.3 1-3.9.1-.6-1 .2-3.7 1.1-3.7.8-.1 1.9-.3 2.5.7z"/><path d="M57.1 69.6s-.7 2.1-2.6 1.4c0 0-1 1.5-1.8.9s.5-1 1-1.5 1.2-1.9 2.1-2c.8-.2 1.3.8 1.3 1.2zm1.4 1.7s0 .5.3 1.2c.2.7.7 2.7 0 2.2s-1.2-2.5-1.2-2.5c0-.1.9-.9.9-.9z"/><path d="M57.6 71.8c.1.1.2 2.1.2 2.5.1.4.2 1.8-.3 1.7-.6-.1-.5-1.3-.6-2.1-.1-.6-.5-1.8-.5-1.8l1.2-.3z"/><path d="M56.5 71.9l.1.7-.3 2.1c-.1.8.1 1.6-.4 1.5-.7-.1-.6-1.5-.6-2.2s-.1-1.8-.1-1.8c.1-.1 1.3-.3 1.3-.3z"/><path d="M55.5 71.9l.1.5-1 2.5c-.2.6-.5.8-.8.4-.2-.4.1-1.3.3-1.9s.2-1.9.2-1.9l1.2.4zM22.3 56.8c1.1 0 2.1.2 2.9.4.7-3.2 1.2-5.8 1.1-7.6-.2-3.5-3.8-4.4-5.3-2.8-.1.1-.4.3-.6 1.7-.4 2-.4 3.5-.4 3.8l-.1 4.9c.3-.1.7-.2 1.2-.3.3-.1.7-.1 1.2-.1zm-2.1 12.5s-.9 2.3-.3 2.9c.7.7 3.3 1 3.9.1.6-1-.2-3.7-1.1-3.7-.8-.1-1.9-.3-2.5.7z"/><path d="M21.2 69.6s.7 2.1 2.6 1.4c0 0 1 1.5 1.8.9s-.5-1-1-1.5-1.2-1.9-2.1-2c-.8-.2-1.3.8-1.3 1.2zm-1.4 1.7s0 .5-.3 1.2c-.2.7-.7 2.7 0 2.2s1.2-2.5 1.2-2.5l-.9-.9z"/><path d="M20.7 71.8c-.1.1-.2 2.1-.2 2.5-.1.4-.2 1.8.3 1.7.6-.1.5-1.3.6-2.1.1-.6.5-1.8.5-1.8l-1.2-.3z"/><path d="M21.8 71.9l-.1.7.3 2.1c.1.8-.1 1.6.4 1.5.7-.1.6-1.5.6-2.2s.1-1.8.1-1.8c-.1-.1-1.3-.3-1.3-.3z"/><path d="M22.8 71.9l-.1.5 1 2.5c.2.6.5.8.8.4.2-.4-.1-1.3-.3-1.9s-.2-1.9-.2-1.9l-1.2.4zm.9-2c1.1-5.1 1.7-9.3 1.5-11.9-.3-4.9-5.6-3.7-5.6.3 0 3.1.4 6.3.6 10.9.1.8 3.3 1.4 3.5.7z"/></g><path d="M32.8 33.9c.1 0 .2 0 .3-.1-3.5.2-7.7 1.6-8.5 2-1.6 1.3-3.7 7.7-5.2 12.4 3.7 1.7 6.6 2 9.7 2.6 1.6-6.3.7-12.1 3.7-16.9z" fill="#f7931e"/><g fill="#ffc19f"><path d="M56.9 43.9c1.1 5.1 2 9.3 1.8 11.9-.3 4.9-5.9 3.7-5.9-.3 0-3.1-.4-6.3-.2-10.9 0-.8 4.1-1.5 4.3-.7zM38.8 71.3c.4 7 3.6 19 3.6 19l7.6.4c.2-1 .4-2.4.7-4 .4-2.6.8-5 1.1-7.9.2-1.9.3-4.5.2-7.5H38.8z"/><path d="M50.1 90.2c-.1 3.3-.4 6.9-.8 10.5-.4 4.1-1 8-1.6 11.6h-6c-.8-8.3-2.4-18.5.6-22.6l7.8.5zM27.9 79.4c1.1 5.2.5 10.9.5 10.9l8 .4s1-5.6 1.6-10.8l-10.1-.5z"/><path d="M36.4 90.2c-.1 3.3-.4 6.9-.8 10.5-.4 4.1-1 8-1.6 11.6h-6c-.8-8.3-2.4-18.5.6-22.6l7.8.5z"/></g><path d="M44.6 63.7c-.1 0-.1-.1 0 0l-1.7.1h-3l-3.3-.2c0 .7.8 5 2.7 11.4h0l.9 11.7s.8.1 2 .2c.5 0 2 .2 2 .2s7.1.2 9.3-.4l-.5-9.9-1-13.7-7.4.6z" fill="#454551"/><path d="M40.2 86.8l1.8.2.3-11.7-1.7-11.4h-.8l-3.3-.2c0 .7.8 5 2.7 11.4h0l1 11.7z" fill="#383842"/><g fill="#454551"><path d="M33 63.6h-1.7l-2.9-.2-.5-.4c-.1.6-2.4 5-1 11.6h0l-.2 11.7s.8.2 1.9.4c.5.1 2 .3 2 .4h0c3 .3 7 .8 9.2.4l.3-9.9.2-13.7-7.3-.3z"/><path d="M31.3 63.6l-2.9-.2-.5-.4c-.1.6-2.4 5-1 11.6h0l-.2 11.7s.8.2 2 .4c.5.1 1.2.2 1.9.3 3.5-8.9 2.5-21.5 2.3-23.3l-1.6-.1z"/></g><path d="M49.5 51.4c-.6-4.4 1-16.1 1.1-16.4 2.1.4 3.1.6 3.6 1.4 1.2 1.8 2 4.7 4.9 12.5-.6.7-9.2 3.5-9.6 2.5z" fill="#f7931e"/><path d="M54.6 69.9c-1.1-5.1-1.7-9.3-1.5-11.9.3-4.9 5.6-3.7 5.6.3 0 3.1-.4 6.3-.6 10.9-.1.8-3.4 1.4-3.5.7z" fill="#ffc19f"/><path d="M53 35.9c-.3-.2-.7-.4-1.2-.6-7.3-2-11.4-2.6-19.4-1.4-5.3 8.8-6.6 20.5-7.4 33.6 7.3 5.3 18.5 5.1 28.1 1 .1 0-2.6-22.1-.1-32.6z" fill="#f7931e"/><path d="M51.9 50.6c-.1-1.5-.1-3 0-4.4-7.2 1.4-14.9.8-23.6-1-1.1 2.8-1.7 5.9-2.2 10 12.9 3.2 19.3 2.9 26 .9-.1-1.8-.1-3.7-.2-5.5zm-5.5-15.9V34c-3.8-1.1-13.4-.3-13.5-.1-.2 2.8 2.7 5.3 6.4 5.5 3.8.1 6.9-1.9 7.1-4.7z" fill="#ff6d00"/><path d="M45.2 26l-.5 8.2c-.1 1.8-2.4 3.1-5.2 2.9s-4.9-1.8-4.8-3.5l.5-8.2 10 .6zm7.7-4.6c0 1.8-1.4 3.3-2.6 3.4-1.3.1-1.8-1.2-2-3-.2-1.7.7-3.2 1.9-3.4 1.7 0 2.7 1.3 2.7 3z" fill="#f4b18c"/><path d="M50.1 6.8c.5-1.1.6-2.9-2-4.2.4 2.3-.8 2.1-2.2 1.6-2.1-.7-4.7-.9-7.4-.8-7.8.3-12.9 2.9-13.7 9.5.2 8.6 7.1 14.9 14.8 14.6 7.8-.3 13.2-4.3 13-13 0-3.5-1-6-2.5-7.7z" fill="#2b1407"/><path d="M28.9 12.3c-.7 1.7.4 14.7 2.1 16.6 1.8 2 8.9 4 11.2 3.9 1.6-.1 7-2.1 8.2-4.5 1.5-2.8 1-14.8.4-16.2-1.9-5-5.6-5.5-11.4-5.2-5.4.1-8.8 1.2-10.5 5.4z" fill="#ffc19f"/><path d="M41.7 24.9c.1 0 .1 0 .1-.1.1-.4.4-.7.8-.7.5 0 .8.3.9.7 0 .1.1.1.1.1.1 0 .1-.1.1-.1-.1-.6-.5-.9-1.1-.9s-1 .4-1.1.9c0 0 .1.1.2.1h0z" fill="#f4b18c"/><path d="M30.2 20.4c-.3 4.3-.7 3.6-2.1 3.7s-3.3-5.3-3.2-11.7c.4-1.3 4-3.3 4.6-3.6.4 2.5.8 9.6.7 11.6z" fill="#2b1407"/><path d="M45.4 19.7c-.7 1.3-.6 2.8.1 3.3 1.1.8 3.5.9 4.4-.3s.4-3.3-1.1-4.1c-1.3-.8-2.7-.2-3.4 1.1z" fill="#f9feff"/><path d="M50 19.2c-1.2-2-3.9-1.2-4.6.6.7-1.3 2.2-1.8 3.4-1.1.7.4 1.3 1.2 1.5 2.1.1.7 0 1.5-.3 2 .3-.3.9-2.1 0-3.6zm-4.3 1.4c-.3.9.1 1.9.9 2.3.8.3 1.7-.1 2-1s-.1-1.9-.9-2.3-1.7.1-2 1z"/><path d="M45.8 20.4c-.1.3 0 .5.3.6.2.1.5 0 .6-.3s0-.5-.3-.6c-.2-.1-.5.1-.6.3z" fill="#fefffe"/><path d="M39.1 19.9c.9 1.3.8 2.7.1 3.3-1.2.9-4 1.1-5.1 0-1-1.1-.6-3.3 1.1-4.2 1.4-.9 3-.4 3.9.9z" fill="#f9feff"/><path d="M33.9 19.6c1.3-2.1 4.4-1.4 5.3.3-.9-1.3-2.6-1.7-3.9-.9-.8.5-1.4 1.3-1.5 2.2-.1.7.1 1.5.5 2-.6-.3-1.4-2-.4-3.6z"/><circle cx="36.6" cy="21.5" r="1.8"/><circle cx="35.5" cy="20.9" r=".5" fill="#fefffe"/><path d="M49.8 16.9c-.1 0-.2-.1-.3-.2-.7-.8-2.2-1.1-3.4-.8-.3.1-.6-.1-.6-.4-.1-.3.1-.6.4-.6 1.6-.4 3.4 0 4.4 1.1.2.2.2.5 0 .7s-.3.2-.5.2zm-16 .2c-.1 0-.3 0-.4-.1-.2-.2-.2-.5 0-.7 1-1 2.8-1.5 4.4-1 .3.1.4.4.4.6-.1.3-.4.4-.6.4-1.2-.3-2.7 0-3.4.8-.2-.1-.3 0-.4 0zM48.3 2.6c.3 1.2-.3 2.3-1.3 3.2.7-1.5.7-3.4-1-5.8l-3.4 2.8c.1-.6.1-1.3-.1-2-1.8 2.5-3.8 2.4-10.1 4.1-4.4 1.1-5.2 4-4.6 5.7 3-.7 7.3.7 10.5.6 4-.1 7.1-.9 8.7-2.1 1.8-1.4 3.3-4.2 1.3-6.5z" fill="#2b1407"/><path d="M25.5 22c0 2.2 1.6 3.9 3.1 4.1 1.5.1 2.2-1.5 2.4-3.5s-.8-3.8-2.3-4c-2-.2-3.2 1.3-3.2 3.4z" fill="#ffc19f"/><use xlink:href="#B" fill="#09598c"/><path d="M41.4 118.5v.7s11.5 1.6 13.2-.3c.1-.1.1-.2 0-.3-3.1.9-10.3.2-13.2-.1z" fill="#b3b3b3"/><path d="M48.3 111.2c-.1-.3-7.4.2-7.3.7l.1 2.1 7.4-1.1c0-.6-.1-1.5-.2-1.7z" opacity=".22" fill="#1c000b"/><path d="M48.6 111c-.1-.2-8 .2-8 .6 0 .3.1.9.1 1.7l8.1-.4c0-.7-.1-1.7-.2-1.9z" fill="#e6e6e6"/><path d="M49.7 114.4c.1 0 .2-.1.2-.1 0-.1-.1-.2-.1-.2-.7-.1-1.5.3-1.9 1-.1.1 0 .2.1.2h.1c.1 0 .1 0 .1-.1.2-.5.9-.9 1.5-.8zm.9.4c.1 0 .2-.1.2-.2s-.1-.2-.2-.2c-.7 0-1.5.3-1.9.9-.1.1 0 .2 0 .2h.1s.1 0 .1-.1c.6-.5 1.3-.6 1.7-.6zm1.1 0c-.7-.1-1.5.3-2 .9-.1.1-.1.2 0 .2h.1s.1 0 .1-.1c.5-.5 1.2-.9 1.7-.8.1 0 .2-.1.2-.2 0 .1-.1 0-.1 0z" fill="#e9edf4"/><use xlink:href="#B" x="-13.5" fill="#09598c"/><path d="M27.9 118.5v.7s11.5 1.6 13.2-.3c.1-.1.1-.2 0-.3-3.1.9-10.3.2-13.2-.1z" fill="#b3b3b3"/><path d="M34.8 111.2c-.1-.3-7.4.2-7.3.7l.1 2.1 7.4-1-.2-1.8z" opacity=".22" fill="#1c000b"/><path d="M35.1 111c-.1-.2-8 .2-8 .6 0 .3.1.9.1 1.7l8.1-.4c0-.7-.1-1.7-.2-1.9z" fill="#e6e6e6"/><path d="M36.2 114.4c.1 0 .2-.1.2-.1 0-.1-.1-.2-.1-.2-.7-.1-1.5.3-1.9 1-.1.1 0 .2.1.2h.1c.1 0 .1 0 .1-.1.2-.5.9-.9 1.5-.8zm.9.4c.1 0 .2-.1.2-.2s-.1-.2-.2-.2c-.7 0-1.5.3-1.9.9-.1.1 0 .2 0 .2h.1s.1 0 .1-.1c.6-.5 1.3-.6 1.7-.6zm1 0c-.7-.1-1.5.3-2 .9-.1.1-.1.2 0 .2h.1s.1 0 .1-.1c.5-.5 1.2-.9 1.7-.8.1 0 .2-.1.2-.2.1.1 0 0-.1 0z" fill="#e9edf4"/><path d="M40.4 28.2s2 1.7 4.5 0" fill="none" stroke="#f4b18c" stroke-width=".5" stroke-linecap="round" stroke-miterlimit="10"/><defs ><path id="B" d="M48.6 114.1c-.1-.3-.2-2.5-.3-2.9-.1-.3-7.4.2-7.3.7 0 1 .4 6.1.5 7.3 0 0 11.4 1.4 13.2-.4-.1-2.9-2.2-3.5-6.1-4.7z"/></defs></svg>