<svg xmlns="http://www.w3.org/2000/svg" width="146.667" height="146.667" viewBox="0 0 110 110" fill="rgb(0%,0%,0%)"><path d="M25.738 80.53l.957 2.1a22.89 22.89 0 0 1-6.895-9.625 48.97 48.97 0 0 0-2.355-4.973C13.2 60.578 11.44 52.46 10.934 44l-1.63-29.56v-3.297a5.78 5.78 0 0 1 3.512 5.355c.68 7.492 1.207 15.004 2.387 22.418a56.59 56.59 0 0 0 3.828 11.879 19.77 19.77 0 0 0 6.797 8.195c3.508 2.684 6.602 5.863 10.055 8.668a17.29 17.29 0 0 0 5.434 3.398 7.43 7.43 0 0 0 9.285-9.105c-.297-1.102-.773-2.2-1.254-3.543 1.742.527 3.53.898 5.344 1.102a33.48 33.48 0 0 0 5.676-.793c-.207.66-.352 1.164-.54 1.648a7.8 7.8 0 0 0 2.629 9.395c2.895 2.2 6.13 2.2 9.273-.164 1.047-.828 2.047-1.72 2.992-2.664 1.53-1.43 2.816-3.234 4.578-4.266 12-7.105 15.133-18.887 16.707-31.46.617-4.895.9-9.836 1.176-14.75a5.81 5.81 0 0 1 2.918-5.16c.152.07.3.176.395.3-.43 14.3-.406 28.598-3.06 42.734a39.13 39.13 0 0 1-3.047 9.461c-2.363 4.973-5.148 9.746-7.855 14.543a10.48 10.48 0 0 1-4.672 4.156c-2.453 1.277-3.984 4.223-6.215 6.105-2.684 2.254-5.687 4.156-8.547 6.227l-.398-.574.793-1.375c-17.426 7.14-30.02-.78-41.758-12.352zM88.45 47.223a9.35 9.35 0 0 1-6.754 6.5c-7.93 2.38-18.773-1.582-23.273-8.523a45.8 45.8 0 0 1-2.422-4.852c5.402-3.18 11.52-2.44 15.5 1.672 1.102 1.102 2.06 2.2 3.145 3.234 4.422 4.156 8.03 4.72 13.805 1.97zm-66.602.077c6.06 2.715 9.523 2.102 14.066-2.332.66-.64 1.277-1.32 1.902-1.98 4.754-5.04 9.496-5.918 16.5-2.738a42.68 42.68 0 0 1-2.902 5.598c-4.676 6.535-14.95 10.086-22.562 7.988-3.55-1.035-5.5-2.773-7.004-6.535zm0 0"/></svg>