<svg width="83" height="110" viewBox="0 0 83 110" fill="none" xmlns="http://www.w3.org/2000/svg">
<path d="M41.25 98.113C64.0317 98.113 82.5 80.0675 82.5 57.8073C82.5 35.5471 64.0317 17.5017 41.25 17.5017C18.4683 17.5017 0 35.5471 0 57.8073C0 80.0675 18.4683 98.113 41.25 98.113Z" fill="#7CC144"/>
<path d="M26.7328 69.138C33.3716 69.138 38.7534 63.9275 38.7534 57.5001C38.7534 51.0726 33.3716 45.8621 26.7328 45.8621C20.0941 45.8621 14.7123 51.0726 14.7123 57.5001C14.7123 63.9275 20.0941 69.138 26.7328 69.138Z" fill="white" stroke="white" stroke-width="1.48125"/>
<path d="M27 70C34.1797 70 40 64.4036 40 57.5C40 50.5964 34.1797 45 27 45C19.8203 45 14 50.5964 14 57.5C14 64.4036 19.8203 70 27 70Z" fill="#327130"/>
<path d="M26.9108 69.4828C33.7463 69.4828 39.2875 64.118 39.2875 57.5001C39.2875 50.8822 33.7463 45.5173 26.9108 45.5173C20.0754 45.5173 14.5341 50.8822 14.5341 57.5001C14.5341 64.118 20.0754 69.4828 26.9108 69.4828Z" stroke="white" stroke-opacity="0.95" stroke-width="1.185"/>
<path d="M23.6163 59.138C25.8784 59.138 27.7122 57.324 27.7122 55.0863C27.7122 52.8486 25.8784 51.0345 23.6163 51.0345C21.3542 51.0345 19.5204 52.8486 19.5204 55.0863C19.5204 57.324 21.3542 59.138 23.6163 59.138Z" fill="white"/>
<path d="M30.2055 59.6552C31.0907 59.6552 31.8083 58.9991 31.8083 58.1897C31.8083 57.3803 31.0907 56.7242 30.2055 56.7242C29.3204 56.7242 28.6028 57.3803 28.6028 58.1897C28.6028 58.9991 29.3204 59.6552 30.2055 59.6552Z" fill="#C8E1E5"/>
<path d="M57.2669 70.1379C63.9057 70.1379 69.2875 64.9274 69.2875 58.5C69.2875 52.0725 63.9057 46.8621 57.2669 46.8621C50.6282 46.8621 45.2464 52.0725 45.2464 58.5C45.2464 64.9274 50.6282 70.1379 57.2669 70.1379Z" fill="white" stroke="white" stroke-width="1.46057"/>
<path d="M57 71C64.1797 71 70 65.4036 70 58.5C70 51.5964 64.1797 46 57 46C49.8203 46 44 51.5964 44 58.5C44 65.4036 49.8203 71 57 71Z" fill="#327130"/>
<path d="M57.0891 70.4828C63.9245 70.4828 69.4658 65.1179 69.4658 58.5C69.4658 51.8821 63.9245 46.5173 57.0891 46.5173C50.2536 46.5173 44.7123 51.8821 44.7123 58.5C44.7123 65.1179 50.2536 70.4828 57.0891 70.4828Z" stroke="white" stroke-opacity="0.95" stroke-width="1.16845"/>
<path d="M53.7945 60.138C51.5324 60.138 49.6986 58.324 49.6986 56.0863C49.6986 53.8486 51.5324 52.0345 53.7945 52.0345C56.0566 52.0345 57.8904 53.8486 57.8904 56.0863C57.8904 58.324 56.0566 60.138 53.7945 60.138Z" fill="white"/>
<path d="M60.3836 60.6553C59.4985 60.6553 58.7809 59.9991 58.7809 59.1898C58.7809 58.3804 59.4985 57.7242 60.3836 57.7242C61.2688 57.7242 61.9864 58.3804 61.9864 59.1898C61.9864 59.9991 61.2688 60.6553 60.3836 60.6553Z" fill="#C8E1E5"/>
<path d="M34.7131 73.9543C35.7187 81.44 46.5298 82.1887 47.7868 73.9543" stroke="#327130" stroke-width="2.01259" stroke-linecap="round" stroke-linejoin="round"/>
<path d="M61.9877 106.614C61.9877 108.484 52.7534 110 41.3627 110C29.9719 110 20.7377 108.484 20.7377 106.614C20.7377 104.744 29.9719 103.228 41.3627 103.228C52.7534 103.228 61.9877 104.744 61.9877 106.614Z" fill="#48A145" fill-opacity="0.4"/>
<path d="M46.5991 26.6679L46.9732 26.7649L48.8358 22.8528L49.2181 22.1832L47.9576 22L46.5991 26.6679Z" fill="#B78438"/>
<path d="M35.3851 26.6679L35.011 26.7649L33.1483 22.8528L32.7662 22.1832L34.0265 22L35.3851 26.6679Z" fill="#B78438"/>
</svg>
