<?xml version="1.0" encoding="utf-8"?>
<!-- Generator: Adobe Illustrator 19.0.0, SVG Export Plug-In . SVG Version: 6.00 Build 0)  -->
<svg version="1.1" id="Layer_1" xmlns="http://www.w3.org/2000/svg" xmlns:xlink="http://www.w3.org/1999/xlink" x="0px" y="0px"
	 viewBox="0 0 50 50" enable-background="new 0 0 50 50" xml:space="preserve">
<g id="XMLID_976_">
	<polygon id="XMLID_537_" fill="#08A8D3" points="38.6,13.3 38.6,9.3 34.7,9.3 34.7,5.4 30.9,5.4 30.8,5.4 26.9,5.4 26.9,9.3 
		23.1,9.3 23.1,5.4 19.2,5.4 19.1,5.4 15.3,5.4 15.3,9.3 11.4,9.3 11.4,13.3 7.5,13.3 7.5,17.3 7.5,21.2 7.5,25.2 7.5,29.2 
		7.5,40.7 7.5,44.6 11.5,44.6 11.5,40.7 15.3,40.7 15.3,44.6 19.2,44.6 19.2,40.7 23,40.7 23,44.6 27,44.6 27,40.7 30.8,40.7 
		30.8,44.6 34.7,44.6 34.7,40.7 38.5,40.7 38.5,44.6 42.5,44.6 42.5,40.7 42.5,29.2 42.5,25.2 42.5,21.2 42.5,17.3 42.5,13.3 	"/>
	<polygon id="XMLID_955_" fill="#FFFF00" points="34.7,17 34.7,17 34.6,17 31,17 31,21.2 31,21.2 31,25 34.6,25 34.6,25 34.7,25 
		38,25 38,21.2 38,21.2 38,17 	"/>
	<polygon id="XMLID_959_" fill="#FFFF00" points="15.4,17 15.4,17 15.3,17 11,17 11,21.2 11,21.2 11,25 15.3,25 15.3,25 15.4,25 
		19,25 19,21.2 19,21.2 19,17 	"/>
	<g id="XMLID_534_">
		<rect id="XMLID_533_" x="20.9" y="31.2" fill="#FFFF00" width="1.9" height="1.9"/>
		<rect id="XMLID_536_" x="22.8" y="31.2" fill="#FFFF00" width="1.9" height="1.9"/>
		<rect id="XMLID_962_" x="24.7" y="31.2" fill="#FFFF00" width="1.9" height="1.9"/>
		<rect id="XMLID_970_" x="26.6" y="31.2" fill="#FFFF00" width="1.9" height="1.9"/>
	</g>
	<rect id="XMLID_971_" x="32.7" y="21.3" width="4" height="4"/>
	<rect id="XMLID_974_" x="13.3" y="21.3" width="4" height="4"/>
	<rect id="XMLID_973_" x="3.8" y="24.9" fill="#08A8D3" width="3.8" height="3.8"/>
	<rect id="XMLID_977_" y="28.7" fill="#08A8D3" width="3.8" height="3.8"/>
	<rect id="XMLID_988_" y="24.9" fill="#08A8D3" width="3.8" height="3.8"/>
	<rect id="XMLID_980_" x="42.5" y="24.9" fill="#08A8D3" width="3.8" height="3.8"/>
	<rect id="XMLID_979_" x="46.2" y="28.7" fill="#08A8D3" width="3.8" height="3.8"/>
	<rect id="XMLID_989_" x="46.2" y="24.9" fill="#08A8D3" width="3.8" height="3.8"/>
</g>
</svg>
