<svg xmlns="http://www.w3.org/2000/svg" xmlns:xlink="http://www.w3.org/1999/xlink" width="69.6" height="115"><style><![CDATA[.Z{stroke-miterlimit:10}.a{stroke-linecap:round}.b{stroke-linejoin:round}.c{stroke:#371f0f}.d{fill:none}.e{stroke-width:1.681}.f{fill:#e2a355}.g{fill:#371f0f}.h{fill:#b02024}.i{fill:#e6e7e8}]]></style><path d="M37.1 103.8c.1-.8.3-1.6.5-2.4l.7-3.2 2.6-9.5h.2c1.5 1.6 3.9 2.6 6.6 2.5 3.1-.1 5.7-1.7 7-3.8h.2c-.4 3.7-.9 7.4-1.8 11-.7 3.1-1.4 6.4-3.1 9.1l-.6.9c-.3.4-.6.9-.9 1.4-.3.4-.7.9-1.1 1.3-.7.8-1.6 1.4-2.5 1.9-1.2.5-2.8.7-4 .3-1-.3-1.9-.8-2.6-1.6-.5-.7-.9-1.5-1.1-2.4-.4-1.9-.4-3.7-.1-5.5z" class="f"/><path d="M37.6 102.1l.7-2.8c1.2-4.2 1.7-6.7 2-8.6v-.3l.8-4.9c1.5 1.2 14.1-2.3 14.1-2.3l-.3 3.3c-.1.9-.8 8.9-1.9 13l-.7 3.3c-2.8 1.9-7.9 2.6-15.1.7.2-.5.3-1 .4-1.4z" class="h"/><path d="M55.2 83.9L54 93.3c-.5 3.3-1.1 6.5-2.2 9.6-1.5 4.5-4.5 11.7-10.6 9.9-.9-.3-1.8-.8-2.4-1.6-.5-.7-.9-1.5-1.1-2.4-.4-1.8-.4-3.6-.1-5.4.1-.8.3-1.7.5-2.5.2-1.1.4-2.2.7-3.2 1.2-4.9 2-9.9 2.4-12.1" class="Z a b c d e"/><path d="M62.6 57.3c-3.5-5-9.6-10.8-9.6-10.8-.9.8-3.9 3.5-6.9 4.6l.3.4c.4.4.8.9 1.3 1.4 2.6 2.9 9.2 11.1 9.7 19.1.7 1.6 1.1 2.9 1.3 3.4.2.7.5 1.4.9 2.1 0 .1.1.1.1.2.7 1.4 1.8 2.3 3 2.6.8.3 1.7.3 2.6 0 .4-.1.8-.3 1.2-.5 1-.6 1.8-1.7 2.1-3.1 1.5-6.4-2-13.6-6-19.4z" class="f"/><path d="M53.6 47.1c-.2-.2-.4-.1-.4-.1h0l-.2-.4-1.6-1-2.5 1.9-3.6 2.8.5.6 3.6 3.9 4.9 7.5s2.4-.3 4.3-1.2c.1 0 .1-.1.2-.1.3-.1.6-.3.8-.5.3-.2.5-.4.8-.6.8-.6 1.6-1.2 2.1-2.4 0-.1.1-.1.1-.2-3.4-4.9-7.4-8.6-9-10.2z" class="i"/><path d="M46.7 51.6c4.8 4.9 8.8 11.3 10.4 18 .6 2.6.7 5.3 1.7 7.7 1.2 3 4.4 4.6 7.2 2.6 2.5-1.8 2.7-5.6 2.4-8.3-.3-2.4-1.1-4.6-2.1-6.8-2-4.6-4.8-8.8-8.1-12.6-2-2.2-4.2-4.3-6.6-6.1" stroke-width="1.56" class="Z a b c d"/><path d="M58.6 74.6c0-.3.1-.6.1-.9l.2-3.7c0-1.2-.1-2.3-.2-3.5 0-.3-.1-.7-.1-1l-.4-2.5c-.1-.3-.1-.6-.2-.9-.2-1.1-.5-2.2-.8-3.2v-.1l-1-2.9c-.1-.3-.2-.6-.4-.8l-1-2.1c-.1-.2-.2-.5-.4-.7l-1.6-2.6c0-.1-.1-.1-.1-.2-.5-.8-1.1-1.5-1.6-2.2-.2-.2-.4-.4-.5-.6-.5-.6-1-1.1-1.5-1.6-.1-.1-.2-.2-.3-.4h0c-.1-.1-.2-.1-.3-.2-.2-.2-.4-.3-.6-.5s-.4-.3-.6-.5h0c-2.7-2.2-5.7-3.7-9-4.4-1.4-.3-2.8-.5-4.3-.5-4.9 0-9.4 1.8-13.3 4.9h0l-.3.3c-.6.5-1.2 1.1-1.8 1.7l-1 1c-.2.2-.4.5-.6.8-.5.6-1.1 1.3-1.6 2-.1.2-.3.4-.4.6-.3.4-.5.8-.8 1.2-.1.2-.3.4-.4.6-.5.9-1 1.9-1.5 2.9-.1.2-.2.4-.2.6a27.73 27.73 0 0 0-1 2.6l-.3.9c-.1.2-.2.5-.2.7h0c-.2.9-.5 1.7-.7 2.6v.2c-.2 1.1-.4 2.2-.5 3.3 0 .3-.1.6-.1.9-.1 1.2-.2 2.4-.2 3.7h0c0 1.2.1 2.3.2 3.5 0 .3.1.7.1 1 .1.8.2 1.7.4 2.5.1.3.1.6.2.9.2 1.1.5 2.2.8 3.2v.1c.3 1 .6 1.9 1 2.9.1.3.2.6.4.8.3.7.6 1.4 1 2.1.1.2.2.5.4.7.5.9 1 1.8 1.6 2.6 0 .1.1.1.1.2.5.8 1.1 1.5 1.6 2.2.2.2.4.4.5.6.5.6 1 1.1 1.5 1.6a1.38 1.38 0 0 1 .3.4h0c.1.1.2.1.3.2.2.2.4.3.6.5s.4.3.5.5h0c2.7 2.2 5.7 3.7 9 4.4 1.4.3 2.8.5 4.3.5 4.9 0 9.4-1.8 13.3-4.9h0l.3-.3c.6-.5 1.2-1.1 1.8-1.7l1-1c.2-.2.4-.5.6-.8.5-.6 1.1-1.3 1.5-2 .1-.2.3-.4.4-.6.3-.4.5-.8.8-1.2.1-.2.3-.4.4-.6.5-.9 1-1.9 1.5-2.9.1-.2.2-.4.2-.6a27.73 27.73 0 0 0 1-2.6l.3-.9c.1-.2.2-.5.2-.7h0c.2-.9.5-1.7.7-2.6v-.2c.4-1 .6-2.2.7-3.3z" class="i"/><path d="M9.3 73.5c1.2 14 9.6 25.2 20.4 27.6 1.4.3 2.8.5 4.3.5 6.3 0 12-3 16.4-7.8h0c.9-1 1.8-2.1 2.6-3.3 1.9-2.8 3.4-6 4.4-9.5h0c.6-2.3 1.1-4.6 1.3-7.1-23.8 9-44.3 1.7-49.4-.4z" class="h"/><path d="M58.7 66.6c0-.3-.1-.7-.1-1l-.4-2.5c-.1-.3-.1-.6-.2-.9-.2-1.1-.5-2.2-.8-3.2v-.1l-1-2.9c-.1-.3-.2-.6-.4-.8l-1-2.1c-.1-.2-.2-.5-.4-.7l-1.6-2.6c0-.1-.1-.1-.1-.2-.5-.8-1.1-1.5-1.6-2.2-.2-.2-.4-.4-.5-.6-.5-.6-1-1.1-1.5-1.6-.1-.1-.2-.2-.3-.4-.1-.1-.2-.1-.3-.2-.2-.2-.4-.3-.6-.5s-.4-.3-.6-.5c-2.7-2.2-5.7-3.7-9-4.4-1.4-.3-2.8-.5-4.3-.5-4.9 0-9.4 1.8-13.3 4.9l-.3.3c-.6.5-1.2 1.1-1.8 1.7l-1 1c-.2.2-.4.5-.6.8-.5.6-1.1 1.3-1.6 2-.1.2-.3.4-.4.6-.3.4-.5.8-.8 1.2-.1.2-.3.4-.4.6-.5.9-1 1.9-1.5 2.9-.1.2-.2.4-.2.6a27.73 27.73 0 0 0-1 2.6l-.3.9c-.1.2-.2.5-.2.7-.2.9-.5 1.7-.7 2.6v.2c-.2 1.1-.4 2.2-.5 3.3 0 .3-.1.6-.1.9-.1 1.2-.2 2.4-.2 3.7 0 2.2.2 4.5.6 6.7v.3c.1.3.1.6.2.9 0 .1 0 .2.1.3.2.7.3 1.4.5 2.1.1.3.1.5.2.8v.1c.1.3.2.5.3.8l.6 1.8c0 .1.1.2.1.3.1.3.2.6.4.8v.1c.3.6.6 1.2.9 1.9 0 .1.1.1.1.2s.1.1.1.2c.1.2.2.3.3.6 0 .1.1.1.1.2l1.2 2.1c.1.1.1.3.2.4 0 .1.1.1.1.2.1.1.2.2.2.3.4.6.8 1.1 1.3 1.7 0 .1.1.1.1.2l.1.1c.7.8 1.4 1.5 2.1 2.2l.2.2c.1.1.2.1.3.2.2.2.4.3.6.5a1.38 1.38 0 0 0 .4.3c.1 0 .1.1.2.1l2.1 1.5a12.81 12.81 0 0 0 2 1.1c.1.1.2.1.4.2.6.3 1.2.5 1.8.8.2.1.3.1.5.2.7.3 1.5.5 2.3.6.7.2 1.5.3 2.2.4s1.4.1 2 .1c.7 0 1.4 0 2.1-.1.2 0 .5-.1.7-.1.5-.1.9-.1 1.4-.2.3-.1.5-.1.8-.2l1.2-.3.9-.3c.5-.2 1-.4 1.4-.6.5-.2.9-.5 1.4-.7l.6-.3c.4-.2.8-.5 1.2-.7.2-.1.3-.2.5-.3l1.2-.9.3-.3c.6-.5 1.2-1.1 1.8-1.7l1-1c.2-.2.4-.5.6-.8.5-.6 1.1-1.3 1.5-2 .1-.2.3-.4.4-.6.3-.4.5-.8.8-1.2.1-.1.1-.2.2-.3.6-1 1.2-2.1 1.7-3.2.1-.2.2-.4.2-.6a27.73 27.73 0 0 0 1-2.6c.1-.2.1-.4.2-.6.1-.3.2-.7.3-1 .2-.9.5-1.7.7-2.6V78c.1-.5.2-1 .2-1.5.1-.5.2-1 .2-1.5 0-.3.1-.6.1-.9.1-1.2.2-2.4.2-3.7.2-1.5.1-2.7 0-3.8z" stroke-width="1.659" class="Z c d"/><path d="M48.5 48.9s1.1 1.3 2.2 3.3c1.2 2 2.4 4.9 3.1 8 .2.8.3 1.5.4 2.3l.2 2.2c.1.7 0 1.4 0 2.1s-.1 1.3-.1 1.9c-.1 1.2-.3 2.1-.4 2.7-.1.7-.2 1-.2 1s0-.4.1-1c.1-.7.2-1.6.2-2.7v-1.8c-.1-.6-.1-1.3-.2-2l-.4-2.1c-.2-.7-.3-1.4-.6-2.2-.9-2.9-2.3-5.5-3.6-7.3s-2.3-2.8-2.3-2.8l1.6-1.6z" fill="#fff"/><path d="M30.6 103.6c-.1-.8-.3-1.6-.5-2.4l-.7-3.2-2.6-9.5h-.2c-1.5 1.6-3.9 2.6-6.6 2.5-3.1-.1-5.7-1.6-7-3.8h-.2c.4 3.7 1 7.4 1.8 11 .7 3.1 1.4 6.4 3.1 9.1l.6.9c.3.4.6.9.9 1.4.3.4.7.9 1.1 1.3.7.8 1.6 1.4 2.5 1.9 1.2.5 2.8.6 4 .3 1-.3 1.9-.8 2.6-1.6.5-.7.9-1.5 1.1-2.4.5-1.9.4-3.8.1-5.5z" class="f"/><path d="M30.1 101.8l-.7-2.8c-1.2-4.2-1.7-6.7-2-8.6v-.3l-.8-4.9C25.1 86.5 12.5 83 12.5 83l.3 3.3c.1.9.8 8.9 1.9 13l.7 3.3c2.8 1.9 7.9 2.6 15.1.7a11.31 11.31 0 0 1-.4-1.5z" class="h"/><path d="M12.5 83.7l1.2 9.4c.5 3.3 1.1 6.5 2.2 9.6 1.5 4.5 4.6 11.7 10.6 9.9.9-.3 1.8-.8 2.4-1.6.5-.7.9-1.5 1.1-2.4.4-1.8.3-3.6.1-5.4-.1-.8-.3-1.7-.5-2.5-.2-1.1-.4-2.2-.7-3.2-1.2-4.9-2.1-9.9-2.4-12.1" class="Z a b c d e"/><path d="M17.9 45.7s-6.6 5.7-10.4 10.7c-4.3 5.8-7.9 12.9-6 19.3.5 1.4 1.5 2.4 2.6 3.1.4.2.9.4 1.3.5.9.2 1.9.3 2.9 0 1.3-.4 2.5-1.2 3.3-2.6 0 0 .1-.1.1-.2.4-.7.7-1.4.9-2.1.8-2.5.9-5 2.4-8.8-.4-.3-.3-1.1 1.2-2.7 0 0 4.5-8.4 9.4-12.3l.3-.3c-3.4-1.1-7-3.8-8-4.6z" class="f"/><path d="M25.5 50.1L23.1 49l-1.7-.9c-.2-.1-.4-.2-.6-.4-.1-.1-.2-.2-.4-.2l-.9-.6-1.2-.9-.2-.1H18s0 .7-.1.6v.5h-.1c-.1 0-.2-.5-.5-.3-1.7 1.5-6 5.1-9.8 10.1 0 .1.1 0 .1 0 .6 1.2 1.5 1.7 2.4 2.4.3.2.6.4.9.5h0c2.6 1.6 5.1 2.2 6 1.3.8-1 1.6-2.6 2.7-3.6 1.8-2.2 2.6-3.4 6.5-7.1-.2-.1-.6-.2-.6-.2z" class="i"/><path d="M17.9 45.7s-6.6 5.7-10.4 10.7c-4.3 5.8-7.9 12.9-6 19.3.4 1.4 1.4 2.5 2.5 3.1.5.2 1 .4 1.4.5.9.2 1.9.3 2.9 0 4.4-1.2 4.4-6.4 5.3-9.9 1-4.3 3-8.3 5.6-11.8 1.2-1.7 2.8-3.3 4.3-4.8" class="Z a b c d e"/><g class="f"><path d="M20.1 12.9l-.2-2.5v-.5l.1-1"/><path d="M48.6 11c.1-.1.1-.2.2-.4.5-.8.8-1.8.8-3 0-2.8-1.7-5.1-3.8-5.1S42 4.8 42 7.6c0 1 .2.9.6 1.7-1.2-.4-3-.3-4.7-.6-3.3-.6-6.9-.3-10.1.3-.5.1-6.6 1.8-6.5 2.3-.1-.3-.2-.7-.3-.8-1.3-2.6-4.1-3.8-6.3-2.7s-3 4.1-1.8 6.7c.2.4.5.8.8 1.2s.6.7 1 .9c.1 0 .1.1.2.1 0 0 .1 0 .1.1 0 0 0 .1.1.1-2.6 2.4-10.8 11.9 3 28.8.1.1.2.1.3.2 4 1.4 10.4 3 18.2 2.4C41.2 48 45.1 47 48 46l1.1-.2c.2 0 .4-.1.6-.2s.4-.2.5-.3c.2-.1.4-.3.6-.4.1 0 .1-.1.1-.1.5-.3 1.2-1.3 1.2-1.3s.9-1.3 1.2-1.9l.2-.4c.8-1.3 1.3-2.6 1.8-3.9 1-2.6 1.6-5.5 1.6-8.5.1-7.2-3.2-13.7-8.3-17.8z"/></g><path d="M42 9.4l.2.1 1.4.5c.1-4.9 5.2-6.6 5.2-6.6-6.6-3.6-6.8 5.3-6.8 6z" fill="#bd782a"/><path d="M49.6 45.8c1.1-.4 2-1.3 2.7-2.3 1.4-1.9 2.5-4 3.2-6.2 1-2.6 1.6-5.5 1.6-8.5 0-7.3-3.6-13.1-8.6-17.2m-27.1-.3C23.6 10.1 28.5 8 35 8.1c6.5.2 11.3 2.5 13.5 3.8" class="Z a b c d e"/><path d="M22.4 46.4c-11.8-13.5-5.1-29.6-5.1-29.6s-2.9-3.3-2.2-6.3c.6-2.8 3.6-2.5 3.6-2.5-.1-.1-.4-.2-.5-.2-1.1-.5-2.4-.5-3.5.1-2.2 1.1-3 4.1-1.8 6.7.2.4.5.8.8 1.2.3.3.6.7 1 .9.1.1.2.1.2.2 0 0 .1 0 .1.1 0 0 .1 0 0 .1h-.1l-.1.1c-.1.1-.2.1-.2.2-.2.2-.3.4-.5.5-.2.2-.4.4-.6.7s-.4.5-.6.8l-.6.9c-.2.3-.4.7-.6 1-.2.4-.4.7-.5 1.1-.2.4-.3.8-.4 1.2s-.2.9-.3 1.4c0 .2-.1.5-.1.7s-.1.5-.1.7a25 25 0 0 0 .9 7.7c1.1 3.4 3.1 7.2 6.6 11.5h0l.3.3h.4l.3.1c1 .2 2.1.3 3.1.4h.5z" fill="#bd782a"/><path d="M36.8 22.5c.4 2.7-1 5.2-3 5.5s-4-1.7-4.3-4.5c-.4-2.7 1-5.2 3-5.5 2-.2 3.9 1.8 4.3 4.5z" fill="#c57a2a"/><path d="M37.1 22.4c.4 2.7-1 5.2-3 5.5s-4-1.7-4.3-4.5c-.4-2.7 1-5.2 3-5.5 2-.2 3.9 1.8 4.3 4.5z" class="g"/><use xlink:href="#B" fill="#c57a2a"/><use xlink:href="#B" x="0.3" class="g"/><path d="M36.4 21.9c.3 1.8-.2 3.3-1 3.5-.9.2-1.8-1.2-2.1-2.9-.3-1.8.2-3.3 1-3.5.8-.1 1.8 1.2 2.1 2.9zm15.8-4.2c.3 1.6-.1 3-.9 3.1s-1.6-1-1.9-2.6.1-3 .9-3.1c.7-.2 1.6 1 1.9 2.6z" fill="#fff"/><path d="M47 3.1s5.3 1.2 1 7.9c-.1.1 1.7-5.1-1-7.9z" fill="#efbc72"/><g opacity=".75"><path d="M29.8 15.7h-.3L25 27.6c.9 1.1 2.1 2 3.5 2.4L34 15.3l-4.2.4z" fill="#fff"/><path d="M37.9 15l-1.5.1-2.4.2-5.5 14.8c.7.2 1.4.3 2.1.4h1c.2 0 .4 0 .5-.1 2.7-.5 4.7-2.6 5.2-5.3l.3-1.8c.1-1.6.8-2.4 2.1-2.5s2.1.5 2.5 2.1l.1.4c.2.8.6 1.6 1 2.2L47.6 14l-9.7 1zm-14.5 8.4v.2c.1 1.5.7 2.9 1.6 4.1l4.4-11.9c-3.6.5-6.3 3.8-6 7.6zm32.9-2.6c-.1-1.5-.7-2.9-1.6-4.1-.3-.4-.7-.7-1.1-1.1-.5-.4-1.1-.8-1.8-1.1l-5.2 13.9c.6.2 1.3.4 2 .4h.8c.2 0 .4 0 .7-.1 3.9-.6 6.6-4 6.2-7.9z" fill="#69dcff"/><path d="M48.3 14l-.7.1-4.3 11.5c.8 1.3 1.9 2.3 3.3 2.9l5.2-13.9c-1-.5-2.2-.7-3.5-.6z" fill="#fff"/></g><path d="M58.3 17.4l-1.1.1c-.5-1-1.1-1.9-1.9-2.6-.2-.2-.4-.3-.5-.5-.2-.2-.4-.3-.6-.4-.6-.4-1.2-.8-1.8-1-1.3-.5-2.7-.8-4.2-.7H48l-10 .9-.9.1-2.9.3-4 .4h-.5c-2.3.2-4.4 1.3-5.9 3.1-.8.9-1.3 2-1.7 3.2l-1.3.1c-.6.1-1.1.6-1 1.2l.4 4.2c.1.6.6 1.1 1.2 1l1.2-.1c.5 1 1.1 2 1.9 2.8l.5.5c.9.8 2 1.4 3.1 1.8s2.3.5 3.5.4h.3c3.7-.3 6.7-3.2 7.3-6.8l.3-1.8v-.2c0-.5.1-.7.2-.8 0-.1.1-.1.3-.1h.3s.2.2.3.8h0l.1.4a10.8 10.8 0 0 0 1.9 3.7c.3.4.7.8 1.1 1.2.7.6 1.5 1.1 2.3 1.4.6.2 1.3.4 2 .5.5.1.9.1 1.4.1h.1c2.4-.2 4.7-1.4 6.2-3.3.9-1 1.5-2.2 1.8-3.4l1.1-.1c.6-.1 1.1-.6 1-1.2l-.4-4.2c.3-.6-.2-1-.9-1zm-8.1 11.4c-.2 0-.4.1-.7.1h-.8c-.7 0-1.4-.2-2-.4-1.4-.6-2.5-1.6-3.3-2.9-.4-.7-.7-1.4-1-2.2l-.1-.4c-.4-1.6-1.2-2.2-2.5-2.1s-2 1-2.1 2.5l-.3 1.6c-.5 2.7-2.5 4.8-5.2 5.3-.2 0-.4.1-.5.1h-1c-.7 0-1.5-.1-2.1-.4-1.4-.5-2.6-1.3-3.5-2.4s-1.5-2.5-1.6-4.1v-.2c-.3-3.8 2.4-7.1 6.1-7.6h.3l4.2-.4 2.3-.2 1.5-.1 9.8-.9.6-.1c1.3-.1 2.5.1 3.5.6.6.3 1.3.6 1.8 1.1.4.3.7.7 1.1 1.1.9 1.1 1.5 2.5 1.6 4.1.4 3.8-2.3 7.2-6.1 7.9z" fill="#020b3f"/><path d="M60.6 25.8c-1.8-3.5-6.5-4.9-11.6-4v-.1s-.2 0-.5.1c-1.4.3-2.8.8-4.3 1.4-5 2-12.1 5.9-11.2 12.1 0 1 .3 4.4 3.9 6.6.3.2.5.3.8.5s.7.4 1.1.5c.1 0 .2.1.3.1.2.1.3.1.5.2s.5.1.7.2.4.1.6.2c.2 0 .4.1.7.1.3.1.5.1.8.2h.3c7.1.6 12.3-4 13.8-5.5 4.2-3.9 6-8.9 4.1-12.6z" fill="#f3cca5"/><path d="M44.1 23.9s.4.9 0 1.8c-.4.8 2.7 0 2.7 0l4.5-.9s.3-.1.6-.4.9-1 1.5-1.2 1.7-.3 1.7-.3.2-.2-.1-.3-4-.1-10.7 1.1c.1 0-.2.1-.2.2z" fill="#f6e1cb"/><path d="M56.5 21.4c-.2-.1-.5-.1-.7-.1-.7-.1-1.5-.1-2.3-.1a24.33 24.33 0 0 0-3.8.3c-1 .1-2.1.3-3.1.5s-2 .4-3 .8l-1.2.6c-.9.4-1.7 1-2.6 1.5-.8.5-1.6 1.1-2.3 1.7l.2.4c.3-.2.7-.4 1-.7 1.5-.9 3-1.6 4.6-2.3 1.7-.7 3.5-.9 5.4-1.2l4.7-.4c1.1 0 2.4 0 3.5.5 0 0 .1 0 .1.1 1.8 1 5.9 4.4 2.2 10.9-.9 1.6-2.3 3.5-4.4 5.5-.5.5-1 1-1.6 1.5-2.5 1.9-6.8 3.9-12.9 2.3-1-.3-1.9-.8-2.9-1.4-5.9-3.8-3.9-10-3.9-10l-1.3.3c-.1.6-.1 1.6-.1 2.3v.1c.3 1.9 1.2 4 2.2 5.3 2.1 3.1 6 6.1 13.4 4.8 2.9-.7 11.8-3.8 14.5-14.6.1.1 1.5-7-5.7-8.6z" class="g"/><path d="M39.1 25.3v-.1l-2.2 1.3a6.4 6.4 0 0 1-4.8 3.9c-.2 0-.4.1-.5.1h-1.1l-.2 1.7c.3 0 .7.1 1 0h.3c3.9-.4 6.9-3.2 7.5-6.9z" fill="#020b3f"/><g class="d Z a b"><g class="c"><path d="M41.2 8.6s.3-7.2 5.9-5.9c5.8 1.3 1.6 8.4 1.6 8.4" stroke-width="1.726"/><path d="M15.2 16.9c-2.1-1.4-3.3-3.9-2.5-6.3.4-1.2 1.1-2.3 2.4-2.9 1.1-.5 2.4-.5 3.5.1 1.3.7 2.2 2.1 2.8 3.5m-6.3 5.6c-3.9 3.6-5 9-4.3 14.1.8 5.5 3.8 10.3 7.2 14.5.1.1.2.3.3.4" class="e"/></g><path d="M20.6 23.4l-9 3.1" stroke="#020b3f" stroke-width="2.241"/><g class="c"><path d="M18.3,45.9c3.5,1.2,8.8,2.7,15.5,2.7c6.8,0,12.3-1.5,15.8-2.8" class="e"/><path d="M37.7 35.7c1.9 1.6 4.6 2 7 1.7 3.5-.6 6.4-2.9 8.8-5.4.7-.7 1.3-1.5 1.9-2.3 0 0 1.2 3.4 4.6 3.7" stroke-width=".996"/></g></g><path d="M58.3 26.6s-.9 2.6-2.3 3c-.1 0-.3.1-.5.1-1.4 0-2.9-1.4-2.9-1.4s-3.3-3-.9-4.4c.7-.4 1.4-.6 2.1-.7a9.65 9.65 0 0 1 3.2 0c2.3.6 1.3 3.4 1.3 3.4z" fill="#683113"/><path d="M55.6 29.6c-1.4 0-2.9-1.4-2.9-1.4s-3.3-3-.9-4.4c.7-.4 1.4-.6 2.1-.7 0 0-1.6 1.4-.8 3.2s2.1 3.2 2.5 3.3z" class="g"/><path d="M57.7 23.7c-.9-.6-2.3-.7-3-.4s1.5.5 2 1 .7 1.3.9 1.7c0 0 .1.4.2.4s.2-.3.2-.4h0c.1 0 .6-1.6-.3-2.3z" fill="#995728"/><defs ><path id="B" d="M51.8 22.3c-1.5 0-3.1.1-4.7.4-.7-.8-1.3-1.9-1.4-3.2-.3-2.6.9-5 2.8-5.2 1.9-.3 3.7 1.7 4.1 4.3.1 1.3-.2 2.7-.8 3.7z"/></defs></svg>