<svg xmlns="http://www.w3.org/2000/svg" viewBox="0 0 76 120"><g fill="#ffc19f"><path d="M56.4 90a119.72 119.72 0 0 1 3.3 10.1c1.2 4 2.2 7.8 3 11.4-2 .7-3.9 1.5-5.9 2.2-4-7.4-8.7-16.6-7.4-21.5l7-2.2z"/><path d="M53.2 78.4L41.9 82c.8 1.6 2 5.4 3.6 7.1 1.3 1.4 2.6 2.5 3.8 3.3l7-2.4c.1 0-1.5-6.3-3.1-11.6z"/></g><path d="M64.2 112.8c-.2-.3-1-2.3-1.3-2.6-.2-.2-6.8 2.8-6.6 3.2l2.9 6.6s11.2-2.6 12.2-5c-1-2.6-3.2-2.5-7.2-2.2z" fill="#09598c"/><path d="M58.9 119.3c.1.2.2.5.3.7 0 0 11.3-2.5 12.3-4.8 0-.1 0-.2-.1-.3-2.6 1.9-9.7 3.8-12.5 4.4z" fill="#b3b3b3"/><path d="M62.8 110.1c-.2-.2-6.8 2.8-6.6 3.2.1.3.5 1.1.9 2l6.5-3.6c-.3-.7-.6-1.4-.8-1.6z" opacity=".22" fill="#1c000b"/><path d="M63.1 109.8c-.2-.2-7.5 3-7.3 3.4.1.3.4.8.7 1.5l7.5-3.2c-.3-.6-.7-1.5-.9-1.7z" fill="#e6e6e6"/><path d="M65.2 112.7c.1 0 .1-.1.1-.2s-.1-.1-.2-.1c-.7.2-1.3.8-1.5 1.6 0 .1 0 .2.1.2h.1l.1-.1c.3-.8.8-1.3 1.3-1.4zm1.1 0c.1 0 .1-.1.1-.2s-.1-.1-.2-.1c-.7.2-1.3.8-1.5 1.5 0 .1 0 .2.1.2h.1l.1-.1c.3-.9.9-1.2 1.3-1.3zm.9-.3c-.7.2-1.3.8-1.6 1.6 0 .1 0 .2.1.2h.1l.1-.1a2.42 2.42 0 0 1 1.4-1.4c.1 0 .1-.1.1-.2s-.1-.2-.2-.1z" fill="#e9edf4"/><path d="M42.8 66.4L41 67l-3.2.8-3.8.8c.1.6 2.1 4.6 5.8 10.4h0l4 11.1s.9-.1 2.2-.4l2.3-.4c3.4-.8 7.8-1.7 10-3l-3.1-9.5-4.5-13-7.9 2.6z" fill="#383842"/><path d="M32.7 92.6c-1.8 2.8-3.8 5.7-6 8.7-2.5 3.3-4.9 6.4-7.3 9.2l-5.3-3.3c3.5-7.6 8-16.9 12.7-18.8l5.9 4.2z" fill="#ffc19f"/><path d="M19.3 112.5c.1-.3 1.2-2.2 1.3-2.6 0-.3-6.3-3.8-6.5-3.3-.6.9-2.9 5.4-3.5 6.4 0 0 8.8 7.3 11.3 6.8 1.4-2.6 0-4.2-2.6-7.3z" fill="#09598c"/><path d="M10.9 112.3c-.1.2-.3.4-.4.6 0 0 8.8 7.5 11.3 6.9.1 0 .1-.1.2-.3-3.2-.9-8.9-5.4-11.1-7.2z" fill="#b3b3b3"/><path d="M20.6 109.9c0-.3-6.3-3.8-6.5-3.3-.2.3-.6 1-1 1.9l6.8 3.1c.2-.8.6-1.5.7-1.7z" opacity=".22" fill="#1c000b"/><path d="M21 109.9c0-.3-6.9-4.2-7-3.8l-.8 1.5 7.1 4c.2-.6.6-1.5.7-1.7z" fill="#e6e6e6"/><path d="M20 113.3c.1.1.2.1.2 0 .1-.1.1-.2 0-.2-.6-.5-1.4-.6-2.1-.2-.1 0-.1.1-.1.2 0 0 0 .1.1.1h.2c.5-.4 1.2-.3 1.7.1zm.6.8c.1.1.2 0 .2 0 .1-.1 0-.2 0-.2-.6-.4-1.4-.5-2.1-.3-.1 0-.1.1-.1.2 0 0 0 .1.1.1h.1c.8-.3 1.5 0 1.8.2zm.8.6c-.5-.4-1.4-.6-2.2-.3-.1 0-.1.1-.1.2 0 0 0 .1.1.1h.1c.7-.2 1.5-.1 1.9.3.1.1.2 0 .2 0 .1-.1.1-.2 0-.3z" fill="#e9edf4"/><path d="M27.8 80.2c-.3 1-.6 2.1-.8 3.3a32.21 32.21 0 0 0-.4 5l6.2 4.1 5-6.3-10-6.1z" fill="#ffc19f"/><path d="M35.7 65.3s0-.1 0 0l-1.9-.4-3.2-.9-1.7-1.5c-.3.6-2.7 5.3-2.4 12.2h0l-2.7 11.4 4.2 1.6c3.2 1.1 7.6 2.3 10.1 2.4l2.5-9.7L43.8 67l-8.1-1.7z" fill="#454551"/><g fill="#ffc19f"><path d="M53.5 42.2c2.5 4.6 5 10.9 5.4 13.5.7 4.8-6.3 5.3-7.2 1.4-.7-3-1.4-7.9-2.2-12.4-.1-.9 3.6-3.2 4-2.5z"/><path d="M68.7 50.6c-4 3.5-9.4 7.7-11.8 8.7-4.5 1.8-6.6-4.9-2.9-6.7 2.8-1.4 8.3-3.3 12.6-5.1.7-.3 2.7 2.6 2.1 3.1z"/></g><g fill="#f7931e"><path d="M49.5 51.4c-.6-4.4 1-16.1 1.1-16.4 2.1.4 3.1.6 3.6 1.4 1.2 1.8 2.2 5.3 4.2 13-.6.7-8.5 3-8.9 2z"/><path d="M25.1 67.5c7.8 5.4 19.7 5.1 29.8 1.1-1.7-5.4-4.8-20.8-1.6-32.7-6.7-2.4-12.1-3.8-20.5-2.1-5.6 8.9-6.9 20.5-7.7 33.7z"/></g><path d="M46.4 34.7c0-.4 0-.5-.1-.8-3.8-1.1-13.4-.2-13.4 0-.2 2.8 2.7 5.3 6.4 5.5 3.8.1 6.9-1.9 7.1-4.7z" fill="#ff6d00"/><path d="M45.2 26l-.5 8.2c-.1 1.8-2.4 3.1-5.2 2.9s-4.9-1.8-4.8-3.5l.5-8.2 10 .6zm7.7-4.6c0 1.8-1.4 3.3-2.6 3.4-1.3.1-1.8-1.2-2-3-.2-1.7.7-3.2 1.9-3.4 1.7 0 2.7 1.3 2.7 3z" fill="#f4b18c"/><path d="M50.1 6.8c.5-1.1.6-2.9-2-4.2.4 2.3-.8 2.1-2.2 1.6-2.1-.7-4.7-.9-7.4-.8-7.8.3-12.9 2.9-13.7 9.5.2 8.6 7.1 14.9 14.8 14.6 7.8-.3 13.2-4.3 13-13 0-3.5-1-6-2.5-7.7z" fill="#2b1407"/><path d="M28.9 12.3c-.7 1.7.4 14.7 2.1 16.6 1.8 2 8.9 4 11.2 3.9 1.6-.1 7-2.1 8.2-4.5 1.5-2.8 1-14.8.4-16.2-1.9-5-5.6-5.5-11.4-5.2-5.4.1-8.8 1.2-10.5 5.4z" fill="#ffc19f"/><path d="M41.7 24.9c.1 0 .1 0 .1-.1.1-.4.4-.7.8-.7.5 0 .8.3.9.7 0 .1.1.1.1.1.1 0 .1-.1.1-.1-.1-.6-.5-.9-1.1-.9s-1 .4-1.1.9c0 0 .1.1.2.1h0z" fill="#f4b18c"/><path d="M30.2 20.4c-.3 4.3-.7 3.6-2.1 3.7s-3.3-5.3-3.2-11.7c.4-1.3 4-3.3 4.6-3.6.4 2.5.8 9.6.7 11.6z" fill="#2b1407"/><path d="M45.4 19.7c-.7 1.3-.6 2.8.1 3.3 1.1.8 3.5.9 4.4-.3s.4-3.3-1.1-4.1c-1.3-.8-2.7-.2-3.4 1.1z" fill="#f9feff"/><path d="M50 19.2c-1.2-2-3.9-1.2-4.6.6.7-1.3 2.2-1.8 3.4-1.1.7.4 1.3 1.2 1.5 2.1.1.7 0 1.5-.3 2 .3-.3.9-2.1 0-3.6zm-3.3 1.4c-.3.9.1 1.9.9 2.3.8.3 1.7-.1 2-1s-.1-1.9-.9-2.3-1.7.1-2 1z"/><path d="M46.8 20.4c-.1.3 0 .5.3.6.2.1.5 0 .6-.3s0-.5-.3-.6c-.2-.1-.5.1-.6.3z" fill="#fefffe"/><path d="M39.1 19.9c.9 1.3.8 2.7.1 3.3-1.2.9-4 1.1-5.1 0-1-1.1-.6-3.3 1.1-4.2 1.4-.9 3-.4 3.9.9z" fill="#f9feff"/><path d="M33.9 19.6c1.3-2.1 4.4-1.4 5.3.3-.9-1.3-2.6-1.7-3.9-.9-.8.5-1.4 1.3-1.5 2.2-.1.7.1 1.5.5 2-.6-.3-1.4-2-.4-3.6z"/><circle cx="37.6" cy="21.5" r="1.8"/><circle cx="36.5" cy="20.9" r=".5" fill="#fefffe"/><path d="M49.8 16.9c-.1 0-.2-.1-.3-.2-.7-.8-2.2-1.1-3.4-.8-.3.1-.6-.1-.6-.4-.1-.3.1-.6.4-.6 1.6-.4 3.4 0 4.4 1.1.2.2.2.5 0 .7s-.3.2-.5.2zm-16 .2c-.1 0-.3 0-.4-.1-.2-.2-.2-.5 0-.7 1-1 2.8-1.5 4.4-1 .3.1.4.4.4.6-.1.3-.4.4-.6.4-1.2-.3-2.7 0-3.4.8-.2-.1-.3 0-.4 0zM48.3 2.6c.3 1.2-.3 2.3-1.3 3.2.7-1.5.7-3.4-1-5.8l-3.4 2.8c.1-.6.1-1.3-.1-2-1.8 2.5-3.8 2.4-10.1 4.1-4.4 1.1-5.2 4-4.6 5.7 3-.7 7.3.7 10.5.6 4-.1 7.1-.9 8.7-2.1 1.8-1.4 3.3-4.2 1.3-6.5z" fill="#2b1407"/><path d="M25.5 22c0 2.2 1.6 3.9 3.1 4.1 1.5.1 2.2-1.5 2.4-3.5s-.8-3.8-2.3-4c-2-.2-3.2 1.3-3.2 3.4z" fill="#ffc19f"/><path d="M46.1 27.4c.3 1.3-1.7 3.3-3.7 3.3-1.9 0-3.3-1.6-3.3-3 .1-.8 1.4-.6 3.3-.7s3.5-.4 3.7.4z"/><path d="M42.7 29.4c-.9 0-1.6.3-2 .7.5.3 1.2.6 1.9.6.8 0 1.6-.2 2.1-.8-.2-.4-1.2-.5-2-.5z" fill="#b71521"/><path d="M45.2 26.8c-.7-.2-1.7 0-2.6.1-1.1.1-1.9 0-2.5.1.3.6 1.2.9 2.4.8 1.4 0 2.5-.3 2.7-1z" fill="#fff"/><g fill="#ffc19f"><path d="M70.8 47.8c0-.1.7-.5.7-.5l1.8-2.2c.6-.8 1.5-1.4 1-1.8-.8-.6-2 .8-2.6 1.4s-1.8 1.5-1.9 1.5c-.1.1 1 1.6 1 1.6z"/><path d="M68.4 50.9s3.2-.3 3.6-1.4-.8-4.4-2.3-4.5-3.9 2.6-3.7 3.5c.2 1 .8 2.3 2.4 2.4z"/><path d="M68.5 49.9s2-2.1-.1-4.1c0 0 1.1-2.1-.2-2.7s-.9 1.1-1.1 2.1c-.2.9-1.4 2.6-1 3.8.4 1.1 1.9 1.1 2.4.9zm3.1-1c.1 0 1.8-2 2.2-2.4s1.7-1.7 1-2.1-1.6.9-2.4 1.7c-.6.6-2 1.5-2 1.5l1.2 1.3z"/><path d="M71.3 50.2c.2-.1.6-.3 1.4-.9.4-.3 2.3-1.7 2-2.4 0 0-.1-.1-.1-.2-.7-.5-1.7.8-2.5 1.5-.6.5-2.1 1.3-2.1 1.3l1.3.7zm-1.5-3.9l.6-.1 2.3-2.7c.5-.5.6-1.1-.1-1.2-.6-.1-1.4.9-2 1.5-.5.6-2.1 1.5-2.1 1.5l1.3 1zm-42.3-5.9c-1.1 5.2-3.2 11.8-4.6 14.1-2.6 4.2-8.3 0-6.4-3.7 1.4-2.9 4-7 6.4-11.1.4-.7 4.7-.1 4.6.7z"/></g><path d="M24.6 35.8c-1.3 1.4-3 6.4-5.2 10.4H28c1.2-5 2.5-8.6 4.8-12.2.1 0 .1-.2.2-.3-3.4.3-7.5 1.7-8.4 2.1z" fill="#f7931e"/><g fill="#ffc19f"><path d="M28.6 59.9l-6.3-8.7-3.5-1.6c-2.1.4-4 2.6-2.3 5 1.4 2 6 6 9.9 8.8.5.5 2.6-2.9 2.2-3.5z"/><path d="M26.3 63.4s1.5 2.9 2.6 2.8c1.2-.1 3.8-2.4 3.3-3.8-.4-1.4-3.9-2.7-4.6-2.2-.8.6-1.8 1.7-1.3 3.2z"/><path d="M27.3 63s2.7 1.1 3.8-1.6c0 0 2.4.2 2.5-1.2s-1.4-.4-2.3-.3-2.9-.4-3.9.5-.5 2.3-.1 2.6zm2 2.6c.1.1 2.6 1 3.1 1.2s2.2 1 2.3.2-1.5-1.2-2.5-1.6c-.7-.4-2-1.4-2-1.4l-.9 1.6z"/><path d="M28 65.8c.2.1.5.5 1.3 1 .4.3 2.5 1.5 3 1 0 0 .1-.1.1-.2.2-.8-1.3-1.3-2.3-1.8-.7-.4-1.9-1.5-1.9-1.5l-.2 1.5zm2.1-1.4c.1 0 .7.5.7.5l2.7.8c1 .3 1.8.9 2 .3.3-1-1.5-1.5-2.3-1.9s-2.1-1.1-2.1-1.2l-1 1.5z"/><path d="M31.1 62.9l.3.5 3.4 1.2c.7.3 1.2.1 1-.5s-1.4-1-2.1-1.3-2.2-1.4-2.2-1.4l-.4 1.5z"/></g><path d="M29 36.7c-.1-.6-.6-.9-1.2-1.1h-.2c-.6-.1-1.2-.1-1.8-.1h-.5c-.2 0-.3 0-.5.1s-.3.1-.5.2-.3.1-.4.3c-1.6 1.5-3 4.1-7.6 11.1.4.8 8.2 5.5 8.8 4.6 5.6-7.2 4.2-13.3 3.9-15.1z" fill="#f7931e"/><path d="M28.3 45.2c-1 3.1-1.5 6.7-2.1 10.2 13.1 3.3 19.4 2.7 26.2.6-.2-3.1-.7-6.5-.5-9.9-7.2 1.5-14.9.9-23.6-.9z" fill="#ff6d00"/></svg>