<svg width="83" height="110" viewBox="0 0 83 110" fill="none" xmlns="http://www.w3.org/2000/svg">
<path d="M41.25 98.113C64.0317 98.113 82.5 80.0675 82.5 57.8073C82.5 35.5471 64.0317 17.5017 41.25 17.5017C18.4683 17.5017 0 35.5471 0 57.8073C0 80.0675 18.4683 98.113 41.25 98.113Z" fill="#7CC144"/>
<path d="M27.2431 70.1725C33.6265 70.1725 38.8013 65.1704 38.8013 59C38.8013 52.8297 33.6265 47.8276 27.2431 47.8276C20.8597 47.8276 15.6849 52.8297 15.6849 59C15.6849 65.1704 20.8597 70.1725 27.2431 70.1725Z" fill="white" stroke="white" stroke-width="1.48125"/>
<path d="M27.5 71C34.4036 71 40 65.6274 40 59C40 52.3726 34.4036 47 27.5 47C20.5964 47 15 52.3726 15 59C15 65.6274 20.5964 71 27.5 71Z" fill="#327130"/>
<path d="M27.4142 70.5035C33.9868 70.5035 39.3149 65.3533 39.3149 59.0001C39.3149 52.6469 33.9868 47.4966 27.4142 47.4966C20.8417 47.4966 15.5135 52.6469 15.5135 59.0001C15.5135 65.3533 20.8417 70.5035 27.4142 70.5035Z" stroke="white" stroke-opacity="0.95" stroke-width="1.185"/>
<path d="M24.2465 60.5725C26.4216 60.5725 28.1848 58.831 28.1848 56.6828C28.1848 54.5346 26.4216 52.7932 24.2465 52.7932C22.0714 52.7932 20.3081 54.5346 20.3081 56.6828C20.3081 58.831 22.0714 60.5725 24.2465 60.5725Z" fill="white"/>
<path d="M30.5822 61.069C31.4334 61.069 32.1233 60.4391 32.1233 59.6621C32.1233 58.8851 31.4334 58.2552 30.5822 58.2552C29.7311 58.2552 29.0411 58.8851 29.0411 59.6621C29.0411 60.4391 29.7311 61.069 30.5822 61.069Z" fill="#C8E1E5"/>
<path d="M56.7567 70.1724C63.1401 70.1724 68.3149 65.1703 68.3149 59C68.3149 52.8296 63.1401 47.8276 56.7567 47.8276C50.3733 47.8276 45.1985 52.8296 45.1985 59C45.1985 65.1703 50.3733 70.1724 56.7567 70.1724Z" fill="white" stroke="white" stroke-width="1.46057"/>
<path d="M56.5 71C63.4036 71 69 65.6274 69 59C69 52.3726 63.4036 47 56.5 47C49.5964 47 44 52.3726 44 59C44 65.6274 49.5964 71 56.5 71Z" fill="#327130"/>
<path d="M56.5856 70.5035C63.1582 70.5035 68.4863 65.3532 68.4863 59C68.4863 52.6469 63.1582 47.4966 56.5856 47.4966C50.0131 47.4966 44.6849 52.6469 44.6849 59C44.6849 65.3532 50.0131 70.5035 56.5856 70.5035Z" stroke="white" stroke-opacity="0.95" stroke-width="1.16845"/>
<path d="M53.4178 60.5725C51.2427 60.5725 49.4794 58.831 49.4794 56.6828C49.4794 54.5346 51.2427 52.7932 53.4178 52.7932C55.5929 52.7932 57.3561 54.5346 57.3561 56.6828C57.3561 58.831 55.5929 60.5725 53.4178 60.5725Z" fill="white"/>
<path d="M59.7535 61.069C58.9024 61.069 58.2124 60.4392 58.2124 59.6621C58.2124 58.8851 58.9024 58.2552 59.7535 58.2552C60.6046 58.2552 61.2946 58.8851 61.2946 59.6621C61.2946 60.4392 60.6046 61.069 59.7535 61.069Z" fill="#C8E1E5"/>
<path d="M34.7131 73.9543C35.7187 81.44 46.5298 82.1887 47.7868 73.9543" stroke="#327130" stroke-width="2.01259" stroke-linecap="round" stroke-linejoin="round"/>
<path d="M61.9877 106.614C61.9877 108.484 52.7534 110 41.3627 110C29.9719 110 20.7377 108.484 20.7377 106.614C20.7377 104.744 29.9719 103.228 41.3627 103.228C52.7534 103.228 61.9877 104.744 61.9877 106.614Z" fill="#48A145" fill-opacity="0.4"/>
<path d="M46.5991 26.6882L46.8947 26.7649L48.3664 23.6738L48.6684 23.1448L47.6725 23L46.5991 26.6882Z" fill="#B78438"/>
<path d="M35.3851 26.6882L35.0895 26.7649L33.6177 23.6738L33.3158 23.1448L34.3116 23L35.3851 26.6882Z" fill="#B78438"/>
</svg>
