<svg xmlns="http://www.w3.org/2000/svg" viewBox="0 0 115 115" fill="#efac5b"><path d="M52.57 51.56V50.4h1.15v1.15z"/><path d="M60.45 31v39.1h-6.98V31z"/><g stroke="#3d1a01" stroke-linecap="round" stroke-miterlimit="10"><path d="M62.8 34.15a9.66 9.66 0 0 1-1.5-2.53 11 11 0 0 1-.54-1.9c-.32-1.8-.6-11.42-.65-24.56A3 3 0 0 0 57 2.25a3.93 3.93 0 0 0-2.51.87c-3.5 2.58-5 27.5-5.2 30.6l-6.9-26c-.25-.72-1.2-3.58-3.52-4.24a5 5 0 0 0-3.55.6c-4.06 2.28.33 22.4 3.52 35.12a16.07 16.07 0 0 1 .47 4.62l-.48 11" stroke-width="1.37"/><path d="M49.47 51.6a15.28 15.28 0 0 0 6.89-3.71 10.31 10.31 0 0 0 1.63-2c1.38-2.3 2.1-5.87 0-8.45-.35-.44-1.62-2-3.16-1.9s-2.16 1.9-3.83 3.76a14.28 14.28 0 0 1-2 1.8 31.2 31.2 0 0 1-5.19 3.15C41.23 45.6 37.35 50.38 37.2 56a14.7 14.7 0 0 0 1.47 6.46c2.2 5.32 5.16 6.17 8.48 11.92a30.55 30.55 0 0 1 2.52 7.09c.66 2.7-1.15 24.75-3.83 31.34H74.7a176.3 176.3 0 0 1-.51-18.48c.17-6.62.27-10 1.3-14.46 1.66-7.23 3.7-8.74 5-14.15 1-4.27 1.52-10.5-1.33-18.75" stroke-width="1.32"/><path d="M54.8 49.58s.76 5-3.38 11.6m11.38-7.46a4.9 4.9 0 0 0 1.44 3.22 5.07 5.07 0 0 0 5.31.9 24.94 24.94 0 0 0 5.72-4.34c2.05-2.1 3.4-3.5 3.72-5.68a7.27 7.27 0 0 0-2.79-7.1 6.64 6.64 0 0 0-4-1M55.85 49a8.8 8.8 0 0 0 2.61 3.76 5.48 5.48 0 0 0 3.17.85c1.15-.1 2.38-.73 5.83-5.62 4.3-6.1 4.32-7.86 4.27-8.7a6.22 6.22 0 0 0-1.73-4.2A5.91 5.91 0 0 0 63.66 34a7.5 7.5 0 0 0-2.45 2.24A14.67 14.67 0 0 0 59 39.36" stroke-width="1.37"/><path d="M59.1 38.85s.34 7.7-5.47 11.17" stroke-width="1.41"/><path d="M67.53,73.52a16.79,16.79,0,0,0,5.79-2.74,16.56,16.56,0,0,0,2.63-2.42" stroke-width="1.9"/></g></svg>