<svg xmlns="http://www.w3.org/2000/svg" viewBox="0 0 113 109"><path d="M.8 61.3l61.7 3.4v43.9L.8 104.2z" fill="#ffae32"/><path d="M5.9 66.6l-.1 32.2 51.1 4 .1-33.7z" fill="#7c3c28"/><path d="M5.8 88.9v1.3l9.7.7 34.7 2.3 6.8.4v-1.5c-17.1-.8-34.1-1.8-51.2-3.2zm34.6 10.8c-11.5-.6-23.1-.7-34.6-1.6v.7l51.1 4v-2.1l-16.5-1zm-6.2-18c-9.4-.2-18.9.4-28.3-.4v.7l9.8.2 35.2 1.5c2.1.1 4.1.2 6.2.4v-1.9l-22.9-.5zm-14.6-8.8c-2.4 0-4.9-.1-7.3-.2l-6.4-.1v1.3c.4 0 .8.1 1.2.1l9.5.4 34 1.3 6.4.3v-1.3l-37.4-1.8z" opacity=".35" fill="#84412f"/><path d="M62.5 64.7l35.3-12.5V94l-35.3 14.6z" fill="#d68323"/><path d="M66.4 67.9V102l28.2-11.1v-33z" fill="#84412f"/><path d="M66.4 75.8v1.1l28.2-10.5v-.8zm0 13.6v1.1L94.6 80v-.8z" opacity=".3" fill="#633127"/><path d="M66.6 64.8c-.9.3-.5 1.7.4 1.4h0l2.5-.8c.9-.3.5-1.7-.4-1.4" opacity=".2" fill="#ffae39"/><path d="M62.5 64.7l35.3-12.5-58.7-2.9-38.3 12z" fill="#ffc23b"/><path d="M15.2 59.4l24.5-7.2 46.3 2-25.8 7.4z" fill="#512b25"/><path d="M39.9 60.6l-.2-8.4 46.3 2-25.8 7.4z" fill="#3d211f"/><path d="M25.6 59.9s-1.3.6-1.1 2.7v12.2c0 1.5 8.7 3.1 10.7 0V63.2s-.4-2 1.3-2.8l-10.9-.5z" fill="#ffda40"/><path d="M28.6 69.3l-.8 3.6s1.1 1.2 3 .1l-1-3.7s1.7-.2 1.7-1.9c0-1.9-.7-2.7-1.9-2.7s-2.2 1.4-2.1 2.4c-.2.8.6 2.2 1.1 2.2z" fill="#3f2019"/><path d="M29.4 69c-1.2-.9-1-2.7-.6-4.2-.9.4-1.4 1.5-1.4 2.2 0 .8.8 2.2 1.3 2.3l-.8 3.6s.2.3.7.4c.1-1.5.4-2.9.8-4.3z" opacity=".56" fill="#7c3c28"/><g fill="#d38d31"><path d="M62.5 64.7l35.3-12.5s4.4-33-12.3-32.4c-16.6.5-20.6 27.3-23 44.9z"/><path d="M62.6 64.1c0 .2-.1.4-.1.6l35.3-12.5s.1-.4.1-1.1c-11.7 4.4-23.4 9-35.3 13z" opacity=".25"/></g><path d="M68.5 57.9l26.2-8.3s.4-22.7-7-24.6-17.2 10.7-19.2 32.9z" fill="#84412f"/><path d="M73.3 37.5c-.1.1-.2.5-.3.7.4-.1.8-.2 1.1-.2l7.9-1.7 11.1-2.5c-.1-.6-.2-.7-.3-1.3-1.2.3-14.2 4-19.5 5zm-3.2 10c-.1.3-.1.6-.2 1l12.3-3.3 12.2-3.3c0-.6-.1-.8-.1-1.4l-24.2 7zm-1.4 8.9c-.1.5-.1 1-.2 1.5l26.2-8.3v-1.7l-26 8.5z" opacity=".3" fill="#6b382f"/><g fill="#84412f"><path d="M65.1 44.9c2.9-8.3 7.5-17.6 14.1-24l-55.3-.1C-1 28.9.8 60.8.8 60.8L61.3 64c.4-6.6 1.7-13.1 3.8-19.1z"/><path d="M72.3 29.7c.1-.2.3-.4.4-.6l-16.9-.2c-14.5-.1-29-.6-43.5-1l-1.4 1.4c3.6-.1 7.3 0 10.9 0l41.9.2c2.9 0 5.7.1 8.6.2zM67.4 39l-24.2-.5c-12.6-.3-25.2-.1-37.8-.8-.1.3-.3.7-.4 1 2.5.1 4.9.1 7.4.1l41 1.1 13.4.5c.2-.4.4-.9.6-1.4zm-3.5 9.3c-20.5-.1-41-.7-61.5-1.9-.1.3-.1.5-.2.8l61.5 3.5c.1-.8.2-1.6.2-2.4z" opacity=".35"/><path d="M62.1 56.7L43 56.1 1 55l-.2 6.3 60.5 3.3c.1-2.7.4-5.3.8-7.9z" opacity=".3"/></g><path d="M22.8 62.5s0-3.1 1.4-4.5l16.5.8s-1.9 2.7-1.7 4.6l-16.2-.9z" opacity=".8" fill="#ffc943"/><g fill="#f9b73d"><path d="M77.1 19.7c-14 9.5-18.3 29-19.6 38.8L5.8 55.6c.5-8.4 3.9-23.9 20.6-34.8h1.9c.1-.1 0-1-.4-1h-4.1S1.7 25.8.1 60.9c0 .2.3.3.6.4h.2c1.1.2 2.8.2 3.9.2l57.5 3.1C67.8 23 81.8 19.9 84.9 19.8l-7.8-.1z"/><path d="M84.9 19.8h.6c.1 0-.2 0-.6 0z"/></g><path d="M71.8 28.2c1.5-1.8 3-3.4 4.7-5 .7-.6-.3-1.6-1-1-1.7 1.5-3.3 3.2-4.7 5-.6.7.4 1.7 1 1h0zm-3.1 2.5c-.4.6-.7 1.3-1 2-.1.4.2.8.5.9.4.1.7-.1.9-.5.2-.6.5-1.1.9-1.6.4-.8-.8-1.5-1.3-.8h0z" opacity=".4" fill="#ffc83e"/></svg>