<svg width="83" height="110" viewBox="0 0 83 110" fill="none" xmlns="http://www.w3.org/2000/svg">
<path d="M41.25 98.113C64.0317 98.113 82.5 80.0675 82.5 57.8073C82.5 35.5471 64.0317 17.5017 41.25 17.5017C18.4683 17.5017 0 35.5471 0 57.8073C0 80.0675 18.4683 98.113 41.25 98.113Z" fill="#7CC144"/>
<path d="M25.7124 70.069C32.8618 70.069 38.6576 64.4417 38.6576 57.5001C38.6576 50.5584 32.8618 44.9311 25.7124 44.9311C18.5629 44.9311 12.7672 50.5584 12.7672 57.5001C12.7672 64.4417 18.5629 70.069 25.7124 70.069Z" fill="white" stroke="white" stroke-width="1.48125"/>
<path d="M26 71C33.732 71 40 64.9558 40 57.5C40 50.0442 33.732 44 26 44C18.268 44 12 50.0442 12 57.5C12 64.9558 18.268 71 26 71Z" fill="#327130"/>
<path d="M25.904 70.4415C33.2652 70.4415 39.2327 64.6474 39.2327 57.5001C39.2327 50.3528 33.2652 44.5587 25.904 44.5587C18.5427 44.5587 12.5752 50.3528 12.5752 57.5001C12.5752 64.6474 18.5427 70.4415 25.904 70.4415Z" stroke="white" stroke-opacity="0.95" stroke-width="1.185"/>
<path d="M22.356 59.2691C24.7921 59.2691 26.767 57.3099 26.767 54.8932C26.767 52.4765 24.7921 50.5173 22.356 50.5173C19.9199 50.5173 17.945 52.4765 17.945 54.8932C17.945 57.3099 19.9199 59.2691 22.356 59.2691Z" fill="white"/>
<path d="M29.4521 59.8277C30.4054 59.8277 31.1781 59.1191 31.1781 58.2449C31.1781 57.3708 30.4054 56.6622 29.4521 56.6622C28.4988 56.6622 27.7261 57.3708 27.7261 58.2449C27.7261 59.1191 28.4988 59.8277 29.4521 59.8277Z" fill="#C8E1E5"/>
<path d="M58.2875 70.069C65.437 70.069 71.2327 64.4416 71.2327 57.5C71.2327 50.5583 65.437 44.931 58.2875 44.931C51.1381 44.931 45.3423 50.5583 45.3423 57.5C45.3423 64.4416 51.1381 70.069 58.2875 70.069Z" fill="white" stroke="white" stroke-width="1.46057"/>
<path d="M58 71C65.732 71 72 64.9558 72 57.5C72 50.0442 65.732 44 58 44C50.268 44 44 50.0442 44 57.5C44 64.9558 50.268 71 58 71Z" fill="#327130"/>
<path d="M58.0959 70.4414C65.4572 70.4414 71.4247 64.6474 71.4247 57.5C71.4247 50.3527 65.4572 44.5587 58.0959 44.5587C50.7346 44.5587 44.7672 50.3527 44.7672 57.5C44.7672 64.6474 50.7346 70.4414 58.0959 70.4414Z" stroke="white" stroke-opacity="0.95" stroke-width="1.16845"/>
<path d="M54.5479 59.2691C52.1118 59.2691 50.1369 57.3099 50.1369 54.8932C50.1369 52.4765 52.1118 50.5173 54.5479 50.5173C56.984 50.5173 58.9589 52.4765 58.9589 54.8932C58.9589 57.3099 56.984 59.2691 54.5479 59.2691Z" fill="white"/>
<path d="M61.6439 59.8277C60.6906 59.8277 59.9179 59.1191 59.9179 58.245C59.9179 57.3709 60.6906 56.6622 61.6439 56.6622C62.5972 56.6622 63.3699 57.3709 63.3699 58.245C63.3699 59.1191 62.5972 59.8277 61.6439 59.8277Z" fill="#C8E1E5"/>
<path d="M34.7131 73.9543C35.7187 81.44 46.5298 82.1887 47.7868 73.9543" stroke="#327130" stroke-width="2.01259" stroke-linecap="round" stroke-linejoin="round"/>
<path d="M61.9877 106.614C61.9877 108.484 52.7534 110 41.3627 110C29.9719 110 20.7377 108.484 20.7377 106.614C20.7377 104.744 29.9719 103.228 41.3627 103.228C52.7534 103.228 61.9877 104.744 61.9877 106.614Z" fill="#48A145" fill-opacity="0.4"/>
<path d="M46.5991 26.5255L47.5227 26.7649L52.1218 17.1056L53.0655 15.4524L49.9534 15L46.5991 26.5255Z" fill="#B78438"/>
<path d="M35.3851 26.5285L34.4731 26.7649L29.9317 17.227L29 15.5945L32.0728 15.1478L35.3851 26.5285Z" fill="#B78438"/>
</svg>
