<svg width="83" height="110" viewBox="0 0 83 110" fill="none" xmlns="http://www.w3.org/2000/svg">
<path d="M41.25 98.113C64.0317 98.113 82.5 80.0675 82.5 57.8073C82.5 35.5471 64.0317 17.5017 41.25 17.5017C18.4683 17.5017 0 35.5471 0 57.8073C0 80.0675 18.4683 98.113 41.25 98.113Z" fill="#7CC144"/>
<path d="M26.2226 70.1035C33.1167 70.1035 38.7054 64.6846 38.7054 58.0001C38.7054 51.3155 33.1167 45.8966 26.2226 45.8966C19.3285 45.8966 13.7397 51.3155 13.7397 58.0001C13.7397 64.6846 19.3285 70.1035 26.2226 70.1035Z" fill="white" stroke="white" stroke-width="1.48125"/>
<path d="M26.5 71C33.9558 71 40 65.1797 40 58C40 50.8203 33.9558 45 26.5 45C19.0442 45 13 50.8203 13 58C13 65.1797 19.0442 71 26.5 71Z" fill="#327130"/>
<path d="M26.4074 70.4622C33.5058 70.4622 39.2602 64.8827 39.2602 58.0001C39.2602 51.1175 33.5058 45.538 26.4074 45.538C19.3091 45.538 13.5547 51.1175 13.5547 58.0001C13.5547 64.8827 19.3091 70.4622 26.4074 70.4622Z" stroke="white" stroke-opacity="0.95" stroke-width="1.185"/>
<path d="M22.9862 59.7035C25.3353 59.7035 27.2396 57.8169 27.2396 55.4897C27.2396 53.1625 25.3353 51.2759 22.9862 51.2759C20.6371 51.2759 18.7327 53.1625 18.7327 55.4897C18.7327 57.8169 20.6371 59.7035 22.9862 59.7035Z" fill="white"/>
<path d="M29.8288 60.2414C30.748 60.2414 31.4932 59.559 31.4932 58.7173C31.4932 57.8755 30.748 57.1931 29.8288 57.1931C28.9096 57.1931 28.1644 57.8755 28.1644 58.7173C28.1644 59.559 28.9096 60.2414 29.8288 60.2414Z" fill="#C8E1E5"/>
<path d="M57.7772 70.1034C64.6713 70.1034 70.2601 64.6845 70.2601 58C70.2601 51.3154 64.6713 45.8965 57.7772 45.8965C50.8831 45.8965 45.2943 51.3154 45.2943 58C45.2943 64.6845 50.8831 70.1034 57.7772 70.1034Z" fill="white" stroke="white" stroke-width="1.46057"/>
<path d="M57.5 71C64.9558 71 71 65.1797 71 58C71 50.8203 64.9558 45 57.5 45C50.0442 45 44 50.8203 44 58C44 65.1797 50.0442 71 57.5 71Z" fill="#327130"/>
<path d="M57.5925 70.4621C64.6909 70.4621 70.4452 64.8826 70.4452 58C70.4452 51.1174 64.6909 45.538 57.5925 45.538C50.4941 45.538 44.7397 51.1174 44.7397 58C44.7397 64.8826 50.4941 70.4621 57.5925 70.4621Z" stroke="white" stroke-opacity="0.95" stroke-width="1.16845"/>
<path d="M54.1712 59.7035C51.8221 59.7035 49.9178 57.8169 49.9178 55.4897C49.9178 53.1625 51.8221 51.2759 54.1712 51.2759C56.5203 51.2759 58.4246 53.1625 58.4246 55.4897C58.4246 57.8169 56.5203 59.7035 54.1712 59.7035Z" fill="white"/>
<path d="M61.0138 60.2415C60.0946 60.2415 59.3494 59.5591 59.3494 58.7174C59.3494 57.8756 60.0946 57.1932 61.0138 57.1932C61.933 57.1932 62.6782 57.8756 62.6782 58.7174C62.6782 59.5591 61.933 60.2415 61.0138 60.2415Z" fill="#C8E1E5"/>
<path d="M34.7131 73.9543C35.7187 81.44 46.5298 82.1887 47.7868 73.9543" stroke="#327130" stroke-width="2.01259" stroke-linecap="round" stroke-linejoin="round"/>
<path d="M61.9877 106.614C61.9877 108.484 52.7534 110 41.3627 110C29.9719 110 20.7377 108.484 20.7377 106.614C20.7377 104.744 29.9719 103.228 41.3627 103.228C52.7534 103.228 61.9877 104.744 61.9877 106.614Z" fill="#48A145" fill-opacity="0.4"/>
<path d="M46.5991 26.6019L47.2277 26.7648L50.3577 20.191L51 19.0658L48.882 18.7579L46.5991 26.6019Z" fill="#B78438"/>
<path d="M35.3851 26.6025L34.7588 26.7649L31.6398 20.2145L31 19.0934L33.1103 18.7866L35.3851 26.6025Z" fill="#B78438"/>
</svg>
