<svg width="83" height="110" viewBox="0 0 83 110" fill="none" xmlns="http://www.w3.org/2000/svg">
<path d="M41.25 98.113C64.0317 98.113 82.5 80.0675 82.5 57.8073C82.5 35.5471 64.0317 17.5017 41.25 17.5017C18.4683 17.5017 0 35.5471 0 57.8073C0 80.0675 18.4683 98.113 41.25 98.113Z" fill="#7CC144"/>
<path d="M25.6918 70.0001C33.3519 70.0001 39.5617 63.9559 39.5617 56.5001C39.5617 49.0442 33.3519 43.0001 25.6918 43.0001C18.0317 43.0001 11.822 49.0442 11.822 56.5001C11.822 63.9559 18.0317 70.0001 25.6918 70.0001Z" fill="white" stroke="white" stroke-width="1.48125"/>
<path d="M26 71C34.2843 71 41 64.5081 41 56.5C41 48.4919 34.2843 42 26 42C17.7157 42 11 48.4919 11 56.5C11 64.5081 17.7157 71 26 71Z" fill="#327130"/>
<path d="M25.8971 70.4001C33.7842 70.4001 40.1779 64.1769 40.1779 56.5001C40.1779 48.8233 33.7842 42.6001 25.8971 42.6001C18.01 42.6001 11.6163 48.8233 11.6163 56.5001C11.6163 64.1769 18.01 70.4001 25.8971 70.4001Z" stroke="white" stroke-opacity="0.95" stroke-width="1.185"/>
<path d="M22.0957 58.4001C24.7058 58.4001 26.8217 56.2959 26.8217 53.7001C26.8217 51.1044 24.7058 49.0001 22.0957 49.0001C19.4856 49.0001 17.3697 51.1044 17.3697 53.7001C17.3697 56.2959 19.4856 58.4001 22.0957 58.4001Z" fill="white"/>
<path d="M29.6987 59.0002C30.72 59.0002 31.548 58.239 31.548 57.3002C31.548 56.3613 30.72 55.6002 29.6987 55.6002C28.6773 55.6002 27.8494 56.3613 27.8494 57.3002C27.8494 58.239 28.6773 59.0002 29.6987 59.0002Z" fill="#C8E1E5"/>
<path d="M60.3081 70C67.9682 70 74.1779 63.9558 74.1779 56.5C74.1779 49.0442 67.9682 43 60.3081 43C52.648 43 46.4382 49.0442 46.4382 56.5C46.4382 63.9558 52.648 70 60.3081 70Z" fill="white" stroke="white" stroke-width="1.46057"/>
<path d="M60 71C68.2843 71 75 64.5081 75 56.5C75 48.4919 68.2843 42 60 42C51.7157 42 45 48.4919 45 56.5C45 64.5081 51.7157 71 60 71Z" fill="#327130"/>
<path d="M60.1028 70.4C67.9899 70.4 74.3836 64.1768 74.3836 56.5C74.3836 48.8233 67.9899 42.6 60.1028 42.6C52.2157 42.6 45.822 48.8233 45.822 56.5C45.822 64.1768 52.2157 70.4 60.1028 70.4Z" stroke="white" stroke-opacity="0.95" stroke-width="1.16845"/>
<path d="M56.3013 58.4001C53.6912 58.4001 51.5753 56.2959 51.5753 53.7001C51.5753 51.1044 53.6912 49.0001 56.3013 49.0001C58.9114 49.0001 61.0273 51.1044 61.0273 53.7001C61.0273 56.2959 58.9114 58.4001 56.3013 58.4001Z" fill="white"/>
<path d="M63.9042 59.0002C62.8828 59.0002 62.0549 58.2391 62.0549 57.3002C62.0549 56.3613 62.8828 55.6002 63.9042 55.6002C64.9255 55.6002 65.7535 56.3613 65.7535 57.3002C65.7535 58.2391 64.9255 59.0002 63.9042 59.0002Z" fill="#C8E1E5"/>
<path d="M34.7131 73.9543C35.7187 81.44 46.5298 82.1887 47.7868 73.9543" stroke="#327130" stroke-width="2.01259" stroke-linecap="round" stroke-linejoin="round"/>
<path d="M61.9877 106.614C61.9877 108.484 52.7534 110 41.3627 110C29.9719 110 20.7377 108.484 20.7377 106.614C20.7377 104.744 29.9719 103.228 41.3627 103.228C52.7534 103.228 61.9877 104.744 61.9877 106.614Z" fill="#48A145" fill-opacity="0.4"/>
<path d="M46.5991 26.422L47.9216 26.7648L54.5077 12.9326L55.8591 10.5651L51.4026 9.91727L46.5991 26.422Z" fill="#B78438"/>
<path d="M53.1518 13.5785C55.0461 13.5785 56.5818 12.0876 56.5818 10.2485C56.5818 8.40935 55.0461 6.91846 53.1518 6.91846C51.2574 6.91846 49.7218 8.40935 49.7218 10.2485C49.7218 12.0876 51.2574 13.5785 53.1518 13.5785Z" fill="#D55F31"/>
<path d="M35.3851 26.422L34.0625 26.7648L27.4763 12.9326L26.1252 10.5651L30.5815 9.91727L35.3851 26.422Z" fill="#B78438"/>
<path d="M28.4312 14.0113C30.3262 14.0113 31.8623 12.5205 31.8623 10.6814C31.8623 8.8424 30.3262 7.35156 28.4312 7.35156C26.5362 7.35156 25 8.8424 25 10.6814C25 12.5205 26.5362 14.0113 28.4312 14.0113Z" fill="#D55F31"/>
</svg>
