<svg width="83" height="110" viewBox="0 0 83 110" fill="none" xmlns="http://www.w3.org/2000/svg">
<path d="M41.25 98.113C64.0317 98.113 82.5 80.0675 82.5 57.8073C82.5 35.5471 64.0317 17.5017 41.25 17.5017C18.4683 17.5017 0 35.5471 0 57.8073C0 80.0675 18.4683 98.113 41.25 98.113Z" fill="#7CC144"/>
<path d="M24.1815 69.9656C32.097 69.9656 38.5137 63.713 38.5137 56.0001C38.5137 48.2871 32.097 42.0345 24.1815 42.0345C16.2661 42.0345 9.84934 48.2871 9.84934 56.0001C9.84934 63.713 16.2661 69.9656 24.1815 69.9656Z" fill="white" stroke="white" stroke-width="1.48125"/>
<path d="M24.5 71C33.0604 71 40 64.2843 40 56C40 47.7157 33.0604 41 24.5 41C15.9396 41 9 47.7157 9 56C9 64.2843 15.9396 71 24.5 71Z" fill="#327130"/>
<path d="M24.3937 70.3794C32.5437 70.3794 39.1505 63.9416 39.1505 56.0001C39.1505 48.0586 32.5437 41.6208 24.3937 41.6208C16.2437 41.6208 9.63683 48.0586 9.63683 56.0001C9.63683 63.9416 16.2437 70.3794 24.3937 70.3794Z" stroke="white" stroke-opacity="0.95" stroke-width="1.185"/>
<path d="M20.4656 57.9657C23.1627 57.9657 25.3491 55.7888 25.3491 53.1036C25.3491 50.4183 23.1627 48.2415 20.4656 48.2415C17.7685 48.2415 15.582 50.4183 15.582 53.1036C15.582 55.7888 17.7685 57.9657 20.4656 57.9657Z" fill="white"/>
<path d="M28.322 58.5864C29.3774 58.5864 30.2329 57.799 30.2329 56.8278C30.2329 55.8565 29.3774 55.0692 28.322 55.0692C27.2666 55.0692 26.411 55.8565 26.411 56.8278C26.411 57.799 27.2666 58.5864 28.322 58.5864Z" fill="#C8E1E5"/>
<path d="M59.8183 69.9655C67.7338 69.9655 74.1505 63.7129 74.1505 56C74.1505 48.2871 67.7338 42.0345 59.8183 42.0345C51.9029 42.0345 45.4861 48.2871 45.4861 56C45.4861 63.7129 51.9029 69.9655 59.8183 69.9655Z" fill="white" stroke="white" stroke-width="1.46057"/>
<path d="M59.5 71C68.0604 71 75 64.2843 75 56C75 47.7157 68.0604 41 59.5 41C50.9396 41 44 47.7157 44 56C44 64.2843 50.9396 71 59.5 71Z" fill="#327130"/>
<path d="M59.6062 70.3793C67.7562 70.3793 74.363 63.9415 74.363 56C74.363 48.0586 67.7562 41.6207 59.6062 41.6207C51.4562 41.6207 44.8493 48.0586 44.8493 56C44.8493 63.9415 51.4562 70.3793 59.6062 70.3793Z" stroke="white" stroke-opacity="0.95" stroke-width="1.16845"/>
<path d="M55.678 57.9657C52.9809 57.9657 50.7945 55.7888 50.7945 53.1036C50.7945 50.4183 52.9809 48.2415 55.678 48.2415C58.3752 48.2415 60.5616 50.4183 60.5616 53.1036C60.5616 55.7888 58.3752 57.9657 55.678 57.9657Z" fill="white"/>
<path d="M63.5343 58.5865C62.4789 58.5865 61.6234 57.7991 61.6234 56.8278C61.6234 55.8566 62.4789 55.0692 63.5343 55.0692C64.5897 55.0692 65.4453 55.8566 65.4453 56.8278C65.4453 57.7991 64.5897 58.5865 63.5343 58.5865Z" fill="#C8E1E5"/>
<path d="M34.7131 73.9543C35.7187 81.44 46.5298 82.1887 47.7868 73.9543" stroke="#327130" stroke-width="2.01259" stroke-linecap="round" stroke-linejoin="round"/>
<path d="M61.9877 106.614C61.9877 108.484 52.7534 110 41.3627 110C29.9719 110 20.7377 108.484 20.7377 106.614C20.7377 104.744 29.9719 103.228 41.3627 103.228C52.7534 103.228 61.9877 104.744 61.9877 106.614Z" fill="#48A145" fill-opacity="0.4"/>
<path d="M46.5991 26.422L47.9216 26.7648L54.5077 12.9326L55.8591 10.5651L51.4026 9.91727L46.5991 26.422Z" fill="#B78438"/>
<path d="M54.5 14.0338C57.5376 14.0338 60 11.6441 60 8.69618C60 5.74829 57.5376 3.35855 54.5 3.35855C51.4624 3.35855 49 5.74829 49 8.69618C49 11.6441 51.4624 14.0338 54.5 14.0338Z" fill="#D55F31"/>
<path d="M35.3851 26.422L34.0625 26.7648L27.4763 12.9326L26.1252 10.5651L30.5815 9.91727L35.3851 26.422Z" fill="#B78438"/>
<path d="M27.0971 14.0113C29.9457 14.0113 32.255 11.7702 32.255 9.00564C32.255 6.24108 29.9457 3.99997 27.0971 3.99997C24.2484 3.99997 21.9391 6.24108 21.9391 9.00564C21.9391 11.7702 24.2484 14.0113 27.0971 14.0113Z" fill="#D55F31"/>
</svg>
