<svg width="83" height="110" viewBox="0 0 83 110" fill="none" xmlns="http://www.w3.org/2000/svg">
<path d="M41.25 98.113C64.0317 98.113 82.5 80.0675 82.5 57.8073C82.5 35.5471 64.0317 17.5017 41.25 17.5017C18.4683 17.5017 0 35.5471 0 57.8073C0 80.0675 18.4683 98.113 41.25 98.113Z" fill="#7CC144"/>
<path d="M25.2021 70.0345C32.6069 70.0345 38.6096 64.1988 38.6096 57.0001C38.6096 49.8013 32.6069 43.9656 25.2021 43.9656C17.7973 43.9656 11.7946 49.8013 11.7946 57.0001C11.7946 64.1988 17.7973 70.0345 25.2021 70.0345Z" fill="white" stroke="white" stroke-width="1.48125"/>
<path d="M25.5 71C33.5081 71 40 64.732 40 57C40 49.268 33.5081 43 25.5 43C17.4919 43 11 49.268 11 57C11 64.732 17.4919 71 25.5 71Z" fill="#327130"/>
<path d="M25.4005 70.4208C33.0247 70.4208 39.2053 64.4121 39.2053 57.0001C39.2053 49.5881 33.0247 43.5794 25.4005 43.5794C17.7764 43.5794 11.5957 49.5881 11.5957 57.0001C11.5957 64.4121 17.7764 70.4208 25.4005 70.4208Z" stroke="white" stroke-opacity="0.95" stroke-width="1.185"/>
<path d="M21.7258 58.8346C24.249 58.8346 26.2943 56.8029 26.2943 54.2967C26.2943 51.7904 24.249 49.7587 21.7258 49.7587C19.2027 49.7587 17.1573 51.7904 17.1573 54.2967C17.1573 56.8029 19.2027 58.8346 21.7258 58.8346Z" fill="white"/>
<path d="M29.0754 59.4139C30.0627 59.4139 30.8631 58.6791 30.8631 57.7725C30.8631 56.866 30.0627 56.1312 29.0754 56.1312C28.0881 56.1312 27.2877 56.866 27.2877 57.7725C27.2877 58.6791 28.0881 59.4139 29.0754 59.4139Z" fill="#C8E1E5"/>
<path d="M58.7978 70.0345C66.2026 70.0345 72.2053 64.1987 72.2053 57C72.2053 49.8013 66.2026 43.9655 58.7978 43.9655C51.393 43.9655 45.3903 49.8013 45.3903 57C45.3903 64.1987 51.393 70.0345 58.7978 70.0345Z" fill="white" stroke="white" stroke-width="1.46057"/>
<path d="M58.5 71C66.5081 71 73 64.732 73 57C73 49.268 66.5081 43 58.5 43C50.4919 43 44 49.268 44 57C44 64.732 50.4919 71 58.5 71Z" fill="#327130"/>
<path d="M58.5994 70.4207C66.2235 70.4207 72.4041 64.4121 72.4041 57C72.4041 49.588 66.2235 43.5793 58.5994 43.5793C50.9752 43.5793 44.7946 49.588 44.7946 57C44.7946 64.4121 50.9752 70.4207 58.5994 70.4207Z" stroke="white" stroke-opacity="0.95" stroke-width="1.16845"/>
<path d="M54.9246 58.8346C52.4015 58.8346 50.3561 56.8029 50.3561 54.2967C50.3561 51.7904 52.4015 49.7587 54.9246 49.7587C57.4477 49.7587 59.4931 51.7904 59.4931 54.2967C59.4931 56.8029 57.4477 58.8346 54.9246 58.8346Z" fill="white"/>
<path d="M62.274 59.414C61.2867 59.414 60.4864 58.6791 60.4864 57.7726C60.4864 56.8661 61.2867 56.1312 62.274 56.1312C63.2613 56.1312 64.0617 56.8661 64.0617 57.7726C64.0617 58.6791 63.2613 59.414 62.274 59.414Z" fill="#C8E1E5"/>
<path d="M34.7131 73.9543C35.7187 81.44 46.5298 82.1887 47.7868 73.9543" stroke="#327130" stroke-width="2.01259" stroke-linecap="round" stroke-linejoin="round"/>
<path d="M61.9877 106.614C61.9877 108.484 52.7534 110 41.3627 110C29.9719 110 20.7377 108.484 20.7377 106.614C20.7377 104.744 29.9719 103.228 41.3627 103.228C52.7534 103.228 61.9877 104.744 61.9877 106.614Z" fill="#48A145" fill-opacity="0.4"/>
<path d="M46.5991 26.5051L47.6012 26.7649L52.5912 16.2846L53.6151 14.4909L50.2386 14L46.5991 26.5051Z" fill="#B78438"/>
<path d="M35.3851 26.5051L34.3831 26.7649L29.3929 16.2846L28.3692 14.4909L31.7456 14L35.3851 26.5051Z" fill="#B78438"/>
</svg>
