<svg width="83" height="110" viewBox="0 0 83 110" fill="none" xmlns="http://www.w3.org/2000/svg">
<path d="M41.25 98.113C64.0317 98.113 82.5 80.0675 82.5 57.8073C82.5 35.5471 64.0317 17.5017 41.25 17.5017C18.4683 17.5017 0 35.5471 0 57.8073C0 80.0675 18.4683 98.113 41.25 98.113Z" fill="#7CC144"/>
<path d="M23.6713 69.9311C31.842 69.9311 38.4658 63.4701 38.4658 55.5001C38.4658 47.53 31.842 41.069 23.6713 41.069C15.5005 41.069 8.87674 47.53 8.87674 55.5001C8.87674 63.4701 15.5005 69.9311 23.6713 69.9311Z" fill="white" stroke="white" stroke-width="1.48125"/>
<path d="M24 71C32.8366 71 40 64.0604 40 55.5C40 46.9396 32.8366 40 24 40C15.1634 40 8 46.9396 8 55.5C8 64.0604 15.1634 71 24 71Z" fill="#327130"/>
<path d="M23.8903 70.3587C32.3031 70.3587 39.1231 63.7063 39.1231 55.5001C39.1231 47.2939 32.3031 40.6415 23.8903 40.6415C15.4774 40.6415 8.65738 47.2939 8.65738 55.5001C8.65738 63.7063 15.4774 70.3587 23.8903 70.3587Z" stroke="white" stroke-opacity="0.95" stroke-width="1.185"/>
<path d="M19.8354 57.5312C22.6196 57.5312 24.8765 55.2818 24.8765 52.507C24.8765 49.7323 22.6196 47.4829 19.8354 47.4829C17.0513 47.4829 14.7943 49.7323 14.7943 52.507C14.7943 55.2818 17.0513 57.5312 19.8354 57.5312Z" fill="white"/>
<path d="M27.9453 58.1726C29.0347 58.1726 29.9179 57.359 29.9179 56.3554C29.9179 55.3518 29.0347 54.5381 27.9453 54.5381C26.8558 54.5381 25.9727 55.3518 25.9727 56.3554C25.9727 57.359 26.8558 58.1726 27.9453 58.1726Z" fill="#C8E1E5"/>
<path d="M60.3286 69.931C68.4994 69.931 75.1231 63.47 75.1231 55.5C75.1231 47.53 68.4994 41.069 60.3286 41.069C52.1578 41.069 45.5341 47.53 45.5341 55.5C45.5341 63.47 52.1578 69.931 60.3286 69.931Z" fill="white" stroke="white" stroke-width="1.46057"/>
<path d="M60 71C68.8366 71 76 64.0604 76 55.5C76 46.9396 68.8366 40 60 40C51.1634 40 44 46.9396 44 55.5C44 64.0604 51.1634 71 60 71Z" fill="#327130"/>
<path d="M60.1096 70.3587C68.5225 70.3587 75.3425 63.7062 75.3425 55.5C75.3425 47.2938 68.5225 40.6414 60.1096 40.6414C51.6967 40.6414 44.8767 47.2938 44.8767 55.5C44.8767 63.7062 51.6967 70.3587 60.1096 70.3587Z" stroke="white" stroke-opacity="0.95" stroke-width="1.16845"/>
<path d="M56.0547 57.5312C53.2706 57.5312 51.0137 55.2818 51.0137 52.507C51.0137 49.7323 53.2706 47.4829 56.0547 47.4829C58.8389 47.4829 61.0958 49.7323 61.0958 52.507C61.0958 55.2818 58.8389 57.5312 56.0547 57.5312Z" fill="white"/>
<path d="M64.1645 58.1727C63.075 58.1727 62.1919 57.3591 62.1919 56.3554C62.1919 55.3518 63.075 54.5382 64.1645 54.5382C65.2539 54.5382 66.1371 55.3518 66.1371 56.3554C66.1371 57.3591 65.2539 58.1727 64.1645 58.1727Z" fill="#C8E1E5"/>
<path d="M34.7131 73.9543C35.7187 81.44 46.5297 82.1887 47.7868 73.9543" stroke="#327130" stroke-width="2.01259" stroke-linecap="round" stroke-linejoin="round"/>
<path d="M61.9877 106.614C61.9877 108.484 52.7534 110 41.3627 110C29.9719 110 20.7377 108.484 20.7377 106.614C20.7377 104.744 29.9719 103.228 41.3627 103.228C52.7534 103.228 61.9877 104.744 61.9877 106.614Z" fill="#48A145" fill-opacity="0.4"/>
<path d="M46.5991 26.422L47.9216 26.7649L54.5077 12.9326L55.8591 10.5652L51.4026 9.9173L46.5991 26.422Z" fill="#B78438"/>
<path d="M53.9405 14.0113C57.9273 14.0113 61.1593 10.8748 61.1593 7.0057C61.1593 3.13659 57.9273 6.10352e-05 53.9405 6.10352e-05C49.9537 6.10352e-05 46.7218 3.13659 46.7218 7.0057C46.7218 10.8748 49.9537 14.0113 53.9405 14.0113Z" fill="#D55F31"/>
<path d="M35.3851 26.422L34.0625 26.7649L27.4763 12.9326L26.1252 10.5652L30.5815 9.9173L35.3851 26.422Z" fill="#B78438"/>
<path d="M27.6436 14.0113C31.6304 14.0113 34.8623 10.8748 34.8623 7.00567C34.8623 3.13656 31.6304 3.05176e-05 27.6436 3.05176e-05C23.6568 3.05176e-05 20.4248 3.13656 20.4248 7.00567C20.4248 10.8748 23.6568 14.0113 27.6436 14.0113Z" fill="#D55F31"/>
</svg>
