<svg xmlns="http://www.w3.org/2000/svg" xmlns:xlink="http://www.w3.org/1999/xlink" viewBox="0 0 76 120"><path d="M29.4 39.4c-1.1 5.2-3.2 11.8-4.6 14.1-2.6 4.2-8.3 0-6.4-3.7 1.4-2.9 4-7 6.4-11.1.4-.7 4.8-.1 4.6.7z" fill="#ffc19f"/><path d="M32.8 34c.1 0 .2-.2.3-.2-3.5.2-7.7 1.7-8.5 2.2-1.5 1.5-3.3 6.8-5.8 11.4 2 1.2 5 2.5 8.1 3.4 1.5-6.3 2.9-12 5.9-16.8z" fill="#f7931e"/><g fill="#ffc19f"><path d="M38.8 71.3c.4 6 3.6 19 3.6 19l7.6.4c.2-1 .4-2.4.7-4 .4-2.6.8-5.1 1.1-8 .2-1.9.3-3.5.2-7.5H38.8z"/><path d="M50 90.2c-.1 3.3-.4 6.9-.8 10.5-.4 4.1-1 8-1.6 11.6h-6c-.8-8.3-2.4-18.5.6-22.6l7.8.5zM27.9 79.5c1.1 5.2.5 10.9.5 10.9l8 .4s1-5.6 1.6-10.8l-10.1-.5z"/><path d="M36.4 90.2c-.1 3.3-.4 6.9-.8 10.5-.4 4.1-1 8-1.6 11.6h-6c-.8-8.3-2.4-18.5.6-22.6l7.8.5z"/></g><path d="M45.6 63.8s0-.1 0 0h-1.7l-2.9-.2-3.3-.4c-.1.6.3 5 1.7 11.6l-.1 11.7s.8.2 1.9.4c.5.1 1.9.3 2 .3 0 0 7.1.9 9.3.4l.3-9.9L53 64l-7.4-.2z" fill="#454551"/><path d="M39.2 86.4l1.8.3L42.3 75l-.7-11.5-.8-.1-3.3-.4c-.1.6.3 5 1.7 11.6v11.8z" fill="#383842"/><g fill="#454551"><path d="M33 63.8s0-.1 0 0h-1.7l-2.9-.2-.5-.4c-.1.6-2.4 5-1 11.6l-.2 11.7s.8.2 1.9.4c.5.1 2 .3 2 .4 3 .3 7 .8 9.2.4l.3-9.9.2-13.7-7.3-.3z"/><path d="M31.3 63.8l-2.9-.2-.5-.4c-.1.6-2.4 5-1 11.6l-.2 11.7s.8.2 2 .4c.5.1 1.2.2 1.9.3 3.5-8.9 2.5-21.5 2.3-23.3l-1.6-.1z"/></g><path d="M52.3 40.4c3.1 4.3 6.5 10.1 7.2 12.6 1.4 4.7-5.5 6.1-6.9 2.3-1.1-2.9-2.4-7.6-3.8-12-.3-.8 3-3.6 3.5-2.9z" fill="#ffc19f"/><path d="M49.5 51.4c-.6-4.4 1-16.1 1.1-16.4 2.1.4 3.1.6 3.6 1.4 1.2 1.8 2 4.7 4.9 12.5-.6.7-9.2 3.5-9.6 2.5z" fill="#f7931e"/><path d="M68.3 48.1c-3.4 4-8.4 8.6-10.6 9.9-4.2 2.4-7.2-3.9-3.8-6.2 2.6-1.8 7.5-4.5 11.5-6.8.5-.5 3.4 2.5 2.9 3.1z" fill="#ffc19f"/><path d="M25 67.5c7.8 5.4 19.7 5.1 29.8 1.1-1.7-5.4-4.8-20.8-1.6-32.7-6.7-2.4-12.1-3.8-20.5-2.1-5.5 8.9-6.9 20.5-7.7 33.7z" fill="#f7931e"/><path d="M28.3 45.2c-1 3.1-1.7 6.5-2.3 10 13 3.2 19.6 2.9 26.4.8-.2-3.1-.7-6.5-.5-9.9-7.2 1.5-14.9.9-23.6-.9zm18.1-10.5c0-.4 0-.5-.1-.8-3.8-1.1-13.4-.2-13.4 0-.2 2.8 2.7 5.3 6.4 5.5 3.7.1 6.9-1.9 7.1-4.7z" fill="#ff6d00"/><path d="M45.2 26l-.5 8.2c-.1 1.8-2.4 3.1-5.2 2.9s-4.9-1.8-4.8-3.5l.5-8.2 10 .6zm7.7-4.6c0 1.8-1.4 3.3-2.6 3.4-1.3.1-1.8-1.2-2-3-.2-1.7.7-3.2 1.9-3.4 1.7 0 2.7 1.3 2.7 3z" fill="#f4b18c"/><path d="M50.1 6.8c.5-1.1.6-2.9-2-4.2.4 2.3-.8 2.1-2.2 1.6-2.1-.7-4.7-.9-7.4-.8-7.8.3-12.9 2.9-13.7 9.5.2 8.6 7.1 14.9 14.8 14.6 7.8-.3 13.2-4.3 13-13 0-3.5-1-6-2.5-7.7z" fill="#2b1407"/><path d="M28.8 12.3c-.6 1.7.4 14.7 2.2 16.6 1.8 2 8.9 4 11.2 3.9 1.6-.1 7-2.1 8.2-4.5 1.5-2.8 1-14.8.4-16.2-1.9-5-5.6-5.5-11.4-5.2-5.5.1-8.8 1.2-10.6 5.4z" fill="#ffc19f"/><path d="M41.7 24.9c.1 0 .1 0 .1-.1.1-.4.4-.7.8-.7.5 0 .8.3.9.7 0 .1.1.1.1.1.1 0 .1-.1.1-.1-.1-.6-.5-.9-1.1-.9s-1 .4-1.1.9c0 0 .1.1.2.1z" fill="#f4b18c"/><path d="M30.2 20.4c-.3 4.3-.7 3.6-2.1 3.7s-3.3-5.3-3.2-11.7c.4-1.3 4-3.3 4.6-3.6.4 2.5.8 9.6.7 11.6z" fill="#2b1407"/><path d="M45.4 19.7c-.7 1.3-.6 2.8.1 3.3 1.1.8 3.5.9 4.4-.3s.4-3.3-1.1-4.1c-1.3-.8-2.7-.2-3.4 1.1z" fill="#f9feff"/><path d="M50 19.2c-1.2-2-3.9-1.2-4.6.6.7-1.3 2.2-1.8 3.4-1.1.7.4 1.3 1.2 1.5 2.1.1.7 0 1.5-.3 2 .3-.3.9-2.1 0-3.6zm-4.3 1.4c-.3.9.1 1.9.9 2.3.8.3 1.7-.1 2-1s-.1-1.9-.9-2.3-1.7.1-2 1z"/><path d="M45.8 20.4c-.1.3 0 .5.3.6.2.1.5 0 .6-.3s0-.5-.3-.6c-.2-.1-.5.1-.6.3z" fill="#fefffe"/><path d="M39.1 19.9c.9 1.3.8 2.7.1 3.3-1.2.9-4 1.1-5.1 0-1-1.1-.6-3.3 1.1-4.2 1.4-.9 3-.4 3.9.9z" fill="#f9feff"/><path d="M33.8 19.6c1.3-2.1 4.4-1.4 5.3.3-.9-1.3-2.6-1.7-3.9-.9-.8.5-1.4 1.3-1.5 2.2-.1.7.1 1.5.5 2-.5-.3-1.3-2-.4-3.6z"/><circle cx="36.6" cy="21.5" r="1.8"/><circle cx="35.5" cy="20.9" r=".5" fill="#fefffe"/><path d="M49.8 16.9c-.1 0-.2-.1-.3-.2-.7-.8-2.2-1.1-3.4-.8-.3.1-.6-.1-.6-.4-.1-.3.1-.6.4-.6 1.6-.4 3.4 0 4.4 1.1.2.2.2.5 0 .7s-.4.2-.5.2zm-16 .2c-.1 0-.3 0-.4-.1-.2-.2-.2-.5 0-.7 1-1 2.8-1.5 4.4-1 .3.1.4.4.4.6-.1.3-.4.4-.6.4-1.2-.3-2.7 0-3.4.8-.2-.1-.3 0-.4 0zM48.3 2.6c.3 1.2-.3 2.2-1.3 3.1.7-1.5.7-3.4-1-5.8l-3.4 2.8c.1-.6.1-1.3-.1-2-1.8 2.5-3.8 2.4-10.1 4.1-4.4 1.1-5.2 4-4.6 5.7 3-.7 7.3.7 10.5.6 4-.1 7.1-.9 8.7-2.1 1.8-1.3 3.3-4.1 1.3-6.4z" fill="#2b1407"/><path d="M25.5 22c0 2.2 1.6 3.9 3.1 4.1 1.5.1 2.2-1.5 2.4-3.5s-.8-3.8-2.3-4c-2-.2-3.2 1.3-3.2 3.4z" fill="#ffc19f"/><path d="M46.1 27.4c.3 1.3-1.7 3.3-3.7 3.3-1.9 0-3.3-1.6-3.3-3 .1-.8 1.4-.6 3.3-.7s3.5-.4 3.7.4z"/><path d="M42.6 29.4c-.9 0-1.6.3-2 .7.5.3 1.2.6 1.9.6.8 0 1.6-.2 2.1-.8-.1-.4-1.2-.5-2-.5z" fill="#b71521"/><path d="M45.2 26.8c-.7-.2-1.7 0-2.6.1-1.1.1-1.9 0-2.5.1.3.6 1.2.9 2.4.8 1.4 0 2.5-.3 2.7-1z" fill="#fff"/><path d="M66.3 40.9c-1.3 1.8-1.5 2.7-1.5 4 .1 1.7 1.4 2.9 2.9 3.1.8.1 2.1-.1 4.4-1.5-.9-1.1-1.5-4.7-3.2-6.2-.6.9-1.9.6-2.6.6z" fill="#ffc19f"/><path d="M66.9 45.3c.8 1.9 3 2.2 4.5 1.2-.3-.3-.5-4-1.6-5-1.4-.7-2.1 1.1-2.5.7.6.9.6 2.2-.4 3.1z" fill="#e2a285"/><g fill="#ffc19f"><path d="M69.3 42.2c-.9.6-1.4 1.5-1.1 1.9s1.3.2 2.2-.4 1.4-1.5 1.1-1.9c-.3-.5-1.3-.3-2.2.4z"/><path d="M68.2 40.9c-.8.8-1.2 1.6-.8 2s1.3 0 2.2-.7c.8-.8 1.2-1.6.8-2s-1.3-.1-2.2.7zm2.2 2.6c-1 .5-1.6 1.4-1.3 1.8.3.5 1.3.4 2.3-.1s1.6-1.4 1.3-1.8c-.2-.5-1.3-.5-2.3.1z"/><path d="M70.8 45c-1 .3-1.7.9-1.6 1.4s1 .7 2 .4 1.7-.9 1.6-1.4c0-.5-.9-.6-2-.4z"/></g><path d="M69.8 42.4c-.2.6-.9 1.2-1.8.8-.8-.4-1.6-1.4-1.4-2s1.2-.7 2.2-.4c.8.4 1.2 1.1 1 1.6z" opacity=".2" fill="#541000"/><g fill="#ffc19f"><path d="M69.8 42.4c-.2.5-1.2.7-2.2.3S66 41.6 66.2 41c.2-.5 1.2-.7 2.2-.3 1 .5 1.6 1.2 1.4 1.7zM30.5 58.9l-6.3-8.7-3.5-1.6c-2.1.4-4 2.6-2.3 5 1.4 2 6 6 9.9 8.8.5.5 2.6-2.9 2.2-3.5z"/><path d="M35.7 64c.2 0 1.5-1.6.3-3.7-.6-1.1-2.8-1.9-5.7-1.4-.3 0 .1.5.3.8s3.5 4.5 3.3 3.9-.9-1.5.2-1.4c1.3.3 1 1.9 1.6 1.8z"/></g><path d="M35.6 62.9c-.5.4-3-2.1-2.6-2.5.5-.4 1.1-.1 1.8.5s1.2 1.6.8 2z" fill="#e2a285"/><path d="M32.9 59.2c.8.8.9 3.1 3.4 2.2.5-.2.8 1.5.2 2-.4.2 0 .5-.7 1-.4.3-.8.4-.9.6-.4.9-1.1.5-1.3.8-.3.5-.9.5-1.2.4-.9-.2-2.3-1.7-3.9-3.3-1-1 .1-3.5.5-3.7 1.8-.7 3.4-.5 3.9 0z" fill="#ffc19f"/><use xlink:href="#A" fill="#09598c"/><path d="M41.4 118.5v.7s11.5 1.6 13.2-.3c.1-.1.1-.2 0-.3-3 1-10.3.2-13.2-.1z" fill="#b3b3b3"/><path d="M48.3 111.2c-.1-.3-7.4.2-7.3.7l.1 2.1 7.4-1.1c0-.6-.1-1.5-.2-1.7z" opacity=".22" fill="#1c000b"/><use xlink:href="#B" fill="#e6e6e6"/><path d="M49.7 114.4c.1 0 .2-.1.2-.1 0-.1-.1-.2-.1-.2-.7-.1-1.5.3-1.9 1-.1.1 0 .2.1.2h.1c.1 0 .1 0 .1-.1.2-.5.9-.9 1.5-.8zm.9.4c.1 0 .2-.1.2-.2s-.1-.2-.2-.2c-.7 0-1.5.3-1.9.9-.1.1 0 .2 0 .2h.1s.1 0 .1-.1c.6-.5 1.4-.6 1.7-.6zm1.1 0c-.7-.1-1.5.3-2 .9-.1.1-.1.2 0 .2h.1s.1 0 .1-.1c.5-.5 1.2-.9 1.7-.8.1 0 .2-.1.2-.2 0 .1 0 0-.1 0z" fill="#e9edf4"/><use xlink:href="#A" x="-13.5" fill="#09598c"/><path d="M27.9 118.5v.7s11.5 1.6 13.2-.3c.1-.1.1-.2 0-.3-3.1 1-10.3.2-13.2-.1z" fill="#b3b3b3"/><path d="M34.8 111.2c-.1-.3-7.4.2-7.3.7l.1 2.1 7.4-1c0-.7-.1-1.6-.2-1.8z" opacity=".22" fill="#1c000b"/><use xlink:href="#B" x="-13.5" fill="#e6e6e6"/><path d="M36.2 114.4c.1 0 .2-.1.2-.1 0-.1-.1-.2-.1-.2-.7-.1-1.5.3-1.9 1-.1.1 0 .2.1.2h.1c.1 0 .1 0 .1-.1.2-.5.9-.9 1.5-.8zm.9.4c.1 0 .2-.1.2-.2s-.1-.2-.2-.2c-.7 0-1.5.3-1.9.9-.1.1 0 .2 0 .2h.1s.1 0 .1-.1c.6-.5 1.3-.6 1.7-.6zm1.1 0c-.7-.1-1.5.3-2 .9-.1.1-.1.2 0 .2h.1s.1 0 .1-.1c.5-.5 1.2-.9 1.7-.8.1 0 .2-.1.2-.2 0 .1-.1 0-.1 0z" fill="#e9edf4"/><defs><path id="A" d="M48.6 114.1c-.1-.3-.2-2.5-.3-2.9-.1-.3-7.4.2-7.3.7 0 1 .4 6.1.5 7.3 0 0 11.4 1.4 13.2-.4-.1-2.9-2.2-3.5-6.1-4.7z"/><path id="B" d="M48.6 111c-.1-.2-8 .2-8 .6 0 .3.1.9.1 1.7l8.1-.4c0-.7-.1-1.7-.2-1.9z"/></defs></svg>