<?xml version="1.0" encoding="utf-8"?>
<!-- Generator: Adobe Illustrator 19.0.0, SVG Export Plug-In . SVG Version: 6.00 Build 0)  -->
<svg version="1.1" id="Layer_1" xmlns="http://www.w3.org/2000/svg" xmlns:xlink="http://www.w3.org/1999/xlink" x="0px" y="0px"
	 width="69.6px" height="115px" viewBox="0 0 69.6 115" style="enable-background:new 0 0 69.6 115;" xml:space="preserve">
<style type="text/css">
	.st0{fill:#E2A355;}
	.st1{fill:#B02024;}
	.st2{fill:none;stroke:#371F0F;stroke-width:1.7803;stroke-linecap:round;stroke-linejoin:round;stroke-miterlimit:10;}
	.st3{fill:#E6E7E8;}
	.st4{fill:none;stroke:#371F0F;stroke-width:1.6528;stroke-linecap:round;stroke-linejoin:round;stroke-miterlimit:10;}
	.st5{fill:none;stroke:#371F0F;stroke-width:1.7575;stroke-miterlimit:10;}
	.st6{fill:#FFFFFF;}
	.st7{fill:#371F0F;}
	.st8{fill:#BD782A;}
	.st9{fill:none;stroke:#371F0F;stroke-width:1.7802;stroke-linecap:round;stroke-linejoin:round;stroke-miterlimit:10;}
	.st10{fill:none;stroke:#371F0F;stroke-width:1.1869;stroke-miterlimit:10;}
	.st11{fill:#C57A2A;}
	.st12{fill:#EFBC72;}
	.st13{opacity:0.75;}
	.st14{fill:#69DCFF;}
	.st15{fill:#020B3F;}
	.st16{fill:#D7A46E;}
	.st17{fill:#F3CCA5;}
	.st18{fill:#F6E1CB;}
	.st19{fill:none;stroke:#371F0F;stroke-width:1.8287;stroke-linecap:round;stroke-linejoin:round;stroke-miterlimit:10;}
	.st20{fill:none;}
	.st21{fill:none;stroke:#371F0F;stroke-width:1.7803;stroke-miterlimit:10;}
	.st22{fill:none;stroke:#020B3F;stroke-width:2.3737;stroke-linecap:round;stroke-linejoin:round;stroke-miterlimit:10;}
	.st23{fill:#ED1C24;}
	.st24{fill:#B71327;}
	.st25{fill:none;stroke:#F74854;stroke-width:0.5807;stroke-linecap:round;stroke-linejoin:round;stroke-miterlimit:10;}
	.st26{fill:none;stroke:#371F0F;stroke-width:1.0553;stroke-linecap:round;stroke-linejoin:round;stroke-miterlimit:10;}
	.st27{fill:#683113;}
	.st28{fill:#995728;}
</style>
<g id="XMLID_2055_">
	<g id="XMLID_2153_">
		<path id="XMLID_2156_" class="st0" d="M55.2,107.3c-0.7-0.5-1.4-1.1-2-1.7c-0.9-0.8-1.8-1.5-2.6-2.3c-3.7-3.4-5.7-5.8-7.5-7.2
			l0.1-0.1c2.2-0.6,4.4-2.4,5.7-5c1.5-3,1.4-6.2,0-8.5l0.1-0.2c3.2,2.3,6.3,4.7,9.3,7.3c2.5,2.3,5.1,4.6,6.9,7.5
			c0.2,0.3,0.3,0.6,0.5,1c0.2,0.5,0.6,1,0.8,1.6c0.2,0.5,0.5,1.1,0.6,1.6c0.3,1.1,0.5,2.2,0.4,3.3c-0.1,1.4-0.8,2.9-1.8,3.9
			c-0.8,0.8-1.7,1.4-2.8,1.6c-0.9,0.2-1.8,0.1-2.7-0.2C58.3,109.5,56.7,108.5,55.2,107.3z"/>
		<path id="XMLID_2155_" class="st1" d="M53.8,106c-0.8-0.7-1.5-1.4-2.2-2.1c-3.3-3.3-5.3-5-6.9-6.3c-0.1-0.1-0.1-0.1-0.2-0.2l0,0
			l-4.1-3.2c1.8-0.8,4.9-14.5,4.9-14.5l2.8,1.9c0,0,0,0,0,0C49,82.2,56,87,59.2,90c0.4,0.4,2.3,2,2.7,2.4c0.3,3.6-1.6,8.7-6.9,14.5
			C54.5,106.6,54.2,106.3,53.8,106z"/>
		<path id="XMLID_2154_" class="st2" d="M46,80.2c2.8,1.9,5.4,3.9,8.1,5.9c2.8,2.2,5.4,4.3,7.8,7c3.3,3.7,8.5,10.2,3.8,15
			c-0.7,0.7-1.7,1.3-2.7,1.5c-0.9,0.2-1.8,0.1-2.7-0.2c-1.8-0.5-3.5-1.5-5-2.6c-0.7-0.5-1.4-1.1-2-1.7c-0.9-0.8-1.8-1.5-2.6-2.3
			c-3.9-3.6-8.1-7-10-8.4"/>
	</g>
	<g id="XMLID_2149_">
		<path id="XMLID_2152_" class="st0" d="M34.7,70.5c4.2-5,8.5-12.8,8.5-12.8c-1.1-0.7-4.5-3.2-6.4-6l-0.3,0.4
			c-0.3,0.5-0.7,1.1-1.1,1.7c-2.3,3.4-8.8,12.5-16.8,15.2c-1.5,1.1-2.6,1.9-3.1,2.3c-0.6,0.4-1.3,0.9-1.9,1.4c0,0-0.1,0.1-0.1,0.1
			c-1.2,1.1-1.8,2.5-1.9,3.8c-0.1,1,0.2,1.9,0.6,2.7c0.2,0.4,0.5,0.8,0.9,1.1c0.9,0.8,2.1,1.4,3.7,1.4
			C23.5,81.7,29.9,76.3,34.7,70.5z"/>
		<path id="XMLID_2151_" class="st3" d="M42.9,58.4c0.2-0.3,0.1-0.5,0.1-0.6v0l0.2-0.1l0.4-1.9l-2.8-2.1l0,0l-3.7-2.9l-0.4,0.7
			c-1.3,2.2-2.2,3.6-3,4.8l-6.3,7.1c0,0,1,2.4,2.4,4.2c0.1,0.1,0.1,0.1,0.2,0.2c0.2,0.3,0.5,0.5,0.7,0.7c0,0,0,0,0,0
			c0.2,0.2,0.5,0.4,0.8,0.6c0.8,0.6,1.7,1.3,3,1.5c0.1,0,0.2,0,0.3,0C38.9,65.6,41.7,60.4,42.9,58.4z"/>
		<path id="XMLID_2150_" class="st4" d="M36.4,52.6c-3.7,6.3-9.2,12.1-15.5,15.5c-2.4,1.3-5.1,2.1-7.4,3.8c-2.7,2-3.5,5.8-0.7,8.2
			c2.5,2.1,6.3,1.3,9.1,0.2c2.4-0.9,4.4-2.4,6.4-4c4.1-3.3,7.7-7.3,10.7-11.8c1.8-2.6,3.3-5.5,4.4-8.4"/>
	</g>
	<g id="XMLID_2144_">
		<path id="XMLID_2148_" class="st3" d="M57.3,80c0.1-0.3,0.1-0.6,0.1-1c0.2-1.3,0.3-2.6,0.4-3.9l0,0l0,0c0.1-1.2,0-2.5,0-3.7
			c0-0.4,0-0.7-0.1-1.1c-0.1-0.9-0.1-1.8-0.3-2.7c0-0.3-0.1-0.7-0.1-1c-0.2-1.2-0.4-2.3-0.7-3.4c0-0.1,0-0.1,0-0.1
			c-0.3-1.1-0.6-2.1-0.9-3.1c-0.1-0.3-0.2-0.6-0.3-0.9c-0.3-0.8-0.6-1.6-1-2.3c-0.1-0.3-0.2-0.5-0.4-0.8c-0.5-1-1-1.9-1.5-2.8
			c0-0.1-0.1-0.1-0.1-0.2c-0.5-0.8-1.1-1.6-1.6-2.4c-0.2-0.2-0.4-0.5-0.5-0.7c-0.5-0.6-1-1.2-1.5-1.8c-0.1-0.1-0.2-0.3-0.3-0.4l0,0
			c-0.1-0.1-0.2-0.2-0.3-0.2c-0.2-0.2-0.4-0.4-0.6-0.6c-0.2-0.2-0.4-0.4-0.6-0.5l0,0c-2.7-2.4-5.9-4.2-9.3-5.2
			c-1.4-0.4-2.9-0.6-4.5-0.7c-5.2-0.2-10,1.5-14.2,4.5l0,0c-0.1,0.1-0.2,0.2-0.4,0.3c-0.7,0.5-1.3,1.1-2,1.7
			c-0.2,0.2-0.4,0.4-0.6,0.6c-0.1,0.1-0.3,0.3-0.4,0.4l0,0c-0.2,0.2-0.4,0.5-0.7,0.8c-0.6,0.7-1.2,1.3-1.7,2.1
			c-0.2,0.2-0.3,0.4-0.5,0.6c-0.3,0.4-0.6,0.8-0.9,1.3c-0.1,0.2-0.3,0.4-0.4,0.6c-0.6,1-1.2,2-1.7,3c-0.1,0.2-0.2,0.4-0.3,0.6
			c-0.4,0.9-0.8,1.8-1.2,2.7C8,60,7.9,60.3,7.8,60.6c-0.1,0.2-0.2,0.5-0.3,0.7l0,0c-0.3,0.9-0.6,1.8-0.8,2.8c0,0.1,0,0.2-0.1,0.2
			c-0.3,1.1-0.5,2.3-0.7,3.5c-0.1,0.3-0.1,0.6-0.1,1c-0.2,1.3-0.3,2.6-0.4,3.9l0,0l0,0c-0.1,1.2,0,2.5,0,3.7c0,0.4,0,0.7,0.1,1.1
			c0.1,0.9,0.1,1.8,0.3,2.7c0,0.3,0.1,0.7,0.1,1c0.2,1.2,0.4,2.3,0.7,3.4c0,0.1,0,0.1,0,0.1c0.3,1.1,0.6,2.1,0.9,3.1
			c0.1,0.3,0.2,0.6,0.3,0.9c0.3,0.8,0.6,1.6,1,2.3c0.1,0.3,0.2,0.5,0.4,0.8c0.5,1,1,1.9,1.5,2.8c0,0.1,0.1,0.1,0.1,0.2
			c0.5,0.8,1.1,1.6,1.6,2.4c0.2,0.2,0.4,0.5,0.5,0.7c0.5,0.6,1,1.2,1.5,1.8c0.1,0.1,0.2,0.3,0.3,0.4l0,0c0.1,0.1,0.2,0.2,0.3,0.2
			c0.2,0.2,0.4,0.4,0.6,0.6c0.2,0.2,0.4,0.4,0.6,0.5l0,0c2.7,2.4,5.9,4.2,9.3,5.2c1.4,0.4,2.9,0.6,4.5,0.7c5.2,0.2,10-1.5,14.2-4.5
			l0,0c0.1-0.1,0.2-0.2,0.4-0.3c0.7-0.5,1.3-1.1,2-1.7c0.2-0.2,0.4-0.4,0.6-0.6c0.1-0.1,0.3-0.3,0.4-0.4l0,0
			c0.2-0.2,0.4-0.5,0.7-0.8c0.6-0.7,1.2-1.3,1.7-2.1c0.2-0.2,0.3-0.4,0.5-0.6c0.3-0.4,0.6-0.8,0.9-1.3c0.1-0.2,0.3-0.4,0.4-0.6
			c0.6-1,1.2-2,1.7-3c0.1-0.2,0.2-0.4,0.3-0.6c0.4-0.9,0.8-1.8,1.2-2.7c0.1-0.3,0.2-0.6,0.3-0.9c0.1-0.2,0.2-0.5,0.3-0.7l0,0
			c0.3-0.9,0.6-1.8,0.8-2.8c0-0.1,0-0.2,0.1-0.2C56.9,82.4,57.1,81.2,57.3,80z"/>
		<path id="XMLID_2147_" class="st1" d="M5.4,76.4c0.6,14.9,8.9,27.3,20.2,30.3c1.4,0.4,2.9,0.6,4.5,0.7c6.6,0.3,12.8-2.6,17.7-7.5
			l0,0c1-1,2-2.2,2.9-3.4c2.1-2.9,3.8-6.2,5.1-9.9l0,0c0.8-2.4,1.4-4.9,1.7-7.5C31.9,87.6,10.7,78.9,5.4,76.4z"/>
		<path id="XMLID_2146_" class="st5" d="M57.8,71.5c0-0.4,0-0.7-0.1-1.1c-0.1-0.9-0.1-1.8-0.3-2.7c0-0.3-0.1-0.7-0.1-1
			c-0.2-1.2-0.4-2.3-0.7-3.4c0-0.1,0-0.1,0-0.1c-0.3-1.1-0.6-2.1-0.9-3.1c-0.1-0.3-0.2-0.6-0.3-0.9c-0.3-0.8-0.6-1.6-1-2.3
			c-0.1-0.3-0.2-0.5-0.4-0.8c-0.5-1-1-1.9-1.5-2.8c0-0.1-0.1-0.1-0.1-0.2c-0.5-0.8-1.1-1.6-1.6-2.4c-0.2-0.2-0.4-0.5-0.5-0.7
			c-0.5-0.6-1-1.2-1.5-1.8c-0.1-0.1-0.2-0.3-0.3-0.4c-0.1-0.1-0.2-0.2-0.3-0.2c-0.2-0.2-0.4-0.4-0.6-0.6c-0.2-0.2-0.4-0.4-0.6-0.5
			c-2.7-2.4-5.9-4.2-9.3-5.2c-1.4-0.4-2.9-0.6-4.5-0.7c-5.2-0.2-10,1.5-14.3,4.5c-0.1,0.1-0.2,0.2-0.4,0.3c-0.7,0.5-1.3,1.1-2,1.7
			c-0.2,0.2-0.4,0.4-0.6,0.6c-0.1,0.1-0.3,0.3-0.4,0.4c-0.2,0.2-0.4,0.5-0.7,0.8c-0.6,0.7-1.2,1.3-1.7,2.1c-0.2,0.2-0.3,0.4-0.5,0.6
			c-0.3,0.4-0.6,0.8-0.9,1.3c-0.1,0.2-0.3,0.4-0.4,0.6c-0.6,1-1.2,2-1.7,3c-0.1,0.2-0.2,0.4-0.3,0.6c-0.4,0.9-0.8,1.8-1.2,2.7
			C8,60,7.9,60.3,7.8,60.6c-0.1,0.2-0.2,0.5-0.3,0.7c-0.3,0.9-0.6,1.8-0.8,2.8c0,0.1,0,0.2-0.1,0.2c-0.3,1.1-0.5,2.3-0.7,3.5
			c-0.1,0.3-0.1,0.6-0.1,1c-0.2,1.3-0.3,2.6-0.4,3.9c-0.1,2.4,0,4.8,0.3,7.1c0,0.1,0,0.2,0,0.3c0,0.3,0.1,0.7,0.1,1
			c0,0.1,0,0.2,0.1,0.3c0.1,0.8,0.3,1.5,0.4,2.3c0.1,0.3,0.1,0.6,0.2,0.8c0,0.1,0,0.1,0,0.1c0.1,0.3,0.2,0.6,0.3,0.9
			c0.2,0.7,0.4,1.3,0.6,1.9c0,0.1,0.1,0.2,0.1,0.3c0.1,0.3,0.2,0.6,0.3,0.9c0,0,0,0.1,0,0.1c0.3,0.7,0.5,1.4,0.8,2
			c0,0.1,0.1,0.1,0.1,0.2c0,0.1,0.1,0.1,0.1,0.2c0.1,0.2,0.2,0.4,0.3,0.6c0,0.1,0.1,0.1,0.1,0.2c0.4,0.8,0.8,1.5,1.2,2.2
			c0.1,0.1,0.1,0.3,0.2,0.4c0,0.1,0.1,0.1,0.1,0.2c0.1,0.1,0.2,0.2,0.2,0.3c0.4,0.6,0.8,1.2,1.3,1.8c0,0.1,0.1,0.1,0.1,0.2
			c0,0,0.1,0.1,0.1,0.1c0.7,0.9,1.4,1.7,2.1,2.5c0.1,0.1,0.1,0.2,0.2,0.2c0.1,0.1,0.2,0.2,0.3,0.2c0.2,0.2,0.4,0.4,0.6,0.6
			c0.1,0.1,0.3,0.2,0.4,0.4c0.1,0.1,0.1,0.1,0.2,0.2c0.7,0.6,1.4,1.2,2.2,1.7c0.7,0.5,1.3,0.9,2,1.3c0.1,0.1,0.2,0.1,0.4,0.2
			c0.6,0.3,1.2,0.6,1.9,0.9c0.2,0.1,0.3,0.2,0.5,0.2c0.8,0.3,1.6,0.6,2.4,0.8c0.8,0.2,1.5,0.4,2.3,0.5c0.7,0.1,1.4,0.2,2.1,0.2
			c0.7,0,1.5,0,2.2,0c0.2,0,0.5,0,0.7-0.1c0.5,0,1-0.1,1.4-0.2c0.3,0,0.6-0.1,0.9-0.2c0.4-0.1,0.8-0.2,1.3-0.3
			c0.3-0.1,0.6-0.2,0.9-0.3c0.5-0.2,1-0.4,1.6-0.6c0.5-0.2,1-0.4,1.5-0.7c0.2-0.1,0.4-0.2,0.6-0.3c0.4-0.2,0.9-0.5,1.3-0.7
			c0.2-0.1,0.3-0.2,0.5-0.3c0.4-0.3,0.9-0.6,1.4-0.9c0.1-0.1,0.2-0.2,0.4-0.3c0.7-0.5,1.3-1.1,2-1.7c0.2-0.2,0.4-0.4,0.6-0.6
			c0.1-0.1,0.3-0.3,0.4-0.4c0.2-0.2,0.4-0.5,0.7-0.8c0.6-0.7,1.2-1.3,1.7-2.1c0.2-0.2,0.3-0.4,0.5-0.6c0.3-0.4,0.6-0.8,0.9-1.3
			c0.1-0.1,0.1-0.2,0.2-0.3c0.7-1.1,1.3-2.2,1.9-3.3c0.1-0.2,0.2-0.4,0.3-0.6c0.4-0.9,0.8-1.8,1.2-2.7c0.1-0.2,0.1-0.4,0.2-0.6
			c0.1-0.4,0.3-0.7,0.4-1.1c0.3-0.9,0.6-1.8,0.8-2.8c0-0.1,0-0.2,0.1-0.2c0-0.1,0-0.2,0.1-0.3c0.1-0.5,0.2-1.1,0.3-1.6
			c0.1-0.5,0.2-1,0.3-1.6c0.1-0.3,0.1-0.6,0.1-1c0.2-1.3,0.3-2.6,0.4-3.9C57.8,73.9,57.8,72.7,57.8,71.5z"/>
		<path id="XMLID_2145_" class="st6" d="M47.9,52.2c0,0,1.1,1.4,2.2,3.6c1.2,2.2,2.3,5.4,2.9,8.6c0.2,0.8,0.2,1.6,0.3,2.4
			c0.1,0.8,0.1,1.6,0.1,2.4c0.1,0.8,0,1.5-0.1,2.2c0,0.7-0.1,1.4-0.2,2c-0.1,1.2-0.4,2.2-0.6,2.9c-0.2,0.7-0.3,1.1-0.3,1.1
			s0.1-0.4,0.2-1.1c0.1-0.7,0.3-1.7,0.3-2.9c0-0.6,0.1-1.3,0-2c0-0.7,0-1.4-0.1-2.2c-0.1-0.7-0.1-1.5-0.3-2.3
			c-0.2-0.8-0.3-1.6-0.5-2.3c-0.8-3.1-2.2-6-3.5-7.9c-1.3-2-2.3-3.1-2.3-3.1L47.9,52.2z"/>
	</g>
	<g id="XMLID_2140_">
		<path id="XMLID_2143_" class="st0" d="M15.2,110.5c0.7-0.5,1.3-1.1,2-1.7c0.9-0.8,1.8-1.6,2.5-2.3c3.6-3.5,5.5-6,7.3-7.5l-0.1-0.1
			c-2.3-0.5-4.4-2.2-5.8-4.8c-1.5-2.9-1.5-6.2-0.3-8.5l-0.1-0.2c-3.1,2.4-6.2,4.8-9.1,7.5c-2.5,2.3-5,4.7-6.6,7.7
			c-0.2,0.3-0.3,0.6-0.5,1c-0.2,0.5-0.5,1-0.8,1.6c-0.2,0.5-0.4,1.1-0.6,1.7c-0.3,1.1-0.5,2.2-0.3,3.3c0.1,1.4,0.9,2.9,1.9,3.9
			c0.8,0.8,1.7,1.3,2.8,1.5c0.9,0.1,1.8,0,2.7-0.2C12.1,112.7,13.7,111.7,15.2,110.5z"/>
		<path id="XMLID_2142_" class="st1" d="M16.5,109.1c0.8-0.7,1.5-1.4,2.2-2.1c3.2-3.4,5.2-5.1,6.7-6.5c0.1-0.1,0.1-0.1,0.2-0.2l0,0
			l4-3.3c-1.9-0.7-5.4-14.3-5.4-14.3l-2.8,2c0,0,0,0,0,0c-0.8,0.6-7.7,5.5-10.8,8.7c-0.4,0.4-3,3.6-3.4,4c-0.2,3.6,4.4,9.1,8.5,12.6
			C16.2,109.6,16.1,109.4,16.5,109.1z"/>
		<path id="XMLID_2141_" class="st2" d="M20.6,85.3c-1.7,1.3-3.3,2.6-4.9,3.9c-2.7,2.3-5.3,4.5-7.6,7.2c-3.2,3.8-8.2,10.5-3.4,15.1
			c0.8,0.7,1.7,1.2,2.7,1.4c0.9,0.1,1.8,0,2.7-0.3c1.8-0.5,3.5-1.6,4.9-2.8c0.7-0.5,1.4-1.1,2-1.7c0.9-0.8,1.8-1.6,2.6-2.3
			c2.2-2.1,6.6-6.1,8.5-7.7"/>
	</g>
	<g id="XMLID_2136_">
		<path id="XMLID_2139_" class="st0" d="M48.6,69.3c0,0-0.1-0.1-0.1-0.1c-0.6-0.6-1.3-1-1.9-1.5c-2.3-1.5-4.9-2.3-8.3-4.8
			c-0.4,0.4-1.2,0-2.5-1.9c0,0-3.9-3.7-7.1-8c-2.4,2.6-7.4,3.8-8.8,4.1c1.5,2.9,4.3,7.7,7,11.1c4.7,6,11.1,11.6,18.1,11.2
			c1.6-0.1,2.9-0.8,3.8-1.8c0.4-0.4,0.7-0.8,0.9-1.3c0.5-0.9,0.8-2,0.7-3C50.4,71.9,49.8,70.5,48.6,69.3z"/>
		<path id="XMLID_2138_" class="st3" d="M31.9,57.5c-0.3-0.5-0.6-1-0.8-1.5c-0.8-1.1-1.5-2-2.3-3.1c-2.4,2.7-7.5,3.9-8.9,4.2
			c1.3,2.4,3.3,6,6.1,9.7l-0.3,0.3l0.8,0.3c0.2,0.3,0.4,0.5,0.6,0.8c0.1,0,0.1,0,0.2,0c0.1,0,0.2-0.1,0.4-0.1l0.2,0.1
			c0,0,7.1-2.6,5.6-8.4C33.1,58.6,32.5,57.9,31.9,57.5z"/>
		<path id="XMLID_2137_" class="st2" d="M20.1,57.5c1.6,2.9,4.2,7.4,6.7,10.7c4.7,6,11.1,11.6,18.1,11.2c1.6-0.1,2.9-0.8,3.8-1.8
			c0.4-0.4,0.7-0.8,0.9-1.3c0.5-0.9,0.8-2,0.7-3c-0.1-4.9-5.3-6.3-8.7-8.1c-4.1-2.2-7.6-5.3-10.5-8.9c-0.4-0.5-0.8-1-1.1-1.5"/>
	</g>
	<path id="XMLID_2133_" class="st7" d="M16.1,6.9"/>
	<polyline id="XMLID_2132_" class="st0" points="19.7,12.5 19.6,9.8 19.6,9.3 19.8,8.3 	"/>
	<path id="XMLID_2131_" class="st0" d="M49.8,11.9c0.1-0.1,0.1-0.3,0.2-0.4c0.5-0.9,0.9-1.9,1-3.1c0.1-3-1.6-5.5-3.8-5.6
		C45,2.7,43.1,5.1,43,8c-0.1,1.1,0.1,0.9,0.5,1.8c-1.2-0.5-3.1-0.5-4.9-0.9c-3.3-0.9-7.2-0.7-10.5-0.2c-0.5,0.1-7,1.6-6.9,2.1
		c-0.1-0.3-0.2-0.7-0.3-0.9c-1.2-2.8-4.1-4.2-6.5-3.2c-2.4,1.1-3.4,4.2-2.2,7c0.2,0.5,0.5,0.9,0.8,1.3c0.3,0.4,0.6,0.7,1,1
		c0.1,0.1,0.1,0.1,0.2,0.2c0,0,0.1,0,0.1,0.1c0,0,0,0.1,0.1,0.1c-2.9,2.4-11.9,12.1,1.8,30.8c0.1,0.1,0.2,0.2,0.3,0.2
		c4.1,1.7,10.8,3.7,19.1,3.5c4.8-0.1,9-0.9,12.1-1.9l1.2-0.2c0.2,0,0.4-0.1,0.7-0.2c0.2-0.1,0.4-0.2,0.6-0.3
		c0.2-0.1,0.4-0.3,0.6-0.4c0.1,0,0.1-0.1,0.1-0.1c0.5-0.3,1.3-1.3,1.3-1.3s1-1.3,1.4-1.9c0.2-0.2,0.3-0.4,0.2-0.4
		c0.9-1.3,1.5-2.7,2.1-4.1c1.2-2.7,1.9-5.7,2.1-8.9C58.2,23.5,55,16.5,49.8,11.9z"/>
	<path id="XMLID_2130_" class="st8" d="M42.9,9.9l0.3,0.1l0,0l1.5,0.6c0.3-5.3,5.8-6.7,5.8-6.7C43.7-0.3,43,9.1,42.9,9.9z"/>
	<path id="XMLID_2129_" class="st9" d="M49.1,48.9c1.2-0.4,2.1-1.3,2.9-2.3c1.5-1.9,2.8-4.1,3.7-6.4c1.2-2.7,1.9-5.7,2.1-8.9
		c0.4-7.8-3.1-14.1-8.3-18.7"/>
	<path id="XMLID_2128_" class="st9" d="M21.1,10.9c2.4-1.1,7.7-3.2,14.5-2.7c6.9,0.5,11.8,3.3,14,4.7"/>
	<path id="XMLID_2127_" class="st10" d="M50.5,8.6"/>
	<path id="XMLID_2126_" class="st8" d="M20.5,48.3c-11.8-15-4-31.7-4-31.7s-2.9-3.6-2.1-6.8c0.8-3,4-2.5,4-2.5
		C18.4,7.1,18.1,7,18,6.9c-1.2-0.5-2.5-0.6-3.7-0.1c-2.4,1.1-3.4,4.2-2.2,7c0.2,0.5,0.5,0.9,0.8,1.3c0.3,0.4,0.6,0.7,1,1
		c0.1,0.1,0.2,0.1,0.2,0.2c0,0,0.1,0.1,0.1,0.1c0,0,0.1,0,0,0.1c0,0,0,0-0.1,0c0,0-0.1,0.1-0.1,0.1c-0.1,0.1-0.2,0.2-0.3,0.2
		c-0.2,0.2-0.4,0.4-0.6,0.5c-0.2,0.2-0.4,0.4-0.6,0.7c-0.2,0.3-0.4,0.5-0.6,0.8c-0.2,0.3-0.4,0.6-0.7,0.9c-0.2,0.3-0.4,0.7-0.6,1
		c-0.2,0.4-0.4,0.8-0.6,1.2c-0.2,0.4-0.4,0.9-0.5,1.3c-0.2,0.5-0.3,0.9-0.4,1.4c-0.1,0.2-0.1,0.5-0.2,0.7C9,25.8,9,26,8.9,26.3
		c-0.3,2.8,0,5.6,0.6,8.2c1,3.6,2.9,7.8,6.4,12.6l0,0l0.1,0.2c0,0,0,0,0,0l0.2,0.2l0.1,0l0,0l0,0c0.1,0,0.2,0,0.3,0.1l0.4,0.1l0,0
		c1.1,0.2,2.2,0.4,3.2,0.6C20.4,48.3,20.5,48.3,20.5,48.3z"/>
	<path id="XMLID_2123_" class="st7" d="M46.4,9.3"/>
	<path id="XMLID_2120_" class="st11" d="M36.8,23.6c0.2,2.9-1.3,5.5-3.5,5.7s-4.1-2-4.4-5s1.3-5.5,3.5-5.7S36.5,20.6,36.8,23.6z"/>
	<path id="XMLID_2117_" class="st7" d="M37.1,23.5c0.2,2.9-1.3,5.5-3.5,5.7c-2.2,0.2-4.1-2-4.4-5c-0.2-2.9,1.3-5.5,3.5-5.7
		S36.9,20.5,37.1,23.5z"/>
	<path id="XMLID_2116_" class="st6" d="M36.4,22.9c0.2,1.9-0.3,3.5-1.3,3.6c-0.9,0.1-1.9-1.3-2.1-3.2c-0.2-1.9,0.3-3.5,1.3-3.6
		C35.2,19.6,36.2,21.1,36.4,22.9z"/>
	<path id="XMLID_2113_" class="st11" d="M52.6,24.1c-1.6-0.1-3.2,0-5,0.1c-0.7-0.9-1.2-2.1-1.4-3.5c-0.2-2.8,1.2-5.3,3.2-5.4
		c2-0.2,3.8,2,4.1,4.8C53.7,21.6,53.3,23.1,52.6,24.1z"/>
	<path id="XMLID_2110_" class="st7" d="M52.9,24.1c-1.6-0.1-3.2,0-5,0.1c-0.7-0.9-1.2-2.1-1.4-3.5c-0.2-2.8,1.2-5.3,3.2-5.4
		c2-0.2,3.8,2,4.1,4.8C54,21.6,53.6,23.1,52.9,24.1z"/>
	<path id="XMLID_2109_" class="st6" d="M53.3,19.2c0.2,1.7-0.3,3.1-1.1,3.3c-0.8,0.1-1.7-1.2-1.9-2.9c-0.2-1.7,0.3-3.1,1.1-3.3
		C52.2,16.2,53,17.5,53.3,19.2z"/>
	<path id="XMLID_2106_" class="st7" d="M35.4,15.7"/>
	<path id="XMLID_2105_" class="st12" d="M48.5,3.5c0,0,5.6,1.5,0.6,8.5C49.1,12,51.2,6.6,48.5,3.5z"/>
	<g id="XMLID_2098_" class="st13">
		<path id="XMLID_2104_" class="st6" d="M29.8,16c-0.1,0-0.2,0-0.4,0l-5.3,12.4c0.9,1.2,2.1,2.2,3.6,2.8l6.5-15.4L29.8,16z"/>
		<g id="XMLID_2100_">
			<path id="XMLID_2103_" class="st14" d="M38.3,15.6l-1.6,0.1l-2.5,0.1l-6.5,15.4c0.7,0.3,1.5,0.7,2.2,0.8c0.2,0,0.5,0.3,0.7,0.3
				c0.1,0,0.1,0,0.2,0c0,0,0.1-0.3,0.1-0.3c0.2,0,0.4-0.2,0.6-0.2c2.8-0.4,5.1-2.6,5.7-5.5l0.4-1.9c0.2-1.7,1-2.5,2.4-2.6
				c1.3-0.1,2.2,0.7,2.5,2.4l0.1,0.4c0.2,0.9,0.5,1.7,0.9,2.4l5.1-12L38.3,15.6z"/>
			<path id="XMLID_2102_" class="st14" d="M22.7,23.8l0,0.2c0.1,1.6,0.6,3.1,1.5,4.4L29.4,16C25.5,16.4,22.5,19.8,22.7,23.8z"/>
			<path id="XMLID_2101_" class="st14" d="M57.5,22.7c-0.1-1.7-0.6-3.2-1.5-4.4c-0.3-0.4-0.7-0.8-1.1-1.2c-0.5-0.5-1.2-0.9-1.8-1.3
				L47,30.4c0.6,0.3,1.3,0.5,2.1,0.6c0.3,0,0.6,0.1,0.9,0.1c0.2,0,0.5,0,0.7-0.1C54.6,30.4,57.6,26.9,57.5,22.7z"/>
		</g>
		<path id="XMLID_2099_" class="st6" d="M49.4,15.1C49.4,15.1,49.4,15.1,49.4,15.1l-0.7,0l-5.1,12c0.8,1.4,1.9,2.6,3.4,3.3l6.1-14.5
			C52,15.3,50.7,15,49.4,15.1z"/>
	</g>
	<path id="XMLID_2095_" class="st15" d="M59.8,19.2l-1.2,0c-0.4-1.1-1-2-1.8-2.9c-0.2-0.2-0.4-0.4-0.6-0.6c-0.2-0.2-0.4-0.3-0.6-0.5
		c-0.6-0.5-1.2-0.9-1.9-1.2c-1.3-0.6-2.8-1-4.3-0.9c-0.1,0-0.1,0-0.2,0c0,0,0,0-0.1,0l-10.7,0.5l-1,0l-3.1,0.1l-4.2,0.2l-0.5,0
		c-2.5,0.1-4.7,1.2-6.4,3c-0.9,1-1.5,2.1-1.9,3.3L20,20.5c-0.7,0-1.2,0.6-1.1,1.2l0.2,4.4c0,0.7,0.6,1.2,1.2,1.2l1.2,0
		c0.4,1.1,1.1,2.2,1.9,3.1c0.2,0.2,0.3,0.4,0.5,0.5c0.9,0.9,2,1.6,3.1,2c1.2,0.5,2.4,0.7,3.7,0.7c0.1,0,0.1,0,0.2,0c0,0,0.1,0,0.1,0
		c3.9-0.2,7.2-3,8-6.9l0.4-1.9l0-0.1l0-0.1c0.1-0.5,0.2-0.8,0.3-0.9c0-0.1,0.2-0.1,0.3-0.1c0.2,0,0.3,0,0.3,0.1c0,0,0.2,0.2,0.3,0.8
		l0,0l0,0l0.1,0.5c0.4,1.5,1,2.9,1.8,4c0.3,0.5,0.7,0.9,1.1,1.3c0.7,0.7,1.5,1.2,2.4,1.6c0.7,0.3,1.4,0.5,2.1,0.6
		c0.5,0.1,1,0.1,1.5,0.1c0,0,0.1,0,0.1,0l0,0l0,0c2.6-0.1,5-1.2,6.7-3.2c1-1,1.7-2.3,2.1-3.6l1.2,0c0.7,0,1.2-0.6,1.1-1.2L61,20.4
		C61,19.7,60.4,19.2,59.8,19.2z M50.6,30.9c-0.2,0-0.5,0-0.7,0.1c-0.3,0-0.6,0-0.9-0.1c-0.8-0.1-1.5-0.3-2.1-0.6
		c-1.5-0.7-2.6-1.8-3.4-3.3c-0.4-0.7-0.7-1.6-0.9-2.4l-0.1-0.5c-0.3-1.7-1.2-2.4-2.5-2.4c-1.3,0.1-2.1,0.9-2.4,2.6l-0.4,1.9
		c-0.6,2.9-2.9,5-5.7,5.4c-0.2,0-0.4,0-0.6,0.1c0,0-0.1,0-0.1,0c-0.1,0-0.1,0-0.2,0c-0.2,0-0.5,0-0.7,0c-0.8-0.1-1.5-0.2-2.2-0.5
		c-1.4-0.6-2.7-1.5-3.6-2.8c-0.9-1.2-1.4-2.8-1.5-4.4l0-0.2c-0.2-4,2.8-7.5,6.8-7.8c0.1,0,0.2,0,0.4,0l4.5-0.2l2.5-0.1l1.6-0.1
		l10.3-0.5l0.7,0c0,0,0,0,0,0c1.3-0.1,2.6,0.2,3.7,0.8c0.7,0.3,1.3,0.8,1.8,1.3c0.4,0.4,0.7,0.8,1.1,1.2c0.9,1.2,1.5,2.7,1.5,4.4
		C57.6,26.9,54.6,30.4,50.6,30.9z"/>
	<path id="XMLID_2092_" class="st16" d="M32.5,33.8l1.4-0.2c0,0-1.3,4.2,1.4,7.5c2.7,3.3,8.9,5.6,8.9,5.6L43.3,47l-6.1-2.1L34.7,43
		l-2-3.2l-0.7-3.3l0.1-1.9l0.2-0.8L32.5,33.8z"/>
	<path id="XMLID_2091_" class="st7" d="M59.2,24.9"/>
	<path id="XMLID_2088_" class="st17" d="M61.7,28.3c-1.7-3.8-6.6-5.6-12-4.9l0-0.1c0,0-0.2,0-0.5,0.1c-1.5,0.2-3,0.7-4.6,1.3
		c-5.4,1.9-13,5.7-12.3,12.3c0,1.1,0.2,4.7,3.8,7.2c0.3,0.2,0.5,0.4,0.8,0.6c0.3,0.2,0.7,0.4,1.1,0.6c0.1,0,0.2,0.1,0.3,0.1
		c0.2,0.1,0.4,0.1,0.5,0.2c0.2,0.1,0.5,0.1,0.7,0.2c0.2,0.1,0.4,0.1,0.6,0.2c0.2,0.1,0.5,0.1,0.7,0.2c0.3,0.1,0.6,0.1,0.9,0.2
		c0.1,0,0.2,0,0.4,0c7.4,1,13.1-3.6,14.8-5.2C61.5,37.5,63.6,32.3,61.7,28.3z"/>
	<path id="XMLID_2087_" class="st7" d="M42.3,39.7c0,0,3.9,4.4,14,2.1l4.1-5.6l-0.4,0c0,0-2.4-0.2-4-4.1
		C56,32.1,50.5,40.2,42.3,39.7z"/>
	<path id="XMLID_2084_" class="st18" d="M44.5,25.4c0,0,0.4,1-0.1,1.9c-0.5,0.9,2.9,0.1,2.9,0.1l4.8-0.8c0,0,0.3-0.1,0.7-0.4
		s1-1,1.7-1.2s1.8-0.3,1.8-0.3s0.3-0.2-0.1-0.3c-0.3-0.1-4.2-0.4-11.3,0.6C44.7,25.2,44.5,25.3,44.5,25.4z"/>
	<path id="XMLID_2083_" class="st7" d="M57.6,23.4c-0.3-0.1-0.5-0.1-0.8-0.2C56,23,55.2,23,54.4,22.9c-1.3-0.1-2.7,0-4,0.1
		c-1.1,0.1-2.2,0.2-3.3,0.4c-1,0.2-2.1,0.3-3.1,0.7c-0.4,0.2-0.9,0.4-1.3,0.5c-1,0.4-1.9,0.9-2.8,1.5c-0.6,0.4-1.2,0.8-1.8,1.2
		l0,0.6c0.2-0.1,0.3-0.2,0.5-0.3c1.6-0.9,3.3-1.6,5-2.2c1.9-0.6,3.8-0.8,5.7-1c1.6-0.1,3.3-0.2,4.9-0.2c1.2,0,2.6,0.1,3.6,0.7
		c0,0,0.1,0.1,0.1,0.1c1.9,1.2,6,5,1.8,11.7c-1.1,1.7-2.6,3.6-4.9,5.6c-0.5,0.5-1.1,1-1.8,1.5c-2.7,1.9-7.4,3.8-13.7,1.9
		c-1-0.4-2-0.9-3-1.6c-6-4.3-3.6-10.8-3.6-10.8l-1.4,0.3c-0.1,0.6-0.2,1.7-0.2,2.4c0,0,0,0.1,0,0.1c0.2,2.1,1.1,4.3,2,5.8
		c2,3.4,6.1,6.8,13.9,5.8c3.1-0.6,12.6-3.4,16-14.8C63.3,32.8,65.1,25.4,57.6,23.4z"/>
	<path id="XMLID_2082_" class="st15" d="M39.1,26.7l0-0.1l-2.3,1.2c-1,2.1-2.9,3.6-5.2,3.9c-0.2,0-0.4,0-0.6,0.1c0,0-0.1,0-0.1,0
		c-0.1,0-0.1,0-0.2,0c-0.2,0-0.5,0-0.7,0c0,0,0,0-0.1,0l-0.3,1.8c0.4,0,0.7,0.1,1.1,0.1c0.1,0,0.1,0,0.2,0c0,0,0.1,0,0.1,0
		C35,33.4,38.3,30.5,39.1,26.7z"/>
	<path id="XMLID_2081_" class="st19" d="M42.2,9c0,0,0.6-7.6,6.5-5.9c6,1.7,1.3,9.1,1.3,9.1"/>
	<g id="XMLID_2078_">
		<path id="XMLID_50_" class="st20" d="M16.2,15.6"/>
	</g>
	<path id="XMLID_2077_" class="st21" d="M16.2,15.6"/>
	<path id="XMLID_2076_" class="st2" d="M14.3,16.5c-2.1-1.6-3.3-4.3-2.3-6.8c0.5-1.3,1.3-2.4,2.7-2.9c1.2-0.4,2.5-0.4,3.7,0.3
		c1.4,0.8,2.2,2.4,2.8,3.8"/>
	<g id="XMLID_2073_">
		<path id="XMLID_34_" class="st20" d="M20.5,48.3"/>
	</g>
	<path id="XMLID_2072_" class="st2" d="M14.2,16.6C10,20.2,8.5,25.9,9,31.3c0.5,5.8,3.5,11.1,6.9,15.7c0.1,0.1,0.2,0.3,0.3,0.4"/>
	<path id="XMLID_2071_" class="st2" d="M14.3,16.4"/>
	<line id="XMLID_2070_" class="st22" x1="19.7" y1="23.8" x2="10.1" y2="26.6"/>
	<path id="XMLID_2069_" class="st2" d="M16.2,47.5c3.6,1.5,9.2,3.3,16.2,3.6c7.2,0.3,13-1,16.8-2.2"/>
	<path id="XMLID_2068_" class="st21" d="M47,52.9"/>
	<path id="XMLID_2067_" class="st23" d="M54.4,41.3c0.5-0.5,0.8-1.1,0.9-1.9c0.1-1.5-1.1-2.9-2.6-2.9c-0.5,0-1,0.1-1.4,0.4
		c-4.2,3.4-8.1,3-8.1,3c0,0,0,0,0,0s2.2,1.8,6.6,2.2c1.6,0.1,2.8-0.1,3.6-0.3C53.9,41.6,54.2,41.4,54.4,41.3z"/>
	<path id="XMLID_2066_" class="st24" d="M54.4,41.2c0.1-0.3,0.1-0.7-0.2-0.9c-0.1-0.1-0.3-0.2-0.5-0.2c-0.1,0-0.1,0-0.2,0
		c-0.1,0-0.3,0.1-0.4,0.2c-0.2,0.1-0.3,0.1-0.5,0.2c-0.3,0.1-0.7,0.2-1,0.3c-0.7,0.1-1.5,0.2-2.3,0.2c-0.8,0-1.5-0.1-2.3-0.2
		c-0.7-0.1-1.4-0.2-2-0.4c-0.5-0.1-0.9-0.2-1.4-0.3c0,0-0.5-0.1-0.5-0.1c0,0,2.2,1.8,6.6,2.2c1.6,0.1,2.8-0.1,3.6-0.3
		C53.9,41.6,54.2,41.4,54.4,41.2z"/>
	<path id="XMLID_2065_" class="st25" d="M54.5,40c0,0,0.1-2.1-1.4-2.6"/>
	<path id="XMLID_2064_" class="st26" d="M37.1,37.6c1.9,1.8,4.8,2.4,7.3,2.1c3.7-0.4,6.9-2.7,9.5-5.3c0.7-0.7,1.4-1.5,2.1-2.3
		c0,0,1.1,3.7,4.7,4.2"/>
	<g id="XMLID_2056_">
		<path id="XMLID_2061_" class="st27" d="M59.3,29c0,0-1,2.7-2.6,3c-0.2,0-0.3,0-0.5,0c-1.4-0.1-2.9-1.6-2.9-1.6s-3.4-3.4-0.8-4.7
			c0.7-0.4,1.5-0.6,2.2-0.7c1.8-0.2,3.3,0.2,3.3,0.2C60.4,26,59.3,29,59.3,29z"/>
		<path id="XMLID_2058_" class="st7" d="M56.3,32.1c-1.4-0.1-2.9-1.6-2.9-1.6s-3.4-3.4-0.8-4.7c0.7-0.4,1.5-0.6,2.2-0.7
			c0,0-1.8,1.4-1,3.4C54.6,30.4,55.8,31.9,56.3,32.1z"/>
		<path id="XMLID_2057_" class="st28" d="M58.8,25.9c-0.9-0.7-2.4-0.9-3.2-0.6c-0.8,0.3,1.6,0.6,2.1,1.1c0.5,0.6,0.7,1.4,0.8,1.9
			c0,0,0.1,0.4,0.2,0.4c0.1,0,0.2-0.3,0.2-0.4l0,0C59.1,28.4,59.7,26.6,58.8,25.9z"/>
	</g>
</g>
</svg>
