<svg xmlns="http://www.w3.org/2000/svg" width="200" height="200" viewBox="0 0 150 150"><path d="M35.297 107.34c-1.785.945-3.527.226-5.25-.09a38.88 38.88 0 0 1-11.402-3.75 17.475 17.475 0 0 1-8.145-9.328c-1.004-2.672-2.176-5.266-3.316-7.89a1.951 1.951 0 0 1 1.59-2.895c6.554-.196 12.87-1.922 19.304-2.883 2.063-.3 4.145-.418 6.227-.344a9.536 9.536 0 0 1 8.593 5.82c.602 1.184 1.082 2.43 1.668 3.72 1.29-1.364 2.52-2.731 3.793-4.063 1.278-1.336 1.336-1.367.227-2.91-2.086-3-4.156-5.91-6.18-8.899a1.65 1.65 0 0 0-1.906-.851c-3.586.66-7.184 1.257-10.785 1.859-5.293.898-9.63-1.11-13.5-4.5a27.272 27.272 0 0 1-6.254-8.234 3.904 3.904 0 0 1-.258-2.356 5.197 5.197 0 0 1 5.836-3.512 3.643 3.643 0 0 1 2.324 2.086 39.092 39.092 0 0 0 2.551 4.305 9.947 9.947 0 0 0 10.922 4.035l4.035-.87c1.215-.255 1.5-.856.766-1.903-1.938-2.778-3.918-5.535-5.852-8.313-.707-1.004-1.23-2.144-1.98-3.105a3.118 3.118 0 0 0-1.649-1.11A31.21 31.21 0 0 1 13.5 45.766a23.25 23.25 0 0 1-8.309-12.254 5.791 5.791 0 0 1 3.493-6.992 5.85 5.85 0 0 1 7.5 3.421c2.07 5.457 9.586 10.5 15.421 10.5a4.13 4.13 0 0 0 1.817-.421c3.672-1.98 7.258-4.051 9.644-7.723a5.68 5.68 0 0 1 7.844-1.5 5.894 5.894 0 0 1 1.59 7.844 27.027 27.027 0 0 1-9.254 8.746l-1.5.867a1.735 1.735 0 0 0-.992 1.226c-.113.547.043 1.11.422 1.52 1.77 2.625 3.613 5.191 5.414 7.785.3.434.555.887.87 1.29.286.484.833.75 1.392.675a1.406 1.406 0 0 0 1.171-1.004c.254-.816.438-1.648.555-2.492.094-.48.121-.957.227-1.5.496-2.367 1.785-3.613 3.718-3.613a5.068 5.068 0 0 1 4.938 3.629 4.087 4.087 0 0 1-.332 2.25c-1.59 3.57-3.3 7.093-4.86 10.68a2.772 2.772 0 0 0 .09 2.175 51.417 51.417 0 0 0 3.106 4.5c.66.898 1.394 1.738 2.113 2.625 1.89-.555 3.781-1.246 5.73-1.648a47.237 47.237 0 0 1 25.743 1.722c.281.164.617.2.926.094.304-.102.554-.332.68-.633 1.5-2.129 3.073-4.2 4.663-6.254a2.46 2.46 0 0 0 .254-2.804c-1.664-3.543-3.285-7.098-4.933-10.622a3.11 3.11 0 0 1 .21-3.285 5.135 5.135 0 0 1 4.5-2.398c1.95 0 3.313 1.422 3.75 3.777.196 1.02.254 2.07.493 3.09a1.67 1.67 0 0 0 1.293 1.621 1.79 1.79 0 0 0 1.77-1.094c1.843-2.566 3.808-5.25 5.698-7.937 1.258-1.785 1.11-2.457-.734-3.57a29.893 29.893 0 0 1-9.57-8.262c-1.89-2.746-2.086-5.192-.54-7.5a5.621 5.621 0 0 1 9.298-.094c2.445 3.738 6 5.899 9.855 7.774a6.442 6.442 0 0 0 3.914.132 20.098 20.098 0 0 0 12-7.754c.445-.64.777-1.347.977-2.101a5.783 5.783 0 0 1 7.086-4.086c3.086.828 4.918 4 4.09 7.086A23.544 23.544 0 0 1 134.85 48a33.241 33.241 0 0 1-9.675 3.328 2.623 2.623 0 0 0-1.5.934c-2.582 3.687-5.086 7.5-7.621 11.16-1.051 1.5-.825 2.082 1.02 2.441 1.378.274 2.76.649 4.14.887 4.785.871 8.234-1.078 10.785-4.934.625-.93 1.18-1.902 1.664-2.91 1.59-3.285 4.711-3.781 7.29-1.14a3.733 3.733 0 0 1 .585 5.054 29.304 29.304 0 0 1-8.7 9.614 16.48 16.48 0 0 1-13.183 2.086c-2.84-.57-5.703-1.07-8.582-1.5a1.837 1.837 0 0 0-1.5.57c-2.488 3.523-4.89 7.11-7.32 10.664l5.91 5.672c.27-.723.586-1.742 1.008-2.7 2.25-5.328 6.09-7.71 11.848-7.066 4.02.465 7.996 1.305 12 1.906 3.421.493 6.855.946 10.289 1.29 2.144.21 2.867 1.5 1.921 3.449a46.592 46.592 0 0 0-2.43 5.761 18.976 18.976 0 0 1-13.304 12.883c-3.375 1.02-6.855 1.653-10.305 2.403a4.618 4.618 0 0 1-1.5-.153c.973 4.188 2.07 8.446 2.922 12.75a65.705 65.705 0 0 1 1.336 13.051l-.312.105a31.229 31.229 0 0 1-1.23-3.242C119.25 126 118.183 121.5 117 117.164a64.332 64.332 0 0 0-6.422-16.664 36.203 36.203 0 0 0-27.582-18.512 44.832 44.832 0 0 0-20.117 1.32 31.54 31.54 0 0 0-13.5 8.536c-1.926 2-3.672 4.16-5.219 6.465a63.023 63.023 0 0 0-6.96 15.496c-1.77 5.683-3.313 11.43-4.981 17.16a12.023 12.023 0 0 1-.957 2.25 61.432 61.432 0 0 1 1.136-13.02c.813-4.273 1.907-8.504 2.899-12.855zm0 0" fill="#4b3d3b"/><path d="M116.535 106.5c1.5.781 2.926.195 4.336-.074a32.299 32.299 0 0 0 9.434-3.106 14.454 14.454 0 0 0 6.691-7.71c.867-2.204 1.844-4.364 2.79-6.54a1.622 1.622 0 0 0-1.306-2.386c-5.43-.164-10.652-1.59-15.976-2.368a28.32 28.32 0 0 0-5.145-.316 7.903 7.903 0 0 0-7.109 4.8c-.496.99-.898 2.009-1.379 3.09M34.86 106.5c-1.5.781-2.926.195-4.337-.074a32.299 32.299 0 0 1-9.433-3.106 14.454 14.454 0 0 1-6.692-7.71c-.898-2.235-1.859-4.395-2.804-6.57a1.633 1.633 0 0 1 .004-1.548 1.62 1.62 0 0 1 1.3-.836c5.43-.168 10.653-1.59 15.977-2.37A28.697 28.697 0 0 1 34.02 84a7.9 7.9 0 0 1 7.109 4.816c.496.989.902 2.008 1.383 3.09" fill="#5e5a5a"/></svg>