<svg xmlns="http://www.w3.org/2000/svg" viewBox="0 0 115 115"><path d="M45.08 85.22a6.19 6.19 0 0 0-2.68-5A40 40 0 0 1 30.59 68a40.42 40.42 0 0 1-5.78-13.86c-.6-3.07-.5-5-2-8-1.88-3.7-4.23-5-3.7-6.8s3.08-2.65 5.13-2.6c1 0 3.25.33 7.8 5.55a49 49 0 0 1 6.71 10C40 53.77 40.6 54 41 53.85c.86-.34 1.93-1.88 2.26-4.82a48.93 48.93 0 0 0 .29-9.37L42.5 31.2c-.28-1.82-.9-6.55-2.17-16-.42-3.18-.74-5.82.87-7.8a4.48 4.48 0 0 1 3.28-1.9c1.76 0 3.46 1.6 4.1 4l3.6 27.06c.22.34 2.08 1 1.42 1s1.5-1.38 1.66-1.7c1.33-2.73 1-15.4.9-17.3 0-.8-.45-9 .4-12.58a4.4 4.4 0 0 1 1.07-2.1 4.3 4.3 0 0 1 3.1-1.25A4.41 4.41 0 0 1 64 4.76a5.05 5.05 0 0 1 .75 1.92 109.91 109.91 0 0 1 .25 7.18v4.22a157.54 157.54 0 0 1-1.53 16.41c.2.4.8 1.48 1.4 1.4a1.57 1.57 0 0 0 .81-1.16c1.53-4.9 3.74-16.54 3.74-16.54a58.26 58.26 0 0 1 1.78-6.64A4.18 4.18 0 0 1 74.93 9c1.84.12 2.85 2 3.22 2.74 1.43 2.72.73 5.7.4 7-1.4 5.77-6.2 22.15-5.55 22.98a1.9 1.9 0 0 0 .48.43 1.7 1.7 0 0 0 .67.22h0A1.6 1.6 0 0 0 75 42c.7-.55 4.74-15.52 5.08-16.8.77-2.8 1.55-4.88 3.2-5.4a3.24 3.24 0 0 1 3 .65c.38.34 1.16 1.23 1.06 3.65-.2 5-4.17 17.17-5.22 20.33a10 10 0 0 0-.32 1.21c-.4 2.07-1 4.77-1.76 7.92a88.89 88.89 0 0 1-2.87 10.28A123.11 123.11 0 0 1 71.8 76.1a15.61 15.61 0 0 0-1.65 7.13l1.1 30.46h-27.1z" fill="#efac5b" stroke="#3d1a01" stroke-miterlimit="10" stroke-width="1.75"/></svg>