<?xml version="1.0" encoding="utf-8"?>
<!-- Generator: Adobe Illustrator 19.0.0, SVG Export Plug-In . SVG Version: 6.00 Build 0)  -->
<svg version="1.1" baseProfile="tiny" id="Layer_1" xmlns="http://www.w3.org/2000/svg" xmlns:xlink="http://www.w3.org/1999/xlink"
	 x="0px" y="0px" viewBox="0 0 40 40" xml:space="preserve">
<path id="MotorHousing" fill="#4D4D4D" d="M10.1,18.1v14.3l2.2,1.1h15.4l2.2-1.1V18.1H10.1z"/>
<path id="MotorHousingShade" fill="#333333" d="M10.1,22.2v7.2l2.2,1.1v-7.2L10.1,22.2z M29.9,22.1l-2.2,1.1v7.2l2.2-1.1V22.1z"/>
<path id="CapTop" fill="#CCCCCC" d="M9.9,8.9l2.4-1.2h15.5l2.4,1.2v7.8l-2.4,1.2H12.2l-2.4-1.2V8.9z"/>
<path id="CapTopShade" fill="#CCCCCC" d="M12.3,7.8l-2.2,1.1v7.7l2.2,1.1h15.3l2.2-1.1V8.9l-2.2-1.1H12.3z"/>
<path id="CapTopGrove" fill="#F2F2F2" stroke="#B3B3B3" stroke-width="0.1327" d="M25.6,13c0,1.5-2.5,2.8-5.6,2.8s-5.6-1.3-5.6-2.8
	s2.5-2.8,5.6-2.8S25.6,11.5,25.6,13z"/>
<path id="path3177" fill="#333333" d="M12.8,9c0,0.2-0.3,0.3-0.6,0.3c-0.3,0-0.6-0.1-0.6-0.3c0-0.2,0.3-0.3,0.6-0.3
	C12.6,8.7,12.8,8.8,12.8,9z"/>
<path id="path3177_1_" fill="#333333" d="M28.4,9c0,0.2-0.3,0.3-0.6,0.3c-0.3,0-0.6-0.1-0.6-0.3c0-0.2,0.3-0.3,0.6-0.3
	C28.1,8.7,28.4,8.8,28.4,9z"/>
<path id="path3177_2_" fill="#333333" d="M28.4,16.7c0,0.2-0.3,0.3-0.6,0.3c-0.3,0-0.6-0.1-0.6-0.3c0-0.2,0.3-0.3,0.6-0.3
	C28.1,16.4,28.4,16.6,28.4,16.7z"/>
<path id="path3177_3_" fill="#333333" d="M12.8,16.7c0,0.2-0.3,0.3-0.6,0.3c-0.3,0-0.6-0.1-0.6-0.3c0-0.2,0.3-0.3,0.6-0.3
	C12.6,16.4,12.8,16.6,12.8,16.7z"/>
<path id="CapTopBevel" fill="#999999" d="M25.2,12.7c0,1.4-2.3,2.6-5.2,2.6s-5.2-1.2-5.2-2.6s2.3-2.6,5.2-2.6S25.2,11.3,25.2,12.7z"
	/>
<path id="CapTopShaftHole" fill="#333333" d="M21.6,12.7c0,0.5-0.7,0.8-1.6,0.8s-1.6-0.4-1.6-0.8s0.7-0.8,1.6-0.8
	S21.6,12.3,21.6,12.7z"/>
<path id="Cap" fill="#B3B3B3" d="M9.9,16.6v7.2l2.4,1.2l0.5-0.1v-2.3h14.5v2.3l0.5,0.1l2.4-1.2v-7.2l-2.4,1.2H12.2L9.9,16.6z
	 M9.9,25.4v7.2l2.4,1.2h15.5l2.4-1.2v-7.2l-2.4,1.2L27.2,27v1.5H12.8V27l-0.5-0.4L9.9,25.4z"/>
<path id="CapShade" fill="#999999" d="M12.2,25l-2.4-1.2v-7.2l2.4,1.2V25z M27.8,25l2.4-1.2v-7.2l-2.4,1.2V25z M27.8,33.7l2.4-1.2
	v-7.2l-2.4,1.2V33.7z M12.2,33.7l-2.4-1.2v-7.2l2.4,1.2V33.7z"/>
<path id="Shaft" fill="#666666" d="M21.2,4.8v8c0,0.3-0.5,0.6-1.2,0.6s-1.2-0.3-1.2-0.6v-8c0-0.3,0.5-0.6,1.2-0.6S21.2,4.4,21.2,4.8
	z"/>
<path id="ShaftTop" fill="#CCCCCC" d="M21,4.5C21,4.8,20.5,5,20,5s-1-0.2-1-0.5S19.5,4,20,4S21,4.2,21,4.5z"/>
<path id="ShaftTopHole" fill="#666666" d="M20.5,4.5c0,0.1-0.2,0.2-0.5,0.2s-0.5-0.1-0.5-0.2s0.2-0.2,0.5-0.2S20.5,4.4,20.5,4.5z"/>
<g id="XMLID_1_">
	<path id="CapConnectorTop" fill="#E6E6E6" d="M13.3,29.2h13.5V31H13.3V29.2z"/>
	<path id="CapConnector" fill="#999999" d="M13.3,31h13.5v4H13.3V31z"/>
	<path id="CapConnectorHousingTop" fill="#333333" d="M14.1,29.6h11.9V31H14.1V29.6z"/>
	<path id="CapConnectorHousing" fill="#333333" d="M14.1,31h11.9v3.2H14.1V31z"/>
	<path id="CapConnectorHousingInset" fill="#4D4D4D" d="M14.5,31h11.1v2.4H14.5V31z"/>
	<g id="CapConnectorPin0" transform="translate(0,-76.499998)">
		<path id="PinBase" fill="none" stroke="#808000" stroke-width="0.7139" stroke-linecap="round" d="M15.5,107.5v1.8"/>
		<path id="PinHilite" fill="none" stroke="#FFFF00" stroke-width="0.1428" stroke-linecap="round" d="M15.5,107.5v1.8"/>
	</g>
	<g id="CapConnectorPin1" transform="translate(8.9999998,0)">
		<g id="XMLID_12560_" transform="translate(0,-76.499998)">
			<path id="PinBase_1_" fill="none" stroke="#808000" stroke-width="0.7139" stroke-linecap="round" d="M8.3,107.5v1.8"/>
			<path id="PinHilite_1_" fill="none" stroke="#FFFF00" stroke-width="0.1428" stroke-linecap="round" d="M8.3,107.5v1.8"/>
		</g>
	</g>
	<g id="CapConnectorPin2" transform="translate(18,0)">
		<g id="XMLID_12559_" transform="translate(0,-76.499998)">
			<path id="PinBase_2_" fill="none" stroke="#808000" stroke-width="0.7139" stroke-linecap="round" d="M1.1,107.5v1.8"/>
			<path id="PinHilite_2_" fill="none" stroke="#FFFF00" stroke-width="0.1428" stroke-linecap="round" d="M1.1,107.5v1.8"/>
		</g>
	</g>
	<g id="CapConnectorPin3" transform="translate(27,0)">
		<g id="XMLID_12558_" transform="translate(0,-76.499998)">
			<path id="PinBase_3_" fill="none" stroke="#808000" stroke-width="0.7139" stroke-linecap="round" d="M-6.1,107.5v1.8"/>
			<path id="PinHilite_3_" fill="none" stroke="#FFFF00" stroke-width="0.1428" stroke-linecap="round" d="M-6.1,107.5v1.8"/>
		</g>
	</g>
	<g id="CapConnectorPin4" transform="translate(36,0)">
		<g id="XMLID_12557_" transform="translate(0,-76.499998)">
			<path id="PinBase_4_" fill="none" stroke="#808000" stroke-width="0.7139" stroke-linecap="round" d="M-13.3,107.5v1.8"/>
			<path id="PinHilite_4_" fill="none" stroke="#FFFF00" stroke-width="0.1428" stroke-linecap="round" d="M-13.3,107.5v1.8"/>
		</g>
	</g>
	<g id="CapConnectorPin5" transform="translate(45,0)">
		<g id="XMLID_12556_" transform="translate(0,-76.499998)">
			<path id="PinBase_5_" fill="none" stroke="#808000" stroke-width="0.7139" stroke-linecap="round" d="M-20.5,107.5v1.8"/>
			<path id="PinHilite_5_" fill="none" stroke="#FFFF00" stroke-width="0.1428" stroke-linecap="round" d="M-20.5,107.5v1.8"/>
		</g>
	</g>
	<g id="JSTConnectorF">
		<path id="HousingTop" fill="#E3E2DB" d="M14.5,30.4h11.1v2.2H14.5V30.4z"/>
		<path id="Housing" fill="#C8C4B7" d="M14.5,31.8h11.1v2H14.5V31.8z"/>
		<path id="HousingSlots" fill="#6C5D53" d="M23.8,32.1h1.5v1.5h-1.5V32.1z M20.2,32.1h1.5v1.5h-1.5V32.1z M18.4,32.1h1.5v1.5h-1.5
			V32.1z M22,32.1h1.5v1.5H22V32.1z M14.7,32.1h1.5v1.5h-1.5V32.1z M16.5,32.1H18v1.5h-1.5V32.1z"/>
	</g>
</g>
</svg>
