<?xml version="1.0" encoding="utf-8"?>
<!-- Generator: Adobe Illustrator 19.0.0, SVG Export Plug-In . SVG Version: 6.00 Build 0)  -->
<svg version="1.1" id="Layer_1" xmlns="http://www.w3.org/2000/svg" xmlns:xlink="http://www.w3.org/1999/xlink" x="0px" y="0px"
	 width="24px" height="24px" viewBox="0 0 24 24" style="enable-background:new 0 0 24 24;" xml:space="preserve">
<style type="text/css">
	.st0{fill:#FFFFFF;}
</style>
<g id="XMLID_727_">
	<path id="XMLID_729_" class="st0" d="M12,22L12,22c0.7,0,1.2-0.5,1.2-1.2v0c0-0.7-0.5-1.2-1.2-1.2h0c-0.7,0-1.2,0.5-1.2,1.2v0
		C10.8,21.5,11.4,22,12,22z"/>
	<path id="XMLID_728_" class="st0" d="M16.5,3.6c-1-1-2.3-1.6-4.1-1.6c-2.1,0-3.6,0.6-4.7,1.7c-0.4,0.4-0.8,0.9-1,1.5
		c0,0.1-0.1,0.2-0.1,0.3c0,0,0,0,0,0.1C6.4,5.9,6.2,6.3,6.2,6.8c-0.2,1.2-0.1,2-0.1,2c0.1,0.6,0.6,1,1.2,1c0.7,0,1.2-0.5,1.2-1.2
		c0,0,0,0,0,0c0-1.4,0.2-2.5,0.7-3.2c0.5-0.8,1.5-1.2,2.9-1.3c1,0.1,1.7,0.4,2.3,1c0.6,0.6,0.9,1.3,0.9,2.1c0,0.3,0,0.5-0.1,0.8
		c-0.1,0.3-0.2,0.5-0.3,0.8c-0.2,0.4-0.5,0.8-0.8,1.2c-0.2,0.2-0.4,0.4-0.7,0.6c-0.4,0.3-0.8,0.6-1.1,1c-0.4,0.4-0.7,0.8-1,1.2
		c-0.3,0.5-0.6,1.2-0.7,1.8c-0.1,0.3-0.1,0.7-0.1,1.1c0,0.7,0.6,1.3,1.3,1.3c0.7,0,1.3-0.5,1.3-1.3c0-0.5,0.1-0.9,0.1-1.2
		c0.1-0.6,0.4-1.1,0.9-1.6c0.1-0.1,0.2-0.2,0.4-0.4c0.1-0.1,0.3-0.2,0.5-0.4c0.7-0.5,1.3-1.2,1.7-1.8c0.4-0.7,0.7-1.3,0.9-2
		c0.1-0.2,0.1-0.4,0.1-0.7c0-0.2,0-0.5,0-0.7C17.9,5.8,17.4,4.6,16.5,3.6z"/>
</g>
</svg>
