<?xml version="1.0" encoding="utf-8"?>
<!-- Generator: Adobe Illustrator 19.1.0, SVG Export Plug-In . SVG Version: 6.00 Build 0)  -->
<svg version="1.1" id="Layer_1" xmlns="http://www.w3.org/2000/svg" xmlns:xlink="http://www.w3.org/1999/xlink" x="0px" y="0px"
	 viewBox="0 0 40 40" style="enable-background:new 0 0 40 40;" xml:space="preserve">
<style type="text/css">
	.st0{fill:#FFFFFF;}
</style>
<path id="XMLID_319_" class="st0" d="M35.7,24.3l-3.4-2.7c0.1-0.5,0.1-1.1,0.1-1.6s0-1.1-0.1-1.6l3.4-2.7c0.3-0.2,0.4-0.6,0.2-1
	l-3.2-5.4c-0.2-0.3-0.6-0.5-1-0.3l-4.1,1.5c-0.9-0.7-1.9-1.2-2.9-1.6L24,4.6C23.9,4.3,23.6,4,23.2,4h-6.4c-0.4,0-0.7,0.3-0.8,0.6
	l-0.7,4.2c-1.1,0.4-2,1-2.9,1.6L8.3,9c-0.4-0.1-0.8,0-1,0.3l-3.2,5.4c-0.2,0.3-0.1,0.7,0.2,1l3.4,2.7c-0.1,0.5-0.1,1.1-0.1,1.6
	s0,1.1,0.1,1.6l-3.4,2.7c-0.3,0.2-0.4,0.6-0.2,1l3.2,5.4c0.2,0.3,0.6,0.5,1,0.3l4.1-1.5c0.9,0.7,1.9,1.2,2.9,1.6l0.7,4.2
	c0.1,0.4,0.4,0.6,0.8,0.6h6.4c0.4,0,0.7-0.3,0.8-0.6l0.7-4.2c1.1-0.4,2-1,2.9-1.6l4.1,1.5c0.4,0.1,0.8,0,1-0.3l3.2-5.4
	C36.1,25,36,24.6,35.7,24.3z M20,25.8c-3.2,0-5.8-2.5-5.8-5.7s2.6-5.7,5.8-5.7s5.8,2.5,5.8,5.7S23.2,25.8,20,25.8z"/>
</svg>
