<?xml version="1.0" encoding="utf-8"?>
<!-- Generator: Adobe Illustrator 19.0.0, SVG Export Plug-In . SVG Version: 6.00 Build 0)  -->
<svg version="1.1" id="Layer_1" xmlns="http://www.w3.org/2000/svg" xmlns:xlink="http://www.w3.org/1999/xlink" x="0px" y="0px"
	 width="24px" height="24px" viewBox="0 0 24 24" style="enable-background:new 0 0 24 24;" xml:space="preserve">
<style type="text/css">
	.st0{fill:#FFFFFF;}
</style>
<g id="Layer_1_4_">
	<title>Feedback</title>
	<desc>Created with Sketch.</desc>
	<g id="Page-1_12_">
		<g id="Feedback_3_">
			<path id="feedback_3_" class="st0" d="M9.8,18.6c-0.2,0.2-0.3,0.2-0.5,0.3L6,20.2c-0.2-0.3-0.3-0.9-0.9-1.4
				c-0.5-0.5-0.9-0.8-1.3-0.9l1.3-3.2c0-0.2,0.2-0.3,0.3-0.5l0,0l0,0c0.2-0.2,0.5-0.3,0.9-0.3c0.9-0.2,2,0.3,2.7,1.1
				c0.9,0.8,1.1,1.8,1.1,2.7c0,0.3-0.2,0.7-0.3,0.8C9.9,18.4,9.9,18.6,9.8,18.6L9.8,18.6z M15.1,4.7c0.5-0.5,1.3-0.7,2.1-0.3
				c0.5,0.2,0.7,0.7,0.3,0.9L10,12.8C9.7,13,9.5,13,9.2,13c-0.2-0.2-0.5-0.3-0.9-0.3C7.8,12.5,7.8,12,8,11.7L15.1,4.7z M19.3,9.1
				l-6.8,6.8c-0.3,0.3-0.9,0.2-0.9-0.2c-0.2-0.3-0.3-0.5-0.5-0.8c-0.2-0.3-0.2-0.5,0-0.8l7.5-7.5c0.3-0.3,0.9-0.2,0.9,0.3
				C20,7.8,19.9,8.6,19.3,9.1z M22.3,1.8c-1.8-1.8-4.5-2.3-6-0.7L4.2,13c-0.3,0.3-0.5,0.7-0.7,0.9L1,19.8c-0.3,0.8-1.4,3.1-0.8,3.8
				s3-0.4,3.8-0.8l6-2.5c0.3-0.2,0.7-0.5,0.9-0.7L23.1,7.8C24.6,6.4,24.2,3.7,22.3,1.8z"/>
		</g>
	</g>
</g>
</svg>
