<svg xmlns="http://www.w3.org/2000/svg" viewBox="0 0 40 40"><title>Profile Alert copy 2</title><path d="M27.19,11.5a21.59,21.59,0,0,1-9.66,2A26.18,26.18,0,0,1,8,11.73c-2-.93-3-1.64-3.35,0a29.51,29.51,0,0,0-.55,6.85c0,6.62,2.18,20.32,13.47,20.32C28.66,38.9,31,25.43,31,18.58a30.21,30.21,0,0,0-.54-6.85C30.14,9.71,29.21,10.56,27.19,11.5ZM7.57,22.24a4.36,4.36,0,0,1,4-3,4.42,4.42,0,0,1,4,3.11Zm9.81,9.65c-5.38-.15-7-3.89-7-3.89l14.09.16C24.54,28.16,22.75,31.89,17.38,31.89Zm2.72-9.26a4.31,4.31,0,0,1,3.89-3c3,0,3.9,3.11,3.9,3.11Z" style="fill:#48A145"/><path d="M31.71,8c-.06.06-.12.06-.18.12l-1.24.5A1.19,1.19,0,0,0,29.92,8a2.07,2.07,0,0,0-.49-.37l.49-1.24c0-.06.06-.12.13-.18h0a.46.46,0,0,1,.3-.12,1.22,1.22,0,0,1,1.06.43,1.48,1.48,0,0,1,.43,1,.44.44,0,0,1-.13.31c.07,0,.07.06,0,.06Zm2-5.31a.75.75,0,0,1,.81-.13.22.22,0,0,1,.12.37L31.84,5.74a.52.52,0,0,1-.31.07.44.44,0,0,0-.31-.13.24.24,0,0,1-.12-.37Zm1.61,1.66-2.6,2.6a.24.24,0,0,1-.37-.06c-.06-.13-.12-.19-.18-.31a.29.29,0,0,1,0-.31L35.05,3.4c.12-.13.31-.07.37.12A.63.63,0,0,1,35.36,4.32Zm1.11-2.78a1.6,1.6,0,0,0-2.28-.24L29.61,5.81a1.17,1.17,0,0,0-.24.37l-1,2.28c-.13.31-.53,1.21-.29,1.46s1.15-.16,1.46-.28l2.29-1c.12-.06.24-.19.37-.25l4.57-4.57A1.63,1.63,0,0,0,36.47,1.54Z" style="fill:#48A145"/></svg>