<?xml version="1.0" encoding="utf-8"?>
<!-- Generator: Adobe Illustrator 19.2.1, SVG Export Plug-In . SVG Version: 6.00 Build 0)  -->
<svg version="1.1" id="Layer_1" xmlns="http://www.w3.org/2000/svg" xmlns:xlink="http://www.w3.org/1999/xlink" x="0px" y="0px"
	 viewBox="0 0 24 24" style="enable-background:new 0 0 24 24;" xml:space="preserve">
<style type="text/css">
	.st0{fill:#FFFFFF;}
</style>
<path class="st0" d="M19.3,23H4.7c-1,0-1.9-0.9-1.9-1.9V2.9c0-1,0.9-1.9,1.9-1.9h14.6c1,0,1.9,0.9,1.9,1.9v18.2
	C21.2,22.1,20.3,23,19.3,23z M4.7,1.8c-0.6,0-1.1,0.5-1.1,1.1v18.2c0,0.6,0.5,1.1,1.1,1.1h14.6c0.6,0,1.1-0.5,1.1-1.1V2.9
	c0-0.6-0.5-1.1-1.1-1.1H4.7z"/>
<path class="st0" d="M10.1,8.6H5.6C5.2,8.6,5,8.4,5,8V4.3c0-0.4,0.3-0.6,0.6-0.6h4.5c0.4,0,0.6,0.3,0.6,0.6V8
	C10.7,8.4,10.5,8.6,10.1,8.6z M5.6,4.2c-0.1,0-0.1,0.1-0.1,0.1V8c0,0.1,0.1,0.1,0.1,0.1h4.5c0.1,0,0.1-0.1,0.1-0.1V4.3
	c0-0.1-0.1-0.1-0.1-0.1H5.6z"/>
<g>
	<path class="st0" d="M16.8,6.7l1.6,0.9c0.1,0.1,0.2,0,0.3-0.1c0.1-0.1,0.1-0.2,0.1-0.3c0-0.1,0-0.2-0.1-0.2l-1.2-0.7
		c-0.1-0.1-0.1-0.3,0-0.3l1.2-0.7c0.1,0,0.1-0.1,0.1-0.2c0-0.1-0.1-0.2-0.1-0.3c0-0.1-0.2-0.1-0.3-0.1l-1.6,0.9
		c-0.1,0-0.1,0.1-0.1,0.2c0,0.1,0.1,0.2,0.1,0.3c0,0.1,0,0.2-0.1,0.3C16.6,6.5,16.7,6.6,16.8,6.7z"/>
	<path class="st0" d="M16.4,7.1c0-0.1-0.1-0.1-0.2-0.1C16.1,7,15.9,7,15.8,7c-0.1,0-0.2,0-0.3-0.1c-0.1,0-0.2,0-0.2,0.1l-0.9,1.6
		c-0.1,0.1,0,0.2,0.1,0.3c0.4,0.2,0.9,0.3,1.4,0.3c0.5,0,1-0.1,1.4-0.3c0.1,0,0.1-0.2,0.1-0.3L16.4,7.1z"/>
	<path class="st0" d="M12.9,7.2c0,0.1,0.1,0.2,0.1,0.3c0,0.1,0.2,0.1,0.3,0.1l1.6-0.9C15,6.6,15,6.5,15,6.4c0-0.1-0.1-0.2-0.1-0.3
		c0-0.1,0-0.2,0.1-0.3c0-0.1,0-0.2-0.1-0.2l-1.6-0.9c-0.1-0.1-0.2,0-0.3,0.1C13,4.9,13,5,12.9,5.1c0,0.1,0,0.2,0.1,0.2L14.2,6
		c0.1,0.1,0.1,0.3,0,0.3L13,7C12.9,7,12.9,7.1,12.9,7.2z"/>
	<circle class="st0" cx="15.8" cy="6.1" r="0.6"/>
	<path class="st0" d="M17.9,3.8c-0.5-0.5-1.3-0.8-2-0.8c-0.8,0-1.5,0.3-2,0.8c0,0,0,0,0,0c-0.1,0.1-0.1,0.1,0,0.2l0,0c0,0,0,0,0,0
		L14,4.3c0,0,0,0,0,0l0.3,0.3l0,0l0.2,0.2c0,0,0,0,0,0l0.6,0.6c0.1,0.1,0.1,0.1,0.2,0l0,0c0,0,0,0,0,0c0.1-0.1,0.3-0.2,0.5-0.2
		c0.2,0,0.4,0.1,0.5,0.2c0.1,0.1,0.2,0,0.2,0l0.1-0.1c0.1-0.1,0.1-0.2,0-0.3c-0.2-0.2-0.5-0.3-0.8-0.3c-0.2,0-0.5,0.1-0.7,0.2
		L15,4.7c0.3-0.1,0.5-0.2,0.8-0.2c0.4,0,0.8,0.1,1.1,0.4c0.1,0.1,0.2,0.1,0.2,0l0.1-0.1c0.1-0.1,0.1-0.2,0-0.3
		c-0.1-0.1-0.2-0.2-0.3-0.3c-0.3-0.2-0.7-0.3-1-0.3c-0.4,0-0.8,0.1-1.1,0.3l-0.2-0.2c0.4-0.3,0.8-0.4,1.3-0.4c0.4,0,0.8,0.1,1.2,0.3
		c0.2,0.1,0.3,0.2,0.4,0.3c0.1,0.1,0.2,0.1,0.3,0l0.2-0.2C18,4,18,3.9,17.9,3.8z"/>
</g>
<path class="st0" d="M20.8,19H3.2v-7.5h17.6V19z M5.7,13.9c-0.2,0-0.3,0-0.4,0.1c-0.1,0-0.2,0.1-0.3,0.2c-0.1,0.1-0.1,0.2-0.2,0.3
	c0,0.1-0.1,0.2-0.1,0.4v1c0,0.1,0,0.3,0.1,0.4c0,0.1,0.1,0.2,0.2,0.3c0.1,0.1,0.2,0.1,0.3,0.2c0.1,0,0.3,0.1,0.4,0.1h1.7v-0.5H5.7
	c-0.2,0-0.3,0-0.3-0.1c-0.1-0.1-0.1-0.2-0.1-0.3v-0.2h1.3c0.3,0,0.6-0.1,0.7-0.2c0.1-0.1,0.2-0.3,0.2-0.6c0-0.3-0.1-0.5-0.2-0.6
	c-0.1-0.2-0.4-0.2-0.7-0.2H5.7z M5.3,14.8c0-0.1,0-0.2,0.1-0.3c0.1-0.1,0.2-0.1,0.3-0.1h0.9c0.1,0,0.2,0,0.3,0.1
	C7,14.6,7,14.7,7,14.8C7,14.9,7,15,6.9,15c-0.1,0.1-0.2,0.1-0.3,0.1H5.3V14.8z M7.8,13.9l1,2.5c0.1,0.1,0.1,0.2,0.2,0.3
	c0.1,0.1,0.2,0.1,0.4,0.1c0.2,0,0.3,0,0.4-0.1c0.1-0.1,0.2-0.1,0.2-0.3l1.1-2.5h-0.6l-1,2.3c0,0.1-0.1,0.1-0.1,0.1
	c-0.1,0-0.1,0-0.1-0.1l-0.9-2.3H7.8z M11.7,13.9v2.8h0.6v-2.8H11.7z M12.8,13.9l1,2.5c0.1,0.1,0.1,0.2,0.2,0.3
	c0.1,0.1,0.2,0.1,0.4,0.1c0.2,0,0.3,0,0.4-0.1c0.1-0.1,0.2-0.1,0.2-0.3l1.1-2.5h-0.6l-1,2.3c0,0.1-0.1,0.1-0.1,0.1
	c-0.1,0-0.1,0-0.1-0.1l-0.9-2.3H12.8z M17.5,13.9c-0.2,0-0.3,0-0.4,0.1c-0.1,0-0.2,0.1-0.3,0.2c-0.1,0.1-0.1,0.2-0.2,0.3
	c0,0.1-0.1,0.2-0.1,0.4v1c0,0.1,0,0.3,0.1,0.4c0,0.1,0.1,0.2,0.2,0.3c0.1,0.1,0.2,0.1,0.3,0.2c0.1,0,0.3,0.1,0.4,0.1h1.7v-0.5h-1.7
	c-0.2,0-0.3,0-0.3-0.1C17.1,16,17,15.9,17,15.8v-0.2h1.3c0.3,0,0.6-0.1,0.7-0.2c0.1-0.1,0.2-0.3,0.2-0.6c0-0.3-0.1-0.5-0.2-0.6
	c-0.1-0.2-0.4-0.2-0.7-0.2H17.5z M17,14.8c0-0.1,0-0.2,0.1-0.3c0.1-0.1,0.2-0.1,0.3-0.1h0.9c0.1,0,0.2,0,0.3,0.1
	c0.1,0.1,0.1,0.1,0.1,0.3c0,0.1,0,0.2-0.1,0.2c-0.1,0.1-0.2,0.1-0.3,0.1H17V14.8z"/>
</svg>
