<svg id="Layer_1" data-name="Layer 1" xmlns="http://www.w3.org/2000/svg" viewBox="0 0 40 40"><defs><style>.cls-1{fill:#b3b3b3;}</style></defs><title>Scratch UI</title><path class="cls-1" d="M31.89,34a2.14,2.14,0,0,1-1.42-.53L6.7,12.17a1.66,1.66,0,0,1,0-2.53,2.17,2.17,0,0,1,2.83,0L33.3,30.94a1.66,1.66,0,0,1,0,2.53A2.11,2.11,0,0,1,31.89,34Z"/><path class="cls-1" d="M34.88,21.66V22a3.21,3.21,0,0,1-.31.5,23.68,23.68,0,0,1-2.66,2.64,25.13,25.13,0,0,1-6.15,4,14.6,14.6,0,0,1-5.19,1.31,14.52,14.52,0,0,1-6.12-1,21.78,21.78,0,0,1-4.79-2.66,25.13,25.13,0,0,1-4-3.53,3.22,3.22,0,0,1-.89-1.3v-.37a1.58,1.58,0,0,1,.38-.71c.4-.43.8-.86,1.21-1.28a24.92,24.92,0,0,1,6-4.52,15.71,15.71,0,0,1,6.51-2,14.1,14.1,0,0,1,3.55.21,17.06,17.06,0,0,1,4.93,1.84,25.41,25.41,0,0,1,7.2,5.85,1.13,1.13,0,0,1,.31.59C34.8,21.57,34.85,21.61,34.88,21.66Zm-20.72-.18a5.64,5.64,0,1,0,5.64-5.64A5.66,5.66,0,0,0,14.16,21.48Z"/><path class="cls-1" d="M19.79,24.26a2.84,2.84,0,0,1-2.85-2.87,2.78,2.78,0,0,1,2.85-2.77,2.86,2.86,0,0,1,2.87,2.87A2.79,2.79,0,0,1,19.79,24.26Z"/></svg>