<?xml version="1.0" encoding="utf-8"?>
<!-- Generator: Adobe Illustrator 24.0.1, SVG Export Plug-In . SVG Version: 6.00 Build 0)  -->
<svg version="1.1" id="Layer_1" xmlns="http://www.w3.org/2000/svg" xmlns:xlink="http://www.w3.org/1999/xlink" x="0px" y="0px"
	 viewBox="0 0 40 40" style="enable-background:new 0 0 40 40;" xml:space="preserve">
<style type="text/css">
	.st0{display:none;}
	.st1{display:inline;}
	.st2{fill:#FFFFFF;}
	.st3{fill:none;stroke:#FFFFFF;stroke-width:1.6;stroke-miterlimit:10;}
</style>
<g class="st0">
	<g class="st1">
		<path class="st2" d="M2.2,10.2H1.8c-0.4,0-0.7-0.3-0.7-0.7V1.6c0-0.4,0.3-0.7,0.7-0.7h0.4c0.4,0,0.7,0.3,0.7,0.7v7.9
			C2.9,9.9,2.6,10.2,2.2,10.2z"/>
		<path class="st2" d="M10.4,1.6v0.4c0,0.4-0.3,0.7-0.7,0.7H1.8c-0.4,0-0.7-0.3-0.7-0.7V1.6c0-0.4,0.3-0.7,0.7-0.7h7.9
			C10.1,0.9,10.4,1.2,10.4,1.6z"/>
	</g>
	<g class="st1">
		<path class="st2" d="M37.8,10.2h0.4c0.4,0,0.7-0.3,0.7-0.7V1.6c0-0.4-0.3-0.7-0.7-0.7h-0.4c-0.4,0-0.7,0.3-0.7,0.7v7.9
			C37.1,9.9,37.4,10.2,37.8,10.2z"/>
		<path class="st2" d="M29.6,1.6v0.4c0,0.4,0.3,0.7,0.7,0.7h7.9c0.4,0,0.7-0.3,0.7-0.7V1.6c0-0.4-0.3-0.7-0.7-0.7h-7.9
			C29.9,0.9,29.6,1.2,29.6,1.6z"/>
	</g>
</g>
<g class="st0">
	<g class="st1">
		<path class="st2" d="M2.2,29.8H1.8c-0.4,0-0.7,0.3-0.7,0.7v7.9c0,0.4,0.3,0.7,0.7,0.7h0.4c0.4,0,0.7-0.3,0.7-0.7v-7.9
			C2.9,30.1,2.6,29.8,2.2,29.8z"/>
		<path class="st2" d="M10.4,38.4v-0.4c0-0.4-0.3-0.7-0.7-0.7H1.8c-0.4,0-0.7,0.3-0.7,0.7v0.4c0,0.4,0.3,0.7,0.7,0.7h7.9
			C10.1,39.1,10.4,38.8,10.4,38.4z"/>
	</g>
	<g class="st1">
		<path class="st2" d="M37.8,29.8h0.4c0.4,0,0.7,0.3,0.7,0.7v7.9c0,0.4-0.3,0.7-0.7,0.7h-0.4c-0.4,0-0.7-0.3-0.7-0.7v-7.9
			C37.1,30.1,37.4,29.8,37.8,29.8z"/>
		<path class="st2" d="M29.6,38.4v-0.4c0-0.4,0.3-0.7,0.7-0.7h7.9c0.4,0,0.7,0.3,0.7,0.7v0.4c0,0.4-0.3,0.7-0.7,0.7h-7.9
			C29.9,39.1,29.6,38.8,29.6,38.4z"/>
	</g>
</g>
<g>
	<g>
		<path class="st3" d="M13.6,13.8H7.3c-0.5,0-1-0.4-1-1V6.5c0-0.5,0.5-1,1-1h6.3c0.6,0,1,0.5,1,1v6.3C14.6,13.4,14.1,13.8,13.6,13.8
			z"/>
		<path class="st2" d="M11.1,11.3H9.8c-0.5,0-1-0.4-1-1V9c0-0.5,0.4-1,1-1h1.3c0.5,0,1,0.4,1,1v1.3C12.1,10.9,11.6,11.3,11.1,11.3z"
			/>
	</g>
	<g>
		<path class="st3" d="M32.7,13.8h-6.3c-0.5,0-1-0.4-1-1V6.5c0-0.5,0.5-1,1-1h6.3c0.5,0,1,0.5,1,1v6.3
			C33.7,13.4,33.3,13.8,32.7,13.8z"/>
		<path class="st2" d="M30.2,11.3h-1.3c-0.5,0-1-0.4-1-1V9c0-0.5,0.4-1,1-1h1.3c0.5,0,1,0.4,1,1v1.3C31.2,10.9,30.8,11.3,30.2,11.3z
			"/>
	</g>
</g>
<g>
	<g>
		<path class="st3" d="M13.1,34H6.8c-0.5,0-1-0.5-1-1v-6.3c0-0.5,0.5-1,1-1h6.3c0.6,0,1,0.5,1,1V33C14.1,33.5,13.6,34,13.1,34z"/>
		<path class="st2" d="M10.6,31.4H9.3c-0.5,0-1-0.4-1-1v-1.3c0-0.5,0.4-1,1-1h1.3c0.5,0,1,0.4,1,1v1.3C11.6,31,11.1,31.4,10.6,31.4z
			"/>
	</g>
	<g>
		<path class="st3" d="M32.2,34h-6.3c-0.5,0-1-0.5-1-1v-6.3c0-0.5,0.5-1,1-1h6.3c0.6,0,1,0.5,1,1V33C33.2,33.5,32.8,34,32.2,34z"/>
		<path class="st2" d="M29.7,31.4h-1.3c-0.5,0-1-0.4-1-1v-1.3c0-0.5,0.4-1,1-1h1.3c0.5,0,1,0.4,1,1v1.3C30.7,31,30.3,31.4,29.7,31.4
			z"/>
	</g>
</g>
<path class="st2" d="M17.5,14.6L17.5,14.6c-0.5,0-1-0.4-1-1V5.8c0-0.5,0.4-1,1-1h0c0.5,0,1,0.4,1,1v7.8
	C18.5,14.1,18.1,14.6,17.5,14.6z"/>
<path class="st2" d="M22.9,14.6h-5.5c-0.5,0-0.9-0.4-0.9-0.9v0c0-0.5,0.4-0.9,0.9-0.9h5.5c0.5,0,0.9,0.4,0.9,0.9v0
	C23.8,14.2,23.4,14.6,22.9,14.6z"/>
<path class="st2" d="M22.9,18.9L22.9,18.9c-0.5,0-0.9-0.4-0.9-0.9v-4.4c0-0.5,0.4-0.9,0.9-0.9h0c0.5,0,0.9,0.4,0.9,0.9v4.4
	C23.8,18.5,23.4,18.9,22.9,18.9z"/>
<path class="st2" d="M26.8,18.9h-4c-0.4,0-0.8-0.3-0.8-0.8v-0.1c0-0.4,0.3-0.8,0.8-0.8h4c0.4,0,0.8,0.3,0.8,0.8v0.1
	C27.6,18.6,27.3,18.9,26.8,18.9z"/>
<path class="st2" d="M33.3,18.9h-3.8c-0.4,0-0.8-0.4-0.8-0.8v0c0-0.4,0.4-0.8,0.8-0.8h3.8c0.4,0,0.8,0.4,0.8,0.8v0
	C34.1,18.6,33.8,18.9,33.3,18.9z"/>
<path class="st2" d="M19.4,18.9h-2.7c-0.4,0-0.8-0.4-0.8-0.8v0c0-0.4,0.4-0.8,0.8-0.8h2.7c0.4,0,0.8,0.4,0.8,0.8v0
	C20.2,18.6,19.8,18.9,19.4,18.9z"/>
<path class="st2" d="M13.8,18.9H7.1c-0.4,0-0.8-0.4-0.8-0.8v0c0-0.4,0.4-0.8,0.8-0.8h6.7c0.4,0,0.8,0.4,0.8,0.8v0
	C14.6,18.6,14.2,18.9,13.8,18.9z"/>
<g>
	<path class="st2" d="M22.7,11.7h-2.2c-0.4,0-0.8-0.4-0.8-0.8v-0.1c0-0.4,0.4-0.8,0.8-0.8h2.2c0.4,0,0.8,0.4,0.8,0.8v0.1
		C23.5,11.4,23.1,11.7,22.7,11.7z"/>
	<path class="st2" d="M21.8,10.9V5.6c0-0.4,0.4-0.8,0.8-0.8h0.1c0.4,0,0.8,0.4,0.8,0.8v5.3c0,0.4-0.4,0.8-0.8,0.8h-0.1
		C22.2,11.7,21.8,11.4,21.8,10.9z"/>
</g>
<g>
	<path class="st2" d="M22.1,34.7h-2.2c-0.4,0-0.8-0.4-0.8-0.8v-0.1c0-0.4,0.4-0.8,0.8-0.8h2.2c0.4,0,0.8,0.4,0.8,0.8v0.1
		C22.9,34.3,22.6,34.7,22.1,34.7z"/>
	<path class="st2" d="M21.2,33.9v-8c0-0.4,0.4-0.8,0.8-0.8h0.1c0.4,0,0.8,0.4,0.8,0.8v8c0,0.4-0.4,0.8-0.8,0.8H22
		C21.6,34.7,21.2,34.3,21.2,33.9z"/>
</g>
<g>
	<path class="st2" d="M16.9,28.8l2.2,0c0.4,0,0.8,0.4,0.8,0.8l0,0.1c0,0.4-0.4,0.8-0.8,0.8l-2.2,0c-0.4,0-0.8-0.4-0.8-0.8l0-0.1
		C16.1,29.2,16.5,28.8,16.9,28.8z"/>
	<path class="st2" d="M17.8,29.6l0,4.1c0,0.4-0.4,0.8-0.8,0.8l-0.1,0c-0.4,0-0.8-0.4-0.8-0.8l0-4.1c0-0.4,0.4-0.8,0.8-0.8l0.1,0
		C17.4,28.8,17.8,29.2,17.8,29.6z"/>
</g>
<g>
	<path class="st2" d="M20.1,21.9L20,26.5c0,0.4-0.4,0.8-0.8,0.8l-0.1,0c-0.4,0-0.8-0.4-0.8-0.8l0.1-4.7c0-0.4,0.4-0.8,0.8-0.8l0.1,0
		C19.7,21,20.1,21.4,20.1,21.9z"/>
	<path class="st2" d="M19.3,22.7H9.8c-0.4,0-0.8-0.4-0.8-0.8v-0.1C9,21.4,9.3,21,9.8,21h9.5c0.4,0,0.8,0.4,0.8,0.8v0.1
		C20.1,22.3,19.7,22.7,19.3,22.7z"/>
	<path class="st2" d="M33.4,22.7h-7.5c-0.4,0-0.8-0.4-0.8-0.8v-0.1c0-0.4,0.4-0.8,0.8-0.8h7.5c0.4,0,0.8,0.4,0.8,0.8v0.1
		C34.2,22.3,33.9,22.7,33.4,22.7z"/>
</g>
<path class="st2" d="M22.9,22.8L22.9,22.8c-0.5,0-0.9-0.4-0.9-0.9v0c0-0.5,0.4-0.9,0.9-0.9h0c0.5,0,0.9,0.4,0.9,0.9v0
	C23.8,22.4,23.4,22.8,22.9,22.8z"/>
<path class="st2" d="M6.9,22.8L6.9,22.8c-0.5,0-0.9-0.4-0.9-0.9v0c0-0.5,0.4-0.9,0.9-0.9h0c0.5,0,0.9,0.4,0.9,0.9v0
	C7.8,22.4,7.4,22.8,6.9,22.8z"/>
</svg>
