<?xml version="1.0" encoding="utf-8"?>
<!-- Generator: Adobe Illustrator 19.1.0, SVG Export Plug-In . SVG Version: 6.00 Build 0)  -->
<svg version="1.1" id="Layer_1" xmlns="http://www.w3.org/2000/svg" xmlns:xlink="http://www.w3.org/1999/xlink" x="0px" y="0px"
	 viewBox="0 0 24 24" style="enable-background:new 0 0 24 24;" xml:space="preserve">
<style type="text/css">
	.st0{fill:#FFFFFF;}
</style>
<g>
	<g id="Shape_232_">
		<path class="st0" d="M22,16.5l-4-4.1c-0.6-0.7-1.6-0.6-2.2,0l-4.9,4.4C10,17.4,9,17.3,8.4,16.4l-0.4-0.6c-0.6-0.9-1.8-0.9-2.5-0.3
			l-3.7,3l0,0C1.8,20,2.9,21,4.3,21h14.6c1.8,0,3.1-1,3.1-2.9V16.5L22,16.5z"/>
		<path class="st0" d="M18.9,22.1H4.3c-2.1,0-3.7-1.5-3.7-3.6c0-0.3,0.2-0.7,0.4-0.9l3.7-3C5.3,14.1,6.2,13.9,7,14
			c0.8,0.1,1.4,0.5,1.8,1.2l0.4,0.5C9.4,15.9,9.6,16,9.7,16c0.2,0,0.3-0.1,0.4-0.2l4.9-4.4c1.3-1,2.9-1,3.8,0.1l4,4.1
			c0.2,0.2,0.3,0.5,0.3,0.8V18C23.1,20.5,21.4,22.1,18.9,22.1z M2.9,19c0.2,0.6,0.8,0.9,1.4,0.9h14.6c0.8,0,2-0.2,2-1.8v-1.1
			l-3.7-3.8c-0.2-0.2-0.5-0.1-0.7,0.1l-4.9,4.3c-0.6,0.5-1.4,0.8-2.1,0.7c-0.8-0.1-1.5-0.5-2-1.2L7,16.5c0,0-0.1-0.1-0.1-0.1
			c0-0.1-0.1-0.2-0.3-0.2c-0.2,0-0.4,0-0.5,0.1L2.9,19z"/>
	</g>
	<g>
		<path class="st0" d="M19,22.5H4.9c-2.4,0-4.3-1.9-4.3-4.3V5.8c0-2.4,1.9-4.3,4.3-4.3h14.2c2.4,0,4.3,1.9,4.3,4.3V18
			C23.3,20.6,21.4,22.5,19,22.5z M4.9,3.9c-1.1,0-2,0.9-2,2v12.3c0,1.1,0.9,2,2,2H19c1.1,0,2-0.9,2.1-2.1l0-12.1c0-1.1-0.9-2-2-2
			H4.9z"/>
	</g>
</g>
</svg>
