<svg xmlns="http://www.w3.org/2000/svg" xmlns:xlink="http://www.w3.org/1999/xlink" viewBox="0 0 40 40"><defs><clipPath id="a"><rect x="-670" y="70" width="600" height="371" style="fill:none"/></clipPath><clipPath id="b"><rect x="-23.82" y="4.21" width="57.68" height="43.57" transform="translate(-21.45 25.2) rotate(-77.35)" style="fill:none"/></clipPath><clipPath id="c"><rect x="-7.68" y="0.16" width="57.68" height="43.57" style="fill:none"/></clipPath><clipPath id="f"><rect x="-18.5" y="-3.48" width="57.68" height="43.57" style="fill:none"/></clipPath></defs><title>Artboard 71</title><g style="opacity:0.1"><g style="clip-path:url(#a)"><rect x="-160.76" y="-106.67" width="429.62" height="205.83" style="fill:none"/><circle cx="41.92" cy="59.73" r="20" style="fill:#54d2ef"/></g></g><circle cx="-371" cy="274" r="367" style="fill:none;stroke:#00a79d;stroke-miterlimit:10;stroke-width:50px;opacity:0.1"/><path d="M10.59,35.84H20.75a2.58,2.58,0,0,0,2.59-2.59V6.85a2.58,2.58,0,0,0-2.59-2.58H10.59A2.59,2.59,0,0,0,8,6.85V33.24A2.6,2.6,0,0,0,10.59,35.84Z" style="fill:#414042"/><g style="clip-path:url(#b)"><circle cx="15.61" cy="34.06" r="1.19" style="fill:#6d6e71"/></g><g style="clip-path:url(#c)"><path d="M7.9,13.39h.15V11H7.9a.26.26,0,0,0-.26.26v1.83A.26.26,0,0,0,7.9,13.39Z" style="fill:#6d6e71"/></g><g style="clip-path:url(#c)"><path d="M7.9,16.31h.15V14H7.9a.26.26,0,0,0-.26.25v1.84A.25.25,0,0,0,7.9,16.31Z" style="fill:#6d6e71"/></g><g style="clip-path:url(#c)"><path d="M14.22,6.39H17a.2.2,0,0,0,.21-.2h0A.21.21,0,0,0,17,6h-2.8a.21.21,0,0,0-.21.21h0A.2.2,0,0,0,14.22,6.39Z" style="fill:#231f20"/></g><g style="clip-path:url(#f)"><rect x="8.75" y="8.02" width="14.01" height="24.22" style="fill:#f1f2f2;opacity:0.939999997615814;isolation:isolate"/></g><polyline points="14.42 22.47 16.26 22.47 18.82 14.24 20.8 27.02 24.22 17.93 25.93 22.47 28.12 22.47" style="fill:none;stroke:#ffd200;stroke-miterlimit:10"/><circle cx="29.47" cy="22.33" r="1.92" style="fill:#ffd200"/><path d="M32.93,18.63c-.6-.6-1.53.34-.93.93a4.29,4.29,0,0,1,0,6.14c-.61.59.32,1.52.93.93a5.53,5.53,0,0,0,0-8Z" style="fill:#ffd200"/><path d="M34.68,16.57c-.58-.63-1.51.31-.93.93a7.69,7.69,0,0,1,2.06,5c0,1.72-.5,4.07-2,5.15-.68.5,0,1.64.67,1.14,1.83-1.34,2.63-3.91,2.63-6.1A9,9,0,0,0,34.68,16.57Z" style="fill:#ffd200"/></svg>