<?xml version="1.0" encoding="utf-8"?>
<!-- Generator: Adobe Illustrator 19.1.0, SVG Export Plug-In . SVG Version: 6.00 Build 0)  -->
<svg version="1.1" id="Layer_1" xmlns="http://www.w3.org/2000/svg" xmlns:xlink="http://www.w3.org/1999/xlink" x="0px" y="0px"
	 viewBox="0 0 24 24" style="enable-background:new 0 0 24 24;" xml:space="preserve">
<style type="text/css">
	.st0{fill:#48A145;stroke:#48A145;stroke-width:2.215;stroke-linecap:round;stroke-linejoin:round;}
	.st1{fill:none;stroke:#48A145;stroke-width:2.2209;stroke-linecap:round;}
	.st2{fill:#48A145;}
</style>
<path id="Shape_1_" class="st0" d="M20.2,17.3l-3.7-3.9c-0.5-0.5-1.4-0.6-2.1-0.1l-4.6,3.8c-0.7,0.5-1.6,0.4-2.3-0.3l-0.4-0.5
	c-0.5-0.7-1.6-0.8-2.3-0.3l-3.4,2.9l0,0c0,1.3,1,2.4,2.4,2.4h13.3c1.6,0,3.1-1.3,3.1-3.1L20.2,17.3L20.2,17.3z"/>
<path id="Rectangle_1_" class="st1" d="M20.3,10.2v8.1c0,1.5-1.2,2.7-2.7,2.7H4.2c-1.4,0-2.7-1.2-2.7-2.7V7.5c0-1.5,1.2-2.7,2.7-2.7
	H15"/>
<g id="Layer_1_1_">
	<title>Feedback</title>
	<desc>Created with Sketch.</desc>
	<g id="Page-1_40_">
		<g id="Feedback_5_">
			<path id="feedback_5_" class="st2" d="M18.1,8.4c0,0.1-1.2,0.5-1.2,0.5c-0.1-0.1-0.1-0.3-0.3-0.4c-0.2-0.2-0.3-0.3-0.4-0.3
				c0.1-0.1,0.1-0.3,0.2-0.4c0-0.1,0.1-0.2,0.1-0.3c0-0.1,0-0.1,0.1-0.2c0-0.1,0-0.1,0.1-0.2c0,0,0.1-0.1,0.1-0.1
				c0.2-0.2,0.6-0.1,0.8,0c0,0,0.1,0,0.1,0c0.1,0.1,0.3,0.2,0.4,0.3c0.1,0.1,0.2,0.3,0.2,0.5c0,0.1,0,0.2,0,0.2
				C18.2,8.2,18.1,8.3,18.1,8.4z M19.8,4.1C19.9,4.1,19.9,4,20,4c0.2-0.1,0.3,0,0.5,0c0.1,0,0.2,0.1,0.1,0.2c0,0,0,0.1-0.1,0.1
				c-0.8,0.7-1.5,1.4-2.3,2.2c-0.1,0.1-0.2,0.2-0.3,0.2c-0.1,0-0.3-0.1-0.4-0.1c-0.1,0-0.1-0.1-0.1-0.2c0,0,0,0,0-0.1
				c0,0,0.1-0.1,0.1-0.1C17.8,6,18,5.9,18.1,5.7c0.3-0.3,0.6-0.6,0.9-0.8c0.2-0.2,0.5-0.4,0.7-0.7C19.7,4.2,19.8,4.2,19.8,4.1z
				 M21.2,5.4L19,7.5c-0.1,0.1-0.3,0.1-0.3-0.1c-0.1-0.1-0.1-0.2-0.2-0.3c-0.1-0.1-0.1-0.2,0-0.3l2.4-2.3c0.1-0.1,0.3-0.1,0.3,0.1
				C21.4,5.1,21.3,5.3,21.2,5.4z M22.1,3.2c-0.6-0.5-1.4-0.7-1.9-0.2l-3.8,3.7c-0.1,0.1-0.2,0.2-0.2,0.3l-0.8,1.8
				c-0.1,0.3-0.4,0.9-0.3,1.2c0.2,0.2,0.9-0.1,1.2-0.2l1.9-0.8c0.1-0.1,0.2-0.2,0.3-0.2L22.3,5C22.8,4.7,22.7,3.8,22.1,3.2z"/>
		</g>
	</g>
	<path class="st2" d="M18.3,8l-0.2-0.2c0,0,0.1,0.4-0.1,0.6c-0.2,0.3,0.3,0.1,0.3,0.1c0-0.1,0-0.4,0-0.4L18.3,8z"/>
</g>
</svg>
