<?xml version="1.0" encoding="utf-8"?>
<!-- Generator: Adobe Illustrator 19.2.1, SVG Export Plug-In . SVG Version: 6.00 Build 0)  -->
<svg version="1.1" id="Layer_1" xmlns="http://www.w3.org/2000/svg" xmlns:xlink="http://www.w3.org/1999/xlink" x="0px" y="0px"
	 viewBox="0 0 48 48" style="enable-background:new 0 0 48 48;" xml:space="preserve">
<style type="text/css">
	.st0{fill:#48A145;}
</style>
<title>sound-library</title>
<desc>Created with Sketch.</desc>
<g id="Page-1">
	<g id="sound-library">
		<path id="Combined-Shape" class="st0" d="M43.6,6.6h2.2c1.2,0,2.2,1,2.2,2.2s-1,2.2-2.2,2.2h-2.2v2.2c0,1.2-1,2.2-2.2,2.2
			s-2.2-1-2.2-2.2v-2.2h-2.2c-1.2,0-2.2-1-2.2-2.2s1-2.2,2.2-2.2h2.2V4.4c0-1.2,1-2.2,2.2-2.2s2.2,1,2.2,2.2V6.6z M28.4,37.3
			c-0.4,0-0.9-0.1-1.3-0.4c-1.2-0.7-1.6-2.3-0.9-3.6c1.4-2.4,1.4-5.3,0-7.7c-0.7-1.2-0.3-2.8,0.9-3.6c1.2-0.7,2.8-0.3,3.6,0.9
			c2.4,4,2.4,9,0,13C30.2,36.9,29.3,37.3,28.4,37.3z M36.2,41.5c-0.4,0-0.9-0.1-1.3-0.4c-1.2-0.7-1.6-2.3-0.9-3.6
			c2.9-5,2.9-11.1,0-16.1c-0.7-1.2-0.3-2.8,0.9-3.6c1.2-0.7,2.8-0.3,3.6,0.9c3.9,6.6,3.9,14.8,0,21.4C38,41.1,37.1,41.5,36.2,41.5z
			 M21.8,16.8v25.5c0,3-3.6,4.6-5.8,2.6l-4.8-4.4C9.5,38.9,7.3,38,5,38H4.2C1.9,38,0,36.2,0,33.9v-8.6c0-2.3,1.9-4.2,4.2-4.2h0.8
			c2.3,0,4.5-0.9,6.2-2.4l4.8-4.4C18.2,12.2,21.8,13.8,21.8,16.8z"/>
	</g>
</g>
</svg>
