<?xml version="1.0" encoding="utf-8"?>
<!-- Generator: Adobe Illustrator 19.2.1, SVG Export Plug-In . SVG Version: 6.00 Build 0)  -->
<svg version="1.1" id="Layer_1" xmlns="http://www.w3.org/2000/svg" xmlns:xlink="http://www.w3.org/1999/xlink" x="0px" y="0px"
	 viewBox="0 0 24 24" style="enable-background:new 0 0 24 24;" xml:space="preserve">
<style type="text/css">
	.st0{fill:#868e9c;} 
</style>
<g id="Page-1_29_">
	<g id="Fullscreen_9_">
		<g id="fullscreen_9_" transform="translate(3.000000, 3.000000)">
			<path id="Fill-1_30_" class="st0" d="M18.1,5.2l-1.3-1.3l-4.5,3.4c-0.5,0.4-1.3,0.3-1.6-0.2c-0.3-0.4-0.3-1,0-1.4L14,1.2L12.8,0
				C12.5-0.4,12.7-1,13.2-1l5.3,0C18.7-1,19-0.7,19-0.4v5.3C19,5.3,18.4,5.6,18.1,5.2"/>
			<path id="Fill-3_10_" class="st0" d="M-0.1,12.8l1.3,1.3l4.5-3.4c0.5-0.4,1.3-0.3,1.6,0.2c0.3,0.4,0.3,1,0,1.4l-3.4,4.5L5.2,18
				C5.5,18.4,5.3,19,4.8,19l-5.3,0C-0.7,19-1,18.7-1,18.4v-5.3C-1,12.7-0.4,12.4-0.1,12.8"/>
			<path id="Fill-5_10_" class="st0" d="M-0.1,5.2l1.3-1.3l4.5,3.4c0.5,0.4,1.3,0.3,1.6-0.2c0.3-0.4,0.3-1,0-1.4L3.9,1.2L5.2,0
				C5.5-0.4,5.3-1,4.8-1l-5.3,0C-0.7-1-1-0.7-1-0.4v5.3C-1,5.3-0.4,5.6-0.1,5.2"/>
			<path id="Fill-7_10_" class="st0" d="M18.1,12.8l-1.3,1.3l-4.5-3.4c-0.5-0.4-1.3-0.3-1.6,0.2c-0.3,0.4-0.3,1,0,1.4l3.4,4.5
				L12.8,18c-0.4,0.4-0.1,0.9,0.4,0.9l5.3,0c0.3,0,0.6-0.3,0.6-0.6v-5.3C19,12.7,18.4,12.4,18.1,12.8"/>
		</g>
	</g>
</g>
</svg>
