<?xml version="1.0" encoding="utf-8"?>
<!-- Generator: Adobe Illustrator 19.2.1, SVG Export Plug-In . SVG Version: 6.00 Build 0)  -->
<svg version="1.1" id="Layer_1" xmlns="http://www.w3.org/2000/svg" xmlns:xlink="http://www.w3.org/1999/xlink" x="0px" y="0px"
	 viewBox="0 0 48 48" style="enable-background:new 0 0 48 48;" xml:space="preserve">
<style type="text/css">
	.st0{fill:#48A145;}
</style>
<g>
	<g>
		<g>
			<path class="st0" d="M6.8,16.7L6.8,16.7c-1.2,0-2.1-0.9-2.1-2.1V8.4c0-1.2,0.9-2.1,2.1-2.1h0c1.2,0,2.1,0.9,2.1,2.1v6.1
				C8.9,15.7,8,16.7,6.8,16.7z"/>
			<path class="st0" d="M27.8,9H2.5C1.1,9,0,10.1,0,11.5v0C0,12.9,1.1,14,2.5,14h25.3c1.4,0,2.5-1.1,2.5-2.5v0
				C30.3,10.1,29.2,9,27.8,9z"/>
		</g>
		<g>
			<path class="st0" d="M15.8,26.9L15.8,26.9c-1.2,0-2.1-0.9-2.1-2.1v-6.1c0-1.2,0.9-2.1,2.1-2.1h0c1.2,0,2.1,0.9,2.1,2.1v6.1
				C17.9,26,17,26.9,15.8,26.9z"/>
			<path class="st0" d="M27.8,19.2H2.5c-1.4,0-2.5,1.1-2.5,2.5v0c0,1.4,1.1,2.5,2.5,2.5h25.3c1.4,0,2.5-1.1,2.5-2.5v0
				C30.3,20.3,29.2,19.2,27.8,19.2z"/>
		</g>
		<g>
			<path class="st0" d="M9.1,37.2L9.1,37.2C7.9,37.2,7,36.2,7,35v-6.1c0-1.2,0.9-2.1,2.1-2.1h0c1.2,0,2.1,0.9,2.1,2.1V35
				C11.2,36.2,10.2,37.2,9.1,37.2z"/>
			<path class="st0" d="M2.5,34.5h15.2c1.4,0,2.5-1.1,2.5-2.5v0c0-1.4-1.1-2.5-2.5-2.5H2.5C1.1,29.4,0,30.6,0,32v0
				C0,33.4,1.1,34.5,2.5,34.5z"/>
		</g>
	</g>
	<path class="st0" d="M35.4,8.8V27c-0.8-0.3-1.6-0.5-2.5-0.5c-4.5,0-8,3.9-7.5,8.4c0.4,3.5,3.2,6.3,6.7,6.7c4.6,0.5,8.4-3.1,8.4-7.5
		V11.4h5.1c1.4,0,2.5-1.1,2.5-2.5v0c0-1.4-1.1-2.5-2.5-2.5h-7.7C36.5,6.3,35.4,7.4,35.4,8.8z"/>
</g>
</svg>
