<?xml version="1.0" encoding="utf-8"?>
<!-- Generator: Adobe Illustrator 19.1.0, SVG Export Plug-In . SVG Version: 6.00 Build 0)  -->
<svg version="1.1" id="Layer_1" xmlns="http://www.w3.org/2000/svg" xmlns:xlink="http://www.w3.org/1999/xlink" x="0px" y="0px"
	 viewBox="0 0 40 40" style="enable-background:new 0 0 40 40;" xml:space="preserve">
<style type="text/css">
	.st0{fill:#808285;}
	.st1{fill:#00E215;}
	.st2{fill:#BCBEC0;}
	.st3{fill:#F1F2F2;}
	.st4{fill:#E6E7E8;}
	.st5{fill:#D1D3D4;}
	.st6{fill:#231F20;}
</style>
<path id="XMLID_12799_" class="st0" d="M26.4,35.3c0,0-0.1,0-0.1,0c-0.2,0-0.3-0.1-0.5-0.3l-0.3-0.4c-0.2-0.2-0.2-0.5-0.2-0.8
	c0-0.2,0.2-0.4,0.3-0.6l-1.1-1.6c-0.3-0.4-0.4-1-0.2-1.4l-2.6-3.8h-3v3.3c0.4,0.3,0.6,0.8,0.6,1.3V33c0.5,0.1,0.8,0.5,0.8,1v0.4
	c0,0.4-0.3,0.7-0.7,0.7h-9c-0.4,0-0.7-0.3-0.7-0.7V34c0-0.6,0.5-1,1-1h1.4v-1.9c0-0.5,0.2-1,0.6-1.3v-3.3h-2.3C9.7,26.5,9,25.8,9,25
	v-4.3l-4.4-2.5c-0.7,0.5-1.5,0.7-2.3,0.7c-0.7,0-1.4-0.2-2-0.5c-0.3-0.2-0.5-0.6-0.3-1L1,15.9c0.1-0.2,0.2-0.3,0.4-0.3
	c0.1,0,0.1,0,0.2,0c0.1,0,0.2,0,0.4,0.1c0.1,0.1,0.3,0.1,0.4,0.1c0.3,0,0.6-0.2,0.8-0.4c0.1-0.2,0.1-0.4,0.1-0.7
	c-0.1-0.2-0.2-0.4-0.4-0.5c-0.2-0.1-0.3-0.2-0.3-0.4c0-0.2,0-0.4,0.1-0.5l0.9-1.5c0.1-0.2,0.2-0.3,0.4-0.3c0.1,0,0.1,0,0.2,0
	c0.1,0,0.2,0,0.4,0.1c1.4,0.8,2.1,2.3,2,3.8L9,16.7v-0.9c0-0.7,0.5-1.4,1.2-1.5v-8c0-0.9,0.7-1.6,1.6-1.6h16.3
	c0.9,0,1.6,0.7,1.6,1.6v8c0.7,0.1,1.2,0.7,1.2,1.5v0.9l2.7-1.5c-0.1-1.5,0.6-3,2-3.8c0.1-0.1,0.2-0.1,0.4-0.1c0.1,0,0.1,0,0.2,0
	c0.2,0,0.3,0.2,0.4,0.3l0.9,1.5c0.1,0.2,0.1,0.4,0.1,0.5c0,0.2-0.2,0.3-0.3,0.4c-0.2,0.1-0.3,0.3-0.4,0.5c-0.1,0.2,0,0.5,0.1,0.7
	c0.2,0.3,0.4,0.4,0.8,0.4c0.2,0,0.3,0,0.4-0.1c0.1-0.1,0.2-0.1,0.4-0.1c0.1,0,0.1,0,0.2,0c0.2,0,0.3,0.2,0.4,0.3l0.9,1.5
	c0.2,0.3,0.1,0.8-0.3,1c-0.6,0.4-1.3,0.5-2,0.5l0,0c-0.8,0-1.6-0.3-2.3-0.7l-4.4,2.5V25c0,0.8-0.7,1.5-1.5,1.5h-0.5l0.3,0.4
	c0.5,0,1,0.3,1.3,0.7l1.1,1.6l1.1-0.7c0.2-0.1,0.4-0.2,0.6-0.2c0.3,0,0.6,0.2,0.8,0.4l0.3,0.4c0.2,0.3,0.1,0.8-0.2,1l-7.4,5.2
	C26.6,35.3,26.5,35.3,26.4,35.3z"/>
<g id="XMLID_12798_">
	<path id="XMLID_12757_" class="st1" d="M29,15H11V6.3c0-0.5,0.4-0.9,0.9-0.9h16.3c0.5,0,0.9,0.4,0.9,0.9V15z"/>
	<g id="XMLID_12753_">
		<rect id="XMLID_12756_" x="13.5" y="24.5" class="st2" width="4.5" height="9.9"/>
		<path id="XMLID_12755_" class="st3" d="M18.7,34.4h-5.8v-3.4c0-0.5,0.4-0.9,0.9-0.9h3.9c0.5,0,0.9,0.4,0.9,0.9V34.4z"/>
		<path id="XMLID_12754_" class="st4" d="M19.1,33.7h-8.4c-0.2,0-0.3,0.1-0.3,0.3v0.4h9V34C19.5,33.8,19.3,33.7,19.1,33.7z"/>
	</g>
	<g id="XMLID_12749_">
		
			<rect id="XMLID_12752_" x="24.4" y="23.4" transform="matrix(0.8192 -0.5736 0.5736 0.8192 -11.4478 20.3927)" class="st2" width="4.5" height="9.9"/>
		<path id="XMLID_12751_" class="st3" d="M31.8,30.8l-4.7,3.3l-1.9-2.8c-0.3-0.4-0.2-1,0.2-1.3l3.2-2.2c0.4-0.3,1-0.2,1.3,0.2
			L31.8,30.8z"/>
		<path id="XMLID_12750_" class="st4" d="M33,29l-6.9,4.8c-0.1,0.1-0.2,0.3-0.1,0.4l0.3,0.4l7.4-5.2l-0.3-0.4
			C33.4,28.9,33.2,28.9,33,29z"/>
	</g>
	<path id="XMLID_12747_" class="st5" d="M4.1,11.9l-0.9,1.5c0.8,0.4,1,1.4,0.6,2.2s-1.4,1-2.2,0.6l-0.9,1.5c1.3,0.7,2.9,0.5,3.9-0.4
		l6.5,3.7c0.5,0.3,1.1,0.1,1.4-0.4l0,0c0.3-0.5,0.1-1.1-0.4-1.4l-6.5-3.7C6,14.1,5.3,12.7,4.1,11.9z"/>
	<path id="XMLID_12746_" class="st5" d="M39.3,17.7l-0.9-1.5c-0.8,0.4-1.7,0.2-2.2-0.6c-0.4-0.8-0.2-1.7,0.6-2.2l-0.9-1.5
		c-1.3,0.7-1.9,2.2-1.6,3.6l-6.5,3.7c-0.5,0.3-0.7,0.9-0.4,1.4l0,0c0.3,0.5,0.9,0.7,1.4,0.4l6.5-3.7C36.4,18.3,38,18.5,39.3,17.7z"
		/>
	<g id="XMLID_12572_">
		<g id="XMLID_12654_">
			<path id="XMLID_12744_" class="st6" d="M17.9,12.8h-3.6c-0.1,0-0.2-0.1-0.2-0.2V9c0-0.1,0.1-0.2,0.2-0.2h3.6
				C17.9,8.9,18,8.9,18,9v3.6C18,12.7,17.9,12.8,17.9,12.8z"/>
		</g>
		<g id="XMLID_12581_">
			<path id="XMLID_12651_" class="st6" d="M25.7,12.8h-3.6c-0.1,0-0.2-0.1-0.2-0.2V9c0-0.1,0.1-0.2,0.2-0.2h3.6
				c0.1,0,0.2,0.1,0.2,0.2v3.6C25.9,12.7,25.8,12.8,25.7,12.8z"/>
		</g>
	</g>
	<path id="XMLID_12748_" class="st3" d="M29.4,25.8H10.6c-0.4,0-0.8-0.4-0.8-0.8v-9.2c0-0.4,0.4-0.8,0.8-0.8h18.9
		c0.4,0,0.8,0.4,0.8,0.8V25C30.2,25.5,29.9,25.8,29.4,25.8z"/>
</g>
</svg>
