<?xml version="1.0" encoding="utf-8"?>
<!-- Generator: Adobe Illustrator 19.0.0, SVG Export Plug-In . SVG Version: 6.00 Build 0)  -->
<svg version="1.1" baseProfile="tiny" id="Layer_1" xmlns="http://www.w3.org/2000/svg" xmlns:xlink="http://www.w3.org/1999/xlink"
	 x="0px" y="0px" viewBox="0 0 40 40" xml:space="preserve">
<rect id="XMLID_12530_" x="8.7" y="4.3" fill="#2D2D2D" width="22.6" height="32"/>
<g id="XMLID_1_">
	<rect id="XMLID_12493_" x="8.7" y="11.9" fill="#FCBD14" width="1.5" height="1.1"/>
	<rect id="XMLID_12491_" x="8.7" y="15.4" fill="#FCBD14" width="1.5" height="1.1"/>
	<rect id="XMLID_12489_" x="8.7" y="18.9" fill="#FCBD14" width="1.5" height="1.1"/>
	<rect id="XMLID_6_" x="8.7" y="22.3" fill="#FCBD14" width="1.5" height="1.1"/>
	<rect id="XMLID_12484_" x="8.7" y="25.8" fill="#FCBD14" width="1.5" height="1.1"/>
	<rect id="XMLID_12482_" x="8.7" y="29.3" fill="#FCBD14" width="1.5" height="1.1"/>
	<rect id="XMLID_12480_" x="8.7" y="32.7" fill="#FCBD14" width="1.5" height="1.1"/>
</g>
<g id="XMLID_9_">
	<rect id="XMLID_16_" x="29.8" y="11.9" fill="#FCBD14" width="1.5" height="1.1"/>
	<rect id="XMLID_15_" x="29.8" y="15.4" fill="#FCBD14" width="1.5" height="1.1"/>
	<rect id="XMLID_14_" x="29.8" y="18.9" fill="#FCBD14" width="1.5" height="1.1"/>
	<rect id="XMLID_13_" x="29.8" y="22.3" fill="#FCBD14" width="1.5" height="1.1"/>
	<rect id="XMLID_12_" x="29.8" y="25.8" fill="#FCBD14" width="1.5" height="1.1"/>
	<rect id="XMLID_11_" x="29.8" y="29.3" fill="#FCBD14" width="1.5" height="1.1"/>
	<rect id="XMLID_10_" x="29.8" y="32.7" fill="#FCBD14" width="1.5" height="1.1"/>
</g>
<g id="XMLID_56_">
	<rect id="XMLID_62_" x="26.4" y="34.8" fill="#FCBD14" width="1.1" height="1.5"/>
	<rect id="XMLID_61_" x="22.9" y="34.8" fill="#FCBD14" width="1.1" height="1.5"/>
	<rect id="XMLID_60_" x="19.4" y="34.8" fill="#FCBD14" width="1.1" height="1.5"/>
	<rect id="XMLID_59_" x="16" y="34.8" fill="#FCBD14" width="1.1" height="1.5"/>
	<rect id="XMLID_58_" x="12.5" y="34.8" fill="#FCBD14" width="1.1" height="1.5"/>
</g>
<polygon id="XMLID_57_" points="29,6 29,5 23,5 23,9 21,9 21,5 17,5 17,9 15,9 15,5 11,5 11,11 12,11 12,6 14,6 14,10 18,10 18,6 
	20,6 20,10 24,10 24,6 26,6 26,11 27,11 27,6 28,6 28,11 29,11 29,6 "/>
<rect id="XMLID_12528_" x="10.2" y="11.3" fill="#999999" width="19.7" height="23.5"/>
<path id="XMLID_12630_" fill="#E2E2E2" d="M27.6,23.2c0,0-0.1-0.1-0.1-0.3c-0.2-0.5-0.6-1.3-1-1.8c-0.8-1.3-1.9-2.4-3.1-3.3
	c-1-0.7-2.2-1.3-3.5-1.7c-0.1,0-0.2-0.1-0.2-0.1c0,0,0-0.1,0.1-0.2c0.1-0.2,0-0.2,0.4-0.3c0.9-0.1,2,0.1,3,0.4
	c2.2,0.8,4,2.6,4.6,4.8c0.2,0.6,0.3,1.1,0.3,1.8c0,0.4,0,0.5,0,0.5c0,0-0.1,0.1-0.2,0.1L27.6,23.2L27.6,23.2z M25.6,27.4l-0.4,0
	l0-0.2c0-0.3-0.1-0.8-0.1-1.1c-0.3-1.6-1-3.1-2.1-4.3c-1.4-1.6-3.3-2.6-5.4-2.9c-0.5-0.1-0.9-0.1-1.5-0.1l-0.4,0l0-0.6
	c0-0.3,0-0.6,0-0.6c0,0,0.4-0.3,0.6-0.5c0.2-0.2,0.5-0.3,0.7-0.5l0.2-0.1l0.2,0c3.1,0.3,5.9,1.7,7.8,4.1c1.2,1.4,2,3.1,2.3,4.9
	c0,0.2,0.1,0.3,0.1,0.3c0,0.1-0.5,0.9-0.8,1.3l-0.1,0.1l-0.2,0C26,27.4,25.8,27.4,25.6,27.4z M15.9,28.8c-0.5-0.1-0.9-0.4-1.1-0.9
	c-0.1-0.2-0.1-0.4,0-0.6c0.1-0.3,0.3-0.7,0.6-0.8c0.2-0.1,0.4-0.1,0.6-0.2c0.2,0,0.2,0,0.4,0.1c0.4,0.1,0.7,0.4,0.8,0.8
	c0.1,0.3,0.1,0.6,0,0.9c-0.1,0.3-0.4,0.6-0.8,0.7C16.3,28.8,16,28.8,15.9,28.8z M20,29.9c-0.3,0-0.7-0.1-0.9-0.1l-0.2,0l-0.4-0.3
	c-0.2-0.2-0.4-0.3-0.4-0.3c0,0,0-0.1,0.1-0.2c0.2-0.3,0.4-0.7,0.4-1.1c0-0.2,0-0.6,0-0.8c-0.2-0.9-0.9-1.6-1.7-1.9
	c-0.3-0.1-0.5-0.1-0.8-0.1c-0.5,0-0.8-0.1-1.2-0.3c-0.5-0.2-1-0.6-1.3-1.1c-0.2-0.4-0.3-0.8-0.3-1.1c0-0.4,0.1-1,0.1-1.2
	c0.3-0.9,1.1-1.5,2-1.7c0.2-0.1,0.9-0.1,1.3,0c1.8,0.2,3.5,0.8,4.8,2c0.7,0.6,1.3,1.3,1.7,2.1c0.5,0.8,0.8,1.7,0.9,2.7
	c0.1,0.3,0.1,1.2,0.1,1.5c0,0.4-0.1,1.1-0.2,1.2c0,0.1-0.9,0.4-1.2,0.5l-0.2,0l-0.5-0.2c-0.3-0.1-0.5-0.2-0.5-0.2c0,0,0-0.1,0-0.2
	c0.1-0.3,0.2-0.8,0.2-1.2c0-0.3,0-1-0.1-1.3c-0.2-0.9-0.5-1.7-1-2.4c-1-1.4-2.6-2.2-4.3-2.3c-0.6,0-0.7,0-0.9,0.2c0,0.1,0,0.1,0,0.2
	c0,0.2,0,0.2,0.2,0.3c0.1,0.1,0.2,0.1,0.5,0.1c1.5,0.1,2.9,0.8,3.8,2c1,1.4,1.2,3.2,0.5,4.7c-0.2,0.3-0.2,0.4-0.3,0.4
	C20.2,30,20.1,30,20,29.9z M20.5,31.3c-2-0.1-3.8-0.7-5.3-1.9c-0.3-0.3-0.9-0.8-1.2-1.1c-0.3-0.3-0.6-0.8-0.8-1.1
	c-0.7-1-1.1-2.2-1.3-3.4c-0.1-0.4-0.1-1.1-0.1-1.5c0.1-1.9,0.9-3.7,2.2-5.2c0.1-0.1,0.2-0.2,0.2-0.2c0,0,0.5,0.4,0.5,0.4
	c0,0-0.1,0.1-0.2,0.2c-0.9,1-1.6,2.3-1.8,3.7c-0.1,0.6-0.2,1.1-0.1,1.8c0,0.5,0.1,0.8,0.2,1.3c0.3,1.5,1.2,3,2.3,4.1
	c1.4,1.3,3.1,2,5,2.2c0.3,0,1.1,0,1.5,0c1.9-0.2,3.6-1,4.9-2.3l0.2-0.2l0.2,0.2l0.2,0.2L27,28.7c0,0-0.2,0.2-0.3,0.3
	c-1.4,1.2-3.1,2-5,2.3C21.5,31.3,20.8,31.3,20.5,31.3z"/>
</svg>
