<svg id="Layer_5" data-name="Layer 5" xmlns="http://www.w3.org/2000/svg" viewBox="0 0 40 40"><defs><style>.cls-1{fill:#d2ce46;}.cls-2{fill:#409472;}.cls-3{fill:#34629b;}.cls-4{fill:#33639c;}.cls-5,.cls-9{fill:none;}.cls-6{fill:#fff;}.cls-7{fill:#d1ce45;}.cls-8{fill:#3d9573;}.cls-9{stroke:#fff;stroke-linecap:round;stroke-miterlimit:10;stroke-width:1.2px;}</style></defs><title>Teachable Machine _icon-02-03-03</title><polygon class="cls-1" points="5.37 11.29 19.93 20 34.13 11.29 19.75 2.95 5.37 11.29"/><polygon class="cls-2" points="4.93 27.98 19.42 36.62 19.93 20 5.37 11.29 4.93 27.98"/><polygon class="cls-3" points="19.93 20 19.42 36.62 34.13 28.31 34.13 11.29 19.93 20"/><path class="cls-4" d="M28.38,20.59A2.46,2.46,0,0,1,28.59,22,0.2,0.2,0,0,0,29,22a2.75,2.75,0,0,0-.33-1.72c-0.16-.2-0.44.08-0.28,0.28h0Z"/><path class="cls-4" d="M28.42,20.19A14.22,14.22,0,0,1,29,21.94a0.2,0.2,0,0,0,.38-0.1,14.22,14.22,0,0,0-.57-1.75c-0.09-.23-0.47-0.13-0.38.1h0Z"/><path class="cls-4" d="M28.77,20.71a14.51,14.51,0,0,1,.43,1.42,0.2,0.2,0,0,0,.38-0.1,14.51,14.51,0,0,0-.43-1.42c-0.08-.24-0.47-0.14-0.38.1h0Z"/><path class="cls-4" d="M28.79,20.86a12.2,12.2,0,0,1,.45,2.06c0,0.25.43,0.25,0.39,0a12.79,12.79,0,0,0-.46-2.17,0.2,0.2,0,0,0-.38.1h0Z"/><path class="cls-4" d="M28.88,21.74q0.06,0.9.08,1.79a0.2,0.2,0,0,0,.39,0q0-.9-0.08-1.79c0-.25-0.41-0.25-0.39,0h0Z"/><path class="cls-4" d="M28.81,22.08q0.07,1.06,0,2.11a0.2,0.2,0,0,0,.39,0q0-1.06,0-2.11c0-.25-0.41-0.25-0.39,0h0Z"/><path class="cls-4" d="M29.15,23a5.54,5.54,0,0,1-.26,1.5,0.2,0.2,0,0,0,.38.1,6,6,0,0,0,.27-1.6,0.2,0.2,0,0,0-.39,0h0Z"/><path class="cls-4" d="M28.88,23.68a4.52,4.52,0,0,1-.29,1.49c-0.09.24,0.29,0.34,0.38,0.1a4.86,4.86,0,0,0,.31-1.6,0.2,0.2,0,0,0-.39,0h0Z"/><path class="cls-4" d="M28.7,24.29A3,3,0,0,1,28.44,26c-0.11.23,0.23,0.43,0.34,0.2a3.37,3.37,0,0,0,.31-1.91c0-.25-0.43-0.25-0.39,0h0Z"/><path class="cls-4" d="M28.74,24.58L28.37,25.9l0.39,0.05a9.58,9.58,0,0,1,.12-1.07l-0.38-.1-0.15,1,0.39,0.05a1.66,1.66,0,0,0,0-.77c0-.17-0.27-0.3-0.37-0.1A3.14,3.14,0,0,0,28.07,26L28.45,26l0-.55H28v0.18a0.2,0.2,0,0,0,.39.05,10.11,10.11,0,0,0,.44-2.27,0.2,0.2,0,0,0-.39-0.05A13.43,13.43,0,0,0,28.15,25c0,0.2.24,0.37,0.36,0.15a2.91,2.91,0,0,0,.37-1.84c0-.2-0.35-0.29-0.39-0.05l-0.19,1.15,0.39,0.05a11.78,11.78,0,0,0-.14-3.64,0.2,0.2,0,0,0-.36,0c-0.45,1,.18,1.36.22,2.44a0.2,0.2,0,0,0,.39.05A3.92,3.92,0,0,0,29,22.08c0-.26-0.37-0.25-0.39,0,0,0.41-.08.81-0.14,1.22,0,0.25.34,0.36,0.38,0.1l0.08-.48-0.39-.05-0.06.55c0,0.25.33,0.35,0.38,0.1a2.75,2.75,0,0,0,.07-0.66,0.2,0.2,0,0,0-.39-0.05l-0.08.48,0.38,0.1C28.92,23,29,22.53,29,22.08H28.61a2.53,2.53,0,0,1-.2,1.05l0.39,0.05c0-.62-0.5-1.73-0.28-2.24l-0.36,0a11.48,11.48,0,0,1,.12,3.53,0.2,0.2,0,0,0,.39.05l0.19-1.15-0.39-.05a2.57,2.57,0,0,1-.31,1.64l0.36,0.15a13.43,13.43,0,0,1,.33-1.61l-0.39-.05A9.73,9.73,0,0,1,28,25.57l0.39,0.05V25.45a0.2,0.2,0,0,0-.39,0,1.82,1.82,0,0,0,0,.66c0,0.24.37,0.15,0.39-.05l0.25-.89-0.37-.1a1.66,1.66,0,0,1,0,.77,0.2,0.2,0,0,0,.39.05l0.15-1c0-.25-0.34-0.36-0.38-0.1s-0.11.78-.14,1.18a0.2,0.2,0,0,0,.39.05l0.37-1.31a0.2,0.2,0,0,0-.38-0.1h0Z"/><path class="cls-4" d="M28.16,20.43l0.12,0.87c0,0.25.43,0.25,0.39,0l-0.12-.87c0-.25-0.43-0.25-0.39,0h0Z"/><path class="cls-4" d="M28.27,24.83a6.34,6.34,0,0,0-.36,1,0.2,0.2,0,0,0,.38.1A5.74,5.74,0,0,1,28.61,25c0.1-.23-0.24-0.43-0.34-0.2h0Z"/><path class="cls-4" d="M27.79,25.22c0,0.33-.25,1.17.07,1.41s0.55-.33.63-0.55L28.1,26a1.77,1.77,0,0,0,.08.57,0.2,0.2,0,0,0,.22.09h0a0.2,0.2,0,0,0,.14-0.19h0a0.2,0.2,0,0,0-.39,0h0l0.14-.19h0l0.22,0.09a1.68,1.68,0,0,1,0-.37A0.2,0.2,0,0,0,28.1,26a1,1,0,0,1-.18.36h0.2a5.2,5.2,0,0,1,.06-1.11c0-.25-0.38-0.25-0.39,0h0Z"/><path class="cls-4" d="M29.08,19.16a18.21,18.21,0,0,1,.46,1.91c0,0.25.43,0.14,0.38-.1a18.21,18.21,0,0,0-.46-1.91,0.2,0.2,0,0,0-.38.1h0Z"/><path class="cls-4" d="M28.44,24.4L28.22,26a0.64,0.64,0,0,0,.34.85C29.26,27,29.84,26,30,25.43a0.39,0.39,0,0,0-.76-0.21,1.32,1.32,0,0,1-.7.93l0.3,0H28.73L29,26.28a6,6,0,0,1,.13-0.83l0.14-1c0.07-.5-0.72-0.5-0.79,0h0Z"/><path class="cls-4" d="M31.09,14.7a3.73,3.73,0,0,1,0,.89c-0.08.5,0.68,0.71,0.76,0.21a4.6,4.6,0,0,0,.06-1.1c0-.5-0.82-0.51-0.79,0h0Z"/><path class="cls-4" d="M31.11,15.69a0.39,0.39,0,0,0,0-.79,0.39,0.39,0,0,0,0,.79h0Z"/><rect class="cls-5" x="5.37" y="2.95" width="23.15" height="17.5"/><path class="cls-6" d="M11.57,11.93a0.84,0.84,0,0,1-.09-1.4l6.67-4a3,3,0,0,1,2.29-.13l2.35,1.4a1,1,0,0,1,1.11-.15l2,1.23s0.65,0.35,0,.89l1.9,1.12a0.82,0.82,0,0,1,.2,1.45l-6.6,4a3.2,3.2,0,0,1-2.29.13Z"/><ellipse class="cls-7" cx="19.75" cy="11.51" rx="4.19" ry="2.47" transform="translate(-2.05 4.63) rotate(-12.71)"/><ellipse class="cls-6" cx="19.75" cy="11.51" rx="3.17" ry="1.87" transform="translate(-2.05 4.63) rotate(-12.71)"/><ellipse class="cls-6" cx="12.34" cy="24.15" rx="4.65" ry="8.01" transform="translate(-10.91 10.19) rotate(-31.95)"/><polygon class="cls-8" points="10.48 19.82 10.32 26.08 15.89 26.26 10.48 19.82"/><path class="cls-6" d="M21.74,24.34l-0.17,4.9a0.67,0.67,0,0,0,1,.59L24,28.9a0.67,0.67,0,0,1,.78,0l2,1.63a0.67,0.67,0,0,0,1.09-.5L28.24,16.9a0.26,0.26,0,0,0-.48-0.13l-3.07,5.38a0.67,0.67,0,0,1-.24.24l-2.37,1.4A0.67,0.67,0,0,0,21.74,24.34Z"/><path class="cls-9" d="M31,18.25a10.9,10.9,0,0,1-.3,9.85"/></svg>