<?xml version="1.0" encoding="utf-8"?>
<!-- Generator: Adobe Illustrator 19.2.1, SVG Export Plug-In . SVG Version: 6.00 Build 0)  -->
<svg version="1.1" baseProfile="tiny" id="Layer_1" xmlns="http://www.w3.org/2000/svg" xmlns:xlink="http://www.w3.org/1999/xlink"
	 x="0px" y="0px" viewBox="0 0 24 24" xml:space="preserve">
<g>
	<path fill="#FFFFFF" d="M8,3l0.8-2.5C8.9,0.2,9.2,0,9.5,0h4.9c0.3,0,0.6,0.2,0.7,0.5L16,3h5.8c0.4,0,0.8,0.3,0.8,0.8v1.5
		c0,0.4-0.3,0.8-0.8,0.8H2.2C1.8,6,1.5,5.7,1.5,5.3V3.8C1.5,3.3,1.8,3,2.2,3H8z M9.6,3h4.8l-0.5-1.5h-3.8L9.6,3z"/>
	<path fill="#FFFFFF" d="M20.2,7.5H3.8c0,0,0,0-0.1,0C3.3,7.5,3,7.9,3.1,8.3l1.2,13c0.1,1.5,1.4,2.7,3,2.7l9.5,0
		c1.6,0,2.8-1.2,3-2.7l1.2-13c0,0,0,0,0-0.1C20.9,7.8,20.6,7.5,20.2,7.5z M15.6,18.1c0.3,0.3,0.3,0.8,0,1.1l-0.1,0.1
		c-0.3,0.3-0.8,0.3-1.1,0L12,16.9l-2.4,2.4c-0.3,0.3-0.8,0.3-1.1,0l-0.1-0.1c-0.3-0.3-0.3-0.8,0-1.1l2.4-2.4l-2.4-2.4
		c-0.3-0.3-0.3-0.8,0-1.1l0.1-0.1c0.3-0.3,0.8-0.3,1.1,0l2.4,2.4l2.4-2.4c0.3-0.3,0.8-0.3,1.1,0l0.1,0.1c0.3,0.3,0.3,0.8,0,1.1
		l-2.4,2.4L15.6,18.1z"/>
</g>
</svg>
