<svg id="Layer_32" data-name="Layer 32" xmlns="http://www.w3.org/2000/svg" xmlns:xlink="http://www.w3.org/1999/xlink" viewBox="0 0 40 40"><defs><style>.cls-1,.cls-10,.cls-9{fill:none;}.cls-2{clip-path:url(#clip-path);}.cls-3{opacity:0.5;}.cls-4{clip-path:url(#clip-path-2);}.cls-5{opacity:0.09;}.cls-6{fill:#143c5e;}.cls-10,.cls-6{stroke:#fcfdff;}.cls-10,.cls-6,.cls-7,.cls-8,.cls-9{stroke-miterlimit:10;stroke-width:0.47px;}.cls-7{fill:#d25081;}.cls-7,.cls-8,.cls-9{stroke:#fff;}.cls-8{fill:#fcfdff;}.cls-11{fill:#f1ad1d;}</style><clipPath id="clip-path"><rect id="_Rectangle_" data-name="&lt;Rectangle&gt;" class="cls-1" x="-295.69" y="-394.31" width="600" height="372"/></clipPath><clipPath id="clip-path-2"><rect id="_Rectangle_2" data-name="&lt;Rectangle&gt;" class="cls-1" x="46.81" y="-241.05" width="263.33" height="218"/></clipPath></defs><title>Icon_Neural Networks-02</title><path class="cls-6" d="M6.54,13.68S8.47,7.06,16.79,9.37a8,8,0,0,1,9.94.23s6.86-1.09,9.4,6.39a7,7,0,0,1,2.55,7,7.4,7.4,0,0,1-4.6,5.06,4.06,4.06,0,0,1-.47,1.34A5.09,5.09,0,0,1,30,31.66a11.63,11.63,0,0,0,1,3.91h-3.7s-0.85-2.31-6.32-5.7a7.87,7.87,0,0,1-8.17-2.23,9.79,9.79,0,0,1-1.9.4,9.9,9.9,0,0,1-5.22-.87,9.47,9.47,0,0,1-3.07-2.38A7.44,7.44,0,0,1,1.6,18,7.39,7.39,0,0,1,6.54,13.68Z"/><line class="cls-7" x1="6.56" y1="13.61" x2="10.65" y2="16.59"/><line class="cls-8" x1="21.06" y1="26.72" x2="21.06" y2="29.94"/><line class="cls-8" x1="8.81" y1="24.58" x2="8.81" y2="28.03"/><line class="cls-8" x1="35.9" y1="15.35" x2="25.68" y2="15.35"/><line class="cls-8" x1="38.84" y1="20.18" x2="33.34" y2="20.43"/><polyline class="cls-9" points="11.97 17.68 25.06 15.71 21.06 25.88 32.5 20.18 26.02 15.99"/><polyline class="cls-9" points="9.44 24.43 21.2 26.31 12.79 17.76 9.02 23.83 2.13 24.05"/><polyline class="cls-9" points="13.56 16.35 18.65 11.93 24.43 14.81"/><line class="cls-7" x1="18.45" y1="11.19" x2="16.29" y2="9.24"/><line class="cls-8" x1="25.93" y1="14.67" x2="30.23" y2="9.91"/><line class="cls-8" x1="27.54" y1="29.66" x2="28.83" y2="35.57"/><polyline class="cls-10" points="21.75 25.54 32.21 20 28.08 29.38 21.06 25.88"/><circle class="cls-11" cx="11.97" cy="17.47" r="2.53"/><circle class="cls-11" cx="25.23" cy="16.14" r="2.53"/><circle class="cls-11" cx="32.5" cy="20.18" r="1.83"/><circle class="cls-11" cx="21.2" cy="25.88" r="1.83"/><circle class="cls-11" cx="27.76" cy="28.81" r="1.83"/><circle class="cls-11" cx="18.65" cy="11.93" r="1.56"/><circle class="cls-11" cx="9.28" cy="24.29" r="1.83"/></svg>