<?xml version="1.0" encoding="utf-8"?>
<!-- Generator: Adobe Illustrator 19.2.1, SVG Export Plug-In . SVG Version: 6.00 Build 0)  -->
<svg version="1.1" id="Layer_1" xmlns="http://www.w3.org/2000/svg" xmlns:xlink="http://www.w3.org/1999/xlink" x="0px" y="0px"
	 viewBox="0 0 48 48" style="enable-background:new 0 0 48 48;" xml:space="preserve">
<style type="text/css">
	.st0{fill:#FFFFFF;}
</style>
<g id="Page-1_23_">
	<g id="file-upload_2_">
		<path id="file-upload-icon_2_" class="st0" d="M9.4,13.6L22,0.9c0.7-0.7,1.8-0.8,2.6,0l12.7,12.9C38.5,15,37.6,17,36,17h-6.2
			l-3.9,14.7c-0.4,1.5-1.8,2.3-3.3,1.9c-1.1-0.2-1.8-1-2-2L16.9,17h-6.2C9,17,8.3,14.9,9.4,13.6z M48,29.6v7.7
			C48,43.2,42.4,48,36.5,48H10.1C4.2,48,0,43.2,0,37.3v-7.7c0-2,1.7-3.5,3.5-3.5S7,27.6,7,29.6v7.7c0,2,1.1,4.7,3.3,4.7h26.2
			c2,0,3.5-2.5,3.5-4.7v-7.7c0-2,2.2-3.5,4-3.5C46,26.1,48,27.6,48,29.6z"/>
	</g>
</g>
</svg>
