<?xml version="1.0" encoding="utf-8"?>
<!-- Generator: Adobe Illustrator 19.2.1, SVG Export Plug-In . SVG Version: 6.00 Build 0)  -->
<svg version="1.1" id="Layer_1" xmlns="http://www.w3.org/2000/svg" xmlns:xlink="http://www.w3.org/1999/xlink" x="0px" y="0px"
	 viewBox="0 0 24 24" style="enable-background:new 0 0 24 24;" xml:space="preserve">
<style type="text/css">
	.st0{fill:#FFFFFF;}
</style>
<path class="st0" d="M15.5,17.5L6.6,8.5c-0.3-0.3-0.7-0.3-1,0L4.5,9.6c-0.3,0.3-0.3,0.7,0,1L5,11l-2,2c-0.2,0.2-0.2,0.3-0.2,0.5v3.7
	c0,0.2,0.1,0.4,0.2,0.5l0.6,0.6l-2.3,2.3c-0.3,0.3-0.3,0.8,0,1.1l1,1c0.3,0.3,0.8,0.3,1.1,0l2.3-2.3l0.6,0.6
	c0.2,0.2,0.3,0.2,0.5,0.2h3.7c0.2,0,0.4-0.1,0.5-0.2l2-2l0.5,0.5c0.3,0.3,0.7,0.3,1,0l1.1-1.1C15.8,18.2,15.8,17.8,15.5,17.5z"/>
<path class="st0" d="M18.9,13.1l2-2c0.2-0.2,0.2-0.3,0.2-0.5V7c0-0.2-0.1-0.4-0.2-0.5L20.3,6l2.5-2.5c0.3-0.3,0.3-0.8,0-1.1l-1-1
	c-0.3-0.3-0.8-0.3-1.1,0l-2.5,2.5l-0.6-0.6c-0.2-0.2-0.3-0.2-0.5-0.2h-3.7c-0.2,0-0.4,0.1-0.5,0.2l-2,2l-0.5-0.5
	c-0.3-0.3-0.7-0.3-1,0L8.5,5.8c-0.3,0.3-0.3,0.7,0,1l8.9,8.9c0.3,0.3,0.7,0.3,1,0l1.1-1.1c0.3-0.3,0.3-0.7,0-1L18.9,13.1z"/>
</svg>
