<?xml version="1.0" encoding="utf-8"?>
<!-- Generator: Adobe Illustrator 19.0.0, SVG Export Plug-In . SVG Version: 6.00 Build 0)  -->
<svg version="1.1" id="Layer_1" xmlns="http://www.w3.org/2000/svg" xmlns:xlink="http://www.w3.org/1999/xlink" x="0px" y="0px"
	 viewBox="-479 481 40 40" style="enable-background:new -479 481 40 40;" xml:space="preserve">
<style type="text/css">
	.st0{fill:#FFFFFF;}
</style>
<g>
	<path class="st0" d="M-466.6,500.8l-2.5-2.5c-0.2-0.2-0.5-0.2-0.8,0l-2.5,2.5c-0.2,0.2-0.2,0.5,0,0.8l2.5,2.5
		c0.2,0.2,0.5,0.2,0.8,0l2.5-2.5C-466.4,501.4-466.4,501.1-466.6,500.8z"/>
	<path class="st0" d="M-448.9,498.4l-2.5,2.5c-0.2,0.2-0.2,0.5,0,0.8l2.5,2.5c0.2,0.2,0.5,0.2,0.8,0l2.5-2.5c0.2-0.2,0.2-0.5,0-0.8
		l-2.5-2.5C-448.4,498.2-448.7,498.2-448.9,498.4z"/>
	<g>
		<path class="st0" d="M-459.9,516.3c-0.2,0-0.4,0-0.6-0.1c-0.6-0.2-0.9-0.8-0.9-1.4v-9.2l-4.9,4.9c-0.6,0.6-1.5,0.6-2.1,0
			c-0.6-0.6-0.6-1.5,0-2.1l7-7v-0.3l-7.1-7.2c-0.6-0.6-0.6-1.5,0-2.1c0.6-0.6,1.5-0.6,2.1,0l5,5v-9.7c0-0.6,0.4-1.2,0.9-1.4
			c0.6-0.2,1.2-0.1,1.6,0.3l7.5,7.5c0.3,0.3,0.4,0.7,0.4,1.1s-0.2,0.8-0.4,1.1l-5.6,5.6l5.2,5.2c0.6,0.6,0.6,1.5,0,2.1l-7,7.2
			C-459.1,516.2-459.5,516.3-459.9,516.3z M-458.4,504.2v7l3.4-3.5L-458.4,504.2z M-458.4,490.8v7.7l3.8-3.8L-458.4,490.8z"/>
	</g>
</g>
</svg>
