<?xml version="1.0" encoding="utf-8"?>
<!-- Generator: Adobe Illustrator 19.0.0, SVG Export Plug-In . SVG Version: 6.00 Build 0)  -->
<svg version="1.1" id="Layer_1" xmlns="http://www.w3.org/2000/svg" xmlns:xlink="http://www.w3.org/1999/xlink" x="0px" y="0px"
	 viewBox="0 0 40 40" style="enable-background:new 0 0 40 40;" xml:space="preserve">
<style type="text/css">
	.st0{clip-path:url(#XMLID_39_);}
	.st1{fill:#00BD00;}
	.st2{fill:#FFF200;}
	.st3{fill:#EC008C;}
	.st4{fill:#7B0099;}
	.st5{fill:#FF7300;}
	.st6{fill:#FF0013;}
	.st7{fill:#0011DB;}
	.st8{fill:#037F0E;}
	.st9{fill:none;stroke:#000000;stroke-linecap:round;stroke-linejoin:round;stroke-miterlimit:10;}
	.st10{fill:none;stroke:#000000;stroke-miterlimit:10;}
</style>
<path id="XMLID_2886_" d="M36,20c0,8.8-7.2,16-16,16S4,28.8,4,20S11.2,4,20,4S36,11.2,36,20z M20,10.9c-5,0-9.1,4.1-9.1,9.1
	s4.1,9.1,9.1,9.1s9.1-4.1,9.1-9.1S25,10.9,20,10.9z"/>
<g id="XMLID_127_">
	<defs>
		<path id="XMLID_130_" d="M20,34.8c-8.2,0-14.8-6.6-14.8-14.8S11.8,5.2,20,5.2S34.8,11.8,34.8,20S28.2,34.8,20,34.8z M20,9.6
			C14.2,9.6,9.6,14.2,9.6,20S14.2,30.4,20,30.4S30.4,25.8,30.4,20S25.8,9.6,20,9.6z"/>
	</defs>
	<clipPath id="XMLID_39_">
		<use xlink:href="#XMLID_130_"  style="overflow:visible;"/>
	</clipPath>
	<g id="XMLID_149_" class="st0">
		<path id="XMLID_2885_" class="st1" d="M20,20V3.2H3.2C3.2,3.2,20.1,20.1,20,20z"/>
		<path id="XMLID_2884_" class="st2" d="M20,20V3.2h16.8C36.8,3.2,19.9,20.1,20,20z"/>
		<path id="XMLID_2883_" class="st3" d="M20,20v16.8h16.8C36.8,36.8,19.9,19.9,20,20z"/>
		<path id="XMLID_2882_" class="st4" d="M20,20v16.8H3.2C3.2,36.8,20.1,19.9,20,20z"/>
		<path id="XMLID_2881_" class="st5" d="M20,20h16.8V3.1C36.8,3.1,19.9,20.1,20,20z"/>
		<path id="XMLID_578_" class="st6" d="M20,20h16.8v16.8C36.8,36.8,19.9,19.9,20,20z"/>
		<path id="XMLID_577_" class="st7" d="M20,20H3.2v16.8C3.2,36.8,20.1,19.9,20,20z"/>
		<path id="XMLID_576_" class="st8" d="M20,20H3.2V3.1C3.2,3.1,20.1,20.1,20,20z"/>
	</g>
</g>
<g id="XMLID_35_">
	<g id="XMLID_126_">
		<path id="XMLID_2890_" class="st9" d="M20,29.9c0,1.7,0,3.6,0,5.2"/>
		<path id="XMLID_2889_" class="st9" d="M20,4.8c0,1,0,4.4,0,5.4"/>
	</g>
	<g id="XMLID_37_">
		<path id="XMLID_93_" class="st9" d="M26.9,27c1.2,1.2,2.6,2.5,3.7,3.7"/>
		<path id="XMLID_55_" class="st9" d="M9.2,9.3c0.7,0.7,3.1,3.1,3.8,3.8"/>
	</g>
	<g id="XMLID_2891_">
		<path id="XMLID_2926_" class="st9" d="M29.8,20.1c1.7,0,3.6,0,5.2,0"/>
		<path id="XMLID_2897_" class="st9" d="M4.7,20.1c1,0,4.4,0,5.4,0"/>
	</g>
	<g id="XMLID_2927_">
		<path id="XMLID_2929_" class="st9" d="M26.9,13.1c1.2-1.2,2.5-2.6,3.7-3.7"/>
		<path id="XMLID_2928_" class="st9" d="M9.2,30.8c0.7-0.7,3.1-3.1,3.8-3.8"/>
	</g>
	<circle id="XMLID_36_" class="st10" cx="20" cy="20" r="9.6"/>
</g>
</svg>
