<svg width="26" height="24" viewBox="0 0 26 24" fill="none" xmlns="http://www.w3.org/2000/svg">
<g clip-path="url(#clip0_10408_191416)">
<path d="M12.6985 4.96552H7.16358C3.6643 4.96552 0.827576 7.80224 0.827576 11.3015V16.8364C0.827576 20.3357 3.6643 23.1724 7.16358 23.1724H12.6985C16.1977 23.1724 19.0345 20.3357 19.0345 16.8364V11.3015C19.0345 7.80224 16.1977 4.96552 12.6985 4.96552Z" fill="white"/>
<path d="M5.83862 10.1901C5.55257 10.1897 5.27284 10.2743 5.03485 10.433C4.79685 10.5917 4.61128 10.8174 4.50163 11.0816C4.39197 11.3458 4.36315 11.6366 4.41881 11.9172C4.47448 12.1978 4.61213 12.4556 4.81435 12.6579C5.01656 12.8602 5.27425 12.998 5.55481 13.0538C5.83536 13.1097 6.12617 13.081 6.39044 12.9715C6.65471 12.862 6.88055 12.6766 7.03939 12.4387C7.19823 12.2008 7.28292 11.9211 7.28276 11.635C7.28254 11.252 7.13035 10.8847 6.85959 10.6138C6.58883 10.3429 6.22164 10.1905 5.83862 10.1901Z" fill="#864E20"/>
<path d="M14.0342 10.1901C13.7481 10.1893 13.4681 10.2734 13.2298 10.4318C12.9914 10.5902 12.8055 10.8157 12.6955 11.0799C12.5854 11.3441 12.5562 11.6349 12.6116 11.9157C12.667 12.1964 12.8045 12.4544 13.0066 12.657C13.2087 12.8596 13.4664 12.9976 13.747 13.0537C14.0276 13.1097 14.3186 13.0812 14.583 12.9718C14.8474 12.8623 15.0734 12.6769 15.2323 12.4389C15.3913 12.201 15.476 11.9212 15.4759 11.635C15.4757 11.2524 15.3238 10.8855 15.0536 10.6147C14.7834 10.3439 14.4168 10.1912 14.0342 10.1901V10.1901Z" fill="#864E20"/>
<path d="M19.0345 15.6728C17.9092 17.358 16.3805 18.7352 14.5874 19.6791C12.7943 20.6231 10.7937 21.1039 8.76745 21.0778C4.18097 21.0778 3.33601 20.2502 1.20166 18.9848C1.64419 20.2112 2.45408 21.2712 3.52096 22.0206C4.58784 22.77 5.85983 23.1722 7.16359 23.1724H12.6985C14.3789 23.1724 15.9905 22.5048 17.1787 21.3166C18.3669 20.1284 19.0345 18.5168 19.0345 16.8364V15.6728Z" fill="#ECECEC"/>
<path d="M12.1978 14.4696H12.1912C12.1207 14.4552 12.0475 14.4665 11.9847 14.5014C11.9218 14.5363 11.8736 14.5925 11.8485 14.6599C11.7368 14.9537 11.4919 15.4047 11.0359 15.4047C10.469 15.4047 10.2281 14.7559 10.219 14.7294C10.198 14.6683 10.158 14.6155 10.1049 14.5786C10.0517 14.5418 9.98823 14.5229 9.92361 14.5247C9.85898 14.5264 9.7966 14.5487 9.74555 14.5884C9.69449 14.6281 9.65742 14.683 9.63972 14.7451C9.57943 14.9356 9.46057 15.1021 9.30007 15.221C9.13958 15.3398 8.94565 15.405 8.74593 15.4072C8.37931 15.4072 8.13931 14.9504 8.02179 14.6525C7.9949 14.5847 7.94435 14.529 7.87953 14.4957C7.8147 14.4623 7.73999 14.4537 7.66924 14.4712L7.93655 14.4042L7.66924 14.4712L7.64276 14.4778L7.66262 14.4729C7.62091 14.4832 7.58192 14.5024 7.54827 14.5292C7.51463 14.5559 7.48711 14.5896 7.46758 14.6278C7.44804 14.6661 7.43695 14.7082 7.43505 14.7511C7.43315 14.794 7.44048 14.8369 7.45655 14.8767C7.62869 15.3079 8.02096 16.0147 8.74593 16.0147C8.9747 16.0178 9.20113 15.9683 9.40765 15.8698C9.61418 15.7714 9.79525 15.6267 9.93683 15.4469C10.0626 15.621 10.2275 15.7631 10.4182 15.8618C10.609 15.9604 10.8203 16.0127 11.035 16.0147C11.3554 15.9912 11.6605 15.8686 11.9082 15.664C12.1558 15.4594 12.3337 15.1828 12.4171 14.8726C12.4329 14.8319 12.4397 14.7882 12.4369 14.7446C12.4341 14.701 12.4218 14.6586 12.401 14.6202C12.3801 14.5818 12.3511 14.5485 12.316 14.5224C12.2809 14.4964 12.2406 14.4784 12.1978 14.4696V14.4696Z" fill="#864E20"/>
<path d="M9.93103 16.8844C10.831 16.8844 11.5605 16.7996 11.5605 16.6949C11.5605 16.5902 10.831 16.5054 9.93103 16.5054C9.03107 16.5054 8.30151 16.5902 8.30151 16.6949C8.30151 16.7996 9.03107 16.8844 9.93103 16.8844Z" fill="#E7C930"/>
</g>
<path d="M23.1724 5.37931H21.1034V7.44828C21.1034 7.67587 20.9172 7.86207 20.6896 7.86207C20.4621 7.86207 20.2758 7.67587 20.2758 7.44828V5.37931H18.2069C17.9793 5.37931 17.7931 5.19311 17.7931 4.96552C17.7931 4.73794 17.9793 4.55173 18.2069 4.55173H20.2758V2.48276C20.2758 2.25518 20.4621 2.06897 20.6896 2.06897C20.9172 2.06897 21.1034 2.25518 21.1034 2.48276V4.55173H23.1724C23.4 4.55173 23.5862 4.73794 23.5862 4.96552C23.5862 5.19311 23.4 5.37931 23.1724 5.37931Z" fill="white"/>
<defs>
<clipPath id="clip0_10408_191416">
<rect width="19.8621" height="19.8621" fill="white" transform="translate(0 4.13794)"/>
</clipPath>
</defs>
</svg>
