<?xml version="1.0" encoding="utf-8"?>
<!-- Generator: Adobe Illustrator 23.0.5, SVG Export Plug-In . SVG Version: 6.00 Build 0)  -->
<svg version="1.1" id="Layer_1" xmlns="http://www.w3.org/2000/svg" xmlns:xlink="http://www.w3.org/1999/xlink" x="0px" y="0px"
	 viewBox="0 0 40 40" style="enable-background:new 0 0 40 40;" xml:space="preserve">
<style type="text/css">
	.st0{fill:#F7931E;stroke:#FFFFFF;stroke-width:1.5;stroke-miterlimit:10;}
	.st1{fill:#F2F2F2;}
	.st2{fill:#FFFFFF;}
</style>
<g>
	<path class="st0" d="M32.8,34.5H7.2c-1,0-1.7-0.8-1.7-1.7V7.3c0-1,0.8-1.8,1.8-1.8h25.5c1,0,1.7,0.8,1.7,1.7v25.5
		C34.5,33.7,33.7,34.5,32.8,34.5z"/>
	<g>
		<g>
			<path class="st1" d="M13.4,19.3c-2.9,0-5.2-2.3-5.2-5.2s2.3-5.2,5.2-5.2s5.2,2.3,5.2,5.2S16.3,19.3,13.4,19.3z M13.4,10
				c-2.3,0-4.2,1.9-4.2,4.2s1.9,4.2,4.2,4.2s4.2-1.9,4.2-4.2S15.7,10,13.4,10z"/>
		</g>
		<g>
			<path class="st2" d="M31.2,30.7H20.5c-0.2,0-0.4-0.1-0.5-0.3c-0.1-0.2-0.1-0.4,0-0.6l5.4-8.6c0.2-0.3,0.8-0.3,1,0l5.4,8.6
				c0.1,0.2,0.1,0.4,0,0.6C31.6,30.5,31.4,30.7,31.2,30.7z M20.9,29.8h9.9l-4.9-7.9L20.9,29.8z"/>
		</g>
		<g>
			<circle class="st1" cx="13.7" cy="23.6" r="2.6"/>
			<circle class="st1" cx="11.6" cy="27.1" r="2.6"/>
			<circle class="st1" cx="16" cy="27.1" r="2.6"/>
			<g>
				<path class="st1" d="M13.7,31.1c-0.4,0-0.7-0.3-0.7-0.7v-2.8c0-0.4,0.3-0.7,0.7-0.7s0.7,0.3,0.7,0.7v2.8
					C14.4,30.8,14.1,31.1,13.7,31.1z"/>
			</g>
		</g>
		<g>
			<path class="st1" d="M31.5,12.3l-5.1-2.9c-0.1-0.1-0.2,0-0.2,0.1v5.7c0,0.1,0.1,0.2,0.2,0.1l5.1-2.9
				C31.6,12.5,31.6,12.3,31.5,12.3z"/>
			<g>
				<path class="st1" d="M27.9,12.3c0,0.3-0.2,0.6-0.6,0.6h-3.2c-0.1,0-0.1,0.1-0.1,0.1v4.1c0,0.3-0.2,0.6-0.6,0.6
					c-0.3,0-0.6-0.2-0.6-0.6v-4.8c0-0.3,0.3-0.6,0.6-0.6h3.9C27.6,11.8,27.9,12,27.9,12.3z"/>
			</g>
		</g>
	</g>
</g>
</svg>
