<?xml version="1.0" encoding="utf-8"?>
<!-- Generator: Adobe Illustrator 19.1.0, SVG Export Plug-In . SVG Version: 6.00 Build 0)  -->
<svg version="1.1" id="Layer_1" xmlns="http://www.w3.org/2000/svg" xmlns:xlink="http://www.w3.org/1999/xlink" x="0px" y="0px"
	 viewBox="0 0 24 24" style="enable-background:new 0 0 24 24;" xml:space="preserve">
<style type="text/css">
	.st0{fill:#FFFFFF;}
</style>
<g>
	<circle class="st0" cx="12" cy="13.2" r="3.8"/>
	<path class="st0" d="M8.4,1.2L6.2,3.6H2.4C1.1,3.6,0,4.7,0,6v14.4c0,1.3,1.1,2.4,2.4,2.4h19.2c1.3,0,2.4-1.1,2.4-2.4V6
		c0-1.3-1.1-2.4-2.4-2.4h-3.8l-2.2-2.4C15.6,1.2,8.4,1.2,8.4,1.2z M12,19.2c-3.3,0-6-2.7-6-6s2.7-6,6-6s6,2.7,6,6S15.3,19.2,12,19.2
		z"/>
</g>
</svg>
