<?xml version="1.0" encoding="utf-8"?>
<!-- Generator: Adobe Illustrator 19.2.1, SVG Export Plug-In . SVG Version: 6.00 Build 0)  -->
<svg version="1.1" id="Layer_1" xmlns="http://www.w3.org/2000/svg" xmlns:xlink="http://www.w3.org/1999/xlink" x="0px" y="0px"
	 viewBox="0 0 48 48" style="enable-background:new 0 0 48 48;" xml:space="preserve">
<style type="text/css">
	.st0{fill:#FFFFFF;}
</style>
<g id="Page-1_1_">
	<g id="record">
		<path id="record-icon" class="st0" d="M41.8,27.4c-2.7,6.6-8.7,11-15.5,11.9v6.3c0,1.3-1,2.4-2.3,2.4s-2.3-1-2.3-2.4v-6.3
			C14.9,38.5,8.9,34,6.2,27.5c-0.5-1.2,0.1-2.6,1.3-3.1c1.2-0.5,2.6,0,3,1.2c2.3,5.5,7.6,9.1,13.5,9.1s11.3-3.6,13.5-9.2
			c0.5-1.2,1.9-1.7,3.1-1.2C41.8,24.9,42.3,26.3,41.8,27.4z M15.8,19.9V8.1c0-4.5,3.6-8.1,7.9-8.1c4.4,0,7.9,3.6,7.9,8.1v11.9
			c0,4.4-3.5,8.1-7.9,8.1C19.4,28,15.8,24.4,15.8,19.9z"/>
	</g>
</g>
</svg>
