<?xml version="1.0" encoding="utf-8"?>
<!-- Generator: Adobe Illustrator 19.1.0, SVG Export Plug-In . SVG Version: 6.00 Build 0)  -->
<svg version="1.1" id="Layer_1" xmlns="http://www.w3.org/2000/svg" xmlns:xlink="http://www.w3.org/1999/xlink" x="0px" y="0px"
	 viewBox="-295 385 24 24" style="enable-background:new -295 385 24 24;" xml:space="preserve">
<style type="text/css">
	.st0{fill:#D8D8D8;}
</style>
<path id="Layer" class="st0" d="M-272.2,406c0.3,0.4,0.5,0.8,0.4,1.3c0,0.5-0.2,0.9-0.6,1.2s-0.8,0.5-1.3,0.5
	c-0.5,0-0.9-0.2-1.2-0.6l-4.5-5.1c-1.7,1.1-3.6,1.5-5.7,1.4c-1.3-0.1-2.6-0.4-3.8-1c-1.2-0.6-2.2-1.4-3-2.3c-0.8-0.9-1.5-2-1.9-3.3
	c-0.4-1.3-0.6-2.5-0.5-3.9c0.1-1.3,0.4-2.6,1-3.8c0.6-1.2,1.4-2.2,2.3-3c0.9-0.8,2-1.4,3.3-1.9c1.3-0.4,2.5-0.6,3.9-0.5
	c1.3,0.1,2.6,0.4,3.8,1c1.2,0.6,2.2,1.4,3,2.3c0.8,0.9,1.5,2,1.9,3.3c0.4,1.3,0.6,2.5,0.5,3.9c-0.1,2.1-0.8,3.9-2.1,5.5L-272.2,406
	 M-278.2,395.3c0.1-1.7-0.4-3.2-1.5-4.5c-1.1-1.3-2.6-2-4.3-2.1c-1.7-0.1-3.2,0.4-4.5,1.5c-1.3,1.1-2,2.6-2.1,4.3
	c-0.1,1.7,0.4,3.2,1.5,4.5c1.1,1.3,2.6,2,4.3,2.1s3.2-0.4,4.5-1.5C-279,398.4-278.3,397-278.2,395.3z"/>
<path id="Layer_1_" class="st0" d="M-284.5,391L-284.5,391c0.7,0,1.3,0.6,1.3,1.3v1.3h1.3c0.7,0,1.3,0.6,1.3,1.3l0,0
	c0,0.7-0.6,1.3-1.3,1.3h-1.3v1.3c0,0.7-0.6,1.3-1.3,1.3l0,0c-0.7,0-1.3-0.6-1.3-1.3v-1.3h-1.3c-0.7,0-1.3-0.6-1.3-1.3l0,0
	c0-0.7,0.6-1.3,1.3-1.3h1.3v-1.3C-285.8,391.6-285.2,391-284.5,391z"/>
</svg>
