<?xml version="1.0" encoding="utf-8"?>
<!-- Generator: Adobe Illustrator 19.1.0, SVG Export Plug-In . SVG Version: 6.00 Build 0)  -->
<svg version="1.1" id="Layer_1" xmlns="http://www.w3.org/2000/svg" xmlns:xlink="http://www.w3.org/1999/xlink" x="0px" y="0px"
	 viewBox="0 0 24 24" style="enable-background:new 0 0 24 24;" xml:space="preserve">
<style type="text/css">
	.st0{fill:#FFFFFF;}
</style>
<g id="Paint-Editor-V1">
	<path id="Fill-4" class="st0" d="M22.6,6.2c-1.1,2.3-2.7,5-4.3,6.9c-1.3,1.7-2.4,2.6-3.4,3.1c-0.1,0.1-0.3,0.1-0.4,0.1
		c-0.1,0-0.3,0-0.4-0.1c-0.3-0.1-0.4-0.3-0.5-0.5c-0.3-0.6-0.7-1.2-1.2-1.7c-0.6-0.4-1.2-0.7-1.9-0.8c-0.3,0-0.5-0.3-0.6-0.4
		C10,12.7,10,12.5,10,12.2c0.3-1.1,1-2.4,2.3-4c2.5-3.2,7.4-7.9,9.9-8.2c0.6-0.1,1.1,0.1,1.3,0.4C23.9,1,24.6,2.2,22.6,6.2z
		 M12.5,18.9c0.1,1.2-0.1,2.4-0.8,3.4c-0.6,0.8-1.6,1.4-2.5,1.7H9.1H8.8C8.2,24,7.8,24,7.4,24c-3.4,0-5.7-2.3-6.7-3.8
		c-0.4-0.6-0.9-1.7-0.5-2.4c0.1-0.1,0.5-0.5,1.2-0.4c2.3,0.5,3-0.5,3.2-0.7c1.6-2,4.3-2.4,6.2-0.8C11.8,16.6,12.4,17.7,12.5,18.9z"
		/>
</g>
</svg>
