<?xml version="1.0" encoding="utf-8"?>
<!-- Generator: Adobe Illustrator 19.1.0, SVG Export Plug-In . SVG Version: 6.00 Build 0)  -->
<svg version="1.1" id="Layer_1" xmlns="http://www.w3.org/2000/svg" xmlns:xlink="http://www.w3.org/1999/xlink" x="0px" y="0px"
	 viewBox="0 0 24 24" style="enable-background:new 0 0 24 24;" xml:space="preserve">
<style type="text/css">
	.st0{fill:#48A145;stroke:#48A145;stroke-width:2.2209;stroke-linecap:round;stroke-linejoin:round;}
	.st1{fill:none;stroke:#48A145;stroke-width:2.2209;stroke-linecap:round;}
	.st2{fill:#48A145;}
</style>
<path id="Shape" class="st0" d="M19.5,17.4l-3.6-3.5c-0.5-0.5-1.4-0.5-2-0.1l-4.4,3.4c-0.7,0.5-1.6,0.4-2.2-0.3l-0.4-0.5
	c-0.5-0.6-1.6-0.7-2.2-0.3l-3.3,2.6l0,0c0,1.2,1,2.1,2.3,2.1h12.8c1.6,0,3-1.2,3-2.7L19.5,17.4L19.5,17.4z"/>
<path id="Rectangle" class="st1" d="M19.5,10.9v7.8c0,1.4-1.2,2.6-2.6,2.6h-13c-1.4,0-2.6-1.2-2.6-2.6V8.3c0-1.4,1.2-2.6,2.6-2.6
	h10.4"/>
<g id="XMLID_3_">
	<path id="XMLID_1_" class="st2" d="M19.6,8.8L19.6,8.8c-0.7,0-1.2-0.5-1.2-1.2V3.7c0-0.6,0.5-1.1,1.2-1.1l0,0
		c0.6,0,1.1,0.5,1.1,1.1v3.9C20.7,8.3,20.2,8.8,19.6,8.8z"/>
	<path id="XMLID_2_" class="st2" d="M16.5,5.7L16.5,5.7c0-0.6,0.5-1.1,1.1-1.1h3.9c0.6,0,1.1,0.5,1.1,1.1l0,0c0,0.6-0.5,1.1-1.1,1.1
		h-3.9C17,6.8,16.5,6.3,16.5,5.7z"/>
</g>
</svg>
