<svg id="Layer_34" data-name="Layer 34" xmlns="http://www.w3.org/2000/svg" xmlns:xlink="http://www.w3.org/1999/xlink" viewBox="0 0 40 40"><defs><style>.cls-1,.cls-10,.cls-7,.cls-8,.cls-9{fill:none;}.cls-2{clip-path:url(#clip-path);}.cls-3{opacity:0.5;}.cls-4{clip-path:url(#clip-path-2);}.cls-5{opacity:0.09;}.cls-6{fill:#f3e02c;}.cls-10,.cls-7,.cls-8,.cls-9{stroke:#c54342;stroke-miterlimit:10;}.cls-7{stroke-width:1.06px;}.cls-8{stroke-width:0.86px;}.cls-9{stroke-width:0.94px;}.cls-10{stroke-width:0.98px;}</style><clipPath id="clip-path"><rect id="_Rectangle_" data-name="&lt;Rectangle&gt;" class="cls-1" x="-295.69" y="-394.31" width="600" height="372"/></clipPath><clipPath id="clip-path-2"><rect id="_Rectangle_2" data-name="&lt;Rectangle&gt;" class="cls-1" x="46.81" y="-241.05" width="263.33" height="218"/></clipPath></defs><title>Icon_AI-02</title><path class="cls-6" d="M9.57,14.43L6,21.24a1.18,1.18,0,0,0,1,1.73l1.38,0.09a1.18,1.18,0,0,1,1.11,1.19l0,5.88a1.18,1.18,0,0,0,1.12,1.19l4.69,0.26a1.18,1.18,0,0,1,1.12,1.18v4.47a1.18,1.18,0,0,0,1.18,1.18h9.87a1.18,1.18,0,0,0,1.18-1.29L28.07,31.8s-0.54-2.49,1.19-6.23c2-4.41,3.46-5.5,4-9.43a13.51,13.51,0,0,0-.81-6.83A12.8,12.8,0,0,0,29.58,5a11.47,11.47,0,0,0-5.36-3.14,11.32,11.32,0,0,0-7.53.87,12.39,12.39,0,0,0-4.93,3.9,11.82,11.82,0,0,0-2,4.24,9.48,9.48,0,0,0-.09,2.83A1.2,1.2,0,0,1,9.57,14.43Z"/><circle class="cls-7" cx="15.99" cy="11.89" r="2.71"/><circle class="cls-8" cx="26.47" cy="7.03" r="1.5"/><circle class="cls-9" cx="21.87" cy="21.27" r="1.51"/><circle class="cls-10" cx="16.53" cy="26.49" r="1.87"/><line class="cls-7" x1="21.87" y1="22.78" x2="21.87" y2="38.41"/><path class="cls-7" d="M19,11.89h1.68a1.18,1.18,0,0,1,1.18,1.18V19.6"/><path class="cls-7" d="M26.47,8.53V15a1.18,1.18,0,0,1-1.18,1.18H22.34"/><line class="cls-7" x1="9.52" y1="26.49" x2="14.66" y2="26.49"/></svg>