<svg xmlns="http://www.w3.org/2000/svg" viewBox="0 0 40 40"><title>Artboard 65</title><rect x="21.83" y="9.19" width="17.17" height="18.41" rx="1.57" transform="translate(60.83 36.79) rotate(-180)" style="fill:#1b8dcb"/><path d="M26.55,27.5l-3.94,4a.46.46,0,0,1-.78-.32V23.15a.46.46,0,0,1,.78-.32l3.94,4A.45.45,0,0,1,26.55,27.5Z" style="fill:#1b8dcb"/><rect x="21.83" y="8.37" width="17.17" height="18.41" rx="1.57" transform="translate(60.83 35.14) rotate(-180)" style="fill:#1caee4"/><path d="M26.55,26.67l-3.94,4a.46.46,0,0,1-.78-.32v-8a.45.45,0,0,1,.78-.32l3.94,4A.45.45,0,0,1,26.55,26.67Z" style="fill:#1caee4"/><rect x="1" y="9.18" width="17.17" height="18.41" rx="1.57" style="fill:#e6498c"/><path d="M13.45,27.49l3.94,4a.46.46,0,0,0,.78-.32V23.14a.46.46,0,0,0-.78-.32l-3.94,4A.45.45,0,0,0,13.45,27.49Z" style="fill:#e6498c"/><rect x="1" y="8.35" width="17.17" height="18.41" rx="1.57" style="fill:#eb599c"/><path d="M13.45,26.66l3.94,4a.46.46,0,0,0,.78-.32V22.31a.46.46,0,0,0-.78-.32l-3.94,4A.45.45,0,0,0,13.45,26.66Z" style="fill:#eb599c"/><rect x="24.82" y="16.71" width="1.24" height="4.45" style="fill:#fff000"/><rect x="24.82" y="14.42" width="1.24" height="1.24" style="fill:#fff000"/><rect x="34.77" y="16.71" width="1.24" height="4.45" style="fill:#fff000"/><rect x="34.77" y="14.42" width="1.24" height="1.24" style="fill:#fff000"/><rect x="27.34" y="13.96" width="1.38" height="7.2" style="fill:#fff000"/><rect x="31.95" y="13.96" width="1.38" height="7.2" style="fill:#fff000"/><rect x="27.34" y="13.96" width="5.99" height="1.44" style="fill:#fff000"/><rect x="27.34" y="16.71" width="5.99" height="1.44" style="fill:#fff000"/><path d="M13,14.76H11.54l0,3.39H13a1.7,1.7,0,1,0,0-3.39Z" style="fill:none;stroke:#fff000;stroke-miterlimit:10;stroke-width:0.899999976158142px"/><path d="M13,18.15H11.54l0,3.39H13a1.7,1.7,0,1,0,0-3.39Z" style="fill:none;stroke:#fff000;stroke-miterlimit:10;stroke-width:0.899999976158142px"/><rect x="5.23" y="14.76" width="3.98" height="10.92" rx="1.57" style="fill:none;stroke:#fff000;stroke-miterlimit:10;stroke-width:0.899999976158142px"/><rect x="5.23" y="18.01" width="3.78" height="1.08" style="fill:#fcee21"/><rect x="3.72" y="22.02" width="6.94" height="4.33" style="fill:#eb599c"/></svg>