<?xml version="1.0" encoding="utf-8"?>
<!-- Generator: Adobe Illustrator 19.1.0, SVG Export Plug-In . SVG Version: 6.00 Build 0)  -->
<svg version="1.1" id="Layer_1" xmlns="http://www.w3.org/2000/svg" xmlns:xlink="http://www.w3.org/1999/xlink" x="0px" y="0px"
	 viewBox="0 0 24 24" style="enable-background:new 0 0 24 24;" xml:space="preserve">
<style type="text/css">
	.st0{fill:#48A145;}
</style>
<path class="st0" d="M22.8,15.6l-4-4.1c-0.9-1.1-2.5-1.1-3.8-0.1l-4.9,4.4C10,15.9,9.9,16,9.7,16c-0.1,0-0.3-0.1-0.5-0.3l-0.4-0.5
	c-0.4-0.7-1-1.1-1.8-1.2c-0.8-0.1-1.7,0.1-2.3,0.6l-3.7,3c-0.2,0.2,0,0.5,0,0.8C1,20.5,2.2,22,4.3,22h14.6c2.5,0,4.1-1.5,4.1-4v-1.6
	C23,16.1,23,15.8,22.8,15.6z"/>
<g>
	<path class="st0" d="M19,22.5H4.9c-2.4,0-4.3-1.9-4.3-4.3V5.8c0-2.4,1.9-4.3,4.3-4.3h14.2c2.4,0,4.3,1.9,4.3,4.3V18
		C23.3,20.6,21.4,22.5,19,22.5z M4.9,3.9c-1.1,0-2,0.9-2,2v12.3c0,1.1,0.9,2,2,2H19c1.1,0,2-0.9,2.1-2.1V6c0-1.1-0.9-2-2-2L4.9,3.9
		L4.9,3.9z"/>
</g>
<g>
	<path class="st0" d="M0.6,18V5.8c0-2.4,1.9-4.3,4.3-4.3h14.2c2.4,0,4.3,1.9,4.3,4.3v12.4c0,2.4-1.9,4.3-4.3,4.3H5
		C2.6,22.5,0.7,20.6,0.6,18z M19.1,4H4.9c-1.1,0-2,0.9-2,2v12.1c0.1,1.2,1,2.1,2.1,2.1h14.1c1.1,0,2-0.9,2-2l0-12.3
		C21.1,4.8,20.2,3.9,19.1,4L19.1,4z"/>
</g>
</svg>
