<?xml version="1.0" encoding="utf-8"?>
<!-- Generator: Adobe Illustrator 19.1.0, SVG Export Plug-In . SVG Version: 6.00 Build 0)  -->
<svg version="1.1" xmlns="http://www.w3.org/2000/svg" xmlns:xlink="http://www.w3.org/1999/xlink" x="0px" y="0px"
	 viewBox="0 0 40 40" enable-background="new 0 0 40 40" xml:space="preserve">
<g id="Layer_2">
</g>
<g id="Layer_1">
	<path id="XMLID_49_" fill="#F96A32" stroke="#F43D0C" stroke-width="1.1" stroke-miterlimit="10" d="M31.7,14.9
		C31.7,14.9,31.7,14.9,31.7,14.9c0-3.2-2.6-5.8-5.8-5.8c-1.4,0-2.7,0.5-3.7,1.3c-1.4-2-3.7-3.3-6.4-3.3c-4.3,0-7.8,3.5-7.8,7.8
		c0,0,0,0,0,0c-4,0.4-7.2,3.8-7.2,7.9l0,0c0,4.4,3.6,8,8,8h22.6c4.4,0,8-3.6,8-8l0,0C39.3,18.6,35.9,15.1,31.7,14.9z"/>
	<g id="XMLID_86_">
		<path fill="#FFFFFF" d="M19.6,28.7c-0.6,0-1.2-0.5-1.3-1.1l-1-6.2h-2c-0.8,0-1.1-0.4-1.2-0.6c-0.1-0.2-0.2-0.7,0.2-1.4l4.2-5.6
			c0.3-0.4,0.8-0.7,1.3-0.7c0.5,0,1,0.3,1.3,0.7l4,5.6c0.3,0.5,0.4,1,0.2,1.4c-0.2,0.4-0.6,0.6-1.2,0.6h-2l-1,6.2
			C20.8,28.2,20.2,28.7,19.6,28.7z"/>
		<path fill="#F43D0C" d="M19.7,13.6c0.3,0,0.6,0.2,0.9,0.5l4,5.6c0.5,0.7,0.2,1.2-0.6,1.2h-2.4l-1.1,6.6c-0.1,0.4-0.5,0.7-0.9,0.7
			c-0.4,0-0.8-0.3-0.9-0.7l-1.1-6.6h-2.4c-0.8,0-1.1-0.5-0.6-1.2l4.2-5.6C19,13.8,19.4,13.6,19.7,13.6 M19.7,12.6l0,1L19.7,12.6
			c-0.6,0-1.2,0.3-1.7,0.9l-4.2,5.6c-0.5,0.6-0.6,1.3-0.3,1.9c0.3,0.6,0.9,0.9,1.7,0.9h1.6l1,5.8c0.1,0.9,1,1.6,1.8,1.6
			c0.9,0,1.7-0.7,1.8-1.6l1-5.8H24c0.8,0,1.4-0.3,1.7-0.9c0.3-0.6,0.2-1.3-0.3-1.9l-4-5.6C20.9,12.9,20.3,12.6,19.7,12.6L19.7,12.6z
			"/>
	</g>
</g>
</svg>
