<svg id="Layer_1" data-name="Layer 1" xmlns="http://www.w3.org/2000/svg" viewBox="0 0 40 40"><defs><style>.cls-1{fill:#e5b2aa;stroke:#594a42;stroke-width:0.16px;}.cls-1,.cls-2{stroke-miterlimit:10;}.cls-2{fill:none;stroke:#fff200;stroke-width:0.31px;}.cls-3{fill:#ed2024;}</style></defs><title>hand pose</title><path class="cls-1" d="M8.42,21.28C7.3,18.5,6,17.46,4.78,14.3a17.38,17.38,0,0,1-.65-2.13,1.62,1.62,0,0,1,.21-1.88A0.86,0.86,0,0,1,5,10.23c0.91,0.22,1.34,1.48,1.5,1.84a25.83,25.83,0,0,0,4,6.06,1.16,1.16,0,0,0,1,.34,1.08,1.08,0,0,0,.19-1c-0.25-2-1.3-7.06-1.31-10.42a16.35,16.35,0,0,1,.1-1.79,1.39,1.39,0,0,1,1.21-.87A1.46,1.46,0,0,1,12.92,6a33.87,33.87,0,0,0,.78,5.47c0.46,2,1.31,4.84,1.31,4.84a0.58,0.58,0,0,0,.39.34,0.46,0.46,0,0,0,.24-0.34C16.11,14.76,15.91,8,15.91,8A26.93,26.93,0,0,1,16,4.91a4.39,4.39,0,0,1,.33-2.09l0,0a1.72,1.72,0,0,1,1.24-1,1.77,1.77,0,0,1,1.5,1.65l0,11.92a0.84,0.84,0,0,0,.52,1,0.71,0.71,0,0,0,.5-0.38l2.14,7.43a63.23,63.23,0,0,0,1,8.35,36.06,36.06,0,0,0,1,4.12,33.46,33.46,0,0,0,1.44,3.76l-12.31-.13c-0.23-1.25-.38-2.26-0.48-2.95a13.27,13.27,0,0,0-.66-3.17c-0.22-.57-0.44-1-0.55-1.2a49.77,49.77,0,0,1-2.62-7.82C8.41,21.59,8.74,22.1,8.42,21.28Z"/><path class="cls-1" d="M20.09,16l5-10.61a1.72,1.72,0,0,1,1.55-1c0.56,0.17,1,1.27.53,2.62L23.63,17.74a7.67,7.67,0,0,0,0,4.41,1.6,1.6,0,0,0,.77.94c0.33,0.15.76,0.15,1.83-.33a17.78,17.78,0,0,0,2.21-1.27A8.84,8.84,0,0,1,31,20.28a3.44,3.44,0,0,1,2.64.13,2.94,2.94,0,0,1,1.26,1.7,17,17,0,0,0-4.48,2.81c-0.27.24-1.23,1.23-3.14,3.19a38.4,38.4,0,0,1-2.76,2.71,12.24,12.24,0,0,1-3.14,2c-0.3.13-.55,0.23-0.73,0.29"/><path class="cls-1" d="M11.21,30.94a4.72,4.72,0,0,0,2.52,2.74,4.29,4.29,0,0,0,1.92.3"/><polyline class="cls-2" points="11.69 5.97 11.75 8.89 11.94 11.99 13.39 19.84 17.17 30.32 9.91 21.27 7.57 16.29 5.85 13.97 5.13 11.59"/><polyline class="cls-2" points="26.21 5.56 24.85 8.75 23.58 12.6 20.72 19.32 17.17 30.32 17.29 18.71 17.24 10.07 17.43 6.17 17.52 3.21"/><polyline class="cls-2" points="32.83 21.25 28.42 23.59 25.18 26.46 21 28.48 17.17 30.32"/><circle class="cls-3" cx="32.73" cy="21.4" r="0.59"/><circle class="cls-3" cx="28.39" cy="23.71" r="0.59"/><circle class="cls-3" cx="25.51" cy="26.12" r="0.59" transform="translate(-10.38 19.43) rotate(-35.12)"/><circle class="cls-3" cx="17.32" cy="30.84" r="0.59"/><circle class="cls-3" cx="26.31" cy="5.5" r="0.59"/><circle class="cls-3" cx="24.92" cy="8.55" r="0.59"/><circle class="cls-3" cx="22.92" cy="13.82" r="0.59"/><circle class="cls-3" cx="20.88" cy="19.1" r="0.59"/><circle class="cls-3" cx="17.29" cy="19.13" r="0.59"/><circle class="cls-3" cx="13.54" cy="20.19" r="0.59"/><circle class="cls-3" cx="9.99" cy="21.38" r="0.59"/><circle class="cls-3" cx="17.47" cy="3.36" r="0.59"/><circle class="cls-3" cx="11.63" cy="5.77" r="0.59"/><circle class="cls-3" cx="5.2" cy="11.67" r="0.59"/><circle class="cls-3" cx="17.4" cy="6.53" r="0.59"/><circle class="cls-3" cx="17.3" cy="10.84" r="0.59"/><circle class="cls-3" cx="11.75" cy="8.94" r="0.59" transform="translate(-0.53 17.13) rotate(-70.98)"/><circle class="cls-3" cx="11.92" cy="11.94" r="0.59"/><circle class="cls-3" cx="5.96" cy="14.11" r="0.59"/><circle class="cls-3" cx="7.61" cy="16.42" r="0.59"/><circle class="cls-3" cx="21.38" cy="28.43" r="0.59"/></svg>