<?xml version="1.0" encoding="utf-8"?>
<!-- Generator: Adobe Illustrator 19.2.1, SVG Export Plug-In . SVG Version: 6.00 Build 0)  -->
<svg version="1.1" baseProfile="tiny" id="Layer_1" xmlns="http://www.w3.org/2000/svg" xmlns:xlink="http://www.w3.org/1999/xlink"
width="116px" height="128px"
	 x="0px" y="0px" viewBox="0 0 70 92.5" xml:space="preserve">
<g id="形状_1_2_">
	<g>
		<path fill-rule="evenodd" fill="#E6E7E8" d="M53.5,11.9c0-0.2-1.5-7.2-1.5-7.2c-0.3-3-2.6-3.5-2.6-3.5H20.5C18.2,2.2,18,4,18,4
			l-1.5,7.1c-0.8,1.4,0.4,1.2,0.4,1.2h35.9C53.8,12.4,53.5,11.9,53.5,11.9z"/>
	</g>
	<g>
		<path fill="none" stroke="#999999" stroke-width="2.5" stroke-miterlimit="10" d="M53.5,11.9c0-0.2-1.5-7.2-1.5-7.2
			c-0.3-3-2.6-3.5-2.6-3.5H20.5C18.2,2.2,18,4,18,4l-1.5,7.1c-0.8,1.4,0.4,1.2,0.4,1.2h35.9C53.8,12.4,53.5,11.9,53.5,11.9z"/>
	</g>
</g>
<g id="形状_1_拷贝_2_">
	<g>
		<path fill-rule="evenodd" fill="#E6E7E8" d="M52.9,80.2H17c-1-0.1-0.7,0.4-0.7,0.4c0,0.2,1.5,7.2,1.5,7.2c0.3,3,2.6,3.5,2.6,3.5
			h28.9c2.3-1,2.5-2.7,2.5-2.7l1.5-7.1C54,80,52.9,80.2,52.9,80.2z"/>
	</g>
	<g>
		<path fill="none" stroke="#999999" stroke-width="2.5" stroke-miterlimit="10" d="M52.9,80.2H17c-1-0.1-0.7,0.4-0.7,0.4
			c0,0.2,1.5,7.2,1.5,7.2c0.3,3,2.6,3.5,2.6,3.5h28.9c2.3-1,2.5-2.7,2.5-2.7l1.5-7.1C54,80,52.9,80.2,52.9,80.2z"/>
	</g>
</g>
<g id="圆角矩形_1_6_">
	<g>
		<path fill-rule="evenodd" fill="#E6E7E8" d="M58.8,11.5H11.2c-5.5,0-9.9,4.4-9.9,9.9v49.4c0,5.5,4.4,9.9,9.9,9.9h47.6
			c5.5,0,9.9-4.4,9.9-9.9V21.5C68.7,16,64.3,11.5,58.8,11.5z"/>
	</g>
	<g>
		<path fill="none" stroke="#999999" stroke-width="2.5" stroke-miterlimit="10" d="M58.8,11.5H11.2c-5.5,0-9.9,4.4-9.9,9.9v49.4
			c0,5.5,4.4,9.9,9.9,9.9h47.6c5.5,0,9.9-4.4,9.9-9.9V21.5C68.7,16,64.3,11.5,58.8,11.5z"/>
	</g>
</g>
<g id="圆角矩形_1_拷贝_10_">
	<path fill-rule="evenodd" fill="#999999" d="M55.5,18.9H14.4c-3.4,0-6.1,2.7-6.1,6.1v42.6c0,3.4,2.7,6.1,6.1,6.1h41.1
		c3.4,0,6.1-2.7,6.1-6.1V24.9C61.6,21.6,58.9,18.9,55.5,18.9z"/>
</g>
<g>
	<path fill="#FFFFFF" d="M21,45.9c0,1.9-0.4,3.3-1.1,4.3c-0.7,1-1.8,1.4-3.2,1.4c-1.4,0-2.5-0.5-3.2-1.4c-0.7-0.9-1.1-2.3-1.1-4.2
		v-2.3c0-1.9,0.4-3.3,1.1-4.3s1.8-1.4,3.3-1.4c1.4,0,2.5,0.5,3.2,1.4c0.7,0.9,1.1,2.3,1.1,4.2V45.9z M18.8,43.5
		c0-1.2-0.2-2.1-0.5-2.7c-0.3-0.6-0.9-0.9-1.6-0.9c-0.7,0-1.2,0.3-1.6,0.8s-0.5,1.4-0.5,2.6v3c0,1.2,0.2,2.2,0.5,2.8
		s0.9,0.9,1.6,0.9c0.7,0,1.2-0.3,1.6-0.8c0.3-0.6,0.5-1.4,0.5-2.6V43.5z"/>
	<path fill="#FFFFFF" d="M29.2,46c-0.7,0.8-1.6,1.2-2.6,1.2c-1.2,0-2.1-0.4-2.8-1.2c-0.7-0.8-1-1.9-1-3.2c0-0.9,0.2-1.7,0.5-2.4
		s0.8-1.3,1.5-1.7c0.6-0.4,1.4-0.6,2.2-0.6c1.3,0,2.4,0.5,3.2,1.5c0.8,1,1.2,2.3,1.2,4v0.6c0,2.4-0.5,4.2-1.6,5.5
		c-1.1,1.3-2.7,1.9-4.8,1.9h-0.3v-1.8H25c1.3,0,2.3-0.3,3-0.9S29.1,47.2,29.2,46z M27.1,45.4c0.4,0,0.9-0.1,1.2-0.4
		c0.4-0.3,0.7-0.6,0.9-1.1v-0.9c0-1-0.2-1.8-0.6-2.4c-0.4-0.6-0.9-0.9-1.6-0.9c-0.6,0-1.1,0.3-1.5,0.8s-0.6,1.2-0.6,2
		c0,0.8,0.2,1.5,0.6,2C25.9,45.2,26.4,45.4,27.1,45.4z"/>
	<path fill="#FFFFFF" d="M35,41.5c0.4,0,0.7,0.1,1,0.3c0.2,0.2,0.3,0.5,0.3,0.9c0,0.3-0.1,0.6-0.3,0.9c-0.2,0.2-0.5,0.3-1,0.3
		c-0.4,0-0.7-0.1-0.9-0.3c-0.2-0.2-0.3-0.5-0.3-0.9c0-0.4,0.1-0.6,0.3-0.9C34.3,41.6,34.6,41.5,35,41.5z M35,49.2
		c0.4,0,0.7,0.1,1,0.3c0.2,0.2,0.3,0.5,0.3,0.9c0,0.3-0.1,0.6-0.3,0.9c-0.2,0.2-0.5,0.3-1,0.3c-0.4,0-0.7-0.1-0.9-0.3
		c-0.2-0.2-0.3-0.5-0.3-0.9c0-0.4,0.1-0.6,0.3-0.9C34.3,49.3,34.6,49.2,35,49.2z"/>
	<path fill="#FFFFFF" d="M39,45l0.7-6.7h7.1v1.9h-5.3l-0.4,3.2c0.6-0.4,1.3-0.5,2.1-0.5c1.3,0,2.2,0.4,2.9,1.2c0.7,0.8,1,1.9,1,3.3
		c0,1.3-0.4,2.4-1.2,3.2c-0.8,0.8-1.8,1.2-3.2,1.2c-1.2,0-2.2-0.3-3-1c-0.8-0.7-1.2-1.6-1.3-2.7h2.1c0.1,0.6,0.3,1.1,0.7,1.5
		s0.9,0.5,1.5,0.5c0.7,0,1.2-0.2,1.6-0.7s0.6-1.1,0.6-2c0-0.8-0.2-1.4-0.6-1.9c-0.4-0.5-1-0.7-1.7-0.7c-0.4,0-0.7,0.1-1,0.2
		s-0.6,0.3-0.9,0.6L39,45z"/>
	<path fill="#FFFFFF" d="M55.8,38.2V40h-0.3c-1.2,0-2.2,0.4-3,1c-0.7,0.7-1.2,1.6-1.3,2.8c0.7-0.7,1.6-1.1,2.7-1.1
		c1.2,0,2.1,0.4,2.8,1.2c0.7,0.8,1,1.9,1,3.2c0,1.3-0.4,2.4-1.2,3.3s-1.8,1.2-3.1,1.2c-1.3,0-2.4-0.5-3.2-1.5
		c-0.8-1-1.2-2.3-1.2-3.8v-0.8c0-2.3,0.6-4.1,1.7-5.4s2.8-2,4.9-2H55.8z M53.5,44.5c-0.5,0-0.9,0.1-1.3,0.4
		c-0.4,0.3-0.7,0.6-0.9,1.1v0.7c0,1,0.2,1.8,0.6,2.3s0.9,0.9,1.6,0.9s1.2-0.2,1.6-0.7c0.4-0.5,0.6-1.1,0.6-1.9c0-0.8-0.2-1.4-0.6-2
		C54.6,44.8,54.1,44.5,53.5,44.5z"/>
</g>
</svg>
