<?xml version="1.0" encoding="utf-8"?>
<!-- Generator: Adobe Illustrator 19.1.0, SVG Export Plug-In . SVG Version: 6.00 Build 0)  -->
<svg version="1.1" id="Layer_1" xmlns="http://www.w3.org/2000/svg" xmlns:xlink="http://www.w3.org/1999/xlink" x="0px" y="0px"
	 viewBox="0 0 24 24" style="enable-background:new 0 0 24 24;" xml:space="preserve">
<style type="text/css">
	.st0{fill:#FFFFFF;}
</style>
<path class="st0" d="M22.5,8L22.5,8c0-0.6-0.4-1-1-1h-2V5c0-1.1-0.9-2-2-2h-14c-1.1,0-2,0.9-2,2v14c0,1.1,0.9,2,2,2h14
	c1.1,0,2-0.9,2-2v-2h2c0.6,0,1-0.4,1-1v0c0-0.6-0.4-1-1-1h-2v-2h2c0.6,0,1-0.4,1-1v0c0-0.6-0.4-1-1-1h-2V9h2C22.1,9,22.5,8.6,22.5,8
	z M17.5,19h-14V5h14V19z M5.5,13h5v4h-5V13z M11.5,7h4v3h-4V7z M5.5,7h5v5h-5V7z M11.5,11h4v6h-4V11z"/>
</svg>
