<?xml version="1.0" encoding="utf-8"?>
<!-- Generator: Adobe Illustrator 19.2.1, SVG Export Plug-In . SVG Version: 6.00 Build 0)  -->
<svg version="1.1" id="Layer_1" xmlns="http://www.w3.org/2000/svg" xmlns:xlink="http://www.w3.org/1999/xlink" x="0px" y="0px"
	 viewBox="0 0 24 24" style="enable-background:new 0 0 24 24;" xml:space="preserve">
<style type="text/css">
	.st0{fill:#FFFFFF;}
</style>
<path class="st0" d="M14.2,18L6.1,9.8c-0.3-0.3-0.6-0.3-0.9,0l-1,1c-0.3,0.3-0.3,0.6,0,0.9l0.4,0.4l-1.8,1.8
	c-0.1,0.1-0.2,0.3-0.2,0.4v3.3c0,0.1,0.1,0.3,0.2,0.4l0.5,0.5l-2.1,2.1c-0.3,0.3-0.3,0.8,0,1l0.9,0.9c0.3,0.3,0.8,0.3,1,0l2.1-2.1
	l0.5,0.5c0.1,0.1,0.3,0.2,0.4,0.2h3.3c0.1,0,0.3-0.1,0.4-0.2l1.8-1.8l0.4,0.4c0.3,0.3,0.6,0.3,0.9,0l1-1
	C14.5,18.7,14.5,18.3,14.2,18z"/>
<path class="st0" d="M19.3,12l1.8-1.8c0.1-0.1,0.2-0.3,0.2-0.4V6.5c0-0.1-0.1-0.3-0.2-0.4l-0.5-0.5l2.3-2.3c0.3-0.3,0.3-0.8,0-1
	l-0.9-0.9c-0.3-0.3-0.8-0.3-1,0l-2.3,2.3l-0.5-0.5c-0.1-0.1-0.3-0.2-0.4-0.2h-3.3c-0.1,0-0.3,0.1-0.4,0.2l-1.8,1.8l-0.4-0.4
	c-0.3-0.3-0.6-0.3-0.9,0l-1,1C9.5,5.7,9.5,6,9.8,6.3l8.1,8.1c0.3,0.3,0.6,0.3,0.9,0l1-1c0.3-0.3,0.3-0.6,0-0.9L19.3,12z"/>
<path class="st0" d="M12.6,9l-2.3,2.3c-0.4,0.4-1,0.4-1.4,0l0,0c-0.4-0.4-0.4-1,0-1.4l2.3-2.3L12.6,9z"/>
<path class="st0" d="M16.6,13l-2.3,2.3c-0.4,0.4-1,0.4-1.4,0l0,0c-0.4-0.4-0.4-1,0-1.4l2.3-2.3L16.6,13z"/>
</svg>
