<?xml version="1.0" encoding="utf-8"?>
<!-- Generator: Adobe Illustrator 19.0.0, SVG Export Plug-In . SVG Version: 6.00 Build 0)  -->
<svg version="1.1" id="Layer_1" xmlns="http://www.w3.org/2000/svg" xmlns:xlink="http://www.w3.org/1999/xlink" x="0px" y="0px"
	 viewBox="0 0 24 24" style="enable-background:new 0 0 24 24;" xml:space="preserve">
<style type="text/css">
	.st0{fill:#D8D8D8;}
</style>
<path id="XMLID_333_" class="st0" d="M1.6,11.5h8.8c0.4,0,0.7-0.3,0.7-0.7c0-0.2-0.1-0.4-0.2-0.5l-2-2.5c1.4-1.4,3.4-2,5.4-1.8
	c2.1,0.3,3.9,1.7,4.7,3.7c0.8,2.1,0.5,4.5-0.8,6.4c-1.3,2-3.4,3.2-5.8,3.4c-0.8,0-1.5,0.7-1.5,1.6c0,0.8,0.7,1.5,1.6,1.5
	c3.4-0.1,6.5-1.7,8.5-4.4c2.1-2.8,2.7-6.4,1.6-9.6C22,6.7,21,5.2,19.7,4.1c-1.4-1.1-3-1.9-4.7-2.2C11.8,1.3,8.5,2.2,6,4.2L4.1,1.8
	c-0.3-0.3-0.7-0.3-1-0.1C3,1.9,3,2,2.9,2.1l-2,8.5C0.8,11,1,11.4,1.4,11.5C1.5,11.5,1.5,11.5,1.6,11.5z"/>
</svg>
