<?xml version="1.0" encoding="utf-8"?>
<!-- Generator: Adobe Illustrator 19.2.1, SVG Export Plug-In . SVG Version: 6.00 Build 0)  -->
<svg version="1.1" id="Layer_1" xmlns="http://www.w3.org/2000/svg" xmlns:xlink="http://www.w3.org/1999/xlink" x="0px" y="0px"
	 viewBox="0 0 48 48" style="enable-background:new 0 0 48 48;" xml:space="preserve">
<style type="text/css">
	.st0{fill:#48A145;}
</style>
<path id="XMLID_806_" class="st0" d="M30.8,12.8c-1.9,1-6.2,2.6-12.4,2.6S8,13.8,6.1,13.1c-2.6-1.2-3.8-2.1-4.3,0
	c-0.5,1.9-0.7,4.8-0.7,8.8C1.1,30.4,3.9,48,18.4,48c14.3,0,17.3-17.3,17.3-26.1c0-4-0.2-6.9-0.7-8.8C34.6,10.5,33.4,11.6,30.8,12.8z
	 M5.6,26.6c0,0,1.2-3.8,5.2-3.8s5.2,4,5.2,4L5.6,26.6z M18.2,39c-6.9-0.2-9-5-9-5l18.1,0.2C27.4,34.2,25.1,39,18.2,39z M21.7,27.1
	c0,0,1.2-3.8,5-3.8s5,4,5,4L21.7,27.1z"/>
<path id="XMLID_796_" class="st0" d="M42.7,4.3h2.1c1.2,0,2.1,1,2.1,2.1s-1,2.1-2.1,2.1h-2.1v2.1c0,1.2-1,2.1-2.1,2.1
	c-1.2,0-2.1-1-2.1-2.1V8.3h-2.1c-1.2,0-2.1-1-2.1-2.1S35,4,36.2,4h2.1V2.1c0-1.2,1-2.1,2.1-2.1c1.2,0,2.1,1,2.1,2.1V4.3z"/>
</svg>
