<?xml version="1.0" encoding="utf-8"?>
<!-- Generator: Adobe Illustrator 19.1.0, SVG Export Plug-In . SVG Version: 6.00 Build 0)  -->
<svg version="1.1" id="Layer_1" xmlns="http://www.w3.org/2000/svg" xmlns:xlink="http://www.w3.org/1999/xlink" x="0px" y="0px"
	 viewBox="0 0 24 24" style="enable-background:new 0 0 24 24;" xml:space="preserve">
<style type="text/css">
	.st0{fill:#868e9c;}
</style>
<path id="Fill-1_4_" class="st0" d="M20.6,15.3l-1.3,1.3l3.5,4.6c0.3,0.4,0.3,1.3-0.2,1.6c-0.4,0.3-1.1,0.3-1.4,0l-4.6-3.5l-1.3,1.3
	c-0.3,0.3-1,0.1-1-0.3v-5.4c0-0.3,0.2-0.5,0.5-0.5h5.4C20.7,14.3,20.9,14.8,20.6,15.3"/>
<path id="Fill-3_2_" class="st0" d="M3.4,8.8l1.3-1.3L1.2,3C0.9,2.4,1,1.6,1.4,1.2c0.4-0.3,1.1-0.3,1.4,0l4.6,3.5l1.3-1.3
	c0.4-0.3,1.1-0.1,1.1,0.3v5.4c0,0.3-0.2,0.5-0.5,0.5H3.9C3.3,9.8,3.1,9.3,3.4,8.8"/>
<path id="Fill-5_2_" class="st0" d="M20.6,8.9l-1.3-1.3l3.5-4.6c0.3-0.4,0.3-1.3-0.2-1.7c-0.4-0.3-1.1-0.3-1.4,0l-4.6,3.5l-1.3-1.3
	c-0.4-0.4-1.1-0.2-1.1,0.2v5.5c0,0.3,0.2,0.6,0.6,0.6h5.5C20.7,9.9,20.9,9.4,20.6,8.9"/>
<path id="Fill-7_2_" class="st0" d="M3.4,15.2l1.3,1.3L1.2,21c-0.3,0.4-0.3,1.3,0.2,1.7c0.4,0.3,1.1,0.3,1.4,0l4.6-3.5l1.3,1.3
	c0.4,0.4,1.1,0.2,1.1-0.2v-5.5c0-0.3-0.2-0.6-0.6-0.6H3.6C3.3,14.2,3.1,14.7,3.4,15.2"/>
</svg>
