<svg width="52" height="48" viewBox="0 0 52 48" fill="none" xmlns="http://www.w3.org/2000/svg">
<path d="M25.397 9.93103H14.3272C7.3286 9.93103 1.65515 15.6045 1.65515 22.603V33.6728C1.65515 40.6714 7.3286 46.3448 14.3272 46.3448H25.397C32.3955 46.3448 38.069 40.6714 38.069 33.6728V22.603C38.069 15.6045 32.3955 9.93103 25.397 9.93103Z" fill="#E6E6E6"/>
<path d="M11.6773 20.3801C11.1052 20.3794 10.5457 20.5485 10.0698 20.8659C9.59377 21.1833 9.22263 21.6348 9.00331 22.1632C8.784 22.6916 8.72636 23.2732 8.83769 23.8344C8.94902 24.3955 9.22432 24.9111 9.62875 25.3157C10.0332 25.7204 10.5486 25.996 11.1097 26.1076C11.6708 26.2193 12.2524 26.162 12.7809 25.943C13.3095 25.724 13.7612 25.3531 14.0788 24.8773C14.3965 24.4015 14.5659 23.8421 14.5656 23.27C14.5651 22.504 14.2608 21.7694 13.7192 21.2276C13.1777 20.6858 12.4433 20.3809 11.6773 20.3801Z" fill="#B9B9B9"/>
<path d="M28.0684 20.3801C27.4961 20.3784 26.9362 20.5467 26.4595 20.8635C25.9829 21.1803 25.611 21.6314 25.3909 22.1597C25.1708 22.6881 25.1125 23.2698 25.2233 23.8313C25.334 24.3928 25.6089 24.9088 26.0132 25.314C26.4174 25.7191 26.9328 25.9952 27.494 26.1073C28.0553 26.2193 28.6371 26.1623 29.166 25.9435C29.6948 25.7246 30.1468 25.3537 30.4647 24.8778C30.7826 24.4019 30.9521 23.8423 30.9518 23.27C30.9513 22.5048 30.6476 21.771 30.1072 21.2293C29.5667 20.6877 28.8336 20.3823 28.0684 20.3801V20.3801Z" fill="#B9B9B9"/>
<path d="M38.0691 31.3456C35.8184 34.7161 32.761 37.4704 29.1748 39.3584C25.5886 41.2463 21.5874 42.2078 17.535 42.1556C8.36201 42.1556 6.67207 40.5004 2.40338 37.9696C3.28844 40.4224 4.90822 42.5426 7.04198 44.0413C9.17575 45.54 11.7197 46.3444 14.3272 46.3448H25.397C28.7579 46.3448 31.9811 45.0097 34.3575 42.6333C36.734 40.2568 38.0691 37.0336 38.0691 33.6728V31.3456Z" fill="#D9D9D9"/>
<path d="M24.3956 28.939H24.3823C24.2415 28.9103 24.095 28.9329 23.9693 29.0027C23.8437 29.0725 23.7471 29.185 23.6971 29.3197C23.4737 29.9073 22.9837 30.8094 22.0717 30.8094C20.9379 30.8094 20.4563 29.5117 20.4381 29.4588C20.396 29.3365 20.316 29.2309 20.2097 29.1572C20.1035 29.0836 19.9765 29.0458 19.8472 29.0493C19.718 29.0528 19.5932 29.0974 19.4911 29.1767C19.389 29.256 19.3148 29.3659 19.2794 29.4902C19.1589 29.871 18.9211 30.2041 18.6001 30.4419C18.2792 30.6796 17.8913 30.81 17.4919 30.8144C16.7586 30.8144 16.2786 29.9007 16.0436 29.3048C15.9898 29.1693 15.8887 29.0579 15.7591 28.9913C15.6294 28.9246 15.48 28.9072 15.3385 28.9424L15.8731 28.8083L15.3385 28.9424L15.2855 28.9556L15.3252 28.9457C15.2418 28.9664 15.1638 29.0048 15.0965 29.0583C15.0293 29.1118 14.9742 29.1791 14.9352 29.2556C14.8961 29.3322 14.8739 29.4163 14.8701 29.5021C14.8663 29.588 14.881 29.6737 14.9131 29.7534C15.2574 30.6157 16.0419 32.0293 17.4919 32.0293C17.9494 32.0356 18.4023 31.9365 18.8153 31.7396C19.2284 31.5427 19.5905 31.2533 19.8737 30.8938C20.1251 31.242 20.4549 31.5262 20.8365 31.7234C21.218 31.9207 21.6406 32.0254 22.0701 32.0293C22.7108 31.9823 23.3211 31.7372 23.8164 31.3279C24.3116 30.9187 24.6673 30.3655 24.8342 29.7451C24.8659 29.6637 24.8794 29.5763 24.8738 29.4891C24.8682 29.402 24.8437 29.317 24.8019 29.2403C24.7602 29.1636 24.7022 29.0969 24.632 29.0448C24.5618 28.9928 24.4811 28.9567 24.3956 28.939V28.939Z" fill="#B9B9B9"/>
<path d="M19.8621 33.7688C21.662 33.7688 23.1212 33.5991 23.1212 33.3897C23.1212 33.1804 21.662 33.0107 19.8621 33.0107C18.0622 33.0107 16.6031 33.1804 16.6031 33.3897C16.6031 33.5991 18.0622 33.7688 19.8621 33.7688Z" fill="#E7C930"/>
<path d="M46.3449 10.7586H42.2069V14.8966C42.2069 15.3517 41.8345 15.7242 41.3793 15.7242C40.9242 15.7242 40.5518 15.3517 40.5518 14.8966V10.7586H36.4138C35.9587 10.7586 35.5862 10.3862 35.5862 9.93105C35.5862 9.47587 35.9587 9.10346 36.4138 9.10346H40.5518V4.96553C40.5518 4.51035 40.9242 4.13794 41.3793 4.13794C41.8345 4.13794 42.2069 4.51035 42.2069 4.96553V9.10346H46.3449C46.8 9.10346 47.1725 9.47587 47.1725 9.93105C47.1725 10.3862 46.8 10.7586 46.3449 10.7586Z" fill="#D9D9D9"/>
</svg>
