<?xml version="1.0" encoding="utf-8"?>
<!-- Generator: Adobe Illustrator 19.2.1, SVG Export Plug-In . SVG Version: 6.00 Build 0)  -->
<svg version="1.1" id="Layer_1" xmlns="http://www.w3.org/2000/svg" xmlns:xlink="http://www.w3.org/1999/xlink" x="0px" y="0px"
	 viewBox="0 0 24 24" style="enable-background:new 0 0 24 24;" xml:space="preserve">
<style type="text/css">
	.st0{fill:#FFFFFF;}
</style>
<g>
	<path class="st0" d="M12,13.8c-0.5,0.6-1,1.1-1.4,1.6c-1.9,1.7-4,2.3-6.4,1.3c-2.3-1-3.5-3.4-3-5.8c0.5-2.3,2.6-4,5-4.1
		c2.2-0.1,3.8,0.9,5.2,2.5c0.2,0.2,0.4,0.5,0.7,0.8c0.2-0.2,0.3-0.4,0.5-0.6c1.5-1.9,3.3-2.9,5.8-2.7c2.4,0.2,4.6,2.4,4.8,4.8
		c0.2,3-2.1,5.5-5.4,5.6c-2.1,0-3.8-1.1-5.1-2.7C12.4,14.2,12.2,14.1,12,13.8z M17.3,15.5c2.2,0,3.8-1.4,4-3.3
		c0.2-1.6-1.1-3.3-2.9-3.7c-1.8-0.4-3.2,0.4-4.2,1.6c-1.6,2-1.6,1.6,0,3.6C15,14.8,16.2,15.4,17.3,15.5z M6.3,15.5
		c0.3,0,0.5,0,0.7-0.1c1.9-0.4,3.1-1.6,4-3.2c0.1-0.1,0.1-0.4,0-0.5c-0.8-1.4-1.8-2.6-3.4-3.1C6,8.2,4.6,8.6,3.6,9.8
		c-1,1.1-1.2,2.3-0.5,3.6C3.7,14.8,4.9,15.4,6.3,15.5z"/>
	<g id="_x30_.1.0.96.0.1">
		<path id="_x30_.1.0.96.0.1.0" class="st0" d="M15.7,11.6C15.7,11.5,15.8,11.5,15.7,11.6l3.4-0.1c0,0,0.1,0,0.1,0.1v1
			c0,0,0,0.1-0.1,0.1h-3.3c0,0-0.1,0-0.1-0.1V11.6z"/>
	</g>
	<g id="_x30_.1.0.96.0.2">
		<path id="_x30_.1.0.96.0.2.0" class="st0" d="M4.9,12.6C4.9,12.6,4.9,12.7,4.9,12.6l1.1,0.1c0,0,0.1,0,0.1,0.1v1
			c0,0,0,0.1,0.1,0.1h1c0,0,0.1,0,0.1-0.1v-1c0,0,0-0.1,0.1-0.1h1c0,0,0.1,0,0.1-0.1v-1c0,0,0-0.1-0.1-0.1h-1c0,0-0.1,0-0.1-0.1v-1
			c0,0,0-0.1-0.1-0.1h-1c0,0-0.1,0-0.1,0.1v1c0,0,0,0.1-0.1,0.1H5c0,0-0.1,0-0.1,0.1V12.6z"/>
	</g>
</g>
</svg>
