<?xml version="1.0" encoding="utf-8"?>
<!-- Generator: Adobe Illustrator 19.1.0, SVG Export Plug-In . SVG Version: 6.00 Build 0)  -->
<svg version="1.1" id="Layer_1" xmlns="http://www.w3.org/2000/svg" xmlns:xlink="http://www.w3.org/1999/xlink" x="0px" y="0px"
	 viewBox="0 0 40 40" enable-background="new 0 0 40 40" xml:space="preserve">
<path fill="#383838" d="M34.3,35.5H5.7c-0.7,0-1.2-0.5-1.2-1.2V5.7C4.5,5,5,4.5,5.7,4.5h28.6c0.7,0,1.2,0.5,1.2,1.2v28.6
	C35.5,35,35,35.5,34.3,35.5z"/>
<path fill="#EAEAEA" d="M19.1,24.2h-2.8c-0.3,0-0.5-0.2-0.5-0.5v-2.8c0-0.3,0.2-0.5,0.5-0.5h2.8c0.3,0,0.5,0.2,0.5,0.5v2.8
	C19.5,24,19.3,24.2,19.1,24.2z"/>
<path fill="#EAEAEA" d="M14.4,24.2h-2.8c-0.3,0-0.5-0.2-0.5-0.5v-2.8c0-0.3,0.2-0.5,0.5-0.5h2.8c0.3,0,0.5,0.2,0.5,0.5v2.8
	C14.9,24,14.6,24.2,14.4,24.2z"/>
<path fill="#F75252" d="M9.7,24.2H6.9c-0.3,0-0.5-0.2-0.5-0.5v-2.8c0-0.3,0.2-0.5,0.5-0.5h2.8c0.3,0,0.5,0.2,0.5,0.5v2.8
	C10.2,24,10,24.2,9.7,24.2z"/>
<path fill="#EAEAEA" d="M23.7,24.2h-2.8c-0.3,0-0.5-0.2-0.5-0.5v-2.8c0-0.3,0.2-0.5,0.5-0.5h2.8c0.3,0,0.5,0.2,0.5,0.5v2.8
	C24.2,24,24,24.2,23.7,24.2z"/>
<path fill="#EAEAEA" d="M28.4,24.2h-2.8c-0.3,0-0.5-0.2-0.5-0.5v-2.8c0-0.3,0.2-0.5,0.5-0.5h2.8c0.3,0,0.5,0.2,0.5,0.5v2.8
	C28.9,24,28.7,24.2,28.4,24.2z"/>
<path fill="#F75252" d="M19.1,19.5h-2.8c-0.3,0-0.5-0.2-0.5-0.5v-2.8c0-0.3,0.2-0.5,0.5-0.5h2.8c0.3,0,0.5,0.2,0.5,0.5v2.8
	C19.5,19.3,19.3,19.5,19.1,19.5z"/>
<path fill="#EAEAEA" d="M14.4,19.5h-2.8c-0.3,0-0.5-0.2-0.5-0.5v-2.8c0-0.3,0.2-0.5,0.5-0.5h2.8c0.3,0,0.5,0.2,0.5,0.5v2.8
	C14.9,19.3,14.6,19.5,14.4,19.5z"/>
<path fill="#F75252" d="M9.7,19.5H6.9c-0.3,0-0.5-0.2-0.5-0.5v-2.8c0-0.3,0.2-0.5,0.5-0.5h2.8c0.3,0,0.5,0.2,0.5,0.5v2.8
	C10.2,19.3,10,19.5,9.7,19.5z"/>
<path fill="#F75252" d="M23.7,19.5h-2.8c-0.3,0-0.5-0.2-0.5-0.5v-2.8c0-0.3,0.2-0.5,0.5-0.5h2.8c0.3,0,0.5,0.2,0.5,0.5v2.8
	C24.2,19.3,24,19.5,23.7,19.5z"/>
<path fill="#EAEAEA" d="M28.4,19.5h-2.8c-0.3,0-0.5-0.2-0.5-0.5v-2.8c0-0.3,0.2-0.5,0.5-0.5h2.8c0.3,0,0.5,0.2,0.5,0.5v2.8
	C28.9,19.3,28.7,19.5,28.4,19.5z"/>
<path fill="#EAEAEA" d="M19.1,14.9h-2.8c-0.3,0-0.5-0.2-0.5-0.5v-2.8c0-0.3,0.2-0.5,0.5-0.5h2.8c0.3,0,0.5,0.2,0.5,0.5v2.8
	C19.5,14.6,19.3,14.9,19.1,14.9z"/>
<path fill="#F75252" d="M14.4,14.9h-2.8c-0.3,0-0.5-0.2-0.5-0.5v-2.8c0-0.3,0.2-0.5,0.5-0.5h2.8c0.3,0,0.5,0.2,0.5,0.5v2.8
	C14.9,14.6,14.6,14.9,14.4,14.9z"/>
<path fill="#EAEAEA" d="M9.7,14.9H6.9c-0.3,0-0.5-0.2-0.5-0.5v-2.8c0-0.3,0.2-0.5,0.5-0.5h2.8c0.3,0,0.5,0.2,0.5,0.5v2.8
	C10.2,14.6,10,14.9,9.7,14.9z"/>
<path fill="#EAEAEA" d="M23.7,14.9h-2.8c-0.3,0-0.5-0.2-0.5-0.5v-2.8c0-0.3,0.2-0.5,0.5-0.5h2.8c0.3,0,0.5,0.2,0.5,0.5v2.8
	C24.2,14.6,24,14.9,23.7,14.9z"/>
<path fill="#F75252" d="M28.4,14.9h-2.8c-0.3,0-0.5-0.2-0.5-0.5v-2.8c0-0.3,0.2-0.5,0.5-0.5h2.8c0.3,0,0.5,0.2,0.5,0.5v2.8
	C28.9,14.6,28.7,14.9,28.4,14.9z"/>
<path fill="#EAEAEA" d="M19.1,28.9h-2.8c-0.3,0-0.5-0.2-0.5-0.5v-2.8c0-0.3,0.2-0.5,0.5-0.5h2.8c0.3,0,0.5,0.2,0.5,0.5v2.8
	C19.5,28.7,19.3,28.9,19.1,28.9z"/>
<path fill="#F75252" d="M14.4,28.9h-2.8c-0.3,0-0.5-0.2-0.5-0.5v-2.8c0-0.3,0.2-0.5,0.5-0.5h2.8c0.3,0,0.5,0.2,0.5,0.5v2.8
	C14.9,28.7,14.6,28.9,14.4,28.9z"/>
<path fill="#EAEAEA" d="M9.7,28.9H6.9c-0.3,0-0.5-0.2-0.5-0.5v-2.8c0-0.3,0.2-0.5,0.5-0.5h2.8c0.3,0,0.5,0.2,0.5,0.5v2.8
	C10.2,28.7,10,28.9,9.7,28.9z"/>
<path fill="#EAEAEA" d="M23.7,28.9h-2.8c-0.3,0-0.5-0.2-0.5-0.5v-2.8c0-0.3,0.2-0.5,0.5-0.5h2.8c0.3,0,0.5,0.2,0.5,0.5v2.8
	C24.2,28.7,24,28.9,23.7,28.9z"/>
<path fill="#F75252" d="M28.4,28.9h-2.8c-0.3,0-0.5-0.2-0.5-0.5v-2.8c0-0.3,0.2-0.5,0.5-0.5h2.8c0.3,0,0.5,0.2,0.5,0.5v2.8
	C28.9,28.7,28.7,28.9,28.4,28.9z"/>
<path fill="#F75252" d="M19.1,33.6h-2.8c-0.3,0-0.5-0.2-0.5-0.5v-2.8c0-0.3,0.2-0.5,0.5-0.5h2.8c0.3,0,0.5,0.2,0.5,0.5v2.8
	C19.5,33.4,19.3,33.6,19.1,33.6z"/>
<path fill="#EAEAEA" d="M14.4,33.6h-2.8c-0.3,0-0.5-0.2-0.5-0.5v-2.8c0-0.3,0.2-0.5,0.5-0.5h2.8c0.3,0,0.5,0.2,0.5,0.5v2.8
	C14.9,33.4,14.6,33.6,14.4,33.6z"/>
<path fill="#EAEAEA" d="M9.7,33.6H6.9c-0.3,0-0.5-0.2-0.5-0.5v-2.8c0-0.3,0.2-0.5,0.5-0.5h2.8c0.3,0,0.5,0.2,0.5,0.5v2.8
	C10.2,33.4,10,33.6,9.7,33.6z"/>
<path fill="#F75252" d="M23.7,33.6h-2.8c-0.3,0-0.5-0.2-0.5-0.5v-2.8c0-0.3,0.2-0.5,0.5-0.5h2.8c0.3,0,0.5,0.2,0.5,0.5v2.8
	C24.2,33.4,24,33.6,23.7,33.6z"/>
<path fill="#EAEAEA" d="M28.4,33.6h-2.8c-0.3,0-0.5-0.2-0.5-0.5v-2.8c0-0.3,0.2-0.5,0.5-0.5h2.8c0.3,0,0.5,0.2,0.5,0.5v2.8
	C28.9,33.4,28.7,33.6,28.4,33.6z"/>
<path fill="#F75252" d="M33.1,24.2h-2.8c-0.3,0-0.5-0.2-0.5-0.5v-2.8c0-0.3,0.2-0.5,0.5-0.5h2.8c0.3,0,0.5,0.2,0.5,0.5v2.8
	C33.6,24,33.4,24.2,33.1,24.2z"/>
<path fill="#F75252" d="M33.1,19.5h-2.8c-0.3,0-0.5-0.2-0.5-0.5v-2.8c0-0.3,0.2-0.5,0.5-0.5h2.8c0.3,0,0.5,0.2,0.5,0.5v2.8
	C33.6,19.3,33.4,19.5,33.1,19.5z"/>
<path fill="#EAEAEA" d="M33.1,14.9h-2.8c-0.3,0-0.5-0.2-0.5-0.5v-2.8c0-0.3,0.2-0.5,0.5-0.5h2.8c0.3,0,0.5,0.2,0.5,0.5v2.8
	C33.6,14.6,33.4,14.9,33.1,14.9z"/>
<path fill="#EAEAEA" d="M19.1,10.2h-2.8c-0.3,0-0.5-0.2-0.5-0.5V6.9c0-0.3,0.2-0.5,0.5-0.5h2.8c0.3,0,0.5,0.2,0.5,0.5v2.8
	C19.5,10,19.3,10.2,19.1,10.2z"/>
<path fill="#EAEAEA" d="M14.4,10.2h-2.8c-0.3,0-0.5-0.2-0.5-0.5V6.9c0-0.3,0.2-0.5,0.5-0.5h2.8c0.3,0,0.5,0.2,0.5,0.5v2.8
	C14.9,10,14.6,10.2,14.4,10.2z"/>
<path fill="#EAEAEA" d="M9.7,10.2H6.9c-0.3,0-0.5-0.2-0.5-0.5V6.9c0-0.3,0.2-0.5,0.5-0.5h2.8c0.3,0,0.5,0.2,0.5,0.5v2.8
	C10.2,10,10,10.2,9.7,10.2z"/>
<path fill="#EAEAEA" d="M23.7,10.2h-2.8c-0.3,0-0.5-0.2-0.5-0.5V6.9c0-0.3,0.2-0.5,0.5-0.5h2.8c0.3,0,0.5,0.2,0.5,0.5v2.8
	C24.2,10,24,10.2,23.7,10.2z"/>
<path fill="#EAEAEA" d="M28.4,10.2h-2.8c-0.3,0-0.5-0.2-0.5-0.5V6.9c0-0.3,0.2-0.5,0.5-0.5h2.8c0.3,0,0.5,0.2,0.5,0.5v2.8
	C28.9,10,28.7,10.2,28.4,10.2z"/>
<path fill="#EAEAEA" d="M33.1,10.2h-2.8c-0.3,0-0.5-0.2-0.5-0.5V6.9c0-0.3,0.2-0.5,0.5-0.5h2.8c0.3,0,0.5,0.2,0.5,0.5v2.8
	C33.6,10,33.4,10.2,33.1,10.2z"/>
<path fill="#EAEAEA" d="M33.1,28.9h-2.8c-0.3,0-0.5-0.2-0.5-0.5v-2.8c0-0.3,0.2-0.5,0.5-0.5h2.8c0.3,0,0.5,0.2,0.5,0.5v2.8
	C33.6,28.7,33.4,28.9,33.1,28.9z"/>
<path fill="#EAEAEA" d="M33.1,33.6h-2.8c-0.3,0-0.5-0.2-0.5-0.5v-2.8c0-0.3,0.2-0.5,0.5-0.5h2.8c0.3,0,0.5,0.2,0.5,0.5v2.8
	C33.6,33.4,33.4,33.6,33.1,33.6z"/>
</svg>
