<?xml version="1.0" encoding="utf-8"?>
<!-- Generator: Adobe Illustrator 19.0.0, SVG Export Plug-In . SVG Version: 6.00 Build 0)  -->
<svg version="1.1" id="Layer_1" xmlns="http://www.w3.org/2000/svg" xmlns:xlink="http://www.w3.org/1999/xlink" x="0px" y="0px"
	 width="24px" height="24px" viewBox="0 0 24 24" style="enable-background:new 0 0 24 24;" xml:space="preserve">
<style type="text/css">
	.st0{fill:#FFFFFF;}
</style>
<g id="XMLID_1575_">
	<path id="XMLID_1623_" class="st0" d="M15.8,0H3.1C2.3,0,1.6,0.6,1.6,1.4v14.9c0,0.6,0.5,1.1,1.1,1.1h0c0.6,0,1.1-0.5,1.1-1.1V3.1
		c0-0.5,0.4-1,1-1h11c0.6,0,1.1-0.5,1.1-1.1v0C16.9,0.5,16.4,0,15.8,0z"/>
	<path id="XMLID_1577_" class="st0" d="M21.4,4.4H7c-0.5,0-1,0.4-1,1V23c0,0.5,0.4,1,1,1h14.4c0.5,0,1-0.4,1-1V5.3
		C22.4,4.8,21.9,4.4,21.4,4.4z"/>
</g>
</svg>
