<?xml version="1.0" encoding="utf-8"?>
<!-- Generator: Adobe Illustrator 19.0.0, SVG Export Plug-In . SVG Version: 6.00 Build 0)  -->
<svg version="1.1" id="Layer_1" xmlns="http://www.w3.org/2000/svg" xmlns:xlink="http://www.w3.org/1999/xlink" x="0px" y="0px"
	 width="105.1px" height="20.5px" viewBox="0 0 105.1 20.5" style="enable-background:new 0 0 105.1 20.5;" xml:space="preserve">
<style type="text/css">
	.st0{fill:#FFFFFF;}
	.st1{fill:#362010;}
	.st2{fill:#371F0F;}
</style>
<g id="XMLID_445_">
	<path id="XMLID_701_" class="st0" d="M104.7,16.8l-3.4-4.7l3.3-4.7c0.5-0.7,0.5-2.1,0.2-2.8C104.4,4,103.7,3,102.8,3h-3.1
		c-0.7,0-1.4,0.9-1.8,1.5l-1,1.6l-1-1.8C95.6,3.7,94.9,3,94.2,3h-3.1c-0.8,0-1.5,0.9-1.9,1.6c-0.4-0.2-0.8-0.2-1.2-0.4
		c-1-0.5-2.2-0.5-3.5-0.5c-1.3,0-2.4,0.3-3.5,0.7c-1,0.5-1.8,1.1-2.6,1.9C77.8,7,78,7.8,77,8.6V1.5C77,0.3,76,0,74.8,0h-3
		C70.6,0,70,0.3,70,1.5v0.1c-1-0.5-1.3-0.8-1.9-1.1C67.4,0.1,66.2,0,65.3,0h-8.6C55.4,0,54,0.7,54,2v4.3c0-0.7-1.5-1.4-2.5-1.8
		c-1-0.5-2.1-0.7-3.4-0.7c-1.3,0-2.4,0.2-3.4,0.7c-0.8,0.4-1.6,0.3-2.2,0.9c-0.1-1.1-0.8-2.4-2-2.4H40V2.3C40,1.1,39.2,0,38,0h-3
		C33.7,0,32,1.1,32,2.3v1.8c0,0.1-0.6,0.5-0.9,0.9c0,0,0.1,0,0.1,0c-1.3-0.8-2.7-1.2-4.4-1.2c-1.3,0-2.3,0.2-3.4,0.7
		c-1,0.4-2.5,1-2.5,1.8V6.2c0-0.3-0.1-0.6-0.3-0.8c0.2-0.5,0.3-1,0.3-1.6c0-2.1-1.8-3.8-3.9-3.8h0c-1.5,0-2.8,0.8-3.5,2
		c-0.6-0.6-1.3-1-2.1-1.4C10.7,0.1,9.7,0,8.6,0H1.8C0.5,0,0,0.7,0,2v16.1C0,19.3,0.5,20,1.8,20h3.1C6.1,20,6,19.3,6,18.1V16h2.7
		c1.1,0,1.9-0.8,2.8-1.2c0.6-0.3,0.5-1.2,1.5-1.7v5c0,1.2,1.4,1.9,2.6,1.9h3c1.2,0,2.3-0.7,2.3-1.9V18c0,0.8,1.6,1.4,2.6,1.8
		c1,0.5,2.2,0.7,3.4,0.7c1.7,0,3.2-0.4,4.5-1.2c0.7-0.4,1.3-0.9,1.7-1.5c0.3,0.6,0.7,1,1.2,1.4c0.5,0.4,1.1,0.7,1.8,0.9
		c0.6,0.2,1.2,0.2,1.8,0.2c0.9,0,1.7-0.1,2.5-0.4c0.7-0.2,1.2-0.4,1.7-0.6c0.3-0.1,0.6-0.3,0.8-0.6c0.5,0.4,1.1,0.7,1.6,0.9
		c1,0.5,2.2,0.7,3.5,0.7c1.3,0,2.3-0.2,3.3-0.7c1-0.4,2.5-1,2.5-1.8v0c0,1.2,1.4,1.9,2.6,1.9h7.8c0.9,0,1.8,0,2.6-0.2
		c0.9-0.3,1.7-0.6,2.3-1.1c0.3-0.2,0.5-0.4,0.8-0.6c0.3,0.4,0.5,0.7,0.8,1c0.9,0.9,2.3,1.4,3.8,1.4c0.6,0,1.2-0.1,1.9-0.2
		c0.7-0.1,1.4-0.3,2-0.6c0.3-0.2,0.6-0.4,0.8-0.7c0.5,0.3,1,0.6,1.6,0.9c1,0.5,2.2,0.7,3.5,0.7s2.4-0.2,3.5-0.7
		c0.4-0.2,0.7-0.6,1.1-0.8c0.4,0.7,1.1,1,1.9,1h3.1c0.7,0,1.4-0.2,1.8-0.8l1-1.4l1,1.3c0.4,0.6,1.1,0.8,1.8,0.8h3.1
		c0.8,0,1.6-0.3,1.9-1C105.2,18.2,105.2,17.5,104.7,16.8z M29.6,12.1C29.6,12.1,29.6,12.1,29.6,12.1L29.6,12.1
		C29.6,12.1,29.6,12.1,29.6,12.1C29.6,12.1,29.6,12.1,29.6,12.1z"/>
	<g id="XMLID_446_">
		<path id="XMLID_698_" class="st1" d="M1.8,18.1V2h6.8c0.7,0,1.4,0.2,2.1,0.5c0.6,0.3,1.2,0.7,1.6,1.2c0.5,0.5,0.8,1.1,1.1,1.7
			c0.3,0.6,0.4,1.3,0.4,1.9c0,0.7-0.1,1.3-0.4,2c-0.2,0.6-0.6,1.2-1,1.7c-0.4,0.5-1,0.9-1.6,1.2c-0.6,0.3-1.3,0.5-2,0.5H4.9v5.4H1.8
			z M4.9,9.9h3.6c0.6,0,1.1-0.2,1.4-0.7c0.4-0.5,0.6-1.1,0.6-1.9c0-0.4-0.1-0.8-0.2-1.1c-0.1-0.3-0.3-0.6-0.5-0.8
			C9.7,5.2,9.5,5,9.2,4.9C8.9,4.8,8.7,4.7,8.4,4.7H4.9V9.9z"/>
		<path id="XMLID_691_" class="st1" d="M15.4,3.7L15.4,3.7c0-0.9,0.8-1.7,1.7-1.7h0c0.9,0,1.7,0.8,1.7,1.7v0c0,0.9-0.8,1.7-1.7,1.7
			h0C16.2,5.4,15.4,4.6,15.4,3.7z M15.6,18.1V6.2h3v11.9H15.6z"/>
		<path id="XMLID_678_" class="st1" d="M20.7,12.1c0-0.8,0.1-1.6,0.4-2.4c0.3-0.7,0.7-1.4,1.3-2c0.5-0.6,1.2-1,2-1.3
			C25.1,6.1,26,6,27,6c1.3,0,2.4,0.3,3.3,0.8c0.9,0.6,1.6,1.3,2.1,2.2l-3,0.9c-0.3-0.4-0.6-0.8-1-1c-0.4-0.2-0.9-0.4-1.4-0.4
			c-0.4,0-0.8,0.1-1.2,0.3c-0.4,0.2-0.7,0.4-1,0.7c-0.3,0.3-0.5,0.7-0.7,1.1c-0.2,0.4-0.2,0.9-0.2,1.5c0,0.5,0.1,1,0.3,1.5
			c0.2,0.4,0.4,0.8,0.7,1.1c0.3,0.3,0.6,0.6,1,0.7c0.4,0.2,0.8,0.3,1.2,0.3c0.5,0,1-0.1,1.5-0.4c0.5-0.3,0.8-0.6,1-1l3,0.9
			c-0.4,0.9-1.1,1.7-2,2.2c-0.9,0.6-2.1,0.9-3.4,0.9c-1,0-1.8-0.2-2.6-0.5c-0.8-0.3-1.4-0.8-2-1.4c-0.5-0.6-1-1.2-1.3-2
			C20.8,13.7,20.7,13,20.7,12.1z"/>
		<path id="XMLID_673_" class="st1" d="M41.4,17.5c-0.4,0.2-0.9,0.4-1.5,0.5c-0.6,0.2-1.2,0.3-1.9,0.3c-0.4,0-0.8-0.1-1.2-0.2
			c-0.4-0.1-0.7-0.3-1-0.5c-0.3-0.2-0.5-0.5-0.7-0.9c-0.2-0.4-0.3-0.8-0.3-1.4V8.5h-1.6V6.2h1.6V2.3h3v3.9h2.5v2.3H38v5.8
			c0,0.4,0.1,0.7,0.3,0.9c0.2,0.2,0.5,0.3,0.8,0.3c0.3,0,0.6-0.1,0.9-0.2c0.3-0.1,0.5-0.2,0.7-0.3L41.4,17.5z"/>
		<path id="XMLID_668_" class="st2" d="M48.2,18.3c-1,0-1.8-0.2-2.6-0.5c-0.8-0.3-1.4-0.8-2-1.4c-0.5-0.6-1-1.2-1.2-2
			c-0.3-0.7-0.4-1.5-0.4-2.3c0-0.8,0.1-1.6,0.4-2.4c0.3-0.7,0.7-1.4,1.2-2c0.5-0.6,1.2-1,2-1.4C46.4,6.1,47.2,6,48.2,6
			c1,0,1.8,0.2,2.6,0.5c0.8,0.3,1.4,0.8,2,1.4c0.5,0.6,1,1.2,1.2,2c0.3,0.7,0.4,1.5,0.4,2.4c0,0.8-0.1,1.6-0.4,2.3
			c-0.3,0.7-0.7,1.4-1.2,2c-0.5,0.6-1.2,1-2,1.4C50,18.2,49.2,18.3,48.2,18.3z M45.1,12.2c0,0.5,0.1,1,0.2,1.4
			c0.2,0.4,0.4,0.8,0.7,1.1c0.3,0.3,0.6,0.6,1,0.7c0.4,0.2,0.8,0.3,1.2,0.3c0.4,0,0.8-0.1,1.2-0.3c0.4-0.2,0.7-0.4,1-0.7
			c0.3-0.3,0.5-0.7,0.7-1.1c0.2-0.4,0.2-0.9,0.2-1.5c0-0.5-0.1-1-0.2-1.4c-0.2-0.4-0.4-0.8-0.7-1.1c-0.3-0.3-0.6-0.6-1-0.7
			c-0.4-0.2-0.8-0.3-1.2-0.3c-0.4,0-0.8,0.1-1.2,0.3c-0.4,0.2-0.7,0.4-1,0.8c-0.3,0.3-0.5,0.7-0.7,1.1
			C45.2,11.2,45.1,11.7,45.1,12.2z"/>
		<path id="XMLID_663_" class="st1" d="M69.6,13.9c0,0.7-0.1,1.3-0.4,1.8c-0.3,0.5-0.6,0.9-1.1,1.3c-0.5,0.3-1,0.6-1.7,0.8
			c-0.6,0.2-1.3,0.3-2,0.3h-7.8V2h8.6c0.6,0,1.1,0.1,1.5,0.4c0.5,0.2,0.8,0.6,1.2,0.9c0.3,0.4,0.6,0.8,0.7,1.3
			c0.2,0.5,0.3,1,0.3,1.5c0,0.8-0.2,1.5-0.6,2.2c-0.4,0.7-1,1.2-1.7,1.5c0.9,0.3,1.7,0.8,2.2,1.5C69.4,12,69.6,12.9,69.6,13.9z
			 M59.8,4.6v4.1h4.2c0.5,0,1-0.2,1.4-0.5c0.4-0.4,0.6-0.9,0.6-1.5c0-0.6-0.2-1.1-0.5-1.5c-0.3-0.4-0.8-0.5-1.3-0.5H59.8z
			 M66.5,13.3c0-0.3,0-0.6-0.1-0.8c-0.1-0.3-0.2-0.5-0.4-0.7c-0.2-0.2-0.4-0.4-0.6-0.5s-0.5-0.2-0.8-0.2h-4.8v4.3h4.7
			c0.3,0,0.6-0.1,0.8-0.2c0.3-0.1,0.5-0.3,0.6-0.4c0.2-0.2,0.3-0.4,0.4-0.7C66.4,13.9,66.5,13.6,66.5,13.3z"/>
		<path id="XMLID_497_" class="st1" d="M71.8,1.5h3v12.8c0,0.4,0.1,0.8,0.3,1c0.2,0.2,0.5,0.4,0.9,0.4c0.2,0,0.4,0,0.6-0.1
			c0.2-0.1,0.4-0.1,0.6-0.2l0.4,2.3c-0.4,0.2-0.9,0.3-1.4,0.5c-0.5,0.1-1,0.2-1.5,0.2c-1,0-1.7-0.3-2.2-0.8
			c-0.5-0.5-0.8-1.2-0.8-2.2V1.5z"/>
		<path id="XMLID_449_" class="st1" d="M84.5,18.3c-1,0-1.8-0.2-2.6-0.5c-0.8-0.3-1.4-0.8-2-1.4c-0.5-0.6-1-1.2-1.2-2
			c-0.3-0.7-0.4-1.5-0.4-2.3c0-0.8,0.1-1.6,0.4-2.4c0.3-0.7,0.7-1.4,1.2-2c0.5-0.6,1.2-1,2-1.4C82.7,6.1,83.5,6,84.5,6
			c1,0,1.8,0.2,2.6,0.5c0.8,0.3,1.4,0.8,2,1.4c0.5,0.6,1,1.2,1.2,2c0.3,0.7,0.4,1.5,0.4,2.4c0,0.8-0.1,1.6-0.4,2.3
			c-0.3,0.7-0.7,1.4-1.2,2c-0.5,0.6-1.2,1-2,1.4C86.3,18.2,85.5,18.3,84.5,18.3z M81.4,12.2c0,0.5,0.1,1,0.2,1.4
			c0.2,0.4,0.4,0.8,0.7,1.1c0.3,0.3,0.6,0.6,1,0.7c0.4,0.2,0.8,0.3,1.2,0.3c0.4,0,0.8-0.1,1.2-0.3c0.4-0.2,0.7-0.4,1-0.7
			c0.3-0.3,0.5-0.7,0.7-1.1c0.2-0.4,0.2-0.9,0.2-1.5c0-0.5-0.1-1-0.2-1.4c-0.2-0.4-0.4-0.8-0.7-1.1c-0.3-0.3-0.6-0.6-1-0.7
			c-0.4-0.2-0.8-0.3-1.2-0.3c-0.4,0-0.8,0.1-1.2,0.3c-0.4,0.2-0.7,0.4-1,0.8c-0.3,0.3-0.5,0.7-0.7,1.1
			C81.5,11.2,81.4,11.7,81.4,12.2z"/>
		<path id="XMLID_447_" class="st1" d="M94.2,6.2l2.6,3.7l0.2,0.4l0.2-0.4l2.5-3.7h3.1l-4.3,6l4.3,5.9h-3.1l-2.6-3.7L96.9,14
			l-0.2,0.4l-2.6,3.7H91l4.3-5.9l-4.2-6H94.2z"/>
	</g>
</g>
</svg>
