<?xml version="1.0" encoding="utf-8"?>
<!-- Generator: Adobe Illustrator 19.0.0, SVG Export Plug-In . SVG Version: 6.00 Build 0)  -->
<svg version="1.1" id="Layer_1" xmlns="http://www.w3.org/2000/svg" xmlns:xlink="http://www.w3.org/1999/xlink" x="0px" y="0px"
	 viewBox="-54 56 40 40" style="enable-background:new -54 56 40 40;" xml:space="preserve">
<style type="text/css">
	.st0{fill:#FFFFFF;}
</style>
<path class="st0" d="M-29.5,83.3l-11.9-11.9c-0.4-0.4-0.9-0.4-1.3,0l-1.4,1.4c-0.4,0.4-0.4,0.9,0,1.3l0.6,0.6l-2.7,2.6
	c-0.2,0.2-0.3,0.4-0.3,0.6v4.9c0,0.2,0.1,0.5,0.3,0.6l0.8,0.8l-3.1,3.1c-0.4,0.4-0.4,1.1,0,1.5l1.3,1.3c0.4,0.4,1.1,0.4,1.5,0
	l3.1-3.1l0.8,0.8c0.2,0.2,0.4,0.3,0.6,0.3h4.9c0.2,0,0.5-0.1,0.6-0.3l2.6-2.6l0.6,0.6c0.4,0.4,0.9,0.4,1.3,0l1.4-1.4
	C-29.1,84.3-29.1,83.7-29.5,83.3z"/>
<path class="st0" d="M-24.9,77.5l2.6-2.6c0.2-0.2,0.3-0.4,0.3-0.6v-4.9c0-0.2-0.1-0.5-0.3-0.6l-0.8-0.8l3.3-3.3
	c0.4-0.4,0.4-1.1,0-1.5l-1.3-1.3c-0.4-0.4-1.1-0.4-1.5,0l-3.3,3.3l-0.8-0.8c-0.2-0.2-0.4-0.3-0.6-0.3h-4.9c-0.2,0-0.5,0.1-0.6,0.3
	l-2.7,2.6l-0.6-0.6c-0.4-0.4-0.9-0.4-1.3,0l-1.4,1.4c-0.4,0.4-0.4,0.9,0,1.3L-26.9,81c0.4,0.4,0.9,0.4,1.3,0l1.4-1.4
	c0.4-0.4,0.4-0.9,0-1.3L-24.9,77.5z"/>
</svg>
