<?xml version="1.0" encoding="utf-8"?>
<!-- Generator: Adobe Illustrator 19.0.0, SVG Export Plug-In . SVG Version: 6.00 Build 0)  -->
<svg version="1.1" id="Layer_1" xmlns="http://www.w3.org/2000/svg" xmlns:xlink="http://www.w3.org/1999/xlink" x="0px" y="0px"
	 viewBox="0 0 40 40" style="enable-background:new 0 0 40 40;" xml:space="preserve">
<style type="text/css">
	.st0{fill:#76C4F4;}
	.st1{fill:#D1132D;}
	.st2{opacity:0.2;fill:#FFFFFF;}
	.st3{fill:#A7A9AC;}
</style>
<path id="XMLID_8208_" class="st0" d="M22,6.2L22,6.2L22,6.2L22,6.2c0-1.1-0.9-2-2-2c-1.1,0-2,0.9-2,2h0v8.1H22L22,6.2
	C22,6.2,22,6.2,22,6.2z"/>
<path id="XMLID_8204_" class="st1" d="M22,25.8V14.3H18v11.6c-2.5,1.1-4,4-2.7,7c0.5,1.1,1.4,2,2.5,2.5c3.8,1.6,7.4-1.2,7.4-4.7
	C25.2,28.5,23.9,26.6,22,25.8z"/>
<ellipse id="XMLID_8203_" class="st2" cx="17.3" cy="30.2" rx="1.2" ry="1.7"/>
<path id="XMLID_50_" class="st3" d="M24.7,24.3V6.1c0-2.6-2.1-4.7-4.7-4.7s-4.7,2.1-4.7,4.7v18.2c-2,1.5-3.2,3.8-3.2,6.3
	c0,4.3,3.5,7.8,7.8,7.8s7.8-3.5,7.8-7.8C27.8,28.1,26.6,25.8,24.7,24.3z M20,37.1c-3.6,0-6.5-2.9-6.5-6.5c0-2.3,1.2-4.4,3.2-5.6V6.1
	c0-1.8,1.5-3.3,3.3-3.3s3.3,1.5,3.3,3.3v0.3h-2.6c-0.2,0-0.3,0.2-0.3,0.3V7c0,0.2,0.2,0.3,0.3,0.3h2.6V9h-1.9
	c-0.2,0-0.3,0.2-0.3,0.3v0.2c0,0.2,0.2,0.3,0.3,0.3h1.9v1.7h-2.6c-0.2,0-0.3,0.2-0.3,0.3v0.2c0,0.2,0.2,0.3,0.3,0.3h2.6v1.7h-1.9
	c-0.2,0-0.3,0.2-0.3,0.3v0.2c0,0.2,0.2,0.3,0.3,0.3h1.9v1.7h-2.6c-0.2,0-0.3,0.2-0.3,0.3v0.2c0,0.2,0.2,0.3,0.3,0.3h2.6v1.7h-1.9
	c-0.2,0-0.3,0.2-0.3,0.3v0.2c0,0.2,0.2,0.3,0.3,0.3h1.9v1.7h-2.6c-0.2,0-0.3,0.2-0.3,0.3v0.2c0,0.2,0.2,0.3,0.3,0.3h2.6v2
	c1.9,1.2,3.2,3.3,3.2,5.6C26.5,34.2,23.6,37.1,20,37.1z"/>
<path id="XMLID_8105_" class="st2" d="M19.2,6.7c0-0.1-0.1-0.2-0.3-0.2c-0.1,0-0.2,0.1-0.3,0.2h0v19l0.5-0.1L19.2,6.7L19.2,6.7z"/>
</svg>
