<?xml version="1.0" encoding="utf-8"?>
<!-- Generator: Adobe Illustrator 19.0.0, SVG Export Plug-In . SVG Version: 6.00 Build 0)  -->
<svg version="1.1" baseProfile="tiny" id="Layer_1" xmlns="http://www.w3.org/2000/svg" xmlns:xlink="http://www.w3.org/1999/xlink"
	 x="0px" y="0px" viewBox="0 0 40 40" xml:space="preserve">
<g id="XMLID_12555_">
	<g id="XMLID_12898_">
		<path id="XMLID_12900_" fill="#E0B000" d="M14.8,35.5v-6.4c0-2.7-2.2-4.9-4.9-4.9c-2.7,0-4.9,2.2-4.9,4.9v6.4H14.8z"/>
		<path id="XMLID_12899_" fill="#FFD500" d="M14.1,35.5v-6.4c0-2.7-2.2-4.9-4.9-4.9c-2.7,0-4.9,2.2-4.9,4.9v6.4H14.1z"/>
	</g>
	<g id="XMLID_12895_">
		<path id="XMLID_12897_" fill="#2E2F2E" d="M5.8,28.1c-0.3,0.6-1,0.8-1.6,0.5l0,0c-0.6-0.3-0.8-1-0.5-1.6L15.2,6.1
			c0.3-0.6,1-0.8,1.6-0.5l0,0c0.6,0.3,0.8,1,0.5,1.6L5.8,28.1z"/>
		<path id="XMLID_12896_" fill="#2E2F2E" d="M10.6,30.2c-0.3,0.6-1,0.8-1.6,0.5l0,0c-0.6-0.3-0.8-1-0.5-1.6L20,8.1
			c0.3-0.6,1-0.8,1.6-0.5l0,0c0.6,0.3,0.8,1,0.5,1.6L10.6,30.2z"/>
	</g>
	<path id="XMLID_12894_" fill="#2E2F2E" d="M6,28.2c-0.3,0.6-1,0.8-1.6,0.5l0,0c-0.6-0.3-0.8-1-0.5-1.6L15.4,6.2
		c0.3-0.6,1-0.8,1.6-0.5l0,0c0.6,0.3,0.8,1,0.5,1.6L6,28.2z"/>
	<path id="XMLID_12893_" fill="#2E2F2E" d="M10.7,30.1c-0.3,0.6-1,0.8-1.6,0.5l0,0c-0.6-0.3-0.8-1-0.5-1.6L20.1,8.1
		c0.3-0.6,1-0.8,1.6-0.5l0,0c0.6,0.3,0.8,1,0.5,1.6L10.7,30.1z"/>
	<path id="XMLID_12891_" fill="#454645" d="M4.9,28.4c-0.3,0.6-1,0.8-1.6,0.5l0,0c-0.6-0.3-0.8-1-0.5-1.6L14.3,6.3
		c0.3-0.6,1-0.8,1.6-0.5l0,0c0.6,0.3,0.8,1,0.5,1.6L4.9,28.4z"/>
	<path id="XMLID_12890_" fill="#454645" d="M9.6,30.3c-0.3,0.6-1,0.8-1.6,0.5l0,0c-0.6-0.3-0.8-1-0.5-1.6L19,8.2
		c0.3-0.6,1-0.8,1.6-0.5l0,0c0.6,0.3,0.8,1,0.5,1.6L9.6,30.3z"/>
	<g id="XMLID_12848_">
		<path id="XMLID_12850_" fill="#E0B000" d="M12,35.5v-6.4c0-2.7-2.2-4.9-4.9-4.9c-2.7,0-4.9,2.2-4.9,4.9v6.4H12z"/>
		<path id="XMLID_12849_" fill="#FFD500" d="M11.1,35.5v-6.4c0-2.7-2.2-4.9-4.9-4.9c-2.7,0-4.9,2.2-4.9,4.9v6.4H11.1z"/>
	</g>
	<rect id="XMLID_12729_" x="0" y="33.5" fill="#2E2F2E" width="16.1" height="2"/>
	<rect id="XMLID_12735_" x="19.3" y="7" fill="#454645" width="15.9" height="3.6"/>
	<rect id="XMLID_12932_" x="32.9" y="14.7" fill="#CC8100" width="5.9" height="1.3"/>
	<circle id="XMLID_12832_" fill="#FFD500" cx="17.6" cy="8.8" r="4.4"/>
	<rect id="XMLID_12928_" x="34.1" y="10.6" fill="#2E2F2E" width="3.7" height="5.1"/>
	<rect id="XMLID_12926_" x="33.5" y="10.6" fill="#454645" width="3.7" height="5.1"/>
	<g id="XMLID_12831_">
		<circle id="XMLID_12834_" fill="#4D4D4D" cx="6" cy="28.7" r="2.4"/>
		<circle id="XMLID_12833_" fill="#2E2F2E" cx="6" cy="28.7" r="1.8"/>
	</g>
	<circle id="XMLID_12886_" fill="#FFD500" cx="35.6" cy="8.8" r="3.4"/>
	<circle id="XMLID_12853_" fill="#4D4D4D" cx="35.6" cy="8.8" r="2.4"/>
	<circle id="XMLID_12852_" fill="#2E2F2E" cx="35.6" cy="8.8" r="1.8"/>
	<circle id="XMLID_12826_" fill="#4D4D4D" cx="17.6" cy="8.8" r="2.4"/>
	<circle id="XMLID_12825_" fill="#2E2F2E" cx="17.6" cy="8.8" r="1.8"/>
	<g id="XMLID_12566_">
		<polygon id="XMLID_12915_" fill="#2E2F2E" points="35.3,21.5 34.5,19.9 34.5,16.8 33.1,16.8 33.4,22 34,22 		"/>
		<polygon id="XMLID_12912_" fill="#2E2F2E" points="37.5,16.8 37.5,19.9 37.4,22 37.9,22 38.9,20.1 38.9,20.1 38.9,16.8 		"/>
		<polygon id="XMLID_12908_" fill="#4E4C4F" points="34.7,21.5 33.9,19.9 33.9,16.8 32.5,16.8 32.5,20.1 32.5,20.1 33.4,22 		"/>
		<polygon id="XMLID_12905_" fill="#4E4C4F" points="36.9,16.8 36.9,19.9 36.1,21.5 37.4,22 38.3,20.1 38.3,20.1 38.3,16.8 		"/>
	</g>
	<rect id="XMLID_12922_" x="36.1" y="14.7" fill="#CC8100" width="3" height="1.3"/>
	<rect id="XMLID_12919_" x="32.3" y="14.7" fill="#FFB300" width="5.4" height="1.3"/>
	<rect id="XMLID_12847_" x="31.4" y="15.7" fill="#FFE001" width="8.6" height="1.9"/>
	<rect id="XMLID_12551_" x="38" y="15.7" fill="#EAC800" width="2" height="1.9"/>
</g>
</svg>
