<?xml version="1.0" encoding="utf-8"?>
<!-- Generator: Adobe Illustrator 19.1.0, SVG Export Plug-In . SVG Version: 6.00 Build 0)  -->
<svg version="1.1" id="Layer_1" xmlns="http://www.w3.org/2000/svg" xmlns:xlink="http://www.w3.org/1999/xlink" x="0px" y="0px"
	 viewBox="0 0 24 24" style="enable-background:new 0 0 24 24;" xml:space="preserve">
<style type="text/css">
	.st0{fill:#231F20;}
	.st1{fill:#C6C6C6;}
</style>
<path id="XMLID_90_" class="st0" d="M9.8,22.5c0.2,0,0.4,0,0.7,0c0,0,0,0,0,0c0,0,0,0,0,0C10.2,22.6,10,22.6,9.8,22.5
	C9.8,22.5,9.8,22.5,9.8,22.5C9.8,22.5,9.8,22.5,9.8,22.5z"/>
<path id="XMLID_89_" class="st0" d="M9.8,22.5C9.8,22.5,9.8,22.5,9.8,22.5c-0.1,0-0.1,0-0.2,0C9.6,22.5,9.7,22.5,9.8,22.5z"/>
<path id="XMLID_88_" class="st0" d="M10.4,22.6C10.4,22.5,10.4,22.5,10.4,22.6c0.1,0,0.1-0.1,0.2,0C10.6,22.6,10.5,22.6,10.4,22.6z"
	/>
<path class="st1" d="M18.4,12c0-0.1,0-0.2,0.1-0.3c1.2-0.9,1.5-2.4,0.9-3.7c-0.6-1.1-1.7-1.8-3.1-1.6c-0.7,0.1-1.4,0.5-1.8,1.1
	c-0.1,0.1-0.1,0.1-0.3,0.1C13,7,11.8,6.7,10.6,6.7c-0.9-0.1-1.9,0-2.8,0.3C7.2,7.1,6.6,7.3,6.1,7.5c-0.2,0.1-0.2,0.1-0.3,0
	C5.1,6.8,4.4,6.4,3.4,6.4c-0.9,0-1.5,0.4-2.1,0.9l0,0c0,0-0.1,0.1-0.2,0.2c0,0,0,0,0,0c0,0,0,0,0,0C1,7.7,0.9,7.9,0.8,8.1
	c0,0,0,0,0,0.1c-0.3,0.6-0.4,1.5,0.1,2.5l0,0c0.2,0.4,0.5,0.7,0.8,1c0.2,0.1,0.2,0.1,0.1,0.3c-0.4,1.2-0.6,2.4-0.4,3.7
	c0.1,0.9,0.4,1.7,0.8,2.5c0.5,0.9,1.1,1.6,1.8,2.3c0.6,0.5,1.3,0.9,2,1.3c0.9,0.4,1.8,0.7,2.7,0.8c0.2,0,0.4,0,0.7,0
	c0,0,0.1,0,0.1,0c0.1,0,0.1,0,0.2,0c0.2,0,0.4,0,0.6,0c0.1,0,0.1,0,0.2,0c0,0,0,0,0.1,0c0.1,0,0.1,0,0.2,0c0.3,0,0.5,0,0.8-0.1
	c1.1-0.2,2.2-0.5,3.2-1.1c1.6-0.9,2.8-2.2,3.5-3.9c0.5-1.1,0.7-2.3,0.6-3.5C18.8,13.3,18.7,12.6,18.4,12z M4.6,8.4
	c-0.8,0.6-1.5,1.3-2,2.1c-0.1,0.1-0.1,0.1-0.2,0c-0.4-0.3-0.6-0.7-0.6-1c0-0.9,0.4-1.5,1.1-1.7c0.6-0.2,1.3,0,1.7,0.5
	C4.7,8.3,4.7,8.4,4.6,8.4z M13.1,19.1c-0.5,0.6-1.2,0.8-2,0.7c-0.3,0-0.6-0.1-0.9-0.3c-0.1,0-0.1,0-0.2,0c-1,0.6-2.2,0.4-2.9-0.4
	c-0.3-0.4-0.2-0.9,0.3-1c0.2,0,0.4,0,0.6,0.2c0.4,0.4,0.9,0.5,1.4,0.2c0.1,0,0.1-0.1,0.1-0.2c0-0.2,0-0.4,0-0.6c0-0.2,0-0.4,0-0.5
	c0-0.1,0-0.1-0.1-0.2c-0.5-0.2-0.8-0.4-1.1-0.9c-0.2-0.3-0.1-0.6,0.3-0.7c0.7-0.2,1.4-0.2,2.1-0.2c0.3,0,0.7,0.1,1,0.2
	c0.3,0.1,0.4,0.3,0.3,0.6c-0.2,0.5-0.6,0.8-1.1,0.9c-0.1,0-0.1,0.1-0.1,0.2c0,0.4,0,0.7,0,1.1c0,0.1,0,0.1,0.1,0.2
	c0.5,0.3,1,0.2,1.4-0.2c0.3-0.3,0.6-0.3,0.9,0C13.3,18.5,13.3,18.9,13.1,19.1z M17.8,10.6c-0.1,0.1-0.1,0.1-0.1,0
	c-0.5-0.8-1.2-1.5-2-2.1c-0.1-0.1-0.1-0.1,0-0.2c0.5-0.5,1-0.6,1.6-0.5c0.6,0.2,1,0.6,1.1,1.3c0,0.1,0,0.2,0,0.3
	C18.3,9.8,18.1,10.2,17.8,10.6z"/>
<g>
	<path class="st1" d="M21,6.4L21,6.4c-0.4,0-0.7-0.3-0.7-0.7V2.1c0-0.4,0.3-0.7,0.7-0.7l0,0c0.4,0,0.7,0.3,0.7,0.7v3.7
		C21.7,6.2,21.4,6.4,21,6.4z"/>
	<path class="st1" d="M18.5,3.9L18.5,3.9c0-0.4,0.3-0.7,0.7-0.7h3.7c0.4,0,0.7,0.3,0.7,0.7v0c0,0.4-0.3,0.7-0.7,0.7h-3.7
		C18.8,4.6,18.5,4.3,18.5,3.9z"/>
</g>
</svg>
