<?xml version="1.0" encoding="utf-8"?>
<!-- Generator: Adobe Illustrator 23.0.5, SVG Export Plug-In . SVG Version: 6.00 Build 0)  -->
<svg version="1.1" id="Layer_1" xmlns="http://www.w3.org/2000/svg" xmlns:xlink="http://www.w3.org/1999/xlink" x="0px" y="0px"
	 viewBox="0 0 40 40" style="enable-background:new 0 0 40 40;" xml:space="preserve">
<style type="text/css">
	.st0{fill:#FFFFFF;}
	.st1{fill:#EB5757;}
</style>
<g>
	<g>
		<path class="st0" d="M25.2,29.2l-1.5,1.5c-0.4,0.4-1,0.4-1.4,0l-0.7-0.6L21.4,30l-2.8,2.8c-0.2,0.2-0.4,0.3-0.6,0.3h-5.4
			c-0.1,0-0.3,0-0.4-0.1c0,0-0.1-0.1-0.1-0.1l-0.9-0.9l-3.6,3.6c-0.4,0.4-1.2,0.4-1.6,0l-1.5-1.5c-0.4-0.4-0.4-1.2,0-1.6l3.6-3.6
			L7.1,28C7,28,7,27.9,7,27.9c-0.1-0.1-0.1-0.3-0.1-0.4v-5.4c0-0.2,0.1-0.4,0.3-0.6l2.8-2.8l-0.2-0.2l-0.6-0.7c-0.4-0.4-0.4-1,0-1.4
			l1.5-1.5c0.4-0.4,1-0.4,1.4,0l13,13C25.6,28.2,25.6,28.8,25.2,29.2z"/>
		<path class="st0" d="M29.2,25.2l1.5-1.5c0.4-0.4,0.4-1,0-1.4l-0.6-0.7L30,21.4l2.8-2.8c0.2-0.2,0.3-0.4,0.3-0.6v-5.4
			c0-0.1,0-0.3-0.1-0.4c0,0-0.1-0.1-0.1-0.1l-0.9-0.9l3.6-3.6c0.4-0.4,0.4-1.2,0-1.6l-1.5-1.5c-0.4-0.4-1.2-0.4-1.6,0l-3.6,3.6
			L28,7.1C28,7,27.9,7,27.9,7c-0.1-0.1-0.3-0.1-0.4-0.1h-5.4c-0.2,0-0.4,0.1-0.6,0.3L18.6,10l-0.2-0.2l-0.7-0.6
			c-0.4-0.4-1-0.4-1.4,0l-1.5,1.5c-0.4,0.4-0.4,1,0,1.4l13,13C28.2,25.6,28.8,25.6,29.2,25.2z"/>
	</g>
	<circle class="st1" cx="32.6" cy="33" r="3"/>
</g>
</svg>
