<?xml version="1.0" encoding="utf-8"?>
<!-- Generator: Adobe Illustrator 19.0.0, SVG Export Plug-In . SVG Version: 6.00 Build 0)  -->
<svg version="1.1" id="Layer_1" xmlns="http://www.w3.org/2000/svg" xmlns:xlink="http://www.w3.org/1999/xlink" x="0px" y="0px"
	 viewBox="0 0 24 24" style="enable-background:new 0 0 24 24;" xml:space="preserve">
<style type="text/css">
	.st0{fill:#D8D8D8;}
</style>
<path id="XMLID_333_" class="st0" d="M22.4,11.5h-8.8c-0.4,0-0.7-0.3-0.7-0.7c0-0.2,0.1-0.4,0.2-0.5l2-2.5c-1.4-1.4-3.4-2-5.4-1.8
	C7.6,6.2,5.8,7.6,5,9.6c-0.8,2.1-0.5,4.5,0.8,6.4c1.3,2,3.4,3.2,5.8,3.4c0.8,0,1.5,0.7,1.5,1.6c0,0.8-0.7,1.5-1.6,1.5
	C8.1,22.3,5,20.7,3,18c-2.1-2.8-2.7-6.4-1.6-9.6C2,6.7,3,5.2,4.3,4.1c1.4-1.1,3-1.9,4.7-2.2c3.2-0.5,6.4,0.3,8.9,2.4l1.9-2.4
	c0.3-0.3,0.7-0.3,1-0.1C21,1.9,21,2,21.1,2.1l2,8.5c0.1,0.4-0.1,0.7-0.5,0.8C22.5,11.5,22.5,11.5,22.4,11.5z"/>
</svg>
