<?xml version="1.0" encoding="utf-8"?>
<!-- Generator: Adobe Illustrator 19.0.0, SVG Export Plug-In . SVG Version: 6.00 Build 0)  -->
<svg version="1.1" id="Layer_1" xmlns="http://www.w3.org/2000/svg" xmlns:xlink="http://www.w3.org/1999/xlink" x="0px" y="0px"
	 viewBox="0 0 40 40" style="enable-background:new 0 0 40 40;" xml:space="preserve">
<style type="text/css">
	.st0{fill:#FFF200;}
	.st1{fill:#231F20;}
</style>
<path id="XMLID_38_" class="st0" d="M20,8.6C13.7,8.6,8.6,13.7,8.6,20S13.7,31.4,20,31.4S31.4,26.3,31.4,20S26.3,8.6,20,8.6z
	 M29.2,23.8C29.2,23.7,29.2,23.7,29.2,23.8l-2.6-2.4c-0.8-0.7-0.8-1.9,0-2.6l2.6-2.3c0,0,0.1-0.1,0.1-0.1c0.4,1.1,0.7,2.4,0.7,3.6
	C29.9,21.3,29.7,22.6,29.2,23.8z M27.9,13.9c0,0-0.1,0-0.1,0L24.4,15c-1,0.3-2-0.3-2.2-1.3l-0.7-3.4c0-0.1,0-0.1-0.1-0.2
	C24,10.5,26.3,11.9,27.9,13.9z M18.6,10.2c0,0,0,0.1,0,0.1l-0.7,3.4c-0.2,1-1.3,1.6-2.2,1.3l-3.3-1.1c-0.1,0-0.1,0-0.2,0
	C13.7,11.9,16,10.5,18.6,10.2z M10.7,16.4C10.8,16.4,10.8,16.4,10.7,16.4l2.7,2.4c0.8,0.7,0.8,1.9,0,2.6l-2.6,2.3c0,0,0,0-0.1,0.1
	c-0.5-1.2-0.7-2.4-0.7-3.7C10.1,18.7,10.3,17.5,10.7,16.4z M12.2,26.2C12.2,26.2,12.2,26.2,12.2,26.2l3.3-1.1c1-0.3,2,0.3,2.2,1.3
	l0.7,3.4c0,0,0,0,0,0.1C16,29.5,13.8,28.1,12.2,26.2z M21.4,29.8C21.4,29.8,21.4,29.8,21.4,29.8l0.7-3.4c0.2-1,1.3-1.6,2.2-1.3
	l3.3,1.1c0,0,0.1,0,0.1,0C26.2,28.1,24,29.5,21.4,29.8z M17.8,21.3L17.8,21.3c-0.5-0.8-0.5-1.8,0-2.6l0,0c0.5-0.8,1.3-1.3,2.2-1.3h0
	c0.9,0,1.8,0.5,2.2,1.3l0,0c0.5,0.8,0.5,1.8,0,2.6l0,0c-0.5,0.8-1.3,1.3-2.2,1.3h0C19.1,22.6,18.2,22.1,17.8,21.3z"/>
<path id="XMLID_35_" class="st1" d="M35.6,22.1l-1.1,0.4c-0.2,0.1-0.4,0.3-0.4,0.5c-0.1,0.5-0.2,1-0.4,1.5c-0.1,0.2,0,0.5,0.1,0.6
	l0.7,0.8c0.2,0.2,0.2,0.5,0.1,0.8l-1.5,2.5c-0.1,0.2-0.4,0.4-0.7,0.3l-1.1-0.2c-0.2,0-0.5,0-0.6,0.2c-0.4,0.4-0.7,0.8-1.1,1.1
	c-0.2,0.2-0.3,0.4-0.2,0.6l0.2,1.1c0.1,0.3-0.1,0.6-0.3,0.7l-2.5,1.5c-0.2,0.1-0.6,0.1-0.8-0.1l-0.8-0.7c-0.2-0.2-0.4-0.2-0.6-0.1
	c-0.5,0.2-1,0.3-1.5,0.4c-0.2,0-0.4,0.2-0.5,0.4l-0.4,1.1C22,35.8,21.7,36,21.5,36h-2.9c-0.3,0-0.5-0.2-0.6-0.4l-0.4-1.1
	c-0.1-0.2-0.3-0.4-0.5-0.4c-0.5-0.1-1-0.2-1.5-0.4c-0.2-0.1-0.5,0-0.6,0.1L14,34.5c-0.2,0.2-0.5,0.2-0.8,0.1l-2.5-1.5
	c-0.2-0.1-0.4-0.4-0.3-0.7l0.2-1.1c0-0.2,0-0.5-0.2-0.6C10,30.3,9.7,30,9.3,29.6c-0.2-0.2-0.4-0.3-0.6-0.2l-1.1,0.2
	c-0.3,0.1-0.6-0.1-0.7-0.3l-1.5-2.5c-0.1-0.2-0.1-0.6,0.1-0.8l0.7-0.8c0.2-0.2,0.2-0.4,0.1-0.6c-0.2-0.5-0.3-1-0.4-1.5
	c0-0.2-0.2-0.4-0.4-0.5l-1.1-0.4C4.2,22,4,21.7,4,21.5v-2.9c0-0.3,0.2-0.5,0.4-0.6l1.1-0.4c0.2-0.1,0.4-0.3,0.4-0.5
	c0.1-0.5,0.2-1,0.4-1.5c0.1-0.2,0-0.5-0.1-0.6L5.5,14c-0.2-0.2-0.2-0.5-0.1-0.8l1.5-2.5c0.1-0.2,0.4-0.4,0.7-0.3l1.1,0.2
	c0.2,0,0.5,0,0.6-0.2C9.7,10,10,9.7,10.4,9.3c0.2-0.2,0.3-0.4,0.2-0.6l-0.2-1.1c-0.1-0.3,0.1-0.6,0.3-0.7l2.5-1.5
	c0.2-0.1,0.6-0.1,0.8,0.1l0.8,0.7c0.2,0.2,0.4,0.2,0.6,0.1c0.5-0.2,1-0.3,1.5-0.4c0.2,0,0.4-0.2,0.5-0.4l0.4-1.1
	C18,4.2,18.3,4,18.5,4h2.9c0.3,0,0.5,0.2,0.6,0.4l0.4,1.1c0.1,0.2,0.3,0.4,0.5,0.4c0.5,0.1,1,0.2,1.5,0.4c0.2,0.1,0.5,0,0.6-0.1
	L26,5.5c0.2-0.2,0.5-0.2,0.8-0.1l2.5,1.5c0.2,0.1,0.4,0.4,0.3,0.7l-0.2,1.1c0,0.2,0,0.5,0.2,0.6c0.4,0.4,0.8,0.7,1.1,1.1
	c0.2,0.2,0.4,0.3,0.6,0.2l1.1-0.2c0.3-0.1,0.6,0.1,0.7,0.3l1.5,2.5c0.1,0.2,0.1,0.6-0.1,0.8l-0.7,0.8c-0.2,0.2-0.2,0.4-0.1,0.6
	c0.2,0.5,0.3,1,0.4,1.5c0,0.2,0.2,0.4,0.4,0.5l1.1,0.4c0.3,0.1,0.4,0.3,0.4,0.6v2.9C36,21.7,35.8,22,35.6,22.1z M20.1,9.3
	C14.2,9.3,9.4,14,9.4,19.9s4.8,10.7,10.7,10.7s10.7-4.8,10.7-10.7S26,9.3,20.1,9.3z"/>
</svg>
