<svg id="Layer_1" data-name="Layer 1" xmlns="http://www.w3.org/2000/svg" viewBox="0 0 40 40"><defs><style>.cls-1{fill:#fef270;}.cls-2{fill:#fbb040;}.cls-3{fill:#040504;}.cls-4{fill:#fff;}.cls-5,.cls-7{fill:none;stroke:#1a1517;stroke-miterlimit:10;}.cls-5{stroke-width:0.5px;}.cls-6{fill:#1a1517;}.cls-7{stroke-width:0.29px;}.cls-8{fill:#e86aa8;}</style></defs><title>Object Detection</title><path class="cls-1" d="M6.73,16.78a8.78,8.78,0,0,0-3,2.95A9.35,9.35,0,0,0,2.5,25.07c0.36,4.26,3.89,6.86,4.86,7.57,3.8,2.8,7.94,2.67,12.78,2.53C26,35,31.28,34.84,34.42,30.86a11.19,11.19,0,0,0,2.19-7.51,11.78,11.78,0,0,0-4.69-8.29c0.88-4.93.62-8.72-.9-9.3-1.16-.45-3,1-3.88,1.71a10.07,10.07,0,0,0-2.73,3.37,15.27,15.27,0,0,0-10.64.94A10,10,0,0,0,10.82,8.4C9.88,7.73,8.33,6.62,7.25,7.16c-0.91.45-1,1.83-1.17,3.42A17.33,17.33,0,0,0,6.73,16.78Z"/><ellipse class="cls-2" cx="11.88" cy="23.26" rx="2.95" ry="3.35"/><ellipse class="cls-2" cx="27.28" cy="22.6" rx="2.95" ry="3.35"/><ellipse class="cls-3" cx="12.44" cy="23.22" rx="2.38" ry="2.9"/><ellipse class="cls-4" cx="11.27" cy="22.6" rx="0.58" ry="0.73"/><ellipse class="cls-3" cx="26.64" cy="22.56" rx="2.38" ry="2.9"/><ellipse class="cls-4" cx="25.46" cy="21.95" rx="0.58" ry="0.73"/><line class="cls-5" x1="31.94" y1="25.66" x2="34.74" y2="24.29"/><line class="cls-5" x1="32.07" y1="26.9" x2="34.68" y2="26.9"/><line class="cls-5" x1="32.14" y1="28.33" x2="34.29" y2="28.98"/><line class="cls-5" x1="8.1" y1="26.68" x2="5.3" y2="25.32"/><line class="cls-5" x1="7.97" y1="27.92" x2="5.37" y2="27.92"/><line class="cls-5" x1="7.91" y1="29.35" x2="5.76" y2="30"/><path class="cls-6" d="M19.32,27.49l2,0a0.29,0.29,0,0,1,.2.49l-1,1a0.29,0.29,0,0,1-.41,0l-1-1A0.29,0.29,0,0,1,19.32,27.49Z"/><line class="cls-7" x1="20.29" y1="30.42" x2="20.29" y2="28.44"/><path class="cls-2" d="M8.42,16c0.37,0.08.52-.64,1.55-1.37,1.24-.88,2.06-0.57,2.32-1.16,0.33-.75-0.73-1.88-1.93-3.16-1-1.08-1.56-1.66-2-1.51-0.65.22-.63,1.84-0.6,3.69C7.78,13.78,7.81,15.84,8.42,16Z"/><path class="cls-2" d="M30.36,14.26c-0.37.08-.52-0.64-1.55-1.37-1.24-.88-2.06-0.57-2.32-1.16-0.33-.75.73-1.88,1.93-3.16,1-1.08,1.56-1.66,2-1.51,0.65,0.22.63,1.84,0.6,3.69C31,12.07,31,14.13,30.36,14.26Z"/><path class="cls-2" d="M20.35,10.29l-1,4.77-1.11-4.63c0.3,0,.62-0.08,1-0.1S20,10.29,20.35,10.29Z"/><path class="cls-2" d="M23.66,10.65L20.72,17l1.1-6.63,0.79,0.09C23,10.51,23.33,10.57,23.66,10.65Z"/><path class="cls-2" d="M16.74,10.71l1.16,7-3-6.4c0.28-.11.59-0.21,0.91-0.31Z"/><path class="cls-8" d="M19.2,31.66a1.6,1.6,0,0,0,.25,1,1.22,1.22,0,0,0,.81.59,1.2,1.2,0,0,0,1-.39,1.42,1.42,0,0,0,.28-1.26,2,2,0,0,1-1.23-1.18"/><path class="cls-7" d="M16.61,30.54a2,2,0,0,0,2.17,1.2,2,2,0,0,0,1.53-1.38,2,2,0,0,0,.66,1,2.08,2.08,0,0,0,1.64.35,2.42,2.42,0,0,0,1.41-.8"/></svg>