<svg id="Layer_33" data-name="Layer 33" xmlns="http://www.w3.org/2000/svg" viewBox="0 0 40 40"><defs><style>.cls-1{opacity:0.09;}.cls-2{fill:none;stroke:#fff;stroke-linecap:round;stroke-miterlimit:10;stroke-width:1.5px;}.cls-3{fill:#f6c792;}.cls-4{fill:#ddb384;}.cls-5{fill:#262261;}.cls-6{fill:#fcc690;}.cls-7{fill:#f6c899;}.cls-8{fill:#1a1a1a;}.cls-9{fill:#fff;}.cls-10{fill:#9bb1c1;}</style></defs><title>Icon_Face Detection</title><polyline class="cls-2" points="26.08 5.62 32.81 5.62 32.81 12.86"/><polyline class="cls-2" points="25.99 28.95 32.72 28.95 32.72 21.7"/><polyline class="cls-2" points="13.46 5.16 6.73 5.16 6.73 12.4"/><polyline class="cls-2" points="13.55 28.49 6.82 28.49 6.82 21.25"/><path class="cls-3" d="M15.9,26.81v1.5l-1.25,3.62s1.87,3.57,5.49,2.67,4.65-3.26,4.65-3.26l-1.4-3.47L23,27.17Z"/><path class="cls-4" d="M15.9,27.29v1s2.84,2.9,6.3,2.93,2.06,0,2.06,0l0.45-.11-1.09-2.79L23.57,27Z"/><path class="cls-5" d="M7.88,32.35H31.65A3.65,3.65,0,0,1,35.3,36v2.16a0,0,0,0,1,0,0H4.23a0,0,0,0,1,0,0V36A3.65,3.65,0,0,1,7.88,32.35Z"/><path class="cls-6" d="M27,21.58s0.07,1.11.82,0.27,2.83-4.59.23-4.94l-1.49,1Z"/><path class="cls-6" d="M12.49,21.58s-0.07,1.11-.82.27-2.83-4.59-.23-4.94l1.49,1Z"/><path class="cls-7" d="M12,17.26l0.45,4.64S15,29.45,19.8,29.74s7.24-8,7.24-8l0.41-3.6V11.84L25.18,10.2H20.39l-5.61.26-2,.37L11.66,12Z"/><path class="cls-8" d="M12.09,19.76a17.58,17.58,0,0,1-.81-4.9c0-2.37-1.7-9,3.9-9.42,0,0,.92-1.67,4.88-1.34s3.68-2,3.68-2,7.33,2.17,4.43,12.51a11.66,11.66,0,0,1-.75,5.21s-0.95.33-.33-5.27c0,0,.95-4.76-3.43-3.87a18.2,18.2,0,0,1-7.77-.06s-5.15-1.14-3.68,4.85C12.2,15.52,12.87,18.36,12.09,19.76Z"/><path class="cls-9" d="M15.18,27.63l4.51,4.72a12.77,12.77,0,0,0-2.16,2s-2.22-.51-3.44-3.58Z"/><path class="cls-9" d="M24.18,27.63l-4.49,4.72a12.77,12.77,0,0,1,2.16,2s2.22-.51,3.44-3.58Z"/><path class="cls-10" d="M14.15,30.81s1.34,4.14,5.57,3.86a6.45,6.45,0,0,0,5.58-3.88,3.68,3.68,0,0,0,1.63.65,8.13,8.13,0,0,1-7.26,5s-4.72.41-7.19-4.92Z"/><polygon class="cls-5" points="12.48 31.48 12.94 32.36 7.2 32.43 12.48 31.48"/><polygon class="cls-5" points="26.93 31.44 26.43 32.43 31.95 32.37 26.93 31.44"/></svg>