<?xml version="1.0" encoding="utf-8"?>
<!-- Generator: Adobe Illustrator 24.0.1, SVG Export Plug-In . SVG Version: 6.00 Build 0)  -->
<svg version="1.1" id="Layer_1" xmlns="http://www.w3.org/2000/svg" xmlns:xlink="http://www.w3.org/1999/xlink" x="0px" y="0px"
	 viewBox="0 0 40 40" style="enable-background:new 0 0 40 40;" xml:space="preserve">
<style type="text/css">
	.st0{fill:#F9E315;}
	.st1{fill:#F1F2F2;}
	.st2{fill:#FFFFFF;}
	.st3{display:none;}
	.st4{display:inline;}
	.st5{fill:#D7EFFA;}
	.st6{fill:#F26E91;}
	.st7{fill:#A29AA5;}
	.st8{display:inline;fill:#EF936F;}
</style>
<g id="icon_1_">
	<circle class="st0" cx="29" cy="15" r="6"/>
	<g>
		<circle class="st1" cx="9.7" cy="23.9" r="6.2"/>
		<circle class="st1" cx="18.3" cy="16.5" r="8.7"/>
		<path class="st1" d="M30.7,30.1H9.7c-3.4,0-6.2-2.8-6.2-6.2v0c0-3.4,2.8-6.2,6.2-6.2h21.1c3.4,0,6.2,2.8,6.2,6.2v0
			C37,27.3,34.2,30.1,30.7,30.1z"/>
	</g>
	<g>
		<circle class="st2" cx="8.4" cy="25.2" r="6.2"/>
		<circle class="st2" cx="17.1" cy="17.7" r="8.7"/>
		<path class="st2" d="M29.5,31.4H8.4c-3.4,0-6.2-2.8-6.2-6.2v0C2.2,21.7,5,19,8.4,19h21.1c3.4,0,6.2,2.8,6.2,6.2v0
			C35.7,28.6,32.9,31.4,29.5,31.4z"/>
	</g>
	
		<image style="display:none;overflow:visible;" width="512" height="512" xlink:href="E:\png\thermometer.png"  transform="matrix(3.144989e-02 0 0 3.144989e-02 22.2117 11.3941)">
	</image>
	<g class="st3">
		<g class="st4">
			<circle class="st5" cx="29.7" cy="22.7" r="3.7"/>
			<path class="st5" d="M30.2,21.7h-0.9c-0.8,0-1.5-0.7-1.5-1.5V9.3c0-0.8,0.7-1.5,1.5-1.5h0.9c0.8,0,1.5,0.7,1.5,1.5v10.9
				C31.7,21,31,21.7,30.2,21.7z"/>
		</g>
		<g class="st4">
			<circle class="st6" cx="29.7" cy="22.7" r="2.9"/>
			<path class="st6" d="M30,22h-0.6c-0.5,0-0.9-0.4-0.9-0.9V9.6c0-0.5,0.4-0.9,0.9-0.9H30c0.5,0,0.9,0.4,0.9,0.9v11.5
				C30.9,21.6,30.5,22,30,22z"/>
			<path class="st7" d="M30.5,11.9h-1.6c-0.2,0-0.4-0.2-0.4-0.4V9.6c0-0.5,0.4-0.9,0.9-0.9H30c0.5,0,0.9,0.4,0.9,0.9v1.9
				C30.9,11.7,30.7,11.9,30.5,11.9z"/>
		</g>
	</g>
	<g class="st3">
		<path class="st8" d="M30.7,13.4h-0.4c-0.1,0-0.2-0.1-0.2-0.2l0,0c0-0.1,0.1-0.2,0.2-0.2h0.4c0.1,0,0.2,0.1,0.2,0.2l0,0
			C30.9,13.3,30.8,13.4,30.7,13.4z"/>
		<path class="st8" d="M30.7,14.4h-0.4c-0.1,0-0.2-0.1-0.2-0.2l0,0c0-0.1,0.1-0.2,0.2-0.2h0.4c0.1,0,0.2,0.1,0.2,0.2l0,0
			C30.9,14.3,30.8,14.4,30.7,14.4z"/>
		<path class="st8" d="M30.7,15.4h-0.4c-0.1,0-0.2-0.1-0.2-0.2l0,0c0-0.1,0.1-0.2,0.2-0.2h0.4c0.1,0,0.2,0.1,0.2,0.2l0,0
			C30.9,15.3,30.8,15.4,30.7,15.4z"/>
	</g>
	<g class="st3">
		<path class="st8" d="M30.7,16.4h-0.4c-0.1,0-0.2-0.1-0.2-0.2l0,0c0-0.1,0.1-0.2,0.2-0.2h0.4c0.1,0,0.2,0.1,0.2,0.2l0,0
			C30.9,16.3,30.8,16.4,30.7,16.4z"/>
		<path class="st8" d="M30.7,17.4h-0.4c-0.1,0-0.2-0.1-0.2-0.2l0,0c0-0.1,0.1-0.2,0.2-0.2h0.4c0.1,0,0.2,0.1,0.2,0.2l0,0
			C30.9,17.3,30.8,17.4,30.7,17.4z"/>
		<path class="st8" d="M30.7,18.4h-0.4c-0.1,0-0.2-0.1-0.2-0.2l0,0c0-0.1,0.1-0.2,0.2-0.2h0.4c0.1,0,0.2,0.1,0.2,0.2l0,0
			C30.9,18.3,30.8,18.4,30.7,18.4z"/>
	</g>
</g>
<g>
	<path class="st0" d="M25.6,8.2L25.6,8.2c-0.3,0.1-0.7,0-0.8-0.3l-0.6-1.2c-0.1-0.3,0-0.7,0.3-0.8l0,0c0.3-0.1,0.7,0,0.8,0.3
		l0.6,1.2C26.1,7.7,25.9,8,25.6,8.2z"/>
	<path class="st0" d="M30.1,7.8l-0.1,0c-0.3,0-0.6-0.3-0.5-0.7l0.1-1.4c0-0.3,0.3-0.6,0.7-0.5l0.1,0c0.3,0,0.6,0.3,0.5,0.7l-0.1,1.4
		C30.8,7.6,30.5,7.8,30.1,7.8z"/>
	<path class="st0" d="M34.3,9.4L34.3,9.4c-0.2-0.2-0.3-0.6,0-0.9l0.9-1c0.2-0.2,0.6-0.3,0.9,0v0c0.2,0.2,0.3,0.6,0,0.9l-0.9,1
		C34.9,9.6,34.5,9.6,34.3,9.4z"/>
	<path class="st0" d="M36.3,13L36.3,13c0-0.3,0.2-0.6,0.5-0.6l1.4-0.1c0.3,0,0.6,0.2,0.6,0.5l0,0c0,0.3-0.2,0.6-0.5,0.6l-1.4,0.1
		C36.6,13.6,36.3,13.3,36.3,13z"/>
	<path class="st0" d="M35.9,17L35.9,17c0.1-0.3,0.5-0.5,0.8-0.4l1.3,0.5c0.3,0.1,0.4,0.4,0.3,0.7l0,0c-0.1,0.3-0.4,0.4-0.7,0.3
		l-1.3-0.5C35.9,17.6,35.8,17.3,35.9,17z"/>
</g>
</svg>
