<?xml version="1.0" encoding="UTF-8"?>
<svg xmlns="http://www.w3.org/2000/svg" xmlns:xlink="http://www.w3.org/1999/xlink" width="32pt" height="32pt" viewBox="0 0 32 32" version="1.1">
<defs>
<clipPath id="clip1">
  <path d="M 11 21 L 21 21 L 21 23 L 11 23 Z M 11 21 "/>
</clipPath>
<clipPath id="clip2">
  <path d="M 14.160156 24.238281 C 15.199219 24.480469 17.441406 24.800781 18.800781 23.679688 C 19.441406 23.039062 20 22.238281 20.398438 21.441406 C 19.039062 21.761719 17.601562 21.921875 16.160156 21.839844 C 14.640625 21.921875 13.121094 21.761719 11.679688 21.359375 C 11.679688 21.359375 12.640625 23.921875 14.160156 24.238281 Z M 14.160156 24.238281 "/>
</clipPath>
<clipPath id="clip3">
  <path d="M 13 23 L 19 23 L 19 25 L 13 25 Z M 13 23 "/>
</clipPath>
<clipPath id="clip4">
  <path d="M 14.160156 24.238281 C 15.199219 24.480469 17.441406 24.800781 18.800781 23.679688 C 19.441406 23.039062 20 22.238281 20.398438 21.441406 C 19.039062 21.761719 17.601562 21.921875 16.160156 21.839844 C 14.640625 21.921875 13.121094 21.761719 11.679688 21.359375 C 11.679688 21.359375 12.640625 23.921875 14.160156 24.238281 Z M 14.160156 24.238281 "/>
</clipPath>
</defs>
<g id="surface1">
<path style=" stroke:none;fill-rule:nonzero;fill:rgb(100%,100%,100%);fill-opacity:1;" d="M 7.679688 31.761719 C 5.921875 31.761719 4.398438 30.320312 4.398438 28.480469 L 4.398438 21.761719 L 4.878906 21.761719 L 4.878906 20.640625 C 4.320312 20.398438 3.921875 19.839844 3.921875 19.28125 L 3.921875 12.398438 C 3.921875 11.761719 4.320312 11.199219 4.878906 10.960938 L 4.878906 8.71875 C 4.878906 6.878906 6.320312 5.359375 8.160156 5.199219 L 7.601562 3.601562 C 7.039062 3.28125 6.640625 2.640625 6.71875 2 C 6.71875 1.039062 7.519531 0.160156 8.558594 0.160156 C 9.601562 0.160156 10.398438 0.960938 10.398438 2 L 13.601562 5.039062 L 18.558594 5.039062 L 21.761719 1.921875 C 21.839844 0.960938 22.640625 0.160156 23.601562 0.238281 C 24.558594 0.320312 25.359375 1.121094 25.28125 2.078125 C 25.28125 2.640625 24.960938 3.199219 24.480469 3.519531 L 23.921875 5.039062 C 25.761719 5.199219 27.121094 6.71875 27.121094 8.558594 L 27.121094 10.800781 C 27.679688 11.039062 28.078125 11.601562 28.078125 12.238281 L 28.078125 19.199219 C 28.078125 19.839844 27.679688 20.398438 27.121094 20.640625 L 27.121094 21.761719 L 27.601562 21.761719 L 27.601562 28.558594 C 27.601562 30.320312 26.160156 31.761719 24.320312 31.761719 Z M 7.679688 31.761719 "/>
<path style="fill-rule:nonzero;fill:rgb(58.431373%,32.54902%,62.745098%);fill-opacity:1;stroke-width:0.2779;stroke-linecap:butt;stroke-linejoin:miter;stroke:rgb(36.862745%,36.862745%,36.862745%);stroke-opacity:1;stroke-miterlimit:10;" d="M 32.402344 14.599609 L 33.198242 14.599609 C 33.598633 14.599609 33.999023 15 33.999023 15.400391 L 33.999023 23.999023 C 33.999023 24.399414 33.598633 24.799805 33.198242 24.799805 L 32.402344 24.799805 C 32.001953 24.799805 31.601562 24.399414 31.601562 23.999023 L 31.601562 15.400391 C 31.601562 14.902344 31.899414 14.599609 32.402344 14.599609 Z M 32.402344 14.599609 " transform="matrix(0.8,0,0,0.8,0,0)"/>
<path style="fill-rule:nonzero;fill:rgb(58.431373%,32.54902%,62.745098%);fill-opacity:1;stroke-width:0.2779;stroke-linecap:butt;stroke-linejoin:miter;stroke:rgb(36.862745%,36.862745%,36.862745%);stroke-opacity:1;stroke-miterlimit:10;" d="M 6.899414 14.599609 L 7.700195 14.599609 C 8.100586 14.599609 8.500977 15 8.500977 15.400391 L 8.500977 23.999023 C 8.500977 24.399414 8.100586 24.799805 7.700195 24.799805 L 6.899414 24.799805 C 6.499023 24.799805 6.098633 24.399414 6.098633 23.999023 L 6.098633 15.400391 C 6.098633 14.902344 6.401367 14.599609 6.899414 14.599609 Z M 6.899414 14.599609 " transform="matrix(0.8,0,0,0.8,0,0)"/>
<path style="fill-rule:nonzero;fill:rgb(58.431373%,32.54902%,62.745098%);fill-opacity:1;stroke-width:0.2779;stroke-linecap:butt;stroke-linejoin:miter;stroke:rgb(36.862745%,36.862745%,36.862745%);stroke-opacity:1;stroke-miterlimit:10;" d="M 27.900391 8.500977 L 30 2.900391 L 28.300781 2.900391 L 22.5 8.500977 L 27.099609 8.398438 " transform="matrix(0.8,0,0,0.8,0,0)"/>
<path style="fill-rule:nonzero;fill:rgb(90.980392%,90.588235%,90.588235%);fill-opacity:1;stroke-width:0.2779;stroke-linecap:butt;stroke-linejoin:miter;stroke:rgb(36.862745%,36.862745%,36.862745%);stroke-opacity:1;stroke-miterlimit:10;" d="M 30.498047 2.5 C 30.498047 3.105469 30.009766 3.598633 29.399414 3.598633 C 28.793945 3.598633 28.300781 3.105469 28.300781 2.5 C 28.300781 1.894531 28.793945 1.401367 29.399414 1.401367 C 30.009766 1.401367 30.498047 1.894531 30.498047 2.5 Z M 30.498047 2.5 " transform="matrix(0.8,0,0,0.8,0,0)"/>
<path style="fill-rule:nonzero;fill:rgb(58.431373%,32.54902%,62.745098%);fill-opacity:1;stroke-width:0.2779;stroke-linecap:butt;stroke-linejoin:miter;stroke:rgb(36.862745%,36.862745%,36.862745%);stroke-opacity:1;stroke-miterlimit:10;" d="M 12.202148 8.500977 L 10.097656 2.900391 L 11.699219 2.900391 L 17.5 8.500977 L 12.998047 8.398438 " transform="matrix(0.8,0,0,0.8,0,0)"/>
<path style="fill-rule:nonzero;fill:rgb(90.980392%,90.588235%,90.588235%);fill-opacity:1;stroke-width:0.2779;stroke-linecap:butt;stroke-linejoin:miter;stroke:rgb(36.862745%,36.862745%,36.862745%);stroke-opacity:1;stroke-miterlimit:10;" d="M 11.801758 2.5 C 11.801758 3.105469 11.308594 3.598633 10.698242 3.598633 C 10.092773 3.598633 9.599609 3.105469 9.599609 2.5 C 9.599609 1.894531 10.092773 1.401367 10.698242 1.401367 C 11.308594 1.401367 11.801758 1.894531 11.801758 2.5 Z M 11.801758 2.5 " transform="matrix(0.8,0,0,0.8,0,0)"/>
<path style="fill-rule:nonzero;fill:rgb(90.980392%,90.588235%,90.588235%);fill-opacity:1;stroke-width:0.2779;stroke-linecap:butt;stroke-linejoin:miter;stroke:rgb(36.862745%,36.862745%,36.862745%);stroke-opacity:1;stroke-miterlimit:10;" d="M 10.498047 7.5 L 29.399414 7.5 C 31.201172 7.5 32.700195 8.999023 32.700195 10.800781 L 32.700195 35.400391 C 32.700195 37.202148 31.201172 38.701172 29.399414 38.701172 L 10.498047 38.701172 C 8.701172 38.701172 7.202148 37.202148 7.202148 35.400391 L 7.202148 10.698242 C 7.299805 8.901367 8.701172 7.5 10.498047 7.5 Z M 10.498047 7.5 " transform="matrix(0.8,0,0,0.8,0,0)"/>
<path style=" stroke:none;fill-rule:nonzero;fill:rgb(100%,100%,100%);fill-opacity:1;" d="M 17.199219 17.761719 C 17.199219 17.761719 17.679688 13.761719 19.921875 13.519531 C 22.238281 13.28125 22.558594 17.28125 22.398438 17.761719 C 21.601562 17.359375 20.71875 17.121094 19.839844 17.121094 C 18.960938 17.039062 18 17.28125 17.199219 17.761719 Z M 17.199219 17.761719 "/>
<path style=" stroke:none;fill-rule:nonzero;fill:rgb(100%,100%,100%);fill-opacity:1;" d="M 14.800781 17.761719 C 14.800781 17.761719 14.320312 13.761719 12.078125 13.519531 C 9.761719 13.28125 9.441406 17.28125 9.601562 17.761719 C 10.398438 17.359375 11.28125 17.121094 12.160156 17.121094 C 13.039062 17.039062 13.921875 17.28125 14.800781 17.761719 Z M 14.800781 17.761719 "/>
<path style=" stroke:none;fill-rule:nonzero;fill:rgb(0%,0%,0%);fill-opacity:1;" d="M 13.199219 15.921875 C 13.199219 16.40625 12.804688 16.800781 12.320312 16.800781 C 11.835938 16.800781 11.441406 16.40625 11.441406 15.921875 C 11.441406 15.433594 11.835938 15.039062 12.320312 15.039062 C 12.804688 15.039062 13.199219 15.433594 13.199219 15.921875 Z M 13.199219 15.921875 "/>
<path style=" stroke:none;fill-rule:nonzero;fill:rgb(0%,0%,0%);fill-opacity:1;" d="M 20.800781 15.921875 C 20.800781 16.40625 20.40625 16.800781 19.921875 16.800781 C 19.433594 16.800781 19.039062 16.40625 19.039062 15.921875 C 19.039062 15.433594 19.433594 15.039062 19.921875 15.039062 C 20.40625 15.039062 20.800781 15.433594 20.800781 15.921875 Z M 20.800781 15.921875 "/>
<path style=" stroke:none;fill-rule:nonzero;fill:rgb(100%,100%,100%);fill-opacity:1;" d="M 12.238281 15.359375 C 12.238281 15.492188 12.132812 15.601562 12 15.601562 C 11.867188 15.601562 11.761719 15.492188 11.761719 15.359375 C 11.761719 15.226562 11.867188 15.121094 12 15.121094 C 12.132812 15.121094 12.238281 15.226562 12.238281 15.359375 Z M 12.238281 15.359375 "/>
<path style=" stroke:none;fill-rule:nonzero;fill:rgb(100%,100%,100%);fill-opacity:1;" d="M 19.839844 15.359375 C 19.839844 15.492188 19.734375 15.601562 19.601562 15.601562 C 19.46875 15.601562 19.359375 15.492188 19.359375 15.359375 C 19.359375 15.226562 19.46875 15.121094 19.601562 15.121094 C 19.734375 15.121094 19.839844 15.226562 19.839844 15.359375 Z M 19.839844 15.359375 "/>
<path style=" stroke:none;fill-rule:nonzero;fill:rgb(0%,0%,0%);fill-opacity:1;" d="M 14.160156 24.238281 C 15.199219 24.480469 17.441406 24.800781 18.800781 23.679688 C 19.441406 23.039062 20 22.238281 20.398438 21.441406 C 19.039062 21.761719 17.601562 21.921875 16.160156 21.839844 C 14.640625 21.921875 13.121094 21.761719 11.679688 21.359375 C 11.679688 21.359375 12.640625 23.921875 14.160156 24.238281 Z M 14.160156 24.238281 "/>
<g clip-path="url(#clip1)" clip-rule="nonzero">
<g clip-path="url(#clip2)" clip-rule="nonzero">
<path style=" stroke:none;fill-rule:nonzero;fill:rgb(100%,100%,100%);fill-opacity:1;" d="M 20.320312 20.71875 C 19.28125 21.839844 17.761719 22.480469 16.238281 22.480469 C 13.601562 22.480469 12.480469 21.601562 11.519531 20.558594 Z M 20.320312 20.71875 "/>
</g>
</g>
<g clip-path="url(#clip3)" clip-rule="nonzero">
<g clip-path="url(#clip4)" clip-rule="nonzero">
<path style=" stroke:none;fill-rule:nonzero;fill:rgb(85.490196%,12.156863%,14.901961%);fill-opacity:1;" d="M 18.480469 24.320312 C 18.398438 23.921875 17.359375 23.359375 16.238281 23.359375 C 15.121094 23.359375 13.761719 23.601562 13.679688 24.480469 C 13.679688 25.359375 16.640625 25.601562 17.441406 25.199219 C 18 24.878906 18.558594 24.800781 18.480469 24.320312 Z M 18.480469 24.320312 "/>
</g>
</g>
<path style="fill-rule:nonzero;fill:rgb(58.431373%,32.54902%,62.745098%);fill-opacity:1;stroke-width:0.2779;stroke-linecap:butt;stroke-linejoin:miter;stroke:rgb(36.862745%,36.862745%,36.862745%);stroke-opacity:1;stroke-miterlimit:10;" d="M 33.300781 28.300781 L 33.300781 35.698242 C 33.300781 37.299805 32.001953 38.598633 30.297852 38.598633 L 9.599609 38.598633 C 7.998047 38.598633 6.699219 37.299805 6.601562 35.698242 L 6.601562 28.300781 L 10.400391 28.300781 L 13.398438 32.001953 L 26.499023 32.001953 L 29.501953 28.300781 Z M 33.300781 28.300781 " transform="matrix(0.8,0,0,0.8,0,0)"/>
<path style=" stroke:none;fill-rule:nonzero;fill:rgb(0%,0%,0%);fill-opacity:1;" d="M 18.160156 12.960938 C 19.441406 12.320312 21.039062 12.398438 22.238281 13.199219 C 22.238281 13.199219 20.320312 10.398438 18.160156 12.960938 Z M 18.160156 12.960938 "/>
<path style=" stroke:none;fill-rule:nonzero;fill:rgb(0%,0%,0%);fill-opacity:1;" d="M 14 12.960938 C 12.71875 12.320312 11.121094 12.398438 9.921875 13.199219 C 9.921875 13.199219 11.839844 10.398438 14 12.960938 Z M 14 12.960938 "/>
</g>
</svg>
