<?xml version="1.0" encoding="utf-8"?>
<!-- Generator: Adobe Illustrator 19.2.1, SVG Export Plug-In . SVG Version: 6.00 Build 0)  -->
<svg version="1.1" baseProfile="tiny" id="Layer_1" xmlns="http://www.w3.org/2000/svg" xmlns:xlink="http://www.w3.org/1999/xlink"
	 x="0px" y="0px" viewBox="0 0 24 24" xml:space="preserve">
<title>sprite-library</title>
<desc>Created with Sketch.</desc>
<g>
	<path id="XMLID_90_" fill="#FFFFFF" d="M9.5,22.6c0.2,0,0.4,0,0.7,0c0,0,0,0,0,0c0,0,0,0,0,0C10,22.7,9.8,22.7,9.5,22.6
		C9.5,22.7,9.5,22.6,9.5,22.6C9.5,22.6,9.5,22.6,9.5,22.6z"/>
	<path id="XMLID_89_" fill="#FFFFFF" d="M9.5,22.6C9.5,22.6,9.5,22.6,9.5,22.6c-0.1,0-0.1,0-0.2,0C9.4,22.6,9.5,22.6,9.5,22.6z"/>
	<path id="XMLID_88_" fill="#FFFFFF" d="M10.2,22.7C10.2,22.6,10.2,22.6,10.2,22.7c0.1,0,0.1-0.1,0.2,0
		C10.3,22.7,10.3,22.7,10.2,22.7z"/>
	<path id="XMLID_33_" fill="#FFFFFF" d="M9.4,22.7c0,0-0.1,0-0.1,0c-0.2,0-0.4,0-0.7,0c-0.9-0.1-1.8-0.4-2.7-0.8
		c-0.7-0.3-1.4-0.8-2-1.3c-0.7-0.6-1.4-1.4-1.8-2.3c-0.4-0.8-0.7-1.6-0.8-2.5c-0.2-1.3,0-2.5,0.4-3.6C1.7,12,1.7,12,1.5,11.8
		c-0.5-0.3-0.8-0.8-1-1.3c-0.1-0.2-0.1-0.4-0.1-0.6c0-0.3,0-0.6,0-0.8c0-0.5,0.2-1,0.6-1.4C1.5,7,2.3,6.6,3.2,6.6
		c1,0,1.7,0.4,2.3,1.1c0.1,0.1,0.1,0.1,0.3,0C6.4,7.5,7,7.3,7.6,7.1c0.9-0.2,1.8-0.3,2.8-0.3c1.2,0.1,2.4,0.3,3.6,0.9
		c0.1,0.1,0.2,0,0.3-0.1c0.5-0.6,1.1-1,1.8-1.1c1.3-0.2,2.5,0.5,3.1,1.6c0.7,1.3,0.3,2.8-0.9,3.7c-0.1,0.1-0.1,0.2-0.1,0.3
		c0.3,0.7,0.4,1.4,0.5,2.1c0.1,1.2-0.1,2.3-0.6,3.4c-0.7,1.7-1.9,2.9-3.5,3.8c-1,0.6-2,0.9-3.2,1.1c-0.2,0-0.5,0-0.7,0.1
		c-0.1,0-0.1,0-0.2,0c0,0,0,0-0.1,0c-0.1,0-0.1,0-0.2,0c-0.2,0-0.4,0-0.6,0C9.5,22.6,9.4,22.6,9.4,22.7z M9.3,18.5
		c0,0.1,0,0.1-0.1,0.2c-0.5,0.3-1,0.2-1.4-0.2c-0.2-0.2-0.3-0.3-0.6-0.2c-0.5,0.1-0.6,0.6-0.3,1c0.7,0.8,1.9,1,2.9,0.4
		c0.1,0,0.1-0.1,0.2,0c0.3,0.2,0.6,0.3,0.9,0.3c0.8,0.1,1.5-0.2,2-0.7c0.2-0.2,0.2-0.6,0-0.8c-0.3-0.3-0.6-0.2-0.9,0
		c-0.4,0.4-1,0.5-1.4,0.2c-0.1,0-0.1-0.1-0.1-0.2c0-0.4,0-0.7,0-1.1c0-0.1,0-0.1,0.1-0.2c0.5-0.2,0.9-0.5,1.1-0.9
		c0.1-0.3,0-0.5-0.3-0.6c-0.3-0.1-0.7-0.1-1-0.2c-0.7-0.1-1.4,0-2.1,0.2C8,15.8,7.9,16,8.1,16.3c0.2,0.4,0.6,0.7,1.1,0.9
		c0.1,0,0.1,0.1,0.1,0.2c0,0.2,0,0.4,0,0.5C9.3,18.1,9.3,18.3,9.3,18.5z M2.2,10.7c0.1,0.1,0.1,0.1,0.2,0c0.5-0.8,1.2-1.5,2-2.1
		c0.1-0.1,0.1-0.1,0-0.2C4,8,3.3,7.8,2.7,8C2.1,8.2,1.7,8.8,1.7,9.7C1.7,10,1.9,10.4,2.2,10.7z M18,9.2c-0.1-0.6-0.5-1.1-1.1-1.3
		c-0.6-0.2-1.2,0-1.6,0.4c-0.1,0.1-0.1,0.1,0,0.2c0.8,0.6,1.5,1.3,2,2.1c0.1,0.1,0.1,0.1,0.1,0c0.4-0.3,0.6-0.7,0.6-1.2
		C18.1,9.4,18,9.3,18,9.2z"/>
</g>
<g>
	<path fill="#FFFFFF" d="M20.5,7.5L20.5,7.5c-0.6,0-1.1-0.5-1.1-1.1v-4c0-0.6,0.5-1.1,1.1-1.1h0c0.6,0,1.1,0.5,1.1,1.1v4
		C21.6,7,21.1,7.5,20.5,7.5z"/>
	<path fill="#FFFFFF" d="M17.4,4.4L17.4,4.4c0-0.6,0.5-1.1,1.1-1.1h4c0.6,0,1.1,0.5,1.1,1.1v0c0,0.6-0.5,1.1-1.1,1.1h-4
		C17.9,5.6,17.4,5.1,17.4,4.4z"/>
</g>
</svg>
