<?xml version="1.0" encoding="utf-8"?>
<!-- Generator: Adobe Illustrator 19.0.0, SVG Export Plug-In . SVG Version: 6.00 Build 0)  -->
<svg version="1.1" id="Layer_1" xmlns="http://www.w3.org/2000/svg" xmlns:xlink="http://www.w3.org/1999/xlink" x="0px" y="0px"
	 viewBox="0 0 40 40" style="enable-background:new 0 0 40 40;" xml:space="preserve">
<style type="text/css">
	.st0{fill:#7F461B;stroke:#603111;stroke-miterlimit:10;}
</style>
<path id="XMLID_10851_" class="st0" d="M26.8,13.2L17,14.8c-0.6,0.1-1.1,0.7-1.1,1.3c0,0.6,0.5,1.2,1.1,1.3l9.8,1.6l0,3.6
	c0,1.2,0.8,1.6,1.8,0.9l8.2-6c1-0.7,1-1.9,0-2.6l-8.3-6.2c-1-0.7-1.7-0.3-1.7,0.9L26.8,13.2z"/>
<path id="XMLID_10850_" class="st0" d="M13.2,26.8l9.8-1.6c0.6-0.1,1.1-0.7,1.1-1.3c0-0.6-0.5-1.2-1.1-1.3l-9.8-1.6l0-3.6
	c0-1.2-0.8-1.6-1.8-0.9l-8.2,6c-1,0.7-1,1.9,0,2.6l8.3,6.2c1,0.7,1.7,0.3,1.7-0.9L13.2,26.8z"/>
</svg>
