<?xml version="1.0" encoding="utf-8"?>
<!-- Generator: Adobe Illustrator 19.0.0, SVG Export Plug-In . SVG Version: 6.00 Build 0)  -->
<svg version="1.1" id="Layer_1" xmlns="http://www.w3.org/2000/svg" xmlns:xlink="http://www.w3.org/1999/xlink" x="0px" y="0px"
	 viewBox="0 0 40 40" style="enable-background:new 0 0 40 40;" xml:space="preserve">
<style type="text/css">
	.st0{fill:#0055D1;}
	.st1{fill:#00CEB0;}
</style>
<g id="XMLID_142_">
	<path id="XMLID_171_" class="st0" d="M22.3,17.3v0.1l0,0C22.3,17.3,22.3,17.3,22.3,17.3z"/>
	<path id="XMLID_170_" class="st1" d="M31.5,28c-0.1-0.3-0.2-0.6-0.2-0.9V20H36c0,1.7-0.4,3.3-1.2,4.7C34,26,32.9,27.2,31.5,28z"/>
	<path id="XMLID_167_" class="st1" d="M26.6,10.6c-2.5,0-4.9,1-6.6,2.7c0.9,0.9,1.7,2,2.2,3.2c0.1,0.3,0.2,0.6,0.2,0.9v0.1
		c0,0.2-0.1,0.4-0.1,0.6c0.8-1.6,2.4-2.8,4.3-2.8c2.6,0,4.8,2.1,4.8,4.8H36C36,14.8,31.8,10.6,26.6,10.6z M17.8,18.1
		c0-0.1,0-0.1-0.1-0.1c0.3,0.8,1,1.5,2,1.6C18.9,19.5,18.2,18.9,17.8,18.1z"/>
	<path id="XMLID_165_" class="st0" d="M22.2,22c-0.1-0.2-0.2-0.4-0.3-0.6l0,0c-0.3-0.4-0.8-0.7-1.3-0.9c-0.1,0-0.2-0.1-0.4-0.1l0,0
		h-0.1l0,0l0,0l0,0c0,0,0,0-0.1,0l0,0c0,0,0,0-0.1,0l0,0l0,0c-0.9,0.1-1.6,0.6-2,1.4c0,0,0,0.1-0.1,0.1c-0.2,0.5-0.2,1.1,0.1,1.6
		c0.1,0.4,0.3,0.7,0.5,1c0.4,0.8,1,1.5,1.7,2.1c0.9-0.9,1.7-2,2.2-3.2C22.4,23.1,22.4,22.5,22.2,22z"/>
	<path id="XMLID_161_" class="st0" d="M22.3,17.3v0.1c0,0.2-0.1,0.4-0.1,0.6c0,0,0,0.1-0.1,0.1c-0.4,0.8-1.1,1.4-2,1.4l0,0l0,0
		c0,0,0,0-0.1,0l0,0c0,0,0,0-0.1,0l0,0c0,0,0,0-0.1,0l0,0h-0.1c-0.9-0.1-1.6-0.6-1.9-1.4c0-0.1,0-0.1-0.1-0.1
		c-0.8-1.6-2.4-2.8-4.3-2.8c-2.6,0-4.8,2.1-4.8,4.8c0,2.6,2.1,4.8,4.8,4.8c1.9,0,3.6-1.1,4.3-2.8c-0.2,0.5-0.2,1.1,0.1,1.6
		c0.1,0.4,0.3,0.7,0.5,1c0.4,0.8,1,1.5,1.7,2.1c-1.7,1.6-4,2.7-6.6,2.7C8.2,29.4,4,25.2,4,20s4.2-9.4,9.4-9.4c1.5,0,3,0.4,4.2,1
		c0.9,0.4,1.6,1,2.3,1.6c0.9,0.9,1.7,2,2.2,3.2C22.3,16.7,22.3,17,22.3,17.3z"/>
	<path id="XMLID_160_" class="st0" d="M22.2,18c-0.2,0.7-0.9,1.3-1.7,1.5c-0.1,0-0.2,0-0.4,0.1c0.9-0.1,1.6-0.6,2-1.4
		C22.2,18.1,22.2,18,22.2,18z"/>
	<path id="XMLID_159_" class="st1" d="M36,20L36,20c0,1.7-0.4,3.3-1.2,4.7C34,26,32.9,27.2,31.5,28c-1.4,0.9-3.1,1.4-5,1.4
		c-2.5,0-4.9-1-6.6-2.7c-0.6-0.6-1.2-1.3-1.7-2.1c-0.2-0.3-0.4-0.7-0.5-1c-0.2-0.5-0.2-1.1-0.1-1.6c0.3-0.7,0.9-1.3,1.7-1.5
		c0.1,0,0.2,0,0.4-0.1l0,0l0,0c0,0,0,0,0.1,0l0,0c0,0,0,0,0.1,0l0,0l0,0l0,0H20l0,0h0.1l0,0c0.4,0,0.7,0.2,1,0.4
		c0.2,0.1,0.4,0.3,0.6,0.6l0,0c0.1,0.1,0.2,0.3,0.2,0.4S22,21.9,22,22c0.2,0.3,0.4,0.7,0.6,1c0.7,0.8,1.6,1.4,2.6,1.7
		c0.4,0.1,0.7,0.1,1.1,0.1s0.7,0,1.1-0.1c2.1-0.5,3.6-2.3,3.7-4.6V20l0,0C31.1,20,36,20,36,20z"/>
</g>
</svg>
