<svg xmlns="http://www.w3.org/2000/svg" viewBox="0 0 40 40"><title>Artboard 77</title><circle cx="25" cy="15.62" r="11.27" style="fill:#e8c223"/><path d="M36,13.13c1,4.78-1.16,10.66-6.08,12.67-5.76,2.36-11.81-2-14.11-6.44-.39-.74-2.81-5.6-.32-10,2-3.61,6-4.5,7-4.73A11.12,11.12,0,0,1,36,13.13Z" style="fill:#ffe63e"/><path d="M14,13.15a7.92,7.92,0,0,1,6.09-1.24h0a11.56,11.56,0,0,1,4.38,2.57v0h0a11.1,11.1,0,0,1,2.32,5.82h0a9.33,9.33,0,0,1-2.66,6.53,9.81,9.81,0,0,0,2.24-6.53v0a11,11,0,0,0-2.29-5.56l0,0A11.62,11.62,0,0,0,20,12.28h0A8.32,8.32,0,0,0,14,13.15Z" style="fill:#fff"/><path d="M23.43,4.49a4.47,4.47,0,0,1,4,1h0l.58.79c.18.27.39.52.55.81a13,13,0,0,1,.82,1.78l0,0c.32.54.63,1.09.94,1.64a9.23,9.23,0,0,0,1,1.55,8.76,8.76,0,0,0,2.89,2.3h0c.65.2,1.31.39,2,.61l-2-.38h0A8.22,8.22,0,0,1,31,12.36a9.33,9.33,0,0,1-1.1-1.58c-.32-.55-.64-1.09-.95-1.64V9.09a10.92,10.92,0,0,0-.75-1.72,8.33,8.33,0,0,0-.51-.8l-.51-.79h0A4.68,4.68,0,0,0,23.43,4.49Z" style="fill:#fff"/><path d="M14.94,27.86a1,1,0,0,1,.17,1.4C10.53,34.47,9,35.89,8.76,35.72s.8-2,4.78-7.7A1,1,0,0,1,14.94,27.86Z" style="fill:#e6e7e8"/><path d="M12.86,22.41a1,1,0,0,1,.17,1.4C8.45,29,6.9,30.44,6.69,30.27s.79-2,4.77-7.69A1,1,0,0,1,12.86,22.41Z" style="fill:#e6e7e8"/><path d="M20.73,28.58A1,1,0,0,1,20.9,30c-4.58,5.21-6.13,6.63-6.35,6.46s.8-2,4.77-7.7A1,1,0,0,1,20.73,28.58Z" style="fill:#e6e7e8"/></svg>