<?xml version="1.0" encoding="utf-8"?>
<!-- Generator: Adobe Illustrator 19.1.0, SVG Export Plug-In . SVG Version: 6.00 Build 0)  -->
<svg version="1.1" id="Layer_1" xmlns="http://www.w3.org/2000/svg" xmlns:xlink="http://www.w3.org/1999/xlink" x="0px" y="0px"
	 width="241px" height="95px" viewBox="0 0 241 95" style="enable-background:new 0 0 241 95;" xml:space="preserve">
<style type="text/css">
	.st0{fill:#0F7391;}
	.st1{fill:none;stroke:#9A916C;stroke-width:1.1513;}
	.st2{fill:#CCCCCC;}
	.st3{fill-rule:evenodd;clip-rule:evenodd;}
	.st4{fill-rule:evenodd;clip-rule:evenodd;fill:#1A1A1A;}
	.st5{fill-rule:evenodd;clip-rule:evenodd;fill:#333333;}
	.st6{opacity:0.2;}
	.st7{opacity:0.2;fill:#FFFFFF;}
	.st8{fill:#F2F2F2;}
	.st9{opacity:0.502;fill:#FFFFFF;}
	.st10{fill:#1A1A1A;}
	.st11{fill-rule:evenodd;clip-rule:evenodd;fill:#E6E6E6;}
	.st12{opacity:0.102;fill:#1A1A1A;}
	.st13{opacity:0.102;}
	.st14{fill:#666666;}
	.st15{fill:#999999;}
	.st16{fill:#B3B3B3;}
	.st17{fill:#333333;}
	.st18{fill:#E6E6E6;}
	.st19{fill:#404040;}
	.st20{fill:#8D8C8C;}
	.st21{fill:#8D8455;}
	.st22{fill:#8C8663;}
	.st23{fill:#B8AF82;}
	.st24{fill:#80795B;}
	.st25{fill:#5E5B43;}
	.st26{fill:#9A916C;}
</style>
<g id="XMLID_3_">
	<path id="XMLID_120_" class="st0" d="M219.7,31.5c1.3,0,2.4,1.1,2.4,2.4c0,1.3-1.1,2.4-2.4,2.4c-1.3,0-2.4-1.1-2.4-2.4
		C217.3,32.6,218.4,31.5,219.7,31.5L219.7,31.5z M233.3,31.5c1.3,0,2.4,1.1,2.4,2.4c0,1.3-1.1,2.4-2.4,2.4c-1.3,0-2.4-1.1-2.4-2.4
		C230.9,32.6,232,31.5,233.3,31.5L233.3,31.5z M219.7,45.1c1.3,0,2.4,1.1,2.4,2.4c0,1.3-1.1,2.4-2.4,2.4h0c-1.3,0-2.4-1.1-2.4-2.4
		C217.3,46.2,218.4,45.1,219.7,45.1L219.7,45.1z M233.3,45.1c1.3,0,2.4,1.1,2.4,2.4c0,1.3-1.1,2.4-2.4,2.4h0c-1.3,0-2.4-1.1-2.4-2.4
		C230.9,46.2,232,45.1,233.3,45.1L233.3,45.1z M219.7,58.6c1.3,0,2.4,1.1,2.4,2.4c0,1.3-1.1,2.4-2.4,2.4h0c-1.3,0-2.4-1.1-2.4-2.4
		C217.3,59.7,218.4,58.6,219.7,58.6L219.7,58.6z M233.3,58.6c1.3,0,2.4,1.1,2.4,2.4c0,1.3-1.1,2.4-2.4,2.4h0c-1.3,0-2.4-1.1-2.4-2.4
		C230.9,59.7,232,58.6,233.3,58.6L233.3,58.6z M30.3,85.8c1.4,0,2.4,1.1,2.4,2.4c0,1.4-1.1,2.4-2.4,2.5h0c-1.3,0-2.4-1.1-2.4-2.4
		C27.8,86.9,28.9,85.8,30.3,85.8L30.3,85.8z M43.9,85.8c1.3,0,2.4,1.1,2.4,2.4c0,1.4-1.1,2.4-2.4,2.5h0c-1.4,0-2.4-1.1-2.4-2.4
		C41.4,86.9,42.5,85.8,43.9,85.8C43.9,85.8,43.9,85.8,43.9,85.8z M57.4,85.8c1.4,0,2.4,1.1,2.4,2.4c0,1.4-1.1,2.4-2.4,2.5
		c0,0,0,0,0,0c-1.3,0-2.4-1.1-2.4-2.4C55,86.9,56.1,85.8,57.4,85.8L57.4,85.8z M71,85.8c1.3,0,2.4,1.1,2.4,2.4
		c0,1.4-1.1,2.4-2.4,2.5c0,0,0,0,0,0c-1.3,0-2.4-1.1-2.4-2.4C68.6,86.9,69.7,85.8,71,85.8L71,85.8z M84.6,85.8
		c1.3,0,2.4,1.1,2.4,2.4c0,1.4-1.1,2.4-2.4,2.5h0c-1.4,0-2.4-1.1-2.4-2.4C82.1,86.9,83.2,85.8,84.6,85.8L84.6,85.8z M98.1,85.8
		c1.4,0,2.4,1.1,2.4,2.4c0,1.4-1.1,2.4-2.4,2.5h0c-1.3,0-2.4-1.1-2.4-2.4C95.7,86.9,96.8,85.8,98.1,85.8L98.1,85.8z M111.7,85.8
		c1.3,0,2.4,1.1,2.4,2.4c0,1.4-1.1,2.4-2.4,2.5h0c-1.4,0-2.4-1.1-2.4-2.4C109.3,86.9,110.4,85.8,111.7,85.8L111.7,85.8z M125.3,85.8
		c1.3,0,2.4,1.1,2.4,2.4c0,1.4-1.1,2.4-2.4,2.5h0c-1.3,0-2.4-1.1-2.4-2.4C122.8,86.9,123.9,85.8,125.3,85.8L125.3,85.8z M138.9,85.8
		c1.3,0,2.4,1.1,2.4,2.4c0,1.4-1.1,2.4-2.4,2.5h0c-1.3,0-2.4-1.1-2.4-2.4C136.4,86.9,137.5,85.8,138.9,85.8L138.9,85.8z M152.4,85.8
		c1.3,0,2.4,1.1,2.4,2.4c0,1.4-1.1,2.4-2.4,2.5c0,0,0,0,0,0c-1.3,0-2.4-1.1-2.4-2.4C150,86.9,151.1,85.8,152.4,85.8L152.4,85.8z
		 M166,85.8c1.3,0,2.4,1.1,2.4,2.4c0,1.4-1.1,2.4-2.4,2.5c0,0,0,0,0,0c-1.3,0-2.4-1.1-2.4-2.4C163.6,86.9,164.7,85.8,166,85.8
		L166,85.8z M179.6,85.8c1.3,0,2.4,1.1,2.4,2.4c0,1.4-1.1,2.4-2.4,2.5h0c-1.3,0-2.4-1.1-2.4-2.4C177.1,86.9,178.2,85.8,179.6,85.8
		L179.6,85.8z M193.1,85.8c1.3,0,2.4,1.1,2.4,2.4c0,1.4-1.1,2.4-2.4,2.5h0c-1.3,0-2.4-1.1-2.4-2.4C190.7,86.9,191.8,85.8,193.1,85.8
		L193.1,85.8z M206.7,85.8c1.3,0,2.4,1.1,2.4,2.4c0,1.4-1.1,2.4-2.4,2.5h0c-1.3,0-2.4-1.1-2.4-2.4C204.3,86.9,205.4,85.8,206.7,85.8
		L206.7,85.8z M220.3,85.8c1.3,0,2.4,1.1,2.4,2.4c0,1.4-1.1,2.4-2.4,2.5h0c-1.3,0-2.4-1.1-2.4-2.4C217.8,86.9,218.9,85.8,220.3,85.8
		L220.3,85.8z M30.3,4.3c1.4,0,2.4,1.1,2.4,2.4c0,1.3-1.1,2.4-2.4,2.4c-1.3,0-2.4-1.1-2.4-2.4C27.8,5.4,28.9,4.3,30.3,4.3z
		 M43.9,4.3c1.3,0,2.4,1.1,2.4,2.4c0,1.3-1.1,2.4-2.4,2.4c-1.4,0-2.4-1.1-2.4-2.4C41.4,5.4,42.5,4.3,43.9,4.3z M57.4,4.3
		c1.4,0,2.4,1.1,2.4,2.4c0,1.3-1.1,2.4-2.4,2.4c-1.3,0-2.4-1.1-2.4-2.4C55,5.4,56.1,4.3,57.4,4.3z M71,4.3c1.3,0,2.4,1.1,2.4,2.4
		c0,1.3-1.1,2.4-2.4,2.4c-1.3,0-2.4-1.1-2.4-2.4C68.6,5.4,69.7,4.3,71,4.3z M84.6,4.3c1.3,0,2.4,1.1,2.4,2.4c0,1.3-1.1,2.4-2.4,2.4
		c-1.4,0-2.4-1.1-2.4-2.4C82.1,5.4,83.2,4.3,84.6,4.3z M98.1,4.3c1.4,0,2.4,1.1,2.4,2.4c0,1.3-1.1,2.4-2.4,2.4
		c-1.3,0-2.4-1.1-2.4-2.4C95.7,5.4,96.8,4.3,98.1,4.3z M111.7,4.3c1.3,0,2.4,1.1,2.4,2.4c0,1.3-1.1,2.4-2.4,2.4
		c-1.4,0-2.4-1.1-2.4-2.4C109.3,5.4,110.4,4.3,111.7,4.3z M125.3,4.3c1.3,0,2.4,1.1,2.4,2.4c0,1.3-1.1,2.4-2.4,2.4
		c-1.3,0-2.4-1.1-2.4-2.4C122.8,5.4,123.9,4.3,125.3,4.3z M138.9,4.3c1.3,0,2.4,1.1,2.4,2.4c0,1.3-1.1,2.4-2.4,2.4
		c-1.3,0-2.4-1.1-2.4-2.4C136.4,5.4,137.5,4.3,138.9,4.3z M152.4,4.3c1.3,0,2.4,1.1,2.4,2.4c0,1.3-1.1,2.4-2.4,2.4
		c-1.3,0-2.4-1.1-2.4-2.4C150,5.4,151.1,4.3,152.4,4.3z M166,4.3c1.3,0,2.4,1.1,2.4,2.4c0,1.3-1.1,2.4-2.4,2.4s-2.4-1.1-2.4-2.4
		C163.6,5.4,164.7,4.3,166,4.3z M179.6,4.3c1.3,0,2.4,1.1,2.4,2.4c0,1.3-1.1,2.4-2.4,2.4s-2.4-1.1-2.4-2.4
		C177.1,5.4,178.2,4.3,179.6,4.3z M193.1,4.3c1.3,0,2.4,1.1,2.4,2.4c0,1.3-1.1,2.4-2.4,2.4c-1.3,0-2.4-1.1-2.4-2.4
		C190.7,5.4,191.8,4.3,193.1,4.3z M206.7,4.3c1.3,0,2.4,1.1,2.4,2.4c0,1.3-1.1,2.4-2.4,2.4c-1.3,0-2.4-1.1-2.4-2.4
		C204.3,5.4,205.4,4.3,206.7,4.3z M220.3,4.3c1.3,0,2.4,1.1,2.4,2.4c0,1.3-1.1,2.4-2.4,2.4c-1.3,0-2.4-1.1-2.4-2.4
		C217.8,5.4,218.9,4.3,220.3,4.3z M233.9,2.4c2.4,0,4.4,2,4.4,4.4c0,2.4-2,4.4-4.4,4.4h0c-2.4,0-4.4-2-4.4-4.4
		C229.5,4.4,231.4,2.4,233.9,2.4L233.9,2.4z M233.9,83.8c2.4,0,4.4,2,4.4,4.4c0,2.4-2,4.4-4.4,4.4c-2.4,0-4.4-2-4.4-4.4
		C229.5,85.8,231.4,83.8,233.9,83.8z M16.7,83.8c2.4,0,4.4,2,4.4,4.4c0,2.4-2,4.4-4.4,4.4c-2.4,0-4.4-2-4.4-4.4
		C12.3,85.8,14.3,83.8,16.7,83.8z M16.7,2.4c2.4,0,4.4,2,4.4,4.4c0,2.4-2,4.4-4.4,4.4h0c-2.4,0-4.4-2-4.4-4.4
		C12.3,4.4,14.3,2.4,16.7,2.4z M9.9,0v95h230.7V0H9.9z"/>
	<circle id="XMLID_18080_" class="st1" cx="220.3" cy="6.8" r="3.6"/>
	<circle id="XMLID_18076_" class="st1" cx="206.7" cy="6.8" r="3.6"/>
	<circle id="XMLID_18074_" class="st1" cx="193.1" cy="6.8" r="3.6"/>
	<circle id="XMLID_18072_" class="st1" cx="179.6" cy="6.8" r="3.6"/>
	<circle id="XMLID_18070_" class="st1" cx="166" cy="6.8" r="3.6"/>
	<circle id="XMLID_18068_" class="st1" cx="152.4" cy="6.8" r="3.6"/>
	<circle id="XMLID_18066_" class="st1" cx="138.9" cy="6.8" r="3.6"/>
	<circle id="XMLID_18064_" class="st1" cx="125.3" cy="6.8" r="3.6"/>
	<circle id="XMLID_18062_" class="st1" cx="111.7" cy="6.8" r="3.6"/>
	<circle id="XMLID_18060_" class="st1" cx="98.1" cy="6.8" r="3.6"/>
	<circle id="XMLID_18058_" class="st1" cx="84.6" cy="6.8" r="3.6"/>
	<circle id="XMLID_18056_" class="st1" cx="71" cy="6.8" r="3.6"/>
	<circle id="XMLID_18054_" class="st1" cx="57.4" cy="6.8" r="3.6"/>
	<circle id="XMLID_18052_" class="st1" cx="43.9" cy="6.8" r="3.6"/>
	<circle id="XMLID_18050_" class="st1" cx="30.3" cy="6.8" r="3.6"/>
	<circle id="XMLID_18048_" class="st1" cx="220.3" cy="88.2" r="3.6"/>
	<circle id="XMLID_18046_" class="st1" cx="206.7" cy="88.2" r="3.6"/>
	<circle id="XMLID_18044_" class="st1" cx="193.1" cy="88.2" r="3.6"/>
	<circle id="XMLID_18042_" class="st1" cx="179.6" cy="88.2" r="3.6"/>
	<circle id="XMLID_18040_" class="st1" cx="166" cy="88.2" r="3.6"/>
	<circle id="XMLID_18038_" class="st1" cx="152.4" cy="88.2" r="3.6"/>
	<circle id="XMLID_18036_" class="st1" cx="138.9" cy="88.2" r="3.6"/>
	<circle id="XMLID_18034_" class="st1" cx="125.3" cy="88.2" r="3.6"/>
	<circle id="XMLID_18032_" class="st1" cx="111.7" cy="88.2" r="3.6"/>
	<circle id="XMLID_18030_" class="st1" cx="98.1" cy="88.2" r="3.6"/>
	<circle id="XMLID_18028_" class="st1" cx="84.6" cy="88.2" r="3.6"/>
	<circle id="XMLID_18026_" class="st1" cx="71" cy="88.2" r="3.6"/>
	<circle id="XMLID_18024_" class="st1" cx="57.4" cy="88.2" r="3.6"/>
	<circle id="XMLID_18022_" class="st1" cx="43.9" cy="88.2" r="3.6"/>
	<circle id="XMLID_18020_" class="st1" cx="30.3" cy="88.2" r="3.6"/>
	<g id="XMLID_121_">
		<polygon id="XMLID_18004_" class="st2" points="145.8,51.7 145.5,51.7 145.5,43.3 145.8,43.3 145.8,37.1 133.9,37.1 133.9,57.9 
			145.8,57.9 		"/>
		<polygon id="XMLID_18002_" class="st2" points="132,43.3 132.2,43.3 132.2,51.7 132,51.7 132,57.9 143.8,57.9 143.8,37.1 
			132,37.1 		"/>
		<circle id="XMLID_18000_" class="st3" cx="138.9" cy="47.5" r="4.4"/>
		<path id="XMLID_17998_" d="M138.7,43.1c-2.4,0-4.4,2-4.4,4.4c0,2.4,2,4.4,4.4,4.4h0.2c-2.4,0-4.4-2-4.4-4.4c0-2.4,2-4.4,4.4-4.4
			H138.7z"/>
		<circle id="XMLID_17996_" class="st4" cx="138.9" cy="47.5" r="4.2"/>
		<circle id="XMLID_17994_" class="st5" cx="139" cy="47.5" r="4.2"/>
		<path id="XMLID_17992_" class="st6" d="M138.8,43.3c-2.3,0-4.2,1.9-4.2,4.2c0,2.3,1.9,4.2,4.2,4.2h0.2c-2.3,0-4.2-1.9-4.2-4.2
			c0-2.3,1.9-4.2,4.2-4.2H138.8z"/>
		<path id="XMLID_17990_" class="st7" d="M138.8,51.7c2.3,0,4.2-1.9,4.2-4.2c0-2.3-1.9-4.2-4.2-4.2h0.2c2.3,0,4.2,1.9,4.2,4.2
			c0,2.3-1.9,4.2-4.2,4.2H138.8z"/>
		<rect id="XMLID_17982_" x="132" y="51.7" class="st6" width="0.3" height="6.3"/>
		<rect id="XMLID_17980_" x="132" y="37.1" class="st6" width="0.3" height="6.3"/>
		<rect id="XMLID_17978_" x="132.3" y="43.3" class="st6" width="0.3" height="8.3"/>
	</g>
	<g id="XMLID_7052_">
		<rect id="XMLID_17976_" x="161.1" y="70.1" width="17.2" height="2.4"/>
		<rect id="XMLID_17974_" x="160.9" y="71.3" class="st8" width="17.4" height="9.1"/>
	</g>
	<g id="XMLID_7048_">
		<rect id="XMLID_7341_" x="161.1" y="51.6" width="17.2" height="2.4"/>
		<rect id="XMLID_7340_" x="160.9" y="52.8" class="st8" width="17.4" height="9.1"/>
	</g>
	<g id="XMLID_7044_">
		<rect id="XMLID_7317_" x="161.1" y="33.1" width="17.2" height="2.4"/>
		<rect id="XMLID_7231_" x="160.9" y="34.3" class="st8" width="17.4" height="9.1"/>
	</g>
	<g id="XMLID_7056_">
		<rect id="XMLID_7072_" x="164.8" y="24.7" class="st9" width="10" height="0.1"/>
		<g id="XMLID_1639_">
			<rect id="XMLID_7139_" x="161.1" y="14.6" width="17.2" height="2.4"/>
			<rect id="XMLID_7135_" x="160.9" y="15.8" class="st8" width="17.4" height="9.1"/>
		</g>
	</g>
	
		<rect id="XMLID_7040_" x="74.5" y="29.8" transform="matrix(-0.7071 -0.7071 0.7071 -0.7071 124.7571 146.6762)" class="st10" width="36.4" height="35.5"/>
	<circle id="XMLID_7036_" class="st11" cx="30.3" cy="6.8" r="3.6"/>
	<path id="XMLID_7032_" class="st7" d="M29.6,10.4c2,0,3.6-1.6,3.6-3.6c0-2-1.6-3.6-3.6-3.6h0.6c2,0,3.6,1.6,3.6,3.6
		c0,2-1.6,3.6-3.6,3.6H29.6z"/>
	<path id="XMLID_7028_" class="st12" d="M30.9,3.2c-2,0-3.6,1.6-3.6,3.6c0,2,1.6,3.6,3.6,3.6h-0.6c-2,0-3.6-1.6-3.6-3.6
		c0-2,1.6-3.6,3.6-3.6H30.9z"/>
	<rect id="XMLID_7024_" x="28.8" y="5.3" class="st2" width="3" height="3"/>
	<rect id="XMLID_7020_" x="31.5" y="5.3" class="st7" width="0.2" height="3"/>
	<rect id="XMLID_7016_" x="28.8" y="5.3" class="st13" width="0.2" height="3"/>
	<circle id="XMLID_7012_" class="st11" cx="43.8" cy="6.8" r="3.6"/>
	<path id="XMLID_7009_" class="st7" d="M43.2,10.4c2,0,3.6-1.6,3.6-3.6c0-2-1.6-3.6-3.6-3.6h0.6c2,0,3.6,1.6,3.6,3.6
		c0,2-1.6,3.6-3.6,3.6H43.2z"/>
	<path id="XMLID_7004_" class="st12" d="M44.5,3.2c-2,0-3.6,1.6-3.6,3.6c0,2,1.6,3.6,3.6,3.6h-0.7c-2,0-3.6-1.6-3.6-3.6
		c0-2,1.6-3.6,3.6-3.6H44.5z"/>
	<rect id="XMLID_7000_" x="42.3" y="5.3" class="st2" width="3" height="3"/>
	<rect id="XMLID_6997_" x="45.1" y="5.3" class="st7" width="0.2" height="3"/>
	<rect id="XMLID_6992_" x="42.3" y="5.3" class="st13" width="0.2" height="3"/>
	<circle id="XMLID_6988_" class="st11" cx="57.4" cy="6.8" r="3.6"/>
	<path id="XMLID_6984_" class="st7" d="M56.8,10.4c2,0,3.6-1.6,3.6-3.6c0-2-1.6-3.6-3.6-3.6h0.6c2,0,3.6,1.6,3.6,3.6
		c0,2-1.6,3.6-3.6,3.6H56.8z"/>
	<path id="XMLID_6977_" class="st12" d="M58,3.2c-2,0-3.6,1.6-3.6,3.6c0,2,1.6,3.6,3.6,3.6h-0.6c-2,0-3.6-1.6-3.6-3.6
		c0-2,1.6-3.6,3.6-3.6H58z"/>
	<rect id="XMLID_6973_" x="55.9" y="5.3" class="st2" width="3" height="3"/>
	<rect id="XMLID_6969_" x="58.7" y="5.3" class="st7" width="0.2" height="3"/>
	<rect id="XMLID_6965_" x="55.9" y="5.3" class="st13" width="0.2" height="3"/>
	<circle id="XMLID_6961_" class="st11" cx="71" cy="6.8" r="3.6"/>
	<path id="XMLID_6957_" class="st7" d="M70.4,10.4c2,0,3.6-1.6,3.6-3.6c0-2-1.6-3.6-3.6-3.6H71c2,0,3.6,1.6,3.6,3.6
		c0,2-1.6,3.6-3.6,3.6H70.4z"/>
	<path id="XMLID_6953_" class="st12" d="M71.6,3.2c-2,0-3.6,1.6-3.6,3.6c0,2,1.6,3.6,3.6,3.6H71c-2,0-3.6-1.6-3.6-3.6
		c0-2,1.6-3.6,3.6-3.6H71.6z"/>
	<rect id="XMLID_6949_" x="69.5" y="5.3" class="st2" width="3" height="3"/>
	<rect id="XMLID_6941_" x="72.2" y="5.3" class="st7" width="0.2" height="3"/>
	<rect id="XMLID_6937_" x="69.5" y="5.3" class="st13" width="0.2" height="3"/>
	<circle id="XMLID_6933_" class="st11" cx="84.5" cy="6.8" r="3.6"/>
	<path id="XMLID_6929_" class="st7" d="M83.9,10.4c2,0,3.6-1.6,3.6-3.6c0-2-1.6-3.6-3.6-3.6h0.6c2,0,3.6,1.6,3.6,3.6
		c0,2-1.6,3.6-3.6,3.6H83.9z"/>
	<path id="XMLID_6925_" class="st12" d="M85.2,3.2c-2,0-3.6,1.6-3.6,3.6c0,2,1.6,3.6,3.6,3.6h-0.6c-2,0-3.6-1.6-3.6-3.6
		c0-2,1.6-3.6,3.6-3.6H85.2z"/>
	<rect id="XMLID_6522_" x="83.1" y="5.3" class="st2" width="3" height="3"/>
	<rect id="XMLID_6518_" x="85.8" y="5.3" class="st7" width="0.2" height="3"/>
	<rect id="XMLID_6498_" x="83.1" y="5.3" class="st13" width="0.2" height="3"/>
	<circle id="XMLID_6462_" class="st11" cx="98.1" cy="6.8" r="3.6"/>
	<path id="XMLID_6450_" class="st7" d="M97.5,10.4c2,0,3.6-1.6,3.6-3.6c0-2-1.6-3.6-3.6-3.6h0.6c2,0,3.6,1.6,3.6,3.6
		c0,2-1.6,3.6-3.6,3.6H97.5z"/>
	<path id="XMLID_6442_" class="st12" d="M98.8,3.2c-2,0-3.6,1.6-3.6,3.6c0,2,1.6,3.6,3.6,3.6h-0.6c-2,0-3.6-1.6-3.6-3.6
		c0-2,1.6-3.6,3.6-3.6H98.8z"/>
	<rect id="XMLID_6439_" x="96.6" y="5.3" class="st2" width="3" height="3"/>
	<rect id="XMLID_6434_" x="99.4" y="5.3" class="st7" width="0.2" height="3"/>
	<rect id="XMLID_6431_" x="96.6" y="5.3" class="st13" width="0.2" height="3"/>
	<circle id="XMLID_6426_" class="st11" cx="111.7" cy="6.8" r="3.6"/>
	<path id="XMLID_6422_" class="st7" d="M111.1,10.4c2,0,3.6-1.6,3.6-3.6c0-2-1.6-3.6-3.6-3.6h0.6c2,0,3.6,1.6,3.6,3.6
		c0,2-1.6,3.6-3.6,3.6H111.1z"/>
	<path id="XMLID_6410_" class="st12" d="M112.3,3.2c-2,0-3.6,1.6-3.6,3.6c0,2,1.6,3.6,3.6,3.6h-0.6c-2,0-3.6-1.6-3.6-3.6
		c0-2,1.6-3.6,3.6-3.6H112.3z"/>
	<rect id="XMLID_6406_" x="110.2" y="5.3" class="st2" width="3" height="3"/>
	<rect id="XMLID_6402_" x="113" y="5.3" class="st7" width="0.2" height="3"/>
	<rect id="XMLID_6389_" x="110.2" y="5.3" class="st13" width="0.2" height="3"/>
	<circle id="XMLID_5740_" class="st11" cx="125.3" cy="6.8" r="3.6"/>
	<path id="XMLID_5735_" class="st7" d="M124.6,10.4c2,0,3.6-1.6,3.6-3.6c0-2-1.6-3.6-3.6-3.6h0.6c2,0,3.6,1.6,3.6,3.6
		c0,2-1.6,3.6-3.6,3.6H124.6z"/>
	<path id="XMLID_5732_" class="st12" d="M125.9,3.2c-2,0-3.6,1.6-3.6,3.6c0,2,1.6,3.6,3.6,3.6h-0.6c-2,0-3.6-1.6-3.6-3.6
		c0-2,1.6-3.6,3.6-3.6H125.9z"/>
	<rect id="XMLID_5727_" x="123.8" y="5.3" class="st2" width="3" height="3"/>
	<rect id="XMLID_5723_" x="126.5" y="5.3" class="st7" width="0.2" height="3"/>
	<rect id="XMLID_5719_" x="123.8" y="5.3" class="st13" width="0.2" height="3"/>
	<circle id="XMLID_5715_" class="st11" cx="138.8" cy="6.8" r="3.6"/>
	<path id="XMLID_5711_" class="st7" d="M138.2,10.4c2,0,3.6-1.6,3.6-3.6c0-2-1.6-3.6-3.6-3.6h0.6c2,0,3.6,1.6,3.6,3.6
		c0,2-1.6,3.6-3.6,3.6H138.2z"/>
	<path id="XMLID_5708_" class="st12" d="M139.5,3.2c-2,0-3.6,1.6-3.6,3.6c0,2,1.6,3.6,3.6,3.6h-0.6c-2,0-3.6-1.6-3.6-3.6
		c0-2,1.6-3.6,3.6-3.6H139.5z"/>
	<rect id="XMLID_5703_" x="137.3" y="5.3" class="st2" width="3" height="3"/>
	<rect id="XMLID_5699_" x="140.1" y="5.3" class="st7" width="0.2" height="3"/>
	<rect id="XMLID_5696_" x="137.3" y="5.3" class="st13" width="0.2" height="3"/>
	<circle id="XMLID_5691_" class="st11" cx="152.4" cy="6.8" r="3.6"/>
	<path id="XMLID_5687_" class="st7" d="M151.8,10.4c2,0,3.6-1.6,3.6-3.6c0-2-1.6-3.6-3.6-3.6h0.6c2,0,3.6,1.6,3.6,3.6
		c0,2-1.6,3.6-3.6,3.6H151.8z"/>
	<path id="XMLID_5684_" class="st12" d="M153,3.2c-2,0-3.6,1.6-3.6,3.6c0,2,1.6,3.6,3.6,3.6h-0.6c-2,0-3.6-1.6-3.6-3.6
		c0-2,1.6-3.6,3.6-3.6H153z"/>
	<rect id="XMLID_5679_" x="150.9" y="5.3" class="st2" width="3" height="3"/>
	<rect id="XMLID_5676_" x="153.7" y="5.3" class="st7" width="0.2" height="3"/>
	<rect id="XMLID_5671_" x="150.9" y="5.3" class="st13" width="0.2" height="3"/>
	<circle id="XMLID_5668_" class="st11" cx="166" cy="6.8" r="3.6"/>
	<path id="XMLID_5663_" class="st7" d="M165.4,10.4c2,0,3.6-1.6,3.6-3.6c0-2-1.6-3.6-3.6-3.6h0.6c2,0,3.6,1.6,3.6,3.6
		c0,2-1.6,3.6-3.6,3.6H165.4z"/>
	<path id="XMLID_5659_" class="st12" d="M166.6,3.2c-2,0-3.6,1.6-3.6,3.6c0,2,1.6,3.6,3.6,3.6H166c-2,0-3.6-1.6-3.6-3.6
		c0-2,1.6-3.6,3.6-3.6H166.6z"/>
	<rect id="XMLID_5655_" x="164.5" y="5.3" class="st2" width="3" height="3"/>
	<rect id="XMLID_5651_" x="167.2" y="5.3" class="st7" width="0.2" height="3"/>
	<rect id="XMLID_5647_" x="164.5" y="5.3" class="st13" width="0.2" height="3"/>
	<circle id="XMLID_5643_" class="st11" cx="179.5" cy="6.8" r="3.6"/>
	<path id="XMLID_5640_" class="st7" d="M178.9,10.4c2,0,3.6-1.6,3.6-3.6c0-2-1.6-3.6-3.6-3.6h0.6c2,0,3.6,1.6,3.6,3.6
		c0,2-1.6,3.6-3.6,3.6H178.9z"/>
	<path id="XMLID_5635_" class="st12" d="M180.2,3.2c-2,0-3.6,1.6-3.6,3.6c0,2,1.6,3.6,3.6,3.6h-0.6c-2,0-3.6-1.6-3.6-3.6
		c0-2,1.6-3.6,3.6-3.6H180.2z"/>
	<rect id="XMLID_5631_" x="178.1" y="5.3" class="st2" width="3" height="3"/>
	<rect id="XMLID_5628_" x="180.8" y="5.3" class="st7" width="0.2" height="3"/>
	<rect id="XMLID_5623_" x="178.1" y="5.3" class="st13" width="0.2" height="3"/>
	<circle id="XMLID_5619_" class="st11" cx="193.1" cy="6.8" r="3.6"/>
	<path id="XMLID_5615_" class="st7" d="M192.5,10.4c2,0,3.6-1.6,3.6-3.6c0-2-1.6-3.6-3.6-3.6h0.6c2,0,3.6,1.6,3.6,3.6
		c0,2-1.6,3.6-3.6,3.6H192.5z"/>
	<path id="XMLID_5611_" class="st12" d="M193.8,3.2c-2,0-3.6,1.6-3.6,3.6c0,2,1.6,3.6,3.6,3.6h-0.6c-2,0-3.6-1.6-3.6-3.6
		c0-2,1.6-3.6,3.6-3.6H193.8z"/>
	<rect id="XMLID_5608_" x="191.6" y="5.3" class="st2" width="3" height="3"/>
	<rect id="XMLID_5603_" x="194.4" y="5.3" class="st7" width="0.2" height="3"/>
	<rect id="XMLID_5600_" x="191.6" y="5.3" class="st13" width="0.2" height="3"/>
	<circle id="XMLID_5595_" class="st11" cx="206.7" cy="6.8" r="3.6"/>
	<path id="XMLID_5592_" class="st7" d="M206.1,10.4c2,0,3.6-1.6,3.6-3.6c0-2-1.6-3.6-3.6-3.6h0.6c2,0,3.6,1.6,3.6,3.6
		c0,2-1.6,3.6-3.6,3.6H206.1z"/>
	<path id="XMLID_5587_" class="st12" d="M207.3,3.2c-2,0-3.6,1.6-3.6,3.6c0,2,1.6,3.6,3.6,3.6h-0.6c-2,0-3.6-1.6-3.6-3.6
		c0-2,1.6-3.6,3.6-3.6H207.3z"/>
	<rect id="XMLID_5583_" x="205.2" y="5.3" class="st2" width="3" height="3"/>
	<rect id="XMLID_5579_" x="208" y="5.3" class="st7" width="0.2" height="3"/>
	<rect id="XMLID_5575_" x="205.2" y="5.3" class="st13" width="0.2" height="3"/>
	<circle id="XMLID_5570_" class="st11" cx="220.3" cy="6.8" r="3.6"/>
	<path id="XMLID_5564_" class="st7" d="M219.6,10.4c2,0,3.6-1.6,3.6-3.6c0-2-1.6-3.6-3.6-3.6h0.6c2,0,3.6,1.6,3.6,3.6
		c0,2-1.6,3.6-3.6,3.6H219.6z"/>
	<path id="XMLID_5558_" class="st12" d="M220.9,3.2c-2,0-3.6,1.6-3.6,3.6c0,2,1.6,3.6,3.6,3.6h-0.6c-2,0-3.6-1.6-3.6-3.6
		c0-2,1.6-3.6,3.6-3.6H220.9z"/>
	<rect id="XMLID_5554_" x="218.8" y="5.3" class="st2" width="3" height="3"/>
	<rect id="XMLID_5550_" x="221.5" y="5.3" class="st7" width="0.2" height="3"/>
	<rect id="XMLID_5508_" x="218.8" y="5.3" class="st13" width="0.2" height="3"/>
	<circle id="XMLID_5498_" class="st11" cx="30.3" cy="88.3" r="3.6"/>
	<path id="XMLID_5493_" class="st7" d="M29.7,91.9c2,0,3.6-1.6,3.6-3.6c0-2-1.6-3.6-3.6-3.6h0.6c2,0,3.6,1.6,3.6,3.6
		c0,2-1.6,3.6-3.6,3.6H29.7z"/>
	<path id="XMLID_5489_" class="st12" d="M31,84.8c-2,0-3.6,1.6-3.6,3.6s1.6,3.6,3.6,3.6h-0.6c-2,0-3.6-1.6-3.6-3.6s1.6-3.6,3.6-3.6
		H31z"/>
	<rect id="XMLID_5485_" x="28.8" y="86.8" class="st2" width="3" height="3"/>
	<rect id="XMLID_5481_" x="31.6" y="86.8" class="st7" width="0.2" height="3"/>
	<rect id="XMLID_5477_" x="28.8" y="86.8" class="st13" width="0.2" height="3"/>
	<circle id="XMLID_5473_" class="st11" cx="43.9" cy="88.3" r="3.6"/>
	<path id="XMLID_5465_" class="st7" d="M43.3,91.9c2,0,3.6-1.6,3.6-3.6c0-2-1.6-3.6-3.6-3.6h0.6c2,0,3.6,1.6,3.6,3.6
		c0,2-1.6,3.6-3.6,3.6H43.3z"/>
	<path id="XMLID_5457_" class="st12" d="M44.5,84.8c-2,0-3.6,1.6-3.6,3.6s1.6,3.6,3.6,3.6h-0.7c-2,0-3.6-1.6-3.6-3.6
		s1.6-3.6,3.6-3.6H44.5z"/>
	<rect id="XMLID_5439_" x="42.4" y="86.8" class="st2" width="3" height="3"/>
	<rect id="XMLID_5431_" x="45.2" y="86.8" class="st7" width="0.2" height="3"/>
	<rect id="XMLID_5423_" x="42.4" y="86.8" class="st13" width="0.2" height="3"/>
	<circle id="XMLID_5415_" class="st11" cx="57.5" cy="88.3" r="3.6"/>
	<path id="XMLID_5407_" class="st7" d="M56.8,91.9c2,0,3.6-1.6,3.6-3.6c0-2-1.6-3.6-3.6-3.6h0.6c2,0,3.6,1.6,3.6,3.6
		c0,2-1.6,3.6-3.6,3.6H56.8z"/>
	<path id="XMLID_5399_" class="st12" d="M58.1,84.8c-2,0-3.6,1.6-3.6,3.6s1.6,3.6,3.6,3.6h-0.6c-2,0-3.6-1.6-3.6-3.6
		s1.6-3.6,3.6-3.6H58.1z"/>
	<rect id="XMLID_5391_" x="56" y="86.8" class="st2" width="3" height="3"/>
	<rect id="XMLID_5383_" x="58.7" y="86.8" class="st7" width="0.2" height="3"/>
	<rect id="XMLID_5375_" x="56" y="86.8" class="st13" width="0.2" height="3"/>
	<circle id="XMLID_5367_" class="st11" cx="71" cy="88.3" r="3.6"/>
	<path id="XMLID_5359_" class="st7" d="M70.4,91.9c2,0,3.6-1.6,3.6-3.6c0-2-1.6-3.6-3.6-3.6H71c2,0,3.6,1.6,3.6,3.6
		c0,2-1.6,3.6-3.6,3.6H70.4z"/>
	<path id="XMLID_5351_" class="st12" d="M71.7,84.8c-2,0-3.6,1.6-3.6,3.6s1.6,3.6,3.6,3.6H71c-2,0-3.6-1.6-3.6-3.6s1.6-3.6,3.6-3.6
		H71.7z"/>
	<rect id="XMLID_5343_" x="69.5" y="86.8" class="st2" width="3" height="3"/>
	<rect id="XMLID_5335_" x="72.3" y="86.8" class="st7" width="0.2" height="3"/>
	<rect id="XMLID_5327_" x="69.5" y="86.8" class="st13" width="0.2" height="3"/>
	<circle id="XMLID_5319_" class="st11" cx="84.6" cy="88.3" r="3.6"/>
	<path id="XMLID_5311_" class="st7" d="M84,91.9c2,0,3.6-1.6,3.6-3.6c0-2-1.6-3.6-3.6-3.6h0.6c2,0,3.6,1.6,3.6,3.6
		c0,2-1.6,3.6-3.6,3.6H84z"/>
	<path id="XMLID_4403_" class="st12" d="M85.3,84.8c-2,0-3.6,1.6-3.6,3.6s1.6,3.6,3.6,3.6h-0.6c-2,0-3.6-1.6-3.6-3.6
		s1.6-3.6,3.6-3.6H85.3z"/>
	<rect id="XMLID_4385_" x="83.1" y="86.8" class="st2" width="3" height="3"/>
	<rect id="XMLID_4371_" x="85.9" y="86.8" class="st7" width="0.2" height="3"/>
	<rect id="XMLID_3814_" x="83.1" y="86.8" class="st13" width="0.2" height="3"/>
	<circle id="XMLID_3438_" class="st11" cx="98.2" cy="88.3" r="3.6"/>
	<path id="XMLID_3437_" class="st7" d="M97.6,91.9c2,0,3.6-1.6,3.6-3.6c0-2-1.6-3.6-3.6-3.6h0.6c2,0,3.6,1.6,3.6,3.6
		c0,2-1.6,3.6-3.6,3.6H97.6z"/>
	<path id="XMLID_3436_" class="st12" d="M98.8,84.8c-2,0-3.6,1.6-3.6,3.6s1.6,3.6,3.6,3.6h-0.6c-2,0-3.6-1.6-3.6-3.6
		s1.6-3.6,3.6-3.6H98.8z"/>
	<rect id="XMLID_3434_" x="96.7" y="86.8" class="st2" width="3" height="3"/>
	<rect id="XMLID_3431_" x="99.4" y="86.8" class="st7" width="0.2" height="3"/>
	<rect id="XMLID_3417_" x="96.7" y="86.8" class="st13" width="0.2" height="3"/>
	<circle id="XMLID_3401_" class="st11" cx="111.7" cy="88.3" r="3.6"/>
	<path id="XMLID_3393_" class="st7" d="M111.1,91.9c2,0,3.6-1.6,3.6-3.6c0-2-1.6-3.6-3.6-3.6h0.6c2,0,3.6,1.6,3.6,3.6
		c0,2-1.6,3.6-3.6,3.6H111.1z"/>
	<path id="XMLID_3392_" class="st12" d="M112.4,84.8c-2,0-3.6,1.6-3.6,3.6s1.6,3.6,3.6,3.6h-0.6c-2,0-3.6-1.6-3.6-3.6
		s1.6-3.6,3.6-3.6H112.4z"/>
	<rect id="XMLID_3390_" x="110.3" y="86.8" class="st2" width="3" height="3"/>
	<rect id="XMLID_3210_" x="113" y="86.8" class="st7" width="0.2" height="3"/>
	<rect id="XMLID_3001_" x="110.3" y="86.8" class="st13" width="0.2" height="3"/>
	<circle id="XMLID_2991_" class="st11" cx="125.3" cy="88.3" r="3.6"/>
	<path id="XMLID_2990_" class="st7" d="M124.7,91.9c2,0,3.6-1.6,3.6-3.6c0-2-1.6-3.6-3.6-3.6h0.6c2,0,3.6,1.6,3.6,3.6
		c0,2-1.6,3.6-3.6,3.6H124.7z"/>
	<path id="XMLID_2978_" class="st12" d="M126,84.8c-2,0-3.6,1.6-3.6,3.6s1.6,3.6,3.6,3.6h-0.6c-2,0-3.6-1.6-3.6-3.6s1.6-3.6,3.6-3.6
		H126z"/>
	<rect id="XMLID_2942_" x="123.8" y="86.8" class="st2" width="3" height="3"/>
	<rect id="XMLID_2876_" x="126.6" y="86.8" class="st7" width="0.2" height="3"/>
	<rect id="XMLID_2867_" x="123.8" y="86.8" class="st13" width="0.2" height="3"/>
	<circle id="XMLID_1750_" class="st11" cx="138.9" cy="88.3" r="3.6"/>
	<path id="XMLID_1749_" class="st7" d="M138.3,91.9c2,0,3.6-1.6,3.6-3.6c0-2-1.6-3.6-3.6-3.6h0.6c2,0,3.6,1.6,3.6,3.6
		c0,2-1.6,3.6-3.6,3.6H138.3z"/>
	<path id="XMLID_1748_" class="st12" d="M139.5,84.8c-2,0-3.6,1.6-3.6,3.6s1.6,3.6,3.6,3.6h-0.6c-2,0-3.6-1.6-3.6-3.6
		s1.6-3.6,3.6-3.6H139.5z"/>
	<rect id="XMLID_1747_" x="137.4" y="86.8" class="st2" width="3" height="3"/>
	<rect id="XMLID_1746_" x="140.2" y="86.8" class="st7" width="0.2" height="3"/>
	<rect id="XMLID_1745_" x="137.4" y="86.8" class="st13" width="0.2" height="3"/>
	<circle id="XMLID_1744_" class="st11" cx="152.5" cy="88.3" r="3.6"/>
	<path id="XMLID_1743_" class="st7" d="M151.8,91.9c2,0,3.6-1.6,3.6-3.6c0-2-1.6-3.6-3.6-3.6h0.6c2,0,3.6,1.6,3.6,3.6
		c0,2-1.6,3.6-3.6,3.6H151.8z"/>
	<path id="XMLID_1742_" class="st12" d="M153.1,84.8c-2,0-3.6,1.6-3.6,3.6s1.6,3.6,3.6,3.6h-0.6c-2,0-3.6-1.6-3.6-3.6
		s1.6-3.6,3.6-3.6H153.1z"/>
	<rect id="XMLID_1741_" x="151" y="86.8" class="st2" width="3" height="3"/>
	<rect id="XMLID_1740_" x="153.7" y="86.8" class="st7" width="0.2" height="3"/>
	<rect id="XMLID_1738_" x="151" y="86.8" class="st13" width="0.2" height="3"/>
	<circle id="XMLID_1687_" class="st11" cx="166" cy="88.3" r="3.6"/>
	<path id="XMLID_1686_" class="st7" d="M165.4,91.9c2,0,3.6-1.6,3.6-3.6c0-2-1.6-3.6-3.6-3.6h0.6c2,0,3.6,1.6,3.6,3.6
		c0,2-1.6,3.6-3.6,3.6H165.4z"/>
	<path id="XMLID_1684_" class="st12" d="M166.7,84.8c-2,0-3.6,1.6-3.6,3.6s1.6,3.6,3.6,3.6H166c-2,0-3.6-1.6-3.6-3.6
		s1.6-3.6,3.6-3.6H166.7z"/>
	<rect id="XMLID_1681_" x="164.5" y="86.8" class="st2" width="3" height="3"/>
	<rect id="XMLID_1680_" x="167.3" y="86.8" class="st7" width="0.2" height="3"/>
	<rect id="XMLID_1679_" x="164.5" y="86.8" class="st13" width="0.2" height="3"/>
	<circle id="XMLID_1677_" class="st11" cx="179.6" cy="88.3" r="3.6"/>
	<path id="XMLID_1674_" class="st7" d="M179,91.9c2,0,3.6-1.6,3.6-3.6c0-2-1.6-3.6-3.6-3.6h0.6c2,0,3.6,1.6,3.6,3.6
		c0,2-1.6,3.6-3.6,3.6H179z"/>
	<path id="XMLID_1662_" class="st12" d="M180.3,84.8c-2,0-3.6,1.6-3.6,3.6s1.6,3.6,3.6,3.6h-0.6c-2,0-3.6-1.6-3.6-3.6
		s1.6-3.6,3.6-3.6H180.3z"/>
	<rect id="XMLID_1661_" x="178.1" y="86.8" class="st2" width="3" height="3"/>
	<rect id="XMLID_1660_" x="180.9" y="86.8" class="st7" width="0.2" height="3"/>
	<rect id="XMLID_1659_" x="178.1" y="86.8" class="st13" width="0.2" height="3"/>
	<circle id="XMLID_1658_" class="st11" cx="193.2" cy="88.3" r="3.6"/>
	<path id="XMLID_1657_" class="st7" d="M192.6,91.9c2,0,3.6-1.6,3.6-3.6c0-2-1.6-3.6-3.6-3.6h0.6c2,0,3.6,1.6,3.6,3.6
		c0,2-1.6,3.6-3.6,3.6H192.6z"/>
	<path id="XMLID_1656_" class="st12" d="M193.8,84.8c-2,0-3.6,1.6-3.6,3.6s1.6,3.6,3.6,3.6h-0.6c-2,0-3.6-1.6-3.6-3.6
		s1.6-3.6,3.6-3.6H193.8z"/>
	<rect id="XMLID_1654_" x="191.7" y="86.8" class="st2" width="3" height="3"/>
	<rect id="XMLID_1653_" x="194.4" y="86.8" class="st7" width="0.2" height="3"/>
	<rect id="XMLID_1652_" x="191.7" y="86.8" class="st13" width="0.2" height="3"/>
	<circle id="XMLID_1651_" class="st11" cx="206.8" cy="88.3" r="3.6"/>
	<path id="XMLID_1650_" class="st7" d="M206.1,91.9c2,0,3.6-1.6,3.6-3.6c0-2-1.6-3.6-3.6-3.6h0.6c2,0,3.6,1.6,3.6,3.6
		c0,2-1.6,3.6-3.6,3.6H206.1z"/>
	<path id="XMLID_1649_" class="st12" d="M207.4,84.8c-2,0-3.6,1.6-3.6,3.6s1.6,3.6,3.6,3.6h-0.6c-2,0-3.6-1.6-3.6-3.6
		s1.6-3.6,3.6-3.6H207.4z"/>
	<rect id="XMLID_1648_" x="205.3" y="86.8" class="st2" width="3" height="3"/>
	<rect id="XMLID_1647_" x="208" y="86.8" class="st7" width="0.2" height="3"/>
	<rect id="XMLID_1646_" x="205.3" y="86.8" class="st13" width="0.2" height="3"/>
	<circle id="XMLID_1645_" class="st11" cx="220.3" cy="88.3" r="3.6"/>
	<path id="XMLID_1644_" class="st7" d="M219.7,91.9c2,0,3.6-1.6,3.6-3.6c0-2-1.6-3.6-3.6-3.6h0.6c2,0,3.6,1.6,3.6,3.6
		c0,2-1.6,3.6-3.6,3.6H219.7z"/>
	<path id="XMLID_1643_" class="st12" d="M221,84.8c-2,0-3.6,1.6-3.6,3.6s1.6,3.6,3.6,3.6h-0.6c-2,0-3.6-1.6-3.6-3.6s1.6-3.6,3.6-3.6
		H221z"/>
	<rect id="XMLID_1642_" x="218.8" y="86.8" class="st2" width="3" height="3"/>
	<rect id="XMLID_1641_" x="221.6" y="86.8" class="st7" width="0.2" height="3"/>
	<rect id="XMLID_1640_" x="218.8" y="86.8" class="st13" width="0.2" height="3"/>
	<rect id="XMLID_1637_" x="11.7" y="66.2" class="st2" width="13.5" height="10.1"/>
	<rect id="XMLID_1636_" x="41.2" y="66.2" class="st2" width="13.5" height="10.1"/>
	<rect id="XMLID_1635_" x="11.7" y="18.7" class="st2" width="13.5" height="10.1"/>
	<rect id="XMLID_1634_" x="11.7" y="66.2" class="st8" width="0.3" height="10.1"/>
	<rect id="XMLID_1633_" x="11.7" y="18.7" class="st8" width="0.3" height="10.1"/>
	<rect id="XMLID_1631_" x="24.9" y="66.2" class="st6" width="0.4" height="10.1"/>
	<rect id="XMLID_1630_" x="24.9" y="18.7" class="st6" width="0.4" height="10.1"/>
	<rect id="XMLID_1629_" x="41.2" y="18.7" class="st2" width="13.5" height="10.1"/>
	<rect id="XMLID_1628_" x="41.2" y="66.2" class="st8" width="0.4" height="10.1"/>
	<rect id="XMLID_1627_" x="41.2" y="18.7" class="st8" width="0.4" height="10.1"/>
	<rect id="XMLID_1626_" x="48.5" y="37.5" class="st14" width="5.6" height="2.4"/>
	<rect id="XMLID_1624_" x="48.9" y="37.5" class="st15" width="5.3" height="0.2"/>
	<rect id="XMLID_1623_" x="48.5" y="41.9" class="st14" width="5.6" height="2.4"/>
	<rect id="XMLID_1622_" x="48.9" y="41.9" class="st15" width="5.3" height="0.2"/>
	<rect id="XMLID_1621_" x="48.5" y="46.3" class="st14" width="5.6" height="2.4"/>
	<rect id="XMLID_1620_" x="48.9" y="46.3" class="st15" width="5.3" height="0.2"/>
	<rect id="XMLID_1619_" x="48.5" y="50.7" class="st14" width="5.6" height="2.4"/>
	<rect id="XMLID_1618_" x="48.9" y="50.7" class="st15" width="5.3" height="0.2"/>
	<rect id="XMLID_1617_" x="48.5" y="55.1" class="st14" width="5.6" height="2.4"/>
	<rect id="XMLID_1616_" x="48.9" y="55.1" class="st15" width="5.3" height="0.2"/>
	<rect id="XMLID_1615_" x="1.3" y="27.5" class="st16" width="47.9" height="40"/>
	<rect id="XMLID_1614_" x="48.9" y="27.5" class="st2" width="0.3" height="40"/>
	<rect id="XMLID_1613_" x="4.3" y="30.6" class="st17" width="44.9" height="33.8"/>
	<path id="XMLID_1612_" class="st2" d="M47.9,27l1.2,0.5v5.4c0,0-0.2-4.9-0.6-5.1c-0.4-0.2-0.6,0.2-0.6,0.2L47.9,27L47.9,27z"/>
	<path id="XMLID_1611_" class="st2" d="M47.9,67.9l1.2-0.5v-5.4c0,0-0.2,4.9-0.6,5.1c-0.4,0.2-0.6-0.2-0.6-0.2L47.9,67.9z"/>
	<path id="XMLID_125_" class="st18" d="M24.7,31c0.3,0,0.5,0.2,0.5,0.5v1.4c0,0.3-0.2,0.5-0.5,0.5H12.2c-0.3,0-0.5-0.2-0.5-0.5v-1.4
		c0-0.3,0.2-0.5,0.5-0.5H24.7z M8.7,34.1l1.6,1.6c0.2,0.2,0.5,0.3,0.8,0.3h13.6c0.3,0,0.5,0.2,0.5,0.5v1.1c0,0.3-0.2,0.5-0.5,0.5
		H6.6c-0.3,0-0.5-0.2-0.5-0.5v-1.1c0-0.3,0.2-0.6,0.3-0.8l1.6-1.6C8.3,33.9,8.6,33.9,8.7,34.1z M42.2,34.1c0.3,0,0.5,0.2,0.5,0.5
		v24.8c0,0.3-0.2,0.5-0.5,0.5h-1.6c-0.3,0-0.5-0.2-0.5-0.5V34.6c0-0.3,0.2-0.5,0.5-0.5H42.2z M8.1,60.4l-1.6-1.6
		c-0.2-0.2-0.3-0.5-0.3-0.8v-1.1c0-0.3,0.2-0.5,0.5-0.5h18.2c0.3,0,0.5,0.2,0.5,0.5v1.1c0,0.3-0.2,0.5-0.5,0.5H11.2
		c-0.3,0-0.6,0.2-0.8,0.3l-1.6,1.6C8.6,60.6,8.3,60.6,8.1,60.4z M6.1,53.3v-0.3c0-0.3,0.2-0.5,0.5-0.5l18.7-1.1
		c0.3,0,0.5-0.2,0.5-0.5V44c0-0.3-0.2-0.5-0.5-0.5L6.6,42.4c-0.3,0-0.5-0.2-0.5-0.5v-0.3c0-0.3,0.2-0.5,0.5-0.4l23.6,1.4
		c0.3,0,0.5,0.2,0.5,0.5v8.9c0,0.3-0.2,0.5-0.5,0.5L6.6,53.7C6.3,53.7,6.1,53.5,6.1,53.3z M24.7,61.1c0.3,0,0.5,0.2,0.5,0.5v1.4
		c0,0.3-0.2,0.5-0.5,0.5H12.2c-0.3,0-0.5-0.2-0.5-0.5v-1.4c0-0.3,0.2-0.5,0.5-0.5H24.7z M1.3,67.9h47.8V56.3h-1.2V38.6h1.2V27H1.3
		V67.9z"/>
	<polygon id="XMLID_1572_" class="st8" points="1.3,27.9 1.3,27 49.2,27 49.2,30.3 	"/>
	<polygon id="XMLID_1571_" class="st8" points="1.3,67.9 36.3,66.7 49.2,65.5 49.2,67.9 	"/>
	<rect id="XMLID_1570_" x="1.3" y="27" class="st8" width="0.7" height="40.9"/>
	<polygon id="XMLID_1569_" class="st8" points="2,68.9 1.3,68.9 0.4,68.9 0.4,67.9 0.4,27 0.4,26.1 1.3,26.1 2,26.1 2,28 1.3,28 
		1.3,27 2.2,27 2.2,67.9 1.3,67.9 1.3,67 2,67 	"/>
	<g id="XMLID_1638_">
		<circle id="XMLID_18018_" class="st1" cx="229.4" cy="60.9" r="4.2"/>
		<rect id="XMLID_18016_" x="225.2" y="56.7" class="st1" width="8.4" height="8.4"/>
		<circle id="XMLID_18014_" class="st1" cx="213.5" cy="60.9" r="4.2"/>
		<circle id="XMLID_18012_" class="st1" cx="229.4" cy="45" r="4.2"/>
		<circle id="XMLID_18010_" class="st1" cx="213.5" cy="45" r="4.2"/>
		<circle id="XMLID_18008_" class="st1" cx="229.4" cy="29.2" r="4.2"/>
		<circle id="XMLID_18006_" class="st1" cx="213.5" cy="29.2" r="4.2"/>
		<polygon id="XMLID_1568_" class="st19" points="209.1,68.5 217.8,68.5 225.1,68.5 233.8,68.5 237.1,65.2 237.1,56.5 233.8,53.2 
			225.1,53.2 217.8,53.2 209.1,53.2 205.7,56.5 205.7,65.2 		"/>
		<polygon id="XMLID_1567_" class="st19" points="209.1,52.7 217.8,52.7 225.1,52.7 233.8,52.7 237.1,49.4 237.1,40.7 233.8,37.4 
			225.1,37.4 217.8,37.4 209.1,37.4 205.7,40.7 205.7,49.4 		"/>
		<polygon id="XMLID_1566_" class="st19" points="209.1,36.9 217.8,36.9 225.1,36.9 233.8,36.9 237.1,33.5 237.1,24.9 233.8,21.5 
			225.1,21.5 217.8,21.5 209.1,21.5 205.7,24.9 205.7,33.5 		"/>
		<polygon id="XMLID_1565_" class="st19" points="209.1,68.5 217.8,68.5 225.1,68.5 233.8,68.5 237.1,65.2 237.1,56.5 233.8,53.2 
			225.1,53.2 217.8,53.2 209.1,53.2 205.7,56.5 205.7,65.2 		"/>
		<polygon id="XMLID_1552_" class="st19" points="209.1,52.7 217.8,52.7 225.1,52.7 233.8,52.7 237.1,49.4 237.1,40.7 233.8,37.4 
			225.1,37.4 217.8,37.4 209.1,37.4 205.7,40.7 205.7,49.4 		"/>
		<polygon id="XMLID_1551_" class="st19" points="209.1,36.9 217.8,36.9 225.1,36.9 233.8,36.9 237.1,33.5 237.1,24.9 233.8,21.5 
			225.1,21.5 217.8,21.5 209.1,21.5 205.7,24.9 205.7,33.5 		"/>
		<rect id="XMLID_1548_" x="226.7" y="27" class="st20" width="5.1" height="5.1"/>
		<rect id="XMLID_1547_" x="210.9" y="27" class="st20" width="5.1" height="5.1"/>
		<rect id="XMLID_1544_" x="226.7" y="42.8" class="st20" width="5.1" height="5.1"/>
		<rect id="XMLID_1543_" x="210.9" y="42.8" class="st20" width="5.1" height="5.1"/>
		<rect id="XMLID_1542_" x="226.7" y="58.7" class="st20" width="5.1" height="5.1"/>
		<rect id="XMLID_1541_" x="210.9" y="58.7" class="st21" width="5.1" height="5.1"/>
		<rect id="XMLID_1540_" x="212.1" y="59.9" class="st22" width="2.6" height="2.6"/>
		<polygon id="XMLID_1539_" class="st23" points="215.9,63.8 214.7,62.5 212.1,62.5 210.9,63.8 		"/>
		<polygon id="XMLID_1538_" class="st24" points="212.1,59.9 212.1,62.5 210.9,63.8 210.9,58.7 		"/>
		<polygon id="XMLID_1537_" class="st25" points="214.7,59.9 212.1,59.9 210.9,58.7 215.9,58.7 		"/>
		<polygon id="XMLID_1536_" class="st26" points="215.9,63.8 214.7,62.5 214.7,59.9 215.9,58.7 		"/>
		<rect id="XMLID_1535_" x="228" y="59.9" class="st22" width="2.6" height="2.6"/>
		<polygon id="XMLID_1534_" class="st23" points="231.8,63.8 230.6,62.5 228,62.5 226.7,63.8 		"/>
		<polygon id="XMLID_1533_" class="st24" points="228,59.9 228,62.5 226.7,63.8 226.7,58.7 		"/>
		<polygon id="XMLID_1532_" class="st25" points="230.6,59.9 228,59.9 226.7,58.7 231.8,58.7 		"/>
		<polygon id="XMLID_1531_" class="st26" points="231.8,63.8 230.6,62.5 230.6,59.9 231.8,58.7 		"/>
		<rect id="XMLID_1530_" x="212.1" y="44.1" class="st22" width="2.6" height="2.6"/>
		<polygon id="XMLID_1529_" class="st23" points="215.9,47.9 214.7,46.7 212.1,46.7 210.9,47.9 		"/>
		<polygon id="XMLID_1528_" class="st24" points="212.1,44.1 212.1,46.7 210.9,47.9 210.9,42.8 		"/>
		<polygon id="XMLID_1527_" class="st25" points="214.7,44.1 212.1,44.1 210.9,42.8 215.9,42.8 		"/>
		<polygon id="XMLID_1526_" class="st26" points="215.9,47.9 214.7,46.7 214.7,44.1 215.9,42.8 		"/>
		<rect id="XMLID_1525_" x="228" y="44.1" class="st22" width="2.6" height="2.6"/>
		<polygon id="XMLID_1524_" class="st23" points="231.8,47.9 230.6,46.7 228,46.7 226.7,47.9 		"/>
		<polygon id="XMLID_1523_" class="st24" points="228,44.1 228,46.7 226.7,47.9 226.7,42.8 		"/>
		<polygon id="XMLID_1521_" class="st25" points="230.6,44.1 228,44.1 226.7,42.8 231.8,42.8 		"/>
		<polygon id="XMLID_1519_" class="st26" points="231.8,47.9 230.6,46.7 230.6,44.1 231.8,42.8 		"/>
		<rect id="XMLID_1518_" x="212.1" y="28.2" class="st22" width="2.6" height="2.6"/>
		<polygon id="XMLID_1517_" class="st23" points="215.9,32 214.7,30.8 212.1,30.8 210.9,32 		"/>
		<polygon id="XMLID_1515_" class="st24" points="212.1,28.2 212.1,30.8 210.9,32 210.9,27 		"/>
		<polygon id="XMLID_1514_" class="st25" points="214.7,28.2 212.1,28.2 210.9,27 215.9,27 		"/>
		<polygon id="XMLID_1513_" class="st26" points="215.9,32 214.7,30.8 214.7,28.2 215.9,27 		"/>
		<rect id="XMLID_1512_" x="228" y="28.2" class="st22" width="2.6" height="2.6"/>
		<polygon id="XMLID_1511_" class="st23" points="231.8,32 230.6,30.8 228,30.8 226.7,32 		"/>
		<polygon id="XMLID_1510_" class="st24" points="228,28.2 228,30.8 226.7,32 226.7,27 		"/>
		<polygon id="XMLID_1508_" class="st25" points="230.6,28.2 228,28.2 226.7,27 231.8,27 		"/>
		<polygon id="XMLID_1502_" class="st26" points="231.8,32 230.6,30.8 230.6,28.2 231.8,27 		"/>
	</g>
</g>
</svg>
