<?xml version="1.0" encoding="utf-8"?>
<!-- Generator: Adobe Illustrator 19.2.1, SVG Export Plug-In . SVG Version: 6.00 Build 0)  -->
<svg version="1.1" id="Layer_1" xmlns="http://www.w3.org/2000/svg" xmlns:xlink="http://www.w3.org/1999/xlink" x="0px" y="0px"
	 viewBox="0 0 24 24" style="enable-background:new 0 0 24 24;" xml:space="preserve">
<style type="text/css">
	.st0{fill:#FFFFFF;}
	.st1{fill:none;stroke:#FFFFFF;stroke-width:0.88;stroke-linecap:round;stroke-miterlimit:10;}
	.st2{fill:none;stroke:#FFFFFF;stroke-width:0.9147;stroke-miterlimit:10;}
</style>
<g id="XMLID_378_">
	<circle id="XMLID_421_" class="st0" cx="10.3" cy="16.4" r="1.2"/>
	<g id="XMLID_381_">
		<path id="XMLID_420_" class="st0" d="M13.7,9.5C11.1,8.4,8.4,9,6.8,9.5c-0.2,0.6-0.3,1.2-0.3,1.8c0,1.8,0.7,3.3,1.9,4.5
			c0.3-0.7,1-1.2,1.8-1.2c1.1,0,2,0.9,2,2c0,0.3-0.1,0.6-0.2,0.9c0.2,0,0.5,0,0.7,0c0.9,0,1.8-0.2,2.6-0.6c-0.1-1-0.4-1.9-1.1-2.5
			c-1.1-1.1-2.8-1.4-3.6-1.4c-0.2,0-0.4-0.2-0.4-0.4l0,0c0-0.3,0.2-0.5,0.5-0.5c0.9,0.1,2.8,0.3,4.2,1.7c0.7,0.7,1.1,1.6,1.3,2.7
			c0.9-0.6,1.5-1.4,2-2.3C17.1,11.8,15.6,10.3,13.7,9.5z"/>
		<g id="XMLID_383_">
			<path id="XMLID_393_" class="st0" d="M17.4,7.2c-1.1-1.3-2.8-2.1-4.6-2.1c-0.8,0-1.6,0.2-2.3,0.4C12.4,5.3,15,5.5,17.4,7.2z"/>
			<path id="XMLID_388_" class="st0" d="M8.4,6.9C7.9,7.3,7.6,7.8,7.3,8.4c1.7-0.4,4.3-0.7,6.8,0.3c1.9,0.8,3.5,2.2,4.6,4.2
				c0.1-0.5,0.2-1.1,0.2-1.6c0-0.6-0.1-1.1-0.2-1.6C14.8,5.2,10.1,6.3,8.4,6.9z"/>
		</g>
	</g>
	<path id="XMLID_379_" class="st1" d="M18.4,16.4c-2.9,3.1-7.7,3.4-10.9,0.5S4.2,9.2,7.1,6.1"/>
</g>
<path id="XMLID_73_" class="st2" d="M19.4,1v2.1h-1.1V1h-1.2v2.1h-1.2V1H6v0H5v0H3.3C2.6,1,1.9,1.6,1.9,2.4v19.2
	c0,0.8,0.6,1.4,1.4,1.4h17.4c0.8,0,1.4-0.6,1.4-1.4V2.4c0-0.8-0.6-1.4-1.4-1.4H19.4z"/>
</svg>
