<?xml version="1.0" encoding="utf-8"?>
<!-- Generator: Adobe Illustrator 19.2.1, SVG Export Plug-In . SVG Version: 6.00 Build 0)  -->
<svg version="1.1" id="Layer_1" xmlns="http://www.w3.org/2000/svg" xmlns:xlink="http://www.w3.org/1999/xlink" x="0px" y="0px"
	 viewBox="0 0 48 48" style="enable-background:new 0 0 48 48;" xml:space="preserve">
<style type="text/css">
	.st0{fill:#48A145;}
</style>
<g id="Paint-Editor-V1">
	<path id="Fill-4" class="st0" d="M44.9,12.6c-2.1,4.5-5.4,9.9-8.5,13.6c-2.6,3.3-4.7,5.2-6.6,6.1c-0.2,0.2-0.5,0.2-0.7,0.2
		s-0.5,0-0.7-0.2c-0.5-0.2-0.7-0.5-0.9-0.9c-0.5-1.2-1.4-2.3-2.3-3.3c-1.2-0.7-2.3-1.4-3.8-1.6c-0.5,0-0.9-0.5-1.2-0.7
		C20,25.3,20,24.9,20,24.4c0.5-2.1,1.9-4.7,4.5-7.8C29.4,10.3,39,1.1,44,0.4c1.2-0.2,2.1,0.2,2.6,0.7C47.5,2.3,48.7,4.7,44.9,12.6z
		 M24.9,37.5c0.2,2.3-0.2,4.7-1.6,6.6c-1.2,1.6-3.1,2.8-4.9,3.3h-0.2h-0.5c-1.2,0.2-1.9,0.2-2.8,0.2c-6.6,0-11.3-4.5-13.2-7.5
		C1,38.9,0,36.8,0.7,35.4c0.2-0.2,0.9-0.9,2.3-0.7c4.5,0.9,5.9-0.9,6.3-1.4c3.1-4,8.5-4.7,12.2-1.6C23.5,33.1,24.7,35.2,24.9,37.5z"
		/>
</g>
</svg>
