<svg xmlns="http://www.w3.org/2000/svg" viewBox="0 0 66.65 111.89"><path d="M53.38 105.36a16.32 16.32 0 0 1-2-1.7c-.9-.8-1.8-1.5-2.6-2.3-3.7-3.4-5.7-5.8-7.5-7.2l.1-.1a9.5 9.5 0 0 0 5.7-5 8.82 8.82 0 0 0 0-8.5l.1-.2c3.2 2.3 6.3 4.7 9.3 7.3 2.5 2.3 5.1 4.6 6.9 7.5a9.29 9.29 0 0 1 .5 1c.2.5.6 1 .8 1.6a10.41 10.41 0 0 1 .6 1.6 9.35 9.35 0 0 1 .4 3.3 6.43 6.43 0 0 1-1.8 3.9 5.3 5.3 0 0 1-2.8 1.6 5 5 0 0 1-2.7-.2 12 12 0 0 1-5-2.6z" fill="#e2a355"/><path d="M51.98 104.06c-.8-.7-1.5-1.4-2.2-2.1a84.21 84.21 0 0 0-6.9-6.3l-.2-.2-4.1-3.2c1.8-.8 4.9-14.5 4.9-14.5l2.8 1.9a119.09 119.09 0 0 1 11.1 8.4c.4.4 2.3 2 2.7 2.4.3 3.6-1.6 8.7-6.9 14.5a12.49 12.49 0 0 1-1.2-.9z" fill="#b02024"/><path d="M44.18 78.26c2.8 1.9 5.4 3.9 8.1 5.9a57.39 57.39 0 0 1 7.8 7c3.3 3.7 8.5 10.2 3.8 15a5.57 5.57 0 0 1-2.7 1.5 5 5 0 0 1-2.7-.2 15.91 15.91 0 0 1-5-2.6 16.32 16.32 0 0 1-2-1.7c-.9-.8-1.8-1.5-2.6-2.3-3.9-3.6-8.1-7-10-8.4" fill="none" stroke="#371f0f" stroke-linecap="round" stroke-linejoin="round" stroke-width="1.78"/><path d="M32.88 68.56a96.78 96.78 0 0 0 8.5-12.8 25.47 25.47 0 0 1-6.4-6l-.3.4c-.3.5-.7 1.1-1.1 1.7-2.3 3.4-8.8 12.5-16.8 15.2-1.5 1.1-2.6 1.9-3.1 2.3a23.07 23.07 0 0 0-1.9 1.4l-.1.1a5.79 5.79 0 0 0-1.9 3.8 4.9 4.9 0 0 0 .6 2.7 3.13 3.13 0 0 0 .9 1.1 5.4 5.4 0 0 0 3.7 1.4c6.7-.1 13.1-5.5 17.9-11.3z" fill="#e2a355"/><path d="M41.08 56.46a.73.73 0 0 0 .1-.6l.2-.1.4-1.9-2.8-2.1-3.7-2.9-.4.7c-1.3 2.2-2.2 3.6-3 4.8l-6.3 7.1a21.3 21.3 0 0 0 2.4 4.2l.2.2a4.62 4.62 0 0 0 .7.7 5.55 5.55 0 0 0 .8.6 6.54 6.54 0 0 0 3 1.5h.3a90.46 90.46 0 0 0 8.1-12.2z" fill="#e6e7e8"/><path d="M34.58 50.66a41.91 41.91 0 0 1-15.5 15.5c-2.4 1.3-5.1 2.1-7.4 3.8-2.7 2-3.5 5.8-.7 8.2 2.5 2.1 6.3 1.3 9.1.2a23.72 23.72 0 0 0 6.4-4 52.48 52.48 0 0 0 10.7-11.8 39.62 39.62 0 0 0 4.4-8.4" fill="none" stroke="#371f0f" stroke-linecap="round" stroke-linejoin="round" stroke-width="1.653"/><path d="M55.48 78.06a3.08 3.08 0 0 0 .1-1c.2-1.3.3-2.6.4-3.9.1-1.2 0-2.5 0-3.7a4.1 4.1 0 0 0-.1-1.1 24.77 24.77 0 0 0-.3-2.7c0-.3-.1-.7-.1-1a34 34 0 0 0-.7-3.4v-.1c-.3-1.1-.6-2.1-.9-3.1l-.3-.9a16 16 0 0 0-1-2.3 3 3 0 0 0-.4-.8c-.5-1-1-1.9-1.5-2.8 0-.1-.1-.1-.1-.2-.5-.8-1.1-1.6-1.6-2.4a3 3 0 0 1-.5-.7l-1.5-1.8c-.1-.1-.2-.3-.3-.4a.53.53 0 0 0-.3-.2l-.6-.6a2.65 2.65 0 0 0-.6-.5 24.5 24.5 0 0 0-9.3-5.2 21.18 21.18 0 0 0-4.5-.7 22.69 22.69 0 0 0-14.2 4.5 1.38 1.38 0 0 1-.4.3c-.7.5-1.3 1.1-2 1.7l-.6.6-.4.4c-.2.2-.4.5-.7.8a17.33 17.33 0 0 0-1.7 2.1c-.2.2-.3.4-.5.6a14.63 14.63 0 0 0-.9 1.3c-.1.2-.3.4-.4.6-.6 1-1.2 2-1.7 3l-.3.6-1.2 2.7a3.55 3.55 0 0 0-.4.9c-.1.2-.2.5-.3.7a22.88 22.88 0 0 0-.8 2.8c0 .1 0 .2-.1.2-.3 1.1-.5 2.3-.7 3.5a3.08 3.08 0 0 0-.1 1c-.2 1.3-.3 2.6-.4 3.9-.1 1.2 0 2.5 0 3.7a4.1 4.1 0 0 0 .1 1.1 24.77 24.77 0 0 0 .3 2.7c0 .3.1.7.1 1a34 34 0 0 0 .7 3.4v.1c.3 1.1.6 2.1.9 3.1l.3.9a16 16 0 0 0 1 2.3 3 3 0 0 0 .4.8c.5 1 1 1.9 1.5 2.8 0 .1.1.1.1.2.5.8 1.1 1.6 1.6 2.4a3 3 0 0 1 .5.7l1.5 1.8c.1.1.2.3.3.4a.53.53 0 0 0 .3.2l.6.6a2.65 2.65 0 0 0 .6.5 24.5 24.5 0 0 0 9.3 5.2 21.18 21.18 0 0 0 4.5.7 22.69 22.69 0 0 0 14.2-4.5 1.38 1.38 0 0 1 .4-.3c.7-.5 1.3-1.1 2-1.7l.6-.6.4-.4c.2-.2.4-.5.7-.8a17.33 17.33 0 0 0 1.7-2.1c.2-.2.3-.4.5-.6a14.63 14.63 0 0 0 .9-1.3c.1-.2.3-.4.4-.6.6-1 1.2-2 1.7-3l.3-.6 1.2-2.7.3-.9c.1-.2.2-.5.3-.7a22.88 22.88 0 0 0 .8-2.8c0-.1 0-.2.1-.2a19.82 19.82 0 0 0 .8-3.5z" fill="#e6e7e8"/><path d="M3.58 74.46c.6 14.9 8.9 27.3 20.2 30.3a21.18 21.18 0 0 0 4.5.7c6.6.3 12.8-2.6 17.7-7.5a32.37 32.37 0 0 0 2.9-3.4 38.55 38.55 0 0 0 5.1-9.9 37.16 37.16 0 0 0 1.7-7.5 72 72 0 0 1-52.1-2.7z" fill="#b02024"/><path d="M55.98 69.56a4.1 4.1 0 0 0-.1-1.1 24.77 24.77 0 0 0-.3-2.7c0-.3-.1-.7-.1-1a34 34 0 0 0-.7-3.4v-.1c-.3-1.1-.6-2.1-.9-3.1l-.3-.9a16 16 0 0 0-1-2.3 3 3 0 0 0-.4-.8c-.5-1-1-1.9-1.5-2.8 0-.1-.1-.1-.1-.2-.5-.8-1.1-1.6-1.6-2.4a3 3 0 0 1-.5-.7l-1.5-1.8c-.1-.1-.2-.3-.3-.4a.53.53 0 0 0-.3-.2l-.6-.6a2.65 2.65 0 0 0-.6-.5 24.5 24.5 0 0 0-9.3-5.2 21.18 21.18 0 0 0-4.5-.7 23.17 23.17 0 0 0-14.3 4.5 1.38 1.38 0 0 1-.4.3c-.7.5-1.3 1.1-2 1.7l-.6.6-.4.4c-.2.2-.4.5-.7.8a17.33 17.33 0 0 0-1.7 2.1c-.2.2-.3.4-.5.6a14.63 14.63 0 0 0-.9 1.3c-.1.2-.3.4-.4.6-.6 1-1.2 2-1.7 3l-.3.6-1.2 2.7a6.89 6.89 0 0 0-.3.8c-.1.2-.2.5-.3.7a22.88 22.88 0 0 0-.8 2.8c0 .1 0 .2-.1.2-.3 1.1-.5 2.3-.7 3.5a3.08 3.08 0 0 0-.1 1c-.2 1.3-.3 2.6-.4 3.9a41.75 41.75 0 0 0 .3 7.1v.3c0 .3.1.7.1 1a.37.37 0 0 0 .1.3c.1.8.3 1.5.4 2.3.1.3.1.6.2.8v.1l.3.9c.2.7.4 1.3.6 1.9 0 .1.1.2.1.3l.3.9v.1c.3.7.5 1.4.8 2 0 .1.1.1.1.2s.1.1.1.2l.3.6c0 .1.1.1.1.2.4.8.8 1.5 1.2 2.2.1.1.1.3.2.4s.1.1.1.2a.53.53 0 0 1 .2.3 20.28 20.28 0 0 0 1.3 1.8c0 .1.1.1.1.2l.1.1c.7.9 1.4 1.7 2.1 2.5a.38.38 0 0 0 .2.2.53.53 0 0 0 .3.2l.6.6a1.51 1.51 0 0 1 .4.4l.2.2a18.39 18.39 0 0 0 2.2 1.7 22.63 22.63 0 0 0 2 1.3 1.47 1.47 0 0 0 .4.2c.6.3 1.2.6 1.9.9a1.06 1.06 0 0 0 .5.2 22.5 22.5 0 0 0 2.4.8 18.92 18.92 0 0 0 2.3.5 14.92 14.92 0 0 0 2.1.2h2.2a1.7 1.7 0 0 0 .7-.1 5.9 5.9 0 0 0 1.4-.2 2.92 2.92 0 0 0 .9-.2c.4-.1.8-.2 1.3-.3l.9-.3c.5-.2 1-.4 1.6-.6a10.09 10.09 0 0 0 1.5-.7l.6-.3c.4-.2.9-.5 1.3-.7.2-.1.3-.2.5-.3.4-.3.9-.6 1.4-.9a1.38 1.38 0 0 1 .4-.3c.7-.5 1.3-1.1 2-1.7l.6-.6.4-.4c.2-.2.4-.5.7-.8a17.33 17.33 0 0 0 1.7-2.1c.2-.2.3-.4.5-.6a14.63 14.63 0 0 0 .9-1.3c.1-.1.1-.2.2-.3.7-1.1 1.3-2.2 1.9-3.3l.3-.6 1.2-2.7c.1-.2.1-.4.2-.6.1-.4.3-.7.4-1.1a22.88 22.88 0 0 0 .8-2.8c0-.1 0-.2.1-.2a.37.37 0 0 1 .1-.3c.1-.5.2-1.1.3-1.6s.2-1 .3-1.6a3.08 3.08 0 0 0 .1-1c.2-1.3.3-2.6.4-3.9v-3.1z" fill="none" stroke="#371f0f" stroke-miterlimit="10" stroke-width="1.758"/><path d="M46.08 50.26a23.1 23.1 0 0 1 2.2 3.6 31 31 0 0 1 2.9 8.6 19.67 19.67 0 0 1 .3 2.4 19.27 19.27 0 0 1 .1 2.4 7.94 7.94 0 0 1-.1 2.2 12.31 12.31 0 0 1-.2 2 14.5 14.5 0 0 1-.6 2.9c-.2.7-.3 1.1-.3 1.1s.1-.4.2-1.1a18.51 18.51 0 0 0 .3-2.9 13.33 13.33 0 0 0 0-2 17 17 0 0 0-.1-2.2 20.79 20.79 0 0 0-.3-2.3c-.2-.8-.3-1.6-.5-2.3a26.4 26.4 0 0 0-3.5-7.9 26.48 26.48 0 0 0-2.3-3.1z" fill="#fff"/><path d="M13.38 108.56c.7-.5 1.3-1.1 2-1.7.9-.8 1.8-1.6 2.5-2.3 3.6-3.5 5.5-6 7.3-7.5l-.1-.1a9 9 0 0 1-5.8-4.8 9.48 9.48 0 0 1-.3-8.5l-.1-.2c-3.1 2.4-6.2 4.8-9.1 7.5a30.32 30.32 0 0 0-6.6 7.7 9.29 9.29 0 0 0-.5 1c-.2.5-.5 1-.8 1.6s-.4 1.1-.6 1.7a7.44 7.44 0 0 0-.3 3.3 6.56 6.56 0 0 0 1.9 3.9 5.14 5.14 0 0 0 2.8 1.5 8.22 8.22 0 0 0 2.7-.2 17.7 17.7 0 0 0 5-2.9z" fill="#e2a355"/><path d="M14.68 107.16c.8-.7 1.5-1.4 2.2-2.1 3.2-3.4 5.2-5.1 6.7-6.5l.2-.2 4-3.3c-1.9-.7-5.4-14.3-5.4-14.3l-2.8 2c-.8.6-7.7 5.5-10.8 8.7-.4.4-3 3.6-3.4 4-.2 3.6 4.4 9.1 8.5 12.6.5-.4.4-.6.8-.9z" fill="#b02024"/><path d="M18.78 83.36c-1.7 1.3-3.3 2.6-4.9 3.9a64.71 64.71 0 0 0-7.6 7.2c-3.2 3.8-8.2 10.5-3.4 15.1a5.85 5.85 0 0 0 2.7 1.4 6.26 6.26 0 0 0 2.7-.3 13.32 13.32 0 0 0 4.9-2.8 16.32 16.32 0 0 0 2-1.7l2.6-2.3c2.2-2.1 6.6-6.1 8.5-7.7" fill="none" stroke="#371f0f" stroke-linecap="round" stroke-linejoin="round" stroke-width="1.78"/><path d="M46.78 67.36l-.1-.1c-.6-.6-1.3-1-1.9-1.5-2.3-1.5-4.9-2.3-8.3-4.8-.4.4-1.2 0-2.5-1.9a71.26 71.26 0 0 1-7.1-8c-2.4 2.6-7.4 3.8-8.8 4.1a76.57 76.57 0 0 0 7 11.1c4.7 6 11.1 11.6 18.1 11.2a5.49 5.49 0 0 0 3.8-1.8 3.81 3.81 0 0 0 .9-1.3 5.32 5.32 0 0 0 .7-3 5.66 5.66 0 0 0-1.8-4z" fill="#e2a355"/><path d="M30.08 55.56a10.93 10.93 0 0 1-.8-1.5c-.8-1.1-1.5-2-2.3-3.1-2.4 2.7-7.5 3.9-8.9 4.2a74.7 74.7 0 0 0 6.1 9.7l-.3.3.8.3c.2.3.4.5.6.8h.2a2.27 2.27 0 0 1 .4-.1l.2.1s7.1-2.6 5.6-8.4a4.25 4.25 0 0 0-1.6-2.3z" fill="#e6e7e8"/><path d="M18.28 55.56a96.38 96.38 0 0 0 6.7 10.7c4.7 6 11.1 11.6 18.1 11.2a5.49 5.49 0 0 0 3.8-1.8 3.81 3.81 0 0 0 .9-1.3 5.32 5.32 0 0 0 .7-3c-.1-4.9-5.3-6.3-8.7-8.1a34.6 34.6 0 0 1-10.5-8.9 14.31 14.31 0 0 1-1.1-1.5" fill="none" stroke="#371f0f" stroke-linecap="round" stroke-linejoin="round" stroke-width="1.78"/><path fill="#e2a355" d="M17.88 10.56l-.1-2.7v-.5l.2-1"/><path d="M47.98 9.96c.1-.1.1-.3.2-.4a7.56 7.56 0 0 0 1-3.1c.1-3-1.6-5.5-3.8-5.6s-4.1 2.3-4.2 5.2c-.1 1.1.1.9.5 1.8-1.2-.5-3.1-.5-4.9-.9a26.53 26.53 0 0 0-10.5-.2c-.5.1-7 1.6-6.9 2.1a9.44 9.44 0 0 0-.3-.9c-1.2-2.8-4.1-4.2-6.5-3.2s-3.4 4.2-2.2 7a5.67 5.67 0 0 0 .8 1.3 4.74 4.74 0 0 0 1 1l.2.2a.1.1 0 0 1 .1.1.1.1 0 0 0 .1.1c-2.9 2.4-11.9 12.1 1.8 30.8a.53.53 0 0 0 .3.2 47.35 47.35 0 0 0 19.1 3.5 43.21 43.21 0 0 0 12.1-1.9l1.2-.2a2.54 2.54 0 0 0 .7-.2l.6-.3c.2-.1.4-.3.6-.4a.1.1 0 0 0 .1-.1 7.57 7.57 0 0 0 1.3-1.3s1-1.3 1.4-1.9c.2-.2.3-.4.2-.4a22.68 22.68 0 0 0 2.1-4.1 25.81 25.81 0 0 0 2.1-8.9 24.85 24.85 0 0 0-8.2-19.3z" fill="#e2a355"/><path d="M41.08 7.96l.3.1 1.5.6c.3-5.3 5.8-6.7 5.8-6.7-6.8-4.2-7.5 5.2-7.6 6z" fill="#bd782a"/><path d="M47.28 46.96a6.49 6.49 0 0 0 2.9-2.3 25.45 25.45 0 0 0 3.7-6.4 25.81 25.81 0 0 0 2.1-8.9c.4-7.8-3.1-14.1-8.3-18.7" fill="none" stroke="#371f0f" stroke-linecap="round" stroke-linejoin="round" stroke-width="1.78"/><path d="M19.28 8.96a29.69 29.69 0 0 1 14.5-2.7 30 30 0 0 1 14 4.7" fill="none" stroke="#371f0f" stroke-linecap="round" stroke-linejoin="round" stroke-width="1.78"/><path d="M18.68 46.36c-11.8-15-4-31.7-4-31.7s-2.9-3.6-2.1-6.8c.8-3 4-2.5 4-2.5a.78.78 0 0 0-.4-.4 4.76 4.76 0 0 0-3.7-.1c-2.4 1.1-3.4 4.2-2.2 7a5.67 5.67 0 0 0 .8 1.3 4.74 4.74 0 0 0 1 1 .38.38 0 0 1 .2.2l.1.1s.1 0 0 .1h-.1l-.1.1a.53.53 0 0 1-.3.2 2.65 2.65 0 0 1-.6.5 4.35 4.35 0 0 0-.6.7c-.2.3-.4.5-.6.8a5.5 5.5 0 0 1-.7.9c-.2.3-.4.7-.6 1l-.6 1.2a6.94 6.94 0 0 0-.5 1.3 7.37 7.37 0 0 0-.4 1.4c-.1.2-.1.5-.2.7a1.67 1.67 0 0 1 0 1 24.87 24.87 0 0 0 .6 8.2 39.28 39.28 0 0 0 6.4 12.6l.1.2.2.2h.1a.37.37 0 0 1 .3.1l.4.1c1.1.2 2.2.4 3.2.6h.3z" fill="#bd782a"/><path d="M34.98 21.66c.2 2.9-1.3 5.5-3.5 5.7s-4.1-2-4.4-5 1.3-5.5 3.5-5.7 4.1 2 4.4 5z" fill="#c57a2a"/><path d="M35.28 21.56c.2 2.9-1.3 5.5-3.5 5.7s-4.1-2-4.4-5 1.3-5.5 3.5-5.7 4.2 2 4.4 5z" fill="#371f0f"/><path d="M34.58 20.96c.2 1.9-.3 3.5-1.3 3.6s-1.9-1.3-2.1-3.2.3-3.5 1.3-3.6 1.9 1.4 2.1 3.2z" fill="#fff"/><path d="M50.78 22.16a42.54 42.54 0 0 0-5 .1 7.39 7.39 0 0 1-1.4-3.5c-.2-2.8 1.2-5.3 3.2-5.4s3.8 2 4.1 4.8a5.84 5.84 0 0 1-.9 4z" fill="#c57a2a"/><path d="M51.08 22.16a42.54 42.54 0 0 0-5 .1 7.39 7.39 0 0 1-1.4-3.5c-.2-2.8 1.2-5.3 3.2-5.4s3.8 2 4.1 4.8a5.84 5.84 0 0 1-.9 4z" fill="#371f0f"/><path d="M51.48 17.26c.2 1.7-.3 3.1-1.1 3.3s-1.7-1.2-1.9-2.9.3-3.1 1.1-3.3 1.6 1.2 1.9 2.9z" fill="#fff"/><path d="M46.68 1.56s5.6 1.5.6 8.5c0 0 2.1-5.4-.6-8.5z" fill="#efbc72"/><g opacity=".75"><path d="M27.98 14.06h-.4l-5.3 12.4a8.39 8.39 0 0 0 3.6 2.8l6.5-15.4z" fill="#fff"/><path d="M36.48 13.66l-1.6.1-2.5.1-6.5 15.4a9.75 9.75 0 0 0 2.2.8c.2 0 .5.3.7.3h.2l.1-.3c.2 0 .4-.2.6-.2a6.91 6.91 0 0 0 5.7-5.5l.4-1.9c.2-1.7 1-2.5 2.4-2.6s2.2.7 2.5 2.4l.1.4a8.54 8.54 0 0 0 .9 2.4l5.1-12zM20.88 21.86v.2a8.59 8.59 0 0 0 1.5 4.4l5.2-12.4a7.48 7.48 0 0 0-6.7 7.8zM55.68 20.76a8 8 0 0 0-1.5-4.4 12 12 0 0 0-1.1-1.2 11.8 11.8 0 0 0-1.8-1.3l-6.1 14.6a6.46 6.46 0 0 0 2.1.6c.3 0 .6.1.9.1a1.7 1.7 0 0 0 .7-.1 8.15 8.15 0 0 0 6.8-8.3z" fill="#69dcff"/><path d="M47.58 13.16h-.7l-5.1 12a7.75 7.75 0 0 0 3.4 3.3l6.1-14.5a6.71 6.71 0 0 0-3.7-.8z" fill="#fff"/></g><path d="M57.98 17.26h-1.2a8.8 8.8 0 0 0-1.8-2.9l-.6-.6c-.2-.2-.4-.3-.6-.5a7.61 7.61 0 0 0-1.9-1.2 9 9 0 0 0-4.3-.9h-.3l-10.7.5h-1l-3.1.1-4.2.2h-.5a9.09 9.09 0 0 0-8.3 6.3l-1.3.3a1.07 1.07 0 0 0-1.1 1.2l.2 4.4a1.22 1.22 0 0 0 1.2 1.2h1.2a10 10 0 0 0 1.9 3.1 2.36 2.36 0 0 0 .5.5 8.68 8.68 0 0 0 3.1 2 9.37 9.37 0 0 0 3.7.7h.3a8.61 8.61 0 0 0 8-6.9l.4-1.9v-.2a2.19 2.19 0 0 1 .3-.9c0-.1.2-.1.3-.1s.3 0 .3.1a1.55 1.55 0 0 1 .3.8l.1.5a12.21 12.21 0 0 0 1.8 4 6.89 6.89 0 0 0 1.1 1.3 7.76 7.76 0 0 0 2.4 1.6 8.3 8.3 0 0 0 2.1.6 7.57 7.57 0 0 0 1.5.1h.1a9.14 9.14 0 0 0 6.7-3.2 8.77 8.77 0 0 0 2.1-3.6h1.2a1.07 1.07 0 0 0 1.1-1.2l.2-4.2a1.22 1.22 0 0 0-1.2-1.2zm-9.2 11.7a1.7 1.7 0 0 0-.7.1 2.77 2.77 0 0 1-.9-.1 6.46 6.46 0 0 1-2.1-.6 7.25 7.25 0 0 1-3.4-3.3 9.89 9.89 0 0 1-.9-2.4l-.1-.5c-.3-1.7-1.2-2.4-2.5-2.4s-2.1.9-2.4 2.6l-.4 1.9a6.8 6.8 0 0 1-5.7 5.4 1.27 1.27 0 0 0-.6.1h-1a7.85 7.85 0 0 1-2.2-.5 8 8 0 0 1-5.1-7.2v-.2a7.43 7.43 0 0 1 6.8-7.8h.4l4.5-.2 2.5-.1 1.6-.1 10.3-.5h.7a6.71 6.71 0 0 1 3.7.8 5.94 5.94 0 0 1 1.8 1.3c.4.4.7.8 1.1 1.2a7.29 7.29 0 0 1 1.5 4.4 7.94 7.94 0 0 1-6.9 8.1z" fill="#020b3f"/><path d="M30.68 31.86l1.4-.2a8.69 8.69 0 0 0 1.4 7.5c2.7 3.3 8.9 5.6 8.9 5.6l-.9.3-6.1-2.1-2.5-1.9-2-3.2-.7-3.3.1-1.9.2-.8h.2z" fill="#d7a46e"/><path d="M59.88 26.36c-1.7-3.8-6.6-5.6-12-4.9v-.1a1.75 1.75 0 0 0-.5.1 21.34 21.34 0 0 0-4.6 1.3c-5.4 1.9-13 5.7-12.3 12.3a8.64 8.64 0 0 0 3.8 7.2c.3.2.5.4.8.6a10.91 10.91 0 0 0 1.1.6c.1 0 .2.1.3.1a2.57 2.57 0 0 1 .5.2c.2.1.5.1.7.2s.4.1.6.2.5.1.7.2.6.1.9.2h.4c7.4 1 13.1-3.6 14.8-5.2 4.6-3.8 6.7-9 4.8-13z" fill="#f3cca5"/><path d="M40.48 37.76s3.9 4.4 14 2.1l4.1-5.6h-.4s-2.4-.2-4-4.1c0 0-5.5 8.1-13.7 7.6z" fill="#371f0f"/><path d="M42.68 23.46a2.42 2.42 0 0 1-.1 1.9c-.5.9 2.9.1 2.9.1l4.8-.8a2.77 2.77 0 0 0 .7-.4 5.69 5.69 0 0 1 1.7-1.2 12.33 12.33 0 0 1 1.8-.3s.3-.2-.1-.3-4.2-.4-11.3.6a1.4 1.4 0 0 0-.4.4z" fill="#f6e1cb"/><path d="M55.78 21.46c-.3-.1-.5-.1-.8-.2a19.67 19.67 0 0 0-2.4-.3 26.73 26.73 0 0 0-4 .1c-1.1.1-2.2.2-3.3.4a17.29 17.29 0 0 0-3.1.7 6.94 6.94 0 0 1-1.3.5 15.09 15.09 0 0 0-2.8 1.5l-1.8 1.2v.6c.2-.1.3-.2.5-.3a31.65 31.65 0 0 1 5-2.2 28.41 28.41 0 0 1 5.7-1c1.6-.1 3.3-.2 4.9-.2a7.26 7.26 0 0 1 3.6.7l.1.1c1.9 1.2 6 5 1.8 11.7a26 26 0 0 1-4.9 5.6 14.28 14.28 0 0 1-1.8 1.5 15.41 15.41 0 0 1-13.7 1.9 14.59 14.59 0 0 1-3-1.6 9.51 9.51 0 0 1-3.6-10.8l-1.4.3a17.91 17.91 0 0 0-.2 2.4v.1a14.77 14.77 0 0 0 2 5.8c2 3.4 6.1 6.8 13.9 5.8a20.76 20.76 0 0 0 16-14.8 7.24 7.24 0 0 0-5.4-9.5z" fill="#371f0f"/><path d="M37.28 24.76v-.1l-2.3 1.2a6.76 6.76 0 0 1-5.2 3.9 1.27 1.27 0 0 0-.6.1h-1.1l-.3 1.8c.4 0 .7.1 1.1.1h.3a9 9 0 0 0 8.1-7z" fill="#020b3f"/><path d="M40.38 7.06s.6-7.6 6.5-5.9 1.3 9.1 1.3 9.1" fill="none" stroke="#371f0f" stroke-linecap="round" stroke-linejoin="round" stroke-width="1.829"/><path d="M12.48 14.56a5.93 5.93 0 0 1-2.3-6.8 4.57 4.57 0 0 1 2.7-2.9 4.39 4.39 0 0 1 3.7.3 7.61 7.61 0 0 1 2.8 3.8M12.38 14.66c-4.2 3.6-5.7 9.3-5.2 14.7.5 5.8 3.5 11.1 6.9 15.7.1.1.2.3.3.4" fill="none" stroke="#371f0f" stroke-linecap="round" stroke-linejoin="round" stroke-width="1.78"/><path fill="none" stroke="#020b3f" stroke-linecap="round" stroke-linejoin="round" stroke-width="2.374" d="M17.88 21.86l-9.6 2.8"/><path d="M14.38 45.56a47.54 47.54 0 0 0 16.2 3.6 49 49 0 0 0 16.8-2.2" fill="none" stroke="#371f0f" stroke-linecap="round" stroke-linejoin="round" stroke-width="1.78"/><path d="M52.58 39.36a3.1 3.1 0 0 0 .9-1.9 2.72 2.72 0 0 0-2.6-2.9 2.3 2.3 0 0 0-1.4.4c-4.2 3.4-8.1 3-8.1 3a12.81 12.81 0 0 0 6.6 2.2 11.67 11.67 0 0 0 3.6-.3 8.92 8.92 0 0 0 1-.5z" fill="#ed1c24"/><path d="M52.58 39.26a.79.79 0 0 0-.7-1.1h-.2a.76.76 0 0 0-.4.2c-.2.1-.3.1-.5.2l-1 .3a16.41 16.41 0 0 1-2.3.2 17.85 17.85 0 0 1-2.3-.2 11.8 11.8 0 0 1-2-.4l-1.4-.3-.5-.1a12.81 12.81 0 0 0 6.6 2.2 11.67 11.67 0 0 0 3.6-.3 4.15 4.15 0 0 0 1.1-.7z" fill="#b71327"/><path d="M52.68 38.06s.1-2.1-1.4-2.6" fill="none" stroke="#f74854" stroke-linecap="round" stroke-linejoin="round" stroke-width=".581"/><path d="M35.28 35.66a9.22 9.22 0 0 0 7.3 2.1c3.7-.4 6.9-2.7 9.5-5.3.7-.7 1.4-1.5 2.1-2.3 0 0 1.1 3.7 4.7 4.2" fill="none" stroke="#371f0f" stroke-linecap="round" stroke-linejoin="round" stroke-width="1.055"/><path d="M57.48 27.06s-1 2.7-2.6 3h-.5a5.82 5.82 0 0 1-2.9-1.6s-3.4-3.4-.8-4.7a6.26 6.26 0 0 1 2.2-.7 10 10 0 0 1 3.3.2c2.4.8 1.3 3.8 1.3 3.8z" fill="#683113"/><path d="M54.48 30.16a5.82 5.82 0 0 1-2.9-1.6s-3.4-3.4-.8-4.7a6.26 6.26 0 0 1 2.2-.7 3.06 3.06 0 0 0-1 3.4 8.37 8.37 0 0 0 2.5 3.6z" fill="#371f0f"/><path d="M56.98 23.96a3.83 3.83 0 0 0-3.2-.6c-.8.3 1.6.6 2.1 1.1a4.32 4.32 0 0 1 .8 1.9.76.76 0 0 0 .2.4.52.52 0 0 0 .2-.4 1.91 1.91 0 0 0-.1-2.4z" fill="#995728"/></svg>