<svg xmlns="http://www.w3.org/2000/svg" viewBox="0 0 54.37 112.37"><path d="M35.83 104.02c-.1-.8-.2-1.6-.3-2.5l-.3-3.3c-.3-4.8-.1-7.7-.4-9.9l.1-.1a8.66 8.66 0 0 0 7.1.4 8.38 8.38 0 0 0 5.6-5.7l.2-.1a106 106 0 0 1 1.6 11.1 30.86 30.86 0 0 1-.2 9.6c-.1.3-.2.7-.3 1-.2.5-.3 1.1-.5 1.6l-.6 1.5a9.2 9.2 0 0 1-1.9 2.5 6.67 6.67 0 0 1-3.8 1.5 4.89 4.89 0 0 1-2.9-.8 8.13 8.13 0 0 1-1.8-1.9 14.14 14.14 0 0 1-1.6-4.9z" fill="#e2a355"/><path d="M35.83 102.22c-.1-1-.1-2-.2-2.9-.1-4.4-.4-6.9-.6-8.8v-.3l-.7-4.9c1.8.7 12.9-6.5 12.9-6.5l.7 3.2a102.82 102.82 0 0 1 2.1 13c0 .5.3 2.9.3 3.4-2.1 2.6-6.8 4.9-14.3 5.2a3.4 3.4 0 0 1-.2-1.4z" fill="#b02024"/><path d="M47.33 79.62c.6 3.1 1.2 6.2 1.6 9.4a54.37 54.37 0 0 1 .8 9.9c-.1 4.7-.9 12.6-7.2 12.6a5.38 5.38 0 0 1-2.8-.8 6.14 6.14 0 0 1-1.7-1.9 15.35 15.35 0 0 1-1.7-5.1c-.1-.8-.2-1.7-.3-2.5l-.3-3.3c-.3-5-1-10.1-1.3-12.3" fill="none" stroke="#371f0f" stroke-linecap="round" stroke-linejoin="round" stroke-width="1.687"/><path d="M42.63 55.62a93.68 93.68 0 0 0-9.6-10.9 25.33 25.33 0 0 1-7 4.6l.3.4c.4.4.8.9 1.3 1.4 2.6 2.9 9.2 11.1 9.8 19.1.7 1.6 1.1 2.9 1.3 3.4a9.49 9.49 0 0 0 .9 2.1c0 .1.1.1.1.2a4.73 4.73 0 0 0 3 2.6 3.87 3.87 0 0 0 2.6 0 6.12 6.12 0 0 0 1.2-.5 4.73 4.73 0 0 0 2.1-3.1c1.5-6.3-1.9-13.5-6-19.3z" fill="#e2a355"/><path d="M33.53 45.32a.35.35 0 0 0-.4-.1l-.1-.3-1.7-1-2.5 1.9-3.6 2.8.5.6c1.7 1.8 2.8 2.9 3.6 3.9l5 7.5a17.78 17.78 0 0 0 4.4-1.2c.1 0 .1-.1.2-.1a2.18 2.18 0 0 0 .8-.5c.3-.2.5-.4.8-.6a5.56 5.56 0 0 0 2.1-2.4c0-.1.1-.1.1-.2a78.74 78.74 0 0 0-9.2-10.3z" fill="#e6e7e8"/><path d="M26.63 49.82a40.12 40.12 0 0 1 10.5 18c.6 2.6.7 5.3 1.7 7.7 1.2 3 4.5 4.6 7.3 2.6 2.5-1.8 2.7-5.6 2.4-8.3a26.82 26.82 0 0 0-2.1-6.8 50.61 50.61 0 0 0-8.2-12.6 47.74 47.74 0 0 0-6.6-6.1" fill="none" stroke="#371f0f" stroke-linecap="round" stroke-linejoin="round" stroke-width="1.566"/><path d="M50.63 72.92c0-.3.1-.6.1-.9.1-1.2.2-2.4.2-3.7 0-1.2-.1-2.3-.2-3.5 0-.3-.1-.7-.1-1a21.66 21.66 0 0 0-.4-2.5c-.1-.3-.1-.6-.2-.9a29.92 29.92 0 0 0-.8-3.2v-.1c-.3-1-.6-1.9-1-2.9a2 2 0 0 0-.4-.8c-.3-.7-.7-1.4-1-2.1-.1-.2-.3-.5-.4-.7a22.61 22.61 0 0 0-1.6-2.6.38.38 0 0 0-.2-.2 18.39 18.39 0 0 0-1.7-2.2l-.6-.6c-.5-.6-1-1.1-1.5-1.6a1.38 1.38 0 0 1-.3-.4c-.1-.1-.2-.1-.3-.2s-.4-.3-.6-.5-.4-.3-.6-.5a21.43 21.43 0 0 0-9.1-4.4 20.24 20.24 0 0 0-4.3-.5 21.46 21.46 0 0 0-13.4 4.9l-.3.3c-.6.5-1.2 1.1-1.8 1.7l-.6.6-.4.4a5.55 5.55 0 0 0-.6.8c-.5.6-1.1 1.3-1.6 2-.1.2-.3.4-.4.6-.3.4-.5.8-.8 1.2-.1.2-.3.4-.4.6-.5.9-1 1.9-1.5 2.9a1.42 1.42 0 0 0-.2.6 27.73 27.73 0 0 0-1 2.6l-.3.9a1.85 1.85 0 0 0-.2.7c-.2.9-.5 1.7-.7 2.6v.2c-.2 1.1-.4 2.2-.5 3.3 0 .3-.1.6-.1.9.1 1.1 0 2.4 0 3.6 0 1.2.1 2.3.2 3.5 0 .3.1.7.1 1a21.66 21.66 0 0 0 .4 2.5c.1.3.1.6.2.9a29.92 29.92 0 0 0 .8 3.2v.1c.3 1 .6 1.9 1 2.9a2 2 0 0 0 .4.8c.3.7.7 1.4 1 2.1.1.2.3.5.4.7a22.61 22.61 0 0 0 1.6 2.6.38.38 0 0 0 .2.2 18.39 18.39 0 0 0 1.7 2.2 2.65 2.65 0 0 1 .5.6c.5.6 1 1.1 1.5 1.6a1.38 1.38 0 0 1 .3.4c.1.1.2.1.3.2s.4.3.6.5.4.3.6.5a21.43 21.43 0 0 0 9.1 4.4 20.24 20.24 0 0 0 4.3.5 21.46 21.46 0 0 0 13.4-4.9l.3-.3c.6-.5 1.2-1.1 1.8-1.7l.6-.6.4-.4a5.55 5.55 0 0 0 .6-.8c.5-.6 1.1-1.3 1.6-2 .1-.2.3-.4.4-.6.3-.4.5-.8.8-1.2.1-.2.3-.4.4-.6.5-.9 1-1.9 1.5-2.9a1.42 1.42 0 0 0 .2-.6 27.73 27.73 0 0 0 1-2.6l.3-.9a1.85 1.85 0 0 0 .2-.7c.2-.9.5-1.7.7-2.6v-.2c.1-1 .2-2.1.4-3.2z" fill="#e6e7e8"/><path d="M1.03 71.72c1.2 14 9.7 25.2 20.6 27.6a20.24 20.24 0 0 0 4.3.5c6.3 0 12.1-3 16.5-7.8a29.11 29.11 0 0 0 2.6-3.3 33.09 33.09 0 0 0 4.4-9.5 33 33 0 0 0 1.3-7.1c-24 9-44.6 1.8-49.7-.4z" fill="#b02024"/><path d="M50.73 64.82c0-.3-.1-.7-.1-1a21.66 21.66 0 0 0-.4-2.5c-.1-.3-.1-.6-.2-.9a29.92 29.92 0 0 0-.8-3.2v-.1c-.3-1-.6-1.9-1-2.9a2 2 0 0 0-.4-.8c-.3-.7-.7-1.4-1-2.1-.1-.2-.3-.5-.4-.7a22.61 22.61 0 0 0-1.6-2.6.38.38 0 0 0-.2-.2 18.39 18.39 0 0 0-1.7-2.2l-.6-.6c-.5-.6-1-1.1-1.5-1.6a1.38 1.38 0 0 1-.3-.4c-.1-.1-.2-.1-.3-.2s-.4-.3-.6-.5-.4-.3-.6-.5a21.43 21.43 0 0 0-9.1-4.4 20.24 20.24 0 0 0-4.3-.5 21.46 21.46 0 0 0-13.4 4.9l-.3.3c-.6.5-1.2 1.1-1.8 1.7l-.6.6-.4.4a5.55 5.55 0 0 0-.6.8c-.5.6-1.1 1.3-1.6 2-.1.2-.3.4-.4.6-.3.4-.5.8-.8 1.2-.1.2-.3.4-.4.6-.5.9-1 1.9-1.5 2.9a1.42 1.42 0 0 0-.2.6 27.73 27.73 0 0 0-1 2.6l-.3.9a1.85 1.85 0 0 0-.2.7c-.2.9-.5 1.7-.7 2.6v.2c-.2 1.1-.4 2.2-.5 3.3 0 .3-.1.6-.1.9.1 1.1 0 2.4 0 3.6a37.93 37.93 0 0 0 .6 6.7v.3c.1.3.1.6.2.9a.37.37 0 0 0 .1.3c.2.7.3 1.4.5 2.1.1.3.1.5.2.8v.1c.1.3.2.5.3.8l.6 1.8c0 .1.1.2.1.3a2 2 0 0 0 .4.8v.1c.3.6.6 1.3.9 1.9 0 .1.1.1.1.2s.1.1.1.2a3.33 3.33 0 0 1 .3.6c0 .1.1.1.1.2l1.2 2.1c.1.1.1.3.2.4a.38.38 0 0 0 .2.2.53.53 0 0 1 .2.3 19.22 19.22 0 0 0 1.3 1.7c0 .1.1.1.1.2l.1.1c.7.8 1.4 1.6 2.1 2.3l.2.2c.1.1.2.1.3.2s.4.3.6.5.3.2.4.3.1.1.2.1l2.1 1.5a19.83 19.83 0 0 0 2 1.1 1.47 1.47 0 0 0 .4.2c.6.3 1.2.5 1.8.8.2.1.3.1.5.2a8.65 8.65 0 0 0 2.3.6 17 17 0 0 0 2.2.4 14.77 14.77 0 0 0 2.1.1 14.77 14.77 0 0 0 2.1-.1c.2 0 .5-.1.7-.1.5-.1.9-.1 1.4-.2.3-.1.6-.1.8-.2l1.2-.3.9-.3 1.5-.6c.5-.2.9-.5 1.4-.7l.6-.3c.4-.2.8-.5 1.2-.7.2-.1.3-.2.5-.3a14.63 14.63 0 0 1 1.3-.9l.3-.3c.6-.5 1.2-1.1 1.8-1.7l.6-.6.4-.4a5.55 5.55 0 0 0 .6-.8c.5-.6 1.1-1.3 1.6-2 .1-.2.3-.4.4-.6.3-.4.5-.8.8-1.2.1-.1.1-.2.2-.3a32.39 32.39 0 0 0 1.7-3.2 1.42 1.42 0 0 0 .2-.6 27.73 27.73 0 0 0 1-2.6c.1-.2.1-.4.2-.6s.2-.7.3-1c.2-.9.5-1.7.7-2.6v-.5a7.72 7.72 0 0 0 .2-1.5 7.72 7.72 0 0 0 .2-1.5c0-.3.1-.6.1-.9.1-1.2.2-2.4.2-3.7 0-1.5-.1-2.6-.2-3.8z" fill="none" stroke="#371f0f" stroke-miterlimit="10" stroke-width="1.665"/><path d="M40.43 47.22a22.07 22.07 0 0 1 2.2 3.3 25.69 25.69 0 0 1 3.1 8 18.46 18.46 0 0 1 .4 2.3 18 18 0 0 1 .2 2.2 14.72 14.72 0 0 1 0 2.1c0 .7-.1 1.3-.1 1.9-.1 1.2-.3 2.1-.4 2.7a6.47 6.47 0 0 1-.2 1 6.73 6.73 0 0 1 .1-1 19.1 19.1 0 0 0 .2-2.8v-1.8c-.1-.6-.1-1.3-.2-2a15.52 15.52 0 0 0-.4-2.1c-.2-.7-.3-1.4-.6-2.2a29.19 29.19 0 0 0-3.6-7.3 25.08 25.08 0 0 0-2.3-2.8z" fill="#fff"/><path d="M17.43 105.92a16 16 0 0 0 1-2.3c.5-1 .9-2 1.3-3 1.7-4.5 2.4-7.3 3.4-9.3l-.2-.1a8.34 8.34 0 0 1-6.9-1.8 8.47 8.47 0 0 1-3.6-7.1l-.2-.2a94 94 0 0 0-4.9 10.1c-1.2 3-2.5 6-2.7 9.3v1a8.55 8.55 0 0 0 0 1.6c0 .6.1 1.1.1 1.7a10.6 10.6 0 0 0 1 3 6.32 6.32 0 0 0 3.1 2.5 5.12 5.12 0 0 0 3 .1 5.92 5.92 0 0 0 2.3-1.3 11.23 11.23 0 0 0 3.3-4.2z" fill="#e2a355"/><path d="M17.93 104.22c.4-.9.7-1.8 1-2.7a53.06 53.06 0 0 1 3.3-8.2.35.35 0 0 1 .1-.2l2.1-4.4c-1.9.1-10.3-10-10.3-10l-1.6 2.8a93.57 93.57 0 0 0-5.9 11.7c-.2.5-1.2 4.3-1.3 4.8 1.2 3.2 7.4 6 12.3 7.3a3 3 0 0 0 .3-1.1z" fill="#b02024"/><path d="M12.13 82.22c-.9 1.8-1.8 3.5-2.7 5.3a49.15 49.15 0 0 0-3.7 9.2c-1.3 4.5-3 12.2 3.1 14.2a4.79 4.79 0 0 0 2.9.1 7.55 7.55 0 0 0 2.3-1.3 13.83 13.83 0 0 0 3.2-4.4 16 16 0 0 0 1-2.3c.5-1 .9-2.1 1.3-3 1.1-2.7 2.2-5.4 3.2-7.6" fill="none" stroke="#371f0f" stroke-linecap="round" stroke-linejoin="round" stroke-width="1.687"/><path d="M32.03 67.62l-.1-.1a14 14 0 0 0-1.3-1.8c-1.7-2-3.8-3.4-6.3-6.7-.5.2-1.1-.3-1.7-2.4a60.16 60.16 0 0 1-4.3-9.2c-2.9 1.7-7.8 1.4-9.2 1.3a77.62 77.62 0 0 0 3.3 11.9c2.7 6.7 7 13.5 13.4 15.1a5.45 5.45 0 0 0 4-.5 4.7 4.7 0 0 0 1.2-.9 5.79 5.79 0 0 0 1.5-2.5 5.61 5.61 0 0 0-.5-4.2z" fill="#e2a355"/><path d="M19.93 52.32c-.1-.5-.3-1-.4-1.6-.5-1.2-.8-2.2-1.2-3.4-2.9 1.8-7.9 1.4-9.3 1.3a68.47 68.47 0 0 0 2.9 10.4l-.3.2.6.5.3.9h.6l.1.1s7.2-.4 7.4-6a3.15 3.15 0 0 0-.7-2.4z" fill="#e6e7e8"/><path d="M9.23 49.02a81.32 81.32 0 0 0 3.2 11.5c2.7 6.7 7 13.5 13.4 15.1a5.45 5.45 0 0 0 4-.5 4.7 4.7 0 0 0 1.2-.9 5.79 5.79 0 0 0 1.5-2.5c1.3-4.4-3.1-7.1-5.8-9.7a34.49 34.49 0 0 1-7.2-10.9c-.2-.5-.4-1.1-.6-1.7" fill="none" stroke="#371f0f" stroke-linecap="round" stroke-linejoin="round" stroke-width="1.687"/><path fill="#e2a355" d="M11.83 11.22l-.2-2.6v-.5l.1-1"/><path d="M40.53 9.22a1.47 1.47 0 0 0 .2-.4 5.57 5.57 0 0 0 .8-3c0-2.8-1.7-5.1-3.8-5.1s-3.8 2.3-3.8 5.1a2.52 2.52 0 0 0 .6 1.7c-1.2-.4-3-.3-4.7-.6a24.05 24.05 0 0 0-10 .3c-.5.1-6.6 1.8-6.5 2.3a3.39 3.39 0 0 0-.3-.8c-1.3-2.6-4.1-3.8-6.4-2.7s-3.1 4.1-1.8 6.7a8.34 8.34 0 0 0 .8 1.2 2.84 2.84 0 0 0 1 .9c.1 0 .1.1.2.1a.1.1 0 0 1 .1.1.1.1 0 0 0 .1.1c-2.6 2.4-10.8 11.9 3 28.8.1.1.2.1.3.2a45.11 45.11 0 0 0 18.3 2.4 45.64 45.64 0 0 0 11.5-2.3l1.1-.2a1.42 1.42 0 0 0 .6-.2 2.19 2.19 0 0 0 .5-.3c.2-.1.4-.3.6-.4a.1.1 0 0 0 .1-.1 6 6 0 0 0 1.2-1.3s.9-1.3 1.2-1.9l.2-.4a17 17 0 0 0 1.8-3.9 23.79 23.79 0 0 0 1.6-8.5 22.94 22.94 0 0 0-8.5-17.8z" fill="#e2a355"/><path d="M33.83 7.62l.3.1 1.4.5c.1-4.9 5.3-6.6 5.3-6.6-6.7-3.6-7 5.3-7 6z" fill="#bd782a"/><path d="M41.53 44.02a6 6 0 0 0 2.7-2.3 21.5 21.5 0 0 0 3.2-6.2 23.79 23.79 0 0 0 1.6-8.5c0-7.3-3.6-13.1-8.7-17.2" fill="none" stroke="#371f0f" stroke-linecap="round" stroke-linejoin="round" stroke-width="1.687"/><path d="M13.13 9.52a30.21 30.21 0 0 1 13.7-3.2 28.79 28.79 0 0 1 13.6 3.8" fill="none" stroke="#371f0f" stroke-linecap="round" stroke-linejoin="round" stroke-width="1.687"/><path d="M14.13 44.72c-11.8-13.5-5.1-29.6-5.1-29.6s-2.9-3.3-2.3-6.3a3.46 3.46 0 0 1 3.7-2.6 1.06 1.06 0 0 0-.5-.2 3.92 3.92 0 0 0-3.5.1c-2.3 1.1-3.1 4.1-1.8 6.7a8.34 8.34 0 0 0 .8 1.2 4.3 4.3 0 0 0 1 .9.38.38 0 0 1 .2.2.1.1 0 0 1 .1.1s.1 0 0 .1h-.1l-.1.1a.38.38 0 0 0-.2.2 2.36 2.36 0 0 1-.5.5 4.35 4.35 0 0 0-.6.7c-.2.3-.4.5-.6.8l-.6.9c-.2.3-.4.7-.6 1a5.36 5.36 0 0 0-.5 1.1 5.64 5.64 0 0 0-.4 1.2c-.1.4-.2.9-.3 1.4 0 .2-.1.5-.1.7s-.1.5-.1.7a25 25 0 0 0 .9 7.7 35.75 35.75 0 0 0 6.7 11.6l.1.1.2.2h.9c1 .2 2.1.3 3.1.4z" fill="#bd782a"/><ellipse cx="33.09" cy="23" rx="3.7" ry="5" transform="rotate(-7.5 15.457 84.445)" fill="#c57a2a"/><ellipse cx="33.39" cy="22.9" rx="3.7" ry="5" transform="rotate(-7.5 15.772 84.312)" fill="#371f0f"/><ellipse cx="34.81" cy="22.3" rx="1.6" ry="3.2" transform="rotate(-9.78 20.34 69.146)" fill="#fff"/><path d="M43.73 20.52a27.41 27.41 0 0 0-4.8.4 5.55 5.55 0 0 1-1.4-3.2c-.3-2.6.9-5 2.8-5.2s3.7 1.7 4.1 4.3a4.66 4.66 0 0 1-.7 3.7z" fill="#c57a2a"/><path d="M44.03 20.52a27.41 27.41 0 0 0-4.8.4 5.55 5.55 0 0 1-1.4-3.2c-.3-2.6.9-5 2.8-5.2s3.7 1.7 4.1 4.3a5.64 5.64 0 0 1-.7 3.7z" fill="#371f0f"/><ellipse cx="50.91" cy="17.99" rx="1.4" ry="2.9" transform="rotate(-10.27 36.95 62.55)" fill="#fff"/><path d="M38.93 1.42s5.4 1.2 1 7.9c-.1 0 1.7-5.1-1-7.9z" fill="#efbc72"/><g opacity=".75"><path d="M21.63 13.92h-.3l-4.5 12a8.06 8.06 0 0 0 3.5 2.5l5.5-14.9z" fill="#fff"/><path d="M29.73 13.22l-1.5.1-2.4.2-5.6 14.8a15.52 15.52 0 0 0 2.1.4h1a.75.75 0 0 0 .5-.1 6.37 6.37 0 0 0 5.2-5.3l.3-1.8c.1-1.6.8-2.4 2.1-2.5s2.1.5 2.5 2.1l.1.4a7.39 7.39 0 0 0 1 2.2l4.3-11.5zM15.13 21.62v.2a7.72 7.72 0 0 0 1.6 4.1l4.5-11.9a7.08 7.08 0 0 0-6.1 7.6zM48.33 19.02a7.72 7.72 0 0 0-1.6-4.1 11.41 11.41 0 0 0-1.1-1.1 10.81 10.81 0 0 0-1.8-1.1l-5.2 13.9a6.47 6.47 0 0 0 2 .4h.8a2 2 0 0 0 .7-.1 7.31 7.31 0 0 0 6.2-7.9z" fill="#69dcff"/><path d="M40.23 12.22l-.7.1-4.3 11.5a7.15 7.15 0 0 0 3.3 2.9l5.3-13.9a7.22 7.22 0 0 0-3.6-.6z" fill="#fff"/></g><path d="M50.33 15.72l-1.1.1a8.32 8.32 0 0 0-1.9-2.6 2.36 2.36 0 0 1-.5-.5 2.09 2.09 0 0 0-.6-.4 8.11 8.11 0 0 0-1.8-1 9.79 9.79 0 0 0-4.2-.7h-.2l-10.2.8-.9.1-2.9.3-4 .4h-.5a8.83 8.83 0 0 0-6 3.1 7.63 7.63 0 0 0-1.7 3.2l-1.3.1a1.11 1.11 0 0 0-1 1.2l.4 4.2a1.11 1.11 0 0 0 1.2 1l1.2-.1a10.65 10.65 0 0 0 1.9 2.8l.5.5a9.68 9.68 0 0 0 3.1 1.8 8.52 8.52 0 0 0 3.6.4h.3a8.39 8.39 0 0 0 7.4-6.8l.3-1.8v-.2a1.09 1.09 0 0 1 .2-.8c0-.1.1-.1.3-.1h.3a1.55 1.55 0 0 1 .3.8l.1.4a10.8 10.8 0 0 0 1.9 3.7 12 12 0 0 0 1.1 1.2 7.89 7.89 0 0 0 2.3 1.4 11.7 11.7 0 0 0 2 .5 6.6 6.6 0 0 0 1.4.1h.1a9.13 9.13 0 0 0 6.3-3.3 8 8 0 0 0 1.8-3.4l1.1-.1a1.11 1.11 0 0 0 1-1.2l-.4-4.2c.3-.5-.3-1-.9-.9zm-8.2 11.3c-.2 0-.4.1-.7.1h-.8a6.47 6.47 0 0 1-2-.4 6.7 6.7 0 0 1-3.3-2.9 14.72 14.72 0 0 1-1-2.2l-.1-.4c-.4-1.6-1.2-2.2-2.5-2.1s-2 1-2.1 2.5l-.3 1.8a6.61 6.61 0 0 1-5.2 5.3 4.33 4.33 0 0 0-.5.1h-1a4.92 4.92 0 0 1-2.1-.4 7.33 7.33 0 0 1-3.5-2.5 7.13 7.13 0 0 1-1.6-4.1v-.2a7.08 7.08 0 0 1 6.1-7.6h.3l4.3-.4 2.4-.2 1.5-.1 9.8-.9.6-.1a7.22 7.22 0 0 1 3.6.6 7.84 7.84 0 0 1 1.8 1.1 11.41 11.41 0 0 1 1.1 1.1 7.13 7.13 0 0 1 1.6 4.1 7.75 7.75 0 0 1-6.4 7.8z" fill="#020b3f"/><path d="M25.03 30.62l1.3-.2a8 8 0 0 0 1.6 7c2.7 3 8.7 4.9 8.7 4.9l-.8.3-5.9-1.7-2.5-1.7-2-2.9-.8-3.1v-1.7l.1-.8z" fill="#d7a46e"/><path d="M52.63 24.12c-1.8-3.5-6.5-4.9-11.7-4v-.1a1.75 1.75 0 0 0-.5.1 23.94 23.94 0 0 0-4.3 1.4c-5.1 2-12.1 5.9-11.2 12.1a7.79 7.79 0 0 0 3.9 6.6c.3.2.5.3.8.5a3.7 3.7 0 0 0 1.1.5c.1 0 .2.1.3.1a2.57 2.57 0 0 1 .5.2c.2.1.5.1.7.2s.4.1.6.2.4.1.7.1.5.1.8.2h.3c7.1.6 12.4-4 13.9-5.6 4.2-3.9 6-8.8 4.1-12.5z" fill="#f3cca5"/><path d="M34.53 35.72s3.9 4 13.5 1.3l3.7-5.5h-.4s-2.3-.1-4-3.7c0 .1-4.9 8-12.8 7.9z" fill="#371f0f"/><path d="M36.03 22.22a2.42 2.42 0 0 1 0 1.8c-.4.8 2.8 0 2.8 0l4.5-.9a1.72 1.72 0 0 0 .6-.4 4.19 4.19 0 0 1 1.6-1.2 11.9 11.9 0 0 1 1.7-.3s.2-.2-.1-.3-4-.1-10.8 1.1a.24.24 0 0 0-.3.2z" fill="#f6e1cb"/><path d="M48.43 19.62a2 2 0 0 0-.8-.1 17.7 17.7 0 0 0-2.3-.1 23.4 23.4 0 0 0-3.8.3c-1 .1-2.1.3-3.1.5a16.66 16.66 0 0 0-3 .8l-1.2.6a22 22 0 0 0-2.6 1.5c-.6.4-1.1.8-1.7 1.2v.5c.2-.1.3-.2.5-.3a40.86 40.86 0 0 1 4.7-2.3 26.19 26.19 0 0 1 5.4-1.2c1.6-.2 3.1-.3 4.7-.4a8.28 8.28 0 0 1 3.5.5.1.1 0 0 1 .1.1c1.9 1 6 4.4 2.2 10.9a23.89 23.89 0 0 1-4.4 5.5c-.5.5-1 1-1.6 1.5a14.67 14.67 0 0 1-13 2.3 12.83 12.83 0 0 1-2.9-1.4 8.89 8.89 0 0 1-3.9-10l-1.3.3a17 17 0 0 0-.1 2.3v.1a12.67 12.67 0 0 0 2.2 5.3c2.1 3.1 6.1 6.1 13.5 4.8a19.93 19.93 0 0 0 14.6-14.6c.2.1 1.6-7-5.7-8.6z" fill="#371f0f"/><path d="M30.93 23.62v-.1l-2.2 1.3a6.4 6.4 0 0 1-4.8 3.9 4.33 4.33 0 0 0-.5.1h-1.1l-.2 1.7a3.35 3.35 0 0 0 1 0h.3a8.4 8.4 0 0 0 7.5-6.9z" fill="#020b3f"/><path d="M33.13 6.92s.3-7.2 5.9-5.9c5.8 1.3 1.7 8.4 1.7 8.4" fill="none" stroke="#371f0f" stroke-linecap="round" stroke-linejoin="round" stroke-width="1.733"/><path d="M6.83 15.12a5.57 5.57 0 0 1-2.5-6.3 4.64 4.64 0 0 1 2.4-2.9 3.92 3.92 0 0 1 3.5.1 7.17 7.17 0 0 1 2.9 3.5M6.83 15.22c-3.9 3.6-5 9-4.3 14.1.8 5.5 3.8 10.3 7.3 14.5.1.1.2.3.3.4" fill="none" stroke="#371f0f" stroke-linecap="round" stroke-linejoin="round" stroke-width="1.687"/><path fill="none" stroke="#020b3f" stroke-linecap="round" stroke-linejoin="round" stroke-width="2.249" d="M12.33 21.72l-9 3.1"/><path d="M10.03 44.12a47.9 47.9 0 0 0 15.7 2.7 45.85 45.85 0 0 0 15.9-2.8" fill="none" stroke="#371f0f" stroke-linecap="round" stroke-linejoin="round" stroke-width="1.687"/><path d="M46.13 36.62a2.87 2.87 0 0 0 .7-1.8 2.58 2.58 0 0 0-2.6-2.6 3.26 3.26 0 0 0-1.4.4 11.65 11.65 0 0 1-7.6 3.2 12.54 12.54 0 0 0 6.4 1.8 11.62 11.62 0 0 0 3.4-.5 2.72 2.72 0 0 0 1.1-.5z" fill="#ed1c24"/><path d="M46.13 36.62a.79.79 0 0 0-.7-1.1h-.2a1.42 1.42 0 0 0-.4.2c-.1.1-.3.1-.4.2-.3.1-.6.2-1 .3a14.6 14.6 0 0 1-2.2.3 16.2 16.2 0 0 1-2.2-.1c-.7-.1-1.3-.1-1.9-.2l-1.4-.3-.5-.1a12.54 12.54 0 0 0 6.4 1.8 11.62 11.62 0 0 0 3.4-.5 2.72 2.72 0 0 0 1.1-.5z" fill="#b71327"/><path d="M46.23 35.42s0-2-1.4-2.4" fill="none" stroke="#f74854" stroke-linecap="round" stroke-linejoin="round" stroke-width=".55"/><path d="M29.53 33.92a9.41 9.41 0 0 0 7.1 1.7c3.5-.6 6.5-2.9 8.8-5.4a21.1 21.1 0 0 0 1.9-2.3s1.2 3.4 4.6 3.7" fill="none" stroke="#371f0f" stroke-linecap="round" stroke-linejoin="round"/><path d="M50.33 24.92s-.9 2.6-2.3 3c-.2 0-.3.1-.5.1a5.32 5.32 0 0 1-2.9-1.4s-3.4-3-1-4.4a5.79 5.79 0 0 1 2.1-.7 9.65 9.65 0 0 1 3.2 0c2.3.5 1.4 3.4 1.4 3.4z" fill="#683113"/><path d="M47.53 27.92a5.32 5.32 0 0 1-2.9-1.4s-3.4-3-1-4.4a5.79 5.79 0 0 1 2.1-.7 2.9 2.9 0 0 0-.8 3.2 12 12 0 0 0 2.6 3.3z" fill="#371f0f"/><path d="M49.73 22.02a3.67 3.67 0 0 0-3-.4c-.7.3 1.5.5 2.1 1a5.65 5.65 0 0 1 .9 1.7.54.54 0 0 0 .3.4.52.52 0 0 0 .2-.4c-.1 0 .4-1.7-.5-2.3z" fill="#995728"/></svg>