<svg xmlns="http://www.w3.org/2000/svg" viewBox="0 0 54.28 118.77"><defs><clipPath id="a" transform="translate(-13.03 -1.46)"><path d="M50.6 86.3A58.78 58.78 0 0 1 35 88.7a55.58 55.58 0 0 1-16.8-2.4l3.9-22.9h24.6z" fill="none"/></clipPath></defs><path d="M31.67 89.04c-.1 3.4-.4 6.9-.8 10.6-.4 4.1-1 8-1.6 11.7h-6.1c-.8-8.3-2.4-18.6.6-22.7zM19.07 89.04c-.1 3.4-.4 6.9-.8 10.6-.4 4.1-1 8-1.6 11.7h-6.1c-.8-8.3-2.4-18.6.6-22.7z" fill="#ffc19f"/><path d="M30.27 113.14c-.1-.3-.2-2.6-.3-2.9s-7.4.2-7.4.7c0 1 .4 6.1.5 7.3 0 0 11.5 1.4 13.3-.4-.1-2.9-2.2-3.6-6.1-4.7z" fill="#754c24"/><path d="M22.97 117.44v.7s11.6 1.6 13.3-.3a.19.19 0 0 0 0-.3c-3.1 1-10.4.3-13.3-.1z" fill="#b3b3b3"/><path d="M29.87 110.14c-.1-.3-7.4.2-7.4.7l.1 2.1 7.4-1.1a4.42 4.42 0 0 0-.1-1.7z" fill="#1c000b"/><path d="M30.27 109.94c-.1-.2-8.1.2-8 .6s.1.9.1 1.7l8.2-.4c-.2-.7-.2-1.7-.3-1.9z" fill="#e6e6e6"/><path d="M31.27 113.44a.16.16 0 1 0 .1-.3 2 2 0 0 0-1.9 1c-.1.1 0 .2.1.2h.1c.1 0 .1 0 .1-.1a1.35 1.35 0 0 1 1.5-.8zm1 .3a.2.2 0 1 0 0-.4 2.52 2.52 0 0 0-2 .9.14.14 0 0 0 0 .2h.1a.1.1 0 0 0 .1-.1 3.14 3.14 0 0 1 1.8-.6zm1 .1a2.36 2.36 0 0 0-2 .9c-.1.1-.1.2 0 .2h.1a.1.1 0 0 0 .1-.1 2.3 2.3 0 0 1 1.8-.8.22.22 0 0 0 .2-.2c0-.1-.1 0-.2 0z" fill="#e9edf4"/><path d="M17.77 113.14c-.1-.3-.2-2.6-.3-2.9s-7.4.2-7.4.7c0 1 .4 6.1.5 7.3 0 0 11.5 1.4 13.3-.4-.1-2.9-2.2-3.6-6.1-4.7z" fill="#754c24"/><path d="M10.47 117.44v.7s11.6 1.6 13.3-.3a.19.19 0 0 0 0-.3c-3.1 1-10.4.3-13.3-.1z" fill="#b3b3b3"/><path d="M17.37 110.14c-.1-.3-7.4.2-7.4.7l.1 2.1 7.4-1.1a4.42 4.42 0 0 0-.1-1.7z" fill="#1c000b"/><path d="M17.77 109.94c-.1-.2-8.1.2-8 .6s.1.9.1 1.7l8.2-.4c-.2-.7-.2-1.7-.3-1.9z" fill="#e6e6e6"/><path d="M18.77 113.44a.16.16 0 1 0 .1-.3 2 2 0 0 0-1.9 1c-.1.1 0 .2.1.2h.1c.1 0 .1 0 .1-.1a1.41 1.41 0 0 1 1.5-.8zm1 .3a.2.2 0 1 0 0-.4 2.52 2.52 0 0 0-2 .9.14.14 0 0 0 0 .2h.1a.1.1 0 0 0 .1-.1 3.14 3.14 0 0 1 1.8-.6zm1 .1a2.36 2.36 0 0 0-2 .9c-.1.1-.1.2 0 .2h.1a.1.1 0 0 0 .1-.1 2.3 2.3 0 0 1 1.8-.8.22.22 0 0 0 .2-.2c0 .1-.1 0-.2 0z" fill="#e9edf4"/><path d="M9.47 81.34l1.8 7.8 7.7.4.7-3.9c.2-1.5.5-2.3.7-4.3H9.47zm12.6 0l1.8 7.8 7.7.4.7-3.9c.2-1.5.5-2.3.7-4.3h-10.9z" fill="#ffc19f"/><path d="M37.57 84.84a58.78 58.78 0 0 1-15.6 2.4 55.58 55.58 0 0 1-16.8-2.4c.4-3.6.9-7.3 1.5-11.3s1.5-8 2.3-11.6h24.6c.9 3.7 1.7 7.6 2.4 11.8a95.74 95.74 0 0 1 1.6 11.1z" fill="#2e3192"/><g clip-path="url(#a)"><path d="M14.07 88.04l2.6-19.7-1.1 19.4zm10.6 0l-.2-19.8 1.7 19.3zm11-1.3l-2.9-19.6 4.3 19z" fill="#262d7f"/></g><path d="M14.27 86.94a15.9 15.9 0 0 1-3.5-.3 17.93 17.93 0 0 1-3.2-.9c1.1-6.5 2.8-12.9 3.9-19.4l5.5 1zm10.4.5a16.87 16.87 0 0 1-3.5.3 14.87 14.87 0 0 1-3.3-.4c.1-6.6.8-13.2.9-19.8l5.6.1zm11.4-1.7a18.23 18.23 0 0 1-3.4.9 20.62 20.62 0 0 1-3.3.2c-1.1-6.5-1.7-13.1-2.8-19.6l5.5-.9z" fill="#2e3192"/><path d="M7.57 85.74a28 28 0 0 1 .5-3.1l.7-3.1.8-3.6 1.4-6.7.7-3a28 28 0 0 1-.5 3.1l-1.4 6.7-.8 3.6-.6 3.1zm10.4 1.6a25.29 25.29 0 0 1 0-3.1c0-.9.1-2 .2-3.2l.2-3.6.3-6.8.2-3.1v3.1c0 1.9-.2 4.3-.4 6.8l-.2 3.6-.1 3.2zm11.5-.5l-.6-3a25.32 25.32 0 0 1-.4-3.2c-.1-1.2-.3-2.4-.5-3.6l-.9-6.7-.4-3.1.6 3 .9 6.8c.1 1.2.3 2.5.5 3.6l.5 3.1zm-24.2-2l.4-3.6.5-3.7.3-2.1.3-2.2 1.5-7.8.8-3.5-.6 3.6-1.6 7.8-.6 4.2a33.28 33.28 0 0 1-.5 3.7zm28.5-22.9l.9 3.5a30.62 30.62 0 0 1 .7 3.7l.8 4.2.6 4.2.5 3.7.4 3.6-.6-3.6-.5-3.7-.3-2.1a15.17 15.17 0 0 0-.3-2.1l-.8-4.2-.8-3.6z" fill="#3942a8"/><path d="M34.37 33.04c2.5-6.7 2.9-11.3-.7-25.1l-27.6 1.6c-2.8 11.1-2.5 17.4-2.1 21.4.1-1.9-.5-5.9 2-15.6-2.2 12.2-2.2 16.1.3 18.1-1.6-2.6-.4-9.9-.1-10.8.1 2.6-.2 7.6 1.2 11.4a29.75 29.75 0 0 0 5.5 2c3.2.9 15.2-.8 18.9-1.7.2-.3.5-7.6.5-8.7.2.3.2 8.3.3 8.6 1.8-2.3 3.6-9 2-19 2.2 8 1.2 12.3-.2 17.8z"/><path d="M11.07 59.84h20.2v1.6h-20.2v-1.6z" fill="#3a4ca5"/><path d="M11.67 37.94c-1.1 5.3-3.3 11.9-4.6 14.2-2.6 4.3-8.3 0-6.5-3.7 1.4-2.9 4.1-7.1 6.5-11.2.4-.7 4.8-.1 4.6.7zm22 .9c3.1 4.3 6.5 10.2 7.3 12.7 1.4 4.7-5.5 6.1-7 2.3-1.1-2.9-2.5-7.6-3.9-12.1-.2-.7 3.1-3.5 3.6-2.9z" fill="#ffc19f"/><path d="M30.57 49.94c-.6-4.4 1-16.2 1-16.4 2.1.4 3.1.6 3.7 1.4 1.2 1.9 2 4.7 5 12.6-.6.7-9.3 3.5-9.7 2.4z" fill="#ff3746"/><path d="M40.17 47.54c-.6.7-9.2 3.5-9.7 2.4a1.27 1.27 0 0 0-.1-.6c1.5.4 8.9-2 9.4-2.6z" fill="#db2138"/><path d="M49.67 46.64c-3.5 4-8.4 8.6-10.7 9.9-4.3 2.4-7.2-4-3.9-6.3 2.6-1.8 7.6-4.5 11.6-6.9.7-.3 3.6 2.7 3 3.3z" fill="#ffc19f"/><path d="M7.27 66.24c7.4 5.4 18.7 5.1 28.4 1-1.6-5.4-4.5-20.9-1.4-32.9-6.4-2.3-11.6-3.8-19.5-2-5.3 8.9-6.7 20.6-7.5 33.9z" fill="#ff3746"/><path d="M33.97 34.24a51.12 51.12 0 0 0-1 14.6 50.29 50.29 0 0 1 1.3-14.5c-.1 0-.2-.1-.3-.1z" fill="#ff3746"/><path d="M35.47 66.24c-9.6 4-20.7 4.3-28.1-1a3.75 3.75 0 0 1-.1 1c7.4 5.4 18.7 5.1 28.4 1-.1-.3-.1-.7-.2-1z" fill="#db2138"/><path d="M10.57 61.14c-3.9-2.8-8.5-6.9-9.9-8.9-2.6-3.7 3-6.9 5.4-4 1.8 2.2 4.3 5.9 6.8 9.3.3.6-1.7 4-2.3 3.6z" fill="#ffc19f"/><path d="M15.07 32.34a.37.37 0 0 0 .3-.1 30.84 30.84 0 0 0-8.6 2c-1.5 1.5-3.3 6.8-5.9 11.5a41.72 41.72 0 0 0 8.1 3.5c1.7-6.4 3.1-12 6.1-16.9z" fill="#ff3746"/><path d="M1.47 44.84c-.2.3-.3.7-.5 1a41.72 41.72 0 0 0 8.1 3.5l.3-1.1a50.41 50.41 0 0 1-7.9-3.4z" fill="#db2138"/><path d="M15.17 32.34a.37.37 0 0 0 .3-.1c-.1 0-.2.1-.3.1z" fill="#ff3746"/><path d="M47.77 39.44c-1.3 1.8-1.6 2.7-1.5 4a3.32 3.32 0 0 0 2.9 3.1c.8.1 2.1-.1 4.4-1.5-.9-1.1-1.5-4.7-3.2-6.3-.6 1-2 .7-2.6.7z" fill="#ffc19f"/><path d="M48.37 43.84a2.93 2.93 0 0 0 4.5 1.2c-.3-.3-.5-4-1.6-5-1.4-.7-2.1 1.1-2.5.7a2.35 2.35 0 0 1-.4 3.1z" fill="#e2a285"/><path d="M50.77 40.74c-.9.7-1.4 1.5-1.1 1.9s1.3.2 2.2-.4 1.4-1.5 1.1-1.9-1.3-.3-2.2.4z" fill="#ffc19f"/><path d="M49.67 39.34c-.8.8-1.2 1.7-.8 2s1.4 0 2.2-.7 1.2-1.7.8-2-1.4 0-2.2.7zm2.2 2.6c-1 .5-1.6 1.4-1.4 1.8s1.3.4 2.3-.1 1.6-1.4 1.4-1.8-1.3-.4-2.3.1z" fill="#ffc19f"/><path d="M52.27 43.54c-1 .3-1.7.9-1.6 1.4s1 .7 2 .4 1.7-.9 1.6-1.4-.9-.6-2-.4z" fill="#ffc19f"/><path d="M51.27 40.94a1.31 1.31 0 0 1-1.9.8c-.8-.4-1.7-1.4-1.4-2s1.2-.7 2.2-.4 1.3 1 1.1 1.6z" style="isolation:isolate" fill="#541000" opacity=".2"/><path d="M51.27 40.94c-.3.6-1.3.7-2.3.3s-1.6-1.1-1.4-1.7 1.2-.7 2.2-.3 1.7 1.2 1.5 1.7zm-33.2 22c.2 0 1.5-1.6.3-3.7-.6-1.1-2.8-1.9-5.7-1.4-.3 0 .1.5.3.8s3.5 4.6 3.3 4-.9-1.5.2-1.4c1.3.1 1 1.7 1.6 1.7z" fill="#ffc19f"/><path d="M17.87 61.74c-.5.4-3-2.1-2.6-2.5s1.1-.1 1.8.5 1.3 1.6.8 2z" fill="#e2a285"/><path d="M15.17 58.04c.8.8.9 3.1 3.4 2.3.5-.2.8 1.5.2 2-.4.2 0 .5-.7 1a4.49 4.49 0 0 0-.9.6c-.4.9-1.1.5-1.3.8a1 1 0 0 1-1.2.4c-1-.2-2.3-1.7-3.9-3.3-1-1 .1-3.5.5-3.7 1.8-.8 3.4-.6 3.9-.1z" fill="#ffc19f"/><path d="M21.97 35.64h-.3a3.16 3.16 0 0 1-3.2-3.2v-5h6.8v5a3.38 3.38 0 0 1-3.3 3.2z" fill="#fcb490"/><path d="M5.97 10.54c-.7 9.9 6.9 16.2 15.2 15.8s14.1-7.6 12.8-17.2c-.8-5.3-5.8-9.6-13.7-9.1-8.5.4-13.8 2.8-14.3 10.5z"/><path d="M34.77 19.34a3.79 3.79 0 0 1-3 3.7c-1.5.2-2.2-1.2-2.5-3a2.94 2.94 0 0 1 2.2-3.6 2.85 2.85 0 0 1 3.3 2.9z" fill="#ffc19f"/><path d="M32.07 18.54h.3a1.41 1.41 0 0 1 1.3 1.8 1.81 1.81 0 0 1-1.9 1.5c-.1 0-.2 0-.2-.1z" fill="#f4b18c"/><path d="M9.37 8.24c-.7 1.7 1.7 16.5 3.5 18.4 1.9 2.1 9.1 3.6 10.6 3.5s6.5-2.3 7.8-4.8c1.5-2.9 2.1-15.6 1.5-17.2-2-5.2-6.6-5.1-12.6-4.9-5.7.4-9.1.6-10.8 5z" fill="#ffc19f"/><path d="M10.17 8.94c-.6 1.2 0 3.4-.1 4.2a4.35 4.35 0 0 1 .7-.4 4.88 4.88 0 0 0 .7-.3 13.13 13.13 0 0 1 1.3-3.1 21 21 0 0 0-.1 2.7l2.8-.9a24.53 24.53 0 0 1 3.5-.5 7.69 7.69 0 0 1-.1-2 5.55 5.55 0 0 1 .6.8 9.25 9.25 0 0 1 .5 1l3.7-.2a19.49 19.49 0 0 1 3.8.5l-.3-3.5h-14.5c-.3 1.1-2 .7-2.5 1.7zm22.1-.3l-2-1.3h-2.8l.6 3.6a3.75 3.75 0 0 1 1 .1c.3.1.6.1.8.2l.1-2.2a9.63 9.63 0 0 1 .9 2.5 7.6 7.6 0 0 1 1.1.4 3.49 3.49 0 0 1 .9.6zM27.17 7.24h.3a4.82 4.82 0 0 0-.4-1.5 11.93 11.93 0 0 1 .1 1.5z" fill="#eaa583"/><path d="M8.47 10.74l3.7-2.6a22.66 22.66 0 0 0-1.6 5 32.07 32.07 0 0 0-.5 3.9l-2.7-5.6zm25.2 4.4l-1 1.4a14.36 14.36 0 0 0 0-3.6 18.36 18.36 0 0 0-.6-2.9c.5 0 1.1-.1 1.6-.1v5.2z"/><path d="M21.87 22.24a.1.1 0 0 0 .1-.1.88.88 0 0 1 .9-.8 1 1 0 0 1 1 .7c0 .1.1.1.2.1s.1-.1.1-.2a1.22 1.22 0 0 0-1.3-1 1.28 1.28 0 0 0-1.2 1.1.38.38 0 0 0 .2.2z" fill="#f4b18c"/><path d="M13.67 14.74a.37.37 0 0 0 .3-.1 3.9 3.9 0 0 1 4.2-.6c.2.1.4 0 .5-.3a.48.48 0 0 0-.2-.6 4.73 4.73 0 0 0-5 .8.37.37 0 0 0 0 .6.22.22 0 0 0 .2.2zm16.8-.8a.37.37 0 0 1-.3-.1 4 4 0 0 0-4.2.1.37.37 0 0 1-.5-.2.45.45 0 0 1 .1-.6 4.75 4.75 0 0 1 5-.1.45.45 0 0 1 .1.6.34.34 0 0 1-.2.3z"/><path d="M7.07 20.54a3.69 3.69 0 0 0 3.8 2.9c1.5-.2 1.9-1.7 1.8-3.5s-1.5-3.2-3-3a2.91 2.91 0 0 0-2.6 3.6z" fill="#ffc19f"/><path d="M25.77 17.04c-.8 1.3-.6 2.8.1 3.3 1.1.8 3.6 1 4.5-.3a3.06 3.06 0 0 0-1.1-4.2 2.55 2.55 0 0 0-3.5 1.2z" fill="#f9feff"/><path d="M30.37 16.54c-1.2-2-3.9-1.2-4.6.6a2.48 2.48 0 0 1 3.4-1.1 3.07 3.07 0 0 1 1.2 4.1 3.63 3.63 0 0 0 0-3.6zm-4.3 1.4a1.87 1.87 0 0 0 .9 2.3 1.51 1.51 0 0 0 2-1.1 1.87 1.87 0 0 0-.9-2.3 1.58 1.58 0 0 0-2 1.1z"/><path d="M26.27 17.74a.42.42 0 0 0 .3.6.45.45 0 0 0 .6-.3.42.42 0 0 0-.3-.6.44.44 0 0 0-.6.3z" fill="#fefffe"/><path d="M19.47 17.24c.9 1.3.8 2.8.1 3.3-1.2.9-4 1.2-5.1 0a2.85 2.85 0 0 1 1.1-4.2 2.79 2.79 0 0 1 3.9.9z" fill="#f9feff"/><path d="M14.17 16.94c1.3-2.1 4.4-1.4 5.3.3a3 3 0 0 0-4-.9 3.09 3.09 0 0 0-1.5 2.2 2.75 2.75 0 0 0 .5 2c-.5-.2-1.2-2-.3-3.6z"/><circle cx="16.87" cy="18.84" r="1.8"/><circle cx="15.87" cy="18.24" r=".5" fill="#fefffe"/><path d="M10.07 18.54h-.3a1.41 1.41 0 0 0-1.3 1.8 1.81 1.81 0 0 0 1.9 1.5c.1 0 .2 0 .2-.1-.2-.9-.3-2-.5-3.2z" fill="#f4b18c"/><path d="M9.17 4.24l7.8-2.5c.4 0 8.8.7 8.8.7a10.88 10.88 0 0 0 2.3.6c.4-.1 2.8 1.3 2.8 1.3l1.6 1.8.8 2v2.3l-1.2.4-1.7-2.8-3.1-3.1-3.1.3c-1 .2-6.2.2-6.3.3s-5.6 1.4-5.6 1.4l-3.4 1.9z"/><path d="M29.87 5.04c-2.2-1.1-6.2-1.5-9.8-1.3-3.9.2-7.9.9-10 2.5-1.4 1-2.7 8.3-2 7.6a9.8 9.8 0 0 1 3.4-1.9 13.13 13.13 0 0 1 1.3-3.1 21 21 0 0 0-.1 2.7 29.07 29.07 0 0 1 6-1.3h.3a3.44 3.44 0 0 1-.1-.9 2.24 2.24 0 0 1 .1-1 2.58 2.58 0 0 1 1.1 1.9 2.77 2.77 0 0 0 .9-.1 33.13 33.13 0 0 1 6.6.2l-.3-3.2a10.22 10.22 0 0 1 .9 3.3c.6.1 1.2.3 1.7.4 0-.7.1-2 .1-2.2a11.33 11.33 0 0 1 .9 2.5 19.65 19.65 0 0 1 2.5 1.3c.9.5-1.7-6.6-3.5-7.4zm-3.4 19.4c.3 1.4-1.7 3.3-3.7 3.3a3.29 3.29 0 0 1-3.3-3c.1-.8 1.4-.6 3.3-.7s3.5-.4 3.7.4z"/><path d="M22.97 26.44a2.82 2.82 0 0 0-2 .7 3.94 3.94 0 0 0 2 .6 2.65 2.65 0 0 0 2.1-.8 3.12 3.12 0 0 0-2.1-.5z" fill="#b71521"/><path d="M25.47 23.94a7.75 7.75 0 0 0-2.6.1c-1.1.1-1.9 0-2.5.1.3.6 1.2.9 2.4.8 1.4 0 2.6-.4 2.7-1z" fill="#fff"/></svg>