<svg xmlns="http://www.w3.org/2000/svg" viewBox="0 0 114.38 128.87" xmlns:v="https://vecta.io/nano"><style><![CDATA[.B{fill:none}.C{fill:#bdbec0}.D{fill:#ea6637}.E{fill:#075b8f}.F{fill:#fff}.G{fill:#010101}.H{opacity:.5}.I{opacity:.1}.J{fill:#d55c31}.K{opacity:.3}.L{fill:#0a78bc}.M{fill:#a2caec}.N{fill:#e8f5f1}.O{fill:#9d9fa2}.P{fill:#f7c19c}.Q{fill:#f4af1c}.R{fill:#83cdeb}.S{fill:#0baeda}.T{fill:#fedda6}.U{stroke-miterlimit:10}]]></style><defs><clipPath id="A" transform="translate(-.31 -.06)"><path d="M40.02 19.5h2.9v3.84h-2.9z" class="B"/></clipPath><clipPath id="B" transform="translate(-.31 -.06)"><path d="M76.77 81.32h5.58v14.05h-5.58z" class="B"/></clipPath><clipPath id="C" transform="translate(-.31 -.06)"><path d="M54.34 110.88h1.83v1.62h-1.83z" class="B"/></clipPath><clipPath id="D" transform="translate(-.31 -.06)"><path d="M79.9 110.97h1.83v1.62H79.9z" class="B"/></clipPath><clipPath id="E" transform="translate(-.31 -.06)"><path d="M33.76 46.32h2.57v2.28h-2.57z" class="B"/></clipPath><clipPath id="F" transform="translate(-.31 -.06)"><path d="M74.23 95.5h2.96v2.05h-2.96z" class="B"/></clipPath><clipPath id="G" transform="translate(-.31 -.06)"><path d="M55.3 81.4h5.64v30.74H55.3z" class="B"/></clipPath><clipPath id="H" transform="translate(-.31 -.06)"><path d="M79.53 47.08h10.14v38.5H79.53z" class="B"/></clipPath><clipPath id="I" transform="translate(-.31 -.06)"><path d="M52.32 43.7h37.32v5.8H52.32z" class="B"/></clipPath><clipPath id="J" transform="translate(-.31 -.06)"><path d="M56.27 44.8h32.97v4.72H56.27z" class="B"/></clipPath><clipPath id="K" transform="translate(-.31 -.06)"><path d="M84.83 62.36h29.86v14.16H84.83z" class="B"/></clipPath><clipPath id="L" transform="translate(-.31 -.06)"><path d="M69.82 35.22h3.06v12.14h-3.06z" class="B"/></clipPath><clipPath id="M" transform="translate(-.31 -.06)"><path d="M70.66 35.42h2.22v11.13h-2.22z" class="B"/></clipPath><clipPath id="N" transform="translate(-.31 -.06)"><path d="M55.06 32.83H85.3v6.95H55.06z" class="B"/></clipPath><clipPath id="O" transform="translate(-.31 -.06)"><path d="M56.84 34.86h28.38v4.9H56.84z" class="B"/></clipPath><clipPath id="P" transform="translate(-.31 -.06)"><path d="M82.17 19.82H93.7v20.16H82.17z" class="B"/></clipPath><clipPath id="Q" transform="translate(-.31 -.06)"><path d="M72.28 15.7h3.3v2.04h-3.3z" class="B"/></clipPath><clipPath id="R" transform="translate(-.31 -.06)"><path d="M89.68 28.1h2.23v6.12h-2.23z" class="B"/></clipPath><clipPath id="S" transform="translate(-.31 -.06)"><path d="M99.66 22.33h4.05v3.07h-4.05z" class="B"/></clipPath><clipPath id="T" transform="translate(-.31 -.06)"><path d="M76.92 98.44H82v13.67h-5.1z" class="B"/></clipPath><clipPath id="U" transform="translate(-.31 -.06)"><path d="M71.26 8.32h1.84v1.9h-1.84z" class="B"/></clipPath><clipPath id="V" transform="translate(-.31 -.06)"><path d="M79.1 4.8h1.53v4.15H79.1z" class="B"/></clipPath><clipPath id="W" transform="translate(-.31 -.06)"><path d="M77.4.65h3.8v3.43h-3.8z" class="B"/></clipPath><clipPath id="X" transform="translate(-.31 -.06)"><path d="M68.17 58.6a4.05 4.05 0 0 0 5.17 4c2.27-.6 3.93-.9 3.93-3.67S75.93 54 73.2 53.56a6.52 6.52 0 0 0-1.14-.1c-3.1 0-3.88 2.63-3.88 5.13" class="B"/></clipPath><clipPath id="Y" transform="translate(-.31 -.06)"><path d="M52.8 26.67h2.72v5.6H52.8z" class="B"/></clipPath></defs><path d="M54.18 24.26s-3.8-4-8.23-5.07-7.16.8-6.9 3.28.34 7.23 7.07 6.68 7.26-.5 8.06-1 0-3.88 0-3.88" fill="#c1e0d7"/><path d="M51.92 26.02h-.13l-.1-.08h-.23l-.46-.06-.92-.1-1.84-.16a17.44 17.44 0 0 0-1.83 0l-.9.1a3.73 3.73 0 0 0-.86.24 1.79 1.79 0 0 0-.37.22 2.09 2.09 0 0 0-.32.3 1 1 0 0 0-.28.77.87.87 0 0 0 .46.67.56.56 0 0 0 .2.06.3.3 0 0 0 .18 0 .34.34 0 0 0 .11-.16 1.84 1.84 0 0 0 .06-.29l.14-.9a9.49 9.49 0 0 0 .07-.92 15.56 15.56 0 0 0 0-1.84c0-.3 0-.6-.1-.9a5.7 5.7 0 0 0-.2-.88 2.53 2.53 0 0 0-.17-.41.94.94 0 0 0-.26-.31.49.49 0 0 0-.17-.08h-.22l-.45-.07a2.48 2.48 0 0 0-.43 0 .26.26 0 0 0-.13 0h0a.26.26 0 0 0 0 .07 2.08 2.08 0 0 0 .14.4.42.42 0 0 0 .11.11l.18.1a8.23 8.23 0 0 0 .83.37l.86.32 7.05 2.2zm0 0V24.9q-1.8-.43-3.6-.93l-1.78-.52-1.76-.58-.87-.33a7.8 7.8 0 0 1-.86-.4l-.22-.2h-.15a.43.43 0 0 1-.1-.13 2.3 2.3 0 0 1-.16-.47.53.53 0 0 1 0-.16.31.31 0 0 1 .13-.24.36.36 0 0 1 .13-.07h.14a2.75 2.75 0 0 1 .48 0l.5.07h.23a.71.71 0 0 1 .25.12 1.19 1.19 0 0 1 .32.4 2.47 2.47 0 0 1 .17.45 5.63 5.63 0 0 1 .17.93c0 .3.05.62.06.93v1.85a16.54 16.54 0 0 1-.2 1.84 2 2 0 0 1-.05.23.45.45 0 0 1-.15.22.41.41 0 0 1-.25.08.66.66 0 0 1-.25-.06 1 1 0 0 1-.58-.77 1.06 1.06 0 0 1 0-.5 1.43 1.43 0 0 1 .24-.43 2.21 2.21 0 0 1 .35-.29 1.53 1.53 0 0 1 .2-.15 1.91 1.91 0 0 1 .21-.12 3.52 3.52 0 0 1 .92-.27 7.22 7.22 0 0 1 .94-.09 15.18 15.18 0 0 1 1.86.05l1.84.23.9.17.45.1.24.08h.17" class="N"/><g clip-path="url(#A)" class="H N"><path d="M40.55 23.27s-.43-3.08 2.05-3.6c0 0-.4-.52-1.44 0s-1.36.75-1.43 1.46 0 2.07.8 2.14"/></g><path d="M77.08.43s-.06 2.5 3.52 3.36 5.43-.85 5.68-1.53" class="O"/><path d="M23.42 33.26s6.25 10.56 10.5 13c0 0 1.5.4.44 2.35 0 0-8.3-5.68-13.3-13.57 0 0-.3-3.3 2.37-1.77" class="C"/><path d="M18.45 35.82a8.7 8.7 0 0 0 6.58-5.33s-6.13-4.45-6.68-6.2c0 0 1.6-5.68 1.16-7.64s-2.2-4.33-2.82-3.84 1.7 8 .42 9-3.72.33-4.15-.74-4.27-6.8-5.55-7.34-2.48-.57-.46 2.64 5.2 5.27 4.52 6l-.7.77s-5.53-2.62-7.26-4.76-1.74.4-1 1.16 5.17 5.7 7.78 5.73c0 0-5.24 1.17-9.35-2.12 0 0-2 0-.12 1.88s6.37 3.06 8.7 2.43-.84 1.44-2.46 1.84-5.13-.4-5.56.06-.08 1.1 1.18 1.6 4.52 1.8 4.7 1.52 2.14-2.76 3-2.86 2.06 1.9 5.28 1.78z" class="Q"/><path d="M16.62 12.8c-.65.5 1.7 8 .42 9s-3.72.33-4.15-.74-4.2-6.8-5.5-7.34a4.17 4.17 0 0 0-.78-.25h0c-.65.94 4.92 7 5.23 7.68a.82.82 0 0 1-.29 1.07h0a.37.37 0 0 1-.09.18l-.7.77S5.24 20.54 3.5 18.4c-.64-.8-1-.94-1.26-.78.18 2.5 6.17 5.6 7.07 6a2 2 0 0 1 1 1.58S5.08 26.37.96 23.1a1.46 1.46 0 0 0-.75.21c2.25 3.5 8.16 2.87 9.16 3.08a1 1 0 0 1 .94.92c.38.22-1.95 1.64-3.26 1.98a20.29 20.29 0 0 1-4.51-.07c-.54.22-.84.42-.7.6.6.8 5.4 1.83 5.4 1.83.47-.8 4.47-4.45 4.77-2.95s5.2 1.58 5.2 1.58c.72 1.42 4.2 4.43 4.22 4.44a9 9 0 0 0 3.61-4.23s-6.13-4.45-6.7-6.2c0 0 1.6-5.68 1.17-7.63s-2.22-4.33-2.87-3.84" fill="#dca027"/><path d="M10.34 28.1a16 16 0 0 1 0-2.11v-.53c0-.18.06-.35.1-.52a9.34 9.34 0 0 1 .28-1c0-.17.12-.34.18-.5l.1-.25.18-.24.1-.25.13-.24.3-.45.33-.43c.1-.14.24-.27.36-.4l.18-.23.2-.18.42-.33c-.08.16-.17.3-.26.46l-.14.22-.1.28-.27.44-.25.44a2.37 2.37 0 0 0-.12.22l-.12.22-.13.23-.1.22-.13.22c0 .07-.08.15-.12.23l-.2.46a8.14 8.14 0 0 0-.34 1c0 .17-.1.33-.13.5l-.07.2v.25c-.07.34-.1.68-.15 1l-.1 1h-.1zm4.7-6.96a4.59 4.59 0 0 1 .8.44l.38.26.36.27.37.27a1.79 1.79 0 0 1 .33.31 2.91 2.91 0 0 1 .26.38 1.89 1.89 0 0 1 .19.45h0a2.13 2.13 0 0 1-.44-.19 3.21 3.21 0 0 1-.38-.25 1.84 1.84 0 0 1-.31-.31l-.3-.34-.3-.32-.32-.3a6.48 6.48 0 0 0-.65-.61z" fill="#c7922c"/><path d="M78.8 82.25s-3.5 7.92-3.4 13.46 1.2-3.35 3.82-7.93 3.25-4.66 2.4-5.57-2.18-1.5-2.82 0" class="C"/><g clip-path="url(#B)" class="I G"><path d="M81.7 82.07a3.17 3.17 0 0 0-1.13-.8 1.53 1.53 0 0 0-.69.85s-3.4 7.68-3.4 13.2a39 39 0 0 1 2.83-7.68c2.6-4.6 3.25-4.66 2.4-5.57"/></g><path d="M80.5 114.8s2.43 10.3-8.6 11.67h-7.2v2.13h16.6s7.78-3.87 2.48-14.8z" class="R"/><g class="S"><path d="M63.33 126.3H80.6s6.28-1.08 3.12-12l.12-1.14s6.94 10.77-2.55 15.44h-18v-2.3"/><path d="M63.33 126.28l2.16-.06h10.8q2.16 0 4.32 0h0l.37-.1.37-.14a4.44 4.44 0 0 0 .7-.39 4.92 4.92 0 0 0 1.19-1.12 5.82 5.82 0 0 0 .8-1.47 8 8 0 0 0 .42-1.67l.05-.43v-3.05a22.87 22.87 0 0 0-.75-3.4h0l.1-1.14a.09.09 0 0 1 .1-.09.08.08 0 0 1 .07 0 17.58 17.58 0 0 1 1.08 2 19.08 19.08 0 0 1 .83 2.12 14 14 0 0 1 .53 2.24 10.87 10.87 0 0 1 .11 2.32 8.17 8.17 0 0 1-.47 2.28 6.91 6.91 0 0 1-.48 1.06 7.48 7.48 0 0 1-.63 1 8 8 0 0 1-.76.86c-.13.14-.27.26-.4.38l-.43.36a11.67 11.67 0 0 1-1.89 1.17h-13.7c-1.5 0-3 0-4.5-.1h0a.08.08 0 0 1-.07-.08v-1.15 1.15l-.08-.08 4.5-.1h13.37a11.63 11.63 0 0 0 1.82-1.1l.42-.33.4-.36a7.7 7.7 0 0 0 .72-.79 7.39 7.39 0 0 0 1.06-1.88 8.06 8.06 0 0 0 .47-2.15 10.53 10.53 0 0 0-.06-2.22 14.93 14.93 0 0 0-.46-2.19 18.33 18.33 0 0 0-.76-2.11 17.23 17.23 0 0 0-1-2h.17l-.13 1.14a26 26 0 0 1 .73 3.44v3.52a8.65 8.65 0 0 1-.38 1.73 6.13 6.13 0 0 1-.8 1.58 5.5 5.5 0 0 1-1.23 1.24 4.73 4.73 0 0 1-.75.44l-.4.17a2.73 2.73 0 0 1-.43.13h0-12.78l-2.16-.05-2.16-.06v-.05z"/></g><path d="M54.97 115.47s2.42 9.65-8.6 11H39.2v2h16.58s7.78-3.64 2.48-13.9z" class="R"/><g class="S"><path d="M37.8 126.27h17.28s6.28-1 3.12-11.27l.12-1.06s6.94 10.12-2.55 14.5h-18v-2.15"/><path d="M37.8 126.24l2.16-.06h15.12l.37-.1.37-.13a4.67 4.67 0 0 0 .7-.36 4.86 4.86 0 0 0 1.17-1.17 5.29 5.29 0 0 0 .81-1.38 7.38 7.38 0 0 0 .42-1.57l.05-.4v-2.85a20.49 20.49 0 0 0-.75-3.19h0l.01-1.1a.09.09 0 0 1 .1-.08.09.09 0 0 1 .07 0 15.55 15.55 0 0 1 1.08 1.87 16.48 16.48 0 0 1 .83 2 12.64 12.64 0 0 1 .54 2.1 9.57 9.57 0 0 1 .11 2.17 7.18 7.18 0 0 1-.47 2.15 6.6 6.6 0 0 1-.48 1 7.07 7.07 0 0 1-.63.91 7.19 7.19 0 0 1-.75.8c-.13.13-.27.24-.4.36s-.3.23-.44.33a11.25 11.25 0 0 1-1.89 1.1.22.22 0 0 1-.11 0H42.3c-1.5 0-3 0-4.5-.08h0a.07.07 0 0 1-.07-.08v-1.08 1.08l-.08-.08 4.5-.08h13.37a11.6 11.6 0 0 0 1.82-1l.42-.3.4-.34a7.57 7.57 0 0 0 .72-.75 6.42 6.42 0 0 0 .6-.84 6.23 6.23 0 0 0 .46-.93 7.19 7.19 0 0 0 .47-2 9.08 9.08 0 0 0-.06-2.09 13 13 0 0 0-.46-2.06 16.59 16.59 0 0 0-1.64-4.07h.17l-.13 1.07a23.56 23.56 0 0 1 .73 3.22v3.3a7.61 7.61 0 0 1-.38 1.63 5.66 5.66 0 0 1-.8 1.48 5.19 5.19 0 0 1-1.14 1.14 5.05 5.05 0 0 1-.75.42l-.4.16a3.27 3.27 0 0 1-.43.12H39.96l-2.16-.06v-.18z"/></g><path d="M55.8 110.23a2.25 2.25 0 0 0-2.12 2.32c.06.82-.16 2.7 2.18 3a2.68 2.68 0 0 0 3.38-2.61c.07-1.42.06-2.28-1.24-2.7a3 3 0 0 0-2.2 0" class="D"/><path d="M58.53 110.43a7.56 7.56 0 0 1 0 1.47 2.63 2.63 0 0 1-3.18 2.74 2.36 2.36 0 0 1-1.35-.59 2.1 2.1 0 0 0 1.93 1.65 2.63 2.63 0 0 0 3.21-2.76c.06-1.2.06-2-.6-2.53" class="J"/><g clip-path="url(#C)" class="K P"><path d="M55.1 110.84a1.43 1.43 0 0 0-1 1c-.27.8 0 .87.6.13a1.73 1.73 0 0 1 1.08-.92c.26 0-.43-.27-.7-.16"/></g><path d="M81.38 110.33a2.25 2.25 0 0 0-2.08 2.32c.06.8-.16 2.7 2.18 3a2.67 2.67 0 0 0 3.34-2.63c.08-1.42.06-2.28-1.24-2.72a3 3 0 0 0-2.2 0" class="D"/><path d="M84.1 110.52a7.42 7.42 0 0 1 0 1.47 2.63 2.63 0 0 1-3.18 2.74 2.39 2.39 0 0 1-1.35-.59 2.1 2.1 0 0 0 1.93 1.65 2.63 2.63 0 0 0 3.19-2.74c.06-1.2.06-2-.6-2.53" class="J"/><g clip-path="url(#D)" class="K P"><path d="M80.7 110.94a1.41 1.41 0 0 0-1 .95c-.26.8 0 .87.6.13a1.71 1.71 0 0 1 1.08-.92c.26 0-.43-.27-.7-.16"/></g><path d="M35.44 45.77a2.65 2.65 0 0 0-2.45 2.72c.07 1-.2 3.2 2.56 3.56a3.15 3.15 0 0 0 3.93-3.11c.1-1.67.07-2.68-1.46-3.2a3.56 3.56 0 0 0-2.58 0" class="D"/><path d="M38.64 46a8.77 8.77 0 0 1 0 1.73c-.08 1.74-1.12 3.6-3.74 3.23a2.82 2.82 0 0 1-1.58-.7 2.46 2.46 0 0 0 2.27 1.94c2.62.38 3.66-1.5 3.74-3.22.06-1.4.07-2.38-.72-3" class="J"/><g clip-path="url(#E)" class="K P"><path d="M34.95 46.3a2 2 0 0 0-1.36 1.34c-.37 1.13.06 1.23.84.2s1.15-1.28 1.5-1.3-.6-.38-1-.22"/></g><path d="M75.63 95a2.53 2.53 0 0 0-2.34 2.61c.07.92-.18 3.06 2.45 3.4a3 3 0 0 0 3.76-3c.08-1.6.07-2.57-1.4-3.06a3.4 3.4 0 0 0-2.47 0" class="D"/><path d="M78.7 95.2a8.47 8.47 0 0 1 0 1.66c0 1.67-1 3.46-3.55 3.08a2.69 2.69 0 0 1-1.52-.67 2.36 2.36 0 0 0 2.18 1.86c2.5.37 3.5-1.43 3.58-3.1.06-1.35.07-2.28-.7-2.85" class="J"/><g clip-path="url(#F)" class="K P"><path d="M75.6 95.47a2 2 0 0 0-1.54 1.17c-.38 1 .15 1.15 1 .23s1.3-1.12 1.73-1.13-.74-.4-1.2-.27"/></g><path d="M55.15 83.33s-3.08 11.83-.2 27.53c0 0 1.25 5 1.65-.45 0 0-2.18-17.47 2.14-23.25s-2.77-8.45-3.6-3.83" fill="#e7e7e7"/><path d="M53.76 94.5a2.84 2.84 0 0 0 2.6.29 27.77 27.77 0 0 1 .67-3.76 4.3 4.3 0 0 1-2.84-2.1l-.43 5.62m2.32 8.53v-3.44a3.63 3.63 0 0 1-2.39-.52l.18 3.65a3.8 3.8 0 0 0 2.17.31m3.23-16.72c3.12-5.22-3.34-7.44-4.13-3l-.43 2.06a5.39 5.39 0 0 0 4.57 1M54.5 108.2l.44 2.65s1.25 5 1.66-.45l-.23-2.28a2.71 2.71 0 0 1-1.87.07" class="C"/><g clip-path="url(#G)" class="I G"><path d="M59.25 81.34a2 2 0 0 0-1.92 1.79 58.75 58.75 0 0 0-1.34 27.67 11 11 0 0 0 .41 1.28 13.18 13.18 0 0 0 .21-1.72c0 0-2.18-17.47 2.14-23.25 2.55-3.4 2.27-5.37.5-5.76"/></g><path d="M38.2 49.5s11.74 2.9 14.22 1.83c0 0 1 1.82-.7 2.32s-12.4-2.2-13.75-3.35.25-.8.25-.8" class="C"/><path d="M53.7 43.78a2.63 2.63 0 0 0-2.58 1.72c-.87 2.34-2 7-1.2 14.86L51.46 79a4.51 4.51 0 0 0 2.34 3.66c3.44 1.88 11.2 4.65 25.4 2.86 0 0 3.1-.13 7.15-5.44 0 0 3.34-26.13 3-33.05 0 0-14.54-1-21.87-3.37 0 0-9.42.3-13.75.12" class="L"/><g clip-path="url(#H)" class="H E"><path d="M89.33 47.02h0a9 9 0 0 1-6.14 2.43.61.61 0 0 1 .55.61c0 2.84-.46 15.73-4.5 35.45 0 0 3.1-.13 7.15-5.44 0 0 3.34-26.13 3-33.05h0z"/></g><g clip-path="url(#I)" class="K F"><path d="M83.16 49.45h0a8.9 8.9 0 0 0 6.18-2.42s-14.54-1-21.87-3.37c0 0-9.42.3-13.75.12a2.61 2.61 0 0 0-1.7.53c.06 0 5 4 31.15 5.14"/></g><g clip-path="url(#J)" opacity=".33" class="L"><path d="M71.38 44.73s-9.4.62-13.74.58a2.63 2.63 0 0 0-1.68.59 2.84 2.84 0 0 0 .45.26c4.28 1.2 12.28 2.66 26.48 3.27h0a8.86 8.86 0 0 0 6.05-2.31c-4.9-.32-12.74-1-17.55-2.4"/></g><path d="M87.46 54.1s19.23.63 20.72 10.15-12.8 10.32-22.5 9.5c-1.92 0-1.92 2.24 0 2.24 0 0 19 2.93 25.4-5 5.32-6.63 4.3-10.8-4.78-16.2-5-3-18.88-2.78-18.88-2.78-1.87 0-1.87 2.13 0 2.13" fill="#e7e7e7"/><path d="M100.12 73.13a33.51 33.51 0 0 1-5 .73 6.67 6.67 0 0 0-.2 2.64 42.69 42.69 0 0 0 5.51-.47 9.08 9.08 0 0 1-.27-2.9m5.74-13.2a7.71 7.71 0 0 1 2.26 4.22 11.8 11.8 0 0 0 4-.64 14.41 14.41 0 0 0 2-.9c-.5-2.12-2.24-4.14-5.33-6.3a12.87 12.87 0 0 1-2.93 3.61m-10.2-4.7a31.65 31.65 0 0 1 5.46 1.72 11 11 0 0 0 1.63-3.55 41.89 41.89 0 0 0-5.77-1 9.39 9.39 0 0 1-1.32 2.83m-8.24-1.12s1.27 0 3.18.26a6 6 0 0 0 .57-2.34l-3.75-.07c-1.87 0-1.87 2.13 0 2.13m22 16.5a9.46 9.46 0 0 1-2-1.87 7.57 7.57 0 0 1-3 2.8 11.79 11.79 0 0 0 1.47 3 12.66 12.66 0 0 0 4.93-3.36 4.62 4.62 0 0 1-1.47-.6m-20.83 5.12a7.71 7.71 0 0 1 .62-1.72c-1.2 0-2.36-.1-3.46-.2-1.92 0-1.92 2.24 0 2.24 0 0 1 .16 2.74.3 0-.2.06-.42.1-.63" class="C"/><g clip-path="url(#K)" class="I G"><path d="M84.52 75.4a1.47 1.47 0 0 0 1.24.53s19 2.93 25.4-5c2.67-3.33 3.74-6 3-8.6h0c1.54 9.48-18.35 14.8-28.4 12.54a1.47 1.47 0 0 0-1.24.53"/></g><path d="M95.93 80.8l-1.14 1.8-2.16.55s-2-3.8-5.6-1.95-2.44-2.12-.62-3c1.6-.77 2.67-1.33 4.4-.38a6.19 6.19 0 0 1 2.71 3.71zm-3.88 7.7l-2.6 1.64s-4.47-.2-6.4-3.5-2.26-5.83-.67-8.9-1.77 10.92 9.7 10.75" class="Q"/><path d="M68.94 35.65c-1.4 1.35-1.07 7.68 1.6 11.37a1.45 1.45 0 0 0 2 0s-3.1-9 0-10.9c0 0-1.86-2.17-3.63-.47" class="C"/><g clip-path="url(#L)" opacity=".12" class="G"><path d="M72.57 47.06s-3.1-9 0-10.9a3.83 3.83 0 0 0-1.45-1 2.37 2.37 0 0 0-.8.52c-1.4 1.35-1.07 7.7 1.6 11.37a2.13 2.13 0 0 0 .38.25 1.51 1.51 0 0 0 .27-.25"/></g><g clip-path="url(#M)" opacity=".12" class="G"><path d="M72.4 46.5c-.62-2-2.45-8.7.18-10.34a4 4 0 0 0-1-.8 2.82 2.82 0 0 0-.41.32c-1.33 1.28-1.1 7.07 1.23 10.8"/></g><path d="M90.28 19.72a3 3 0 0 0-1.08-.3l-29.7-3.7a5.47 5.47 0 0 0-5.18 2.33c-7.13 10.35 3.73 18 3.73 18l27.1 3.7a4 4 0 0 0 1.46.11 2.44 2.44 0 0 0 .42 0 4.36 4.36 0 0 0 2.78-1.16c3.1-2.27 3.3-7.1 3.48-8.9.22-2.14.54-9.57-3-10.05" class="M"/><g clip-path="url(#N)" class="I L"><path d="M82.27 36.43a4 4 0 0 1-1.44-.11c-5.65-.55-21.85-2.93-26.07-3.56a17.22 17.22 0 0 0 3.29 3.25c0 0 20.3 3 27 3.7a4.3 4.3 0 0 1-2.73-3.28"/></g><g clip-path="url(#O)" opacity=".14" class="L"><path d="M84.9 39.7a3.34 3.34 0 0 1-1.76-1.24c-6.8-.7-25.8-3.54-26.62-3.66a14 14 0 0 0 1.43 1.2c0 0 20.3 3 27 3.7"/></g><g clip-path="url(#P)" class="H L"><path d="M89.5 19.8c-5.34.66-7.07 6.1-7.34 8.2s-1.54 12.56 4.53 11.94 6.35-7.77 6.58-10.05.58-10.6-3.77-10.05"/></g><path d="M53.62 15.67a5.1 5.1 0 0 0-3.8 4.17 7.85 7.85 0 0 0 .76 5.51c0 0 8.58 5.15 29.93 4.85 0 0-2-9 4.82-10.36 0 0-24.6-.92-31.7-4.17" fill="#f5ae95"/><path d="M80.48 30.22s-2-9 4.85-10.37l.2 1.18a13.23 13.23 0 0 0-4 9.19h-1z" class="D"/><path d="M70.54 17.1a2.07 2.07 0 0 1 2.24-1.42c1.67.3 2.26.82 2.48 2z" class="C"/><g clip-path="url(#Q)" class="H O"><path d="M74.3 17.57l1 .12c-.23-1.2-.82-1.72-2.48-2a1.92 1.92 0 0 0-.81 0c1.52.28 2.1.8 2.34 1.87"/></g><path d="M87.25 28.88s6.73-.55 10.54-5 7.07.14 7.07 2.52-.4 9.72-6.8 10.54-10.8-5.4-10.8-5.4a1.72 1.72 0 0 1 0-2.61" fill="#c1e0d7"/><path d="M88.3 28.74a8.61 8.61 0 0 1-.28.86 8 8 0 0 0-.25.82 4 4 0 0 0-.11.83 6.21 6.21 0 0 0 .06.87 2 2 0 0 1-.36-.85 2.39 2.39 0 0 1 0-.94 3.19 3.19 0 0 1 .35-.86 4.13 4.13 0 0 1 .55-.73m.34 4.3c0-.4-.05-.8-.06-1.2a11.31 11.31 0 0 1 0-1.21 5.33 5.33 0 0 1 .23-1.2 2.82 2.82 0 0 1 .64-1.09h0l.93-.25.57-.16-.2.4-.33.63-.28.67a9.6 9.6 0 0 0-.39 1.4 8.72 8.72 0 0 0-.18 1.44 8 8 0 0 0 .03 1.47 5.83 5.83 0 0 1-.27-1.46 6.89 6.89 0 0 1 0-.75c0-.25 0-.5.08-.75a8.42 8.42 0 0 1 .34-1.47l.27-.7a7.31 7.31 0 0 1 .35-.68l.2.3-.93.24h.1a2.64 2.64 0 0 0-.58.94 5.68 5.68 0 0 0-.29 1.12l-.14 1.18-.1 1.2m-1.67-2.04a.85.85 0 0 1-.23-.31 1.08 1.08 0 0 1-.08-.34 1 1 0 0 1 0-.36.67.67 0 0 1 .14-.13.29.29 0 0 1 .16-.13.56.56 0 0 0 0 .18v.15a2.37 2.37 0 0 1 0 .31 1.61 1.61 0 0 1 0 .33 1.11 1.11 0 0 1-.1.35" fill="#3ab39f"/><g clip-path="url(#R)" opacity=".24"><path d="M89.77 34.13s-.9-.8 0-3.52.76-2.37 1.3-2.55.6 2.53.5 3-.24 3.46-1.8 3" fill="#3ab39f"/></g><path d="M90.54 30.4h.23l.23.06.46.1c.3.06.6.1.92.12a7 7 0 0 0 1.84-.1 5.42 5.42 0 0 0 .88-.26 4.25 4.25 0 0 0 .8-.39 4.74 4.74 0 0 0 .71-.57l.65-.67a8.75 8.75 0 0 0 1.13-1.46 2.11 2.11 0 0 0 .3-.79.44.44 0 0 0-.11-.38.36.36 0 0 0-.18-.08h-.08a.15.15 0 0 0-.07 0 1.21 1.21 0 0 0-.21.39l-.14.44-.2.9-.25 1.85-.13 1.86a15.86 15.86 0 0 0 0 1.85 2.9 2.9 0 0 0 .06.44.55.55 0 0 0 .19.31.66.66 0 0 0 .72-.05.68.68 0 0 0 .25-.28.26.26 0 0 0 0-.28.6.6 0 0 0-.14-.12h-.2l-.42-.15-1.8-.46-1.82-.4-3.67-.75c0-.36.07-.7.1-1m0 0v.95l3.7.6 1.84.36 1.83.46.34.03.1.05.12.07a.85.85 0 0 1 .21.19.62.62 0 0 1 .12.29.6.6 0 0 1-.06.3 1 1 0 0 1-.37.4 1.15 1.15 0 0 1-.5.17.84.84 0 0 1-.28 0 .73.73 0 0 1-.26-.12.83.83 0 0 1-.29-.47 3.09 3.09 0 0 1-.06-.49 15.74 15.74 0 0 1 0-1.89c0-.62.12-1.24.2-1.86l.3-1.85.2-.92c0-.15.08-.3.14-.45l.1-.22a.84.84 0 0 1 .18-.2.23.23 0 0 1 .12-.08h.14a.47.47 0 0 1 .26.08.46.46 0 0 1 .15.22.68.68 0 0 1 0 .25 2.24 2.24 0 0 1-.3.92 5.78 5.78 0 0 1-.51.8 9.16 9.16 0 0 1-.59.74q-.3.35-.65.7a4.71 4.71 0 0 1-.75.59 4.89 4.89 0 0 1-1.78.67 6.56 6.56 0 0 1-1.89 0 7.59 7.59 0 0 1-.93-.17l-.45-.13-.22-.07h-.16" class="N"/><g clip-path="url(#S)" class="H N"><path d="M99.36 23.46a.25.25 0 0 0 .38.29 1.57 1.57 0 0 1 2.37.25c1.37 1.65 1.45 1.72 1.14.56s-.92-2.5-2.57-2.25a1.4 1.4 0 0 0-1.32 1.16"/></g><path d="M80.52 30.22h0v-.4l-.08-.4c0-.26-.1-.52-.12-.78a12.75 12.75 0 0 1-.1-1.59 11.21 11.21 0 0 1 .11-1.6 8.42 8.42 0 0 1 .28-1.52 7 7 0 0 1 .71-1.44 5.57 5.57 0 0 1 .48-.64 5.4 5.4 0 0 1 .56-.57 6.76 6.76 0 0 1 2.8-1.48.08.08 0 0 1 .09.05h0l.4 1.2a.12.12 0 0 1 0 .13h0a7.4 7.4 0 0 0-.93.86 9.56 9.56 0 0 0-.81 1 12.36 12.36 0 0 0-1.25 2.23 13.69 13.69 0 0 0-.78 2.44l-.1.23-.08.35c0 .2-.07.42-.1.64s0 .43-.07.64l-.05.64a.05.05 0 0 1-.05 0zm0 0h.9l-.06.06v-1.3c0-.22 0-.44.07-.65V28l.06-.32a12.28 12.28 0 0 1 .74-2.51 10.88 10.88 0 0 1 1.29-2.28 10.24 10.24 0 0 1 .85-1 5.11 5.11 0 0 1 .48-.45 5.55 5.55 0 0 1 .64-.51v.13l-.33-1.2.05.08a7.58 7.58 0 0 0-.75.21l-.37.13-.4.15a5.38 5.38 0 0 0-1.29.89 5.31 5.31 0 0 0-1 1.23 7.08 7.08 0 0 0-.56 1.39 11.43 11.43 0 0 0-.5 3.08v1.57c0 .26 0 .52.07.8s0 .26 0 .4v.37m-17.65-.04l.1.5c0 .16.07.33.1.5l.18 1-.1-.1.4-.34.4-.33.08-.06v.16q0 .2.07.43c0 .14 0 .3.07.43l.13.86-.06-.06.25-.16.23-.16.26.42.27.42.46-.1.46-.12.7.6h-.04l.58-.67.58-.64.4.25.32.27-.1.07.1-.44.1-.45.27-.53.27-.52-.23.6-.24.57-.07.43-.08.46v.12l-.07-.05-.33-.23-.33-.3h.08l-.58.65-.6.63-.67-.66-.47.05-.47.06-.26-.43-.27-.42-.22.18-.22.2v-.1l-.17-.85c0-.14-.06-.28-.08-.42l-.08-.43.1.1-.48.45-.4.3-.07.06v-.14l-.14-1c0-.17 0-.34-.06-.5s0-.34-.07-.5h0z" class="D"/><path d="M63.27 30.04a.59.59 0 1 1-.58-.63.59.59 0 0 1 .55.63m6.6 1.13a.59.59 0 1 1-.144-.43.59.59 0 0 1 .144.429" fill="#c72a27"/><g class="T"><path d="M86.7 77.94s-1.54 7.53 5.74 7.8l-.38 2.74s-5.24.83-7.7-3.63-2.67-7.6-.1-9.92 5.15.8 2.42 3"/><path d="M95.93 80.8l-2.4.7s-1.54-5.07-6.06-3.7-4.25-2.65-2.08-3.42a9.84 9.84 0 0 1 5.94-.33c1.92.47 4.74 3.48 4.6 6.74"/></g><path d="M93.44 81.66a3.56 3.56 0 0 1-.14.45l-.2.42c-.07.14-.15.27-.23.4a3 3 0 0 1-.28.38 2.84 2.84 0 0 1 .14-.45 4.41 4.41 0 0 1 .19-.42 4.63 4.63 0 0 1 .23-.4 2.83 2.83 0 0 1 .28-.38m-6.73-5.2a1 1 0 1 1-1-.79.9.9 0 0 1 1 .79" class="D"/><path d="M86.18 75.63a3.32 3.32 0 0 1-.15.45l-.2.42-.23.4a2.75 2.75 0 0 1-.28.38 2.88 2.88 0 0 1 .14-.45l.2-.42.23-.4a2.9 2.9 0 0 1 .28-.38" class="T"/><path d="M75.8 101.28s2.55 9 4.7 10.7c0 0 2.1 1.13.75-1a22.91 22.91 0 0 1-3.56-10.36c-.38-4.46-2.76-2.2-1.86.65" class="C"/><g clip-path="url(#T)" class="I G"><path d="M81.5 111.94l.2.1a2 2 0 0 0-.45-1.14 22.89 22.89 0 0 1-3.55-10.3 4.44 4.44 0 0 0-.61-2.22 3.32 3.32 0 0 0-.25 2.88s2.55 9 4.7 10.7"/></g><path d="M54.78 111.65a3.11 3.11 0 0 0 .49.92.86.86 0 0 0 .38.29.49.49 0 0 0 .22 0 .63.63 0 0 0 .21-.07l.1-.06.1-.08.2-.17.37-.35a6.24 6.24 0 0 0 .67-.79h0a1.69 1.69 0 0 1-.18.52 2.48 2.48 0 0 1-.3.46 2.32 2.32 0 0 1-.4.38l-.23.15-.12.07-.13.07a1 1 0 0 1-.3.07.67.67 0 0 1-.3-.06 1 1 0 0 1-.42-.38 2.43 2.43 0 0 1-.25-.48 3.52 3.52 0 0 1-.15-.51h0zM39.02 49.32a3 3 0 0 0-1-.12.88.88 0 0 0-.46.14.45.45 0 0 0-.14.16.64.64 0 0 0-.06.21 1.06 1.06 0 0 0 0 .12v.37c0 .1.05.33.08.5a6.63 6.63 0 0 0 .27 1h0a1.78 1.78 0 0 1-.32-.44 2.66 2.66 0 0 1-.2-.51 2.4 2.4 0 0 1-.08-.54v-.38a1.38 1.38 0 0 1 0-.15.85.85 0 0 1 .11-.29.68.68 0 0 1 .22-.22 1.06 1.06 0 0 1 .56-.13 2.57 2.57 0 0 1 .54.07 3.3 3.3 0 0 1 .51.17h0zm41 62.7a3 3 0 0 0 1 .39.87.87 0 0 0 .48 0 .47.47 0 0 0 .18-.12.62.62 0 0 0 .11-.19v-.5c0-.08 0-.34.06-.5a6.54 6.54 0 0 0 0-1h0a1.89 1.89 0 0 1 .19.52 2.84 2.84 0 0 1 .06.54 2.29 2.29 0 0 1-.06.55 2.57 2.57 0 0 1-.08.27v.13l-.06.14a.81.81 0 0 1-.18.25.7.7 0 0 1-.27.15 1 1 0 0 1-.57 0 2.19 2.19 0 0 1-.5-.21 3 3 0 0 1-.45-.3zm-2.32-12.6a3 3 0 0 0-.42-.95.84.84 0 0 0-.36-.32.52.52 0 0 0-.21 0 .74.74 0 0 0-.22.06l-.1.06-.1.07-.2.15-.37.28a6.41 6.41 0 0 0-.73.74h0a1.72 1.72 0 0 1 .22-.5 2.64 2.64 0 0 1 .34-.44 2.27 2.27 0 0 1 .43-.35l.24-.14.12-.06.1-.1a.77.77 0 0 1 .28 0 .68.68 0 0 1 .3.08 1.06 1.06 0 0 1 .4.41 2.33 2.33 0 0 1 .21.5 3.22 3.22 0 0 1 .12.52h0z" fill="#d62d27"/><path d="M72.9 17.03l-.5-2.1-1.5-6.4a.25.25 0 0 1 .19-.3h.12l3.76.8 1.88.4q.94.2 1.87.42l-.47.27q.26-.8.54-1.6l.58-1.6.6-1.57.65-1.55h.07l-.36 1.65-.4 1.63-.44 1.62-.47 1.6a.39.39 0 0 1-.46.27h0l-1.87-.45-1.86-.5-3.73-.95.3-.3 1.2 6.46.4 2.16h-.1z" class="C"/><path d="M79.9 7.1l.2-.8-.42 1.06-.57 1.58-.42 1.24-1.5-.34-1.88-.4-3.76-.8h-.12a.25.25 0 0 0-.19.3q.5 2.13 1 4.27l.16.73-.22-1.22-.72-3.9 5.23 1.33q.93.24 1.87.46h0a.39.39 0 0 0 .46-.27q.24-.8.47-1.6l.44-1.62" class="O"/><path d="M50.63 19.48a6.34 6.34 0 0 1 .38-1.08 6.16 6.16 0 0 1 .58-1 4.22 4.22 0 0 1 .81-.86 3.49 3.49 0 0 1 .51-.32 3.24 3.24 0 0 1 .57-.22h.1l2.86.88 1.44.4 1.45.37q1.45.36 2.92.65l1.43.27 1.5.2a20.48 20.48 0 0 1-3-.16l-1.5-.22-1.48-.3-1.47-.35-.73-.2-.72-.2c-1-.28-1.92-.6-2.86-1h.1a2.94 2.94 0 0 0-.5.16 3.27 3.27 0 0 0-.47.26 4 4 0 0 0-.43.34 4.55 4.55 0 0 0-.38.4 6.3 6.3 0 0 0-.65.92 4.82 4.82 0 0 0-.27.5 5.64 5.64 0 0 0-.24.52" fill="#f2c3b3"/><g clip-path="url(#U)" opacity=".4" class="F"><path d="M71.38 10.15l-.26-.88-.1-.45c-.03-.12 0-.15 0-.23a1 1 0 0 1 0-.24h0 .45l.43.05.9.2-.46-.06-.45-.07-.46-.07h-.37a.94.94 0 0 0 0 .22v.22c0 .07.06.3.1.45z"/></g><g clip-path="url(#V)" opacity=".4" class="F"><path d="M78.8 8.88l.33-1.06.36-1 .4-1a8.81 8.81 0 0 1 .46-1c-.08.17-.14.34-.2.52l-.2.52-.37 1-.38 1-.4 1"/></g><g clip-path="url(#W)" opacity=".2" class="F"><path d="M79.98 1.17L77.08.6s-.06 2.55 3.52 3.35l.3.08c-.88-1.08-1.63-2.3-.9-2.85"/></g><path d="M86.38 2.12c-.1.5-2.24.53-4.8.06S77.03.94 77.1.44s2.25-.5 4.8-.07 4.56 1.25 4.47 1.75" class="C"/><path d="M86.6 2.16a.29.29 0 0 1-.07.16.66.66 0 0 1-.13.11 1.49 1.49 0 0 1-.31.14 3.75 3.75 0 0 1-.65.14 8.4 8.4 0 0 1-1.32.07 15.55 15.55 0 0 1-2.61-.27 16 16 0 0 1-2.55-.68 9.37 9.37 0 0 1-1.22-.54 4.42 4.42 0 0 1-.57-.35 1.54 1.54 0 0 1-.26-.26.86.86 0 0 1-.09-.16.32.32 0 0 1 0-.18.3.3 0 0 0 0 .16.59.59 0 0 0 .11.12 1.43 1.43 0 0 0 .27.19 4.5 4.5 0 0 0 .59.28l.6.22.62.2 2.56.6 2.56.37 1.3.06a4.19 4.19 0 0 0 .64-.05 1.21 1.21 0 0 0 .31-.08l.14-.08a.28.28 0 0 0 .09-.14" fill="#939598"/><path d="M82.7 1a1 1 0 1 0-2 0 1 1 0 1 0 2 0" class="O"/><path d="M87.24 78.1a6.2 6.2 0 0 1-1.69.22 4.19 4.19 0 0 1-.86-.09 2.3 2.3 0 0 1-.82-.35 1.3 1.3 0 0 1-.52-.76 1.81 1.81 0 0 1 0-.89v-.2l.08-.2.18-.4c.06-.13.14-.25.22-.37l.24-.34-.17.38-.16.4-.05.4-.05.2v.2a1.66 1.66 0 0 0 0 .78 1.05 1.05 0 0 0 .42.6 2 2 0 0 0 .72.32 4.63 4.63 0 0 0 .81.13 12.33 12.33 0 0 0 1.68 0" class="D"/><path d="M76.96 58.83c0 2.77-1.67 3.08-3.93 3.67a4.05 4.05 0 0 1-5.17-4c0-2.77.95-5.72 5-5 2.74.47 4.1 2.55 4.1 5.32" class="M"/><path d="M68.47 58.14c0-1.7.36-3.44 1.55-4.4-1.7.8-2.16 2.83-2.16 4.78a4.05 4.05 0 0 0 5.17 4 8 8 0 0 0 2.95-1.12 13.21 13.21 0 0 1-2.34.74 4.05 4.05 0 0 1-5.17-4" class="E"/><path d="M54.03 64.94a78.84 78.84 0 0 0-.5 11.78c.33 4.82 22.86 4.36 22.86 4.36l.83-12.95s-20.1-.2-23.2-3.2" class="M"/><path d="M54.35 75.94a72.22 72.22 0 0 1 .34-10.53 3.28 3.28 0 0 1-.71-.5 79.2 79.2 0 0 0-.51 11.78c.33 4.82 22.86 4.36 22.86 4.36v-.7c-4 0-21.78-.1-22.07-4.37" class="E"/><g clip-path="url(#X)"><g class="E"><path d="M68.7 57.3a1.13 1.13 0 0 1 .28 0h.55a1.14 1.14 0 0 1 .27.1 1.09 1.09 0 0 1-.28 0h-.28l-.27-.05a1.08 1.08 0 0 1-.27-.1m.45 2.27a1.11 1.11 0 0 1 .22-.18l.24-.13.26-.1a1.18 1.18 0 0 1 .28 0 1.07 1.07 0 0 1-.22.18l-.24.1-.26.1a1.15 1.15 0 0 1-.28 0m1.55 1.7a1.25 1.25 0 0 1 .1-.27 1.71 1.71 0 0 1 .15-.23 1.47 1.47 0 0 1 .18-.21 1 1 0 0 1 .22-.18 1.06 1.06 0 0 1-.1.27 1.52 1.52 0 0 1-.14.23 1.83 1.83 0 0 1-.18.21 1.19 1.19 0 0 1-.22.18m2.1.74a1.06 1.06 0 0 1 0-.28 1.77 1.77 0 0 1 .06-.55 1.08 1.08 0 0 1 .1-.27 1.16 1.16 0 0 1 0 .28 1.66 1.66 0 0 1 0 .28 2.14 2.14 0 0 1 0 .27 1.24 1.24 0 0 1-.11.26m2.17-.48a1.29 1.29 0 0 1-.18-.22 2 2 0 0 1-.15-.29 1.74 1.74 0 0 1-.1-.26 1.21 1.21 0 0 1 0-.28 1 1 0 0 1 .18.22 1.91 1.91 0 0 1 .22.51 1.13 1.13 0 0 1 0 .28m1.7-1.47a1.18 1.18 0 0 1-.27-.1l-.23-.14-.2-.18a1.18 1.18 0 0 1-.18-.22 1.07 1.07 0 0 1 .27.1l.24.15a1.41 1.41 0 0 1 .21.18 1.25 1.25 0 0 1 .17.21m.7-2.14a1.15 1.15 0 0 1-.28 0h-.28l-.27-.05a1.13 1.13 0 0 1-.26-.1 1.12 1.12 0 0 1 .28 0h.28l.27.05a1.11 1.11 0 0 1 .27.11m-.47-2.23a1.15 1.15 0 0 1-.22.18l-.25.18h-.26a1 1 0 0 1-.28 0 1.06 1.06 0 0 1 .22-.18l.24-.13h.28a1.21 1.21 0 0 1 .28 0m-1.52-1.7a1.19 1.19 0 0 1-.1.27 2.11 2.11 0 0 1-.15.24 1.67 1.67 0 0 1-.18.21 1.13 1.13 0 0 1-.22.18 1 1 0 0 1 .1-.27 1.8 1.8 0 0 1 .32-.45 1.2 1.2 0 0 1 .23-.18m-2.15-.74a1.11 1.11 0 0 1 0 .28 2 2 0 0 1 0 .28 1.49 1.49 0 0 1 0 .27 1.09 1.09 0 0 1-.1.27 1.09 1.09 0 0 1 0-.28 1.54 1.54 0 0 1 0-.28 1.44 1.44 0 0 1 .05-.27 1 1 0 0 1 .1-.27m-2.27.45a1.22 1.22 0 0 1 .18.22 2 2 0 0 1 .13.25 1.73 1.73 0 0 1 .09.26 1.17 1.17 0 0 1 0 .28 1.15 1.15 0 0 1-.18-.22 1.55 1.55 0 0 1-.13-.24 1.66 1.66 0 0 1-.04-.26 1.15 1.15 0 0 1 0-.28m-1.73 1.5a1.17 1.17 0 0 1 .27.1l.24.14.2.18a1 1 0 0 1 .18.22 1.07 1.07 0 0 1-.27-.1l-.24-.14a1.94 1.94 0 0 1-.21-.18 1.2 1.2 0 0 1-.18-.22"/></g><g class="D"><path d="M69.9 60.4a2.91 2.91 0 0 1 .78-.68 2.73 2.73 0 0 1-.38.38 2.45 2.45 0 0 1-.44.3m1.9 1.2a2.58 2.58 0 0 1 .14-.52 2.65 2.65 0 0 1 .23-.48 2.54 2.54 0 0 1-.14.52 2.65 2.65 0 0 1-.23.49m2.2.1a2.93 2.93 0 0 1-.18-1.06 2.79 2.79 0 0 1 .14.52 2.66 2.66 0 0 1 0 .54m1.98-1a2.72 2.72 0 0 1-.38-.38 2.5 2.5 0 0 1-.3-.44 2.74 2.74 0 0 1 .38.38 2.69 2.69 0 0 1 .3.44m1.2-1.85a2.54 2.54 0 0 1-.52-.14 2.6 2.6 0 0 1-.49-.23 2.46 2.46 0 0 1 .52.14 2.6 2.6 0 0 1 .49.23m.1-2.2a2.86 2.86 0 0 1-.52.14 2.78 2.78 0 0 1-.54 0 2.65 2.65 0 0 1 .55-.1 2.61 2.61 0 0 1 .54 0m-1.03-2a2.63 2.63 0 0 1-.38.38 2.5 2.5 0 0 1-.45.3 2.77 2.77 0 0 1 .38-.38 2.65 2.65 0 0 1 .44-.3m-1.84-1.2a2.55 2.55 0 0 1-.14.52 2.85 2.85 0 0 1-.23.49 2.57 2.57 0 0 1 .13-.57 2.64 2.64 0 0 1 .23-.48m-2.2-.06a2.57 2.57 0 0 1 .14.52 2.65 2.65 0 0 1 0 .54 2.39 2.39 0 0 1-.1-.52 2.64 2.64 0 0 1 0-.53m-2 1a2.51 2.51 0 0 1 .38.38 2.71 2.71 0 0 1 .3.44 2.48 2.48 0 0 1-.38-.38 2.69 2.69 0 0 1-.3-.44M69 56.26a2.7 2.7 0 0 1 .52.14 2.54 2.54 0 0 1 .49.23 2.63 2.63 0 0 1-.52-.14 2.66 2.66 0 0 1-.49-.23m-.1 2.2a2.57 2.57 0 0 1 .52-.14 2.7 2.7 0 0 1 .54 0 2.55 2.55 0 0 1-.52.14 2.71 2.71 0 0 1-.54 0"/></g></g><g stroke="#d62d27" class="B U"><path d="M72.4 58.02l3.57-.22" stroke-width=".4"/><path d="M72.4 58.02l-.82-.83" stroke-width=".01"/></g><path d="M58.38 63.3a1 1 0 1 1-2 0 1 1 0 1 1 2 0" class="D"/><path d="M57.9 62.45a1 1 0 0 1-.68 1.72 1 1 0 0 1-.54-.15 1 1 0 0 0 1.72-.614 1 1 0 0 0-.52-.956" class="J"/><path d="M65.92 64.58a1 1 0 1 1-2 0 1 1 0 1 1 2 0" class="R"/><path d="M65.45 63.74a1 1 0 0 1-.68 1.72 1 1 0 0 1-.52-.15 1 1 0 0 0 1.72-.614 1 1 0 0 0-.52-.956" class="S"/><path d="M73 64.94a1 1 0 1 1-2 0 1 1 0 1 1 2 0" class="T"/><path d="M72.52 64.07a1 1 0 0 1-.68 1.72 1 1 0 0 1-.52-.15 1 1 0 0 0 1.72-.614 1 1 0 0 0-.52-.956" class="Q"/><path d="M62.27 63.94a1.34 1.34 0 1 1-2.68 0 1.34 1.34 0 0 1 2.288-.948 1.34 1.34 0 0 1 .392.948" fill="#d62d27"/><path d="M61.63 62.78a1.35 1.35 0 0 1-1.62 2.16 1.34 1.34 0 0 0 2.274-.835 1.34 1.34 0 0 0-.654-1.275" fill="#c72a27"/><path d="M54.35 57.35a10.52 10.52 0 0 1 0-5 50.29 50.29 0 0 0 11.61 1.74c0 0-1.27 3.05-.84 4.85 0 0-9.23-.27-10.77-1.6" fill="#f5ae95"/><path d="M54.8 52.5l-.44-.12a10.51 10.51 0 0 0 0 5c1.54 1.3 10.77 1.57 10.77 1.57a3.53 3.53 0 0 1-.08-.6c-2.14-.1-8.8-.47-10.1-1.57a10.59 10.59 0 0 1-.15-4.28" class="E"/><path d="M54.65 54.67l2.06.57 1.26-1.18.4 3.08 1.2-1.9.42.8 1.4-1.7.23 2.8.63-1.48 3.06.4" stroke="#d62d27" stroke-width=".3" class="B U"/><g clip-path="url(#Y)" opacity=".64"><path d="M52.48 26.6a11.93 11.93 0 0 0 .46 1.51l.14.36c0 .12.1.24.15.36l.16.36.17.35.13.4.1.17.1.17.2.34.26.32.2.33.22.33.45.65-.56-.56a5.02 5.02 0 0 1-.5-.62 9.15 9.15 0 0 1-.84-1.36 9 9 0 0 1-.62-1.53 5.79 5.79 0 0 1-.24-1.58" fill="#cae1f1"/></g><path d="M64.24 24.12c0 1.48-1.23 3-2.68 2.68-2.05-.42-2.68-1.2-2.68-2.68a2.68 2.68 0 0 1 2.68-2.68 2.37 2.37 0 0 1 2.68 2.68" class="F"/><path d="M63.7 24.94a1.58 1.58 0 0 1-1.68 1.68c-1.32-.26-1.7-.74-1.7-1.68A1.68 1.68 0 0 1 62 23.26a1.48 1.48 0 0 1 1.69 1.68" class="E"/><path d="M61.83 21.72a2.86 2.86 0 0 1 1.88.55 2.57 2.57 0 0 0-2.16-.84 2.68 2.68 0 0 0-2.68 2.68 2.26 2.26 0 0 0 .74 1.89 2.47 2.47 0 0 1-.46-1.61 2.68 2.68 0 0 1 2.68-2.68" class="M"/><path d="M62.1 23.4a.66.66 0 1 1-.66-.66.66.66 0 0 1 .66.66m10.6 2a2 2 0 0 1-2.1 2.1c-1.6-.33-2.1-.94-2.1-2.1a2.1 2.1 0 0 1 2.1-2.1 1.86 1.86 0 0 1 2.1 2.1" class="F"/><path d="M72.28 26.06a1.24 1.24 0 0 1-1.32 1.31c-1-.2-1.3-.6-1.3-1.3a1.31 1.31 0 0 1 1.31-1.31 1.16 1.16 0 0 1 1.32 1.31" class="E"/><path d="M70.84 23.53a2.24 2.24 0 0 1 1.47.43 2 2 0 0 0-1.69-.65 2.1 2.1 0 0 0-2.1 2.1 1.77 1.77 0 0 0 .58 1.53 1.94 1.94 0 0 1-.41-1.31 2.1 2.1 0 0 1 2.1-2.1" class="M"/><path d="M70.82 24.94a.52.52 0 0 1-.888.368.52.52 0 0 1 .368-.888.52.52 0 0 1 .52.52" class="F"/></svg>