<svg xmlns="http://www.w3.org/2000/svg" viewBox="0 0 69.15 112.24"><path d="M36.96 102.12a20.48 20.48 0 0 1 .5-2.4 30.05 30.05 0 0 1 .7-3.2c1.2-4.6 2.2-7.4 2.6-9.5h.2a9 9 0 0 0 13.6-1.3h.2a81.36 81.36 0 0 1-1.8 11c-.7 3.1-1.4 6.4-3.1 9.1l-.6.9c-.3.4-.6.9-.9 1.4a12.67 12.67 0 0 1-1.1 1.3 9.2 9.2 0 0 1-2.5 1.9 6.14 6.14 0 0 1-4 .3 5.44 5.44 0 0 1-2.6-1.6 6.59 6.59 0 0 1-1.1-2.4 14.58 14.58 0 0 1-.1-5.5z" fill="#e2a355"/><path d="M37.46 100.42a22.91 22.91 0 0 1 .7-2.8 70 70 0 0 0 2-8.6v-.3l.8-4.9c1.5 1.2 14.1-2.3 14.1-2.3l-.3 3.3c-.1.9-.8 8.9-1.9 13-.1.5-.6 2.8-.7 3.3-2.8 1.9-7.9 2.6-15.1.7a10.26 10.26 0 0 0 .4-1.4z" fill="#b02024"/><path d="M55.06 82.22c-.3 3.2-.7 6.3-1.2 9.4a51.48 51.48 0 0 1-2.2 9.6c-1.5 4.5-4.5 11.7-10.6 9.9a4.87 4.87 0 0 1-2.4-1.6 6.59 6.59 0 0 1-1.1-2.4 14 14 0 0 1-.1-5.4 22.11 22.11 0 0 1 .5-2.5 30.05 30.05 0 0 1 .7-3.2c1.2-4.9 2-9.9 2.4-12.1" fill="none" stroke="#371f0f" stroke-linecap="round" stroke-linejoin="round" stroke-width="1.681"/><path d="M62.46 55.62a89 89 0 0 0-9.6-10.8 24.48 24.48 0 0 1-6.9 4.6l.3.4c.4.4.8.9 1.3 1.4 2.6 2.9 9.2 11.1 9.7 19.1.7 1.6 1.1 2.9 1.3 3.4a9.49 9.49 0 0 0 .9 2.1c0 .1.1.1.1.2a4.73 4.73 0 0 0 3 2.6 3.87 3.87 0 0 0 2.6 0 6.12 6.12 0 0 0 1.2-.5 4.73 4.73 0 0 0 2.1-3.1c1.5-6.4-2-13.6-6-19.4z" fill="#e2a355"/><path d="M53.46 45.42a.35.35 0 0 0-.4-.1l-.2-.4-1.6-1-2.5 1.9-3.6 2.8.5.6c1.7 1.8 2.8 2.9 3.6 3.9l4.9 7.5a16.48 16.48 0 0 0 4.3-1.2c.1 0 .1-.1.2-.1a2.18 2.18 0 0 0 .8-.5c.3-.2.5-.4.8-.6a5.56 5.56 0 0 0 2.1-2.4c0-.1.1-.1.1-.2a71.14 71.14 0 0 0-9-10.2z" fill="#e6e7e8"/><path d="M46.56 49.92a39.93 39.93 0 0 1 10.4 18c.6 2.6.7 5.3 1.7 7.7 1.2 3 4.4 4.6 7.2 2.6 2.5-1.8 2.7-5.6 2.4-8.3a23.33 23.33 0 0 0-2.1-6.8 49.29 49.29 0 0 0-8.1-12.6 47.74 47.74 0 0 0-6.6-6.1" fill="none" stroke="#371f0f" stroke-linecap="round" stroke-linejoin="round" stroke-width="1.56"/><path d="M58.46 72.92c0-.3.1-.6.1-.9.1-1.2.2-2.4.2-3.7 0-1.2-.1-2.3-.2-3.5 0-.3-.1-.7-.1-1a21.66 21.66 0 0 0-.4-2.5c-.1-.3-.1-.6-.2-.9a29.92 29.92 0 0 0-.8-3.2v-.1c-.3-1-.6-1.9-1-2.9a2 2 0 0 0-.4-.8 20 20 0 0 0-1-2.1 2.51 2.51 0 0 0-.4-.7 22.61 22.61 0 0 0-1.6-2.6c0-.1-.1-.1-.1-.2-.5-.8-1.1-1.5-1.6-2.2a2.65 2.65 0 0 1-.5-.6c-.5-.6-1-1.1-1.5-1.6a1.38 1.38 0 0 1-.3-.4c-.1-.1-.2-.1-.3-.2s-.4-.3-.6-.5-.4-.3-.6-.5a21.06 21.06 0 0 0-9-4.4 20.24 20.24 0 0 0-4.3-.5 21.19 21.19 0 0 0-13.3 4.9l-.3.3c-.6.5-1.2 1.1-1.8 1.7l-.6.6-.4.4a5.55 5.55 0 0 0-.6.8c-.5.6-1.1 1.3-1.6 2-.1.2-.3.4-.4.6-.3.4-.5.8-.8 1.2-.1.2-.3.4-.4.6-.5.9-1 1.9-1.5 2.9a1.42 1.42 0 0 0-.2.6 27.73 27.73 0 0 0-1 2.6l-.3.9a1.85 1.85 0 0 0-.2.7c-.2.9-.5 1.7-.7 2.6v.2c-.2 1.1-.4 2.2-.5 3.3 0 .3-.1.6-.1.9-.1 1.2-.2 2.4-.2 3.7 0 1.2.1 2.3.2 3.5 0 .3.1.7.1 1a21.66 21.66 0 0 0 .4 2.5c.1.3.1.6.2.9a29.92 29.92 0 0 0 .8 3.2v.1c.3 1 .6 1.9 1 2.9a2 2 0 0 0 .4.8 20 20 0 0 0 1 2.1 2.51 2.51 0 0 0 .4.7 22.61 22.61 0 0 0 1.6 2.6c0 .1.1.1.1.2.5.8 1.1 1.5 1.6 2.2a2.65 2.65 0 0 1 .5.6c.5.6 1 1.1 1.5 1.6a1.38 1.38 0 0 1 .3.4c.1.1.2.1.3.2s.4.3.6.5a2.36 2.36 0 0 1 .5.5 21.06 21.06 0 0 0 9 4.4 20.24 20.24 0 0 0 4.3.5 21.19 21.19 0 0 0 13.3-4.9l.3-.3c.6-.5 1.2-1.1 1.8-1.7l.6-.6.4-.4a5.55 5.55 0 0 0 .6-.8 14.91 14.91 0 0 0 1.5-2c.1-.2.3-.4.4-.6.3-.4.5-.8.8-1.2.1-.2.3-.4.4-.6.5-.9 1-1.9 1.5-2.9a1.42 1.42 0 0 0 .2-.6 27.73 27.73 0 0 0 1-2.6l.3-.9a1.85 1.85 0 0 0 .2-.7c.2-.9.5-1.7.7-2.6v-.2a12.13 12.13 0 0 0 .7-3.3z" fill="#e6e7e8"/><path d="M9.16 71.82c1.2 14 9.6 25.2 20.4 27.6a20.24 20.24 0 0 0 4.3.5c6.3 0 12-3 16.4-7.8a29.11 29.11 0 0 0 2.6-3.3 33.09 33.09 0 0 0 4.4-9.5 40.51 40.51 0 0 0 1.3-7.1 69 69 0 0 1-49.4-.4z" fill="#b02024"/><path d="M58.56 64.92c0-.3-.1-.7-.1-1a21.66 21.66 0 0 0-.4-2.5c-.1-.3-.1-.6-.2-.9a29.92 29.92 0 0 0-.8-3.2v-.1c-.3-1-.6-1.9-1-2.9a2 2 0 0 0-.4-.8 20 20 0 0 0-1-2.1 2.51 2.51 0 0 0-.4-.7 22.61 22.61 0 0 0-1.6-2.6c0-.1-.1-.1-.1-.2-.5-.8-1.1-1.5-1.6-2.2a2.65 2.65 0 0 1-.5-.6c-.5-.6-1-1.1-1.5-1.6a1.38 1.38 0 0 1-.3-.4c-.1-.1-.2-.1-.3-.2s-.4-.3-.6-.5-.4-.3-.6-.5a21.06 21.06 0 0 0-9-4.4 20.24 20.24 0 0 0-4.3-.5 21.19 21.19 0 0 0-13.3 4.9l-.3.3c-.6.5-1.2 1.1-1.8 1.7l-.6.6-.4.4a5.55 5.55 0 0 0-.6.8c-.5.6-1.1 1.3-1.6 2-.1.2-.3.4-.4.6-.3.4-.5.8-.8 1.2-.1.2-.3.4-.4.6-.5.9-1 1.9-1.5 2.9a1.42 1.42 0 0 0-.2.6 27.73 27.73 0 0 0-1 2.6l-.3.9a1.85 1.85 0 0 0-.2.7c-.2.9-.5 1.7-.7 2.6v.2c-.2 1.1-.4 2.2-.5 3.3 0 .3-.1.6-.1.9-.1 1.2-.2 2.4-.2 3.7a37.93 37.93 0 0 0 .6 6.7v.3c.1.3.1.6.2.9a.37.37 0 0 0 .1.3c.2.7.3 1.4.5 2.1.1.3.1.5.2.8v.1c.1.3.2.5.3.8l.6 1.8c0 .1.1.2.1.3a2 2 0 0 0 .4.8v.1c.3.6.6 1.2.9 1.9 0 .1.1.1.1.2s.1.1.1.2a3.33 3.33 0 0 1 .3.6c0 .1.1.1.1.2l1.2 2.1c.1.1.1.3.2.4s.1.1.1.2a.53.53 0 0 1 .2.3 19.22 19.22 0 0 0 1.3 1.7c0 .1.1.1.1.2l.1.1c.7.8 1.4 1.5 2.1 2.2l.2.2c.1.1.2.1.3.2s.4.3.6.5a1.38 1.38 0 0 0 .4.3c.1 0 .1.1.2.1l2.1 1.5a12.81 12.81 0 0 0 2 1.1 1.47 1.47 0 0 0 .4.2c.6.3 1.2.5 1.8.8.2.1.3.1.5.2a8.65 8.65 0 0 0 2.3.6 17 17 0 0 0 2.2.4 14.08 14.08 0 0 0 2 .1 14.77 14.77 0 0 0 2.1-.1c.2 0 .5-.1.7-.1.5-.1.9-.1 1.4-.2.3-.1.5-.1.8-.2l1.2-.3.9-.3c.5-.2 1-.4 1.4-.6s.9-.5 1.4-.7l.6-.3c.4-.2.8-.5 1.2-.7.2-.1.3-.2.5-.3l1.2-.9.3-.3c.6-.5 1.2-1.1 1.8-1.7l.6-.6.4-.4a5.55 5.55 0 0 0 .6-.8 14.91 14.91 0 0 0 1.5-2c.1-.2.3-.4.4-.6.3-.4.5-.8.8-1.2.1-.1.1-.2.2-.3a32.39 32.39 0 0 0 1.7-3.2 1.42 1.42 0 0 0 .2-.6 27.73 27.73 0 0 0 1-2.6c.1-.2.1-.4.2-.6s.2-.7.3-1c.2-.9.5-1.7.7-2.6v-.5a7.72 7.72 0 0 0 .2-1.5 7.72 7.72 0 0 0 .2-1.5c0-.3.1-.6.1-.9.1-1.2.2-2.4.2-3.7a16 16 0 0 0 0-3.8z" fill="none" stroke="#371f0f" stroke-miterlimit="10" stroke-width="1.659"/><path d="M48.36 47.22a22.07 22.07 0 0 1 2.2 3.3 28.42 28.42 0 0 1 3.1 8 18.46 18.46 0 0 1 .4 2.3 18 18 0 0 1 .2 2.2 14.72 14.72 0 0 1 0 2.1c0 .7-.1 1.3-.1 1.9-.1 1.2-.3 2.1-.4 2.7a6.47 6.47 0 0 1-.2 1 6.73 6.73 0 0 1 .1-1 18.7 18.7 0 0 0 .2-2.7v-1.8c-.1-.6-.1-1.3-.2-2a15.52 15.52 0 0 0-.4-2.1c-.2-.7-.3-1.4-.6-2.2a26.14 26.14 0 0 0-3.6-7.3 25.08 25.08 0 0 0-2.3-2.8z" fill="#fff"/><path d="M30.46 101.92a20.48 20.48 0 0 0-.5-2.4 30.05 30.05 0 0 0-.7-3.2c-1.2-4.6-2.2-7.3-2.6-9.5h-.2a8.6 8.6 0 0 1-6.6 2.5 8.31 8.31 0 0 1-7-3.8h-.2a100.86 100.86 0 0 0 1.8 11c.7 3.1 1.4 6.4 3.1 9.1l.6.9c.3.4.6.9.9 1.4a12.67 12.67 0 0 0 1.1 1.3 9.2 9.2 0 0 0 2.5 1.9 6.87 6.87 0 0 0 4 .3 5.44 5.44 0 0 0 2.6-1.6 6.59 6.59 0 0 0 1.1-2.4 12.81 12.81 0 0 0 .1-5.5z" fill="#e2a355"/><path d="M29.96 100.12c-.2-1-.5-1.9-.7-2.8a70 70 0 0 1-2-8.6v-.3l-.8-4.9c-1.5 1.3-14.1-2.2-14.1-2.2l.3 3.3c.1.9.8 8.9 1.9 13 .1.5.6 2.8.7 3.3 2.8 1.9 7.9 2.6 15.1.7a11.31 11.31 0 0 1-.4-1.5z" fill="#b02024"/><path d="M12.36 82.02c.3 3.2.7 6.3 1.2 9.4a51.48 51.48 0 0 0 2.2 9.6c1.5 4.5 4.6 11.7 10.6 9.9a4.87 4.87 0 0 0 2.4-1.6 6.59 6.59 0 0 0 1.1-2.4 16.32 16.32 0 0 0 .1-5.4 22.11 22.11 0 0 0-.5-2.5 30.05 30.05 0 0 0-.7-3.2c-1.2-4.9-2.1-9.9-2.4-12.1" fill="none" stroke="#371f0f" stroke-linecap="round" stroke-linejoin="round" stroke-width="1.681"/><path d="M17.76 44.02a88.24 88.24 0 0 0-10.4 10.7c-4.3 5.8-7.9 12.9-6 19.3a6.17 6.17 0 0 0 2.6 3.1 6.94 6.94 0 0 0 1.3.5 5.7 5.7 0 0 0 2.9 0 5.57 5.57 0 0 0 3.3-2.6.35.35 0 0 0 .1-.2 9.49 9.49 0 0 0 .9-2.1c.8-2.5.9-5 2.4-8.8-.4-.3-.3-1.1 1.2-2.7 0 0 4.5-8.4 9.4-12.3l.3-.3a29.51 29.51 0 0 1-8-4.6z" fill="#e2a355"/><path d="M25.36 48.42c-.8-.4-1.6-.7-2.4-1.1-.6-.3-1.1-.6-1.7-.9a2.09 2.09 0 0 1-.6-.4.52.52 0 0 0-.4-.2l-.9-.6-1.2-.9-.2-.1h-.1a1.08 1.08 0 0 1-.1.6v.5h-.1c-.1 0-.2-.5-.5-.3a68 68 0 0 0-9.8 10.1c0 .1.1 0 .1 0a6.89 6.89 0 0 0 2.4 2.4 4.05 4.05 0 0 0 .9.5c2.6 1.6 5.1 2.2 6 1.3a28.14 28.14 0 0 1 2.7-3.6 55.5 55.5 0 0 1 6.5-7.1 3.93 3.93 0 0 0-.6-.2z" fill="#e6e7e8"/><path d="M17.76 44.02a88.24 88.24 0 0 0-10.4 10.7c-4.3 5.8-7.9 12.9-6 19.3a5.24 5.24 0 0 0 2.5 3.1 12.13 12.13 0 0 0 1.4.5 5.7 5.7 0 0 0 2.9 0c4.4-1.2 4.4-6.4 5.3-9.9a32.13 32.13 0 0 1 5.6-11.8 38.85 38.85 0 0 1 4.3-4.8" fill="none" stroke="#371f0f" stroke-linecap="round" stroke-linejoin="round" stroke-width="1.681"/><path fill="#e2a355" d="M19.96 11.22l-.2-2.5v-.5l.1-1"/><path d="M48.46 9.32a1.47 1.47 0 0 0 .2-.4 5.57 5.57 0 0 0 .8-3c0-2.8-1.7-5.1-3.8-5.1s-3.8 2.3-3.8 5.1a2.52 2.52 0 0 0 .6 1.7c-1.2-.4-3-.3-4.7-.6a28.53 28.53 0 0 0-10.1.3c-.5.1-6.6 1.8-6.5 2.3a3.39 3.39 0 0 0-.3-.8c-1.3-2.6-4.1-3.8-6.3-2.7s-3 4.1-1.8 6.7a8.34 8.34 0 0 0 .8 1.2 2.84 2.84 0 0 0 1 .9c.1 0 .1.1.2.1a.1.1 0 0 1 .1.1.1.1 0 0 0 .1.1c-2.6 2.4-10.8 11.9 3 28.8.1.1.2.1.3.2a44.86 44.86 0 0 0 18.2 2.4 43.86 43.86 0 0 0 11.4-2.3l1.1-.2a1.42 1.42 0 0 0 .6-.2 2.19 2.19 0 0 0 .5-.3c.2-.1.4-.3.6-.4a.1.1 0 0 0 .1-.1 6 6 0 0 0 1.2-1.3s.9-1.3 1.2-1.9l.2-.4a22.62 22.62 0 0 0 1.8-3.9 23.79 23.79 0 0 0 1.6-8.5 22.47 22.47 0 0 0-8.3-17.8z" fill="#e2a355"/><path d="M41.86 7.72l.2.1 1.4.5c.1-4.9 5.2-6.6 5.2-6.6-6.6-3.6-6.8 5.3-6.8 6z" fill="#bd782a"/><path d="M49.46 44.12a6 6 0 0 0 2.7-2.3 21.5 21.5 0 0 0 3.2-6.2 23.79 23.79 0 0 0 1.6-8.5c0-7.3-3.6-13.1-8.6-17.2M21.26 9.62a28.11 28.11 0 0 1 13.6-3.2 28.69 28.69 0 0 1 13.5 3.8" fill="none" stroke="#371f0f" stroke-linecap="round" stroke-linejoin="round" stroke-width="1.681"/><path d="M22.26 44.72c-11.8-13.5-5.1-29.6-5.1-29.6s-2.9-3.3-2.2-6.3c.6-2.8 3.6-2.5 3.6-2.5a1.06 1.06 0 0 0-.5-.2 3.92 3.92 0 0 0-3.5.1c-2.2 1.1-3 4.1-1.8 6.7a8.34 8.34 0 0 0 .8 1.2 4.3 4.3 0 0 0 1 .9.38.38 0 0 1 .2.2.1.1 0 0 1 .1.1s.1 0 0 .1h-.1l-.1.1a.38.38 0 0 0-.2.2 2.36 2.36 0 0 1-.5.5 4.35 4.35 0 0 0-.6.7c-.2.3-.4.5-.6.8l-.6.9c-.2.3-.4.7-.6 1a5.36 5.36 0 0 0-.5 1.1 5.64 5.64 0 0 0-.4 1.2c-.1.4-.2.9-.3 1.4 0 .2-.1.5-.1.7s-.1.5-.1.7a25 25 0 0 0 .9 7.7 35.74 35.74 0 0 0 6.6 11.5l.1.1.2.2h.4l.3.1c1 .2 2.1.3 3.1.4h.5z" fill="#bd782a"/><path d="M36.66 20.82c.4 2.7-1 5.2-3 5.5s-4-1.7-4.3-4.5 1-5.2 3-5.5 3.9 1.8 4.3 4.5z" fill="#c57a2a"/><path d="M36.96 20.72c.4 2.7-1 5.2-3 5.5s-4-1.7-4.3-4.5 1-5.2 3-5.5 3.9 1.8 4.3 4.5z" fill="#371f0f"/><path d="M51.66 20.62a25.58 25.58 0 0 0-4.7.4 5.55 5.55 0 0 1-1.4-3.2c-.3-2.6.9-5 2.8-5.2s3.7 1.7 4.1 4.3a6.52 6.52 0 0 1-.8 3.7z" fill="#c57a2a"/><path d="M51.96 20.62a25.58 25.58 0 0 0-4.7.4 5.55 5.55 0 0 1-1.4-3.2c-.3-2.6.9-5 2.8-5.2s3.7 1.7 4.1 4.3a6.52 6.52 0 0 1-.8 3.7z" fill="#371f0f"/><path d="M36.26 20.22c.3 1.8-.2 3.3-1 3.5s-1.8-1.2-2.1-2.9.2-3.3 1-3.5 1.8 1.2 2.1 2.9zM52.06 16.02c.3 1.6-.1 3-.9 3.1s-1.6-1-1.9-2.6.1-3 .9-3.1 1.6 1 1.9 2.6z" fill="#fff"/><path d="M46.86 1.42s5.3 1.2 1 7.9c-.1.1 1.7-5.1-1-7.9z" fill="#efbc72"/><g opacity=".75"><path d="M29.66 14.02h-.3l-4.5 11.9a7.14 7.14 0 0 0 3.5 2.4l5.5-14.7z" fill="#fff"/><path d="M37.76 13.32l-1.5.1-2.4.2-5.5 14.8a15.52 15.52 0 0 0 2.1.4h1a.75.75 0 0 0 .5-.1 6.49 6.49 0 0 0 5.2-5.3l.3-1.8c.1-1.6.8-2.4 2.1-2.5s2.1.5 2.5 2.1l.1.4a7.39 7.39 0 0 0 1 2.2l4.3-11.5zM23.26 21.72v.2a7.72 7.72 0 0 0 1.6 4.1l4.4-11.9a7.08 7.08 0 0 0-6 7.6zM56.16 19.12a7.72 7.72 0 0 0-1.6-4.1 11.41 11.41 0 0 0-1.1-1.1 7.84 7.84 0 0 0-1.8-1.1l-5.2 13.9a6.47 6.47 0 0 0 2 .4h.8a2 2 0 0 0 .7-.1 7.22 7.22 0 0 0 6.2-7.9z" fill="#69dcff"/><path d="M48.16 12.32l-.7.1-4.3 11.5a7.15 7.15 0 0 0 3.3 2.9l5.2-13.9a6.66 6.66 0 0 0-3.5-.6z" fill="#fff"/></g><path d="M58.16 15.72l-1.1.1a8.32 8.32 0 0 0-1.9-2.6 2.36 2.36 0 0 1-.5-.5 2.09 2.09 0 0 0-.6-.4 8.11 8.11 0 0 0-1.8-1 9.79 9.79 0 0 0-4.2-.7h-.2l-10 .9-.9.1-2.9.3-4 .4h-.5a8.61 8.61 0 0 0-5.9 3.1 9 9 0 0 0-1.7 3.2l-1.3.1a1.11 1.11 0 0 0-1 1.2l.4 4.2a1.11 1.11 0 0 0 1.2 1l1.2-.1a10.65 10.65 0 0 0 1.9 2.8l.5.5a9.68 9.68 0 0 0 3.1 1.8 8.24 8.24 0 0 0 3.5.4h.3a8.18 8.18 0 0 0 7.3-6.8l.3-1.8v-.2a1.09 1.09 0 0 1 .2-.8c0-.1.1-.1.3-.1h.3a1.55 1.55 0 0 1 .3.8l.1.4a10.8 10.8 0 0 0 1.9 3.7 12 12 0 0 0 1.1 1.2 7.89 7.89 0 0 0 2.3 1.4 11.7 11.7 0 0 0 2 .5 6.6 6.6 0 0 0 1.4.1h.1a8.91 8.91 0 0 0 6.2-3.3 8 8 0 0 0 1.8-3.4l1.1-.1a1.11 1.11 0 0 0 1-1.2l-.4-4.2c.3-.6-.2-1-.9-1zm-8.1 11.4c-.2 0-.4.1-.7.1h-.8a6.47 6.47 0 0 1-2-.4 7.15 7.15 0 0 1-3.3-2.9 14.72 14.72 0 0 1-1-2.2l-.1-.4c-.4-1.6-1.2-2.2-2.5-2.1s-2 1-2.1 2.5l-.3 1.6a6.49 6.49 0 0 1-5.2 5.3 4.33 4.33 0 0 0-.5.1h-1a4.92 4.92 0 0 1-2.1-.4 7.86 7.86 0 0 1-3.5-2.4 7.13 7.13 0 0 1-1.6-4.1v-.2a7.08 7.08 0 0 1 6.1-7.6h.3l4.2-.4 2.3-.2 1.5-.1 9.8-.9.6-.1a7.53 7.53 0 0 1 5.3 1.7 11.41 11.41 0 0 1 1.1 1.1 7.13 7.13 0 0 1 1.6 4.1 7.34 7.34 0 0 1-6.1 7.9z" fill="#020b3f"/><path d="M60.46 24.12c-1.8-3.5-6.5-4.9-11.6-4v-.1a1.75 1.75 0 0 0-.5.1 26.83 26.83 0 0 0-4.3 1.4c-5 2-12.1 5.9-11.2 12.1a7.79 7.79 0 0 0 3.9 6.6c.3.2.5.3.8.5a3.7 3.7 0 0 0 1.1.5c.1 0 .2.1.3.1s.3.1.5.2.5.1.7.2.4.1.6.2.4.1.7.1.5.1.8.2h.3c7.1.6 12.3-4 13.8-5.5 4.2-3.9 6-8.9 4.1-12.6z" fill="#f3cca5"/><path d="M42.56 35.82s3.9 4 13.4 1.3l3.7-5.5h-.4s-2.2-.1-4-3.6c-.1 0-4.9 7.8-12.7 7.8z" fill="#371f0f"/><path d="M43.96 22.22a2.42 2.42 0 0 1 0 1.8c-.4.8 2.7 0 2.7 0l4.5-.9a1.72 1.72 0 0 0 .6-.4 4.66 4.66 0 0 1 1.5-1.2 10 10 0 0 1 1.7-.3s.2-.2-.1-.3-4-.1-10.7 1.1c.1 0-.2.1-.2.2z" fill="#f6e1cb"/><path d="M56.36 19.72a1.7 1.7 0 0 0-.7-.1 17 17 0 0 0-2.3-.1 24.33 24.33 0 0 0-3.8.3c-1 .1-2.1.3-3.1.5a16.66 16.66 0 0 0-3 .8l-1.2.6c-.9.4-1.7 1-2.6 1.5a19.52 19.52 0 0 0-2.3 1.7l.2.4a6.07 6.07 0 0 0 1-.7 39.47 39.47 0 0 1 4.6-2.3 23.59 23.59 0 0 1 5.4-1.2c1.5-.2 3.1-.3 4.7-.4a8.51 8.51 0 0 1 3.5.5.1.1 0 0 1 .1.1c1.8 1 5.9 4.4 2.2 10.9a23.89 23.89 0 0 1-4.4 5.5c-.5.5-1 1-1.6 1.5a14.45 14.45 0 0 1-12.9 2.3 12.83 12.83 0 0 1-2.9-1.4 8.89 8.89 0 0 1-3.9-10l-1.3.3a17 17 0 0 0-.1 2.3v.1a12.67 12.67 0 0 0 2.2 5.3c2.1 3.1 6 6.1 13.4 4.8a19.71 19.71 0 0 0 14.5-14.6c.1.1 1.5-7-5.7-8.6z" fill="#371f0f"/><path d="M38.96 23.62v-.1l-2.2 1.3a6.4 6.4 0 0 1-4.8 3.9 4.33 4.33 0 0 0-.5.1h-1.1l-.2 1.7a3.35 3.35 0 0 0 1 0h.3a8.3 8.3 0 0 0 7.5-6.9z" fill="#020b3f"/><path d="M41.06 6.92s.3-7.2 5.9-5.9c5.8 1.3 1.6 8.4 1.6 8.4" fill="none" stroke="#371f0f" stroke-linecap="round" stroke-linejoin="round" stroke-width="1.726"/><path d="M15.06 15.22a5.57 5.57 0 0 1-2.5-6.3 4.59 4.59 0 0 1 2.4-2.9 3.92 3.92 0 0 1 3.5.1 7 7 0 0 1 2.8 3.5M14.96 15.22c-3.9 3.6-5 9-4.3 14.1.8 5.5 3.8 10.3 7.2 14.5.1.1.2.3.3.4" fill="none" stroke="#371f0f" stroke-linecap="round" stroke-linejoin="round" stroke-width="1.681"/><path fill="none" stroke="#020b3f" stroke-linecap="round" stroke-linejoin="round" stroke-width="2.241" d="M20.46 21.72l-9 3.1"/><path d="M18.16 44.22a47.06 47.06 0 0 0 15.5 2.7 45.68 45.68 0 0 0 15.8-2.8" fill="none" stroke="#371f0f" stroke-linecap="round" stroke-linejoin="round" stroke-width="1.681"/><path d="M54.06 36.62a2.87 2.87 0 0 0 .7-1.8 2.58 2.58 0 0 0-2.6-2.6 2.84 2.84 0 0 0-1.3.4c-3.9 3.4-7.5 3.2-7.5 3.2a12.54 12.54 0 0 0 6.4 1.8 11.62 11.62 0 0 0 3.4-.5 1.52 1.52 0 0 0 .9-.5z" fill="#ed1c24"/><path d="M54.06 36.62a.79.79 0 0 0-.7-1.1h-.2a1.42 1.42 0 0 0-.4.2c-.1.1-.3.1-.4.2-.3.1-.6.2-1 .3a14.6 14.6 0 0 1-2.2.3 16.2 16.2 0 0 1-2.2-.1c-.6-.1-1.3-.1-1.9-.2l-1.4-.3-.5-.1a12.54 12.54 0 0 0 6.4 1.8 11.62 11.62 0 0 0 3.4-.5 1.37 1.37 0 0 0 1.1-.5z" fill="#b71327"/><path d="M54.06 35.42s0-2-1.4-2.4" fill="none" stroke="#f74854" stroke-linecap="round" stroke-linejoin="round" stroke-width=".548"/><path d="M37.56 34.02a9.17 9.17 0 0 0 7 1.7c3.5-.6 6.4-2.9 8.8-5.4a21.1 21.1 0 0 0 1.9-2.3s1.2 3.4 4.6 3.7" fill="none" stroke="#371f0f" stroke-linecap="round" stroke-linejoin="round" stroke-width=".996"/><path d="M58.16 24.92s-.9 2.6-2.3 3a4.33 4.33 0 0 1-.5.1 5.32 5.32 0 0 1-2.9-1.4s-3.3-3-.9-4.4a5.79 5.79 0 0 1 2.1-.7 9.65 9.65 0 0 1 3.2 0c2.3.6 1.3 3.4 1.3 3.4z" fill="#683113"/><path d="M55.46 27.92a5.32 5.32 0 0 1-2.9-1.4s-3.3-3-.9-4.4a5.79 5.79 0 0 1 2.1-.7 2.9 2.9 0 0 0-.8 3.2 7.55 7.55 0 0 0 2.5 3.3z" fill="#371f0f"/><path d="M57.56 22.02a3.67 3.67 0 0 0-3-.4c-.7.3 1.5.5 2 1a5.65 5.65 0 0 1 .9 1.7.76.76 0 0 0 .2.4.52.52 0 0 0 .2-.4 2 2 0 0 0-.3-2.3z" fill="#995728"/></svg>