<svg xmlns="http://www.w3.org/2000/svg" width="200" height="200" viewBox="0 0 150 150"><path d="M39.586 38.281s37.5 56.774 20.848 108.63l-10.786.886s4.5-9.797-14.113-28.172c0 0-28.004-22.5-25.156-64.71" fill="#c9dceb"/><path d="M47.309 147.797s4.5-9.797-14.114-28.172c0 0-28.004-22.5-25.156-64.71l-2.488-8.759 2.836 1.422a12.07 12.07 0 0 0-1.309-7.691c-2.129-3.903 2.25 2.367 2.25 2.367S12.766 1.274 21 2.219c0 0 6 1.5 10.77 16.937l.945-3.078 1.305 8.297L36.12 24l.688 9.238s38.027 63.934 23.386 114.559zm0 0" fill="#e8ecf3"/><path d="M57 135.21a180.587 180.587 0 0 0-32.281-96.96 1.866 1.866 0 0 0-1.766-.805 1.869 1.869 0 0 0-1.531 1.196c-3.527 9.105-11.387 36.433 8.805 61.14 13.125 16.035 19.77 28.258 23.113 36.196a1.876 1.876 0 0 0 3.66-.766zm0 0" fill="#c8dded"/><path d="M57 143.191A179.99 179.99 0 0 0 24.719 43.5a1.866 1.866 0 0 0-1.766-.805 1.869 1.869 0 0 0-1.531 1.196c-3.527 9.105-11.402 36.433 8.805 61.14 14.535 17.805 21.132 30.899 24.09 38.668a1.38 1.38 0 0 0 1.562.914A1.382 1.382 0 0 0 57 143.191zm0 0" fill="#c8dded"/><path d="M56.895 143.762C57.18 128.46 54.96 84.84 24.629 41.086a1.87 1.87 0 0 0-1.766-.805 1.88 1.88 0 0 0-1.535 1.196c-3.523 9.101-11.398 36.433 8.809 61.136C46.574 122.715 52.859 136.828 55.23 144a.856.856 0 0 0 1.664-.238zm0 0" fill="#ef4770"/><path d="M56.91 144a131.585 131.585 0 0 0-18.988-68.46 1.051 1.051 0 1 0-1.938.27c-2.07 6.077-6.703 24.315 5.192 40.8 9.66 13.41 13.363 22.816 14.746 27.617a.507.507 0 1 0 .988-.227zm0 0" fill="#f16278"/><path d="M110.414 38.281s-37.5 56.774-20.848 108.63l10.786.886s-4.5-9.797 14.113-28.172c0 0 28.004-22.5 25.156-64.71" fill="#c9dceb"/><path d="M102.691 147.797s-4.5-9.797 14.114-28.172c0 0 28.004-22.5 25.156-64.71l2.488-8.759-2.836 1.422a12.07 12.07 0 0 1 1.309-7.691c2.129-3.903-2.25 2.367-2.25 2.367S137.234 1.274 129 2.219c0 0-6 1.5-10.77 16.937l-.945-3.078-1.305 8.297L113.88 24l-.688 9.238S75.164 97.172 89.805 147.797zm0 0" fill="#e8ecf3"/><path d="M93 135.21a180.587 180.587 0 0 1 32.281-96.96 1.866 1.866 0 0 1 1.766-.805 1.869 1.869 0 0 1 1.531 1.196c3.527 9.105 11.387 36.433-8.805 61.14-13.125 16.035-19.77 28.258-23.113 36.196a1.876 1.876 0 0 1-3.66-.766zm0 0" fill="#c8dded"/><path d="M93 143.191A179.99 179.99 0 0 1 125.281 43.5a1.866 1.866 0 0 1 1.766-.805 1.869 1.869 0 0 1 1.531 1.196c3.527 9.105 11.402 36.433-8.805 61.14-14.535 17.805-21.132 30.899-24.09 38.668a1.38 1.38 0 0 1-1.562.914A1.382 1.382 0 0 1 93 143.191zm0 0" fill="#c8dded"/><path d="M93.105 143.762C92.82 128.46 95.04 84.84 125.371 41.086a1.87 1.87 0 0 1 1.766-.805 1.88 1.88 0 0 1 1.535 1.196c3.523 9.101 11.398 36.433-8.809 61.136C103.426 122.715 97.141 136.828 94.77 144a.856.856 0 0 1-1.664-.238zm0 0" fill="#ef4770"/><path d="M93.09 144a131.585 131.585 0 0 1 18.988-68.46 1.051 1.051 0 1 1 1.938.27c2.07 6.077 6.703 24.315-5.192 40.8-9.66 13.41-13.363 22.816-14.746 27.617a.507.507 0 1 1-.988-.227zm0 0" fill="#f16278"/></svg>