<?xml version="1.0" encoding="utf-8"?>
<!-- Generator: Adobe Illustrator 19.0.0, SVG Export Plug-In . SVG Version: 6.00 Build 0)  -->
<svg version="1.1" id="Layer_1" xmlns="http://www.w3.org/2000/svg" xmlns:xlink="http://www.w3.org/1999/xlink" x="0px" y="0px"
	 viewBox="0 0 50 50" enable-background="new 0 0 50 50" xml:space="preserve">
<g id="XMLID_260_">
	<rect id="XMLID_266_" x="6.3" y="6.2" fill="#00FFFF" width="6.3" height="6.3"/>
	<rect id="XMLID_267_" x="12.5" y="6.2" fill="#00FFFF" width="6.3" height="6.3"/>
	<rect id="XMLID_268_" x="18.8" y="6.2" fill="#00FFFF" width="6.3" height="6.3"/>
	<rect id="XMLID_269_" x="25" y="6.2" fill="#00FFFF" width="6.3" height="6.3"/>
	<rect id="XMLID_271_" x="31.2" y="6.2" fill="#00FFFF" width="6.3" height="6.3"/>
	<rect id="XMLID_272_" x="37.5" y="6.2" fill="#00FFFF" width="6.3" height="6.3"/>
	<rect id="XMLID_312_" x="0" y="12.5" fill="#B3B3B3" width="6.3" height="6.3"/>
	<rect id="XMLID_310_" x="6.3" y="12.5" fill="#00FFFF" width="6.3" height="6.3"/>
	<rect id="XMLID_299_" x="12.5" y="12.5" fill="#FFFF00" width="6.3" height="6.3"/>
	<rect id="XMLID_293_" x="18.7" y="12.5" fill="#FFFF00" width="6.3" height="6.3"/>
	<rect id="XMLID_283_" x="25" y="12.5" fill="#FFFF00" width="6.3" height="6.3"/>
	<rect id="XMLID_273_" x="31.2" y="12.5" fill="#FFFF00" width="6.3" height="6.3"/>
	<rect id="XMLID_320_" x="37.5" y="12.5" fill="#00FFFF" width="6.3" height="6.3"/>
	<rect id="XMLID_319_" x="43.7" y="12.5" fill="#B3B3B3" width="6.3" height="6.3"/>
	<rect id="XMLID_338_" x="0" y="18.7" fill="#B3B3B3" width="6.3" height="6.3"/>
	<rect id="XMLID_337_" x="6.3" y="18.7" fill="#00FFFF" width="6.3" height="6.3"/>
	<rect id="XMLID_334_" x="12.5" y="18.7" fill="#FFFFFF" width="6.3" height="6.3"/>
	<rect id="XMLID_332_" x="18.7" y="18.7" fill="#FFFF00" width="6.3" height="6.3"/>
	<rect id="XMLID_331_" x="25" y="18.7" fill="#FFFF00" width="6.3" height="6.3"/>
	<rect id="XMLID_326_" x="31.2" y="18.7" fill="#FFFFFF" width="6.3" height="6.3"/>
	<rect id="XMLID_325_" x="37.5" y="18.7" fill="#00FFFF" width="6.3" height="6.3"/>
	<rect id="XMLID_352_" x="6.3" y="25" fill="#00FFFF" width="6.3" height="6.3"/>
	<rect id="XMLID_350_" x="12.5" y="25" fill="#FFFF00" width="6.3" height="6.3"/>
	<rect id="XMLID_349_" x="18.7" y="25" fill="#FFFF00" width="6.3" height="6.3"/>
	<rect id="XMLID_344_" x="25" y="25" fill="#FFFF00" width="6.3" height="6.3"/>
	<rect id="XMLID_343_" x="31.2" y="25" fill="#FFFF00" width="6.3" height="6.3"/>
	<rect id="XMLID_342_" x="37.5" y="25" fill="#00FFFF" width="6.3" height="6.3"/>
	<rect id="XMLID_324_" x="43.7" y="18.7" fill="#B3B3B3" width="6.3" height="6.3"/>
	<rect id="XMLID_262_" x="0" y="0" fill="#BC0000" width="6.3" height="6.3"/>
	<rect id="XMLID_263_" x="6.3" y="0" fill="#BC0000" width="6.3" height="6.3"/>
	<rect id="XMLID_361_" x="12.5" y="31.3" fill="#BC0000" width="6.3" height="6.3"/>
	<rect id="XMLID_360_" x="18.7" y="31.3" fill="#B3B3B3" width="6.3" height="6.3"/>
	<rect id="XMLID_356_" x="25" y="31.3" fill="#B3B3B3" width="6.3" height="6.3"/>
	<rect id="XMLID_412_" x="18.7" y="37.5" fill="#BC0000" width="6.3" height="6.3"/>
	<rect id="XMLID_385_" x="25" y="37.5" fill="#BC0000" width="6.3" height="6.3"/>
	<rect id="XMLID_355_" x="31.2" y="31.3" fill="#BC0000" width="6.3" height="6.3"/>
	<rect id="XMLID_382_" x="37.5" y="31.3" fill="#BC0000" width="6.3" height="6.3"/>
	<rect id="XMLID_377_" x="43.7" y="31.3" fill="#BC0000" width="6.3" height="6.3"/>
	<rect id="XMLID_363_" x="0" y="31.3" fill="#BC0000" width="6.3" height="6.3"/>
	<rect id="XMLID_362_" x="6.3" y="31.3" fill="#BC0000" width="6.3" height="6.3"/>
	<rect id="XMLID_384_" x="6.3" y="37.5" fill="#00FFFF" width="6.3" height="6.3"/>
	<rect id="XMLID_383_" x="6.3" y="43.8" fill="#00FFFF" width="6.3" height="6.3"/>
	<rect id="XMLID_371_" x="37.5" y="43.8" fill="#00FFFF" width="6.3" height="6.3"/>
	<rect id="XMLID_370_" x="37.5" y="37.5" fill="#00FFFF" width="6.3" height="6.3"/>
	<rect id="XMLID_265_" x="37.5" y="0" fill="#BC0000" width="6.3" height="6.3"/>
	<rect id="XMLID_264_" x="43.7" y="0" fill="#BC0000" width="6.3" height="6.3"/>
</g>
</svg>
