<?xml version="1.0" encoding="utf-8"?>
<!-- Generator: Adobe Illustrator 19.0.0, SVG Export Plug-In . SVG Version: 6.00 Build 0)  -->
<svg version="1.1" id="Layer_1" xmlns="http://www.w3.org/2000/svg" xmlns:xlink="http://www.w3.org/1999/xlink" x="0px" y="0px"
	 viewBox="0 0 50 50" enable-background="new 0 0 50 50" xml:space="preserve">
<g id="XMLID_451_">
	<rect id="XMLID_1005_" x="28.3" y="19.6" fill="#FFFF00" width="1.3" height="1.5"/>
	<rect id="XMLID_1002_" x="28.3" y="21.2" fill="#FFFF00" width="1.3" height="1.5"/>
	<rect id="XMLID_1001_" x="28.3" y="22.7" fill="#FFFF00" width="1.3" height="1.5"/>
	<rect id="XMLID_1000_" x="28.3" y="24.2" fill="#FFFF00" width="1.3" height="1.5"/>
	<rect id="XMLID_999_" x="28.3" y="25.8" fill="#FFFF00" width="1.3" height="1.5"/>
	<rect id="XMLID_998_" x="28.3" y="27.3" fill="#FFFF00" width="1.3" height="1.5"/>
	<rect id="XMLID_993_" x="27" y="18.1" fill="#FFFF00" width="1.3" height="1.5"/>
	<rect id="XMLID_990_" x="27" y="19.6" fill="#FFA403" width="1.3" height="1.5"/>
	<rect id="XMLID_987_" x="27" y="21.2" fill="#FFA403" width="1.3" height="1.5"/>
	<rect id="XMLID_986_" x="27" y="22.7" fill="#FFFF00" width="1.3" height="1.5"/>
	<rect id="XMLID_985_" x="27" y="24.2" fill="#FFFF00" width="1.3" height="1.5"/>
	<rect id="XMLID_984_" x="27" y="25.8" fill="#FFFF00" width="1.3" height="1.5"/>
	<rect id="XMLID_983_" x="27" y="27.3" fill="#FFFF00" width="1.3" height="1.5"/>
	<rect id="XMLID_982_" x="27" y="28.8" fill="#FFFF00" width="1.3" height="1.5"/>
	<rect id="XMLID_981_" x="27" y="30.4" fill="#FFFF00" width="1.3" height="1.5"/>
	<rect id="XMLID_978_" x="25.7" y="16.5" fill="#FFFF00" width="1.3" height="1.5"/>
	<rect id="XMLID_975_" x="25.7" y="18.1" fill="#FFA403" width="1.3" height="1.5"/>
	<rect id="XMLID_972_" x="25.7" y="19.6" fill="#FFA403" width="1.3" height="1.5"/>
	<rect id="XMLID_969_" x="25.7" y="21.2" fill="#FFA403" width="1.3" height="1.5"/>
	<rect id="XMLID_968_" x="25.7" y="22.7" fill="#FFA403" width="1.3" height="1.5"/>
	<rect id="XMLID_967_" x="25.7" y="24.2" fill="#FFA403" width="1.3" height="1.5"/>
	<rect id="XMLID_966_" x="25.7" y="25.8" fill="#FFA403" width="1.3" height="1.5"/>
	<rect id="XMLID_965_" x="25.7" y="27.3" fill="#FFFF00" width="1.3" height="1.5"/>
	<rect id="XMLID_964_" x="25.7" y="28.8" fill="#FFFF00" width="1.3" height="1.5"/>
	<rect id="XMLID_963_" x="25.7" y="30.4" fill="#FFFF00" width="1.3" height="1.5"/>
	<rect id="XMLID_960_" x="24.3" y="16.5" fill="#FFA403" width="1.3" height="1.5"/>
	<rect id="XMLID_521_" x="24.3" y="15" fill="#FFFF00" width="1.3" height="1.5"/>
	<rect id="XMLID_517_" x="23" y="16.5" fill="#FFFF00" width="1.3" height="1.5"/>
	<rect id="XMLID_957_" x="24.3" y="18.1" fill="#FFA403" width="1.3" height="1.5"/>
	<rect id="XMLID_954_" x="24.3" y="19.6" fill="#FFA403" width="1.3" height="1.5"/>
	<rect id="XMLID_951_" x="24.3" y="21.2" fill="#FFA403" width="1.3" height="1.5"/>
	<rect id="XMLID_950_" x="24.3" y="22.7" fill="#FFA403" width="1.3" height="1.5"/>
	<rect id="XMLID_949_" x="24.3" y="24.2" fill="#FFA403" width="1.3" height="1.5"/>
	<rect id="XMLID_948_" x="24.3" y="25.8" fill="#FFA403" width="1.3" height="1.5"/>
	<rect id="XMLID_947_" x="24.3" y="27.3" fill="#FFA403" width="1.3" height="1.5"/>
	<rect id="XMLID_946_" x="24.3" y="28.8" fill="#FFFF00" width="1.3" height="1.5"/>
	<rect id="XMLID_945_" x="24.3" y="30.4" fill="#FFFF00" width="1.3" height="1.5"/>
	<rect id="XMLID_942_" x="23" y="18.1" fill="#FFA403" width="1.3" height="1.5"/>
	<rect id="XMLID_531_" x="21.7" y="18.1" fill="#FFFF00" width="1.3" height="1.5"/>
	<rect id="XMLID_939_" x="23" y="19.6" fill="#FFA403" width="1.3" height="1.5"/>
	<rect id="XMLID_936_" x="23" y="21.2" fill="#FFA403" width="1.3" height="1.5"/>
	<rect id="XMLID_935_" x="23" y="22.7" fill="#FFA403" width="1.3" height="1.5"/>
	<rect id="XMLID_934_" x="23" y="24.2" fill="#FFA403" width="1.3" height="1.5"/>
	<rect id="XMLID_933_" x="23" y="25.8" fill="#FFA403" width="1.3" height="1.5"/>
	<rect id="XMLID_932_" x="23" y="27.3" fill="#FFFF00" width="1.3" height="1.5"/>
	<rect id="XMLID_931_" x="23" y="28.8" fill="#FFFF00" width="1.3" height="1.5"/>
	<rect id="XMLID_930_" x="23" y="30.4" fill="#FFFF00" width="1.3" height="1.5"/>
	<rect id="XMLID_927_" x="21.7" y="19.6" fill="#FFA403" width="1.3" height="1.5"/>
	<rect id="XMLID_924_" x="21.7" y="21.2" fill="#FFA403" width="1.3" height="1.5"/>
	<rect id="XMLID_923_" x="21.7" y="22.7" fill="#FFFF00" width="1.3" height="1.5"/>
	<rect id="XMLID_922_" x="21.7" y="24.2" fill="#FFFF00" width="1.3" height="1.5"/>
	<rect id="XMLID_921_" x="21.7" y="25.8" fill="#FFFF00" width="1.3" height="1.5"/>
	<rect id="XMLID_920_" x="21.7" y="27.3" fill="#FFFF00" width="1.3" height="1.5"/>
	<rect id="XMLID_919_" x="21.7" y="28.8" fill="#FFFF00" width="1.3" height="1.5"/>
	<rect id="XMLID_918_" x="21.7" y="30.4" fill="#FFFF00" width="1.3" height="1.5"/>
	<rect id="XMLID_953_" x="20.4" y="19.6" fill="#FFFF00" width="1.3" height="1.5"/>
	<rect id="XMLID_943_" x="20.4" y="21.2" fill="#FFFF00" width="1.3" height="1.5"/>
	<rect id="XMLID_938_" x="20.4" y="22.7" fill="#FFFF00" width="1.3" height="1.5"/>
	<rect id="XMLID_928_" x="20.4" y="24.2" fill="#FFFF00" width="1.3" height="1.5"/>
	<rect id="XMLID_917_" x="20.4" y="25.8" fill="#FFFF00" width="1.3" height="1.5"/>
	<rect id="XMLID_913_" x="20.4" y="27.3" fill="#FFFF00" width="1.3" height="1.5"/>
	<rect id="XMLID_904_" x="27" y="33.5" fill="#FFFF00" width="1.3" height="1.5"/>
	<rect id="XMLID_903_" x="25.7" y="33.5" fill="#FFFF00" width="1.3" height="1.5"/>
	<rect id="XMLID_902_" x="24.3" y="33.5" fill="#FFFF00" width="1.3" height="1.5"/>
	<rect id="XMLID_900_" x="23" y="33.5" fill="#FFFF00" width="1.3" height="1.5"/>
	<rect id="XMLID_519_" x="21.7" y="33.5" fill="#FFFF00" width="1.3" height="1.5"/>
</g>
</svg>
