<?xml version="1.0" encoding="utf-8"?>
<!-- Generator: Adobe Illustrator 19.0.0, SVG Export Plug-In . SVG Version: 6.00 Build 0)  -->
<svg version="1.1" id="Layer_1" xmlns="http://www.w3.org/2000/svg" xmlns:xlink="http://www.w3.org/1999/xlink" x="0px" y="0px"
	 viewBox="0 0 50 50" enable-background="new 0 0 50 50" xml:space="preserve">
<g id="XMLID_100_">
	<path id="XMLID_238_" fill="#9E005D" d="M41.1,44.3c6.9-6,8.9-16.4,6.6-25c-0.7-2.9-2-6-3.8-8.4c-1.2-1.7-2.6-3.5-4.2-4.9
		C36.5,3,32.6,0.8,28.3,0.3C24.9-0.1,21.1-0.2,17.9,1c-4.1,1.5-7.6,4.2-10.1,7.7c-1.6,2.2-3.4,5-4.2,7.6c-1.1,3.5-1.3,7-0.8,10.6
		c0.4,2.6,0.9,5.5,1.9,8c1.1,2.9,2.7,5.8,4.9,8.1c1.6,1.7,3.8,3.5,6,4.5c6,2.6,13.2,3,19.3,0.6C37.1,47.1,39.3,45.8,41.1,44.3z"/>
	<g id="XMLID_302_" opacity="0.7">
		<path id="XMLID_315_" fill="#CCCCCC" d="M13.9,3.5c-0.8,0.5-1.3,1.1-1.8,1.8c-0.6,0.8-0.6,1.3-1.5,2C9.9,7.8,9,8,8.2,8.2
			c-2.3,0.6-4,2.3-4.6,4.5c-0.3,0.9,0,2.7,1.3,2.5c1.8-0.2,1.8-3.4,2.7-4.5c1.5-1.8,4.7-0.3,6-2.5c0.4-0.7,0.3-1.9,1.6-2
			c0.7-0.1,1.3,0.3,2,0.2c0.4,0,0.6-0.3,0.8-0.5C19.5,4.5,15.9,2.3,13.9,3.5z"/>
		<path id="XMLID_313_" fill="#CCCCCC" d="M7.3,32.9C6.9,31,5.1,29.8,4.5,28c-0.5-1.4,1.4-4.7-1-5c-0.8-0.1-1.4,0.6-1.6,1.2
			c-1.3,3,0.3,7.1,2.3,9.4C5.1,34.7,7.7,35.2,7.3,32.9z"/>
		<path id="XMLID_311_" fill="#CCCCCC" d="M14.7,43.1c-0.1-1-1.1-1.4-2-1.7c-0.8-0.3-1.8-0.7-2.4-1.3c-0.6-0.6-0.5-1.4-1.2-1.8
			c-0.5-0.3-1.2,0.2-1.3,0.7c-0.1,0.4,0.1,1,0.2,1.4c0.7,1.8,2.1,3.1,4,3.7C12.8,44.2,14.8,44.7,14.7,43.1z"/>
		<path id="XMLID_309_" fill="#CCCCCC" d="M34.8,47.2c-0.1-1-0.7-1.8-1.9-1.6c-0.6,0.1-1,0.2-1.5,0.6c-1.7,1.1-3.7,0.8-5.4,0.2
			c-1.1-0.4-2.3-1-3.4-0.3c-0.2,0.1-0.4,0.3-0.5,0.4c0,0-0.1,0-0.1,0.1c-0.4,0.7-0.7,1.6,0.3,2c1.6,0.6,2.7-1.2,4.5-0.2
			c1.8,1,3.8,1.5,5.9,1.1C33.5,49.2,34.9,48.2,34.8,47.2z"/>
		<path id="XMLID_307_" fill="#CCCCCC" d="M46.5,34.3c-0.1-0.3-0.2-0.7-0.3-1c-0.4-0.8-1.2-1.5-2.1-1.2c-1.2,0.3-1.1,2-1,3
			c0.3,1.8,0.3,3.6-0.9,5c-0.9,1-1.9,1.8-2.1,3.2c-0.1,0.6,0.8,0.8,1.2,0.5C44.4,42.1,47.1,38,46.5,34.3z"/>
		<path id="XMLID_305_" fill="#CCCCCC" d="M40.6,6.4c-0.1-0.6-0.4-1.1-0.7-1.6c-0.9-1.4-2.7-2.4-4.4-2.6c-0.6-0.1-1.2-0.1-1.8,0
			c-0.9,0.2-0.8,0.9,0,1.4c0.9,0.6,2.1,0.6,2.9,1.3c1.6,1.5-0.3,3.8,0.8,5.5c0.6,0.9,1.8,0.8,2.5,0c0.6-0.7,0.9-2,0.9-2.9
			C40.7,7.1,40.7,6.8,40.6,6.4z"/>
		<path id="XMLID_303_" fill="#CCCCCC" d="M48.2,17.8c0.1-0.3,0.1-0.7,0-1.1c-0.2-1.2-0.9-2.3-1.9-2.9c-0.2-0.1-2-0.7-1.6-0.1
			c0.8,1.5,2.1,3.2,0.8,4.9c-0.6,0.7-1.6,1.2-2,2.1c-0.5,1.4,0.2,3.5,2,2.7c0.8-0.4,1.2-2.2,1.6-2.9C47.5,19.7,48,18.8,48.2,17.8z"
			/>
	</g>
	<g id="XMLID_286_">
		<path id="XMLID_224_" fill="#D4145A" d="M12.7,3.6c-0.7,0.5-1.3,1-1.8,1.8c-0.5,0.8-0.6,1.3-1.5,2C8.8,7.8,7.9,8,7.2,8.2
			c-2.2,0.6-3.9,2.3-4.5,4.5c-0.2,0.9,0,2.6,1.3,2.5c1.8-0.2,1.8-3.3,2.6-4.4c1.5-1.8,4.6-0.3,5.9-2.4c0.4-0.7,0.3-1.8,1.6-2
			c0.7-0.1,1.3,0.3,2,0.2c0.4,0,0.6-0.2,0.8-0.5C18.2,4.6,14.6,2.3,12.7,3.6z"/>
		<path id="XMLID_222_" fill="#D4145A" d="M6.4,32.8c-0.3-1.8-2.1-2.9-2.7-4.7c-0.4-1.3,1.3-4.5-0.9-4.7c-0.8-0.1-1.3,0.6-1.6,1.2
			c-1.3,2.8,0.3,6.8,2.1,8.9C4.2,34.5,6.8,35,6.4,32.8z"/>
		<path id="XMLID_220_" fill="#D4145A" d="M14.2,43.6c-0.1-1-1.1-1.4-2-1.7c-0.8-0.3-1.8-0.7-2.4-1.3c-0.6-0.6-0.5-1.3-1.2-1.8
			c-0.5-0.3-1.2,0.2-1.3,0.7c-0.1,0.4,0.1,1,0.2,1.4c0.7,1.8,2.1,3.1,3.9,3.6C12.4,44.8,14.4,45.2,14.2,43.6z"/>
		<path id="XMLID_218_" fill="#D4145A" d="M34.8,47.8c-0.1-0.9-0.7-1.7-1.8-1.6c-0.6,0.1-0.9,0.2-1.4,0.5c-1.6,1.1-3.5,0.8-5.1,0.2
			c-1-0.3-2.2-1-3.2-0.3c-0.2,0.1-0.3,0.3-0.5,0.4c0,0-0.1,0-0.1,0.1c-0.4,0.7-0.7,1.5,0.3,1.9c1.5,0.6,2.6-1.1,4.3-0.2
			c1.7,0.9,3.6,1.5,5.5,1C33.7,49.6,34.9,48.7,34.8,47.8z"/>
		<path id="XMLID_216_" fill="#D4145A" d="M47.1,34.9c-0.1-0.3-0.1-0.6-0.3-0.9c-0.3-0.7-1.1-1.4-1.9-1.1c-1.2,0.3-1.1,1.8-0.9,2.8
			c0.3,1.7,0.3,3.3-0.9,4.7c-0.8,0.9-1.8,1.7-1.9,3c-0.1,0.6,0.8,0.7,1.1,0.5C45.2,42.1,47.7,38.2,47.1,34.9z"/>
		<path id="XMLID_214_" fill="#D4145A" d="M40.7,5.9c-0.1-0.5-0.3-1.1-0.6-1.5C39.3,3.1,37.5,2.1,36,2c-0.6-0.1-1.2-0.1-1.7,0
			c-0.9,0.2-0.7,0.8,0,1.3c0.9,0.5,2,0.5,2.7,1.3c1.5,1.4-0.3,3.6,0.7,5.2c0.6,0.9,1.7,0.8,2.3,0C40.7,9,40.9,7.9,40.9,7
			C40.9,6.6,40.8,6.3,40.7,5.9z"/>
		<path id="XMLID_212_" fill="#D4145A" d="M49.2,18.5c0.1-0.4,0.1-0.7,0-1.1c-0.2-1.2-1-2.4-2-3c-0.2-0.1-2-0.8-1.7-0.1
			c0.8,1.6,2.2,3.4,0.8,5.1c-0.6,0.8-1.7,1.3-2.1,2.2c-0.5,1.5,0.3,3.6,2.1,2.8c0.9-0.4,1.3-2.3,1.7-3.1
			C48.6,20.4,49.1,19.5,49.2,18.5z"/>
	</g>
	<path id="XMLID_143_" fill="#FFFFFF" d="M27.8,23.4c0,0,7.5-7.5,11-9.8c0,0,2.1,6.1-3.3,9.3C30.2,26.1,27.8,23.4,27.8,23.4z"/>
	<path id="XMLID_132_" fill="#E9E9E9" d="M34.2,20.1c1.9-1.4,3.7-3.1,5-5.1c-0.1-0.9-0.3-1.5-0.3-1.5c-3.5,2.3-11,9.8-11,9.8
		s0,0,0,0C30.1,22.5,32.2,21.5,34.2,20.1z"/>
	<path id="XMLID_270_" fill="#28201C" d="M27.8,23.3c0.2-0.2,0.4-0.5,0.6-0.7L29,22c0.4-0.4,0.9-0.9,1.3-1.3
		c0.4-0.4,0.9-0.9,1.3-1.3c0.4-0.4,0.9-0.8,1.4-1.3c0.5-0.4,0.9-0.8,1.4-1.2c0.5-0.4,1-0.8,1.4-1.2c0.5-0.4,1-0.8,1.5-1.1
		c0.5-0.4,1-0.7,1.5-1.1c0,0,0.1,0,0.1,0c0,0,0,0,0,0l0,0c0.1,0.4,0.2,0.8,0.3,1.2c0.1,0.4,0.1,0.8,0.2,1.2c0,0.4,0,0.8,0,1.2
		c0,0.4-0.1,0.8-0.2,1.2c-0.1,0.4-0.2,0.8-0.4,1.2c-0.1,0.4-0.3,0.8-0.5,1.1c-0.2,0.3-0.5,0.7-0.7,1c-0.3,0.3-0.6,0.6-0.9,0.9
		c-0.2,0.1-0.3,0.2-0.5,0.4c-0.2,0.1-0.3,0.2-0.5,0.3c-0.4,0.2-0.7,0.4-1.1,0.6L34.1,24l-0.3,0.1l-0.3,0.1l-0.6,0.2l-0.6,0.1
		c-0.2,0.1-0.4,0.1-0.6,0.1l-0.3,0c-0.1,0-0.2,0-0.3,0c-0.2,0-0.4,0-0.6,0l-0.3,0c-0.1,0-0.2,0-0.3-0.1c-0.4-0.1-0.8-0.2-1.2-0.4
		C28.4,23.9,28,23.7,27.8,23.3C27.8,23.4,27.8,23.3,27.8,23.3L27.8,23.3z M27.9,23.4c0.3,0.2,0.6,0.4,1,0.6c0.4,0.1,0.7,0.2,1.1,0.3
		c0.1,0,0.2,0,0.3,0l0.3,0c0.2,0,0.4,0,0.6,0l0.3,0l0.3-0.1c0.2,0,0.4-0.1,0.6-0.1l0.6-0.2l0.5-0.2l0.3-0.1l0.3-0.1l0.5-0.2
		c0.3-0.2,0.7-0.4,1-0.6l0.5-0.3c0.2-0.1,0.3-0.2,0.5-0.3c0.3-0.2,0.6-0.5,0.8-0.8c0.3-0.3,0.5-0.6,0.7-0.9c0.2-0.3,0.4-0.7,0.5-1
		c0.1-0.4,0.3-0.7,0.4-1.1c0.2-0.7,0.3-1.5,0.3-2.3c0-0.4,0-0.8-0.1-1.2c0-0.4-0.1-0.8-0.2-1.1l0.2,0.1c-0.5,0.4-1,0.7-1.5,1.1
		c-0.5,0.4-0.9,0.8-1.4,1.2c-0.5,0.4-0.9,0.8-1.3,1.3l-1.3,1.3c-0.4,0.4-0.9,0.8-1.4,1.2c-0.5,0.4-0.9,0.8-1.4,1.2
		c-0.5,0.4-0.9,0.8-1.4,1.2C28.8,22.6,28.3,23,27.9,23.4z"/>
	
		<ellipse id="XMLID_129_" transform="matrix(0.9984 5.656540e-002 -5.656540e-002 0.9984 1.2378 -1.8648)" fill="#8C6239" cx="33.6" cy="20.9" rx="1.4" ry="1.8"/>
	
		<ellipse id="XMLID_128_" transform="matrix(0.9984 5.602870e-002 -5.602870e-002 0.9984 1.2255 -1.8474)" fill="#42210B" cx="33.6" cy="20.9" rx="0.9" ry="1.1"/>
	<path id="XMLID_125_" fill="#FFFFFF" d="M13.1,13.3l9.1,11.8c0,0-4.8,2.4-9-2.7C9.2,17.6,13.1,13.3,13.1,13.3z"/>
	<path id="XMLID_124_" fill="#E9E9E9" d="M22.1,25.1C22.1,25.1,22.2,25.1,22.1,25.1l-9-11.8c0,0-0.6,0.6-1.1,1.7
		C14.5,19.1,18,22.7,22.1,25.1z"/>
	<path id="XMLID_259_" fill="#28201C" d="M13.1,13.3c0.4,0.5,0.8,0.9,1.3,1.4c0.4,0.5,0.8,0.9,1.2,1.4c0.8,1,1.6,1.9,2.3,2.9
		c0.8,1,1.5,2,2.2,3c0.4,0.5,0.7,1,1.1,1.5c0.4,0.5,0.7,1,1.1,1.5c0,0.1,0,0.1,0,0.2c0,0,0,0,0,0c-0.4,0.2-0.8,0.3-1.2,0.4
		c-0.4,0.1-0.8,0.2-1.3,0.2c-0.4,0-0.9,0-1.3,0l-0.6-0.1c-0.2,0-0.4-0.1-0.6-0.2c-0.2,0-0.4-0.1-0.6-0.2c-0.2-0.1-0.4-0.1-0.6-0.3
		l-0.6-0.3c-0.2-0.1-0.4-0.2-0.5-0.4c-0.4-0.2-0.7-0.5-1-0.8c-0.3-0.3-0.6-0.6-0.9-0.9l-0.1-0.1l0,0l0,0l0,0l0,0l-0.1-0.1l-0.2-0.3
		l-0.4-0.5l-0.3-0.6c-0.1-0.2-0.2-0.4-0.3-0.6l-0.2-0.6c-0.1-0.2-0.1-0.4-0.1-0.6c-0.1-0.2-0.1-0.4-0.1-0.7c0-0.2,0-0.4,0-0.7
		c0-0.2,0-0.4,0-0.7c0-0.2,0.1-0.4,0.1-0.6l0.2-0.6c0.1-0.2,0.2-0.4,0.2-0.6c0.1-0.2,0.2-0.4,0.3-0.6c0.1-0.2,0.2-0.4,0.3-0.5
		C12.5,13.9,12.7,13.6,13.1,13.3C13.1,13.3,13.1,13.3,13.1,13.3L13.1,13.3L13.1,13.3z M13.1,13.4c-0.2,0.3-0.4,0.7-0.6,1
		c-0.1,0.2-0.2,0.4-0.2,0.6L12,15.5l-0.2,0.6l-0.1,0.6l-0.1,0.6c0,0.2,0,0.4,0,0.6c0,0.2,0,0.4,0.1,0.6c0,0.2,0,0.4,0.1,0.6
		c0.1,0.2,0.1,0.4,0.2,0.6l0.2,0.5c0.1,0.2,0.2,0.4,0.3,0.5l0.3,0.5l0.4,0.5l0.2,0.3l0.1,0.1c0,0,0,0,0,0l0,0l0,0l0,0l0,0l0.1,0.1
		l0.4,0.5c0.1,0.2,0.3,0.3,0.4,0.4c0.3,0.3,0.6,0.6,0.9,0.8c0.2,0.1,0.3,0.2,0.5,0.4l0.5,0.3c0.2,0.1,0.4,0.2,0.5,0.3
		c0.2,0.1,0.4,0.2,0.6,0.2c0.2,0.1,0.4,0.1,0.6,0.2l0.6,0.1c0.4,0.1,0.8,0.1,1.2,0.1c0.4,0,0.8,0,1.2-0.1c0.4-0.1,0.8-0.2,1.2-0.3
		l0,0.2c-0.4-0.5-0.8-1-1.1-1.5c-0.4-0.5-0.8-1-1.2-1.4c-0.8-0.9-1.6-1.9-2.4-2.9c-0.8-1-1.5-2-2.2-3c-0.4-0.5-0.7-1-1.1-1.5
		C13.7,14.4,13.4,13.9,13.1,13.4z"/>
	
		<ellipse id="XMLID_121_" transform="matrix(0.9984 5.637579e-002 -5.637579e-002 0.9984 1.311 -0.9762)" fill="#8C6239" cx="18" cy="22.7" rx="1.5" ry="1.8"/>
	
		<ellipse id="XMLID_120_" transform="matrix(0.9984 5.658985e-002 -5.658985e-002 0.9984 1.3162 -0.9798)" fill="#42210B" cx="18" cy="22.7" rx="0.9" ry="1.1"/>
	<path id="XMLID_118_" fill="#736357" d="M28.1,21.7c0,0,6-6.4,10-8.5C38.1,13.3,31.9,16,28.1,21.7z"/>
	<path id="XMLID_117_" fill="#736357" d="M15.6,14c0,0,5.3,6.1,6.8,9.1C22.3,23.1,19.7,16.9,15.6,14z"/>
	<g id="XMLID_241_">
		<path id="XMLID_114_" opacity="0.7" fill="#28201C" d="M7.4,24.8c0.1-0.5-0.3-0.9-0.8-0.9c-0.5,0.1-1,0.4-1.3,0.8
			c-0.3,0.4-0.3,0.9,0.1,1.2c0,0,0,0,0,0c0.2,0.1,0.4,0.2,0.6,0.1c0.2,0,0.3-0.1,0.4-0.1c0.1,0,0.1,0,0.1-0.1
			C6.9,25.6,7.3,25.2,7.4,24.8z"/>
		<path id="XMLID_113_" opacity="0.7" fill="#28201C" d="M6,27.4c-0.1-0.1-0.1-0.1-0.2-0.2c-0.1,0-0.2,0-0.3,0.1
			c-0.1,0.1-0.1,0.2-0.1,0.3c0,0.2,0.2,0.2,0.3,0.2C5.9,27.8,6.1,27.6,6,27.4z"/>
		<path id="XMLID_112_" opacity="0.7" fill="#28201C" d="M44.4,27.4c-0.4-0.3-1-0.1-1.3,0c-0.2,0.1-0.4,0.2-0.6,0.4
			c-0.1,0.1,0,0,0,0c-0.1,0.1-0.1,0.1-0.2,0.2c-0.1,0.2-0.2,0.4-0.2,0.6c0,0.4,0.3,0.6,0.6,0.7c0,0,0,0,0.1,0c0.1,0,0.2,0.1,0.3,0.1
			c0.5,0.1,1.1-0.3,1.4-0.7C44.8,28.2,44.9,27.7,44.4,27.4z"/>
		<path id="XMLID_101_" opacity="0.7" fill="#28201C" d="M43.9,30.3c-0.4-0.2-1.1,0.4-0.6,0.7C43.7,31.2,44.3,30.5,43.9,30.3z"/>
		<path id="XMLID_99_" opacity="0.7" fill="#28201C" d="M47.4,28.8c-0.2-0.5-0.8-0.5-1.2-0.3c-0.4,0.2-0.8,0.5-0.9,1
			c0,0.3,0,0.5,0.3,0.7c0.2,0.2,0.6,0.1,0.8,0c0,0,0,0,0,0C47,30,47.6,29.3,47.4,28.8z"/>
		<path id="XMLID_98_" opacity="0.7" fill="#28201C" d="M33.2,42.5c-0.2-0.2-0.6-0.1-0.9,0c-0.2,0.1-0.3,0.2-0.4,0.3c0,0,0,0,0,0
			c0,0-0.1,0.1-0.1,0.1c-0.1,0.1-0.2,0.3-0.2,0.4c0,0.3,0.2,0.4,0.4,0.5c0,0,0,0,0,0c0.1,0,0.1,0,0.2,0.1c0.3,0.1,0.7-0.2,0.9-0.5
			C33.5,43.1,33.5,42.7,33.2,42.5z"/>
		<path id="XMLID_97_" opacity="0.7" fill="#28201C" d="M34.5,43.7c-0.1-0.2-0.3-0.2-0.4-0.1c-0.1,0.1-0.3,0.2-0.3,0.4
			c0,0.1,0,0.2,0.1,0.3c0.1,0.1,0.2,0,0.3,0c0,0,0,0,0,0C34.3,44.2,34.6,43.9,34.5,43.7z"/>
	</g>
	<path id="XMLID_115_" fill="#660544" d="M17.4,39.8C17.4,39.8,17.4,39.8,17.4,39.8c0-0.1,0-0.2,0-0.3c0-0.2,0-0.5,0.1-0.9
		c0.1-0.4,0.2-0.8,0.3-1.3c0.2-0.5,0.4-1,0.7-1.6c0.3-0.6,0.7-1.1,1.2-1.7c0.5-0.6,1.1-1.1,1.8-1.6c0.7-0.5,1.5-0.9,2.5-1.2
		c0.5-0.2,0.9-0.3,1.4-0.4c0.2,0,0.5,0.1,0.8,0.1l0.4,0.1h0.4c0.3,0,0.5-0.1,0.8-0.1c0.3,0,0.5,0,0.8,0l0.4,0l0.4,0.1
		c0.2,0.1,0.5,0.1,0.7,0.2c0.5,0.2,0.9,0.3,1.3,0.6c0.4,0.2,0.8,0.4,1.1,0.7c0.2,0.1,0.3,0.3,0.5,0.4c0.2,0.1,0.3,0.3,0.5,0.4
		c0.3,0.3,0.6,0.6,0.8,0.8c0.2,0.3,0.5,0.6,0.6,0.9c0.2,0.3,0.4,0.6,0.5,0.8c0.1,0.3,0.3,0.5,0.4,0.8c0.1,0.3,0.2,0.5,0.3,0.8
		c0.1,0.2,0.2,0.5,0.2,0.7c0.1,0.2,0.1,0.4,0.1,0.6c0.1,0.4,0.1,0.7,0.1,0.9c0,0.1,0,0.2,0,0.2c0,0.1,0,0.1,0,0.1L36.2,40
		c0,0-0.2-0.3-0.6-0.7c-0.1-0.1-0.2-0.2-0.3-0.4c-0.1-0.1-0.3-0.3-0.4-0.4c-0.2-0.2-0.3-0.3-0.5-0.5c-0.2-0.2-0.4-0.3-0.6-0.5
		c-0.4-0.4-0.8-0.7-1.3-1.1c-0.3-0.2-0.5-0.3-0.8-0.5c-0.3-0.2-0.6-0.3-0.8-0.5c-0.1-0.1-0.3-0.1-0.4-0.2c-0.2-0.1-0.3-0.1-0.5-0.2
		c-0.3-0.1-0.6-0.2-1-0.3c-0.2,0-0.3-0.1-0.5-0.1l-0.2-0.1l-0.3,0l-0.5-0.1l-0.5,0l-0.3,0l-0.3,0c-0.2,0-0.3,0-0.5,0
		c-0.3,0.1-0.7,0.1-1,0.2c-0.3,0.1-0.6,0.2-1,0.3c-0.2,0.1-0.3,0.1-0.5,0.2l-0.2,0.1L23,35.4c-0.6,0.3-1.1,0.6-1.6,1
		c-0.5,0.3-0.9,0.7-1.3,1.1c-0.4,0.4-0.7,0.7-1,1c-0.3,0.3-0.5,0.6-0.8,0.8c-0.4,0.5-0.6,0.8-0.6,0.8L17.4,39.8z"/>
	<g id="XMLID_95_">
		<g id="XMLID_18_">
			<path id="XMLID_22_" fill="#28201C" d="M21.7,7.1c0.7,0,0.7-1.1,0-1.1C21,6,21,7.1,21.7,7.1L21.7,7.1z"/>
		</g>
	</g>
	<g id="XMLID_119_">
		<g id="XMLID_12_">
			<path id="XMLID_16_" fill="#28201C" d="M25.1,4.2c-0.6,0-1.2,0.3-1,1c0.2,0.6,0.9,0.6,1.3,0.2c0.5-0.6-0.3-1.4-0.8-0.8
				c0,0,0.1,0,0.1,0c0.1,0.1,0.3,0.1,0.4,0.2c-0.3,0.4-0.3,0.6,0,0.6C25.8,5.4,25.8,4.3,25.1,4.2L25.1,4.2z"/>
		</g>
	</g>
</g>
</svg>
