<svg xmlns="http://www.w3.org/2000/svg" viewBox="0 0 76 120"><path d="M44.5 85.3a51.96 51.96 0 0 1-.1 5.8c-4.7 2-10.4 8.3-15.4 13.4l3.8 4.7c3.2-1.9 6.5-3.9 10-6.2 2.8-1.9 5.5-3.8 8-5.7a3.25 3.25 0 0 0 1-1.3c.5-1.3 1.7-5 2.7-8.6l-10-2.1z" fill="#fcb997"/><path d="M32.1 111.1c.2-.3 1.9-1.8 2-2.1s-4.9-5.5-5.2-5.2l-5.3 5s6.2 9.7 8.7 9.9c2.3-1.9 1.4-3.9-.2-7.6z" fill="#09598c"/><path d="M24.2 108.3c-.2.2-.4.3-.5.5 0 0 6.1 9.8 8.6 10 .1 0 .2-.1.2-.2-2.7-1.8-6.7-7.9-8.3-10.3z" fill="#b3b3b3"/><path d="M34.2 109c.1-.3-4.9-5.5-5.2-5.2-.3.2-.9.8-1.6 1.5l5.6 5 1.2-1.3z" opacity=".22" fill="#1c000b"/><path d="M34.5 109.1c.1-.2-5.3-6-5.6-5.7l-1.2 1.1 5.5 6 1.3-1.4z" fill="#e6e6e6"/><path d="M32.6 112.1c.1.1.2.1.2.1.1 0 .1-.2.1-.2a2.15 2.15 0 0 0-2-.9c-.1 0-.2.1-.1.2v.1l.1.1c.7-.2 1.4.1 1.7.6zm.3.9c.1.1.2.1.2 0 .1-.1.1-.2 0-.2-.5-.6-1.2-.9-2-.9-.1 0-.2.1-.2.2v.1l.1.1c1.2 0 1.7.4 1.9.7zm.6.9c-.4-.6-1.2-1-2-1-.1 0-.2.1-.2.2v.1l.1.1c.7 0 1.4.4 1.7.8.1.1.2.1.2 0s.3-.1.2-.2z" fill="#e9edf4"/><path d="M54.9 89.1c.2-3.2.2-6.7.1-10.4-.2-4-.5-7.7-1-11l-7.2.4-1.6.1h-2.9L39 68c-.1.6.6 4.5 2.3 10.4h0l.6 9.7c.1 0 5.7 1.4 13 1z" fill="#383842"/><g fill="#ffc19f"><path d="M53.6 40.2c1.3 5.2 2.4 12 2.2 14.7-.4 4.9-7.4 3.7-7.4-.4 0-3.2.5-8.1.8-12.8.1-.9 4.2-2.3 4.4-1.5z"/><path d="M61.3 61.4c-2.4-3.1-4.8-6.3-6.7-8.5l-3.5-1.4c-2.1.5-3.9 2.8-2.1 5.1 1.4 1.9 6.2 5.8 10.2 8.4.6.4 2.5-3 2.1-3.6z"/><path d="M59.2 64.9s1.6 2.9 2.7 2.7c1.2-.1 3.7-2.5 3.2-3.9s-4-2.5-4.7-2c-.8.6-1.8 1.7-1.2 3.2z"/><path d="M60.1 64.5s2.7 1 3.7-1.8c0 0 2.4.1 2.4-1.3s-1.4-.3-2.3-.2c-.9.3-2.9-.1-3.8.8-.9.8-.3 2.3 0 2.5zm2.2 2.5c.1.1 2.6.9 3.1 1.1s2.3.9 2.4.1-1.5-1.1-2.5-1.5c-.8-.3-2.1-1.2-2.1-1.2l-.9 1.5z"/><path d="M61 67.3c.2.1.6.4 1.4.9.4.2 2.5 1.4 3 .8 0 0 .1-.1.1-.2.2-.8-1.4-1.2-2.4-1.7-.7-.3-2-1.4-2-1.4l-.1 1.6zm2-1.5c.1 0 .7.5.7.5l2.7.7c1 .3 1.9.9 2 .2.3-1-1.5-1.5-2.4-1.8-.6-.4-2-1.1-2-1.1-.1 0-1 1.5-1 1.5z"/><path d="M64 64.3l.4.5 3.4 1.1c.7.3 1.2.1 1-.5s-1.4-.9-2.2-1.2-2.2-1.3-2.2-1.3l-.4 1.4z"/></g><path d="M47.9 34.3s1.8.5 3 1.1c.8.4 2 0 3.3 1 .6 1.5 1.2 4.2 1.7 6.2.7 2.6 1 5 1.2 7-1.8.8-4.4 1.7-7 2-.3-6.4-.5-12.3-2.2-17.3z" fill="#f7931e"/><g fill="#ffc19f"><path d="M30.4 80.8c1.9 4.9 2.4 10.7 2.4 10.7l7.9-.9s0-5.7-.2-10.9l-10.1 1.1z"/><path d="M40.7 90c.4 3.3.8 6.8 1 10.5.3 4.1.4 8 .4 11.7-2 .3-4 .7-6 1-2.2-8-5.5-17.8-3.2-22.4l7.8-.8z"/></g><path d="M43.5 113.8c-.2-.3-.6-2.5-.8-2.8-.2-.2-7.2 1.5-7.1 1.9l1.7 7.1s11.5-.5 12.9-2.6c-.6-2.8-2.7-3.1-6.7-3.6z" fill="#09598c"/><path d="M37.1 119.3c.1.3.1.5.2.7 0 0 11.6-.4 13-2.5.1-.1 0-.2 0-.3-3 1.5-10.3 2-13.2 2.1z" fill="#b3b3b3"/><path d="M42.7 111c-.2-.2-7.2 1.5-7.1 1.9.1.3.3 1.1.5 2.1l7.1-2.3-.5-1.7z" opacity=".22" fill="#1c000b"/><path d="M42.9 110.7c-.2-.2-7.9 1.6-7.8 2 0 .3.2.9.4 1.6l7.9-1.8c-.1-.6-.3-1.6-.5-1.8z" fill="#e6e6e6"/><path d="M44.5 113.9c.1 0 .2-.1.2-.2s-.1-.2-.2-.2c-.7 0-1.4.5-1.7 1.3 0 .1 0 .2.1.2h.1c.1 0 .1 0 .1-.1.3-.5.8-1 1.4-1zm1 .2c.1 0 .2-.1.1-.2 0-.1-.1-.2-.2-.1-.7.1-1.4.6-1.8 1.2 0 .1 0 .2.1.2h.1s.1 0 .1-.1c.6-.7 1.3-.9 1.6-1zm1.1-.1c-.7.1-1.4.6-1.9 1.2 0 .1 0 .2.1.2h.1s.1 0 .1-.1c.4-.6 1-1 1.6-1.1.1 0 .2-.1.2-.2 0 .1-.1 0-.2 0z" fill="#e9edf4"/><path d="M34.3 66.5c0-.1 0-.1 0 0l-1.8.1-3.2-.1-3.6-.2c-.1.7.4 5 2.4 11.6h0l1.3 11.6 3.4.7c3.3.3 7.6.4 10-.1.2-3.2.3-6.6.3-10.1 0-4.9-.3-9.4-.8-13.5-2.6-.2-5.3-.1-8 0z" fill="#454551"/><g fill="#f7931e"><path d="M53.3 35.9c-6.7-2.4-12.1-3.8-20.5-2.1v.1c-2.9 4.7-4.7 10.2-5.8 16.3-1 5.3-1.5 11.1-1.9 17.2 7.8 5.4 19.7 5.1 29.8 1.1-1.7-5.4-4.8-20.7-1.6-32.6z"/><path d="M33.9 34c.1 0 .2-.3.3-.3-3.5.2-7.7 1.8-8.5 2.2a23.96 23.96 0 0 0-3.5 5c-1.3 2.5-2.2 5.1-2.5 6.8 1 .6 2.2 1.1 3.7 1.6 1.8.6 3.4.9 4.7 1 1.5-6.2 2.7-11.5 5.8-16.3z"/></g><path d="M28.3 45.2c-1 3.1-1.7 6.5-2.3 10 13.1 3.3 19.6 2.9 26.4.8-.2-3.1-.7-6.5-.5-9.9-7.2 1.5-14.9.9-23.6-.9zm18.1-10.5c0-.4 0-.5-.1-.8-3.8-1.1-13.4-.2-13.4 0-.2 2.8 2.7 5.3 6.4 5.5 3.8.1 6.9-1.9 7.1-4.7z" fill="#ff6d00"/><path d="M45.2 26l-.5 8.2c-.1 1.8-2.4 3.1-5.2 2.9s-4.9-1.8-4.8-3.5l.5-8.2 10 .6zm7.7-4.6c0 1.8-1.4 3.3-2.6 3.4-1.3.1-1.8-1.2-2-3-.2-1.7.7-3.2 1.9-3.4 1.7 0 2.7 1.3 2.7 3z" fill="#f4b18c"/><path d="M50.1 6.8c.5-1.1.6-2.9-2-4.2.4 2.3-.8 2.1-2.2 1.6-2.1-.7-4.7-.9-7.4-.8-7.8.3-12.9 2.9-13.7 9.5.2 8.6 7.1 14.9 14.8 14.6 7.8-.3 13.2-4.3 13-13 0-3.5-.9-6-2.5-7.7z" fill="#2b1407"/><path d="M28.9 12.3c-.7 1.7.4 14.7 2.1 16.6 1.8 2 8.9 4 11.2 3.9 1.6-.1 7-2.1 8.2-4.5 1.5-2.8 1-14.8.4-16.2-1.9-5-5.6-5.5-11.4-5.2-5.4.1-8.8 1.2-10.5 5.4z" fill="#ffc19f"/><path d="M41.7 24.9c.1 0 .1 0 .1-.1.1-.4.4-.7.8-.7.5 0 .8.3.9.7 0 .1.1.1.1.1.1 0 .1-.1.1-.1-.1-.6-.5-.9-1.1-.9s-1 .4-1.1.9c0 0 .1.1.2.1h0z" fill="#f4b18c"/><path d="M30.2 20.4c-.3 4.3-.7 3.6-2.1 3.7s-3.3-5.3-3.2-11.7c.4-1.3 4-3.3 4.6-3.6.4 2.5.8 9.6.7 11.6z" fill="#2b1407"/><path d="M45.4 19.7c-.7 1.3-.6 2.8.1 3.3 1.1.8 3.5.9 4.4-.3s.4-3.3-1.1-4.1c-1.3-.8-2.7-.2-3.4 1.1z" fill="#f9feff"/><path d="M50 19.2c-1.2-2-3.9-1.2-4.6.6.7-1.3 2.2-1.8 3.4-1.1.7.4 1.3 1.2 1.5 2.1.1.7 0 1.5-.3 2 .3-.3.9-2.1 0-3.6zm-3.3 1.4c-.3.9.1 1.9.9 2.3.8.3 1.7-.1 2-1s-.1-1.9-.9-2.3-1.7.1-2 1z"/><path d="M46.8 20.4c-.1.3 0 .5.3.6.2.1.5 0 .6-.3s0-.5-.3-.6c-.2-.1-.5.1-.6.3z" fill="#fefffe"/><path d="M39.1 19.9c.9 1.3.8 2.7.1 3.3-1.2.9-4 1.1-5.1 0-1-1.1-.6-3.3 1.1-4.2 1.4-.9 3-.4 3.9.9z" fill="#f9feff"/><path d="M33.9 19.6c1.3-2.1 4.4-1.4 5.3.3-.9-1.3-2.6-1.7-3.9-.9-.8.5-1.4 1.3-1.5 2.2-.1.7.1 1.5.5 2-.6-.3-1.4-2-.4-3.6z"/><circle cx="37.6" cy="21.5" r="1.8"/><circle cx="36.5" cy="20.9" r=".5" fill="#fefffe"/><path d="M49.8 16.9c-.1 0-.2-.1-.3-.2-.7-.8-2.2-1.1-3.4-.8-.3.1-.6-.1-.6-.4-.1-.3.1-.6.4-.6 1.6-.4 3.4 0 4.4 1.1.2.2.2.5 0 .7s-.3.2-.5.2zm-16 .2c-.1 0-.3 0-.4-.1-.2-.2-.2-.5 0-.7 1-1 2.8-1.5 4.4-1 .3.1.4.4.4.6-.1.3-.4.4-.6.4-1.2-.3-2.7 0-3.4.8-.2-.1-.3 0-.4 0zM48.3 2.6c.3 1.2-.3 2.3-1.3 3.2.7-1.5.7-3.4-1-5.8l-3.4 2.8c.1-.6.1-1.3-.1-2-1.8 2.5-3.8 2.4-10.1 4.1-4.4 1.1-5.2 4-4.6 5.7 3-.7 7.3.7 10.5.6 4-.1 7.1-.9 8.7-2.1 1.8-1.4 3.3-4.2 1.3-6.5z" fill="#2b1407"/><path d="M25.5 22c0 2.2 1.6 3.9 3.1 4.1 1.5.1 2.2-1.5 2.4-3.5s-.8-3.8-2.3-4c-2-.2-3.2 1.3-3.2 3.4z" fill="#ffc19f"/><path d="M46.2 27.4c.3 1.3-1.7 3.3-3.7 3.3-1.9 0-3.3-1.6-3.3-3 .1-.8 1.4-.6 3.3-.7 1.8-.1 3.4-.4 3.7.4z"/><path d="M42.7 29.4c-.9 0-1.6.3-2 .7.5.3 1.2.6 1.9.6.8 0 1.6-.2 2.1-.8-.2-.4-1.2-.5-2-.5z" fill="#b71521"/><path d="M45.2 26.8c-.7-.2-1.7 0-2.6.1-1.1.1-1.9 0-2.5.1.3.6 1.2.9 2.4.8 1.4 0 2.5-.3 2.7-1z" fill="#fff"/><path d="M28.6 42.4c-1.1 5.2-3.2 11.8-4.6 14.1-2.6 4.2-8.3 0-6.4-3.7 1.4-2.9 4-7 6.4-11.1.4-.7 4.7-.1 4.6.7z" fill="#ffc19f"/><path d="M31.1 36.7c-.1-.6-.6-.9-1.2-1.1h-.2c-.6-.1-1.2-.1-1.8-.1h-.5c-.2 0-.3 0-.5.1s-.3.1-.5.2c0 0-.2.1-.4.3-2.1 1.5-4.2 5.3-4.2 5.3-.7 1.4-1.8 3.3-3.4 5.8 2.6 3.4 7.2 6.7 8.8 4.6 5.6-7.2 4.3-13.3 3.9-15.1z" fill="#f7931e"/><g fill="#ffc19f"><path d="M31.2 49.5l-10.6 2-2.8 2.5c-.6 2.1.6 4.7 3.6 4.2 2.4-.4 8-2.9 12.2-5.2.5-.3-1.7-3.6-2.4-3.5z"/><path d="M33.4 53s3.3-.1 3.7-1.2-.5-4.4-2-4.6-4.1 2.4-4 3.2c.2 1.1.7 2.4 2.3 2.6z"/><path d="M33.5 52s2.1-1.9.1-4.1c0 0 1.2-2.1 0-2.7-1.2-.7-.9 1.1-1.2 2s-1.6 2.5-1.2 3.7c.3 1.2 1.9 1.3 2.3 1.1zm3.2-.8c.1 0 2-1.9 2.4-2.3s1.8-1.6 1.2-2.1c-.7-.5-1.7.8-2.5 1.5-.6.6-2.1 1.3-2.1 1.3l1 1.6z"/><path d="M36.3 52.5l1.5-.8c.4-.2 2.4-1.6 2.1-2.3 0 0 0-.1-.1-.2-.6-.5-1.7.7-2.6 1.3-.7.5-2.1 1.1-2.1 1.1l1.2.9zm-.4-2.5c0-.1.8-.4.8-.4l1.9-2.1c.7-.8 1.6-1.2 1.1-1.7-.8-.7-2 .7-2.7 1.3l-2 1.4.9 1.5z"/><path d="M35.1 48.5l.6-.1 2.5-2.6c.6-.5.6-1.1 0-1.2s-1.5.8-2.1 1.4-2.2 1.4-2.2 1.4l1.2 1.1z"/></g></svg>