<?xml version="1.0" encoding="utf-8"?>
<!-- Generator: Adobe Illustrator 19.0.0, SVG Export Plug-In . SVG Version: 6.00 Build 0)  -->
<svg version="1.1" baseProfile="tiny" id="Layer_1" xmlns="http://www.w3.org/2000/svg" xmlns:xlink="http://www.w3.org/1999/xlink"
	 x="0px" y="0px" viewBox="0 0 50 50" xml:space="preserve">
<g id="XMLID_2_">
	<path id="XMLID_43_" fill="#F29C1F" d="M28.5,45.6c-3-5.2-5.5-12-2.5-16.5c5.2-7.9-8.8-15.2-23.2-11.8c0.2,1,0.9,1.6,1.6,1.4
		c-1.4,3-1.9,5.7-1.9,8.2C7,26.2,14.7,26.8,11,41.7c0.9,0.7,1.8,1.4,2.9,1.9c-0.1,0.2-0.2,0.4-0.3,0.6c-0.5,1.6,1.4,3.6,4.2,4.4
		c2.8,0.8,5.4,0.1,5.9-1.5c0.1-0.3,0.1-0.7,0-1.1C25.3,46.1,26.9,45.9,28.5,45.6z"/>
	<path id="XMLID_81_" fill="#E58925" d="M2.5,27c0,1.6,0.2,3,0.6,4.4c-0.3,0.1-0.8,0.1-1.4,0.1c-2.3-0.1-2.2,4,0.1,6.8
		C4.1,41,5.9,39.6,6,38.4c0-0.4,0.2-0.6,0.4-0.8c1.1,1.1,2.4,2.1,3.7,3.3c0.3,0.3,0.6,0.5,0.9,0.8C14.7,26.8,7,26.2,2.5,27z"/>
	<path id="XMLID_62_" fill="#F29C1F" d="M41,12.7c-5.4,12.8-6.2,24.2,0,24.2c0.2,0,0.5,0,0.7,0c2.6-3,3.1-5.6,3.3-8.3
		c0.1,0,0.2,0.1,0.3,0.2c1,0.8,2.8,1.1,4.1-1.3c1.4-2.4,0.2-6.1-1.7-7.1c-1-0.5-2.1,0.2-2.5,0.7c-0.2,0.2-0.4,0.4-0.6,0.5
		c-0.3-1.5-0.8-3-1.4-4.4c0.5,0.1,1,0.2,1.5-0.5c0.7-0.8,0.9-3.1-1.1-5.9c-0.8-1.1-1.6-1.8-2.3-2.1C41.7,9.7,41.6,11.1,41,12.7z"/>
	<path id="XMLID_79_" fill="#E58925" d="M32.9,45.3c1.8,0.6,6-1.1,7.1-3.4c0.6-1.3,0.3-2.2-0.3-2.8c0.4-0.4,0.7-0.8,1-1.2
		c0.3-0.4,0.7-0.7,0.9-1c-0.2,0-0.5,0-0.7,0c-6.2,0-5.4-11.5,0-24.2c0.7-1.6,0.7-3,0.4-4.2c-1.1-0.5-1.9-0.3-2.3,0.4
		c-0.3,0.6-0.4,1-0.6,1.3c-2.6-2.4-5.6-4.1-8.9-4.9C29.7,5.2,29.8,5,30,4.9c1.1-0.7,0-3.6-4.6-3.8c-4.7-0.2-6.3,2.1-5.2,3.4
		c0.1,0.2,0.2,0.3,0.3,0.5c-0.1-0.2-2.5,0.6-2.8,0.7C16.8,6,15.8,6.4,15,6.9c-1.8,0.9-3.6,2.1-4.9,3.6c-0.1,0.1-0.2,0.1-0.2,0.2
		c-0.1-0.3-0.2-0.5-0.4-0.7c-0.9-0.7-4.1,0.6-5.8,3.8c-0.8,1.4-1,2.7-0.8,3.6c14.4-3.4,28.4,3.9,23.2,11.8c-3,4.5-0.4,11.3,2.5,16.5
		c1.1-0.2,2.2-0.6,3.3-1C32,44.9,32.4,45.1,32.9,45.3z"/>
	<path id="XMLID_188_" fill="#A2B239" d="M34.9,24.1c0-0.2-0.2-0.4-0.3-0.3c0,0-0.1,0-0.1,0c0,0-0.1,0-0.1,0
		c-0.2,0.1-0.3,0.2-0.4,0.3c-0.2,0.3,0.2,0.6,0.4,0.7c0.2,0.1,0.5-0.1,0.5-0.3C35,24.4,34.9,24.3,34.9,24.1z"/>
	<path id="XMLID_58_" fill="#FFFFFF" d="M30.1,38c-0.7-0.2-1.6-0.5-2.7-0.7c0,0,0.3,3,0.5,3.1C28.2,40.5,30.1,38,30.1,38z"/>
	<g id="XMLID_56_">
		<path id="XMLID_57_" fill="#8B5422" d="M30.2,38c-0.9-0.3-1.8-0.5-2.8-0.7c0,0-0.2,0-0.2,0c0.1,0.6,0.1,1.2,0.2,1.8
			c0,0.3,0.1,1.3,0.5,1.3c0.4,0,0.9-0.7,1.1-0.9C29.4,39,29.8,38.5,30.2,38c0.1,0-0.2-0.1-0.2,0c-0.3,0.4-0.5,0.7-0.8,1
			c-0.4,0.4-0.8,1-1.2,1.3c0.1-0.1,0.1,0,0-0.2c-0.1-0.2-0.1-0.3-0.1-0.5c-0.1-0.3-0.1-0.7-0.1-1c-0.1-0.4-0.1-0.9-0.1-1.3
			c-0.1,0-0.1,0-0.2,0c0.9,0.2,1.8,0.4,2.7,0.7C30.1,38.1,30.4,38,30.2,38z"/>
	</g>
	<path id="XMLID_53_" fill="#FFFFFF" d="M18.8,37.4c-1.2,0.3-2.1,0.5-2.7,0.8c0,0,0.6,2.1,1.2,2.7C17.9,41.4,18.8,37.4,18.8,37.4z"
		/>
	<g id="XMLID_51_">
		<path id="XMLID_52_" fill="#8B5422" d="M18.7,37.3c-0.9,0.2-1.8,0.4-2.7,0.8c0,0,0,0,0,0c0.1,0.5,0.9,3.3,1.7,2.8
			c0.5-0.3,0.7-1.3,0.8-1.8c0.2-0.6,0.3-1.1,0.4-1.7C18.9,37.3,18.7,37.2,18.7,37.3c-0.3,1.1-0.5,2.5-1.1,3.4
			C17.3,41,17,40.2,16.9,40c-0.2-0.5-0.4-0.9-0.6-1.4c0-0.1-0.1-0.2-0.1-0.4c0,0,0.4-0.2,0.5-0.2c0.7-0.2,1.4-0.4,2.1-0.6
			C19,37.4,18.8,37.3,18.7,37.3z"/>
	</g>
	<path id="XMLID_67_" fill="#FFFFFF" d="M8.9,18.2l12.8,3.6c0,0-3,6.6-8.8,5.2C7.6,25.8,8.9,18.2,8.9,18.2z"/>
	<path id="XMLID_66_" fill="#E8E8E8" d="M21.7,22C21.7,21.9,21.7,21.9,21.7,22L8.9,18.2c0,0-0.2,1.1-0.1,2.6
		C12.7,22.6,17.2,23.1,21.7,22z"/>
	<path id="XMLID_38_" fill="#8B5422" d="M8.9,18.2c0.6,0.1,1.1,0.2,1.7,0.3c0.5,0.1,1.1,0.2,1.6,0.3c1.1,0.2,2.2,0.5,3.2,0.8
		c1.1,0.3,2.1,0.7,3.2,1.1c0.5,0.2,1,0.4,1.6,0.6c0.5,0.2,1.1,0.3,1.6,0.5c0.1,0,0.1,0.1,0.1,0.2c0,0,0,0,0,0
		c-0.2,0.5-0.5,1-0.8,1.5c-0.3,0.5-0.6,0.9-1,1.3c-0.3,0.4-0.7,0.8-1.1,1.1l-0.6,0.5c-0.2,0.1-0.4,0.3-0.6,0.4
		c-0.2,0.1-0.4,0.2-0.6,0.3c-0.2,0.1-0.4,0.2-0.6,0.3l-0.6,0.2c-0.2,0.1-0.4,0.1-0.6,0.1c-0.4,0.1-0.8,0.1-1.2,0.1
		c-0.4,0-0.8-0.1-1.2-0.1l-0.1,0l0,0l0,0l0,0l0,0l-0.1,0l-0.3-0.1l-0.5-0.2L11.3,27c-0.2-0.1-0.4-0.2-0.5-0.3l-0.5-0.4
		c-0.1-0.2-0.3-0.3-0.4-0.5c-0.1-0.2-0.3-0.4-0.4-0.6c-0.1-0.2-0.2-0.4-0.3-0.6c-0.1-0.2-0.2-0.4-0.3-0.7c-0.1-0.2-0.1-0.5-0.2-0.7
		l-0.1-0.8c0-0.3,0-0.5-0.1-0.8c0-0.3,0-0.5,0-0.8c0-0.3,0-0.6,0-0.8C8.7,19.3,8.8,18.8,8.9,18.2C8.9,18.2,8.9,18.2,8.9,18.2
		L8.9,18.2L8.9,18.2z M8.9,18.3c0,0.5-0.1,1,0,1.5c0,0.3,0,0.5,0,0.8L9,21.4l0.1,0.7l0.2,0.7l0.2,0.6c0.1,0.2,0.2,0.4,0.3,0.6
		c0.1,0.2,0.2,0.4,0.3,0.5c0.1,0.2,0.2,0.3,0.4,0.5c0.1,0.1,0.3,0.3,0.4,0.4l0.4,0.3c0.1,0.1,0.3,0.2,0.5,0.3l0.5,0.2l0.5,0.2
		l0.3,0.1l0.1,0c0,0,0,0,0,0l0,0l0,0l0,0l0,0l0.1,0l0.5,0.1c0.2,0,0.4,0.1,0.5,0.1c0.4,0,0.7,0.1,1.1,0c0.2,0,0.4,0,0.6-0.1l0.6-0.2
		c0.2,0,0.4-0.1,0.6-0.2c0.2-0.1,0.4-0.1,0.6-0.3c0.2-0.1,0.4-0.2,0.6-0.3l0.5-0.4c0.4-0.3,0.7-0.6,1.1-1c0.3-0.4,0.7-0.8,1-1.2
		c0.3-0.4,0.6-0.9,0.8-1.4l0,0.2c-0.5-0.2-1.1-0.3-1.6-0.5c-0.5-0.1-1.1-0.3-1.6-0.4c-1.1-0.2-2.2-0.4-3.3-0.7
		c-1.1-0.3-2.1-0.6-3.2-1c-0.5-0.2-1-0.4-1.6-0.6C9.9,18.7,9.4,18.5,8.9,18.3z"/>
	<path id="XMLID_35_" fill="#FFFFFF" d="M37.7,18.1L24.9,22c0,0,3.1,6.6,8.9,5.1C39.2,25.7,37.7,18.1,37.7,18.1z"/>
	<path id="XMLID_32_" fill="#E8E8E8" d="M25,22.1C25,22,24.9,22,25,22.1l12.7-3.9c0,0,0.2,1.1,0.2,2.6C34,22.6,29.5,23.2,25,22.1z"
		/>
	<path id="XMLID_11_" fill="#8B5422" d="M37.7,18.1L37.7,18.1C37.7,18.1,37.8,18.1,37.7,18.1c0.2,0.6,0.3,1.2,0.3,1.7
		c0,0.3,0,0.6,0.1,0.8c0,0.3,0,0.5,0,0.8c0,0.3,0,0.5-0.1,0.8L37.9,23c-0.1,0.2-0.1,0.5-0.2,0.7c-0.1,0.2-0.2,0.5-0.2,0.7
		c-0.1,0.2-0.2,0.4-0.3,0.6c-0.1,0.2-0.2,0.4-0.4,0.6c-0.1,0.2-0.3,0.4-0.4,0.5l-0.5,0.4c-0.1,0.2-0.3,0.3-0.5,0.4l-0.5,0.3
		l-0.5,0.2l-0.3,0.1l-0.1,0l0,0l0,0l0,0l0,0l-0.1,0c-0.4,0.1-0.8,0.2-1.2,0.1c-0.4,0-0.8,0-1.2-0.1c-0.2,0-0.4-0.1-0.6-0.1l-0.6-0.2
		c-0.2-0.1-0.4-0.2-0.6-0.3c-0.2-0.1-0.4-0.2-0.6-0.3c-0.2-0.1-0.4-0.3-0.6-0.4l-0.6-0.5c-0.4-0.3-0.7-0.7-1.1-1.1
		c-0.3-0.4-0.7-0.8-1-1.3c-0.3-0.5-0.6-0.9-0.8-1.5c0,0,0,0,0,0c0-0.1,0-0.2,0.1-0.2c0.5-0.1,1.1-0.3,1.6-0.5c0.5-0.2,1-0.4,1.6-0.6
		c1-0.4,2.1-0.8,3.1-1.1c1.1-0.3,2.1-0.6,3.2-0.9c0.5-0.1,1.1-0.3,1.6-0.4C36.6,18.3,37.1,18.2,37.7,18.1L37.7,18.1z M36.2,18.9
		c-0.5,0.2-1,0.4-1.6,0.6c-1,0.4-2.1,0.7-3.2,1c-1.1,0.3-2.2,0.5-3.3,0.8c-0.5,0.1-1.1,0.2-1.6,0.4c-0.5,0.1-1.1,0.3-1.6,0.5l0-0.2
		c0.2,0.5,0.5,0.9,0.8,1.4c0.3,0.4,0.6,0.8,1,1.2c0.3,0.4,0.7,0.7,1.1,0.9l0.6,0.4c0.2,0.1,0.4,0.2,0.6,0.3c0.2,0.1,0.4,0.2,0.6,0.3
		c0.2,0.1,0.4,0.2,0.6,0.2l0.6,0.2c0.2,0,0.4,0,0.6,0.1c0.4,0.1,0.7,0,1.1,0c0.2,0,0.4,0,0.5-0.1l0.5-0.1l0.1,0l0,0l0,0l0,0l0,0
		c0,0,0,0,0,0l0.1,0l0.3-0.1l0.5-0.2L35,26c0.2-0.1,0.3-0.2,0.4-0.3l0.4-0.3c0.1-0.1,0.3-0.3,0.4-0.4c0.1-0.1,0.2-0.3,0.3-0.5
		c0.1-0.2,0.2-0.3,0.3-0.5c0.1-0.2,0.2-0.4,0.3-0.6l0.2-0.6l0.2-0.7l0.1-0.7l0.1-0.8c0-0.3,0-0.5,0-0.8c0-0.5,0-1-0.1-1.5
		C37.2,18.4,36.7,18.6,36.2,18.9z"/>
	<g id="XMLID_40_">
		
			<ellipse id="XMLID_48_" transform="matrix(0.9997 2.631202e-002 -2.631202e-002 0.9997 0.6246 -0.4293)" fill="#1C381A" cx="16.6" cy="23.5" rx="1.4" ry="2.1"/>
		<path id="XMLID_42_" d="M17.4,23.5c0,0.7-0.4,1.2-0.9,1.2c-0.5,0-0.8-0.6-0.8-1.3c0-0.7,0.4-1.2,0.9-1.2
			C17.1,22.3,17.5,22.9,17.4,23.5z"/>
		<path id="XMLID_41_" fill="#FFFFFF" d="M16.5,22.9c0,0.4-0.2,0.6-0.4,0.6c-0.2,0-0.4-0.3-0.4-0.7c0-0.4,0.2-0.6,0.4-0.6
			C16.3,22.3,16.5,22.6,16.5,22.9z"/>
	</g>
	<g id="XMLID_68_">
		
			<ellipse id="XMLID_71_" transform="matrix(-0.9992 3.969567e-002 -3.969567e-002 -0.9992 59.485 45.6141)" fill="#1C381A" cx="29.3" cy="23.4" rx="1.4" ry="2.1"/>
		<path id="XMLID_70_" d="M28.5,23.4c0,0.7,0.4,1.2,0.9,1.2c0.5,0,0.8-0.6,0.8-1.3c0-0.7-0.4-1.2-0.9-1.2
			C28.8,22.2,28.4,22.7,28.5,23.4z"/>
		<path id="XMLID_69_" fill="#FFFFFF" d="M29.4,22.8c0,0.4,0.2,0.6,0.4,0.6c0.2,0,0.4-0.3,0.4-0.7c0-0.4-0.2-0.6-0.4-0.6
			C29.6,22.1,29.4,22.4,29.4,22.8z"/>
	</g>
	<path id="XMLID_3_" fill="#8B5422" d="M14.8,38.5c0,0,0.2-0.2,0.7-0.4c0.4-0.2,1.1-0.5,1.9-0.8c0.8-0.3,1.7-0.5,2.8-0.7
		c0.5-0.1,1.1-0.2,1.6-0.2c0.6,0,1.1-0.1,1.7-0.1c0.6,0,1.1,0,1.7,0.1c0.6,0,1.1,0.1,1.6,0.2c0.5,0.1,1,0.2,1.5,0.3
		c0.2,0.1,0.5,0.1,0.7,0.2c0.2,0.1,0.4,0.2,0.6,0.2c0.4,0.1,0.8,0.3,1.1,0.4c0.3,0.2,0.6,0.3,0.8,0.4c0.4,0.2,0.7,0.4,0.7,0.4
		s-0.3-0.1-0.7-0.2c-0.2-0.1-0.5-0.2-0.8-0.3c-0.3-0.1-0.7-0.1-1.1-0.2c-0.4-0.1-0.8-0.2-1.3-0.3c-0.5-0.1-0.9-0.2-1.5-0.2
		c-0.5-0.1-1-0.1-1.6-0.1c-0.5,0-1.1,0-1.6,0c-1.1,0-2.2,0.1-3.2,0.2c-0.5,0.1-1,0.1-1.5,0.2c-0.5,0.1-0.9,0.2-1.3,0.2
		c-0.8,0.2-1.5,0.3-1.9,0.4C15,38.4,14.8,38.5,14.8,38.5z"/>
	<path id="XMLID_49_" fill="#BD6E29" d="M24.9,23.8c0,0,0.2,0.5,0.5,1.1c0.1,0.3,0.3,0.7,0.5,1.1c0.2,0.4,0.4,0.8,0.7,1.3
		c0.2,0.4,0.5,0.8,0.8,1.2c0.3,0.4,0.5,0.7,0.8,1c0.2,0.3,0.4,0.5,0.6,0.7c0.1,0.2,0.2,0.2,0.2,0.2s-0.1-0.1-0.3-0.2
		c-0.2-0.1-0.4-0.3-0.7-0.5c-0.3-0.3-0.6-0.6-0.9-0.9c-0.3-0.4-0.6-0.8-0.8-1.2c-0.2-0.4-0.5-0.9-0.6-1.3c-0.2-0.4-0.3-0.9-0.4-1.2
		C24.9,24.3,24.9,23.8,24.9,23.8z"/>
	<path id="XMLID_50_" fill="#BD6E29" d="M21.7,23.8c0,0,0,0.5-0.2,1.2c-0.1,0.4-0.2,0.8-0.4,1.2c-0.2,0.4-0.4,0.9-0.6,1.3
		c-0.3,0.4-0.5,0.8-0.8,1.2c-0.3,0.4-0.6,0.7-0.9,0.9c-0.3,0.3-0.5,0.4-0.7,0.5c-0.2,0.1-0.3,0.2-0.3,0.2s0.1-0.1,0.2-0.2
		c0.2-0.1,0.4-0.4,0.6-0.7c0.2-0.3,0.5-0.6,0.8-1c0.3-0.4,0.5-0.8,0.8-1.2c0.2-0.4,0.5-0.8,0.7-1.3c0.2-0.4,0.4-0.8,0.5-1.1
		C21.5,24.3,21.7,23.8,21.7,23.8z"/>
	<g id="XMLID_5_">
		<path id="XMLID_191_" fill="#B66828" d="M9,32.8c0-0.1,0-0.1,0-0.2c-0.1-0.3-0.3-0.5-0.6-0.5c-0.3-0.1-0.6,0.2-0.7,0.4
			c-0.2,0.5,0.1,1,0.5,1.2c0.1,0.1,0.3,0.2,0.5,0.1c0.1-0.1,0.2-0.2,0.3-0.3C9,33.3,9,33.1,9,32.8z"/>
		<path id="XMLID_8_" fill="#B66828" d="M20.3,14.4c0-0.1,0-0.1,0-0.2c-0.1-0.3-0.3-0.5-0.6-0.5c-0.3-0.1-0.6,0.2-0.7,0.4
			c-0.2,0.5,0.1,1,0.5,1.2c0.1,0.1,0.3,0.2,0.5,0.1c0.1-0.1,0.2-0.2,0.3-0.3C20.4,14.9,20.4,14.6,20.3,14.4z"/>
		<path id="XMLID_55_" fill="#B66828" d="M22,46.3c0-0.1,0-0.1,0-0.2c-0.1-0.3-0.4-0.5-0.8-0.5c-0.4-0.1-0.8,0.2-0.9,0.4
			c-0.2,0.5,0.1,1,0.7,1.2c0.2,0.1,0.5,0.2,0.7,0.1c0.2-0.1,0.3-0.2,0.4-0.3C22.1,46.8,22.1,46.5,22,46.3z"/>
		<path id="XMLID_9_" fill="#B66828" d="M34.8,13.2c0-0.1,0-0.1,0-0.2c-0.1-0.3-0.4-0.5-0.8-0.5c-0.4-0.1-0.8,0.2-0.9,0.4
			c-0.2,0.5,0.1,1,0.7,1.2c0.2,0.1,0.5,0.2,0.7,0.1c0.2-0.1,0.3-0.2,0.4-0.3C34.9,13.7,34.9,13.4,34.8,13.2z"/>
		<path id="XMLID_190_" fill="#B66828" d="M48.3,22.7c-0.1-0.3-0.4-0.5-0.6-0.4c-0.2,0.1-0.2,0.4-0.2,0.5c0,0.3,0.2,0.7,0.5,0.9
			c0.3,0.1,0.6-0.2,0.5-0.5C48.5,23,48.4,22.8,48.3,22.7z"/>
		<path id="XMLID_187_" fill="#B66828" d="M9.1,13.1c0-0.1-0.2-0.4-0.4-0.4h0c0,0,0,0,0,0c0,0,0,0,0,0c-0.2,0.1-0.4,0.2-0.5,0.4
			c-0.2,0.3,0,0.6,0.2,0.8c0.2,0.2,0.5,0,0.6-0.2C9.1,13.5,9.1,13.3,9.1,13.1z"/>
		<path id="XMLID_186_" fill="#B66828" d="M31.1,28.7c-0.1-0.1-0.1-0.2-0.2-0.3c0-0.1-0.2-0.3-0.3-0.3c-0.4,0.1-0.5,0.6-0.3,0.9
			c0.2,0.4,0.7,0.5,0.9,0.2C31.2,29,31.2,28.9,31.1,28.7z"/>
		<path id="XMLID_185_" fill="#B66828" d="M38.5,37.2c0,0-0.1-0.1-0.1-0.1c-0.1-0.2-0.2-0.4-0.4-0.4c-0.2,0-0.5,0.1-0.6,0.3
			c-0.1,0.3,0.1,0.7,0.3,0.9c0.2,0.2,0.5,0.4,0.7,0.2c0.1-0.1,0.2-0.3,0.2-0.5C38.7,37.4,38.6,37.3,38.5,37.2z"/>
		<path id="XMLID_184_" fill="#B66828" d="M42.3,12.6c0-0.1-0.1-0.3-0.2-0.4c0-0.1-0.1-0.1-0.1-0.1c-0.3,0-0.6,0.1-0.7,0.3
			c-0.2,0.2-0.1,0.5,0,0.8C41.6,13.6,42.3,13.1,42.3,12.6z"/>
		<path id="XMLID_183_" fill="#B66828" d="M23.9,5.2c-0.1-0.1-0.1-0.1-0.2-0.1c0,0,0,0,0,0c-0.2,0-0.3,0.2-0.2,0.4
			c0.1,0.2,0.3,0.3,0.5,0.2C24.2,5.6,24.1,5.3,23.9,5.2z"/>
		<path id="XMLID_10_" fill="#B66828" d="M3.3,37.1C3.2,37.1,3.2,37,3.1,37c0,0,0,0,0,0c-0.2,0-0.3,0.2-0.2,0.4
			c0.1,0.2,0.3,0.3,0.5,0.2C3.6,37.5,3.5,37.2,3.3,37.1z"/>
	</g>
	<path id="XMLID_189_" fill="#9A5124" d="M24.7,32.5c-0.1-0.1-0.2-0.3-0.4-0.4l0,0c0,0,0,0,0,0c-0.2-0.1-0.4-0.2-0.5-0.1
		c-0.2,0.2-0.1,0.4,0,0.7c0.1,0.2,0.4,0.5,0.6,0.5c0.1,0,0.1,0,0.2,0C24.9,33.1,24.8,32.7,24.7,32.5z"/>
	<path id="XMLID_72_" fill="#9A5124" d="M21.5,32.5c0.1-0.1,0.2-0.3,0.4-0.4l0,0c0,0,0,0,0,0c0.2-0.1,0.4-0.2,0.5-0.1
		c0.2,0.2,0.1,0.4,0,0.7c-0.1,0.2-0.4,0.5-0.6,0.5c-0.1,0-0.1,0-0.2,0C21.3,33.1,21.4,32.7,21.5,32.5z"/>
</g>
</svg>
