<svg xmlns="http://www.w3.org/2000/svg" xmlns:xlink="http://www.w3.org/1999/xlink" viewBox="0 0 68 122"><style><![CDATA[.X{fill:#ffc19f}.Y{fill:#ff3746}.Z{fill:#db2138}.a{fill:#f4b18c}]]></style><g class="X"><path d="M53.4 69.4c-3.8-3.6-8.3-8.7-9.5-11.1-2.3-4.3 4.2-7.1 6.4-3.6 1.7 2.7 4.2 7.7 6.4 11.8.4.7-2.7 3.5-3.3 2.9z"/><path d="M60.7 67.7C58.9 66.3 58 66 56.8 66c-1.7 0-2.9 1.3-3.2 2.8-.2.8 0 2.1 1.3 4.5 1.1-.8 4.7-1.4 6.4-2.9-1-.7-.6-2-.6-2.7z"/></g><path d="M56.3 68.2c-2 .8-2.3 2.9-1.4 4.4.3-.3 4-.4 5.1-1.4.7-1.3-1-2.1-.6-2.5-1 .5-2.2.5-3.1-.5z" fill="#e2a285"/><g class="X"><path d="M59.3 70.7c-.6-1-1.5-1.5-1.9-1.2s-.3 1.3.4 2.3c.6 1 1.5 1.5 1.9 1.2s.2-1.3-.4-2.3z"/><path d="M60.7 69.7c-.7-.9-1.6-1.3-2-.9s-.1 1.4.6 2.2c.7.9 1.6 1.3 2 .9s.1-1.4-.6-2.2zM58 71.8c-.5-1-1.3-1.7-1.8-1.4-.5.2-.5 1.3 0 2.3s1.3 1.7 1.8 1.4.5-1.3 0-2.3z"/><path d="M56.4 72.1c-.2-1-.8-1.8-1.4-1.7-.5.1-.7 1-.5 2s.8 1.8 1.4 1.7.7-.9.5-2z"/></g><path d="M59 71.2c-.6-.3-1.2-1-.8-1.9.4-.8 1.5-1.6 2.1-1.3s.7 1.2.3 2.2c-.3.9-1 1.3-1.6 1z" opacity=".2" fill="#541000"/><path d="M59 71.2c-.5-.3-.6-1.3-.2-2.2.4-1 1.2-1.6 1.7-1.3s.6 1.3.2 2.2c-.4 1-1.1 1.5-1.7 1.3z" class="X"/><path d="M47.4 34.5c2.5-6.7 2.9-11.3-.7-25.1L19.1 11c-2.8 11.1-2.5 17.4-2.1 21.4.1-1.9-.5-5.9 2-15.6-2.2 12.2-2.2 16.1.3 18.1-1.6-2.6-.4-9.9-.1-10.8.1 2.6-.2 7.6 1.2 11.4.8.6 4.4 1.7 5.5 2 3.2.9 15.2-.8 18.9-1.7.2-.3.5-7.6.5-8.7.2.3.2 8.3.3 8.6 1.8-2.3 3.6-9 2-19 2.2 8 1.2 12.3-.2 17.8z"/><path d="M24 86.8c.1 2 .3 2.6.6 2.8-2.4 4.5 1.2 17.3 2.7 25.4 2-.2 3.4-.2 5.5-.4.3-3.7.4-9.5.4-13.6 0-3.6-.5-10.2-.7-14.2H24z" class="X"/><path d="M34.1 116.2c-.1-.3-.3-2.5-.5-2.9-.1-.3-7.4.7-7.3 1.2l1 7.3s11.5.6 13.2-1.4c-.3-2.8-2.4-3.3-6.4-4.2z" fill="#754c24"/><path d="M27.1 121.1c0 .3.1.5.1.7 0 0 11.7.8 13.2-1.2.1-.1.1-.2 0-.3-3 1.1-10.4.9-13.3.8z" fill="#b3b3b3"/><path d="M33.5 113.3c-.1-.3-7.4.7-7.3 1.2 0 .4.1 1.2.3 2.1l7.3-1.6c0-.7-.2-1.5-.3-1.7z" opacity=".22" fill="#1c000b"/><path d="M33.8 113.1c-.1-.2-8.1.8-8 1.2 0 .3.1.9.2 1.7l8.1-1c0-.7-.1-1.7-.3-1.9z" fill="#e6e6e6"/><path d="M35.1 116.4c.1 0 .2-.1.2-.2s-.1-.2-.2-.2c-.7 0-1.5.4-1.9 1.1 0 .1 0 .2.1.2h.1c.1 0 .1 0 .1-.1.4-.4 1-.8 1.6-.8zm1 .3c.1 0 .2-.1.2-.2s-.1-.2-.2-.2c-.8 0-1.4.4-1.9 1.1-.1.1 0 .2 0 .2h.1s.1 0 .1-.1c.6-.6 1.3-.8 1.7-.8zm1.1 0c-.7 0-1.5.4-2 1.1-.1.1 0 .2 0 .2h.1s.1 0 .1-.1c.4-.6 1.1-.9 1.7-.9.1 0 .2-.1.2-.2s-.1-.1-.1-.1z" fill="#e9edf4"/><path d="M45.8 95.9c-5.8 4.4-8.7 6.5-11.7 8.6-3.4 2.3-6.8 4.5-10 6.4l-3.9-4.7c5.9-6 12.2-13.2 20.4-15.9l5.2 5.6z" class="X"/><path d="M23.3 112.7c.2-.3 1.9-1.7 2.1-2.1.1-.3-4.8-5.6-5.2-5.3l-5.4 4.9s6.1 9.8 8.6 10.1c2.3-1.8 1.5-3.8-.1-7.6z" fill="#754c24"/><path d="M15.4 109.8c-.2.2-.4.3-.5.5 0 0 6 10 8.5 10.2.1 0 .2-.1.2-.2-2.7-1.9-6.7-8.1-8.2-10.5z" fill="#b3b3b3"/><path d="M25.4 110.6c.1-.3-4.8-5.6-5.2-5.3-.3.2-.9.8-1.6 1.4l5.5 5.1c.6-.4 1.2-1 1.3-1.2z" opacity=".22" fill="#1c000b"/><path d="M25.8 110.7c.1-.2-5.2-6.2-5.5-5.9l-1.2 1.1 5.5 6.1 1.2-1.3z" fill="#e6e6e6"/><path d="M23.8 113.7c.1.1.2.1.2.1.1 0 .1-.2.1-.2a2.15 2.15 0 0 0-2-.9c-.1 0-.2.1-.2.2v.1l.1.1c.8-.2 1.5.1 1.8.6zm.3 1c.1.1.2.1.2 0 .1-.1.1-.2 0-.2-.4-.6-1.2-.9-1.9-1-.1 0-.2.1-.2.2v.1l.1.1c1.1 0 1.6.5 1.8.8zm.6.8c-.4-.6-1.2-1-2-1-.1 0-.2.1-.2.2v.1l.1.1c.7 0 1.4.4 1.7.9.1.1.2.1.2 0 .2-.1.3-.2.2-.3z" fill="#e9edf4"/><g class="X"><path d="M47.3 93.7c-.4 1.8-2.1 3-3.9 2.7-1.8-.4-4-2-3.7-3.9.4-1.8 3.1-3.1 4.9-2.7 1.9.3 3.1 2.1 2.7 3.9z"/><path d="M37 84.8l3 9.1 7.3-.3s.3-5.1.4-10.1L37 84.8zM24.4 41.6C23.3 46.8 21 52.7 19.6 55c-2.6 4.3-8.1.7-6.2-3 1.4-2.9 4.1-7.1 6.5-11.2.3-.6 4.7 0 4.5.8z"/></g><path d="M50.6 86.3c-3.8 1.1-9.1 2.3-15.6 2.4-7 .1-12.8-1.2-16.8-2.4.4-3.6.9-7.3 1.5-11.3.7-4.1 1.5-8 2.3-11.6h24.6c.9 3.7 1.7 7.6 2.4 11.8.8 3.9 1.3 7.6 1.6 11.1z" fill="#2e3192"/><defs><path id="A" d="M50.6 86.3c-3.8 1.1-9.1 2.3-15.6 2.4-7 .1-12.8-1.2-16.8-2.4l3.9-22.9h24.6l3.9 22.9z"/></defs><clipPath id="B"><use xlink:href="#A"/></clipPath><g clip-path="url(#B)" fill="#262d7f"><path d="M27.1 89.5l2.6-19.7-1.1 19.4zm10.6 0l-.2-19.8L39.2 89zm11-1.3l-2.9-19.6 4.3 19z"/></g><path d="M27.3 88.4c-.9 0-2.1 0-3.5-.3-1.3-.2-2.3-.6-3.2-.9 1.1-6.5 2.8-12.9 3.9-19.4l5.5 1-2.7 19.6zm10.4.5c-.9.2-2.1.3-3.5.3-1.3 0-2.4-.2-3.3-.4.1-6.6.8-13.2.9-19.8l5.6.1.3 19.8zm11.4-1.7c-.9.3-2 .7-3.4.9-1.3.2-2.4.2-3.3.2-1.1-6.5-1.7-13.1-2.8-19.6l5.5-.9 4 19.4z" fill="#2e3192"/><path d="M20.6 87.2s.1-1.2.5-3.1l.7-3.1.8-3.6 1.4-6.7.7-3s-.1 1.2-.5 3.1l-1.4 6.7-.8 3.6-.6 3.1-.8 3zM31 88.8s-.1-1.2 0-3.1c0-.9.1-2 .2-3.2l.2-3.6.3-6.8.2-3.1v3.1c0 1.9-.2 4.3-.4 6.8l-.2 3.6-.1 3.2-.2 3.1zm11.5-.5l-.6-3c-.2-.9-.3-2-.4-3.2s-.3-2.4-.5-3.6l-.9-6.7-.4-3.1.6 3 .9 6.8c.1 1.2.3 2.5.5 3.6l.5 3.1.3 3.1zm-24.2-2l.4-3.6.5-3.7.3-2.1.3-2.2 1.5-7.8.8-3.5-.6 3.6-1.6 7.8-.6 4.2c-.1 1.4-.3 2.6-.5 3.7l-.5 3.6zm28.5-22.9l.9 3.5c.3 1.1.5 2.3.7 3.7l.8 4.2.6 4.2.5 3.7.4 3.6-.6-3.6-.5-3.7-.3-2.1c-.1-.7-.1-1.4-.3-2.1l-.8-4.2-.8-3.6-.6-3.6z" fill="#3942a8"/><path d="M24.1 61.3h20.2v1.6H24.1z" fill="#3a4ca5"/><path d="M46.9 41.2c1.7 5 3.3 11.6 3.3 14.2 0 4.9-7 4.3-7.4.2-.3-3.1-.2-8-.2-12.7 0-.7 4-2.5 4.3-1.7z" class="X"/><path d="M40.7 50.9c.7-4.4 5.6-15.3 5.7-15.5 1.9 1 2.8 1.4 3.1 2.4.6 2.1.6 5.1 1.2 13.5-.8.5-9.8.8-10-.4z" class="Y"/><path d="M50.7 51.3c-.8.5-9.9.7-10-.4 0-.2.1-.4.1-.6 1.4.9 9.1.6 9.8.2l.1.8z" class="Z"/><g class="Y"><path d="M20.3 67.7c7.4 5.4 18.7 5.1 28.4 1-1.6-5.4-4.5-20.9-1.4-32.9-6.4-2.3-11.6-3.8-19.5-2-5.3 8.9-6.7 20.6-7.5 33.9z"/><path d="M47 35.7c-1.1 4.7-1.3 9.8-1 14.6-.2-4.8.1-9.9 1.3-14.5-.1 0-.2-.1-.3-.1z"/></g><path d="M48.5 67.7c-9.6 4-20.7 4.3-28.1-1 0 .3 0 .6-.1 1 7.4 5.4 18.7 5.1 28.4 1-.1-.3-.1-.7-.2-1z" class="Z"/><path d="M28.1 33.8c.1 0 .2 0 .3-.1-3.6.2-7.7 1.6-8.6 2-1.5 1.5-3.3 6.8-5.9 11.5 2 1.2 5 2.5 8.1 3.5 1.7-6.4 3.1-12 6.1-16.9z" class="Y"/><path d="M14.5 46.3c-.2.3-.3.7-.5 1 2 1.2 5 2.5 8.1 3.5l.3-1.1c-3-1-5.9-2.3-7.9-3.4z" class="Z"/><path d="M28.2 33.8c.1 0 .2 0 .3-.1-.1 0-.2.1-.3.1z" class="Y"/><path d="M35 37.1h-.3c-1.8 0-3.2-1.4-3.2-3.2v-5h6.8v5c-.1 1.8-1.6 3.2-3.3 3.2z" fill="#fcb490"/><g class="X"><path d="M28.6 49.3c-3.6 3.2-8.6 6.9-10.8 7.8-4.1 1.7-6.1-4.4-2.8-6.1 2.5-1.3 6.7-3 10.6-4.6.6-.4 3.5 2.4 3 2.9z"/><path d="M31.9 42.2c0-.2-1.2-1.8-3.6-1.1-1.2.4-2.5 2.4-2.6 5.3 0 .3.5 0 .9-.1s5.2-2.5 4.6-2.4c-.6 0-1.7.6-1.3-.5.4-1.3 1.9-.6 2-1.2z"/></g><path d="M30.7 42.1c.3.5-2.7 2.5-3 2s.1-1.1.8-1.6c.9-.6 2-.9 2.2-.4z" fill="#e2a285"/><path d="M26.6 43.9c1-.6 3.2-.2 2.9-2.9 0-.5 1.7-.5 2 .3.1.4.5.1.9.9.2.5.2.9.4 1 .8.6.2 1.2.5 1.4.5.4.3 1 .2 1.3-.4.9-2.1 1.9-4 3.1-1.2.8-3.4-.8-3.5-1.3-.6-1.8-.1-3.4.6-3.8z" class="X"/><path d="M19 12c-.7 9.9 6.9 16.2 15.2 15.8S48.3 20.2 47 10.6c-.8-5.3-5.8-9.6-13.7-9.1C24.8 1.9 19.5 4.3 19 12z"/><path d="M47.8 20.8c0 1.9-1.5 3.5-3 3.7s-2.2-1.2-2.5-3 .7-3.4 2.2-3.6c2-.2 3.2 1.1 3.3 2.9z" class="X"/><path d="M45.1 20h.3c1 .1 1.5.9 1.3 1.8-.2 1-1.1 1.6-1.9 1.5-.1 0-.2 0-.2-.1l.5-3.2z" class="a"/><path d="M22.4 9.7c-.7 1.7 1.7 16.5 3.5 18.4 1.9 2.1 9.1 3.6 10.6 3.5 1.6-.1 6.5-2.3 7.8-4.8 1.5-2.9 2.1-15.6 1.5-17.2-2-5.2-6.6-5.1-12.6-4.9-5.7.4-9.1.6-10.8 5z" class="X"/><g fill="#eaa583"><path d="M23.2 10.4c-.6 1.2 0 3.4-.1 4.2.2-.1.4-.3.7-.4s.5-.2.7-.3c.1-.8 1.1-2.8 1.3-3.1-.1.4-.1 1.9-.1 2.7l2.8-.9c1.1-.3 2.6-.4 3.5-.5-.2-1-.1-2-.1-2 .2.2.4.5.6.8.2.4.4.7.5 1l3.7-.2c1.5 0 2.7.3 3.8.5l-.3-3.5H25.7c-.3 1.1-2 .7-2.5 1.7zm22.1-.3l-2-1.3h-2.8l.6 3.6c.3 0 .6 0 1 .1.3.1.6.1.8.2l.1-2.2c.2.1.7 1.7.9 2.5.3.1.7.2 1.1.4s.7.4.9.6l-.6-3.9z"/><path d="M40.2 8.7h.3c-.1-.8-.3-1.3-.4-1.5 0 .1.1.6.1 1.5z"/></g><path d="M21.5 12.2l3.7-2.6c-.6 1.3-1.2 3-1.6 5-.3 1.4-.4 2.8-.5 3.9l-2.7-5.6 1.1-.7zm25.2 4.4l-1 1.4c.1-1 .2-2.2 0-3.6-.1-1.1-.4-2.1-.6-2.9.5 0 1.1-.1 1.6-.1v5.2z"/><path d="M34.9 23.7c.1 0 .1-.1.1-.1.1-.5.4-.8.9-.8s.9.3 1 .7c0 .1.1.1.2.1s.1-.1.1-.2c-.1-.6-.6-1-1.3-1-.6 0-1.1.5-1.2 1.1.1.1.1.2.2.2h0z" class="a"/><path d="M26.7 16.2c.1 0 .2 0 .3-.1.9-1 2.7-1.2 4.2-.6.2.1.4 0 .5-.3.1-.2 0-.5-.2-.6-1.7-.7-3.8-.4-5 .8-.2.2-.2.4 0 .6 0 .1.1.2.2.2zm16.8-.8c-.1 0-.2 0-.3-.1-1.1-.8-2.9-.7-4.2.1-.2.1-.4 0-.5-.2s-.1-.5.1-.6c1.6-1 3.7-1 5-.1.2.1.2.4.1.6 0 .2-.1.2-.2.3z"/><path d="M20.1 22c.4 1.9 2.3 3.1 3.8 2.9s1.9-1.7 1.8-3.5-1.5-3.2-3-3c-2 .3-2.9 1.8-2.6 3.6z" class="X"/><path d="M38.8 18.5c-.8 1.3-.6 2.8.1 3.3 1.1.8 3.6 1 4.5-.3.9-1.2.4-3.3-1.1-4.2-1.4-.7-2.8-.1-3.5 1.2z" fill="#f9feff"/><path d="M43.4 18c-1.2-2-3.9-1.2-4.6.6.8-1.3 2.2-1.8 3.4-1.1.7.4 1.3 1.2 1.5 2.1.1.7 0 1.5-.3 2 .3-.3.9-2.1 0-3.6zm-4.3 1.4c-.3.9.1 2 .9 2.3s1.7-.1 2-1.1c.3-.9-.1-2-.9-2.3s-1.7.2-2 1.1z"/><path d="M39.3 19.2c-.1.3 0 .5.3.6.2.1.5 0 .6-.3s0-.5-.3-.6-.6.1-.6.3z" fill="#fefffe"/><path d="M32.5 18.7c.9 1.3.8 2.8.1 3.3-1.2.9-4 1.2-5.1 0-1-1.1-.6-3.3 1.1-4.2 1.4-.9 3-.4 3.9.9z" fill="#f9feff"/><path d="M27.2 18.4c1.3-2.1 4.4-1.4 5.3.3a3 3 0 0 0-4-.9c-.8.5-1.4 1.3-1.5 2.2-.1.7.1 1.5.5 2-.5-.2-1.2-2-.3-3.6z"/><circle cx="29.9" cy="20.3" r="1.8"/><circle cx="28.9" cy="19.7" r=".5" fill="#fefffe"/><path d="M23.1 20h-.3c-1 .1-1.5.9-1.3 1.8.2 1 1.1 1.6 1.9 1.5.1 0 .2 0 .2-.1-.2-.9-.3-2-.5-3.2z" class="a"/><path d="M22.2 5.7L30 3.2c.4 0 8.8.7 8.8.7s2 .7 2.3.6c.4-.1 2.8 1.3 2.8 1.3l1.6 1.8.8 2v2.3l-1.2.4-1.7-2.8-3.1-3.1-3.1.3c-1 .2-6.2.2-6.3.3-.2.1-5.6 1.4-5.6 1.4l-3.4 1.9.3-4.6z"/><path d="M42.9 6.5c-2.2-1.1-6.2-1.5-9.8-1.3-3.9.2-7.9.9-10 2.5-1.4 1-2.7 8.3-2 7.6s2-1.4 3.4-1.9c.1-.8 1.1-2.8 1.3-3.1-.1.4-.1 1.9-.1 2.7 1.8-.6 4-1.1 6-1.3h.3c-.1-.4-.1-.7-.1-.9 0-.5 0-.9.1-1 0 0 .9.5 1.1 1.9.3 0 .6 0 .9-.1 2.8-.1 4.9-.1 6.6.2l-.3-3.2c.3.5.8 2.1.9 3.3.6.1 1.2.3 1.7.4 0-.7.1-2 .1-2.2.2.1.7 1.8.9 2.5.9.4 1.7.8 2.5 1.3.9.5-1.7-6.6-3.5-7.4zm-3.4 19.4c.3 1.4-1.7 3.3-3.7 3.3-1.9 0-3.3-1.6-3.3-3 .1-.8 1.4-.6 3.3-.7s3.5-.4 3.7.4z"/><path d="M36 27.9c-.9 0-1.6.3-2 .7.5.3 1.2.6 2 .6s1.6-.2 2.1-.8c-.3-.4-1.3-.5-2.1-.5z" fill="#b71521"/><path d="M38.5 25.4c-.7-.2-1.7 0-2.6.1-1.1.1-1.9 0-2.5.1.3.6 1.2.9 2.4.8 1.4 0 2.6-.4 2.7-1z" fill="#fff"/></svg>