<?xml version="1.0" encoding="utf-8"?>
<!-- Generator: Adobe Illustrator 19.1.0, SVG Export Plug-In . SVG Version: 6.00 Build 0)  -->
<svg version="1.1" id="Layer_1" xmlns="http://www.w3.org/2000/svg" xmlns:xlink="http://www.w3.org/1999/xlink" x="0px" y="0px"
	 width="115px" height="129px" viewBox="0 0 115 129" style="enable-background:new 0 0 115 129;" xml:space="preserve">
<style type="text/css">
	.st0{fill:#C1E0D7;}
	.st1{fill:#E8F5F1;}
	.st2{opacity:0.5;}
	.st3{clip-path:url(#SVGID_2_);fill:#E8F5F1;}
	.st4{fill:#9D9FA2;}
	.st5{fill:#BDBEC0;}
	.st6{fill:#F4AF1C;}
	.st7{fill:#DCA027;}
	.st8{fill:#C7922C;}
	.st9{opacity:0.1;}
	.st10{clip-path:url(#SVGID_4_);fill:#010101;}
	.st11{fill:#83CDEB;}
	.st12{fill:#0BAEDA;}
	.st13{fill:#EA6637;}
	.st14{fill:#D55C31;}
	.st15{opacity:0.3;}
	.st16{clip-path:url(#SVGID_6_);fill:#F7C19C;}
	.st17{clip-path:url(#SVGID_8_);fill:#F7C19C;}
	.st18{clip-path:url(#SVGID_10_);fill:#F7C19C;}
	.st19{clip-path:url(#SVGID_12_);fill:#F7C19C;}
	.st20{fill:#E7E7E7;}
	.st21{clip-path:url(#SVGID_14_);fill:#010101;}
	.st22{fill:#0A78BC;}
	.st23{clip-path:url(#SVGID_16_);fill:#075B8F;}
	.st24{clip-path:url(#SVGID_18_);fill:#FFFFFF;}
	.st25{opacity:0.33;}
	.st26{clip-path:url(#SVGID_20_);fill:#0A78BC;}
	.st27{clip-path:url(#SVGID_22_);fill:#010101;}
	.st28{opacity:0.12;}
	.st29{clip-path:url(#SVGID_24_);fill:#010101;}
	.st30{clip-path:url(#SVGID_26_);fill:#010101;}
	.st31{fill:#A2CAEC;}
	.st32{clip-path:url(#SVGID_28_);fill:#0A78BC;}
	.st33{opacity:0.14;}
	.st34{clip-path:url(#SVGID_30_);fill:#0A78BC;}
	.st35{clip-path:url(#SVGID_32_);fill:#0A78BC;}
	.st36{fill:#F5AE95;}
	.st37{clip-path:url(#SVGID_34_);fill:#9D9FA2;}
	.st38{fill:#3AB39F;}
	.st39{opacity:0.24;}
	.st40{clip-path:url(#SVGID_36_);fill:#3AB39F;}
	.st41{clip-path:url(#SVGID_38_);fill:#E8F5F1;}
	.st42{fill:#C72A27;}
	.st43{fill:#FEDDA6;}
	.st44{clip-path:url(#SVGID_40_);fill:#010101;}
	.st45{fill:#D62D27;}
	.st46{fill:#F2C3B3;}
	.st47{opacity:0.41;}
	.st48{clip-path:url(#SVGID_42_);fill:#FFFFFF;}
	.st49{clip-path:url(#SVGID_44_);fill:#FFFFFF;}
	.st50{opacity:0.19;}
	.st51{clip-path:url(#SVGID_46_);fill:#FFFFFF;}
	.st52{fill:#939598;}
	.st53{fill:#075B8F;}
	.st54{clip-path:url(#SVGID_48_);fill:#075B8F;}
	.st55{clip-path:url(#SVGID_48_);fill:#EA6637;}
	.st56{fill:none;stroke:#D62D27;stroke-width:0.4;stroke-miterlimit:10;}
	.st57{fill:none;stroke:#D62D27;stroke-width:0.01;stroke-miterlimit:10;}
	.st58{fill:none;stroke:#D62D27;stroke-width:0.3;stroke-miterlimit:10;}
	.st59{opacity:0.64;}
	.st60{clip-path:url(#SVGID_50_);fill:#CAE1F1;}
	.st61{fill:#FFFFFF;}
</style>
<g>
	<g>
		<path class="st0" d="M54.49,24.32c0,0-3.8-3.96-8.23-5.07c-4.43-1.11-7.16,0.81-6.9,3.28c0.26,2.47,0.34,7.23,7.07,6.68
			c6.73-0.55,7.26-0.51,8.06-1.02C55.29,27.68,54.49,24.32,54.49,24.32"/>
		<path class="st1" d="M52.23,26.08c-0.04,0-0.05,0-0.07-0.01l-0.06-0.01l-0.11-0.02l-0.23-0.03l-0.46-0.06
			c-0.3-0.04-0.61-0.08-0.92-0.11c-0.61-0.07-1.22-0.13-1.84-0.16c-0.61-0.04-1.23-0.05-1.83-0.02c-0.3,0.02-0.61,0.05-0.9,0.1
			c-0.3,0.05-0.59,0.12-0.86,0.24c-0.13,0.06-0.25,0.13-0.37,0.22c-0.12,0.09-0.22,0.19-0.32,0.3c-0.19,0.22-0.31,0.49-0.28,0.77
			c0.03,0.27,0.21,0.54,0.46,0.67c0.06,0.03,0.13,0.05,0.2,0.06c0.07,0,0.13-0.01,0.18-0.05c0.05-0.04,0.08-0.09,0.11-0.16
			c0.02-0.07,0.04-0.14,0.06-0.22c0.06-0.3,0.1-0.6,0.14-0.91c0.03-0.3,0.06-0.61,0.07-0.92c0.04-0.61,0.04-1.23,0-1.84
			c-0.02-0.31-0.05-0.61-0.09-0.91c-0.05-0.3-0.11-0.6-0.2-0.88c-0.05-0.14-0.1-0.28-0.17-0.41c-0.07-0.13-0.16-0.24-0.26-0.31
			c-0.05-0.04-0.11-0.06-0.17-0.08c-0.02-0.01-0.07-0.01-0.11-0.02l-0.11-0.02c-0.15-0.02-0.3-0.05-0.45-0.07
			c-0.15-0.02-0.3-0.04-0.43-0.03c-0.06,0-0.13,0.02-0.13,0.03c0,0,0,0-0.01,0.02c0,0.02,0,0.04,0,0.07
			c0.02,0.12,0.09,0.27,0.15,0.4c0.01,0.02,0.06,0.07,0.11,0.11c0.06,0.04,0.12,0.08,0.18,0.11c0.26,0.14,0.54,0.26,0.83,0.37
			c0.28,0.11,0.57,0.22,0.86,0.32c2.32,0.81,4.69,1.5,7.05,2.21l0.04,0.01l0,0.04L52.23,26.08z M52.21,26.05l-0.04-1.18l0.04,0.05
			c-1.2-0.29-2.4-0.59-3.59-0.93c-0.59-0.17-1.19-0.33-1.78-0.52c-0.59-0.18-1.18-0.37-1.76-0.58c-0.29-0.11-0.58-0.21-0.87-0.33
			c-0.29-0.12-0.58-0.24-0.86-0.4c-0.07-0.04-0.14-0.08-0.21-0.13c-0.04-0.03-0.07-0.05-0.1-0.09c-0.03-0.03-0.07-0.07-0.1-0.13
			c-0.06-0.15-0.12-0.29-0.16-0.47c-0.01-0.05-0.01-0.1,0-0.16c0.01-0.06,0.04-0.13,0.09-0.18c0.05-0.05,0.11-0.07,0.16-0.08
			c0.05-0.01,0.1-0.02,0.14-0.02c0.17,0,0.33,0.02,0.48,0.04c0.16,0.02,0.31,0.05,0.46,0.08l0.11,0.02
			c0.04,0.01,0.07,0.01,0.12,0.03c0.09,0.02,0.17,0.07,0.25,0.12c0.14,0.11,0.24,0.25,0.32,0.4c0.08,0.15,0.13,0.3,0.17,0.45
			c0.09,0.31,0.14,0.62,0.17,0.93c0.03,0.31,0.05,0.62,0.06,0.93c0.02,0.62-0.01,1.24-0.04,1.85c-0.04,0.62-0.09,1.23-0.2,1.84
			c-0.01,0.08-0.03,0.15-0.05,0.23C45,27.91,44.96,28,44.88,28.05c-0.07,0.06-0.17,0.08-0.25,0.08c-0.09,0-0.17-0.03-0.25-0.06
			c-0.31-0.14-0.53-0.44-0.58-0.77c-0.03-0.17,0-0.34,0.05-0.5c0.06-0.16,0.14-0.31,0.24-0.43c0.1-0.13,0.21-0.25,0.34-0.35
			c0.06-0.06,0.13-0.1,0.2-0.15c0.07-0.05,0.14-0.08,0.21-0.12c0.3-0.14,0.61-0.21,0.92-0.27c0.31-0.05,0.63-0.08,0.94-0.09
			c0.62-0.02,1.25,0,1.86,0.05c0.62,0.05,1.23,0.13,1.84,0.23c0.3,0.05,0.61,0.11,0.91,0.17l0.45,0.1c0.08,0.01,0.15,0.03,0.22,0.05
			l0.11,0.03l0.06,0.01C52.18,26.04,52.21,26.04,52.21,26.05"/>
		<g class="st2">
			<g>
				<defs>
					<rect id="SVGID_1_" x="40.02" y="19.49" width="2.89" height="3.84"/>
				</defs>
				<clipPath id="SVGID_2_">
					<use xlink:href="#SVGID_1_"  style="overflow:visible;"/>
				</clipPath>
				<path class="st3" d="M40.86,23.33c0,0-0.43-3.08,2.05-3.6c0,0-0.4-0.52-1.44,0c-1.04,0.52-1.36,0.75-1.43,1.46
					C39.98,21.9,40.05,23.26,40.86,23.33"/>
			</g>
		</g>
		<path class="st4" d="M77.39,0.49c0,0-0.06,2.55,3.52,3.36c3.58,0.81,5.42-0.84,5.68-1.54"/>
		<path class="st5" d="M34.67,29.69c0,0-1.33,12.2,0.61,16.69c0,0,0.95,1.22-1.05,2.14c0,0-3.23-9.51-2.52-18.83
			C31.72,29.69,33.45,26.87,34.67,29.69"/>
		<path class="st6" d="M29.16,28.77c2.04,1.09,5.28,1.53,8.46-0.33c0,0-2.24-7.23-1.63-8.97c0,0,4.69-3.58,5.51-5.42
			c0.82-1.84,0.82-4.8,0-4.8c-0.82,0-3.4,7.39-5.07,7.47c-1.67,0.08-3.18-1.96-2.88-3.08c0.3-1.12,0.72-7.95,0-9.18
			c-0.72-1.22-1.64-1.94-1.95,1.84c-0.31,3.77,1.02,7.34,0,7.55l-1.02,0.2c0,0-2.86-5.41-2.96-8.16C27.53,3.13,26,5.17,26.1,6.19
			c0.1,1.02,0.82,7.66,2.86,9.24c0,0-4.9-2.2-6.22-7.3c0,0-1.63-1.22-1.22,1.43c0.41,2.65,3.26,6.27,5.51,7.16
			c2.24,0.89-1.53,0.64-3.06,0c-1.53-0.63-3.88-3.39-4.49-3.29c-0.61,0.1-0.71,0.82,0,1.99c0.71,1.17,2.55,4.14,2.86,4.03
			c0.31-0.11,3.37-0.93,4.08-0.52c0.71,0.41,0.51,2.75,3.16,4.59L29.16,28.77z"/>
		<path class="st7" d="M41.5,9.23c-0.81,0-3.4,7.39-5.06,7.47c-1.67,0.08-3.18-1.96-2.88-3.08c0.29-1.12,0.72-7.96,0-9.18
			c-0.15-0.26-0.32-0.49-0.48-0.67v0c-1.08,0.36-0.23,8.53-0.42,9.28c-0.18,0.76-0.88,0.68-0.88,0.68v0
			c-0.05,0.05-0.11,0.08-0.18,0.09l-1.02,0.2c0,0-2.86-5.41-2.96-8.16c-0.04-1.02-0.27-1.38-0.54-1.38
			c-1.36,2.12,1.59,8.17,2.04,9.08c0.45,0.91-0.17,1.85-0.17,1.85s-4.9-2.2-6.22-7.3c0,0-0.38-0.28-0.73-0.28
			c-0.29,4.14,4.81,7.19,5.49,7.95c0.68,0.77,0.2,1.3,0.2,1.3c0.25,0.4-2.49,0.14-3.74-0.38c-1.08-0.45-2.57-1.95-3.57-2.76
			c-0.56-0.15-0.92-0.16-0.92,0.05c0,1.01,3.22,4.7,3.22,4.7c0.81-0.38,6.21-0.91,5.58,0.5c-0.64,1.41,3.22,4.38,3.22,4.38
			c-0.27,1.57,0.72,6.07,0.72,6.08c1.66,0.16,3.55-0.14,5.42-1.23c0,0-2.24-7.23-1.63-8.98c0,0,4.69-3.58,5.51-5.41
			C42.31,12.19,42.31,9.23,41.5,9.23"/>
		<path class="st8" d="M27.29,17.73c0.39-0.58,0.8-1.15,1.27-1.68l0.18-0.2l0.19-0.19c0.12-0.13,0.25-0.25,0.39-0.37
			c0.27-0.24,0.55-0.46,0.84-0.66c0.14-0.11,0.3-0.2,0.45-0.3c0.08-0.05,0.15-0.1,0.23-0.14l0.23-0.13l0.24-0.13
			c0.08-0.04,0.16-0.07,0.25-0.11c0.17-0.07,0.33-0.14,0.5-0.19c0.17-0.05,0.35-0.1,0.52-0.15c0.17-0.04,0.35-0.07,0.53-0.1
			c0.09-0.02,0.18-0.03,0.26-0.04l0.27-0.02c0.18-0.01,0.36-0.02,0.54-0.02l0.01,0.06c-0.16,0.08-0.32,0.15-0.48,0.22l-0.24,0.1
			c-0.08,0.04-0.16,0.07-0.24,0.1c-0.16,0.07-0.32,0.13-0.48,0.2c-0.16,0.07-0.31,0.14-0.47,0.2c-0.08,0.03-0.16,0.07-0.23,0.1
			c-0.08,0.04-0.15,0.07-0.23,0.1c-0.08,0.03-0.16,0.06-0.24,0.1l-0.23,0.1l-0.23,0.1c-0.08,0.03-0.16,0.07-0.23,0.11
			c-0.15,0.08-0.3,0.15-0.45,0.24c-0.29,0.17-0.58,0.36-0.85,0.57c-0.14,0.1-0.28,0.2-0.4,0.32l-0.2,0.17l-0.19,0.17
			c-0.26,0.23-0.5,0.48-0.73,0.73c-0.24,0.26-0.46,0.52-0.7,0.78L27.29,17.73z"/>
		<path class="st8" d="M35.23,14.97c0.16,0.26,0.28,0.55,0.38,0.83c0.05,0.14,0.1,0.29,0.15,0.43c0.04,0.14,0.09,0.29,0.13,0.44
			c0.04,0.14,0.09,0.29,0.13,0.43c0.04,0.15,0.07,0.29,0.07,0.45c0,0.15,0,0.3-0.02,0.46c-0.02,0.15-0.05,0.31-0.12,0.47l-0.06,0.01
			c-0.1-0.14-0.17-0.28-0.23-0.42c-0.06-0.14-0.11-0.28-0.15-0.42c-0.04-0.14-0.06-0.29-0.07-0.44c-0.01-0.15-0.01-0.3-0.02-0.45
			c-0.02-0.15-0.03-0.29-0.05-0.44c-0.02-0.15-0.03-0.3-0.05-0.44c-0.03-0.3-0.08-0.59-0.15-0.88L35.23,14.97z"/>
		<path class="st5" d="M79.11,82.31c0,0-3.51,7.92-3.4,13.46c0.1,5.54,1.21-3.35,3.82-7.93c2.62-4.59,3.25-4.66,2.4-5.57
			C81.08,81.36,79.75,80.76,79.11,82.31"/>
		<g class="st9">
			<g>
				<defs>
					<rect id="SVGID_3_" x="76.77" y="81.32" width="5.58" height="14.05"/>
				</defs>
				<clipPath id="SVGID_4_">
					<use xlink:href="#SVGID_3_"  style="overflow:visible;"/>
				</clipPath>
				<path class="st10" d="M81.99,82.13c-0.33-0.35-0.73-0.65-1.13-0.8c-0.27,0.13-0.51,0.4-0.69,0.85c0,0-3.4,7.68-3.41,13.21
					c0.62-2.11,1.54-5.42,2.83-7.68C82.21,83.11,82.85,83.03,81.99,82.13"/>
			</g>
		</g>
		<path class="st11" d="M80.81,114.86c0,0,2.43,10.29-8.6,11.67h-7.18v2.13h16.58c0,0,7.78-3.87,2.48-14.8L80.81,114.86z"/>
		<path class="st12" d="M63.65,126.37h17.27c0,0,6.28-1.08,3.12-12.01l0.12-1.14c0,0,6.94,10.77-2.55,15.44H63.65V126.37"/>
		<path class="st12" d="M63.65,126.34c0.72-0.03,1.44-0.04,2.16-0.06c0.72-0.02,1.44-0.04,2.16-0.05l2.16-0.04l2.16-0.03l2.16-0.02
			l2.16-0.01c1.44-0.01,2.88-0.01,4.32,0.01l-0.03,0c0.11-0.02,0.25-0.06,0.37-0.1c0.13-0.04,0.25-0.09,0.37-0.14
			c0.24-0.11,0.48-0.24,0.7-0.39c0.45-0.3,0.85-0.68,1.19-1.12c0.34-0.44,0.6-0.94,0.8-1.47c0.2-0.54,0.34-1.1,0.42-1.67l0.05-0.43
			l0.03-0.43c0-0.07,0.01-0.14,0.01-0.22l0-0.22l0-0.44l-0.02-0.44c-0.01-0.15-0.01-0.29-0.03-0.43l-0.04-0.44
			c-0.01-0.07-0.01-0.14-0.02-0.22l-0.03-0.22c-0.15-1.15-0.42-2.29-0.75-3.4c0-0.01-0.01-0.02,0-0.03v0l0.11-1.14
			c0-0.05,0.05-0.1,0.1-0.09c0.03,0,0.06,0.02,0.07,0.04c0.41,0.64,0.75,1.3,1.08,1.99c0.32,0.69,0.6,1.39,0.83,2.12
			c0.23,0.73,0.42,1.47,0.53,2.24c0.12,0.77,0.16,1.54,0.11,2.32c-0.05,0.78-0.21,1.55-0.47,2.28c-0.13,0.37-0.29,0.72-0.48,1.06
			c-0.19,0.34-0.39,0.67-0.63,0.97c-0.24,0.3-0.48,0.59-0.76,0.86c-0.13,0.14-0.27,0.26-0.41,0.38c-0.14,0.12-0.28,0.25-0.43,0.36
			c-0.59,0.45-1.23,0.84-1.89,1.17c-0.04,0.01-0.07,0.03-0.11,0.03c-1.5,0-3,0-4.49-0.01l-2.24-0.02l-2.25-0.03l-2.25-0.03
			l-1.12-0.01l-1.12-0.02c-1.5-0.03-2.99-0.05-4.49-0.09h-0.01c-0.04,0-0.07-0.04-0.07-0.08l0.02-1.15l0.03-1.14h0.05l0.03,1.14
			l0.02,1.15l-0.08-0.08c1.5-0.04,2.99-0.06,4.49-0.09l1.12-0.02l1.12-0.01l2.25-0.02l2.25-0.03l2.24-0.01
			c1.5-0.01,3-0.01,4.49-0.01l-0.11,0.03c0.63-0.31,1.25-0.67,1.82-1.1c0.15-0.11,0.28-0.22,0.42-0.33
			c0.13-0.12,0.27-0.23,0.39-0.36c0.26-0.25,0.5-0.52,0.72-0.79c0.22-0.28,0.42-0.58,0.59-0.9c0.18-0.32,0.34-0.64,0.46-0.99
			c0.25-0.68,0.41-1.41,0.47-2.15c0.06-0.74,0.04-1.49-0.06-2.22c-0.1-0.74-0.26-1.48-0.46-2.19c-0.21-0.72-0.47-1.42-0.76-2.11
			c-0.3-0.68-0.63-1.36-1.01-1.99l0.17-0.05l-0.13,1.14l0-0.04c0.31,1.13,0.57,2.27,0.73,3.44l0.03,0.22
			c0.01,0.07,0.01,0.15,0.02,0.22l0.04,0.44c0.02,0.15,0.02,0.29,0.03,0.44l0.02,0.44l0,0.44v0.22c0,0.08,0,0.15-0.01,0.22
			l-0.02,0.44l-0.05,0.44c-0.07,0.58-0.19,1.17-0.38,1.73c-0.19,0.56-0.45,1.1-0.8,1.58c-0.34,0.48-0.76,0.9-1.23,1.24
			c-0.24,0.17-0.49,0.32-0.75,0.44c-0.13,0.06-0.26,0.12-0.4,0.17c-0.14,0.05-0.27,0.09-0.43,0.13c-0.01,0-0.01,0-0.02,0h-0.01
			c-1.44,0.01-2.88,0.02-4.32,0.01l-2.16-0.01l-2.16-0.02l-2.16-0.03l-2.16-0.04c-0.72-0.01-1.44-0.04-2.16-0.05
			c-0.72-0.02-1.44-0.04-2.16-0.06V126.34z"/>
		<path class="st11" d="M55.28,115.53c0,0,2.42,9.65-8.6,10.95H39.5v2h16.58c0,0,7.78-3.64,2.48-13.89L55.28,115.53z"/>
		<path class="st12" d="M38.12,126.33h17.27c0,0,6.28-1.01,3.12-11.27l0.12-1.07c0,0,6.94,10.12-2.55,14.5H38.12V126.33"/>
		<path class="st12" d="M38.12,126.3c0.72-0.02,1.44-0.04,2.16-0.06c0.72-0.02,1.44-0.04,2.16-0.05l2.16-0.03l2.16-0.02l2.16-0.02
			l2.16-0.01c1.44-0.01,2.88,0,4.32,0.02h-0.03c0.11-0.02,0.25-0.06,0.37-0.09c0.13-0.04,0.25-0.08,0.37-0.13
			c0.24-0.1,0.48-0.22,0.7-0.36c0.45-0.28,0.85-0.64,1.19-1.06c0.34-0.41,0.6-0.88,0.81-1.38c0.2-0.5,0.33-1.03,0.42-1.57l0.05-0.4
			l0.03-0.41c0-0.07,0.01-0.13,0.01-0.2l0-0.21l0.01-0.41l-0.02-0.4c-0.01-0.14-0.01-0.27-0.03-0.41l-0.04-0.41
			c-0.01-0.07-0.01-0.14-0.02-0.2l-0.03-0.2c-0.16-1.08-0.42-2.15-0.75-3.19c0-0.01,0-0.02,0-0.03v0l0.11-1.07
			c0.01-0.05,0.05-0.09,0.1-0.08c0.03,0,0.05,0.02,0.07,0.04c0.41,0.6,0.76,1.22,1.08,1.87c0.32,0.64,0.6,1.31,0.83,1.99
			c0.23,0.68,0.42,1.38,0.54,2.1c0.11,0.71,0.16,1.45,0.11,2.17c-0.05,0.73-0.2,1.46-0.47,2.15c-0.13,0.34-0.29,0.68-0.48,0.99
			c-0.19,0.32-0.4,0.62-0.63,0.91c-0.23,0.29-0.48,0.56-0.75,0.8c-0.13,0.13-0.27,0.24-0.41,0.36c-0.15,0.11-0.29,0.23-0.44,0.33
			c-0.59,0.43-1.23,0.79-1.89,1.1c-0.03,0.02-0.07,0.03-0.11,0.03c-1.5,0-2.99,0.01-4.49-0.01l-2.25-0.01l-2.25-0.02l-2.25-0.02
			l-1.12-0.01l-1.12-0.02c-1.5-0.03-2.99-0.04-4.49-0.08h0c-0.04,0-0.08-0.03-0.07-0.08l0.02-1.08l0.03-1.07h0.05l0.03,1.07
			l0.02,1.08l-0.08-0.08c1.5-0.04,2.99-0.06,4.49-0.08l1.12-0.02l1.12-0.01l2.25-0.02l2.25-0.02l2.25-0.01
			c1.5-0.01,3-0.01,4.49-0.01l-0.11,0.02c0.63-0.29,1.25-0.63,1.82-1.03c0.14-0.1,0.28-0.21,0.42-0.31
			c0.13-0.11,0.27-0.22,0.39-0.34c0.26-0.23,0.5-0.48,0.72-0.75c0.22-0.26,0.42-0.55,0.6-0.84c0.18-0.29,0.33-0.61,0.46-0.93
			c0.25-0.64,0.41-1.32,0.47-2.02c0.06-0.69,0.04-1.4-0.06-2.09c-0.09-0.7-0.25-1.38-0.46-2.06c-0.21-0.68-0.47-1.34-0.76-1.98
			c-0.3-0.64-0.63-1.27-1.01-1.87l0.17-0.04l-0.13,1.07l0-0.03c0.31,1.06,0.57,2.13,0.73,3.22l0.03,0.2
			c0.01,0.07,0.02,0.14,0.02,0.21l0.04,0.41c0.02,0.13,0.02,0.28,0.03,0.41l0.02,0.41l0,0.42v0.21c0,0.07,0,0.14-0.01,0.21
			l-0.02,0.41l-0.05,0.41c-0.07,0.55-0.19,1.1-0.38,1.63c-0.19,0.53-0.46,1.03-0.8,1.48c-0.34,0.45-0.76,0.85-1.23,1.17
			c-0.23,0.16-0.49,0.3-0.75,0.42c-0.13,0.06-0.26,0.11-0.4,0.16c-0.14,0.05-0.27,0.09-0.43,0.12c-0.01,0-0.02,0-0.02,0h-0.01
			c-1.44,0.01-2.88,0.02-4.32,0.01l-2.16-0.01l-2.16-0.02l-2.16-0.03l-2.16-0.04c-0.72-0.01-1.44-0.03-2.16-0.04
			c-0.72-0.02-1.44-0.04-2.16-0.06V126.3z"/>
		<path class="st13" d="M56.12,110.29c-1.53,0.13-2.14,1.5-2.08,2.32c0.06,0.82-0.16,2.71,2.18,3.03c2.34,0.31,3.27-1.22,3.34-2.63
			c0.07-1.42,0.06-2.28-1.24-2.71C57.01,109.85,56.12,110.29,56.12,110.29"/>
		<path class="st14" d="M58.84,110.49c0.07,0.41,0.05,0.9,0.03,1.47c-0.07,1.48-0.95,3.07-3.18,2.74c-0.62-0.09-1.05-0.3-1.35-0.59
			c0.19,0.74,0.67,1.46,1.93,1.65c2.23,0.32,3.11-1.26,3.18-2.74C59.51,111.82,59.51,111,58.84,110.49"/>
		<g class="st15">
			<g>
				<defs>
					<rect id="SVGID_5_" x="54.34" y="110.88" width="1.83" height="1.62"/>
				</defs>
				<clipPath id="SVGID_6_">
					<use xlink:href="#SVGID_5_"  style="overflow:visible;"/>
				</clipPath>
				<path class="st16" d="M55.4,110.9c0,0-0.7,0.15-0.97,0.95c-0.27,0.8,0.04,0.87,0.59,0.13c0.55-0.74,0.82-0.91,1.08-0.92
					C56.37,111.04,55.68,110.79,55.4,110.9"/>
			</g>
		</g>
		<path class="st13" d="M81.7,110.39c-1.53,0.13-2.14,1.5-2.08,2.32c0.06,0.81-0.16,2.71,2.18,3.02c2.34,0.31,3.27-1.21,3.34-2.63
			c0.08-1.42,0.06-2.28-1.24-2.72C82.59,109.94,81.7,110.39,81.7,110.39"/>
		<path class="st14" d="M84.41,110.58c0.07,0.4,0.05,0.89,0.03,1.47c-0.07,1.47-0.95,3.07-3.18,2.74c-0.62-0.09-1.05-0.3-1.35-0.59
			c0.19,0.74,0.67,1.46,1.93,1.65c2.23,0.33,3.11-1.26,3.18-2.74C85.08,111.91,85.08,111.09,84.41,110.58"/>
		<g class="st15">
			<g>
				<defs>
					<rect id="SVGID_7_" x="79.91" y="110.97" width="1.83" height="1.62"/>
				</defs>
				<clipPath id="SVGID_8_">
					<use xlink:href="#SVGID_7_"  style="overflow:visible;"/>
				</clipPath>
				<path class="st17" d="M80.98,111c0,0-0.7,0.15-0.97,0.95c-0.26,0.8,0.05,0.87,0.6,0.13c0.55-0.74,0.82-0.9,1.08-0.92
					C81.94,111.14,81.25,110.89,80.98,111"/>
			</g>
		</g>
		<path class="st13" d="M35.75,45.83c-1.8,0.16-2.52,1.77-2.45,2.72c0.07,0.96-0.19,3.19,2.56,3.56c2.75,0.37,3.84-1.43,3.93-3.1
			c0.08-1.67,0.07-2.68-1.46-3.2C36.8,45.3,35.75,45.83,35.75,45.83"/>
		<path class="st14" d="M38.95,46.05c0.08,0.48,0.06,1.05,0.03,1.73c-0.08,1.74-1.12,3.61-3.74,3.23c-0.72-0.11-1.23-0.36-1.58-0.7
			c0.22,0.88,0.78,1.72,2.27,1.94c2.62,0.38,3.66-1.49,3.74-3.22C39.73,47.62,39.74,46.65,38.95,46.05"/>
		<g class="st15">
			<g>
				<defs>
					<rect id="SVGID_9_" x="33.76" y="46.32" width="2.57" height="2.28"/>
				</defs>
				<clipPath id="SVGID_10_">
					<use xlink:href="#SVGID_9_"  style="overflow:visible;"/>
				</clipPath>
				<path class="st18" d="M35.26,46.36c0,0-0.99,0.21-1.36,1.33c-0.37,1.13,0.07,1.23,0.84,0.19c0.77-1.04,1.15-1.28,1.51-1.3
					C36.62,46.56,35.65,46.2,35.26,46.36"/>
			</g>
		</g>
		<path class="st13" d="M75.94,95.05c-1.73,0.15-2.41,1.69-2.34,2.61c0.07,0.92-0.18,3.06,2.46,3.41c2.64,0.35,3.68-1.37,3.76-2.96
			c0.08-1.6,0.07-2.57-1.4-3.06C76.95,94.55,75.94,95.05,75.94,95.05"/>
		<path class="st14" d="M79.01,95.26c0.08,0.46,0.06,1.01,0.03,1.66c-0.08,1.66-1.07,3.46-3.58,3.09c-0.7-0.1-1.18-0.35-1.52-0.67
			c0.21,0.84,0.75,1.65,2.18,1.86c2.51,0.37,3.5-1.43,3.58-3.09C79.76,96.76,79.76,95.84,79.01,95.26"/>
		<g class="st15">
			<g>
				<defs>
					<rect id="SVGID_11_" x="74.23" y="95.51" width="2.96" height="2.05"/>
				</defs>
				<clipPath id="SVGID_12_">
					<use xlink:href="#SVGID_11_"  style="overflow:visible;"/>
				</clipPath>
				<path class="st19" d="M75.9,95.53c0,0-1.17,0.14-1.54,1.17c-0.38,1.04,0.15,1.15,1.01,0.23c0.86-0.92,1.3-1.13,1.73-1.13
					C77.53,95.8,76.35,95.41,75.9,95.53"/>
			</g>
		</g>
		<path class="st20" d="M55.46,83.39c0,0-3.08,11.83-0.19,27.53c0,0,1.25,5.01,1.65-0.45c0,0-2.18-17.47,2.14-23.25
			C63.37,81.44,56.29,78.76,55.46,83.39"/>
		<path class="st5" d="M54.07,94.57c0.93,0.62,1.85,0.55,2.6,0.29c0.15-1.32,0.37-2.6,0.67-3.76c-1.3-0.21-2.22-1.15-2.85-2.15
			C54.31,90.54,54.15,92.43,54.07,94.57"/>
		<path class="st5" d="M56.39,103.14c-0.03-1.1-0.04-2.25-0.02-3.44c-0.93,0.09-1.7-0.14-2.33-0.53c0.03,1.17,0.09,2.39,0.18,3.65
			C55.04,103.19,55.77,103.24,56.39,103.14"/>
		<path class="st5" d="M59.58,86.42c3.12-5.22-3.34-7.44-4.13-3.03c0,0-0.19,0.73-0.43,2.06C56.92,86.72,58.5,86.72,59.58,86.42"/>
		<path class="st5" d="M54.81,108.27c0.13,0.87,0.27,1.75,0.44,2.65c0,0,1.25,5,1.66-0.45c0,0-0.11-0.87-0.23-2.28
			C56.01,108.46,55.39,108.45,54.81,108.27"/>
		<g class="st9">
			<g>
				<defs>
					<rect id="SVGID_13_" x="55.29" y="81.4" width="5.64" height="30.74"/>
				</defs>
				<clipPath id="SVGID_14_">
					<use xlink:href="#SVGID_13_"  style="overflow:visible;"/>
				</clipPath>
				<path class="st21" d="M59.56,81.4c-0.88,0.2-1.68,0.42-1.92,1.79c0,0-4.23,11.98-1.34,27.67c0,0,0.17,0.69,0.41,1.28
					c0.08-0.39,0.16-0.96,0.21-1.72c0,0-2.18-17.47,2.14-23.25C61.6,83.75,61.33,81.79,59.56,81.4"/>
			</g>
		</g>
		<path class="st5" d="M38.5,49.55c0,0,11.74,2.9,14.22,1.83c0,0,0.99,1.82-0.71,2.32c-1.7,0.5-12.4-2.21-13.75-3.35
			C36.89,49.23,38.5,49.55,38.5,49.55"/>
		<path class="st22" d="M54,43.84c-1.14-0.05-2.18,0.64-2.58,1.72c-0.87,2.34-1.96,7.03-1.19,14.86c0.82,8.33,1.32,15.27,1.54,18.64
			c0.1,1.54,0.99,2.93,2.34,3.66c3.44,1.88,11.21,4.65,25.4,2.86c0,0,3.11-0.13,7.15-5.44c0,0,3.34-26.13,2.96-33.05
			c0,0-14.54-1.03-21.87-3.37C67.76,43.71,58.33,44.02,54,43.84"/>
		<g class="st2">
			<g>
				<defs>
					<rect id="SVGID_15_" x="79.53" y="47.08" width="10.14" height="38.49"/>
				</defs>
				<clipPath id="SVGID_16_">
					<use xlink:href="#SVGID_15_"  style="overflow:visible;"/>
				</clipPath>
				<path class="st23" d="M89.64,47.08L89.64,47.08c-2.93,2.54-5.79,2.45-6.14,2.43c0.31,0.03,0.56,0.29,0.55,0.61
					c-0.04,2.84-0.46,15.73-4.51,35.45c0,0,3.11-0.13,7.15-5.44C86.68,80.13,90.03,54.01,89.64,47.08L89.64,47.08z"/>
			</g>
		</g>
		<g class="st15">
			<g>
				<defs>
					<rect id="SVGID_17_" x="52.32" y="43.71" width="37.32" height="5.8"/>
				</defs>
				<clipPath id="SVGID_18_">
					<use xlink:href="#SVGID_17_"  style="overflow:visible;"/>
				</clipPath>
				<path class="st24" d="M83.47,49.51L83.47,49.51c-0.01,0,3.05,0.3,6.17-2.42c0,0-14.54-1.03-21.87-3.37c0,0-9.42,0.3-13.75,0.12
					c-0.63-0.03-1.22,0.17-1.7,0.53C52.38,44.41,57.36,48.39,83.47,49.51"/>
			</g>
		</g>
		<g class="st25">
			<g>
				<defs>
					<rect id="SVGID_19_" x="56.27" y="44.79" width="32.97" height="4.72"/>
				</defs>
				<clipPath id="SVGID_20_">
					<use xlink:href="#SVGID_19_"  style="overflow:visible;"/>
				</clipPath>
				<path class="st26" d="M71.69,44.79c0,0-9.41,0.62-13.74,0.58c-0.63-0.01-1.21,0.21-1.68,0.59c0.01,0.01,0.14,0.11,0.45,0.26
					c4.3,1.21,12.25,2.66,26.48,3.27h-0.01c0,0,2.97,0.29,6.05-2.31C84.35,46.85,76.5,46.15,71.69,44.79"/>
			</g>
		</g>
		<path class="st20" d="M87.77,54.15c0,0,19.18,0.62,20.72,10.14c1.54,9.52-12.79,10.32-22.45,9.5c-1.92,0-1.92,2.24,0,2.24
			c0,0,19.01,2.93,25.39-5.03c5.32-6.63,4.3-10.8-4.78-16.21c-5.04-3-18.88-2.78-18.88-2.78C85.9,52.02,85.9,54.15,87.77,54.15"/>
		<path class="st5" d="M100.43,73.18c-1.58,0.37-3.29,0.6-5.04,0.73c-0.25,0.86-0.31,1.76-0.2,2.64c1.77-0.04,3.65-0.18,5.51-0.47
			C100.45,75.15,100.37,74.16,100.43,73.18"/>
		<path class="st5" d="M106.22,60.04c1.16,1.16,1.98,2.56,2.26,4.22c1.36,0.02,2.71-0.2,3.99-0.64c0.7-0.24,1.38-0.55,2.03-0.9
			c-0.5-2.13-2.24-4.14-5.33-6.29C108.42,57.79,107.42,59.02,106.22,60.04"/>
		<path class="st5" d="M96.04,55.28c1.79,0.41,3.67,0.96,5.42,1.71c0.75-1.07,1.3-2.28,1.63-3.55c-1.77-0.45-3.79-0.76-5.77-0.97
			C97.05,53.47,96.62,54.42,96.04,55.28"/>
		<path class="st5" d="M87.77,54.15c0,0,1.27,0.04,3.18,0.26c0.35-0.72,0.52-1.52,0.57-2.34c-2.23-0.08-3.75-0.05-3.75-0.05
			C85.9,52.02,85.9,54.15,87.77,54.15"/>
		<path class="st5" d="M109.78,70.63c-0.74-0.52-1.39-1.16-1.96-1.87c-0.65,1.15-1.67,2.07-2.97,2.8c0.34,1.07,0.83,2.1,1.47,3.03
			c1.95-0.79,3.66-1.88,4.93-3.36C110.68,71.09,110.15,70.9,109.78,70.63"/>
		<path class="st5" d="M88.88,75.72c0.13-0.6,0.35-1.16,0.61-1.71c-1.19-0.04-2.36-0.11-3.46-0.21c-1.92,0-1.92,2.24,0,2.24
			c0,0,1.05,0.16,2.74,0.3C88.8,76.14,88.84,75.93,88.88,75.72"/>
		<g class="st9">
			<g>
				<defs>
					<rect id="SVGID_21_" x="84.83" y="62.36" width="29.86" height="14.16"/>
				</defs>
				<clipPath id="SVGID_22_">
					<use xlink:href="#SVGID_21_"  style="overflow:visible;"/>
				</clipPath>
				<path class="st27" d="M84.83,75.47c0.22,0.31,0.64,0.53,1.24,0.53c0,0,19.01,2.93,25.39-5.03c2.67-3.33,3.74-6.04,3-8.6l0,0
					c1.53,9.52-18.35,14.84-28.39,12.58C85.47,74.94,85.05,75.16,84.83,75.47"/>
			</g>
		</g>
		<path class="st6" d="M96.24,80.85l-1.14,1.79l-2.16,0.55c0,0-1.98-3.79-5.6-1.95c-3.62,1.84-2.44-2.12-0.62-3.01
			c1.59-0.77,2.67-1.33,4.4-0.38c2.13,1.17,2.71,3.71,2.71,3.71L96.24,80.85z"/>
		<path class="st6" d="M92.36,88.55l-2.61,1.64c0,0-4.47-0.21-6.41-3.5c-1.94-3.28-2.26-5.83-0.67-8.89
			C84.25,74.74,80.89,88.73,92.36,88.55"/>
		<path class="st5" d="M69.25,35.71c-1.4,1.35-1.07,7.68,1.61,11.37c0,0,1.17,1.01,2.02,0c0,0-3.1-8.96,0-10.9
			C72.88,36.18,71.01,34.01,69.25,35.71"/>
		<g class="st28">
			<g>
				<defs>
					<rect id="SVGID_23_" x="69.82" y="35.22" width="3.06" height="12.14"/>
				</defs>
				<clipPath id="SVGID_24_">
					<use xlink:href="#SVGID_23_"  style="overflow:visible;"/>
				</clipPath>
				<path class="st29" d="M72.88,47.12c0,0-3.1-8.96,0-10.9c0,0-0.61-0.7-1.45-1c-0.26,0.1-0.53,0.27-0.8,0.52
					c-1.4,1.35-1.07,7.69,1.61,11.37c0,0,0.15,0.13,0.38,0.25C72.7,47.3,72.79,47.22,72.88,47.12"/>
			</g>
		</g>
		<g class="st28">
			<g>
				<defs>
					<rect id="SVGID_25_" x="70.66" y="35.42" width="2.22" height="11.13"/>
				</defs>
				<clipPath id="SVGID_26_">
					<use xlink:href="#SVGID_25_"  style="overflow:visible;"/>
				</clipPath>
				<path class="st30" d="M72.7,46.55c-0.62-1.99-2.45-8.69,0.18-10.34c0,0-0.4-0.46-1-0.8c-0.14,0.09-0.27,0.19-0.41,0.32
					C70.14,37.03,70.37,42.82,72.7,46.55"/>
			</g>
		</g>
		<path class="st31" d="M90.59,19.78c-0.62-0.28-1.08-0.3-1.08-0.3l-29.69-3.71c-2.03-0.25-4.02,0.65-5.18,2.33
			c-7.13,10.35,3.73,17.97,3.73,17.97s20.57,3.07,27.09,3.7c0.43,0.12,0.91,0.16,1.46,0.11c0.2,0.01,0.34,0,0.42-0.01
			c0.75-0.12,1.76-0.16,2.78-1.16c3.09-2.27,3.3-7.09,3.48-8.89C93.82,27.7,94.14,20.27,90.59,19.78"/>
		<g class="st9">
			<g>
				<defs>
					<rect id="SVGID_27_" x="55.06" y="32.82" width="30.24" height="6.95"/>
				</defs>
				<clipPath id="SVGID_28_">
					<use xlink:href="#SVGID_27_"  style="overflow:visible;"/>
				</clipPath>
				<path class="st32" d="M82.58,36.49c-0.54,0.05-1.02,0.01-1.44-0.11c-5.65-0.55-21.85-2.93-26.07-3.56
					c1.61,2.07,3.29,3.25,3.29,3.25s20.29,3.03,26.95,3.69C83.86,39.36,83.03,38.08,82.58,36.49"/>
			</g>
		</g>
		<g class="st33">
			<g>
				<defs>
					<rect id="SVGID_29_" x="56.84" y="34.86" width="28.38" height="4.89"/>
				</defs>
				<clipPath id="SVGID_30_">
					<use xlink:href="#SVGID_29_"  style="overflow:visible;"/>
				</clipPath>
				<path class="st34" d="M85.21,39.76c-0.74-0.21-1.31-0.65-1.76-1.24c-6.81-0.71-25.8-3.54-26.62-3.66
					c0.83,0.78,1.43,1.2,1.43,1.2S78.55,39.09,85.21,39.76"/>
			</g>
		</g>
		<g class="st2">
			<g>
				<defs>
					<rect id="SVGID_31_" x="82.17" y="19.82" width="11.53" height="20.16"/>
				</defs>
				<clipPath id="SVGID_32_">
					<use xlink:href="#SVGID_31_"  style="overflow:visible;"/>
				</clipPath>
				<path class="st35" d="M89.81,19.85c-5.34,0.66-7.07,6.1-7.34,8.21c-0.27,2.11-1.53,12.56,4.54,11.9
					c6.07-0.67,6.35-7.77,6.58-10.05C93.81,27.62,94.16,19.31,89.81,19.85"/>
			</g>
		</g>
		<path class="st36" d="M53.93,15.73c0,0-3.2,0.65-3.8,4.17c-0.6,3.53,0.76,5.51,0.76,5.51s8.58,5.15,29.93,4.85
			c0,0-2.05-9.02,4.82-10.36C85.64,19.91,61.05,18.99,53.93,15.73"/>
		<path class="st13" d="M80.79,30.28c0,0-1.97-9.02,4.85-10.37l0.21,1.18c0,0-3.68,3-4.05,9.19H80.79z"/>
		<path class="st5" d="M70.85,17.16c0,0,0.57-1.71,2.24-1.42c1.67,0.29,2.26,0.82,2.48,2.01L70.85,17.16z"/>
		<g class="st2">
			<g>
				<defs>
					<rect id="SVGID_33_" x="72.28" y="15.7" width="3.3" height="2.04"/>
				</defs>
				<clipPath id="SVGID_34_">
					<use xlink:href="#SVGID_33_"  style="overflow:visible;"/>
				</clipPath>
				<path class="st37" d="M74.61,17.63l0.96,0.12c-0.23-1.19-0.82-1.72-2.48-2.01c-0.31-0.05-0.58-0.04-0.81,0.02
					C73.79,16.04,74.38,16.55,74.61,17.63"/>
			</g>
		</g>
		<path class="st0" d="M87.56,28.94c0,0,6.73-0.55,10.54-5.04c3.81-4.49,7.07,0.14,7.07,2.52s-0.39,9.72-6.8,10.54
			c-6.41,0.82-10.81-5.41-10.81-5.41S86.13,30.21,87.56,28.94"/>
		<path class="st38" d="M88.62,28.8c-0.07,0.3-0.18,0.58-0.28,0.86c-0.1,0.28-0.19,0.55-0.25,0.82c-0.06,0.27-0.1,0.55-0.11,0.83
			c-0.01,0.28,0.02,0.57,0.06,0.87c-0.18-0.24-0.31-0.54-0.36-0.85c-0.05-0.31-0.04-0.64,0.04-0.94c0.07-0.31,0.2-0.6,0.35-0.86
			C88.23,29.26,88.41,29.02,88.62,28.8"/>
		<path class="st38" d="M88.9,33.1c-0.03-0.4-0.05-0.8-0.06-1.2c-0.01-0.4,0-0.8,0.03-1.21c0.04-0.4,0.1-0.81,0.23-1.2
			c0.13-0.39,0.33-0.78,0.64-1.09l0.04-0.04l0.05-0.01l0.93-0.25l0.46-0.12l-0.24,0.41c-0.11,0.2-0.23,0.42-0.33,0.63
			c-0.1,0.22-0.19,0.44-0.28,0.67c-0.17,0.45-0.3,0.92-0.41,1.39c-0.1,0.48-0.16,0.96-0.18,1.44c-0.03,0.49,0.01,0.98,0.07,1.47
			c-0.15-0.47-0.24-0.96-0.27-1.46c-0.02-0.25-0.01-0.5,0-0.75c0.01-0.25,0.04-0.5,0.08-0.75c0.07-0.5,0.2-0.98,0.36-1.46
			c0.08-0.24,0.17-0.47,0.27-0.7c0.11-0.23,0.21-0.45,0.35-0.68l0.21,0.29l-0.93,0.24l0.09-0.05c-0.25,0.26-0.45,0.58-0.58,0.94
			c-0.13,0.36-0.23,0.74-0.29,1.12c-0.06,0.39-0.1,0.78-0.14,1.18C88.96,32.31,88.93,32.71,88.9,33.1"/>
		<path class="st38" d="M87.23,31.14c-0.1-0.09-0.16-0.2-0.21-0.31c-0.05-0.11-0.07-0.23-0.08-0.34c-0.01-0.12,0-0.24,0.04-0.36
			c0.02-0.06,0.04-0.12,0.08-0.18c0.04-0.06,0.1-0.11,0.16-0.13c0,0.07,0.01,0.12,0.02,0.18c0.01,0.05,0.03,0.1,0.04,0.15
			c0.02,0.1,0.04,0.21,0.04,0.31c0.01,0.11,0.01,0.22-0.01,0.33C87.31,30.9,87.28,31.02,87.23,31.14"/>
		<g class="st39">
			<g>
				<defs>
					<rect id="SVGID_35_" x="89.68" y="28.11" width="2.23" height="6.12"/>
				</defs>
				<clipPath id="SVGID_36_">
					<use xlink:href="#SVGID_35_"  style="overflow:visible;"/>
				</clipPath>
				<path class="st40" d="M90.08,34.19c0,0-0.9-0.81,0-3.52c0.9-2.71,0.76-2.38,1.29-2.55c0.53-0.18,0.6,2.53,0.5,3.04
					C91.77,31.66,91.63,34.61,90.08,34.19"/>
			</g>
		</g>
		<path class="st1" d="M90.86,30.47c0.01,0,0.03,0,0.03,0l0.01,0.01l0.03,0.01l0.05,0.02l0.11,0.03l0.23,0.06
			c0.15,0.04,0.3,0.07,0.46,0.1c0.3,0.06,0.61,0.09,0.92,0.12c0.62,0.04,1.24,0.02,1.84-0.1c0.3-0.06,0.59-0.15,0.88-0.26
			c0.28-0.11,0.56-0.24,0.81-0.41c0.25-0.17,0.49-0.36,0.71-0.57c0.22-0.22,0.44-0.44,0.65-0.67c0.42-0.46,0.82-0.93,1.13-1.46
			c0.15-0.26,0.29-0.54,0.32-0.84c0.01-0.14-0.02-0.29-0.11-0.38c-0.05-0.04-0.12-0.07-0.18-0.08c-0.02,0-0.04-0.01-0.05-0.01
			l-0.03,0c0,0-0.01,0-0.01,0c-0.03,0.01-0.05,0.02-0.07,0.05c-0.09,0.1-0.16,0.25-0.21,0.39c-0.05,0.14-0.1,0.29-0.14,0.44
			c-0.08,0.3-0.14,0.6-0.2,0.91c-0.11,0.61-0.19,1.23-0.25,1.85c-0.06,0.62-0.1,1.24-0.13,1.86c-0.03,0.62-0.04,1.24,0,1.85
			c0.01,0.15,0.03,0.3,0.06,0.44c0.03,0.13,0.1,0.24,0.19,0.31c0.19,0.14,0.5,0.09,0.72-0.05c0.11-0.07,0.21-0.17,0.25-0.28
			c0.05-0.11,0.04-0.2-0.03-0.28c-0.03-0.05-0.08-0.08-0.14-0.12l-0.08-0.05l-0.1-0.04c-0.13-0.06-0.28-0.11-0.42-0.15
			c-0.59-0.18-1.19-0.32-1.8-0.46c-0.61-0.14-1.21-0.27-1.82-0.4c-1.22-0.25-2.44-0.5-3.67-0.75l-0.04-0.01l0-0.04
			C90.78,31.16,90.82,30.81,90.86,30.47 M90.87,30.5l-0.02,1.03l-0.04-0.05c1.24,0.17,2.47,0.37,3.7,0.59
			c0.61,0.11,1.23,0.23,1.84,0.36c0.61,0.13,1.22,0.27,1.83,0.46c0.15,0.05,0.3,0.1,0.46,0.16l0.11,0.05l0.12,0.07
			c0.08,0.05,0.15,0.11,0.21,0.19c0.06,0.08,0.11,0.18,0.12,0.29c0.01,0.11-0.02,0.21-0.06,0.3c-0.09,0.18-0.22,0.31-0.37,0.4
			c-0.15,0.09-0.32,0.16-0.5,0.17c-0.09,0.01-0.19,0-0.28-0.02c-0.09-0.02-0.18-0.06-0.26-0.12c-0.15-0.12-0.25-0.29-0.29-0.47
			c-0.04-0.17-0.05-0.33-0.06-0.49c-0.03-0.64,0.01-1.26,0.05-1.89c0.05-0.62,0.12-1.24,0.2-1.86c0.08-0.62,0.18-1.24,0.3-1.85
			c0.06-0.31,0.13-0.61,0.2-0.92c0.04-0.15,0.08-0.3,0.14-0.45c0.03-0.07,0.06-0.15,0.09-0.22c0.04-0.07,0.07-0.15,0.13-0.21
			c0.03-0.03,0.07-0.06,0.12-0.08c0.01,0,0.03-0.01,0.04-0.01h0.03c0.02,0,0.04,0,0.06,0.01c0.09,0.01,0.17,0.04,0.24,0.1
			c0.07,0.06,0.12,0.14,0.15,0.22c0.03,0.08,0.04,0.17,0.03,0.25c-0.02,0.33-0.15,0.63-0.3,0.92c-0.14,0.28-0.32,0.55-0.51,0.8
			c-0.18,0.26-0.38,0.5-0.59,0.74c-0.21,0.23-0.42,0.46-0.65,0.69c-0.23,0.23-0.48,0.42-0.75,0.59c-0.54,0.35-1.16,0.56-1.78,0.67
			c-0.63,0.11-1.26,0.11-1.89,0.03c-0.31-0.04-0.62-0.1-0.93-0.17c-0.15-0.04-0.3-0.08-0.46-0.13c-0.07-0.02-0.15-0.05-0.22-0.07
			l-0.11-0.04l-0.05-0.02l-0.03-0.01L90.87,30.5C90.87,30.5,90.87,30.5,90.87,30.5"/>
		<g class="st2">
			<g>
				<defs>
					<rect id="SVGID_37_" x="99.66" y="22.33" width="4.05" height="3.07"/>
				</defs>
				<clipPath id="SVGID_38_">
					<use xlink:href="#SVGID_37_"  style="overflow:visible;"/>
				</clipPath>
				<path class="st41" d="M99.67,23.52c-0.06,0.24,0.19,0.43,0.38,0.29c0.54-0.42,1.48-0.82,2.37,0.25
					c1.37,1.65,1.45,1.72,1.14,0.56c-0.31-1.16-0.92-2.5-2.57-2.25C100.23,22.48,99.84,22.83,99.67,23.52"/>
			</g>
		</g>
		<path class="st13" d="M80.83,30.28c0,0-0.01-0.01-0.01-0.02v-0.01l0-0.01l0-0.02l-0.01-0.05l-0.03-0.1
			c-0.01-0.06-0.03-0.13-0.04-0.19c-0.03-0.13-0.05-0.26-0.08-0.39c-0.05-0.26-0.09-0.52-0.12-0.78c-0.07-0.53-0.1-1.06-0.1-1.59
			c0-0.53,0.04-1.07,0.11-1.6c0.08-0.53,0.2-1.05,0.38-1.56c0.18-0.5,0.42-0.99,0.71-1.44c0.15-0.22,0.31-0.44,0.48-0.64
			c0.17-0.2,0.36-0.4,0.56-0.57c0.79-0.72,1.77-1.2,2.8-1.48c0.04-0.01,0.08,0.01,0.09,0.05l0,0.01c0.13,0.4,0.27,0.79,0.39,1.19
			c0.01,0.05,0,0.1-0.04,0.13l-0.01,0c-0.33,0.25-0.64,0.55-0.93,0.86c-0.29,0.31-0.56,0.64-0.81,0.99
			c-0.49,0.69-0.91,1.45-1.25,2.23c-0.33,0.78-0.6,1.6-0.78,2.44l-0.07,0.31l-0.06,0.32c-0.04,0.21-0.07,0.42-0.1,0.64
			c-0.03,0.21-0.05,0.43-0.07,0.64l-0.05,0.64v0.01c0,0.03-0.03,0.05-0.05,0.05L80.83,30.28z M80.85,30.25l0.89-0.05l-0.06,0.06
			c0-0.22,0-0.43,0.01-0.65c0.01-0.22,0.02-0.43,0.04-0.65c0.02-0.22,0.04-0.44,0.07-0.65l0.05-0.32l0.06-0.32
			c0.16-0.86,0.4-1.7,0.74-2.51c0.34-0.81,0.77-1.57,1.29-2.28c0.26-0.35,0.54-0.69,0.85-1c0.15-0.16,0.31-0.31,0.48-0.45
			c0.17-0.14,0.33-0.28,0.52-0.41l-0.05,0.13c-0.12-0.4-0.22-0.81-0.33-1.21l0.1,0.06c-0.25,0.06-0.51,0.12-0.75,0.21
			c-0.13,0.04-0.25,0.09-0.37,0.13c-0.12,0.05-0.24,0.11-0.36,0.16c-0.47,0.23-0.91,0.53-1.29,0.89c-0.38,0.36-0.71,0.78-0.97,1.23
			c-0.26,0.45-0.46,0.93-0.62,1.43c-0.31,1-0.46,2.04-0.5,3.08c-0.02,0.52-0.01,1.05,0.03,1.57c0.02,0.26,0.04,0.52,0.07,0.79
			c0.01,0.13,0.03,0.26,0.05,0.39l0.03,0.2l0.01,0.1l0.01,0.05l0,0.02V30.25L80.85,30.25C80.86,30.25,80.85,30.25,80.85,30.25"/>
		<path class="st13" d="M63.08,30.18c0.03,0.16,0.07,0.32,0.1,0.49c0.03,0.16,0.07,0.33,0.1,0.49c0.06,0.33,0.12,0.66,0.18,0.99
			l-0.1-0.09c0.13-0.11,0.26-0.23,0.39-0.34c0.13-0.11,0.26-0.22,0.39-0.33l0.08-0.06l0.03,0.16c0.03,0.14,0.05,0.28,0.07,0.43
			c0.03,0.14,0.04,0.29,0.07,0.43l0.13,0.86l-0.06-0.06L64.67,33l0.23-0.16l0.02-0.01l0.01,0.02c0.09,0.14,0.17,0.29,0.26,0.42
			c0.09,0.14,0.18,0.28,0.27,0.42l-0.02-0.02c0.16-0.03,0.31-0.08,0.46-0.11l0.46-0.12l0.01,0l0.02,0.02
			c0.23,0.2,0.46,0.4,0.69,0.61l-0.08,0l0.58-0.67c0.19-0.22,0.39-0.44,0.58-0.64l0.04-0.04l0.04,0.03c0.1,0.08,0.21,0.17,0.32,0.26
			l0.32,0.27l-0.09,0.07l0.1-0.44l0.09-0.45l0-0.02l0-0.01c0.09-0.17,0.17-0.35,0.27-0.53c0.09-0.17,0.18-0.35,0.27-0.52l0.01,0.02
			c-0.08,0.2-0.15,0.39-0.23,0.58c-0.08,0.19-0.16,0.38-0.24,0.57l0.01-0.03l-0.07,0.46l-0.08,0.46l-0.02,0.12l-0.07-0.05
			l-0.33-0.23c-0.11-0.08-0.22-0.16-0.33-0.24l0.08-0.01c-0.19,0.22-0.38,0.44-0.58,0.65l-0.59,0.63l-0.04,0.04l-0.04-0.04
			c-0.23-0.22-0.45-0.44-0.67-0.66l0.04,0.01l-0.47,0.05c-0.15,0.02-0.31,0.04-0.47,0.06l-0.01,0l-0.01-0.02
			c-0.09-0.14-0.17-0.29-0.26-0.43c-0.09-0.14-0.18-0.28-0.27-0.42l0.03,0.01l-0.22,0.18l-0.22,0.19l-0.04,0.04l-0.02-0.1
			l-0.17-0.85c-0.03-0.14-0.06-0.28-0.08-0.42c-0.03-0.14-0.05-0.28-0.08-0.43l0.11,0.1c-0.13,0.11-0.26,0.22-0.39,0.32
			c-0.13,0.11-0.26,0.21-0.4,0.31l-0.07,0.06l-0.02-0.14c-0.05-0.33-0.1-0.67-0.14-1c-0.02-0.17-0.04-0.34-0.06-0.5
			c-0.02-0.17-0.05-0.34-0.07-0.5L63.08,30.18z"/>
		<path class="st42" d="M63.58,30.1c-0.02,0.33-0.3,0.57-0.63,0.55c-0.33-0.02-0.57-0.3-0.55-0.63c0.02-0.33,0.3-0.57,0.63-0.55
			C63.35,29.5,63.6,29.78,63.58,30.1"/>
		<path class="st42" d="M70.14,31.22c-0.02,0.33-0.3,0.57-0.63,0.55c-0.33-0.02-0.57-0.3-0.55-0.63c0.02-0.33,0.3-0.57,0.63-0.55
			C69.91,30.62,70.16,30.9,70.14,31.22"/>
		<path class="st43" d="M86.99,78c0,0-1.54,7.53,5.74,7.81l-0.38,2.74c0,0-5.24,0.83-7.69-3.63c-2.44-4.46-2.63-7.61-0.09-9.92
			C87.11,72.7,89.73,75.81,86.99,78"/>
		<path class="st43" d="M96.24,80.85l-2.4,0.71c0,0-1.54-5.07-6.06-3.71c-4.52,1.37-4.25-2.65-2.08-3.42
			c2.17-0.77,4.03-0.8,5.94-0.33C93.55,74.58,96.37,77.59,96.24,80.85"/>
		<path class="st13" d="M93.75,81.72c-0.03,0.16-0.09,0.3-0.14,0.45c-0.06,0.14-0.12,0.28-0.19,0.42c-0.07,0.14-0.15,0.27-0.23,0.4
			c-0.08,0.13-0.17,0.26-0.28,0.38c0.04-0.16,0.08-0.3,0.14-0.45c0.06-0.15,0.12-0.29,0.19-0.42c0.07-0.14,0.15-0.27,0.23-0.4
			C93.55,81.97,93.64,81.84,93.75,81.72"/>
		<path class="st13" d="M87.03,76.52c0,0.44-0.43,0.8-0.97,0.8c-0.53,0-0.96-0.36-0.96-0.8c0-0.44,0.43-0.79,0.96-0.79
			C86.6,75.73,87.03,76.08,87.03,76.52"/>
		<path class="st43" d="M86.49,75.69c-0.04,0.15-0.09,0.3-0.15,0.45c-0.06,0.14-0.12,0.29-0.19,0.42c-0.07,0.14-0.15,0.27-0.23,0.4
			c-0.08,0.13-0.17,0.26-0.28,0.38c0.03-0.15,0.09-0.3,0.14-0.45c0.06-0.14,0.12-0.29,0.19-0.42c0.07-0.14,0.15-0.27,0.23-0.4
			C86.29,75.94,86.38,75.81,86.49,75.69"/>
		<path class="st5" d="M76.12,101.34c0,0,2.55,9,4.69,10.7c0,0,2.1,1.13,0.75-1.04c-1.54-2.48-3.19-5.86-3.57-10.31
			C77.6,96.23,75.23,98.48,76.12,101.34"/>
		<g class="st9">
			<g>
				<defs>
					<rect id="SVGID_39_" x="76.92" y="98.44" width="5.09" height="13.67"/>
				</defs>
				<clipPath id="SVGID_40_">
					<use xlink:href="#SVGID_39_"  style="overflow:visible;"/>
				</clipPath>
				<path class="st44" d="M81.81,112.01c0,0,0.08,0.05,0.19,0.1c0.03-0.19-0.07-0.54-0.45-1.14c-1.55-2.48-3.19-5.86-3.57-10.32
					c-0.1-1.16-0.33-1.86-0.61-2.22c-0.41,0.51-0.64,1.64-0.25,2.88C77.12,101.32,79.67,110.31,81.81,112.01"/>
			</g>
		</g>
		<path class="st45" d="M55.09,111.71c0.12,0.33,0.27,0.66,0.49,0.92c0.1,0.13,0.23,0.24,0.38,0.29c0.07,0.02,0.14,0.03,0.22,0.02
			c0.07-0.01,0.14-0.04,0.21-0.07c0.03-0.02,0.06-0.04,0.1-0.06l0.1-0.08c0.07-0.05,0.13-0.11,0.2-0.17
			c0.12-0.12,0.25-0.23,0.37-0.35c0.24-0.24,0.46-0.5,0.67-0.79l0.03,0.01c-0.03,0.18-0.1,0.36-0.18,0.52
			c-0.08,0.17-0.19,0.31-0.3,0.46c-0.12,0.14-0.25,0.27-0.4,0.38c-0.08,0.05-0.15,0.11-0.23,0.15l-0.12,0.07
			c-0.04,0.02-0.09,0.05-0.13,0.07c-0.09,0.04-0.19,0.07-0.3,0.07c-0.1,0.01-0.21-0.02-0.3-0.06c-0.19-0.08-0.32-0.23-0.42-0.38
			c-0.1-0.15-0.18-0.32-0.25-0.48c-0.06-0.17-0.12-0.34-0.15-0.51L55.09,111.71z"/>
		<path class="st45" d="M39.33,49.38c-0.34-0.09-0.69-0.15-1.03-0.12c-0.17,0.01-0.33,0.05-0.46,0.15c-0.06,0.04-0.11,0.1-0.14,0.16
			c-0.03,0.07-0.05,0.14-0.06,0.21c0,0.04,0,0.08,0,0.12l0.01,0.13c0,0.09,0.02,0.17,0.02,0.26c0.03,0.17,0.05,0.33,0.08,0.5
			c0.06,0.33,0.15,0.67,0.27,1l-0.02,0.02c-0.13-0.13-0.24-0.28-0.32-0.44c-0.08-0.16-0.15-0.33-0.2-0.51
			c-0.05-0.18-0.07-0.36-0.08-0.54c0-0.09,0-0.18,0-0.27l0.01-0.14c0-0.05,0.01-0.1,0.02-0.15c0.02-0.1,0.05-0.2,0.11-0.29
			c0.05-0.09,0.13-0.16,0.22-0.22c0.18-0.11,0.37-0.13,0.56-0.13c0.18,0,0.36,0.03,0.54,0.07c0.17,0.04,0.34,0.1,0.51,0.17
			L39.33,49.38z"/>
		<path class="st45" d="M80.33,112.09c0.3,0.18,0.63,0.33,0.96,0.39c0.17,0.03,0.34,0.04,0.48-0.02c0.07-0.03,0.13-0.07,0.18-0.12
			c0.05-0.05,0.09-0.12,0.11-0.19c0.01-0.04,0.03-0.08,0.03-0.11l0.03-0.13c0.02-0.08,0.03-0.17,0.04-0.25
			c0.02-0.17,0.04-0.34,0.06-0.51c0.03-0.34,0.03-0.68,0.01-1.04l0.03-0.01c0.09,0.16,0.15,0.34,0.19,0.52
			c0.04,0.18,0.06,0.36,0.06,0.54c0,0.19-0.02,0.37-0.06,0.55c-0.02,0.09-0.04,0.18-0.08,0.27l-0.04,0.13
			c-0.01,0.04-0.03,0.09-0.06,0.14c-0.04,0.09-0.1,0.18-0.18,0.25c-0.08,0.07-0.17,0.12-0.27,0.15c-0.2,0.06-0.39,0.03-0.57-0.02
			c-0.18-0.05-0.34-0.13-0.5-0.21c-0.16-0.09-0.31-0.18-0.45-0.29L80.33,112.09z"/>
		<path class="st45" d="M78.01,99.49c-0.09-0.34-0.22-0.68-0.42-0.95c-0.09-0.14-0.21-0.26-0.36-0.32
			c-0.07-0.03-0.14-0.04-0.21-0.04c-0.07,0.01-0.15,0.03-0.22,0.06c-0.03,0.02-0.07,0.04-0.1,0.06l-0.11,0.07
			c-0.07,0.04-0.14,0.1-0.21,0.15c-0.13,0.11-0.26,0.21-0.39,0.32c-0.26,0.22-0.5,0.47-0.73,0.74l-0.03-0.01
			c0.04-0.18,0.12-0.35,0.22-0.5c0.1-0.16,0.21-0.3,0.33-0.44c0.13-0.13,0.27-0.25,0.43-0.35c0.08-0.05,0.16-0.1,0.24-0.14
			l0.12-0.06c0.04-0.02,0.09-0.04,0.13-0.06c0.09-0.04,0.2-0.06,0.3-0.05c0.1,0,0.21,0.03,0.3,0.08c0.18,0.1,0.3,0.25,0.4,0.41
			c0.09,0.16,0.16,0.33,0.21,0.5c0.05,0.17,0.09,0.35,0.12,0.52L78.01,99.49z"/>
		<path class="st5" d="M73.2,17.09l-0.51-2.13l-0.5-2.13c-0.34-1.42-0.67-2.84-1-4.27c-0.03-0.14,0.05-0.27,0.19-0.3
			c0.04-0.01,0.07-0.01,0.11,0l0.01,0c1.25,0.27,2.51,0.54,3.76,0.81l1.88,0.39c0.63,0.13,1.25,0.27,1.87,0.42l-0.47,0.27
			c0.17-0.53,0.35-1.06,0.54-1.59c0.19-0.53,0.38-1.05,0.57-1.58c0.2-0.52,0.4-1.05,0.61-1.57c0.21-0.52,0.42-1.04,0.65-1.55
			l0.07,0.02c-0.11,0.55-0.23,1.1-0.36,1.65c-0.13,0.54-0.27,1.09-0.41,1.63c-0.15,0.54-0.29,1.08-0.44,1.62
			c-0.15,0.54-0.31,1.08-0.47,1.61c-0.06,0.2-0.26,0.31-0.46,0.27l-0.01,0c-0.63-0.14-1.25-0.29-1.87-0.45l-1.86-0.49
			c-1.24-0.32-2.48-0.63-3.73-0.95l0.31-0.3c0.27,1.44,0.54,2.87,0.8,4.31l0.4,2.15l0.39,2.16L73.2,17.09z"/>
		<path class="st4" d="M80.22,7.16c0.07-0.27,0.14-0.53,0.2-0.8c-0.13,0.35-0.27,0.71-0.4,1.06C79.83,7.95,79.63,8.47,79.45,9
			c-0.14,0.41-0.28,0.83-0.42,1.24c-0.5-0.12-1.01-0.23-1.52-0.34l-1.88-0.39c-1.25-0.26-2.5-0.54-3.76-0.81l-0.01,0
			c-0.04-0.01-0.07-0.01-0.11,0c-0.13,0.03-0.22,0.17-0.19,0.3c0.33,1.42,0.66,2.84,1,4.27l0.17,0.71l-0.22-1.22
			c-0.24-1.3-0.48-2.6-0.72-3.91c1.12,0.28,2.23,0.56,3.34,0.85l1.86,0.49c0.62,0.16,1.24,0.31,1.87,0.46l0.01,0
			c0.2,0.04,0.4-0.07,0.46-0.27c0.16-0.54,0.32-1.07,0.47-1.61C79.93,8.24,80.07,7.7,80.22,7.16"/>
		<path class="st46" d="M50.94,19.54c0.09-0.37,0.22-0.73,0.38-1.08c0.16-0.35,0.35-0.69,0.58-1c0.23-0.32,0.49-0.61,0.81-0.86
			c0.16-0.12,0.33-0.23,0.51-0.32c0.18-0.09,0.37-0.17,0.57-0.22l0.05-0.01l0.06,0.02c0.94,0.31,1.9,0.6,2.86,0.88l1.44,0.4
			c0.48,0.13,0.97,0.25,1.45,0.37c0.97,0.24,1.94,0.46,2.92,0.65c0.49,0.1,0.98,0.18,1.47,0.26c0.49,0.08,0.99,0.15,1.49,0.21
			c-1,0.03-2.01-0.04-3.01-0.16c-0.5-0.06-1-0.14-1.49-0.22c-0.5-0.09-0.99-0.19-1.48-0.29c-0.49-0.1-0.98-0.23-1.47-0.35
			l-0.73-0.19c-0.24-0.07-0.48-0.14-0.72-0.21c-0.96-0.28-1.92-0.6-2.86-0.96l0.11,0.01c-0.17,0.04-0.34,0.09-0.5,0.16
			c-0.16,0.07-0.32,0.16-0.47,0.26c-0.15,0.1-0.29,0.22-0.43,0.34c-0.13,0.12-0.26,0.26-0.38,0.4c-0.24,0.28-0.46,0.59-0.65,0.92
			c-0.1,0.16-0.19,0.33-0.27,0.5C51.09,19.19,51.01,19.36,50.94,19.54"/>
		<g class="st47">
			<g>
				<defs>
					<rect id="SVGID_41_" x="71.26" y="8.32" width="1.84" height="1.89"/>
				</defs>
				<clipPath id="SVGID_42_">
					<use xlink:href="#SVGID_41_"  style="overflow:visible;"/>
				</clipPath>
				<path class="st48" d="M71.69,10.21c-0.1-0.29-0.18-0.59-0.26-0.88c-0.04-0.15-0.08-0.3-0.11-0.45
					c-0.02-0.08-0.03-0.15-0.04-0.23c-0.01-0.08-0.02-0.15-0.01-0.24c0-0.01,0-0.03,0.01-0.04c0.01-0.01,0.01-0.02,0.02-0.03
					c0-0.01,0.04-0.02,0.04-0.01c0.02,0,0.05,0,0.07,0c0.04,0,0.08,0.01,0.12,0.01c0.08,0.01,0.15,0.02,0.23,0.04
					c0.15,0.03,0.3,0.05,0.46,0.08c0.3,0.06,0.6,0.13,0.9,0.2c-0.15-0.02-0.3-0.04-0.46-0.06l-0.45-0.07l-0.46-0.07l-0.22-0.03
					c-0.04,0-0.08-0.01-0.11-0.01c-0.02,0-0.03,0-0.05,0h0c0,0,0,0,0.01,0c0.01,0,0.01,0,0.01-0.01c0.01-0.01,0-0.01,0.01-0.01
					c0,0,0,0.01,0,0.01c-0.01,0.06,0,0.14,0.01,0.22c0.01,0.07,0.02,0.15,0.04,0.22c0.03,0.15,0.06,0.3,0.09,0.45L71.69,10.21z"/>
			</g>
		</g>
		<g class="st47">
			<g>
				<defs>
					<rect id="SVGID_43_" x="79.1" y="4.79" width="1.53" height="4.15"/>
				</defs>
				<clipPath id="SVGID_44_">
					<use xlink:href="#SVGID_43_"  style="overflow:visible;"/>
				</clipPath>
				<path class="st49" d="M79.1,8.94c0.1-0.35,0.21-0.7,0.33-1.06c0.12-0.35,0.24-0.7,0.36-1.05c0.13-0.35,0.25-0.69,0.39-1.04
					c0.14-0.34,0.27-0.69,0.46-1.01c-0.08,0.17-0.14,0.34-0.2,0.52l-0.19,0.52l-0.37,1.04L79.5,7.91C79.37,8.26,79.24,8.6,79.1,8.94
					"/>
			</g>
		</g>
		<g class="st50">
			<g>
				<defs>
					<rect id="SVGID_45_" x="77.39" y="0.65" width="3.81" height="3.43"/>
				</defs>
				<clipPath id="SVGID_46_">
					<use xlink:href="#SVGID_45_"  style="overflow:visible;"/>
				</clipPath>
				<path class="st51" d="M80.29,1.23l-2.9-0.58c0,0-0.06,2.55,3.52,3.36c0.1,0.02,0.2,0.04,0.29,0.06
					C80.32,3.02,79.57,1.79,80.29,1.23"/>
			</g>
		</g>
		<path class="st5" d="M86.7,2.18c-0.09,0.5-2.24,0.53-4.8,0.06C79.33,1.78,77.34,1,77.42,0.5c0.09-0.5,2.24-0.53,4.8-0.06
			C84.78,0.9,86.79,1.68,86.7,2.18"/>
		<path class="st52" d="M86.92,2.22c0,0.06-0.03,0.11-0.07,0.16c-0.04,0.04-0.08,0.08-0.13,0.11c-0.1,0.06-0.2,0.11-0.31,0.14
			c-0.21,0.07-0.43,0.11-0.65,0.14c-0.44,0.06-0.88,0.08-1.32,0.07c-0.88-0.01-1.75-0.12-2.61-0.27c-0.86-0.16-1.72-0.38-2.55-0.68
			c-0.42-0.15-0.83-0.33-1.22-0.54c-0.2-0.11-0.39-0.23-0.57-0.37c-0.09-0.07-0.18-0.15-0.25-0.25c-0.03-0.05-0.07-0.1-0.09-0.16
			c-0.02-0.06-0.03-0.12-0.02-0.18c0,0.06,0.02,0.12,0.05,0.16c0.03,0.05,0.07,0.09,0.11,0.12c0.08,0.07,0.17,0.14,0.27,0.19
			c0.19,0.11,0.39,0.2,0.59,0.28c0.2,0.08,0.41,0.15,0.61,0.22c0.21,0.06,0.41,0.13,0.62,0.19c0.84,0.23,1.68,0.42,2.53,0.58
			c0.85,0.16,1.7,0.29,2.56,0.37c0.43,0.03,0.86,0.06,1.29,0.06c0.22,0,0.43-0.02,0.64-0.05c0.11-0.01,0.21-0.04,0.31-0.08
			c0.05-0.02,0.09-0.05,0.14-0.08C86.87,2.32,86.9,2.28,86.92,2.22"/>
		<path class="st4" d="M83,1.07c0-0.56-0.45-1.01-1.01-1.01c-0.56,0-1.01,0.45-1.01,1.01c0,0.56,0.45,1.01,1.01,1.01
			C82.55,2.08,83,1.63,83,1.07"/>
		<path class="st13" d="M87.55,78.16c-0.55,0.15-1.11,0.23-1.69,0.22c-0.29,0-0.58-0.03-0.86-0.09c-0.28-0.06-0.57-0.17-0.82-0.35
			c-0.25-0.18-0.45-0.46-0.52-0.76c-0.07-0.3-0.05-0.61,0.03-0.89l0.03-0.11l0.04-0.1l0.08-0.2c0.06-0.13,0.12-0.26,0.18-0.39
			c0.07-0.13,0.14-0.25,0.22-0.37c0.08-0.11,0.16-0.23,0.24-0.34c-0.06,0.13-0.11,0.26-0.17,0.38c-0.05,0.13-0.1,0.26-0.16,0.39
			c-0.05,0.13-0.09,0.26-0.13,0.39l-0.05,0.2l-0.03,0.1l-0.01,0.1c-0.05,0.26-0.06,0.54,0.01,0.78c0.07,0.24,0.21,0.45,0.42,0.6
			c0.2,0.15,0.46,0.25,0.72,0.32c0.26,0.07,0.54,0.11,0.81,0.13C86.42,78.2,86.99,78.19,87.55,78.16"/>
		<path class="st31" d="M77.27,58.89c0,2.77-1.67,3.08-3.93,3.67c-2.68,0.7-5.17-1.2-5.17-3.97c0-2.77,0.95-5.72,5.02-5.02
			C75.93,54.03,77.27,56.11,77.27,58.89"/>
		<path class="st53" d="M68.78,58.2c0-1.69,0.36-3.44,1.55-4.4c-1.69,0.8-2.16,2.83-2.16,4.78c0,2.78,2.49,4.67,5.17,3.97
			c1.21-0.32,2.24-0.55,2.95-1.12c-0.64,0.31-1.44,0.5-2.34,0.74C71.27,62.87,68.78,60.98,68.78,58.2"/>
		<path class="st31" d="M54.34,64.97c0,0-0.83,6.96-0.5,11.78c0.33,4.82,22.86,4.36,22.86,4.36l0.83-12.95
			C77.53,68.16,57.43,67.99,54.34,64.97"/>
		<path class="st53" d="M54.66,76.03c-0.24-3.59,0.16-8.36,0.37-10.56c-0.29-0.16-0.53-0.33-0.71-0.5c0,0-0.83,6.96-0.51,11.78
			c0.33,4.82,22.86,4.36,22.86,4.36l0.05-0.71C72.73,80.42,54.95,80.31,54.66,76.03"/>
	</g>
	<g>
		<defs>
			<path id="SVGID_47_" d="M68.17,58.59c0,2.77,2.49,4.67,5.17,3.97c2.27-0.59,3.93-0.9,3.93-3.67c0-2.77-1.35-4.85-4.09-5.32
				c-0.41-0.07-0.79-0.1-1.14-0.1C68.93,53.46,68.17,56.09,68.17,58.59"/>
		</defs>
		<clipPath id="SVGID_48_">
			<use xlink:href="#SVGID_47_"  style="overflow:visible;"/>
		</clipPath>
		<path class="st54" d="M69,57.36c0.1-0.03,0.19-0.04,0.28-0.05c0.09-0.01,0.19,0,0.28,0.01c0.09,0.01,0.18,0.03,0.27,0.05
			c0.09,0.02,0.18,0.06,0.27,0.1c-0.09,0.03-0.19,0.04-0.28,0.05c-0.09,0-0.18,0-0.28-0.01c-0.09-0.01-0.18-0.03-0.27-0.05
			C69.18,57.44,69.09,57.41,69,57.36"/>
		<path class="st54" d="M69.46,59.58c0.07-0.07,0.14-0.13,0.22-0.18c0.08-0.05,0.16-0.09,0.24-0.13c0.08-0.04,0.17-0.07,0.26-0.09
			c0.09-0.02,0.18-0.04,0.28-0.04c-0.07,0.07-0.14,0.13-0.22,0.18c-0.08,0.05-0.16,0.09-0.25,0.13c-0.08,0.04-0.17,0.07-0.26,0.09
			C69.65,59.56,69.56,59.58,69.46,59.58"/>
		<path class="st54" d="M70.97,61.27c0.02-0.1,0.06-0.18,0.1-0.27c0.04-0.08,0.09-0.16,0.15-0.23c0.05-0.08,0.11-0.15,0.18-0.21
			c0.07-0.07,0.14-0.13,0.22-0.18c-0.02,0.1-0.06,0.18-0.1,0.27c-0.04,0.08-0.09,0.16-0.14,0.23c-0.05,0.07-0.11,0.15-0.18,0.21
			C71.12,61.15,71.05,61.22,70.97,61.27"/>
		<path class="st54" d="M73.12,61.97c-0.03-0.09-0.04-0.19-0.05-0.28c-0.01-0.09,0-0.19,0.01-0.27c0.01-0.09,0.03-0.18,0.05-0.27
			c0.02-0.09,0.05-0.18,0.1-0.27c0.03,0.09,0.04,0.19,0.05,0.28c0,0.09,0,0.19-0.01,0.28c-0.01,0.09-0.03,0.18-0.05,0.27
			C73.2,61.8,73.17,61.89,73.12,61.97"/>
		<path class="st54" d="M75.33,61.51c-0.07-0.07-0.13-0.14-0.18-0.22c-0.05-0.08-0.09-0.16-0.13-0.24c-0.04-0.08-0.07-0.17-0.1-0.26
			c-0.02-0.09-0.04-0.18-0.04-0.28c0.08,0.07,0.13,0.14,0.18,0.22c0.05,0.08,0.09,0.16,0.13,0.24c0.04,0.09,0.07,0.17,0.09,0.26
			C75.31,61.32,75.33,61.41,75.33,61.51"/>
		<path class="st54" d="M77.02,60.01c-0.1-0.02-0.19-0.06-0.27-0.1c-0.08-0.04-0.16-0.09-0.23-0.14c-0.08-0.06-0.15-0.12-0.21-0.18
			c-0.07-0.07-0.13-0.14-0.18-0.22c0.1,0.02,0.19,0.06,0.27,0.1c0.08,0.04,0.16,0.09,0.24,0.15c0.08,0.05,0.15,0.11,0.21,0.18
			C76.9,59.85,76.97,59.92,77.02,60.01"/>
		<path class="st54" d="M77.73,57.86c-0.1,0.03-0.19,0.04-0.28,0.05c-0.09,0-0.18,0-0.28-0.01c-0.09-0.01-0.18-0.02-0.27-0.05
			c-0.09-0.02-0.18-0.05-0.26-0.1c0.1-0.03,0.19-0.04,0.28-0.05c0.09,0,0.18,0,0.28,0.01c0.09,0.01,0.18,0.03,0.27,0.05
			C77.55,57.78,77.64,57.81,77.73,57.86"/>
		<path class="st54" d="M77.27,55.64c-0.07,0.07-0.14,0.13-0.22,0.18c-0.08,0.05-0.16,0.09-0.24,0.13
			c-0.08,0.04-0.17,0.07-0.26,0.09c-0.09,0.03-0.18,0.04-0.28,0.04c0.07-0.08,0.14-0.13,0.22-0.18c0.08-0.05,0.16-0.09,0.24-0.13
			c0.08-0.04,0.17-0.07,0.26-0.09C77.07,55.67,77.17,55.64,77.27,55.64"/>
		<path class="st54" d="M75.76,53.96c-0.02,0.1-0.06,0.19-0.1,0.27c-0.04,0.08-0.09,0.16-0.15,0.24c-0.05,0.08-0.11,0.15-0.18,0.21
			c-0.07,0.06-0.14,0.13-0.22,0.18c0.02-0.1,0.06-0.19,0.1-0.27c0.04-0.08,0.09-0.16,0.14-0.23c0.05-0.08,0.11-0.15,0.18-0.21
			C75.6,54.07,75.67,54.01,75.76,53.96"/>
		<path class="st54" d="M73.61,53.25c0.03,0.1,0.04,0.19,0.05,0.28c0,0.09,0,0.19-0.01,0.28c-0.01,0.09-0.03,0.18-0.05,0.27
			c-0.02,0.09-0.05,0.18-0.1,0.27c-0.03-0.1-0.04-0.19-0.05-0.28c-0.01-0.09,0-0.18,0.01-0.28c0.01-0.09,0.02-0.18,0.05-0.27
			C73.53,53.42,73.56,53.33,73.61,53.25"/>
		<path class="st54" d="M71.4,53.71c0.07,0.07,0.13,0.14,0.18,0.22c0.05,0.08,0.09,0.16,0.13,0.25c0.04,0.08,0.07,0.17,0.09,0.26
			c0.02,0.09,0.04,0.18,0.04,0.28c-0.07-0.07-0.13-0.14-0.18-0.22c-0.05-0.08-0.09-0.16-0.13-0.24c-0.04-0.08-0.07-0.17-0.09-0.26
			C71.42,53.9,71.4,53.81,71.4,53.71"/>
		<path class="st54" d="M69.71,55.21c0.1,0.02,0.19,0.06,0.27,0.1c0.08,0.04,0.16,0.09,0.24,0.14c0.07,0.06,0.14,0.12,0.21,0.18
			c0.07,0.07,0.13,0.14,0.18,0.22c-0.1-0.02-0.18-0.06-0.27-0.1c-0.08-0.04-0.16-0.09-0.24-0.14c-0.07-0.06-0.14-0.11-0.21-0.18
			C69.82,55.37,69.76,55.3,69.71,55.21"/>
		<path class="st55" d="M70.22,60.47c0.11-0.14,0.24-0.26,0.38-0.38c0.14-0.11,0.28-0.22,0.45-0.3c-0.11,0.14-0.25,0.26-0.38,0.38
			C70.53,60.28,70.38,60.39,70.22,60.47"/>
		<path class="st55" d="M72.07,61.66c0.03-0.18,0.08-0.35,0.14-0.52c0.06-0.17,0.13-0.33,0.23-0.48c-0.03,0.18-0.08,0.35-0.14,0.52
			C72.24,61.34,72.17,61.5,72.07,61.66"/>
		<path class="st55" d="M74.27,61.76c-0.07-0.17-0.11-0.35-0.14-0.52c-0.03-0.18-0.05-0.35-0.04-0.54c0.07,0.17,0.1,0.35,0.14,0.52
			C74.25,61.4,74.28,61.58,74.27,61.76"/>
		<path class="st55" d="M76.22,60.75c-0.14-0.11-0.26-0.25-0.38-0.38c-0.11-0.14-0.22-0.28-0.3-0.44c0.14,0.11,0.26,0.25,0.38,0.38
			C76.03,60.45,76.14,60.59,76.22,60.75"/>
		<path class="st55" d="M77.41,58.9c-0.18-0.03-0.35-0.08-0.52-0.14c-0.17-0.06-0.33-0.13-0.49-0.23c0.18,0.03,0.35,0.08,0.52,0.14
			C77.09,58.74,77.26,58.81,77.41,58.9"/>
		<path class="st55" d="M77.51,56.71c-0.17,0.07-0.35,0.1-0.52,0.14c-0.18,0.03-0.35,0.05-0.54,0.04c0.17-0.07,0.35-0.11,0.52-0.14
			C77.16,56.72,77.33,56.7,77.51,56.71"/>
		<path class="st55" d="M76.51,54.75c-0.11,0.14-0.25,0.26-0.38,0.38c-0.14,0.11-0.28,0.22-0.45,0.3c0.12-0.14,0.25-0.26,0.38-0.38
			C76.2,54.94,76.34,54.84,76.51,54.75"/>
		<path class="st55" d="M74.66,53.56c-0.02,0.18-0.08,0.35-0.14,0.52c-0.07,0.17-0.14,0.33-0.23,0.49c0.03-0.18,0.08-0.35,0.14-0.52
			C74.49,53.88,74.56,53.72,74.66,53.56"/>
		<path class="st55" d="M72.46,53.46c0.07,0.17,0.11,0.34,0.14,0.52c0.03,0.18,0.05,0.35,0.04,0.54c-0.07-0.17-0.11-0.35-0.14-0.52
			C72.47,53.82,72.45,53.64,72.46,53.46"/>
		<path class="st55" d="M70.51,54.47c0.14,0.11,0.26,0.25,0.38,0.38c0.11,0.14,0.22,0.28,0.3,0.44c-0.14-0.11-0.26-0.25-0.38-0.38
			C70.7,54.77,70.59,54.63,70.51,54.47"/>
		<path class="st55" d="M69.32,56.32c0.18,0.03,0.35,0.08,0.52,0.14c0.17,0.06,0.33,0.13,0.49,0.23c-0.18-0.03-0.35-0.08-0.52-0.14
			C69.63,56.49,69.47,56.42,69.32,56.32"/>
		<path class="st55" d="M69.21,58.51c0.17-0.07,0.35-0.1,0.52-0.14c0.18-0.03,0.35-0.05,0.54-0.04c-0.17,0.07-0.35,0.11-0.52,0.14
			C69.57,58.5,69.39,58.52,69.21,58.51"/>
	</g>
	<g>
		<line class="st56" x1="72.72" y1="58.08" x2="76.29" y2="57.86"/>
		<line class="st57" x1="72.72" y1="58.08" x2="71.9" y2="57.25"/>
		<path class="st13" d="M58.69,63.36c0,0.55-0.44,0.99-0.99,0.99c-0.55,0-0.99-0.45-0.99-0.99c0-0.55,0.45-1,0.99-1
			C58.25,62.36,58.69,62.81,58.69,63.36"/>
		<path class="st14" d="M58.22,62.51c0.19,0.18,0.31,0.44,0.31,0.72c0,0.55-0.45,1-0.99,1c-0.19,0-0.37-0.06-0.52-0.15
			c0.18,0.17,0.42,0.27,0.68,0.27c0.55,0,0.99-0.45,0.99-0.99C58.69,63,58.5,62.69,58.22,62.51"/>
		<path class="st11" d="M66.24,64.64c0,0.55-0.44,0.99-0.99,0.99c-0.55,0-0.99-0.44-0.99-0.99c0-0.55,0.45-0.99,0.99-0.99
			C65.79,63.65,66.24,64.09,66.24,64.64"/>
		<path class="st12" d="M65.76,63.8c0.19,0.18,0.31,0.44,0.31,0.72c0,0.55-0.44,0.99-0.99,0.99c-0.19,0-0.37-0.06-0.52-0.15
			c0.18,0.17,0.42,0.27,0.68,0.27c0.55,0,0.99-0.44,0.99-0.99C66.24,64.28,66.05,63.97,65.76,63.8"/>
		<path class="st43" d="M73.31,64.97c0,0.55-0.45,0.99-1,0.99s-0.99-0.44-0.99-0.99c0-0.55,0.44-0.99,0.99-0.99
			S73.31,64.42,73.31,64.97"/>
		<path class="st6" d="M72.83,64.13c0.19,0.18,0.31,0.44,0.31,0.72c0,0.55-0.44,0.99-0.99,0.99c-0.19,0-0.37-0.05-0.52-0.15
			c0.18,0.17,0.42,0.27,0.68,0.27c0.55,0,1-0.44,1-0.99C73.31,64.61,73.12,64.3,72.83,64.13"/>
		<path class="st45" d="M62.58,63.98c0,0.74-0.6,1.34-1.34,1.34c-0.74,0-1.34-0.6-1.34-1.34c0-0.74,0.6-1.34,1.34-1.34
			C61.98,62.64,62.58,63.24,62.58,63.98"/>
		<path class="st42" d="M61.94,62.84c0.26,0.25,0.42,0.59,0.42,0.97c0,0.74-0.6,1.34-1.34,1.34c-0.26,0-0.5-0.08-0.7-0.2
			c0.24,0.23,0.56,0.37,0.92,0.37c0.74,0,1.34-0.6,1.34-1.34C62.58,63.5,62.32,63.08,61.94,62.84"/>
		<path class="st36" d="M54.66,57.41c0,0-0.67-2.35,0-4.97c0,0,6.45,1.8,11.61,1.74c0,0-1.25,3.02-0.84,4.83
			C65.43,59,56.2,58.73,54.66,57.41"/>
		<path class="st53" d="M55.1,52.55c-0.29-0.07-0.44-0.12-0.44-0.12c-0.67,2.62,0,4.97,0,4.97C56.2,58.73,65.43,59,65.43,59
			c-0.04-0.19-0.07-0.39-0.08-0.6c-2.14-0.09-8.81-0.47-10.1-1.57C55.25,56.83,54.7,54.88,55.1,52.55"/>
		<polyline class="st58" points="54.96,54.73 57.02,55.3 58.28,54.12 58.69,57.2 59.9,55.3 60.32,56.12 61.72,54.42 61.95,57.2 
			62.58,55.72 65.64,56.12 		"/>
		<g class="st59">
			<g>
				<defs>
					<rect id="SVGID_49_" x="52.79" y="26.67" width="2.72" height="5.61"/>
				</defs>
				<clipPath id="SVGID_50_">
					<use xlink:href="#SVGID_49_"  style="overflow:visible;"/>
				</clipPath>
				<path class="st60" d="M52.79,26.67c0.12,0.52,0.28,1.02,0.46,1.51c0.05,0.12,0.09,0.24,0.14,0.36c0.05,0.12,0.1,0.24,0.15,0.36
					c0.06,0.12,0.1,0.24,0.16,0.36l0.17,0.35c0.06,0.12,0.12,0.23,0.18,0.35l0.09,0.17l0.1,0.17l0.19,0.34
					c0.07,0.11,0.14,0.22,0.21,0.33c0.07,0.11,0.14,0.22,0.21,0.33l0.22,0.33c0.15,0.22,0.31,0.43,0.45,0.65
					c-0.19-0.18-0.38-0.37-0.56-0.56c-0.17-0.2-0.35-0.4-0.5-0.62c-0.33-0.42-0.59-0.89-0.84-1.36c-0.23-0.48-0.43-0.98-0.58-1.49
					C52.89,27.73,52.79,27.2,52.79,26.67"/>
			</g>
		</g>
		<path class="st61" d="M64.55,24.18c0,1.48-1.23,2.99-2.68,2.68c-2.05-0.42-2.69-1.2-2.69-2.68c0-1.48,1.2-2.68,2.69-2.68
			C63.94,21.49,64.55,22.69,64.55,24.18"/>
		<path class="st53" d="M63.99,25.01c0,0.93-0.77,1.87-1.68,1.68c-1.28-0.27-1.68-0.75-1.68-1.68c0-0.93,0.75-1.68,1.68-1.68
			C63.61,23.33,63.99,24.08,63.99,25.01"/>
		<path class="st31" d="M62.15,21.78c0.86,0,1.46,0.21,1.88,0.55c-0.41-0.51-1.09-0.84-2.16-0.84c-1.48,0-2.69,1.2-2.69,2.68
			c0,0.83,0.2,1.44,0.74,1.89c-0.33-0.41-0.46-0.94-0.46-1.61C59.46,22.98,60.66,21.78,62.15,21.78"/>
		<path class="st61" d="M62.4,23.45c0,0.37-0.3,0.66-0.66,0.66c-0.37,0-0.66-0.3-0.66-0.66c0-0.37,0.3-0.66,0.66-0.66
			C62.11,22.79,62.4,23.08,62.4,23.45"/>
		<path class="st61" d="M73.03,25.47c0,1.16-0.96,2.34-2.1,2.1c-1.6-0.33-2.1-0.94-2.1-2.1c0-1.16,0.94-2.1,2.1-2.1
			C72.56,23.37,73.03,24.31,73.03,25.47"/>
		<path class="st53" d="M72.59,26.12c0,0.72-0.6,1.46-1.32,1.31c-1-0.21-1.31-0.59-1.31-1.31c0-0.73,0.59-1.31,1.31-1.31
			C72.29,24.81,72.59,25.4,72.59,26.12"/>
		<path class="st31" d="M71.15,23.59c0.67,0,1.15,0.16,1.47,0.43c-0.32-0.4-0.85-0.65-1.69-0.65c-1.16,0-2.1,0.94-2.1,2.1
			c0,0.65,0.15,1.13,0.58,1.48c-0.26-0.32-0.36-0.74-0.36-1.26C69.05,24.53,69.99,23.59,71.15,23.59"/>
		<path class="st61" d="M71.13,25.04c0,0.29-0.23,0.52-0.52,0.52c-0.29,0-0.52-0.23-0.52-0.52c0-0.29,0.23-0.52,0.52-0.52
			C70.9,24.52,71.13,24.75,71.13,25.04"/>
	</g>
</g>
</svg>
