<?xml version="1.0" encoding="utf-8"?>
<!-- Generator: Adobe Illustrator 19.0.0, SVG Export Plug-In . SVG Version: 6.00 Build 0)  -->
<svg version="1.1" id="Layer_1" xmlns="http://www.w3.org/2000/svg" xmlns:xlink="http://www.w3.org/1999/xlink" x="0px" y="0px"
	 viewBox="0 0 50 50" enable-background="new 0 0 50 50" xml:space="preserve">
<g id="XMLID_243_">
	<path id="XMLID_180_" fill="#4DAD9B" d="M47.5,26.1C47.5,42.9,37.4,50,25,50S2.5,42.9,2.5,26.1C2.5,9.4,13.4,5,25.8,5
		C38.2,5,47.5,9.4,47.5,26.1z"/>
	<g id="XMLID_102_">
		<path id="XMLID_165_" fill="#42292F" d="M12.6,43.7C12.6,43.7,12.6,43.7,12.6,43.7c0-0.2,0-0.3,0-0.4c0-0.1,0-0.3,0-0.4
			c0-0.2,0.1-0.4,0.1-0.6c0.1-0.4,0.3-1,0.6-1.5c0.3-0.6,0.7-1.2,1.3-1.7c0.5-0.6,1.2-1.1,2-1.6c0.8-0.5,1.6-0.9,2.5-1.2
			c0.9-0.3,1.9-0.6,2.9-0.7c0.2,0,0.5-0.1,0.7-0.1c0.2,0,0.5-0.1,0.7-0.1c0.2,0,0.5,0,0.7,0l0.8,0c0.8,0,2,0.1,2.9,0.2
			c1,0.2,1.9,0.4,2.9,0.7c0.9,0.3,1.8,0.8,2.5,1.2c0.8,0.5,1.4,1,2,1.6c0.5,0.6,1,1.2,1.3,1.7c0.3,0.6,0.5,1.1,0.6,1.5
			c0.1,0.2,0.1,0.4,0.1,0.6c0,0.2,0,0.3,0,0.4c0,0.1,0,0.2,0,0.3c0,0.1,0,0.1,0,0.1c0,0.2-0.2,0.3-0.3,0.3c-0.1,0-0.2,0-0.2-0.1l0,0
			c0,0-0.1-0.1-0.2-0.2c-0.1-0.1-0.2-0.2-0.3-0.2c-0.1,0-0.1-0.1-0.2-0.1c-0.1-0.1-0.1-0.1-0.2-0.2c-0.3-0.2-0.7-0.5-1.1-0.7
			c-0.4-0.2-0.9-0.5-1.5-0.7c-1.1-0.4-2.3-0.7-3.7-0.9c-0.7-0.1-1.4-0.2-2.2-0.2c-0.8,0-1.4-0.1-2.4-0.1l-0.5,0c-0.2,0-0.4,0-0.6,0
			c-0.4,0-0.8,0-1.2,0c-0.8,0-1.5,0.1-2.2,0.2c-1.4,0.2-2.7,0.5-3.7,0.9c-0.5,0.2-1,0.4-1.5,0.7c-0.4,0.2-0.8,0.5-1.1,0.7
			c-0.2,0.1-0.3,0.2-0.4,0.3c-0.1,0.1-0.2,0.2-0.3,0.2c-0.1,0.1-0.1,0.1-0.2,0.2c0,0-0.1,0.1-0.1,0.1c-0.1,0.2-0.2,0.2-0.4,0.2
			C12.6,44.1,12.5,43.9,12.6,43.7z"/>
		<g id="XMLID_156_">
			<defs>
				<path id="XMLID_157_" d="M12.6,43.7C12.6,43.7,12.6,43.7,12.6,43.7c0-0.2,0-0.3,0-0.4c0-0.1,0-0.3,0-0.4c0-0.2,0.1-0.4,0.1-0.6
					c0.1-0.4,0.3-1,0.6-1.5c0.3-0.6,0.7-1.2,1.3-1.7c0.5-0.6,1.2-1.1,2-1.6c0.8-0.5,1.6-0.9,2.5-1.2c0.9-0.3,1.9-0.6,2.9-0.7
					c0.2,0,0.5-0.1,0.7-0.1c0.2,0,0.5-0.1,0.7-0.1c0.2,0,0.5,0,0.7,0l0.8,0c0.8,0,2,0.1,2.9,0.2c1,0.2,1.9,0.4,2.9,0.7
					c0.9,0.3,1.8,0.8,2.5,1.2c0.8,0.5,1.4,1,2,1.6c0.5,0.6,1,1.2,1.3,1.7c0.3,0.6,0.5,1.1,0.6,1.5c0.1,0.2,0.1,0.4,0.1,0.6
					c0,0.2,0,0.3,0,0.4c0,0.1,0,0.2,0,0.3c0,0.1,0,0.1,0,0.1c0,0.2-0.2,0.3-0.3,0.3c-0.1,0-0.2,0-0.2-0.1l0,0c0,0-0.1-0.1-0.2-0.2
					c-0.1-0.1-0.2-0.2-0.3-0.2c-0.1,0-0.1-0.1-0.2-0.1c-0.1-0.1-0.1-0.1-0.2-0.2c-0.3-0.2-0.7-0.5-1.1-0.7c-0.4-0.2-0.9-0.5-1.5-0.7
					c-1.1-0.4-2.3-0.7-3.7-0.9c-0.7-0.1-1.4-0.2-2.2-0.2c-0.8,0-1.4-0.1-2.4-0.1l-0.5,0c-0.2,0-0.4,0-0.6,0c-0.4,0-0.8,0-1.2,0
					c-0.8,0-1.5,0.1-2.2,0.2c-1.4,0.2-2.7,0.5-3.7,0.9c-0.5,0.2-1,0.4-1.5,0.7c-0.4,0.2-0.8,0.5-1.1,0.7c-0.2,0.1-0.3,0.2-0.4,0.3
					c-0.1,0.1-0.2,0.2-0.3,0.2c-0.1,0.1-0.1,0.1-0.2,0.2c0,0-0.1,0.1-0.1,0.1c-0.1,0.2-0.2,0.2-0.4,0.2
					C12.6,44.1,12.5,43.9,12.6,43.7z"/>
			</defs>
			<clipPath id="XMLID_2_">
				<use xlink:href="#XMLID_157_"  overflow="visible"/>
			</clipPath>
			<g id="XMLID_158_" clip-path="url(#XMLID_2_)">
				<path id="XMLID_164_" fill="#F1F3E8" d="M21.5,41.1c0,0-0.7-1.4-1-1.2S20,41.1,20,41.1s-0.6-1-0.9-0.9c-0.4,0.1-0.5,1.2-0.5,1.2
					s-0.8-1.1-1.1-1c-0.2,0.1-0.3,1.2-0.3,1.2s-0.6-0.8-1-0.6c-0.4,0.2-0.3,1.4-0.3,1.4s-0.7-1.1-1-0.8c-0.3,0.3-0.3,1.3-0.3,1.3
					s-0.8-1-1-0.6c-0.2,0.4,0,1.6,0,1.6L21.5,41.1z"/>
				<path id="XMLID_163_" fill="#F1F3E8" d="M22.4,41.1c0,0,0.1-1.4,0.4-1.4s0.7,1,0.7,1s0.3-1.2,0.7-1.4c0.4-0.2,1.1,1.8,1.1,1.8
					S22.3,41.5,22.4,41.1z"/>
				<path id="XMLID_162_" fill="#F1F3E8" d="M27.6,41.1c0-0.1,0.1-1.4,0.5-1.1c0.4,0.3,0.7,1.4,0.7,1.4s0.1-1.6,0.5-1.4
					c0.4,0.2,0.8,1.4,0.8,1.4s0.3-0.9,0.5-1.1s0.9,1.2,1,1.3S27.7,41.9,27.6,41.1z"/>
				<path id="XMLID_161_" fill="#F1F3E8" d="M32.7,42c0,0,0.5-1.5,0.8-1.2s0.2,1.5,0.2,1.5s0.6-1.3,0.9-0.8s0.2,1.6,0.2,1.6
					s0.4-1.3,0.6-1.2c0.2,0.1,0.8,1.6,0.8,1.6S32.9,43.5,32.7,42z"/>
				<path id="XMLID_160_" fill="#F1F3E8" d="M20.2,35.6c0,0,0.5,1.4,0,1.4s-0.9-1.2-0.9-1.2s0,1.6-0.2,1.7c-0.2,0.1-0.8-0.7-0.9-1
					c-0.1-0.2-0.1,1.2-0.2,1.3S16.7,37,16.7,37s0.4,1.3,0,1.3c-0.4,0-1-0.8-1-0.8l3.6-2.5L20.2,35.6z"/>
				<path id="XMLID_159_" fill="#F1F3E8" d="M32.5,36.7c0,0-0.5,1.2-0.7,1.1c-0.1-0.1-0.2-0.8-0.2-0.8s-0.9,0.8-1.1,0.6
					c-0.2-0.2,0-1.8,0-1.8s-0.9,1-1.1,1c-0.2,0.1-0.4-1.5-0.4-1.6s1.9-0.2,2-0.2C31.3,35,32.5,36.7,32.5,36.7z"/>
			</g>
			<use xlink:href="#XMLID_157_"  overflow="visible" fill="none" stroke="#22816C" stroke-width="0.594" stroke-miterlimit="10"/>
		</g>
	</g>
	<ellipse id="XMLID_141_" fill-rule="evenodd" clip-rule="evenodd" fill="#F1F3E8" cx="15.1" cy="23.3" rx="5.1" ry="4.4"/>
	<g id="XMLID_116_">
		<circle id="XMLID_140_" fill-rule="evenodd" clip-rule="evenodd" fill="#FFAF24" cx="14.8" cy="24" r="2.9"/>
		<circle id="XMLID_139_" fill-rule="evenodd" clip-rule="evenodd" fill="#42292F" cx="14.8" cy="24" r="1.5"/>
	</g>
	<path id="XMLID_142_" fill-rule="evenodd" clip-rule="evenodd" fill="#22816C" d="M21.4,22.1c0.1-0.2,0.1-0.4,0.1-0.5
		c0.4-2.5-2.1-4.9-5.6-5.4c-3.5-0.5-6.6,1.1-7,3.5c0,0.1,0,0.2,0,0.4C10.5,20.7,15.4,22.6,21.4,22.1z"/>
	<ellipse id="XMLID_146_" fill-rule="evenodd" clip-rule="evenodd" fill="#F1F3E8" cx="33.8" cy="23.3" rx="5.1" ry="4.4"/>
	<g id="XMLID_127_">
		<circle id="XMLID_145_" fill-rule="evenodd" clip-rule="evenodd" fill="#FFAF24" cx="34.2" cy="24.2" r="2.9"/>
		<circle id="XMLID_144_" fill-rule="evenodd" clip-rule="evenodd" fill="#42292F" cx="34.2" cy="24.2" r="1.5"/>
	</g>
	<path id="XMLID_137_" fill-rule="evenodd" clip-rule="evenodd" fill="#22816C" d="M27.6,22.3c-0.1-0.2-0.1-0.4-0.1-0.5
		c-0.5-2.5,2-5,5.4-5.6s6.6,0.8,7.1,3.3c0,0.1,0,0.2,0,0.4C38.5,20.6,33.6,22.6,27.6,22.3z"/>
	<g id="XMLID_179_">
		<defs>
			<path id="XMLID_167_" d="M47.5,26.1C47.5,42.9,37.4,50,25,50S2.5,42.9,2.5,26.1C2.5,9.4,13.4,5,25.8,5C38.2,5,47.5,9.4,47.5,26.1
				z"/>
		</defs>
		<clipPath id="XMLID_3_">
			<use xlink:href="#XMLID_167_"  overflow="visible"/>
		</clipPath>
		<g id="XMLID_138_" clip-path="url(#XMLID_3_)">
			<path id="XMLID_135_" fill="#3B9382" d="M20.9,48c0,0,5.3,1.7,9.6-0.4"/>
			<ellipse id="XMLID_133_" fill="#3B9382" cx="45.4" cy="36.5" rx="2.1" ry="1.9"/>
			<ellipse id="XMLID_147_" fill="#3B9382" cx="8.9" cy="45" rx="2.9" ry="2.6"/>
			<ellipse id="XMLID_148_" fill="#3B9382" cx="33.1" cy="50.3" rx="2.9" ry="2.6"/>
			<ellipse id="XMLID_149_" fill="#3B9382" cx="2.3" cy="18.6" rx="3.7" ry="3.3"/>
			<ellipse id="XMLID_152_" fill="#3B9382" cx="17.7" cy="7" rx="3.2" ry="2.9"/>
			<ellipse id="XMLID_153_" fill="#3B9382" cx="48.5" cy="19.9" rx="3.2" ry="2.9"/>
			<ellipse id="XMLID_154_" fill="#3B9382" cx="43.6" cy="28.9" rx="0.6" ry="0.6"/>
			<ellipse id="XMLID_175_" fill="#3B9382" cx="38.6" cy="43.7" rx="0.6" ry="0.6"/>
			<ellipse id="XMLID_176_" fill="#3B9382" cx="18.5" cy="46.8" rx="0.6" ry="0.6"/>
			<ellipse id="XMLID_177_" fill="#3B9382" cx="24.5" cy="11.2" rx="0.6" ry="0.6"/>
			<ellipse id="XMLID_155_" fill="#3B9382" cx="18.4" cy="32.4" rx="1.6" ry="1.2"/>
			
				<ellipse id="XMLID_178_" transform="matrix(0.8112 0.5848 -0.5848 0.8112 20.4715 2.9161)" fill="#3B9382" cx="5.7" cy="33.2" rx="1.8" ry="2"/>
			<ellipse id="XMLID_166_" fill="#3B9382" cx="31.3" cy="33.7" rx="0.9" ry="0.8"/>
			<ellipse id="XMLID_174_" fill="#3B9382" cx="36.1" cy="9.7" rx="2.6" ry="2"/>
		</g>
	</g>
	<g id="XMLID_181_">
		<path id="XMLID_204_" fill-rule="evenodd" clip-rule="evenodd" fill="#CE7D09" d="M36,10.1c0.1,0,0.9,1.5,0.9,1.6
			c0.5,0.7,1,1.3,1.5,1.9c0.5,0.6,1.3,1.5,2.2,1.3c1.4-0.2,1.8-2.4,2.2-3.5c0.9-2.6,1.6-5.3,1.7-8c0-0.8,0.2-2.9-0.6-3.4
			c-1-0.7-1.4,1.7-1.5,2.2c-0.4,1.9-1.4,3.6-2.8,5C38.7,8.4,37.3,9.4,36,10.1z"/>
		<g id="XMLID_195_">
			<defs>
				<path id="XMLID_196_" d="M36,10.1c0.1,0,0.9,1.5,0.9,1.6c0.5,0.7,1,1.3,1.5,1.9c0.5,0.6,1.3,1.5,2.2,1.3
					c1.4-0.2,1.8-2.4,2.2-3.5c0.9-2.6,1.6-5.3,1.7-8c0-0.8,0.2-2.9-0.6-3.4c-1-0.7-1.4,1.7-1.5,2.2c-0.4,1.9-1.4,3.6-2.8,5
					C38.7,8.4,37.3,9.4,36,10.1z"/>
			</defs>
			<clipPath id="XMLID_4_">
				<use xlink:href="#XMLID_196_"  overflow="visible"/>
			</clipPath>
			<g id="XMLID_197_" clip-path="url(#XMLID_4_)">
				
					<path id="XMLID_203_" fill-rule="evenodd" clip-rule="evenodd" fill="none" stroke="#F1F3E8" stroke-width="0.2641" stroke-miterlimit="10" d="
					M42.1,1.4c0,0,1.5,1.3,3.5,0.7"/>
				
					<path id="XMLID_202_" fill-rule="evenodd" clip-rule="evenodd" fill="none" stroke="#F1F3E8" stroke-width="0.2641" stroke-miterlimit="10" d="
					M41.8,2.7c0,0,1.4,1.4,3.3,1.3"/>
				
					<path id="XMLID_201_" fill-rule="evenodd" clip-rule="evenodd" fill="none" stroke="#F1F3E8" stroke-width="0.2641" stroke-miterlimit="10" d="
					M41,4.3c0,0,2.3,2.5,4.1,2.1"/>
				
					<path id="XMLID_200_" fill-rule="evenodd" clip-rule="evenodd" fill="none" stroke="#F1F3E8" stroke-width="0.2641" stroke-miterlimit="10" d="
					M40.3,5.8c-0.1,0.1,1.5,3.3,4,3.8"/>
				
					<path id="XMLID_199_" fill-rule="evenodd" clip-rule="evenodd" fill="none" stroke="#F1F3E8" stroke-width="0.2641" stroke-miterlimit="10" d="
					M39.1,7.2c0,0,1.6,4.4,4.3,5.8"/>
				
					<path id="XMLID_198_" fill-rule="evenodd" clip-rule="evenodd" fill="none" stroke="#F1F3E8" stroke-width="0.2641" stroke-miterlimit="10" d="
					M37,6.8c-0.2,0.3,0.5,6.3,5.8,8.6"/>
			</g>
		</g>
	</g>
	<g id="XMLID_183_">
		<path id="XMLID_193_" fill-rule="evenodd" clip-rule="evenodd" fill="#CE7D09" d="M14.1,10.1c-0.1,0-0.9,1.5-0.9,1.6
			c-0.5,0.7-1,1.3-1.5,1.9c-0.5,0.6-1.3,1.5-2.2,1.3c-1.4-0.2-1.8-2.4-2.2-3.5c-0.9-2.6-1.6-5.3-1.7-8c0-0.8-0.2-2.9,0.6-3.4
			c1-0.7,1.4,1.7,1.5,2.2C8.1,4.3,9,6,10.4,7.3C11.4,8.4,12.8,9.4,14.1,10.1z"/>
		<g id="XMLID_184_">
			<defs>
				<path id="XMLID_185_" d="M14.1,10.1c-0.1,0-0.9,1.5-0.9,1.6c-0.5,0.7-1,1.3-1.5,1.9c-0.5,0.6-1.3,1.5-2.2,1.3
					c-1.4-0.2-1.8-2.4-2.2-3.5c-0.9-2.6-1.6-5.3-1.7-8c0-0.8-0.2-2.9,0.6-3.4c1-0.7,1.4,1.7,1.5,2.2C8.1,4.3,9,6,10.4,7.3
					C11.4,8.4,12.8,9.4,14.1,10.1z"/>
			</defs>
			<clipPath id="XMLID_5_">
				<use xlink:href="#XMLID_185_"  overflow="visible"/>
			</clipPath>
			<g id="XMLID_186_" clip-path="url(#XMLID_5_)">
				
					<path id="XMLID_192_" fill-rule="evenodd" clip-rule="evenodd" fill="none" stroke="#F1F3E8" stroke-width="0.2641" stroke-miterlimit="10" d="
					M8,1.4c0,0-1.5,1.3-3.5,0.7"/>
				
					<path id="XMLID_191_" fill-rule="evenodd" clip-rule="evenodd" fill="none" stroke="#F1F3E8" stroke-width="0.2641" stroke-miterlimit="10" d="
					M8.3,2.7c0,0-1.4,1.4-3.3,1.3"/>
				
					<path id="XMLID_190_" fill-rule="evenodd" clip-rule="evenodd" fill="none" stroke="#F1F3E8" stroke-width="0.2641" stroke-miterlimit="10" d="
					M9.1,4.3c0,0-2.3,2.5-4.1,2.1"/>
				
					<path id="XMLID_189_" fill-rule="evenodd" clip-rule="evenodd" fill="none" stroke="#F1F3E8" stroke-width="0.2641" stroke-miterlimit="10" d="
					M9.8,5.8c0.1,0.1-1.5,3.3-4,3.8"/>
				
					<path id="XMLID_188_" fill-rule="evenodd" clip-rule="evenodd" fill="none" stroke="#F1F3E8" stroke-width="0.2641" stroke-miterlimit="10" d="
					M11,7.2c0,0-1.6,4.4-4.3,5.8"/>
				
					<path id="XMLID_187_" fill-rule="evenodd" clip-rule="evenodd" fill="none" stroke="#F1F3E8" stroke-width="0.2641" stroke-miterlimit="10" d="
					M13.2,6.8c0.2,0.3-0.5,6.3-5.8,8.6"/>
			</g>
		</g>
	</g>
</g>
</svg>
