<svg xmlns="http://www.w3.org/2000/svg" viewBox="0 0 123 60"><path d="M121 25.2c-2.7-5.5-4.7-7.3-5.5-7S96.4 8.3 89.9 5.6s-15-5.7-18.8-5c-3.7.8-15 3.8-15 3.8S52.9 3 51.5 3.1s-21.2.5-30 5.7c-8.7 5.2-11 6.7-10.8 7.8s.1 12.3-2.4 15.4-8 13-8 13v8.3s31.8 8 43.7 6.1l43.1-7.5c5.9-.6 20.9-4.7 21.7-4.7s13.6-6.7 13.6-6.7 1.4-9.8-1.4-15.3z" fill="#464d56"/><path d="M44.8 51.9c-7 .2-13.9-.8-20.9-1.7l-12.2-1.7c-1.5-.2-3.1-.4-4.5-.9-1.7-.6-3.2-1.4-4.7-2-.6-.2-1.3-.6-2-1-.2.3-.3.4-.3.4v7.1c14.3-3.7 29.5 4.7 44 1.7 3.4-.7 6.6-2 9.9-3.1-3 .7-6.1 1.1-9.3 1.2zM22.9 40.3l9.1 1.1a71.13 71.13 0 0 0 14.6-.6c-11.3-.1-22.5-2.6-32.8-7 2.2.1 4.4.2 6.6.5 3.5.5 7 1.5 10.5 2.1 6.9 1.1 13.9.5 20.7-.2-7.5-.4-14.8-2-22.1-3.7l-18.3-4.2c-.6-.1-.8-.8-1.1-1.7-.3 2.3-.9 4.4-1.8 5.5-.6.6-1.2 1.7-2 2.8.7 1 1.2 2.1 1.8 3.2l14.8 2.2z" fill="#3b3f44"/><path d="M114.7 18c-2.7-1-11.5-5.9-18.4-9.3-.1 0-.1-.1-.1-.1L95 8h-.1c-.4-.2-.8-.4-1.1-.6l-.1-.1c-.3-.1-.6-.3-.9-.4-.1-.1-.1-.1-.2-.1-.3-.1-.6-.3-.9-.5-.1 0-.1-.1-.1-.1-.4-.1-.6-.2-.9-.3-.1-.1-.1-.1-.2-.1-.3-.1-.5-.2-.8-.3-6.5-2.8-15-5.7-18.8-5-3.7.8-15 3.8-15 3.8S52.8 2.9 51.5 3h-1c-.1 0-.3 0-.4.1h-1.6c-.1 0-.2 0-.4.1-.1 0-.3 0-.4.1-.1 0-.3 0-.5.1-.2 0-.4.1-.6.1-.1 0-.2 0-.3.1-.1 0-.4.1-.5.1s-.3.1-.4.1-.3.1-.5.1c-.1.1-.2.1-.3.1s-.3.1-.5.1c-.1 0-.3.1-.5.1-.1 0-.3.1-.5.1s-.6-.3-.7-.3h-.6c-.1 0-.3.1-.5.1s-.3.1-.6.1c-.1 0-.3.1-.5.1-.2.1-.4.1-.6.1-.1 0-.3.1-.5.1-.3.1-.7.1-1.1.1-.1.1-.3.1-.5.1-.2.1-.5.1-.7.1-.1.1-.3.1-.5.1-.1-.3-.3-.3-.5-.3-.2.1-.3.1-.6.1-.2.1-.4.1-.6.1-.2.1-.4.1-.6.1-.2.1-.4.1-.6.1-.1 0-.2 0-.4.1s-.4.1-.6.1c-.2.1-.3.1-.6.1s-.4.1-.6.1c-.1.1-.3.1-.5.1-.2.1-.4.1-.6.1-.1.1-.3.1-.5.1-.3.1-.6.1-1 .3-.1.1-.3.1-.4.1-.2.1-.5.1-.8.2-.1.1-.3.1-.4.1-.2.1-.4.1-.6.2-.1.4-.2.5-.4.5-.2.1-.4.1-.6.2-.1.1-.3.1-.5.1 0-.1-.1-.1-.2-.1h0c-1.2.5-2.2 1-3.1 1.5-8.1 4.8-10.7 6.4-10.9 7.5.7.6 1.9 1 2.8 1.2 4.1.6 8.3 1.2 12.5 1.5 2.2.2 4.4.3 6.4 1 1.8.6 3.5 1.6 5.2 2.3 3.5 1.4 7.3 1.7 11.1 1.9 8.8.5 17.6.6 26.5.8l9.2.2c6 .1 12.2.3 18.1-.9 2.4-.5 5-1.2 7.3-2 1.9-.6 4.1-1.5 4.5-3.5.4-.1.5-.5.4-.8z" fill="#626a77"/></svg>