<svg xmlns="http://www.w3.org/2000/svg" viewBox="0 0 115 115" fill="#efac5b"><path d="M72.2 23.95v25.07H40.76V23.95z"/><g stroke="#3d1a01" stroke-linecap="round" stroke-miterlimit="10" stroke-width="1.37"><path d="M45.9 29.14a5.09 5.09 0 0 0 3.87 4.35A4.72 4.72 0 0 0 54 31.66a50.45 50.45 0 0 0 1.83-8.82 51.37 51.37 0 0 0 .22-9.4 5.74 5.74 0 0 0-5-3.35 6 6 0 0 0-5.56 4.42 4.34 4.34 0 0 0-.09.45M81.84 30a44.6 44.6 0 0 1-1.74 18.57c-1.4 4.34-3 6.7-4.13 12.72a78.76 78.76 0 0 0-1.06 10.38c-.2 4-.16 6.9-.1 9.72l.3 18.54-26.5 1 1.12-29.4a26.07 26.07 0 0 0-.53-6.71 26.85 26.85 0 0 0-4.59-10.14"/><path d="M41.3 33.12A8.16 8.16 0 0 0 44.58 31c2.85-3 2.8-7.24 2.78-8a14.05 14.05 0 0 0-1.13-5.83c-.65-1.48-1.34-3.06-2.7-3.32s-2.56 1-2.84 1.32a16.31 16.31 0 0 1-2.15 4.32C36.18 22.86 33.8 23.24 33 26c-.32 1.17-.05 1.64.2 4.3a60.55 60.55 0 0 1 .08 9c0 3.2 2.23 8.1 12.16 15.5a49.06 49.06 0 0 0 8.82 5.22M56 13.43a5.53 5.53 0 0 1 5.81-2.18c3.13.82 4.2 4.2 4.26 4.4m9.07 6.13a5.12 5.12 0 0 1 4.48.82 7 7 0 0 1 2.23 6.75 26.5 26.5 0 0 1-3.79 6A24 24 0 0 1 74.33 39a3.82 3.82 0 0 1-4.63-.29 5.13 5.13 0 0 1-1.49-3.52"/><path d="M66.08,15.66a5.65,5.65,0,0,1,5.84-.18A7,7,0,0,1,75,21.87a38,38,0,0,1-2.5,6.72,35.39,35.39,0,0,1-4.55,7.11,4.79,4.79,0,0,1-4.9-.1,5.33,5.33,0,0,1-2-3.05"/></g><path d="M56.7 13.68a50.29 50.29 0 0 1-2.22 18.42l10.7-15.16.18-1.3a1.17 1.17 0 0 0-.22-.42c-.1-.08-8.38-1.65-8.38-1.65z"/><path d="M54.48 32.1a4.34 4.34 0 0 0 3.39 1.73 5 5 0 0 0 3.22-.83 58.78 58.78 0 0 0 3.28-9 60.85 60.85 0 0 0 1.71-8.62M45.94 30.86c-1.14-2 1.4 2.7 3.65 6.15m18.04 18.9a21.33 21.33 0 0 0 7.82-5.29" stroke="#3d1a01" stroke-linecap="round" stroke-miterlimit="10" stroke-width="1.37"/><path d="M59.92 46.83v6.98h-12.3v-6.98z"/></svg>