<svg xmlns="http://www.w3.org/2000/svg" viewBox="0 0 100 100"><path d="M92.49 33c-4.72-2.73-11-1.38-16.47 2.89-5.47-4.27-11.76-5.61-16.48-2.89-3.13 1.81-5.05 5.1-5.71 9.11a2 2 0 0 1-2 1.7h-1.65a2 2 0 0 1-2-1.7c-.66-4-2.58-7.31-5.71-9.11-4.72-2.73-11-1.38-16.47 2.89-5.48-4.27-11.76-5.61-16.49-2.89-7.13 4.12-8 16-1.94 26.45C12 67.18 19 72 25.24 72.39H26.71C33 72 39.93 67.18 44.4 59.45a31.49 31.49 0 0 0 2.67-6 3.68 3.68 0 0 1 3.5-2.45h.85a3.68 3.68 0 0 1 3.5 2.52 31.49 31.49 0 0 0 2.67 6C62.07 67.18 69 72 75.26 72.39H76.75C83 72 90 67.18 94.42 59.45 100.48 49 99.61 37.12 92.49 33z" fill="#e90855"/><path d="M38.95 37.48c-3.84-2.22-9-1.12-13.4 2.35-4.44-3.47-9.56-4.57-13.4-2.35-5.8 3.35-6.5 13-1.58 21.51 3.63 6.29 9.31 10.22 14.36 10.52h1.22c5.06-.3 10.73-4.23 14.36-10.52 4.94-8.54 4.23-18.17-1.56-21.51zM89.55 37.48c-3.84-2.22-9-1.12-13.4 2.35-4.44-3.47-9.56-4.57-13.4-2.35-5.8 3.35-6.5 13-1.58 21.51 3.63 6.29 9.31 10.22 14.36 10.52h1.22c5.06-.3 10.73-4.23 14.36-10.52 4.89-8.54 4.23-18.17-1.56-21.51z" fill="#65c6ce"/></svg>