<svg xmlns="http://www.w3.org/2000/svg" width="200" height="200" viewBox="0 0 150 150"><path d="M55.5 41.281h37.738c19.114 0 34.606 15.492 34.606 34.606v11.457c0 10.77-8.73 19.5-19.5 19.5H40.379c-10.77 0-19.5-8.73-19.5-19.5V75.887c0-19.121 15.504-34.614 34.621-34.606zm0 0" fill="#eb1c24"/><path d="M110.746 83.012c-18.617 0-33.707-9.887-33.707-22.082 0-.551.031-1.102.09-1.649l-2.79-.644-3 .703v.808c0 12.196-15.089 22.082-33.702 22.082-11.117 0-21-3.527-27.106-9l-1.636.375L22.648 100.5S62.91 116.055 126 101.762l13.844-28.114-1.242-.285c-6.079 5.82-16.278 9.649-27.856 9.649zm0 0" fill="#fad633"/><path d="M11.672 69.977a4.876 4.876 0 0 1-4.875 4.875 4.874 4.874 0 0 1-4.875-4.875 4.871 4.871 0 0 1 4.875-4.875 4.874 4.874 0 0 1 4.875 4.875zm0 0" fill="#fad633"/><path d="M7.441 69.422a2.176 2.176 0 0 1-4.351 0 2.176 2.176 0 0 1 4.352 0zm0 0" fill="#fbf172"/><path d="M147.39 69.977a4.876 4.876 0 0 1-4.874 4.875 4.876 4.876 0 0 1-4.875-4.875 4.874 4.874 0 0 1 4.875-4.875 4.874 4.874 0 0 1 4.875 4.875zm0 0" fill="#fad633"/><path d="M143.16 69.422a2.176 2.176 0 1 1-4.352 0 2.176 2.176 0 0 1 4.352 0zm0 0" fill="#fbf172"/><path d="M78.898 54.195a4.874 4.874 0 0 1-4.875 4.875 4.876 4.876 0 0 1-4.875-4.875 4.876 4.876 0 0 1 4.875-4.875 4.874 4.874 0 0 1 4.875 4.875zm0 0" fill="#fad633"/><path d="M74.672 53.656a2.176 2.176 0 0 1-4.352 0 2.176 2.176 0 0 1 4.352 0zm0 0M76.727 55.828c0 .5-.407.902-.903.902a.9.9 0 0 1 0-1.8c.496 0 .903.402.903.898zm0 0" fill="#fbf172"/><path d="M83.234 88.844c0-6.477-3.847-11.73-8.593-11.73s-8.594 5.253-8.594 11.73c0 6.48 3.848 11.73 8.594 11.73 4.746 0 8.593-5.25 8.593-11.73zm0 0" fill="#4dd2e4" stroke-width="1.125" stroke="#fbbd2c" stroke-miterlimit="10"/><path d="M70.816 79.035l3.66 9.781L70.98 98.82l-4.199-9.629zm0 0" fill="#47f1f9"/><path d="M78.523 79.035l3.649 9.781-3.48 10.004-4.215-10.004zm0 0" fill="#00aabe"/><path d="M70.785 79.11l7.738-.075-4.046 9.781zm0 0M70.98 98.82h7.711l-4.214-10.004zm0 0" fill="#24c3d8"/><path d="M49.184 93.96c0-3.718-2.207-6.733-4.934-6.733-2.727 0-4.934 3.015-4.934 6.734s2.207 6.734 4.934 6.734c2.727 0 4.934-3.015 4.934-6.734zm0 0" fill="#4dd2e4" stroke-width="1.125" stroke="#fbbd2c" stroke-miterlimit="10"/><path d="M42.059 88.32l2.101 5.61-1.996 5.746-2.414-5.52zm0 0" fill="#47f1f9"/><path d="M46.484 88.32l2.102 5.61-2.012 5.746-2.414-5.746zm0 0" fill="#00aabe"/><path d="M42.047 88.363l4.437-.043-2.324 5.61zm0 0M42.164 99.676h4.41L44.16 93.93zm0 0" fill="#24c3d8"/><path d="M112.05 93.96c0-3.718-2.21-6.733-4.937-6.733-2.722 0-4.933 3.015-4.933 6.734s2.21 6.734 4.933 6.734c2.727 0 4.938-3.015 4.938-6.734zm0 0" fill="#4dd2e4" stroke-width="1.125" stroke="#fbbd2c" stroke-miterlimit="10"/><path d="M104.926 88.32l2.097 5.61-2.007 5.746-2.414-5.52zm0 0" fill="#47f1f9"/><path d="M109.352 88.32l2.082 5.61-1.993 5.746-2.418-5.746zm0 0" fill="#00aabe"/><path d="M104.91 88.363l4.442-.043-2.329 5.61zm0 0M105.016 99.676h4.425l-2.418-5.746zm0 0" fill="#24c3d8"/><path d="M126 101.46c-.23.009-.46.06-.676.15-54.586 12.421-94.68 1.156-101.562-1.02a2.077 2.077 0 0 0-.559-.238h-.492a1.613 1.613 0 0 0-1.664 1.109c-.156.918.45 1.789 1.363 1.965h.285C71.762 119.129 126 104.852 126 104.852a1.696 1.696 0 0 0 0-3.391zm0 0" fill="#fbbd2c"/><path d="M47.086 77.863a4.83 4.83 0 1 1-9.66 0 4.829 4.829 0 0 1 4.828-4.828 4.832 4.832 0 0 1 4.832 4.828zm0 0" fill="#fad633"/><path d="M42.898 77.324a2.16 2.16 0 1 1-4.321 0 2.16 2.16 0 0 1 4.321 0zm0 0" fill="#fbf172"/><path d="M114.238 79.363a4.83 4.83 0 1 1-4.828-4.828 4.829 4.829 0 0 1 4.828 4.828zm0 0" fill="#fad633"/><path d="M110.04 78.824c0 1.196-.966 2.16-2.161 2.16a2.16 2.16 0 1 1 2.16-2.16zm0 0" fill="#fbf172"/></svg>