<svg xmlns="http://www.w3.org/2000/svg" width="110pt" height="110pt" viewBox="0 0 110 110"><path d="M86.063 61.523l1.367.079-.715-.133h-.66zm0 0"/><path d="M102.367 26.883a1.79 1.79 0 0 0-1.222-1.836 1.787 1.787 0 0 0-2.079.738c-.18.293-.32.61-.406.945-1.793 6.73-2.96 13.618-4.972 20.23-1.54 4.981-4.06 9.657-6.16 14.466a1.912 1.912 0 0 1-.255.406l-5.5 6.688a1.94 1.94 0 0 1-.418.68 31.68 31.68 0 0 1-5.234 4.402c-4.402 2.78-6.523 4.027-9.902.097-1.563-1.804-4.739-3.43-9.086-3.695h-.34c-5.918.672-5.961.957-11 4.082a6.719 6.719 0 0 1-6.785.637 52.376 52.376 0 0 1-7.703-5.356 1.187 1.187 0 0 1-.274-.363l-5.027-6.742h.023c-.648-1.102-1.101-1.785-1.53-2.532a90.682 90.682 0 0 1-10.25-31.824 7.221 7.221 0 0 0-.618-2.144 1.796 1.796 0 0 0-2.05-.996 1.799 1.799 0 0 0-1.372 1.82c.2 5.5.387 10.727.64 15.95.602 12.421 1.794 24.718 6.883 36.3 2.204 4.906 4.47 9.613 8.868 12.992L24.32 87.43c3.39 2.992 6.184 5.804 9.317 8.172 11.87 8.941 24.597 11.503 38.324 4.398a55.679 55.679 0 0 0 20.902-19.203l2.11-3.192.343.165-.464 3.19c.113.837.453.692.87.177 1.255-4.942 3.126-9.813 3.641-14.828 1.34-13.114 2.102-26.282 3.047-39.426zm0 0"/></svg>