<svg xmlns="http://www.w3.org/2000/svg" width="200" height="200" viewBox="0 0 150 150"><path d="M111 79.41c-18.48 0-33.465-9.808-33.465-21.914 0-.547.028-1.094.09-1.637l-2.773-.629-3 .704v.812c0 12.106-15 21.914-33.465 21.914-11.043 0-20.82-3.496-26.91-8.894l-1.622.375 13.711 26.73s39.957 15.375 102.63 1.184l13.71-27.899-1.23-.285c-6 5.742-16.14 9.54-27.676 9.54zm0 0" fill="#fad633"/><path d="M12.66 66.465a4.833 4.833 0 0 1-4.832 4.832A4.832 4.832 0 0 1 3 66.465a4.829 4.829 0 0 1 4.828-4.828 4.83 4.83 0 0 1 4.832 4.828zm0 0" fill="#fad633"/><path d="M8.477 65.926a2.16 2.16 0 1 1-4.321 0 2.16 2.16 0 0 1 4.32 0zm0 0" fill="#fbf172"/><path d="M48.703 73.559a4.83 4.83 0 0 1-4.828 4.832 4.83 4.83 0 0 1-4.828-4.832 4.826 4.826 0 0 1 4.828-4.829 4.826 4.826 0 0 1 4.828 4.829zm0 0" fill="#fad633"/><path d="M44.52 73.02a2.16 2.16 0 1 1-4.321 0 2.16 2.16 0 0 1 4.32 0zm0 0" fill="#fbf172"/><path d="M109.86 75.059a4.83 4.83 0 1 1-9.66 0 4.83 4.83 0 0 1 4.831-4.829 4.826 4.826 0 0 1 4.828 4.829zm0 0" fill="#fad633"/><path d="M105.66 74.52a2.16 2.16 0 1 1-4.32 0 2.16 2.16 0 0 1 4.32 0zm0 0" fill="#fbf172"/><path d="M147.406 66.465a4.83 4.83 0 1 1-9.66 0 4.826 4.826 0 0 1 4.828-4.828 4.83 4.83 0 0 1 4.832 4.828zm0 0" fill="#fad633"/><path d="M143.219 65.926a2.16 2.16 0 1 1-4.32 0 2.16 2.16 0 0 1 4.32 0zm0 0" fill="#fbf172"/><path d="M79.426 50.805a4.83 4.83 0 1 1-9.66 0 4.826 4.826 0 0 1 4.828-4.828 4.83 4.83 0 0 1 4.832 4.828zm0 0" fill="#fad633"/><path d="M75.227 50.266a2.16 2.16 0 1 1-4.321 0 2.16 2.16 0 0 1 4.32 0zm0 0M77.281 52.41a.9.9 0 1 1-1.799-.002.9.9 0 0 1 1.8.002zm0 0" fill="#fbf172"/><path d="M83.73 85.2c0-6.43-3.82-11.641-8.535-11.641s-8.535 5.21-8.535 11.64c0 6.43 3.82 11.64 8.535 11.64s8.535-5.21 8.535-11.64zm0 0" fill="#4dd2e4" stroke-width=".75" stroke="#fbbd2c" stroke-miterlimit="10"/><path d="M71.398 75.45l3.633 9.722-3.465 9.941-4.187-9.566zm0 0" fill="#47f1f9"/><path d="M79.05 75.45l3.63 9.722-3.465 9.941-4.184-9.941zm0 0" fill="#00aabe"/><path d="M71.371 75.54l7.68-.09-4.02 9.722zm.195 19.573h7.649l-4.184-9.941zm0 0" fill="#24c3d8"/><path d="M126.21 97.727h-.073c-.23.007-.453.058-.66.148C71.28 110.219 31.5 99 24.629 96.871a2.064 2.064 0 0 0-.555-.242h-.496a1.606 1.606 0 0 0-1.648 1.098 1.696 1.696 0 0 0 1.351 1.964h.285c48.75 15.555 102.63 1.364 102.63 1.364a1.68 1.68 0 0 0 1.652-2.563 1.68 1.68 0 0 0-1.637-.765zm0 0" fill="#fbbd2c"/><path d="M72.164 100.621a1.455 1.455 0 1 1-2.91-.004 1.455 1.455 0 0 1 2.91.004zm0 0M63.227 100.621a1.456 1.456 0 1 1-2.913-.006 1.456 1.456 0 0 1 2.913.006zm0 0M54.27 100.004a1.456 1.456 0 1 1-2.91 0 1.456 1.456 0 0 1 2.91 0zm0 0M45.328 98.773a1.454 1.454 0 1 1-2.906 0 1.453 1.453 0 1 1 2.906 0zm0 0M36.39 96.914c0 .805-.652 1.457-1.456 1.457a1.456 1.456 0 0 1 0-2.91c.804 0 1.457.652 1.457 1.453zm0 0M81.105 100.621a1.456 1.456 0 0 1-2.91 0 1.456 1.456 0 1 1 2.91 0zm0 0M90.047 100.621a1.456 1.456 0 1 1-2.913-.006 1.456 1.456 0 0 1 2.913.006zm0 0M99 100.004a1.456 1.456 0 1 1-2.91 0 1.456 1.456 0 0 1 2.91 0zm0 0M107.941 98.773c0 .805-.652 1.457-1.457 1.457a1.454 1.454 0 0 1-1.453-1.457 1.456 1.456 0 0 1 2.91 0zm0 0M116.879 97.531a1.456 1.456 0 1 1-1.453-1.457c.804 0 1.453.653 1.453 1.457zm0 0M27.45 94.754a1.456 1.456 0 1 1-2.91 0 1.456 1.456 0 0 1 2.91 0zm0 0M125.82 95.684a1.456 1.456 0 1 1-1.457-1.453c.805 0 1.457.652 1.457 1.453zm0 0" fill="#fff"/></svg>