<svg xmlns="http://www.w3.org/2000/svg" width="110pt" height="110pt" viewBox="0 0 110 110"><g fill="#473634"><path d="M85.426 61.965l1.363.129-.715-.13h-.66zm0 0"/><path d="M101.727 27.336a1.794 1.794 0 0 0-1.22-1.84 1.797 1.797 0 0 0-2.077.738c-.184.293-.32.614-.41.946-1.793 6.699-2.926 13.586-4.97 20.187-1.542 4.98-4.062 9.656-6.16 14.465a1.912 1.912 0 0 1-.253.406l-5.5 6.688a2.054 2.054 0 0 1-.418.683 31.877 31.877 0 0 1-5.239 4.399c-4.398 2.781-6.52 4.027-9.898.097-1.562-1.8-4.742-3.43-9.086-3.695h-.34c-5.918.672-5.965.957-11 4.082a6.725 6.725 0 0 1-6.789.637 52.34 52.34 0 0 1-7.699-5.356 1.038 1.038 0 0 1-.273-.363l-4.942-6.71h-.066c-.649-1.098-1.098-1.782-1.528-2.528a90.769 90.769 0 0 1-10.254-31.824 7.181 7.181 0 0 0-.613-2.145 1.792 1.792 0 1 0-3.422.824c.2 5.5.383 10.727.637 15.95.605 12.418 1.793 24.718 6.887 36.3 2.199 4.907 4.465 9.614 8.867 12.993l-2.277-4.403c3.386 2.992 6.18 5.809 9.316 8.172 11.867 8.945 24.598 11.508 38.324 4.402a55.647 55.647 0 0 0 20.899-19.207l2.07-3.132.309.183-.465 3.192c.11.835.453.695.87.175 1.255-4.937 3.126-9.812 3.641-14.828 1.34-13.11 2.102-26.277 3.047-39.422v-.066zm0 0"/></g></svg>