<svg xmlns="http://www.w3.org/2000/svg" viewBox="0 0 100 100"><path d="M93.55 55.3l2-22.52H94c-4.56-.09-17.65-1-24.79-8.23-8.81-8.85-14.28-10.24-14.28-10.24a20.25 20.25 0 0 0-20.79 7.3C25.54 32.47 4.43 32.78 4.43 32.78l1.41 20.35C7.09 75.64 22.72 92.88 43.29 94.9l12 .14C78.22 93.5 90.11 78 93.55 55.3z" fill="#2fbcbc"/><path d="M93.25 58.11l2-20.92h-1.6c-4.53-.09-17.52-.94-24.65-7.65C60.33 21.31 54.89 20 54.89 20s-12.11-3.32-20.65 6.78-29.5 10.4-29.5 10.4l1.4 18.9C7.38 77 22.91 93 43.34 94.91l11.92.09C78 93.61 89.83 79.18 93.25 58.11z" fill="#42c1c7"/><path d="M19.54 68.74a50.51 50.51 0 0 0 7.1 4.11 49.88 49.88 0 0 0 7.51 3.08 59.84 59.84 0 0 0 7.82 2 45 45 0 0 0 8 .58 46.9 46.9 0 0 0 15.76-2.71l1.92-.66c.64-.23 1.25-.51 1.88-.76 1.27-.48 2.47-1.12 3.71-1.7s2.43-1.25 3.65-1.87 2.36-1.4 3.57-2.07l.09.12a60.67 60.67 0 0 1-14.41 8c-.64.27-1.29.48-2 .69s-1.31.44-2 .63c-1.34.34-2.67.72-4 .95s-2.73.43-4.1.62-2.7.25-4.04.25a46 46 0 0 1-16.26-3 50.08 50.08 0 0 1-7.5-3.49 43.55 43.55 0 0 1-6.81-4.69zM15.32 56.62c2.83.82 5.65 1.61 8.52 2.19 1.42.35 2.86.61 4.28.92l4.31.74c1.44.19 2.89.37 4.32.61s2.89.32 4.33.49 2.89.2 4.34.3l2.17.13h2.17c1.45 0 2.9.12 4.34 0l4.34-.18c1.45-.07 2.88-.3 4.32-.44l2.16-.23c.72-.09 1.43-.23 2.15-.34l4.3-.71 4.23-1.05c.71-.17 1.43-.31 2.14-.49l2.09-.67c1.39-.46 2.79-.89 4.22-1.3l.06.14L80 58.38l-2 .82c-.7.24-1.41.42-2.11.64l-4.23 1.25-4.36.91c-.72.14-1.44.31-2.16.43l-2.19.28c-1.46.17-2.92.42-4.38.51l-4.41.25c-1.47.1-2.94 0-4.41 0a102.38 102.38 0 0 1-17.53-1.86 97.13 97.13 0 0 1-16.94-4.86zM15.3 45.59c3 0 5.93-.06 8.86-.32A38.86 38.86 0 0 0 32.71 44a11.35 11.35 0 0 0 1.89-.75 7.32 7.32 0 0 0 .82-.46l.91-.62a17.72 17.72 0 0 1 4.3-2A29.66 29.66 0 0 1 45.15 39a33 33 0 0 1 4.65-.44 31.57 31.57 0 0 1 9.08 1.84 18.27 18.27 0 0 1 4.21 2.19l.91.65a6.61 6.61 0 0 0 .81.47 10.39 10.39 0 0 0 1.88.74 35.79 35.79 0 0 0 8.56 1.15c2.93.18 5.89.12 8.86.05v.15a80.92 80.92 0 0 1-8.87.59 36.5 36.5 0 0 1-8.85-.81 10.12 10.12 0 0 1-4-1.91 16.92 16.92 0 0 0-3.93-2 30.26 30.26 0 0 0-8.66-1.62 31.68 31.68 0 0 0-8.8 1.34 16.38 16.38 0 0 0-4 1.82 11.05 11.05 0 0 1-4 1.87 39.49 39.49 0 0 1-8.84 1 86.37 86.37 0 0 1-8.89-.32v-.17z" fill="#fff"/></svg>